<svg width="96" height="120" viewBox="0 0 96 120" fill="none" xmlns="http://www.w3.org/2000/svg">
<path fill-rule="evenodd" clip-rule="evenodd" d="M84 0H12C8.8174 0 5.76515 1.26428 3.51472 3.51472C1.26428 5.76515 0 8.8174 0 12V120H34.5004V93.7502H61.5004V120H96V12C96 8.8174 94.7357 5.76515 92.4853 3.51472C90.2348 1.26428 87.1826 0 84 0ZM12.0004 108H12V12H12.0004V108ZM42.0008 24.0008H24.0008V42.0008H42.0008V24.0008ZM24.0008 54.0008H42.0008V72.0008H24.0008V54.0008ZM54.0008 54.0008H72.0008V72.0008H54.0008V54.0008ZM72 24.0008H54V42.0008H72V24.0008Z" fill="#BDBDBD"/>
</svg>
