<svg width="20" height="20" viewBox="0 0 20 20" fill="none" xmlns="http://www.w3.org/2000/svg">
<g clip-path="url(#clip0_36376_15100)">
<path d="M7.49984 18.3327C7.96007 18.3327 8.33317 17.9596 8.33317 17.4993C8.33317 17.0391 7.96007 16.666 7.49984 16.666C7.0396 16.666 6.6665 17.0391 6.6665 17.4993C6.6665 17.9596 7.0396 18.3327 7.49984 18.3327Z" fill="white" stroke="white" stroke-width="2" stroke-linecap="round" stroke-linejoin="round"/>
<path d="M16.6668 18.3327C17.1271 18.3327 17.5002 17.9596 17.5002 17.4993C17.5002 17.0391 17.1271 16.666 16.6668 16.666C16.2066 16.666 15.8335 17.0391 15.8335 17.4993C15.8335 17.9596 16.2066 18.3327 16.6668 18.3327Z" fill="white" stroke="white" stroke-width="2" stroke-linecap="round" stroke-linejoin="round"/>
<path d="M0.833496 0.833984H4.16683L6.40016 11.9923C6.47637 12.376 6.68509 12.7206 6.98978 12.9659C7.29448 13.2112 7.67574 13.3415 8.06683 13.334H16.1668C16.5579 13.3415 16.9392 13.2112 17.2439 12.9659C17.5486 12.7206 17.7573 12.376 17.8335 11.9923L19.1668 5.00065H5.00078L4.16683 0.833984" fill="white"/>
<path d="M0.833496 0.833984H4.16683M4.16683 0.833984L6.40016 11.9923C6.47637 12.376 6.68509 12.7206 6.98978 12.9659C7.29448 13.2112 7.67574 13.3415 8.06683 13.334H16.1668C16.5579 13.3415 16.9392 13.2112 17.2439 12.9659C17.5486 12.7206 17.7573 12.376 17.8335 11.9923L19.1668 5.00065H5.00078L4.16683 0.833984Z" stroke="white" stroke-width="2" stroke-linecap="round" stroke-linejoin="round"/>
</g>
<defs>
<clipPath id="clip0_36376_15100">
<rect width="20" height="20" fill="white"/>
</clipPath>
</defs>
</svg>
