<svg width="120" height="120" viewBox="0 0 120 120" fill="none" xmlns="http://www.w3.org/2000/svg">
<g clip-path="url(#clip0_7707_83981)">
<path d="M0 36V4C0 1.79086 1.79086 1.78814e-07 4 1.78814e-07C6.20914 1.78814e-07 8 1.79086 8 4V36C8 39.1826 9.26428 42.2348 11.5147 44.4853C13.7652 46.7357 16.8174 48 20 48C23.1826 48 26.2348 46.7357 28.4853 44.4853C30.7357 42.2348 32 39.1826 32 36V12C32 10.9391 31.5786 9.92172 30.8284 9.17157C30.0783 8.42143 29.0609 8 28 8C26.9391 8 25.9217 8.42143 25.1716 9.17157C24.4214 9.92172 24 10.9391 24 12V36C24 38.2091 22.2091 40 20 40C17.7909 40 16 38.2091 16 36V12C16 10.4241 16.3104 8.86371 16.9134 7.4078C17.5165 5.95189 18.4004 4.62902 19.5147 3.51472C20.629 2.40042 21.9519 1.5165 23.4078 0.913446C24.8637 0.310389 26.4241 0 28 0C29.5759 0 31.1363 0.310389 32.5922 0.913446C34.0481 1.5165 35.371 2.40042 36.4853 3.51472C37.5996 4.62902 38.4835 5.95189 39.0866 7.4078C39.6896 8.86371 40 10.4241 40 12V36C40 41.3043 37.8929 46.3914 34.1421 50.1421C30.3914 53.8929 25.3043 56 20 56C14.6957 56 9.60859 53.8929 5.85786 50.1421C2.10714 46.3914 0 41.3043 0 36Z" fill="#BDBDBD"/>
<path fill-rule="evenodd" clip-rule="evenodd" d="M100 0H48V36C48 43.4261 45.05 50.548 39.799 55.799C34.548 61.05 27.4261 64 20 64H8V108C8 111.183 9.26428 114.235 11.5147 116.485C13.7652 118.736 16.8174 120 20 120H100C103.183 120 106.235 118.736 108.485 116.485C110.736 114.235 112 111.183 112 108V12C112 8.8174 110.736 5.76515 108.485 3.51472C106.235 1.26428 103.183 0 100 0ZM88 36C88 33.7909 86.2091 32 84 32H60C57.7909 32 56 33.7909 56 36C56 38.2091 57.7909 40 60 40H84C86.2091 40 88 38.2091 88 36ZM88 60C88 57.7909 86.2091 56 84 56H60C57.7909 56 56 57.7909 56 60C56 62.2091 57.7909 64 60 64H84C86.2091 64 88 62.2091 88 60ZM32 84C32 81.7909 33.7909 80 36 80H84C86.2091 80 88 81.7909 88 84C88 86.2091 86.2091 88 84 88H36C33.7909 88 32 86.2091 32 84Z" fill="#BDBDBD"/>
</g>
<defs>
<clipPath id="clip0_7707_83981">
<rect width="120" height="120" fill="white"/>
</clipPath>
</defs>
</svg>
