<svg width="24" height="24" viewBox="0 0 24 24" fill="none" xmlns="http://www.w3.org/2000/svg">
<g clip-path="url(#clip0_46660_32091)">
<circle cx="12" cy="12" r="12" fill="url(#paint0_linear_46660_32091)"/>
<path opacity="0.2" d="M22.8428 6.86426C23.5813 8.42136 23.9961 10.1621 23.9961 12C23.9961 18.6274 18.6235 24 11.9961 24C8.93887 24 6.15021 22.855 4.03125 20.9727L22.8428 6.86426Z" fill="#25262B"/>
<circle cx="12" cy="12" r="8" fill="white"/>
<g filter="url(#filter0_ii_46660_32091)">
<path d="M11.9998 20.9994C16.9148 20.9994 21 16.9229 21 11.9992C21 7.08423 16.9058 2.99902 11.9908 2.99902C7.06752 2.99902 3 7.08423 3 11.9992C3 16.9229 7.07618 20.9994 11.9998 20.9994Z" fill="url(#paint1_linear_46660_32091)"/>
</g>
<path d="M11.5245 6.46352C11.6741 6.00287 12.3259 6.00287 12.4755 6.46353L13.4593 9.49139C13.5263 9.6974 13.7183 9.83688 13.9349 9.83688H17.1186C17.6029 9.83688 17.8043 10.4567 17.4124 10.7414L14.8368 12.6127C14.6615 12.74 14.5882 12.9657 14.6552 13.1717L15.639 16.1996C15.7886 16.6602 15.2614 17.0433 14.8695 16.7586L12.2939 14.8873C12.1186 14.76 11.8814 14.76 11.7061 14.8873L9.13045 16.7586C8.73859 17.0433 8.21136 16.6602 8.36103 16.1996L9.34484 13.1717C9.41178 12.9657 9.33845 12.74 9.16321 12.6127L6.58755 10.7414C6.1957 10.4567 6.39708 9.83688 6.88145 9.83688H10.0651C10.2817 9.83688 10.4737 9.6974 10.5407 9.49139L11.5245 6.46352Z" fill="white"/>
</g>
<defs>
<filter id="filter0_ii_46660_32091" x="2" y="1.99902" width="20" height="20.0005" filterUnits="userSpaceOnUse" color-interpolation-filters="sRGB">
<feFlood flood-opacity="0" result="BackgroundImageFix"/>
<feBlend mode="normal" in="SourceGraphic" in2="BackgroundImageFix" result="shape"/>
<feColorMatrix in="SourceAlpha" type="matrix" values="0 0 0 0 0 0 0 0 0 0 0 0 0 0 0 0 0 0 127 0" result="hardAlpha"/>
<feOffset dx="-1" dy="-1"/>
<feGaussianBlur stdDeviation="0.5"/>
<feComposite in2="hardAlpha" operator="arithmetic" k2="-1" k3="1"/>
<feColorMatrix type="matrix" values="0 0 0 0 0.580392 0 0 0 0 0.360784 0 0 0 0 0.0470588 0 0 0 0.3 0"/>
<feBlend mode="normal" in2="shape" result="effect1_innerShadow_46660_32091"/>
<feColorMatrix in="SourceAlpha" type="matrix" values="0 0 0 0 0 0 0 0 0 0 0 0 0 0 0 0 0 0 127 0" result="hardAlpha"/>
<feOffset dx="1" dy="1"/>
<feGaussianBlur stdDeviation="1"/>
<feComposite in2="hardAlpha" operator="arithmetic" k2="-1" k3="1"/>
<feColorMatrix type="matrix" values="0 0 0 0 1 0 0 0 0 1 0 0 0 0 1 0 0 0 0.3 0"/>
<feBlend mode="normal" in2="effect1_innerShadow_46660_32091" result="effect2_innerShadow_46660_32091"/>
</filter>
<linearGradient id="paint0_linear_46660_32091" x1="17.5" y1="23" x2="6.5" y2="2" gradientUnits="userSpaceOnUse">
<stop stop-color="#A76400"/>
<stop offset="0.7" stop-color="#FF991F"/>
</linearGradient>
<linearGradient id="paint1_linear_46660_32091" x1="15.9529" y1="20.7844" x2="8.48597" y2="3.21521" gradientUnits="userSpaceOnUse">
<stop stop-color="#F3AF00"/>
<stop offset="1" stop-color="#FFC83A"/>
</linearGradient>
<clipPath id="clip0_46660_32091">
<rect width="24" height="24" fill="white"/>
</clipPath>
</defs>
</svg>
