<svg width="36" height="36" viewBox="0 0 36 36" fill="none" xmlns="http://www.w3.org/2000/svg">
<path d="M24.75 2.9999C25.6358 2.99972 26.5072 3.22365 27.2831 3.65086C28.0591 4.07806 28.7143 4.69464 29.1879 5.4432C29.6614 6.19177 29.9378 7.04797 29.9915 7.93212C30.0451 8.81627 29.8741 9.6996 29.4945 10.4999H30C30.7957 10.4999 31.5587 10.816 32.1213 11.3786C32.6839 11.9412 33 12.7043 33 13.4999V14.9999C33 15.7956 32.6839 16.5586 32.1213 17.1212C31.5587 17.6838 30.7957 17.9999 30 17.9999H19.5V10.4999H16.5V17.9999H6C5.20435 17.9999 4.44129 17.6838 3.87868 17.1212C3.31607 16.5586 3 15.7956 3 14.9999V13.4999C3 12.7043 3.31607 11.9412 3.87868 11.3786C4.44129 10.816 5.20435 10.4999 6 10.4999H6.5055C6.17233 9.79664 5.99966 9.0281 6 8.2499C6 5.3504 8.3505 2.9999 11.2245 2.9999C13.857 2.9549 16.1925 4.6379 17.796 7.4009L18 7.7654C19.5495 4.8944 21.84 3.0944 24.4365 3.0029L24.75 2.9999ZM11.25 5.9999C10.6533 5.9999 10.081 6.23696 9.65901 6.65891C9.23705 7.08087 9 7.65317 9 8.2499C9 8.84664 9.23705 9.41894 9.65901 9.84089C10.081 10.2629 10.6533 10.4999 11.25 10.4999H15.9645C14.853 7.6424 13.041 5.9699 11.25 5.9999ZM24.7245 5.9999C22.9545 5.9699 21.147 7.6439 20.0355 10.4999H24.75C25.3467 10.4965 25.9177 10.2562 26.3373 9.83188C26.7568 9.40753 26.9906 8.83389 26.9873 8.23715C26.9839 7.64042 26.7436 7.06946 26.3192 6.6499C25.8949 6.23033 25.3212 5.99652 24.7245 5.9999Z" fill="#00A2B9"/>
<path d="M16.5 33V21H7.5C7.10218 21 6.72064 21.158 6.43934 21.4393C6.15804 21.7206 6 22.1022 6 22.5V28.5C6 29.6935 6.47411 30.8381 7.31802 31.682C8.16193 32.5259 9.30653 33 10.5 33H16.5Z" fill="#1A5A71"/>
<path d="M29.5607 21.4393C29.2794 21.158 28.8978 21 28.5 21H19.5V33H25.5C26.6935 33 27.8381 32.5259 28.682 31.682C29.5259 30.8381 30 29.6935 30 28.5V22.5C30 22.1022 29.842 21.7206 29.5607 21.4393Z" fill="#1A5A71"/>
</svg>
