<svg width="20" height="20" viewBox="0 0 20 20" fill="none" xmlns="http://www.w3.org/2000/svg">
<g clip-path="url(#clip0_30975_22315)">
<path d="M16.8491 14.1881L11.438 4.22148C11.2947 3.95827 11.0831 3.73855 10.8255 3.58545C10.5679 3.43236 10.2738 3.35156 9.97407 3.35156C9.6744 3.35156 9.38027 3.43236 9.12264 3.58545C8.86502 3.73855 8.65345 3.95827 8.51019 4.22148L3.09352 14.1881C2.95174 14.4426 2.87914 14.7298 2.88296 15.0211C2.88677 15.3124 2.96686 15.5976 3.11524 15.8483C3.26363 16.0989 3.47513 16.3064 3.72865 16.4498C3.98218 16.5933 4.26889 16.6678 4.56019 16.6659H15.3824C15.6713 16.6662 15.9553 16.5913 16.2066 16.4487C16.4579 16.3061 16.6677 16.1007 16.8156 15.8525C16.9636 15.6043 17.0444 15.3219 17.0503 15.0331C17.0561 14.7442 16.9868 14.4588 16.8491 14.2048V14.1881ZM9.14352 7.07704C9.14352 6.85602 9.23132 6.64406 9.3876 6.48778C9.54388 6.3315 9.75584 6.2437 9.97685 6.2437C10.1979 6.2437 10.4098 6.3315 10.5661 6.48778C10.7224 6.64406 10.8102 6.85602 10.8102 7.07704V10.9048C10.8102 11.1258 10.7224 11.3378 10.5661 11.4941C10.4098 11.6504 10.1979 11.7381 9.97685 11.7381C9.75584 11.7381 9.54388 11.6504 9.3876 11.4941C9.23132 11.3378 9.14352 11.1258 9.14352 10.9048V7.07704ZM9.99907 14.5826C9.81008 14.5826 9.62534 14.5265 9.4682 14.4216C9.31106 14.3166 9.18858 14.1673 9.11626 13.9927C9.04393 13.8181 9.02501 13.626 9.06188 13.4406C9.09875 13.2553 9.18976 13.085 9.3234 12.9514C9.45703 12.8177 9.62729 12.7267 9.81265 12.6898C9.99801 12.653 10.1901 12.6719 10.3647 12.7442C10.5394 12.8165 10.6886 12.939 10.7936 13.0962C10.8986 13.2533 10.9546 13.438 10.9546 13.627C10.9546 13.8805 10.854 14.1235 10.6748 14.3027C10.4956 14.4819 10.2525 14.5826 9.99907 14.5826Z" fill="#F3AF00"/>
</g>
<defs>
<clipPath id="clip0_30975_22315">
<rect width="20" height="20" fill="white"/>
</clipPath>
</defs>
</svg>
