<svg width="12" height="14" viewBox="0 0 12 14" fill="none" xmlns="http://www.w3.org/2000/svg">
<path d="M10.8182 5.90909C10.8182 9.72727 5.90909 13 5.90909 13C5.90909 13 1 9.72727 1 5.90909C1 4.60712 1.51721 3.35847 2.43784 2.43784C3.35847 1.51721 4.60712 1 5.90909 1C7.21106 1 8.45971 1.51721 9.38034 2.43784C10.301 3.35847 10.8182 4.60712 10.8182 5.90909Z" stroke="#00A2B9" stroke-width="1.5" stroke-linecap="round" stroke-linejoin="round"/>
<path d="M5.90909 7.54546C6.81283 7.54546 7.54546 6.81283 7.54546 5.90909C7.54546 5.00535 6.81283 4.27273 5.90909 4.27273C5.00535 4.27273 4.27273 5.00535 4.27273 5.90909C4.27273 6.81283 5.00535 7.54546 5.90909 7.54546Z" stroke="#00A2B9" stroke-width="1.5" stroke-linecap="round" stroke-linejoin="round"/>
</svg>
