<svg width="16" height="16" viewBox="0 0 16 16" fill="none" xmlns="http://www.w3.org/2000/svg">
<path d="M2.66663 2.66671V13.3334C2.66663 13.687 2.8071 14.0261 3.05715 14.2762C3.3072 14.5262 3.64634 14.6667 3.99996 14.6667H12C12.3536 14.6667 12.6927 14.5262 12.9428 14.2762C13.1928 14.0261 13.3333 13.687 13.3333 13.3334V5.56137C13.3333 5.38375 13.2978 5.20792 13.2288 5.0442C13.1599 4.88049 13.059 4.7322 12.932 4.60804L9.97196 1.71337C9.72287 1.46981 9.38834 1.33342 9.03996 1.33337H3.99996C3.64634 1.33337 3.3072 1.47385 3.05715 1.7239C2.8071 1.97395 2.66663 2.31309 2.66663 2.66671Z" stroke="#00A2B9" stroke-width="1.5" stroke-linecap="round" stroke-linejoin="round"/>
<path d="M9.33325 1.66675V4.11119C9.33325 4.43535 9.47373 4.74622 9.72378 4.97543C9.97383 5.20465 10.313 5.33342 10.6666 5.33342H13.3333" stroke="#00A2B9" stroke-width="1.5" stroke-linejoin="round"/>
<path d="M6 8.66675H10M6 11.3334H8" stroke="#00A2B9" stroke-width="1.5" stroke-linecap="round" stroke-linejoin="round"/>
</svg>
