<svg width="36" height="36" viewBox="0 0 36 36" fill="none" xmlns="http://www.w3.org/2000/svg">
<rect width="36" height="36" rx="6" fill="#EAFBEF"/>
<g clip-path="url(#clip0_12620_1493)">
<path d="M12.9818 27.2974L12.6761 27.6031V26.1893C12.6415 25.2582 11.3053 25.2589 11.2711 26.1893V27.6031L10.9654 27.2974C10.2826 26.6634 9.33819 27.6089 9.9719 28.2909L11.4769 29.7959C11.7384 30.068 12.2088 30.068 12.4703 29.7959L13.9753 28.2909C14.2496 28.0166 14.2496 27.5718 13.9753 27.2974C13.7009 27.0231 13.2561 27.0231 12.9818 27.2974Z" fill="#00A92F"/>
<path d="M19.0018 27.2974L18.6961 27.6031V26.1893C18.6615 25.2582 17.3253 25.2589 17.2911 26.1893V27.6031L16.9854 27.2974C16.7111 27.023 16.2663 27.0231 15.9919 27.2974C15.7175 27.5717 15.7175 28.0166 15.9919 28.2909L17.4969 29.7959C17.7584 30.068 18.2288 30.068 18.4903 29.7959L19.9953 28.2909C20.2696 28.0166 20.2696 27.5718 19.9953 27.2974C19.7209 27.0231 19.2761 27.0231 19.0018 27.2974Z" fill="#00A92F"/>
<path d="M18.7463 14.9979C17.8889 14.9979 17.1914 15.8641 17.1914 16.929C17.269 19.4869 20.2238 19.4865 20.3012 16.9289C20.3012 15.8641 19.6036 14.9979 18.7463 14.9979Z" fill="#00A92F"/>
<path d="M29.9828 17.3053C29.9828 15.1605 28.3227 13.3961 26.22 13.2296C26.2563 10.9928 24.4706 9.13996 22.248 9.07982C20.7807 4.82119 14.6945 5.12289 13.6282 9.46831C10.9705 8.11407 7.81674 10.427 8.30663 13.3716C5.25119 15.0545 5.25794 19.5616 8.30663 21.2391C8.04497 22.7909 8.87046 24.3691 10.1872 25.0731C11.121 23.5635 13.4299 23.8477 13.9759 25.5325H15.9912C16.6314 23.6099 19.3561 23.6111 19.9956 25.5325H22.0108C22.6444 23.6262 25.3407 23.6057 26.0046 25.4995C28.4763 25.2147 30.0051 22.3829 28.8334 20.1481C29.5704 19.3906 29.9828 18.3845 29.9828 17.3053ZM14.8142 19.2021C13.1468 21.4138 9.74718 19.9414 9.76629 16.929C9.76625 15.0895 11.094 13.5929 12.7261 13.5929C14.3457 13.5929 14.9336 14.9131 14.9336 15.8004C14.9336 16.1883 14.619 16.5029 14.231 16.5029C13.8431 16.5029 13.5285 16.1883 13.5285 15.8004C13.4646 14.3364 11.1522 14.9384 11.1713 16.9291C11.1444 18.5189 12.7563 19.4824 13.654 18.4095C14.2078 17.6601 15.3107 18.4145 14.8142 19.2021ZM18.7459 20.2652C17.1138 20.2652 15.786 18.7686 15.786 16.9291C15.9397 12.5073 21.5526 12.5083 21.7058 16.9291C21.7058 18.7686 20.3779 20.2652 18.7459 20.2652ZM25.518 21.1176C26.4491 21.1521 26.4484 22.4883 25.518 22.5226H23.2414C22.8534 22.5226 22.5389 22.208 22.5389 21.8201C22.5389 20.8704 23.3468 20.3432 23.9959 19.9196C24.3223 19.7066 24.8155 19.3848 24.8155 19.1962C24.7967 18.6357 24.0312 18.6563 23.9081 19.0313C23.5951 19.9091 22.3212 19.5061 22.5684 18.6087C22.6982 18.1752 23.2438 17.3553 24.3795 17.3553C25.3946 17.3553 26.2204 18.1812 26.2204 19.1963C26.2204 20.1457 25.4127 20.6728 24.7637 21.0963C24.753 21.1033 24.7421 21.1104 24.731 21.1176H25.518V21.1176Z" fill="#00A92F"/>
<path d="M25.0208 27.2974L24.7151 27.6031V26.1893C24.6806 25.2582 23.3444 25.2589 23.3101 26.1893V27.6031L23.0044 27.2974C22.3217 26.6634 21.3773 27.6089 22.011 28.2909L23.5159 29.7959C23.7775 30.068 24.2478 30.068 24.5094 29.7959L26.0144 28.2909C26.2887 28.0166 26.2887 27.5718 26.0144 27.2974C25.74 27.0231 25.2951 27.0231 25.0208 27.2974Z" fill="#00A92F"/>
</g>
<defs>
<clipPath id="clip0_12620_1493">
<rect width="24" height="24" fill="white" transform="translate(6 6)"/>
</clipPath>
</defs>
</svg>
