<svg width="189" height="77" viewBox="0 0 189 77" fill="none" xmlns="http://www.w3.org/2000/svg">
<g opacity="0.58">
<rect opacity="0.1" x="114.73" y="64.2031" width="15.2974" height="15.2974" rx="2" transform="rotate(45 114.73 64.2031)" fill="#25262B"/>
<rect opacity="0.1" x="84.1357" y="64.2031" width="15.2974" height="15.2974" rx="2" transform="rotate(45 84.1357 64.2031)" fill="#25262B"/>
<rect opacity="0.05" x="53.541" y="64.2031" width="15.2974" height="15.2974" rx="2" transform="rotate(45 53.541 64.2031)" fill="#25262B"/>
<rect opacity="0.16" x="143.395" y="64.2031" width="15.2974" height="15.2974" rx="2" transform="rotate(45 143.395 64.2031)" fill="#25262B"/>
<rect opacity="0.1" x="128.098" y="42.5312" width="15.2974" height="15.2974" rx="2" transform="rotate(45 128.098 42.5312)" fill="#25262B"/>
<rect opacity="0.1" x="99.4336" y="42.5312" width="15.2974" height="15.2974" rx="2" transform="rotate(45 99.4336 42.5312)" fill="#25262B"/>
<rect opacity="0.16" x="157.418" y="42.5312" width="15.2974" height="15.2974" rx="2" transform="rotate(45 157.418 42.5312)" fill="#25262B"/>
<rect opacity="0.12" x="188.668" y="42.5312" width="15.2974" height="15.2974" rx="2" transform="rotate(45 188.668 42.5312)" fill="#25262B"/>
<rect opacity="0.12" x="188" y="0.460938" width="15.2974" height="15.2974" rx="2" transform="rotate(45 188 0.460938)" fill="#25262B"/>
<rect opacity="0.16" x="173.952" y="20.8594" width="15.2974" height="15.2974" rx="2" transform="rotate(45 173.952 20.8594)" fill="#25262B"/>
<rect opacity="0.16" x="142.817" y="22" width="15.2974" height="15.2974" rx="2" transform="rotate(45 142.817 22)" fill="#25262B"/>
<rect opacity="0.16" x="172.059" y="64.2031" width="15.2974" height="15.2974" rx="2" transform="rotate(45 172.059 64.2031)" fill="#25262B"/>
</g>
</svg>
