<svg width="211" height="164" viewBox="0 0 211 164" fill="none" xmlns="http://www.w3.org/2000/svg">
<g style="mix-blend-mode:multiply">
<path d="M183.194 35.6461C183.194 28.4193 177.335 22.5608 170.109 22.5608H107.953C104.34 22.5608 101.411 19.6316 101.411 16.0182V13.0853C101.411 5.85848 95.5524 0 88.3256 0H32.7132C25.4864 0 19.6279 5.85848 19.6279 13.0853V150.481C19.6279 157.707 25.4864 163.566 32.7132 163.566H170.109C177.335 163.566 183.194 157.707 183.194 150.481V35.6461Z" fill="#666666"/>
<path opacity="0.4" d="M19.6279 60.5193H85.0543C88.6677 60.5193 91.5969 57.5901 91.5969 53.9767V50.7054C91.5969 43.4786 97.4554 37.6201 104.682 37.6201H183.194V150.481C183.194 157.707 177.335 163.566 170.109 163.566H32.7132C25.4864 163.566 19.6279 157.707 19.6279 150.481V60.5193Z" fill="#25262B"/>
<path d="M3.32231 86.1143C1.61007 77.9811 7.81549 70.3333 16.1269 70.3333H94.8682C98.4816 70.3333 101.411 67.4041 101.411 63.7907V60.5193C101.411 53.2926 107.269 47.4341 114.496 47.4341H194.412C202.871 47.4341 209.107 55.3397 207.137 63.5663L185.597 153.528C184.188 159.414 178.925 163.566 172.872 163.566H30.2452C24.0574 163.566 18.7154 159.231 17.4406 153.176L3.32231 86.1143Z" fill="#BDBDBD"/>
</g>
</svg>
