<svg width="120" height="120" viewBox="0 0 120 120" fill="none" xmlns="http://www.w3.org/2000/svg">
<mask id="mask0_13264_146422" style="mask-type:alpha" maskUnits="userSpaceOnUse" x="0" y="0" width="120" height="120">
<circle cx="60" cy="60" r="60" fill="#00A2B9"/>
</mask>
<g mask="url(#mask0_13264_146422)">
<path opacity="0.1" d="M-134.158 79.0387L-137.648 67.7073V137.647H176.47V-15.8823L172.979 -8.85355C169.489 -1.82477 162.509 12.2328 155.529 14.1793C148.548 16.1258 141.568 5.96121 134.587 15.3127C127.607 24.6642 120.627 53.5318 113.646 62.5378C106.666 71.5439 99.6854 60.6883 92.705 60.7994C85.7246 60.9105 78.7442 71.9883 71.7638 72.8956C64.7834 73.803 57.803 64.54 50.8226 66.6732C43.8422 68.8063 36.8618 82.3357 29.8815 82.6424C22.9011 82.9491 15.9207 70.0332 8.94028 65.9694C1.95988 61.9056 -5.02051 66.6939 -12.0009 77.6776C-18.9813 88.6613 -25.9617 105.84 -32.9421 109.09C-39.9225 112.339 -46.9029 101.659 -53.8832 92.0708C-60.8636 82.4831 -67.844 73.9882 -74.8244 71.9378C-81.8048 69.8875 -88.7852 74.2818 -95.7656 85.9822C-102.746 97.6826 -109.726 116.689 -116.707 114.861C-123.687 113.033 -130.668 90.3701 -134.158 79.0387Z" fill="#229BD8"/>
<g clip-path="url(#clip0_13264_146422)">
<path fill-rule="evenodd" clip-rule="evenodd" d="M70.6665 30.3333C72.3234 30.3333 73.6665 31.6765 73.6665 33.3333V35.6667H78.6667C83.269 35.6667 87 39.3976 87 44V81.3333C87 85.9357 83.269 89.6667 78.6667 89.6667H41.3333C36.731 89.6667 33 85.9357 33 81.3333V44C33 39.3976 36.731 35.6667 41.3333 35.6667H46.3335V33.3333C46.3335 31.6765 47.6766 30.3333 49.3335 30.3333C50.9904 30.3333 52.3335 31.6765 52.3335 33.3333V35.6667H67.6665V33.3333C67.6665 31.6765 69.0097 30.3333 70.6665 30.3333ZM39 81.3333V56.6667H81V81.3333C81 82.622 79.9553 83.6667 78.6667 83.6667H41.3333C40.0447 83.6667 39 82.622 39 81.3333Z" fill="url(#paint0_linear_13264_146422)"/>
</g>
<circle opacity="0.1" cx="60" cy="60" r="60" fill="#00A2B9"/>
</g>
<path d="M115.314 27.3137C118.314 24.3131 120 20.2435 120 16C120 11.7565 118.314 7.68687 115.314 4.68629C112.313 1.68571 108.243 0 104 0C99.7565 0 95.6869 1.68571 92.6863 4.68629C89.6857 7.68687 88 11.7565 88 16C88 20.2435 89.6857 24.3131 92.6863 27.3137C95.6869 30.3143 99.7565 32 104 32C108.243 32 112.313 30.3143 115.314 27.3137Z" fill="#5AA200"/>
<path d="M111.792 9.02128C112.008 9.1109 112.205 9.24226 112.37 9.40781C112.535 9.57295 112.667 9.76913 112.756 9.98512C112.846 10.2011 112.892 10.4326 112.892 10.6665C112.892 10.9003 112.846 11.1319 112.756 11.3478C112.667 11.5638 112.535 11.76 112.37 11.9251L101.703 22.5918C101.538 22.7574 101.342 22.8887 101.126 22.9783C100.91 23.068 100.678 23.1141 100.444 23.1141C100.211 23.1141 99.9791 23.068 99.7631 22.9783C99.5471 22.8887 99.3509 22.7574 99.1858 22.5918L95.6302 19.0363C95.2964 18.7024 95.1089 18.2497 95.1089 17.7776C95.1089 17.3055 95.2964 16.8527 95.6302 16.5189C95.9641 16.1851 96.4168 15.9976 96.8889 15.9976C97.361 15.9976 97.8138 16.1851 98.1476 16.5189L100.444 18.8194L109.852 9.40781C110.018 9.24226 110.214 9.1109 110.43 9.02128C110.646 8.93166 110.877 8.88552 111.111 8.88552C111.345 8.88552 111.577 8.93166 111.792 9.02128Z" fill="#F1F1F1"/>
<defs>
<linearGradient id="paint0_linear_13264_146422" x1="60" y1="30.3333" x2="60" y2="89.6667" gradientUnits="userSpaceOnUse">
<stop stop-color="#01C6E2"/>
<stop offset="1" stop-color="#007CA4"/>
</linearGradient>
<clipPath id="clip0_13264_146422">
<rect width="64" height="64" fill="white" transform="translate(28 28.0004)"/>
</clipPath>
</defs>
</svg>
