<svg width="428" height="328" viewBox="0 0 428 328" fill="none" xmlns="http://www.w3.org/2000/svg">
<g clip-path="url(#clip0_325_144)">
<rect width="428" height="328" fill="#EFEFEF"/>
<path opacity="0.05" d="M487 449C487 416.301 479.939 383.922 466.219 353.712C452.5 323.502 432.391 296.052 407.04 272.93C381.69 249.809 351.594 231.467 318.473 218.954C285.351 206.441 249.851 200 214 200C178.149 200 142.649 206.441 109.527 218.954C76.4055 231.467 46.3102 249.809 20.9598 272.93C-4.39056 296.052 -24.4996 323.502 -38.2191 353.712C-51.9387 383.922 -59 416.301 -59 449L214 449H487Z" fill="#25262B"/>
<path d="M127 115.6H308.4C310.609 115.6 312.4 117.391 312.4 119.6V210C312.4 212.209 310.609 214 308.4 214H127C124.791 214 123 212.209 123 210V164.8V119.6C123 117.391 124.791 115.6 127 115.6Z" fill="#EFEFEF" stroke="#BDBDBD" stroke-width="8"/>
<path d="M127 116H183C185.209 116 187 117.791 187 120V210C187 212.209 185.209 214 183 214H127C124.791 214 123 212.209 123 210V165V120C123 117.791 124.791 116 127 116Z" fill="#EFEFEF" stroke="#BDBDBD" stroke-width="8"/>
<path d="M125.993 114.367L169 103.174V224.877L126.03 214.134C124.249 213.689 123 212.089 123 210.254V165.255V118.238C123 116.417 124.23 114.825 125.993 114.367Z" fill="#BDBDBD" stroke="#BDBDBD" stroke-width="8"/>
<path d="M247 143.413C247 141.915 246.706 140.431 246.135 139.046C245.564 137.661 244.727 136.403 243.672 135.344C242.616 134.284 241.364 133.443 239.985 132.87C238.606 132.296 237.129 132.001 235.636 132.001H224.51C223.005 131.982 221.512 132.262 220.116 132.827C218.721 133.392 217.451 134.229 216.38 135.291C215.309 136.352 214.459 137.617 213.879 139.011C213.299 140.405 213 141.901 213 143.413C213 144.924 213.299 146.42 213.879 147.814C214.459 149.208 215.309 150.473 216.38 151.534C217.451 152.596 218.721 153.433 220.116 153.998C221.512 154.563 223.005 154.844 224.51 154.824H226.688V160.334C226.688 160.334 247 157.58 247 143.413ZM236.656 173.556C236.656 177.73 233.289 181.111 229.133 181.111C224.976 181.111 221.61 177.73 221.61 173.556C221.61 169.382 224.976 166 229.133 166C233.289 166 236.656 169.382 236.656 173.556ZM229.133 184.889C223.797 184.889 213.146 187.59 213.146 192.949V200H245.119V192.949C245.119 187.588 234.468 184.889 229.133 184.889ZM264.867 181.111C269.024 181.111 272.39 177.73 272.39 173.556C272.39 169.382 269.024 166 264.867 166C260.711 166 257.344 169.382 257.344 173.556C257.344 177.73 260.711 181.111 264.867 181.111ZM264.867 184.889C259.532 184.889 248.881 187.59 248.881 192.949V200H280.854V192.949C280.854 187.588 270.203 184.889 264.867 184.889ZM262.125 133.89C259.111 133.89 256.221 135.092 254.09 137.232C251.959 139.373 250.762 142.276 250.762 145.302C250.762 159.469 268.817 162.223 268.817 162.223V156.713H269.49C270.995 156.732 272.488 156.452 273.884 155.887C275.279 155.322 276.549 154.485 277.62 153.423C278.691 152.361 279.541 151.097 280.121 149.703C280.701 148.308 281 146.812 281 145.301C281 143.79 280.701 142.294 280.121 140.9C279.541 139.506 278.691 138.241 277.62 137.18C276.549 136.118 275.279 135.281 273.884 134.716C272.488 134.151 270.995 133.87 269.49 133.89H262.125Z" fill="#BDBDBD"/>
<rect x="111" y="210" width="32" height="8" rx="4" fill="#BDBDBD"/>
<circle cx="160" cy="162" r="5" fill="white"/>
</g>
<defs>
<clipPath id="clip0_325_144">
<rect width="428" height="328" fill="white"/>
</clipPath>
</defs>
</svg>
