<svg width="388" height="160" viewBox="0 0 388 160" fill="none" xmlns="http://www.w3.org/2000/svg">
<defs>
<linearGradient id="paint0_linear_36950_210984" x1="219.702" y1="62.7956" x2="185.856" y2="113.633" gradientUnits="userSpaceOnUse">
<stop stop-color="white" stop-opacity="0.63"/>
<stop offset="1" stop-color="white" stop-opacity="0"/>
</linearGradient>
<linearGradient id="paint1_linear_36950_210984" x1="210.702" y1="56.7956" x2="176.856" y2="107.633" gradientUnits="userSpaceOnUse">
<stop offset="0.197917" stop-color="white" stop-opacity="0.63"/>
<stop offset="1" stop-color="white" stop-opacity="0"/>
</linearGradient>
<clipPath id="clip0_36950_210984">
<rect width="388" height="160" rx="16" fill="white"/>
</clipPath>
</defs>
<g clip-path="url(#clip0_36950_210984)">
<rect width="388" height="160" rx="16" fill="#E5F7FF"/>
<g opacity="0.5">
<rect opacity="0.4" width="24" height="6" rx="1.5" transform="matrix(-1 0 0 1 294 5)" fill="#00A2B9"/>
<rect opacity="0.2" width="24" height="6" rx="1.5" transform="matrix(-1 0 0 1 285 -1)" fill="#00A2B9"/>
<rect opacity="0.2" width="16.5" height="6" rx="1.5" transform="matrix(-1 0 0 1 282 11)" fill="#00A2B9"/>
</g>
<circle cx="21.6932" cy="21.6932" r="21.6932" transform="matrix(-1 0 0 1 272.845 113.621)" fill="#B7E6F1"/>
<circle cx="19.4097" cy="19.4097" r="19.4097" transform="matrix(-1 0 0 1 289.971 130.748)" fill="#B7E6F1"/>
<circle cx="14.2718" cy="14.2718" r="14.2718" transform="matrix(-1 0 0 1 305.955 147.873)" fill="#B7E6F1"/>
<path d="M267.136 134.172H232.884V166.141H267.136V134.172Z" fill="#B7E6F1"/>
<mask id="path-9-outside-1_36950_210984" maskUnits="userSpaceOnUse" x="126" y="19.5645" width="127" height="147" fill="black">
<rect fill="white" x="126" y="19.5645" width="127" height="147"/>
<path d="M131 38.2654C131 30.6986 137.134 24.5645 144.701 24.5645H233.757C241.324 24.5645 247.458 30.6986 247.458 38.2654V166.141H131V38.2654Z"/>
</mask>
<path d="M131 38.2654C131 30.6986 137.134 24.5645 144.701 24.5645H233.757C241.324 24.5645 247.458 30.6986 247.458 38.2654V166.141H131V38.2654Z" fill="white"/>
<path d="M126.433 38.2654C126.433 28.1763 134.612 19.9975 144.701 19.9975H233.757C243.846 19.9975 252.025 28.1763 252.025 38.2654H242.891C242.891 33.2209 238.802 29.1314 233.757 29.1314H144.701C139.656 29.1314 135.567 33.2209 135.567 38.2654H126.433ZM247.458 166.141H131H247.458ZM126.433 166.141V38.2654C126.433 28.1763 134.612 19.9975 144.701 19.9975V29.1314C139.656 29.1314 135.567 33.2209 135.567 38.2654V166.141H126.433ZM233.757 19.9975C243.846 19.9975 252.025 28.1763 252.025 38.2654V166.141H242.891V38.2654C242.891 33.2209 238.802 29.1314 233.757 29.1314L233.757 19.9975Z" fill="#00A2B9" fill-opacity="0.2" mask="url(#path-9-outside-1_36950_210984)"/>
<path d="M194.52 136.573L191.44 137.774C190.33 138.19 189.106 138.19 187.995 137.774L184.916 136.573C177.116 133.515 170.416 128.182 165.688 121.265C160.959 114.349 158.42 106.171 158.401 97.7929V83.2829C164.312 84.1253 170.341 83.3579 175.852 81.0615C181.364 78.7651 186.154 75.0247 189.718 70.2344C196.242 79.7337 207.046 84.2224 221.034 83.2829V97.7929C221.015 106.171 218.477 114.349 213.748 121.265C209.019 128.182 202.32 133.515 194.52 136.573Z" fill="#00A2B9" stroke="#00A2B9" stroke-opacity="0.2" stroke-width="9.13398" stroke-linecap="round" stroke-linejoin="round"/>
<path opacity="0.2" d="M204.854 79H212.458L165.061 153H157.458L204.854 79Z" fill="url(#paint0_linear_36950_210984)"/>
<path opacity="0.2" d="M195.854 73H203.458L156.061 147H148.458L195.854 73Z" fill="url(#paint1_linear_36950_210984)"/>
<path opacity="0.1" fill-rule="evenodd" clip-rule="evenodd" d="M189.495 138.082C204.525 128.264 214.457 111.293 214.457 92.001C214.457 89.0276 214.221 86.1092 213.767 83.2637C216.081 83.4461 218.506 83.4537 221.034 83.2838V97.7938C221.015 106.172 218.476 114.35 213.748 121.266C209.019 128.182 202.319 133.516 194.519 136.574L191.44 137.775C190.814 138.009 190.152 138.112 189.495 138.082Z" fill="#25262B"/>
<path d="M198.362 104.488C198.362 103.228 197.338 102.204 196.079 102.204H194.937V98.779C194.937 95.6313 192.376 93.0703 189.228 93.0703C186.08 93.0703 183.519 95.6313 183.519 98.779V102.204H182.378C181.118 102.204 180.094 103.228 180.094 104.488V113.622C180.094 114.881 181.118 115.905 182.378 115.905H196.079C197.338 115.905 198.362 114.881 198.362 113.622V104.488ZM185.803 98.779C185.803 96.8906 187.34 95.3538 189.228 95.3538C191.117 95.3538 192.653 96.8906 192.653 98.779V102.204H185.803V98.779Z" fill="white"/>
<path d="M169.819 24.5645H208.639L207.107 27.6281C205.946 29.9489 203.574 31.4149 200.98 31.4149H177.478C174.884 31.4149 172.511 29.9489 171.351 27.6281L169.819 24.5645Z" fill="#B7E6F1"/>
<g opacity="0.5">
<rect opacity="0.4" x="358" y="139" width="24" height="6" rx="1.5" fill="#00A2B9"/>
<rect opacity="0.32" x="379" y="127" width="12" height="6" rx="1.5" fill="#00A2B9"/>
<rect opacity="0.2" x="367" y="133" width="24" height="6" rx="1.5" fill="#00A2B9"/>
<rect opacity="0.2" x="370" y="145" width="16.5" height="6" rx="1.5" fill="#00A2B9"/>
</g>
<path d="M63.6576 122.522C75.2281 118.828 84.2946 116.004 84.2946 116.004L100.891 120.286C127.597 127.177 143.556 154.525 136.418 181.166L132.863 194.431L48.1665 171.737L24.0033 161.629C24.0033 161.629 38.1322 130.669 63.6576 122.522Z" fill="#1A4E66"/>
<path d="M64.198 154.57C65.8275 149.682 69.0607 143.232 73.4733 139.871" stroke="#133B4E" stroke-width="2.48063" stroke-linecap="round"/>
<path d="M122.352 166.174C122.352 161.829 122.352 159.656 118.55 155.854" stroke="#133B4E" stroke-width="2.48063" stroke-linecap="round"/>
<path fill-rule="evenodd" clip-rule="evenodd" d="M103.689 72.4884C106.554 61.7948 117.546 55.4488 128.239 58.3141C139.156 61.2392 145.498 72.606 142.253 83.432L136.171 103.723C133.479 112.702 124.872 118.574 115.53 117.803L115.356 117.789L114.457 124.866C113.528 132.172 106.469 137.059 99.3035 135.356C89.4504 133.014 82.9479 123.62 84.225 113.574L84.5306 111.169L87.1707 90.4002C85.7115 89.2149 84.5992 87.575 84.0755 85.6204C82.7536 80.6871 85.6812 75.6163 90.6145 74.2944C95.2637 73.0486 100.035 75.5771 101.676 80.0015L103.689 72.4884Z" fill="#FF9BA5"/>
<path d="M89.5636 78.2673C91.6491 76.9828 95.7251 76.1625 97.7721 81.8238" stroke="#D4737C" stroke-width="1.86047" stroke-linecap="round"/>
<path d="M134.887 87.8006C134.512 89.9743 133.181 90.6314 131.764 90.3872C130.346 90.1431 129.378 89.0901 129.753 86.9164C130.127 84.7426 131.58 83.1784 132.998 83.4226C134.415 83.6667 135.261 85.6268 134.887 87.8006Z" fill="white"/>
<path d="M118.714 85.9373C118.34 88.111 116.873 88.6267 115.455 88.3826C114.038 88.1384 113.206 87.2268 113.58 85.0531C113.955 82.8793 115.407 81.3151 116.825 81.5593C118.243 81.8035 119.088 83.7636 118.714 85.9373Z" fill="white"/>
<path d="M133.749 88.1007C133.486 89.5167 132.254 90.1333 131.485 89.9143C130.246 89.7366 129.475 89.1333 129.73 87.0607C130.083 84.194 132.008 84.8241 132.53 84.9073C134.159 85.45 134.013 86.6847 133.749 88.1007Z" fill="#25262B"/>
<path d="M117.784 85.4221C117.373 87.6355 116.434 87.9039 115.222 87.7104C114.009 87.5168 113.116 86.5943 113.529 84.9806C114.143 82.5832 114.962 82.389 116.175 82.5826C117.387 82.7761 118.047 84.0061 117.784 85.4221Z" fill="#25262B"/>
<path d="M122.812 91.4395C126.501 92.3116 132.18 94.7348 125.38 97.4501" stroke="#D4737C" stroke-width="1.86047" stroke-linecap="round"/>
<path d="M86.4335 96.543L87.1893 90.3876C89.0082 91.2294 91.0365 91.5107 93.0158 91.1957L93.3446 91.1434L86.4335 96.543Z" fill="#D5737C"/>
<path fill-rule="evenodd" clip-rule="evenodd" d="M114.271 125.946C113.988 127.251 113.506 128.467 112.861 129.566L98.5657 112.629L105.249 115.769C107.559 116.855 110.057 117.484 112.606 117.623L115.36 117.774L115.358 117.789L115.356 117.788L115.306 118.184L114.271 125.946Z" fill="#D5737C"/>
<path d="M95.2077 53.9154C97.2457 45.9648 105.383 41.2077 113.311 43.332L135.32 49.2293C144.205 51.6102 150.067 60.0665 149.178 69.2225C148.995 71.1102 148.457 72.9462 147.592 74.6339L144.383 80.8942C143.547 82.5249 141.643 83.2975 139.908 82.7103C138.825 82.3439 137.972 81.4972 137.598 80.4168L135.766 75.121C134.578 71.6886 132.427 68.6708 129.57 66.4282L126.672 64.1534C125.508 70.5517 120.937 75.8004 114.759 77.8329L108.434 79.914C106.99 80.3892 105.754 81.3495 104.937 82.6321L103.757 84.486C103.261 85.265 102.057 84.9459 102.012 84.0235L101.952 82.7897C101.519 73.9477 89.9802 70.8895 85.2254 78.3569L82.7513 68.7675C80.7098 60.8547 87.0603 53.2828 95.2077 53.9154Z" fill="#25262B"/>
<path d="M139.615 82.1992C135.702 78.7217 132.241 78.1348 131 78.2761" stroke="#25262B" stroke-width="3.72094" stroke-linecap="round"/>
<path d="M112.252 75.7422C117.308 74.3873 120.665 75.4139 121.711 76.0966" stroke="#25262B" stroke-width="3.72094" stroke-linecap="round"/>
<path d="M109.688 99.121C109.32 98.1969 110.277 97.452 111.159 97.9125C113.47 99.1191 117.151 100.923 120.041 101.792C121.886 102.346 124.333 102.797 126.259 103.102C127.33 103.272 127.594 104.587 126.605 105.03C124.353 106.04 121.033 107.095 117.804 106.523C113.069 105.684 110.736 101.745 109.688 99.121Z" fill="#D4737C"/>
<path opacity="0.5" fill-rule="evenodd" clip-rule="evenodd" d="M122.034 106.471C120.673 106.709 119.23 106.773 117.804 106.521C113.331 105.728 111.002 102.17 109.875 99.5664C110.763 99.7568 111.682 99.9991 112.615 100.294C117.568 101.86 121.345 104.41 122.034 106.471Z" fill="#884047"/>
<path fill-rule="evenodd" clip-rule="evenodd" d="M126.889 103.401C124.892 104.117 120.784 103.986 116.337 102.711C114.097 102.07 112.031 101.332 110.349 100.573C110.087 100.066 109.869 99.5755 109.689 99.124C109.32 98.2 110.277 97.455 111.159 97.9155C113.47 99.1221 117.151 100.926 120.041 101.795C121.886 102.349 124.333 102.8 126.259 103.105C126.519 103.146 126.731 103.255 126.889 103.401Z" fill="white"/>
<rect x="227" y="38" width="49" height="25" rx="12.5" fill="#DE350B"/>
<rect x="227" y="38" width="49" height="25" rx="12.5" stroke="#E5F7FF" stroke-width="4"/>
<path d="M241.492 51.1445H239.318L239.307 50.0723H241.205C241.525 50.0723 241.797 50.0254 242.02 49.9316C242.246 49.834 242.418 49.6953 242.535 49.5156C242.652 49.332 242.711 49.1113 242.711 48.8535C242.711 48.5684 242.656 48.3359 242.547 48.1562C242.438 47.9766 242.27 47.8457 242.043 47.7637C241.82 47.6816 241.535 47.6406 241.188 47.6406H239.764V55H238.293V46.4688H241.188C241.656 46.4688 242.074 46.5137 242.441 46.6035C242.812 46.6934 243.127 46.834 243.385 47.0254C243.646 47.2129 243.844 47.4512 243.977 47.7402C244.113 48.0293 244.182 48.373 244.182 48.7715C244.182 49.123 244.098 49.4453 243.93 49.7383C243.762 50.0273 243.514 50.2637 243.186 50.4473C242.857 50.6309 242.449 50.7402 241.961 50.7754L241.492 51.1445ZM241.428 55H238.855L239.518 53.834H241.428C241.76 53.834 242.037 53.7793 242.26 53.6699C242.482 53.5566 242.648 53.4023 242.758 53.207C242.871 53.0078 242.928 52.7754 242.928 52.5098C242.928 52.2324 242.879 51.9922 242.781 51.7891C242.684 51.582 242.529 51.4238 242.318 51.3145C242.107 51.2012 241.832 51.1445 241.492 51.1445H239.84L239.852 50.0723H242.002L242.336 50.4766C242.805 50.4922 243.189 50.5957 243.49 50.7871C243.795 50.9785 244.021 51.2266 244.17 51.5312C244.318 51.8359 244.393 52.1641 244.393 52.5156C244.393 53.0586 244.273 53.5137 244.035 53.8809C243.801 54.248 243.463 54.5273 243.021 54.7188C242.58 54.9062 242.049 55 241.428 55ZM249.309 53.7285V50.7051C249.309 50.4785 249.268 50.2832 249.186 50.1191C249.104 49.9551 248.979 49.8281 248.811 49.7383C248.646 49.6484 248.439 49.6035 248.189 49.6035C247.959 49.6035 247.76 49.6426 247.592 49.7207C247.424 49.7988 247.293 49.9043 247.199 50.0371C247.105 50.1699 247.059 50.3203 247.059 50.4883H245.652C245.652 50.2383 245.713 49.9961 245.834 49.7617C245.955 49.5273 246.131 49.3184 246.361 49.1348C246.592 48.9512 246.867 48.8066 247.188 48.7012C247.508 48.5957 247.867 48.543 248.266 48.543C248.742 48.543 249.164 48.623 249.531 48.7832C249.902 48.9434 250.193 49.1855 250.404 49.5098C250.619 49.8301 250.727 50.2324 250.727 50.7168V53.5352C250.727 53.8242 250.746 54.084 250.785 54.3145C250.828 54.541 250.889 54.7383 250.967 54.9062V55H249.52C249.453 54.8477 249.4 54.6543 249.361 54.4199C249.326 54.1816 249.309 53.9512 249.309 53.7285ZM249.514 51.1445L249.525 52.0176H248.512C248.25 52.0176 248.02 52.043 247.82 52.0938C247.621 52.1406 247.455 52.2109 247.322 52.3047C247.189 52.3984 247.09 52.5117 247.023 52.6445C246.957 52.7773 246.924 52.9277 246.924 53.0957C246.924 53.2637 246.963 53.418 247.041 53.5586C247.119 53.6953 247.232 53.8027 247.381 53.8809C247.533 53.959 247.717 53.998 247.932 53.998C248.221 53.998 248.473 53.9395 248.688 53.8223C248.906 53.7012 249.078 53.5547 249.203 53.3828C249.328 53.207 249.395 53.041 249.402 52.8848L249.859 53.5117C249.812 53.6719 249.732 53.8438 249.619 54.0273C249.506 54.2109 249.357 54.3867 249.174 54.5547C248.994 54.7188 248.777 54.8535 248.523 54.959C248.273 55.0645 247.984 55.1172 247.656 55.1172C247.242 55.1172 246.873 55.0352 246.549 54.8711C246.225 54.7031 245.971 54.4785 245.787 54.1973C245.604 53.9121 245.512 53.5898 245.512 53.2305C245.512 52.8945 245.574 52.5977 245.699 52.3398C245.828 52.0781 246.016 51.8594 246.262 51.6836C246.512 51.5078 246.816 51.375 247.176 51.2852C247.535 51.1914 247.945 51.1445 248.406 51.1445H249.514ZM253.621 49.8672V55H252.209V48.6602H253.557L253.621 49.8672ZM255.561 48.6191L255.549 49.9316C255.463 49.916 255.369 49.9043 255.268 49.8965C255.17 49.8887 255.072 49.8848 254.975 49.8848C254.732 49.8848 254.52 49.9199 254.336 49.9902C254.152 50.0566 253.998 50.1543 253.873 50.2832C253.752 50.4082 253.658 50.5605 253.592 50.7402C253.525 50.9199 253.486 51.1211 253.475 51.3438L253.152 51.3672C253.152 50.9688 253.191 50.5996 253.27 50.2598C253.348 49.9199 253.465 49.6211 253.621 49.3633C253.781 49.1055 253.98 48.9043 254.219 48.7598C254.461 48.6152 254.74 48.543 255.057 48.543C255.143 48.543 255.234 48.5508 255.332 48.5664C255.434 48.582 255.51 48.5996 255.561 48.6191ZM260.26 53.5059V48.6602H261.678V55H260.342L260.26 53.5059ZM260.459 52.1875L260.934 52.1758C260.934 52.6016 260.887 52.9941 260.793 53.3535C260.699 53.709 260.555 54.0195 260.359 54.2852C260.164 54.5469 259.914 54.752 259.609 54.9004C259.305 55.0449 258.939 55.1172 258.514 55.1172C258.205 55.1172 257.922 55.0723 257.664 54.9824C257.406 54.8926 257.184 54.7539 256.996 54.5664C256.812 54.3789 256.67 54.1348 256.568 53.834C256.467 53.5332 256.416 53.1738 256.416 52.7559V48.6602H257.828V52.7676C257.828 52.998 257.855 53.1914 257.91 53.3477C257.965 53.5 258.039 53.623 258.133 53.7168C258.227 53.8105 258.336 53.877 258.461 53.916C258.586 53.9551 258.719 53.9746 258.859 53.9746C259.262 53.9746 259.578 53.8965 259.809 53.7402C260.043 53.5801 260.209 53.3652 260.307 53.0957C260.408 52.8262 260.459 52.5234 260.459 52.1875ZM264.754 46.4688L264.613 52.4863H263.406L263.26 46.4688H264.754ZM263.219 54.332C263.219 54.1172 263.289 53.9375 263.43 53.793C263.574 53.6445 263.773 53.5703 264.027 53.5703C264.277 53.5703 264.475 53.6445 264.619 53.793C264.764 53.9375 264.836 54.1172 264.836 54.332C264.836 54.5391 264.764 54.7168 264.619 54.8652C264.475 55.0098 264.277 55.082 264.027 55.082C263.773 55.082 263.574 55.0098 263.43 54.8652C263.289 54.7168 263.219 54.5391 263.219 54.332Z" fill="white"/>
</g>
</svg>
