<svg width="124" height="124" viewBox="0 0 124 124" fill="none" xmlns="http://www.w3.org/2000/svg">
<defs>
<linearGradient id="paint0_linear_12636_132750" x1="64" y1="36" x2="64" y2="90" gradientUnits="userSpaceOnUse">
<stop stop-color="#FF991F"/>
<stop offset="1" stop-color="#B37D3E"/>
</linearGradient>
<linearGradient id="paint1_linear_12636_132750" x1="47.5" y1="63" x2="47.5" y2="72" gradientUnits="userSpaceOnUse">
<stop stop-color="#FF991F"/>
<stop offset="1" stop-color="#B37D3E"/>
</linearGradient>
<linearGradient id="paint2_linear_12636_132750" x1="80.5" y1="63" x2="80.5" y2="72" gradientUnits="userSpaceOnUse">
<stop stop-color="#FF991F"/>
<stop offset="1" stop-color="#B37D3E"/>
</linearGradient>
</defs>
<mask id="mask0_12636_132750" style="mask-type:alpha" maskUnits="userSpaceOnUse" x="4" y="0" width="120" height="120">
<circle cx="64" cy="60" r="60" fill="#00A2B9"/>
</mask>
<g mask="url(#mask0_12636_132750)">
<path opacity="0.1" d="M-130.158 79.0382L-133.648 67.7068V137.647H180.469V-15.8828L176.979 -8.85403C173.489 -1.82525 166.508 12.2323 159.528 14.1788C152.548 16.1253 145.567 5.96074 138.587 15.3122C131.606 24.6638 124.626 53.5313 117.646 62.5374C110.665 71.5434 103.685 60.6879 96.7045 60.799C89.7241 60.91 82.7437 71.9878 75.7633 72.8951C68.7829 73.8025 61.8025 64.5395 54.8221 66.6727C47.8418 68.8059 40.8614 82.3352 33.881 82.6419C26.9006 82.9486 19.9202 70.0327 12.9398 65.9689C5.9594 61.9051 -1.021 66.6934 -8.00138 77.6771C-14.9818 88.6608 -21.9622 105.84 -28.9426 109.089C-35.923 112.338 -42.9033 101.658 -49.8837 92.0704C-56.8641 82.4827 -63.8445 73.9877 -70.8249 71.9373C-77.8053 69.887 -84.7857 74.2813 -91.7661 85.9817C-98.7465 97.6822 -105.727 116.689 -112.707 114.861C-119.688 113.033 -126.668 90.3697 -130.158 79.0382Z" fill="#FF991F"/>
<path d="M90.316 54.468L86.212 42.153C85.6167 40.3604 84.4715 38.8011 82.9393 37.6965C81.4072 36.5919 79.5658 35.9983 77.677 36H50.323C48.4342 35.9983 46.5928 36.5919 45.0607 37.6965C43.5285 38.8011 42.3833 40.3604 41.788 42.153L37.684 54.468C36.5938 54.9254 35.6628 55.6943 35.0075 56.6783C34.3522 57.6623 34.0018 58.8178 34 60V75C34 77.259 35.269 79.206 37.117 80.229C37.078 80.427 37 80.607 37 80.814V87C37 87.7957 37.3161 88.5587 37.8787 89.1213C38.4413 89.6839 39.2044 90 40 90H43C43.7956 90 44.5587 89.6839 45.1213 89.1213C45.6839 88.5587 46 87.7957 46 87V81H82V87C82 87.7957 82.3161 88.5587 82.8787 89.1213C83.4413 89.6839 84.2043 90 85 90H88C88.7957 90 89.5587 89.6839 90.1213 89.1213C90.6839 88.5587 91 87.7957 91 87V80.814C91 80.607 90.922 80.424 90.883 80.229C91.8232 79.7164 92.6085 78.9607 93.1568 78.0409C93.7051 77.1211 93.9963 76.0709 94 75V60C94 57.513 92.476 55.377 90.316 54.468ZM40 75V60H88L88.006 75H40ZM50.323 42H77.674C78.967 42 80.113 42.822 80.521 44.052L83.839 54H44.161L47.476 44.052C47.675 43.4544 48.0572 42.9346 48.5681 42.5663C49.0791 42.198 49.6931 41.9999 50.323 42Z" fill="url(#paint0_linear_12636_132750)"/>
<path d="M47.5 72C49.9853 72 52 69.9853 52 67.5C52 65.0147 49.9853 63 47.5 63C45.0147 63 43 65.0147 43 67.5C43 69.9853 45.0147 72 47.5 72Z" fill="url(#paint1_linear_12636_132750)"/>
<path d="M80.5 72C82.9853 72 85 69.9853 85 67.5C85 65.0147 82.9853 63 80.5 63C78.0147 63 76 65.0147 76 67.5C76 69.9853 78.0147 72 80.5 72Z" fill="url(#paint2_linear_12636_132750)"/>
<circle opacity="0.1" cx="64" cy="60" r="60" fill="#FF991F"/>
</g>
<path d="M44.9706 112.971C49.4714 108.47 52 102.365 52 96C52 89.6348 49.4714 83.5303 44.9706 79.0294C40.4697 74.5286 34.3652 72 28 72C21.6348 72 15.5303 74.5286 11.0294 79.0294C6.52857 83.5303 4 89.6348 4 96C4 102.365 6.52857 108.47 11.0294 112.971C15.5303 117.471 21.6348 120 28 120C34.3652 120 40.4697 117.471 44.9706 112.971Z" fill="#FF991F" stroke="white" stroke-width="8"/>
<path d="M34.4826 105.259H35.4086V103.407H34.4826V102.481C34.4809 101.356 34.187 100.251 33.6298 99.2739C33.0726 98.2968 32.2711 97.4812 31.3039 96.9069C30.9752 96.7125 30.7789 96.4004 30.7789 96.0726V95.9263C30.7789 95.5986 30.9752 95.2865 31.303 95.093C32.2704 94.5186 33.072 93.7029 33.6294 92.7256C34.1867 91.7483 34.4808 90.6431 34.4826 89.518V88.5921H35.4086V86.7402H20.5938V88.5921H21.5197V89.518C21.5216 90.6431 21.8156 91.7483 22.3729 92.7256C22.9303 93.7029 23.7319 94.5186 24.6993 95.093C25.0271 95.2865 25.2234 95.5976 25.2234 95.9263V96.0726C25.2234 96.4004 25.0271 96.7125 24.6993 96.906C23.7319 97.4804 22.9303 98.2961 22.3729 99.2734C21.8156 100.251 21.5216 101.356 21.5197 102.481V103.407H20.5938V105.259H34.4826ZM32.6308 88.5921V89.518C32.6294 90.5201 32.3032 91.4947 31.7012 92.2958H24.3012C23.6991 91.4947 23.3729 90.5201 23.3715 89.518V88.5921H32.6308ZM25.64 98.5013C26.5391 97.9699 27.0752 97.0625 27.0752 96.0726V95.9995H28.9271V96.0726C28.9271 97.0615 29.4632 97.9699 30.3632 98.5013C31.1952 98.9965 31.8502 99.7409 32.2354 100.629H23.7669C24.1522 99.7407 24.8076 98.9962 25.64 98.5013Z" fill="white"/>
</svg>
