<svg width="300" height="160" viewBox="0 0 300 160" fill="none" xmlns="http://www.w3.org/2000/svg">
<g clip-path="url(#clip0_25526_163556)">
<rect width="300" height="160" rx="16" fill="#FEEDEC"/>
<g opacity="0.5">
<rect opacity="0.4" width="24" height="6" rx="1.5" transform="matrix(-1 0 0 1 260 5)" fill="#DE350B"/>
<rect opacity="0.2" width="24" height="6" rx="1.5" transform="matrix(-1 0 0 1 251 -1)" fill="#DE350B"/>
<rect opacity="0.2" width="16.5" height="6" rx="1.5" transform="matrix(-1 0 0 1 248 11)" fill="#DE350B"/>
</g>
<circle cx="112.691" cy="135.313" r="21.6932" fill="#EF937E"/>
<circle cx="93.2813" cy="150.156" r="19.4097" fill="#EF937E"/>
<circle cx="72.159" cy="162.144" r="14.2718" fill="#EF937E"/>
<path d="M96.7065 134.172H130.959V166.141H96.7065V134.172Z" fill="#EF937E"/>
<mask id="path-9-outside-1_25526_163556" maskUnits="userSpaceOnUse" x="114.542" y="19.5645" width="127" height="147" fill="black">
<rect fill="white" x="114.542" y="19.5645" width="127" height="147"/>
<path d="M119.542 38.2654C119.542 30.6986 125.676 24.5645 133.243 24.5645H222.299C229.866 24.5645 236 30.6986 236 38.2654V166.141H119.542V38.2654Z"/>
</mask>
<path d="M119.542 38.2654C119.542 30.6986 125.676 24.5645 133.243 24.5645H222.299C229.866 24.5645 236 30.6986 236 38.2654V166.141H119.542V38.2654Z" fill="white"/>
<path d="M114.975 38.2654C114.975 28.1763 123.154 19.9975 133.243 19.9975H222.299C232.388 19.9975 240.567 28.1763 240.567 38.2654H231.433C231.433 33.2209 227.344 29.1314 222.299 29.1314H133.243C128.198 29.1314 124.109 33.2209 124.109 38.2654H114.975ZM236 166.141H119.542H236ZM114.975 166.141V38.2654C114.975 28.1763 123.154 19.9975 133.243 19.9975V29.1314C128.198 29.1314 124.109 33.2209 124.109 38.2654V166.141H114.975ZM222.299 19.9975C232.388 19.9975 240.567 28.1763 240.567 38.2654V166.141H231.433V38.2654C231.433 33.2209 227.344 29.1314 222.299 29.1314L222.299 19.9975Z" fill="#DE350B" fill-opacity="0.2" mask="url(#path-9-outside-1_25526_163556)"/>
<path d="M183.062 136.573L179.982 137.774C178.872 138.19 177.648 138.19 176.537 137.774L173.458 136.573C165.658 133.515 158.958 128.182 154.23 121.265C149.501 114.349 146.962 106.171 146.943 97.7929V83.2829C152.854 84.1253 158.883 83.3579 164.394 81.0615C169.906 78.7651 174.696 75.0247 178.26 70.2344C184.784 79.7337 195.588 84.2224 209.576 83.2829V97.7929C209.557 106.171 207.019 114.349 202.29 121.265C197.561 128.182 190.862 133.515 183.062 136.573Z" fill="#00A2B9" stroke="#00A2B9" stroke-opacity="0.2" stroke-width="9.13398" stroke-linecap="round" stroke-linejoin="round"/>
<path opacity="0.2" d="M193.396 79H201L153.603 153H146L193.396 79Z" fill="url(#paint0_linear_25526_163556)"/>
<path opacity="0.2" d="M184.396 73H192L144.603 147H137L184.396 73Z" fill="url(#paint1_linear_25526_163556)"/>
<path opacity="0.1" fill-rule="evenodd" clip-rule="evenodd" d="M178.037 138.081C193.067 128.263 202.999 111.292 202.999 92.0001C202.999 89.0266 202.763 86.1082 202.309 83.2627C204.623 83.4451 207.047 83.4527 209.576 83.2829V97.7928C209.557 106.171 207.018 114.349 202.29 121.265C197.561 128.181 190.861 133.515 183.061 136.573L179.982 137.774C179.356 138.008 178.694 138.111 178.037 138.081Z" fill="#25262B"/>
<path d="M186.904 104.487C186.904 103.227 185.88 102.203 184.62 102.203H183.479V98.7781C183.479 95.6303 180.918 93.0693 177.77 93.0693C174.622 93.0693 172.061 95.6303 172.061 98.7781V102.203H170.919C169.66 102.203 168.636 103.227 168.636 104.487V113.621C168.636 114.88 169.66 115.904 170.919 115.904H184.62C185.88 115.904 186.904 114.88 186.904 113.621V104.487ZM174.345 98.7781C174.345 96.8896 175.882 95.3528 177.77 95.3528C179.658 95.3528 181.195 96.8896 181.195 98.7781V102.203H174.345V98.7781Z" fill="white"/>
<circle cx="212" cy="91" r="18" fill="#DE350B" stroke="white" stroke-width="4"/>
<path d="M212 79.333C205.583 79.333 200.333 84.583 200.333 90.9997C200.333 97.4163 205.583 102.666 212 102.666C218.417 102.666 223.667 97.4163 223.667 90.9997C223.667 84.583 218.417 79.333 212 79.333ZM202.667 90.9997C202.667 85.8663 206.867 81.6663 212 81.6663C214.1 81.6663 216.083 82.3663 217.717 83.6497L204.65 96.7163C203.367 95.083 202.667 93.0997 202.667 90.9997ZM212 100.333C209.9 100.333 207.917 99.633 206.283 98.3497L219.35 85.283C220.633 86.9163 221.333 88.8997 221.333 90.9997C221.333 96.133 217.133 100.333 212 100.333Z" fill="white"/>
<path d="M158.361 24.5645H197.18L195.649 27.6281C194.488 29.9489 192.116 31.4149 189.521 31.4149H166.02C163.425 31.4149 161.053 29.9489 159.893 27.6281L158.361 24.5645Z" fill="#F8C8BF"/>
<path d="M-1.47461 113.068L32.3777 122.139C56.741 128.667 71.1993 153.71 64.6711 178.073L61.2889 190.696L-16.6771 169.805L-1.47461 113.068Z" fill="#1A4E66"/>
<path fill-rule="evenodd" clip-rule="evenodd" d="M34.4333 78.4406C37.071 68.5968 47.1892 62.755 57.0329 65.3927C67.0821 68.0853 72.9197 78.5488 69.9326 88.5144L64.3339 107.193C61.8564 115.459 53.9334 120.864 45.3338 120.154L45.1738 120.141L44.3457 126.656C43.4908 133.381 36.9923 137.88 30.3967 136.312C21.3266 134.156 15.3408 125.509 16.5164 116.261L16.7978 114.048L19.228 94.9293C17.8848 93.8382 16.8609 92.3287 16.3788 90.5293C15.1619 85.9881 17.8569 81.3202 22.3982 80.1034C26.6778 78.9567 31.0699 81.2841 32.5801 85.3568L34.4333 78.4406Z" fill="#FF9BA5"/>
<path d="M21.4309 83.7601C23.3507 82.5776 27.1028 81.8225 28.9871 87.0339" stroke="#D4737C" stroke-width="1.71262" stroke-linecap="round"/>
<ellipse cx="60.7892" cy="92.1307" rx="2.39769" ry="3.67646" transform="rotate(9.7725 60.7892 92.1307)" fill="white"/>
<ellipse cx="45.902" cy="90.4158" rx="2.39769" ry="3.67646" transform="rotate(9.7725 45.902 90.4158)" fill="white"/>
<ellipse cx="2.04652" cy="2.40055" rx="2.04652" ry="2.40055" transform="matrix(0.987497 0.157637 -0.182706 0.983168 58.8318 90.0527)" fill="#25262B"/>
<ellipse cx="2.04652" cy="2.40055" rx="2.04652" ry="2.40055" transform="matrix(0.987497 0.157637 -0.182706 0.983168 43.9221 88.5029)" fill="#25262B"/>
<path d="M52.0371 95.8887C55.4333 96.6915 60.6606 98.9221 54.4006 101.422" stroke="#D4737C" stroke-width="1.71262" stroke-linecap="round"/>
<path d="M18.5496 100.586L19.2453 94.9198C20.9197 95.6946 22.7868 95.9536 24.6088 95.6636L24.9115 95.6155L18.5496 100.586Z" fill="#D5737C"/>
<path fill-rule="evenodd" clip-rule="evenodd" d="M44.1756 127.648C43.9152 128.851 43.4705 129.971 42.8769 130.984L29.7178 115.394L35.8697 118.284C37.9964 119.283 40.2959 119.863 42.6422 119.991L45.1778 120.13L45.1761 120.142L45.1737 120.141L45.1232 120.539L44.1756 127.648Z" fill="#D5737C"/>
<path d="M26.6266 61.3461C28.5026 54.0272 35.993 49.6482 43.291 51.6037L63.5509 57.0323C71.7303 59.224 77.1261 67.0084 76.3079 75.4367C76.1392 77.1744 75.6437 78.8645 74.8475 80.4181L71.894 86.1809C71.1247 87.682 69.372 88.3932 67.7742 87.8527C66.7773 87.5154 65.9925 86.736 65.6483 85.7414L63.9616 80.8665C62.8684 77.7069 60.8885 74.9289 58.2585 72.8645L55.5909 70.7705C54.5187 76.6603 50.3109 81.4919 44.6242 83.3629L38.8017 85.2786C37.4721 85.716 36.3349 86.6 35.5831 87.7806L34.4963 89.4872C34.0397 90.2043 32.9315 89.9106 32.89 89.0615L32.8345 87.9258C32.4365 79.7864 21.8144 76.9713 17.4375 83.8452L15.16 75.0179C13.2807 67.7339 19.1266 60.7637 26.6266 61.3461Z" fill="#25262B"/>
<path d="M39.3909 104.057C44.1864 105.058 47.0408 106.771 49.3243 111.338" stroke="#D4737C" stroke-width="2.28349" stroke-linecap="round"/>
<path d="M58.9722 82.5566C63.1454 84.966 66.3747 84.853 67.4677 84.4953" stroke="#25262B" stroke-width="3.42524" stroke-linecap="round"/>
<path d="M42.8853 81.2021C47.5399 82.4493 50.6299 81.5043 51.593 80.8759" stroke="#25262B" stroke-width="3.42524" stroke-linecap="round"/>
<g opacity="0.5">
<rect opacity="0.4" x="273" y="139" width="24" height="6" rx="1.5" fill="#DE350B"/>
<rect opacity="0.32" x="294" y="127" width="12" height="6" rx="1.5" fill="#DE350B"/>
<rect opacity="0.2" x="282" y="133" width="24" height="6" rx="1.5" fill="#DE350B"/>
<rect opacity="0.2" x="285" y="145" width="16.5" height="6" rx="1.5" fill="#DE350B"/>
</g>
</g>
<defs>
<linearGradient id="paint0_linear_25526_163556" x1="208.243" y1="62.7956" x2="174.397" y2="113.633" gradientUnits="userSpaceOnUse">
<stop stop-color="white" stop-opacity="0.63"/>
<stop offset="1" stop-color="white" stop-opacity="0"/>
</linearGradient>
<linearGradient id="paint1_linear_25526_163556" x1="199.243" y1="56.7956" x2="165.397" y2="107.633" gradientUnits="userSpaceOnUse">
<stop offset="0.197917" stop-color="white" stop-opacity="0.63"/>
<stop offset="1" stop-color="white" stop-opacity="0"/>
</linearGradient>
<clipPath id="clip0_25526_163556">
<rect width="300" height="160" rx="16" fill="white"/>
</clipPath>
</defs>
</svg>
