<svg width="222" height="137" viewBox="0 0 222 137" fill="none" xmlns="http://www.w3.org/2000/svg">
<path fill-rule="evenodd" clip-rule="evenodd" d="M105.018 110.176C144.95 112.844 165.437 147.753 196.73 128.888C228.014 110.028 228.986 66.9527 206.616 47.3651C184.245 27.7774 146.03 59.6101 118.067 53.3816C90.1041 47.1531 78 32.336 56 28.9551C34 25.5742 16.1862 31.0362 7.61437 47.365C-3.89553 69.2905 -4.32741 103.08 20.1976 115.297C47.1055 128.701 73.7629 108.088 105.018 110.176Z" fill="#EFEFEF"/>
<path opacity="0.8" d="M104.71 33.7707C134.439 47.2178 154.525 35.6379 159.78 31.9501C160.142 31.696 159.895 31.2122 159.464 31.3141L152.213 33.0323C134.506 37.2284 115.852 34.0351 100.549 24.1876C89.7446 17.2355 77.1683 13.5389 64.3208 13.5389L53.5705 13.5389C53.3775 13.5389 53.334 13.8697 53.5238 13.9048C60.4253 15.1797 82.7823 20.1176 104.71 33.7707Z" fill="#EFEFEF" stroke="#EFEFEF" stroke-width="10" stroke-linecap="round" stroke-linejoin="round"/>
<ellipse opacity="0.8" cx="179.5" cy="30.8164" rx="8.5" ry="4.5" fill="#EFEFEF"/>
<path fill-rule="evenodd" clip-rule="evenodd" d="M119.528 37.1116H143.344C144.082 37.107 144.814 37.254 145.498 37.5441C146.182 37.8342 146.804 38.2617 147.33 38.8022C147.855 39.3428 148.273 39.9858 148.559 40.6945C148.846 41.4032 148.996 42.1637 149 42.9327V125C149 131.627 143.627 137 137 137H74V137H55V136.997C59.432 136.916 62.9999 133.298 62.9998 128.847L62.9998 126.414L63 126.414V42.9327C63.0196 42.0806 63.2126 41.2426 63.5661 40.4738C63.9196 39.7051 64.4256 39.0232 65.0508 38.4731C65.6759 37.923 66.406 37.5172 67.1928 37.2825C67.9797 37.0478 68.8053 36.9896 69.6154 37.1116H92.5046C93.4566 34.1651 95.2727 31.6043 97.697 29.7901C100.121 27.9759 103.031 27 106.017 27C109.002 27 111.912 27.9759 114.336 29.7901C116.76 31.6043 118.577 34.1651 119.528 37.1116ZM83.8052 47.4457C83.8052 46.5322 84.1537 45.6561 84.774 45.0101C85.3943 44.3641 86.2356 44.0013 87.1129 44.0013H96.3213C97.5198 44.0013 98.4913 43.0297 98.4913 41.8313C98.4913 39.7165 99.2981 37.6883 100.734 36.1929C102.17 34.6975 104.118 33.8574 106.149 33.8574C108.179 33.8574 110.127 34.6975 111.563 36.1929C112.999 37.6883 113.806 39.7165 113.806 41.8313C113.806 43.1248 114.855 44.1735 116.148 44.1735H125.184C126.062 44.1735 126.903 44.5364 127.523 45.1823C128.144 45.8283 128.492 46.7044 128.492 47.6179V47.8179C128.492 51.1316 125.806 53.8179 122.492 53.8179H89.7987C86.4363 53.8179 83.7302 51.055 83.8 47.6933L83.8052 47.4457Z" fill="#BDBDBD"/>
<rect x="76" y="93" width="34" height="8" rx="4" fill="white"/>
<rect x="76" y="73" width="22" height="8" rx="4" fill="white"/>
<rect x="76" y="113" width="54" height="8" rx="4" fill="white"/>
<g filter="url(#filter0_d_13193_143210)">
<circle cx="140" cy="82" r="24" fill="#25262B" fill-opacity="0.6" shape-rendering="crispEdges"/>
<circle cx="140" cy="82" r="20" stroke="white" stroke-width="8" shape-rendering="crispEdges"/>
</g>
<rect x="134.843" y="72.2598" width="20.4207" height="5.83449" rx="2.91725" transform="rotate(45 134.843 72.2598)" fill="white"/>
<rect width="20.4207" height="5.83449" rx="2.91725" transform="matrix(0.707107 -0.707107 -0.707107 -0.707107 134.842 90.8223)" fill="white"/>
<rect x="153.357" y="92.6836" width="28" height="8" rx="4" transform="rotate(48 153.357 92.6836)" fill="white"/>
<path opacity="0.8" d="M32.7484 85.6267C32.7483 81.4152 36.1623 78.0011 40.3737 78.001C44.5851 78.0009 47.9992 81.4148 47.9993 85.6262L48.0001 112.001L36.749 112C34.54 112 32.7493 110.21 32.7492 108.001L32.7484 85.6267Z" fill="#25262B"/>
<path opacity="0.6" fill-rule="evenodd" clip-rule="evenodd" d="M40 85.9998H47.9993L47.9993 85.6253C47.9992 81.4381 44.6242 78.0391 40.4462 78.0003H48V78.0004L62.9996 78L62.9998 128.974C62.9998 133.406 59.3573 136.998 54.926 136.998C51.1245 136.997 47.9998 133.916 47.9998 130.114L47.9998 86.0003H40V85.9998ZM40 78.009C40.1 78.0042 40.2005 78.0013 40.3015 78.0003H40V78.009Z" fill="#25262B"/>
<defs>
<filter id="filter0_d_13193_143210" x="110" y="54" width="64" height="64" filterUnits="userSpaceOnUse" color-interpolation-filters="sRGB">
<feFlood flood-opacity="0" result="BackgroundImageFix"/>
<feColorMatrix in="SourceAlpha" type="matrix" values="0 0 0 0 0 0 0 0 0 0 0 0 0 0 0 0 0 0 127 0" result="hardAlpha"/>
<feOffset dx="2" dy="4"/>
<feGaussianBlur stdDeviation="4"/>
<feComposite in2="hardAlpha" operator="out"/>
<feColorMatrix type="matrix" values="0 0 0 0 0 0 0 0 0 0 0 0 0 0 0 0 0 0 0.08 0"/>
<feBlend mode="normal" in2="BackgroundImageFix" result="effect1_dropShadow_13193_143210"/>
<feBlend mode="normal" in="SourceGraphic" in2="effect1_dropShadow_13193_143210" result="shape"/>
</filter>
</defs>
</svg>
