<svg width="120" height="120" viewBox="0 0 120 120" fill="none" xmlns="http://www.w3.org/2000/svg">
<circle opacity="0.5" cx="60" cy="60" r="60" fill="#FEEDEC"/>
<circle cx="60" cy="60" r="48" fill="#FEEDEC"/>
<path d="M60 82.5C58.25 82.5 56.7708 81.885 55.5625 80.655C54.3542 79.4267 53.75 77.9583 53.75 76.25C53.75 74.5 54.3542 73.0208 55.5625 71.8125C56.7708 70.6042 58.25 70 60 70C61.75 70 63.2292 70.6042 64.4375 71.8125C65.6458 73.0208 66.25 74.5 66.25 76.25C66.25 77.9583 65.6458 79.4267 64.4375 80.655C63.2292 81.885 61.75 82.5 60 82.5ZM82 55.25C78.9583 52.7917 75.5733 50.885 71.845 49.53C68.115 48.1767 64.1667 47.5 60 47.5C59.125 47.5 58.2817 47.5308 57.47 47.5925C56.6567 47.6558 55.8333 47.75 55 47.875L48.625 41.5C50.4583 41 52.3233 40.625 54.22 40.375C56.115 40.125 58.0417 40 60 40C65.2083 40 70.1358 40.875 74.7825 42.625C79.4275 44.375 83.5833 46.7917 87.25 49.875C88.0417 50.5417 88.4483 51.375 88.47 52.375C88.49 53.375 88.125 54.2708 87.375 55.0625C86.6667 55.7708 85.8025 56.1458 84.7825 56.1875C83.7608 56.2292 82.8333 55.9167 82 55.25ZM73.9375 66.8125L72.5325 65.405L71.125 64L62.125 55C64.875 55.25 67.49 55.875 69.97 56.875C72.4483 57.875 74.6667 59.1458 76.625 60.6875C77.4583 61.3125 77.875 62.125 77.875 63.125C77.875 64.125 77.5 65 76.75 65.75C76.375 66.125 75.9375 66.4058 75.4375 66.5925C74.9375 66.7808 74.4375 66.8542 73.9375 66.8125ZM77.625 84.75L55.875 62.875C54.5417 63.1667 53.2817 63.5725 52.095 64.0925C50.9067 64.6142 49.7708 65.2292 48.6875 65.9375C47.7708 66.5625 46.8125 66.8542 45.8125 66.8125C44.8125 66.7708 43.9583 66.3958 43.25 65.6875C42.5 64.9375 42.1458 64.0417 42.1875 63C42.2292 61.9583 42.6458 61.1458 43.4375 60.5625C44.3958 59.8125 45.4167 59.135 46.5 58.53C47.5833 57.9267 48.7083 57.375 49.875 56.875L44.25 51.25C43.125 51.8333 42.0417 52.4583 41 53.125C39.9583 53.7917 38.9583 54.5 38 55.25C37.1667 55.9167 36.24 56.24 35.22 56.22C34.1983 56.1983 33.3333 55.8125 32.625 55.0625C31.9167 54.3125 31.5625 53.4167 31.5625 52.375C31.5625 51.3333 31.9583 50.5 32.75 49.875C33.7083 49.0833 34.6775 48.3542 35.6575 47.6875C36.6358 47.0208 37.6667 46.375 38.75 45.75L35.25 42.25C34.7917 41.7917 34.5625 41.2083 34.5625 40.5C34.5625 39.7917 34.7917 39.2083 35.25 38.75C35.7083 38.2917 36.2917 38.0625 37 38.0625C37.7083 38.0625 38.2917 38.2917 38.75 38.75L81.1875 81.1875C81.6458 81.6458 81.875 82.24 81.875 82.97C81.875 83.6983 81.6458 84.2917 81.1875 84.75C80.6875 85.25 80.0833 85.49 79.375 85.47C78.6667 85.4483 78.0833 85.2083 77.625 84.75Z" fill="#DE350B"/>
</svg>
