<svg width="96" height="96" viewBox="0 0 96 96" fill="none" xmlns="http://www.w3.org/2000/svg">
<circle opacity="0.1" cx="48" cy="48" r="48" fill="#F3AF00"/>
<circle opacity="0.2" cx="48" cy="48" r="40" fill="#F3AF00"/>
<circle cx="48" cy="48" r="32" fill="#F3AF00"/>
<g clip-path="url(#clip0_12996_144850)">
<path d="M67.1798 57.7292L52.0286 29.8225C51.6275 29.0855 51.0351 28.4703 50.3138 28.0416C49.5924 27.613 48.7688 27.3867 47.9298 27.3867C47.0907 27.3867 46.2671 27.613 45.5457 28.0416C44.8244 28.4703 44.232 29.0855 43.8309 29.8225L28.6642 57.7292C28.2672 58.4417 28.0639 59.2458 28.0746 60.0614C28.0853 60.877 28.3095 61.6756 28.725 62.3775C29.1405 63.0794 29.7327 63.6601 30.4426 64.0618C31.1525 64.4636 31.9552 64.6722 32.7709 64.6669H63.0731C63.882 64.6677 64.6773 64.4581 65.3808 64.0588C66.0844 63.6595 66.672 63.0842 67.0862 62.3893C67.5003 61.6944 67.7267 60.9037 67.7431 60.0949C67.7595 59.2861 67.5654 58.487 67.1798 57.7758V57.7292ZM45.6042 37.818C45.6042 37.1992 45.85 36.6057 46.2876 36.1681C46.7252 35.7305 47.3187 35.4847 47.9375 35.4847C48.5564 35.4847 49.1499 35.7305 49.5874 36.1681C50.025 36.6057 50.2709 37.1992 50.2709 37.818V48.5358C50.2709 49.1547 50.025 49.7482 49.5874 50.1857C49.1499 50.6233 48.5564 50.8692 47.9375 50.8692C47.3187 50.8692 46.7252 50.6233 46.2876 50.1857C45.85 49.7482 45.6042 49.1547 45.6042 48.5358V37.818ZM47.9998 58.8336C47.4706 58.8336 46.9533 58.6767 46.5133 58.3827C46.0733 58.0887 45.7304 57.6708 45.5279 57.1819C45.3254 56.693 45.2724 56.1551 45.3756 55.6361C45.4788 55.1171 45.7337 54.6403 46.1079 54.2661C46.482 53.892 46.9588 53.6371 47.4778 53.5339C47.9968 53.4307 48.5347 53.4837 49.0236 53.6862C49.5125 53.8887 49.9304 54.2316 50.2244 54.6716C50.5184 55.1116 50.6753 55.6289 50.6753 56.158C50.6753 56.8677 50.3934 57.5482 49.8917 58.05C49.3899 58.5517 48.7094 58.8336 47.9998 58.8336Z" fill="white"/>
</g>
<defs>
<clipPath id="clip0_12996_144850">
<rect width="56" height="56" fill="white" transform="translate(20 18)"/>
</clipPath>
</defs>
</svg>
