<svg width="300" height="160" viewBox="0 0 300 160" fill="none" xmlns="http://www.w3.org/2000/svg">
<g clip-path="url(#clip0_11858_251694)">
<rect width="300" height="160" rx="16" fill="#00A876" fill-opacity="0.1"/>
<g opacity="0.5">
<rect opacity="0.4" width="24" height="6" rx="1.5" transform="matrix(-1 0 0 1 232 110)" fill="#00A876"/>
<rect opacity="0.32" width="12" height="6" rx="1.5" transform="matrix(-1 0 0 1 211 98)" fill="#00A876"/>
<rect opacity="0.2" width="24" height="6" rx="1.5" transform="matrix(-1 0 0 1 223 104)" fill="#00A876"/>
<rect opacity="0.2" width="16.5" height="6" rx="1.5" transform="matrix(-1 0 0 1 220 116)" fill="#00A876"/>
</g>
<g opacity="0.7">
<rect opacity="0.4" width="24" height="6" rx="1.5" transform="matrix(-1 0 0 1 146 152)" fill="#00A876"/>
<rect opacity="0.32" width="12" height="6" rx="1.5" transform="matrix(-1 0 0 1 125 140)" fill="#00A876"/>
<rect opacity="0.2" width="24" height="6" rx="1.5" transform="matrix(-1 0 0 1 137 146)" fill="#00A876"/>
<rect opacity="0.2" width="16.5" height="6" rx="1.5" transform="matrix(-1 0 0 1 134 158)" fill="#00A876"/>
</g>
<rect x="120" y="64" width="9" height="4" rx="2" fill="#824D44"/>
<path opacity="0.1" d="M155 131H215C217.209 131 219 132.791 219 135V193H155V131Z" fill="#00A876"/>
<path opacity="0.1" d="M0 95C0 92.7909 1.79086 91 4 91H91V168H0V95Z" fill="#00A876"/>
<path opacity="0.1" d="M91 84C91 81.7909 92.7909 80 95 80H151C153.209 80 155 81.7909 155 84V168H91V84Z" fill="#00A876"/>
<path d="M88.5016 69.1284C88.9097 67.3001 90.5321 66 92.4054 66H133.242C138.29 66 142.076 70.6186 141.086 75.5689L126.443 148.784C126.069 150.654 124.428 152 122.521 152H74.9915C72.4309 152 70.5297 149.628 71.0876 147.128L88.5016 69.1284Z" fill="#555555" fill-opacity="0.1"/>
<path d="M84.5747 69.2425C84.9377 67.3601 86.5852 66 88.5023 66H136.155C138.668 66 140.558 68.29 140.082 70.7575L125.425 146.757C125.062 148.64 123.415 150 121.498 150H73.8451C71.3322 150 69.4416 147.71 69.9175 145.243L84.5747 69.2425Z" fill="white"/>
<path d="M101.553 75.7575C101.664 75.3123 102.064 75 102.523 75L115.219 75C115.87 75 116.347 75.6114 116.189 76.2425L115.689 78.2425C115.578 78.6877 115.178 79 114.719 79H102.023C101.372 79 100.895 78.3886 101.053 77.7575L101.553 75.7575Z" fill="#EFEFEF"/>
<path d="M88.8911 75.8759C88.9537 75.3755 89.379 75 89.8833 75H95.6097C96.2112 75 96.6766 75.5272 96.602 76.1241L95.8515 82.1241C95.7889 82.6245 95.3635 83 94.8592 83H89.1329C88.5313 83 88.0659 82.4728 88.1406 81.8759L88.8911 75.8759Z" fill="#EFEFEF"/>
<path d="M99.5528 87.7575C99.6641 87.3123 100.064 87 100.523 87H128.461C129.112 87 129.589 87.6114 129.432 88.2425L128.932 90.2425C128.82 90.6877 128.42 91 127.961 91H100.023C99.3724 91 98.895 90.3886 99.0528 89.7575L99.5528 87.7575Z" fill="#EFEFEF"/>
<path d="M86.8911 87.8759C86.9537 87.3755 87.379 87 87.8833 87H93.6097C94.2112 87 94.6766 87.5272 94.602 88.1241L93.8515 94.1241C93.7889 94.6245 93.3635 95 92.8592 95H87.1329C86.5313 95 86.0659 94.4728 86.1406 93.8759L86.8911 87.8759Z" fill="#EFEFEF"/>
<path d="M97.5528 99.7575C97.6641 99.3123 98.0641 99 98.523 99L114.719 99C115.37 99 115.847 99.6114 115.689 100.243L115.189 102.243C115.078 102.688 114.678 103 114.219 103H98.023C97.3724 103 96.895 102.389 97.0528 101.757L97.5528 99.7575Z" fill="#EFEFEF"/>
<path d="M84.8911 99.8759C84.9537 99.3755 85.379 99 85.8833 99H91.6097C92.2112 99 92.6766 99.5272 92.602 100.124L91.8515 106.124C91.7889 106.625 91.3635 107 90.8592 107H85.1329C84.5313 107 84.0659 106.473 84.1406 105.876L84.8911 99.8759Z" fill="#EFEFEF"/>
<path d="M95.5528 111.757C95.6641 111.312 96.0641 111 96.523 111H124.461C125.112 111 125.589 111.611 125.432 112.243L124.932 114.243C124.82 114.688 124.42 115 123.961 115H96.023C95.3724 115 94.895 114.389 95.0528 113.757L95.5528 111.757Z" fill="#BDBDBD"/>
<path d="M82.8911 111.876C82.9537 111.375 83.379 111 83.8833 111H89.6097C90.2112 111 90.6766 111.527 90.602 112.124L89.8515 118.124C89.7889 118.625 89.3635 119 88.8592 119H83.1329C82.5313 119 82.0659 118.473 82.1406 117.876L82.8911 111.876Z" fill="#BDBDBD"/>
<path d="M93.5528 123.757C93.6641 123.312 94.0641 123 94.523 123H113.719C114.37 123 114.847 123.611 114.689 124.243L114.189 126.243C114.078 126.688 113.678 127 113.219 127H94.023C93.3724 127 92.895 126.389 93.0528 125.757L93.5528 123.757Z" fill="#EFEFEF"/>
<path d="M80.8911 123.876C80.9537 123.375 81.379 123 81.8833 123H87.6097C88.2112 123 88.6766 123.527 88.602 124.124L87.8515 130.124C87.7889 130.625 87.3635 131 86.8592 131H81.1329C80.5313 131 80.0659 130.473 80.1406 129.876L80.8911 123.876Z" fill="#EFEFEF"/>
<path d="M91.5528 135.757C91.6641 135.312 92.0641 135 92.523 135H120.461C121.112 135 121.589 135.611 121.432 136.243L120.932 138.243C120.82 138.688 120.42 139 119.961 139H92.023C91.3724 139 90.895 138.389 91.0528 137.757L91.5528 135.757Z" fill="#EFEFEF"/>
<path d="M78.8911 135.876C78.9537 135.375 79.379 135 79.8833 135H85.6097C86.2112 135 86.6766 135.527 86.602 136.124L85.8515 142.124C85.7889 142.625 85.3635 143 84.8592 143H79.1329C78.5313 143 78.0659 142.473 78.1406 141.876L78.8911 135.876Z" fill="#EFEFEF"/>
<path d="M39.7842 44.8784C39.42 35.5373 48.861 32.0888 57.6755 28.9751C65.453 26.2277 78.7972 28.9751 78.7972 28.9751C78.7972 28.9751 88.4951 30.6988 93.2096 34.4419C98.0366 38.2743 102.458 41.473 101.907 47.6118C101.665 50.3044 101.012 51.8852 99.426 54.0745C97.6379 56.5429 93.2096 58.7939 93.2096 58.7939L84.5124 73.2063L75.5668 94.5764L51.3278 98.0477L42.3739 86.9619L41.0913 85.2183C34.8378 76.7168 33.542 65.5437 37.6837 55.8365C37.6837 55.8365 39.9158 48.2515 39.7842 44.8784Z" fill="#25262B"/>
<path fill-rule="evenodd" clip-rule="evenodd" d="M57.4991 27.9994C65.6219 26.6486 78.751 28.9661 78.7959 28.974C78.7959 28.974 88.4935 30.6979 93.208 34.4408C94.9678 35.838 96.6729 37.1522 98.1036 38.5541C93.6357 54.1276 85.2123 75.1418 68.3819 79.7133C56.2821 83.8677 46.9579 83.7164 39.0645 81.8334L37.0196 78.6625C34.6883 75.0483 32.8963 71.0871 32.2481 66.8354C31.5279 62.1111 31.0269 55.775 32.4991 51.5004C34.5982 45.4054 37.9323 46.7014 39 43.4994C42.5009 32.9994 48.3237 29.5253 57.4991 27.9994Z" fill="#25262B"/>
<path d="M123.296 130.762C124.984 132.742 128.316 131.95 128.807 129.395L131.984 112.885L135.401 114.969C137.284 116.117 138.61 117.993 139.064 120.151L139.266 121.109C139.874 124.002 139.67 127.007 138.674 129.791L136.042 137.154C135.927 137.474 135.896 137.818 135.951 138.153L136.49 141.422L123.798 142.674L123.307 140.554C123.281 140.442 123.238 140.334 123.179 140.235C122.753 139.517 122.197 138.886 121.558 138.348C120.042 137.073 117.196 134.532 116.222 132.66C114.761 129.852 114.632 124.747 117.698 125.533C118.856 125.83 121.192 128.295 123.296 130.762Z" fill="#FF9BA5"/>
<path d="M130.848 118.662C131.678 119.682 132.08 121.04 131.844 122.435L130.821 128.472C130.403 130.942 128.025 132.578 125.568 132.086C124.289 131.829 123.218 131.033 122.593 129.949C122.826 130.215 123.059 130.484 123.288 130.753C124.978 132.734 128.312 131.938 128.801 129.381L130.848 118.662Z" fill="#D4737C"/>
<path d="M85.0092 71.4679L93.4579 51.9125V58.6707L91.5936 70.1669C91.3505 71.6659 91.5391 73.2031 92.1373 74.5988L93.1249 76.9033C93.3378 77.4 93.3406 77.9616 93.1328 78.4604L89.4802 87.2266C88.0048 90.7676 85.8499 93.9853 83.1374 96.6978C80.2815 99.5537 76.1588 100.742 72.2209 99.845L68.6412 99.0294C67.2296 98.7077 65.9545 99.946 66.2347 101.366L67.5299 107.934H45.3584L49.1958 95.4885H59.2497C62.6231 95.4885 65.8408 94.0686 68.1145 91.5765L74.0311 85.0916L75.6786 83.0259C74.2601 81.1332 71.3127 77.6205 72.2195 73.9298C73.0685 70.4745 75.3451 67.5943 78.7673 67.5943C80.8888 67.5943 83.5421 69.3712 84.659 72.0808L85.0092 71.4679Z" fill="#FF9BA5"/>
<path fill-rule="evenodd" clip-rule="evenodd" d="M91.5454 70.5236C91.3844 71.9084 91.5874 73.3135 92.1382 74.5988L93.1265 76.9034C93.3392 77.3999 93.3419 77.9615 93.1343 78.4601L92.5698 79.8126L91.0347 76.173C90.7099 75.403 90.6344 74.5505 90.8189 73.7355L91.5454 70.5236Z" fill="#D4737C" fill-opacity="0.7"/>
<path d="M93.4585 54.7407C92.4046 57.4448 91.0272 60.9541 90.3032 62.6782C88.5377 66.883 87.4324 69.1168 86.7856 70.2856C86.3189 71.129 85.5514 71.7088 84.6646 72.0864L84.6616 72.0767L85.0103 71.4683L93.4585 51.9126V54.7407Z" fill="#D4737C"/>
<path d="M75.4544 78.0857C73.8863 76.3912 74.3888 70.1977 79.2354 70.1967" stroke="#D4737C" stroke-width="1.71262" stroke-linecap="round"/>
<path d="M14.3848 125C15.6068 119.038 20.1052 114.285 25.9911 112.738L36.203 110.054L41.3766 106.816C43.2173 105.664 45.445 105.318 47.5746 105.742C50.0327 106.232 53.3907 106.789 55.9796 106.802C58.5243 106.815 61.7901 106.309 64.2922 105.832C66.7141 105.37 69.245 105.904 71.1829 107.428L90.2276 122.407L91.2106 176.738L94.1918 207.516C94.4195 209.867 92.572 211.902 90.2104 211.902H19.2567L4 175.665L14.3848 125Z" fill="#1A4E66"/>
<path d="M91.1594 176.528C74.9538 152.786 86.2733 129.032 90.1668 122.36C73.2825 109.526 67.7998 209.775 56.8719 183.458C45.9439 157.142 39.4764 172.53 26.5413 189.257C16.1932 202.638 10.4215 179.197 8.8291 157.723V212.001H90.1979C92.5598 212.001 94.4075 209.965 94.1791 207.614L91.1594 176.528Z" fill="#333333" fill-opacity="0.1"/>
<path d="M31.7769 111.212L36.1975 110.054C37.7239 111.016 39.0781 111.676 40.3612 112.147C42.3271 112.869 42.3849 114.631 40.2964 114.48C36.729 114.223 33.2346 113.216 31.7769 111.212Z" fill="#333333" fill-opacity="0.2"/>
<path d="M77.7085 112.553L74.8278 110.297C73.2977 111.262 71.9397 111.925 70.6525 112.399C68.6876 113.123 68.5735 115.262 70.667 115.217C73.5966 115.154 76.3471 114.424 77.7085 112.553Z" fill="#333333" fill-opacity="0.14"/>
<path d="M88.2397 120.835L76.1954 111.368C73.8094 113.545 79.661 118.296 79.661 118.296C79.661 118.296 85.7418 123.057 88.2397 120.835Z" fill="#333333" fill-opacity="0.2"/>
<path d="M74.829 110.296C68.9975 111.731 61.3263 113.261 55.3167 113.2C49.3939 113.139 41.7859 111.499 36.1997 110.056L41.8018 106.551C43.3712 105.569 45.2706 105.272 47.0842 105.644C49.5705 106.154 53.2144 106.79 55.9804 106.803C58.7221 106.817 62.3008 106.229 64.8597 105.723C66.9222 105.315 69.0789 105.774 70.7315 107.074L74.829 110.296Z" fill="#1A4E66"/>
<path fill-rule="evenodd" clip-rule="evenodd" d="M65.1904 105.666C67.1507 105.367 69.1671 105.844 70.7314 107.074L74.8281 110.297C68.9967 111.732 61.3258 113.261 55.3164 113.2C49.3936 113.139 41.7854 111.499 36.1992 110.055L38.0088 108.923C41.6702 110.014 45.5251 110.775 48.8584 110.832C54.3429 110.926 61.6184 110.164 66.9404 107.97L65.1904 105.666Z" fill="#333333" fill-opacity="0.2"/>
<path d="M83.3143 140.85C84.2453 134.974 86.2149 129.309 89.1309 124.123L90.1267 122.352L91.2792 122.976C95.1422 125.068 98.3568 128.18 100.573 131.974L103.025 136.172L103.912 136.836C105.116 137.737 105.935 139.06 106.206 140.539L110.818 147.897L124.451 169.62L119.913 162.39L122.348 144.852C122.583 143.164 123.861 141.81 125.532 141.479L134.472 139.706C136.861 139.232 139.116 140.985 139.245 143.417L140.944 175.445L140.944 179.376C140.944 185.937 136.717 191.752 130.476 193.778C128.408 194.449 126.151 194.199 124.28 193.091L119.895 190.492L116.079 189.529C115.418 189.362 114.811 189.028 114.315 188.56L111.021 185.454L96.5969 174.002C94.3907 172.251 91.1425 173.867 91.2096 176.683C84.0891 166.735 81.1704 154.384 83.0845 142.301L83.3143 140.85Z" fill="#1A4E66"/>
<path d="M91.0646 176.523C76.3206 155.408 83.6355 132.276 90.1308 122.357C95.0365 124.272 78.9412 151.567 104.578 166.648C105.466 167.17 105.181 168.632 104.153 168.697L100.115 168.951C98.5052 169.053 97.6716 170.92 98.6708 172.186L105.965 181.43L97.3453 174.626C93.5927 171.704 91.5946 174.673 91.0646 176.523Z" fill="#333333" fill-opacity="0.4"/>
<path d="M103.749 136.712C104.723 140.475 105.406 144.143 105.833 147.436C105.99 148.649 112.614 151.218 112.185 150.071L106.209 140.514C106.209 140.514 106.082 139.427 105.615 138.602C105.08 137.656 103.749 136.712 103.749 136.712Z" fill="#333333" fill-opacity="0.4"/>
<path d="M119.915 162.391C134.321 177.691 127.218 182.843 125.961 183.996C125.093 175.384 122.395 167.057 118.048 159.572L117.057 157.867L119.915 162.391Z" fill="#333333" fill-opacity="0.4"/>
<path d="M136.404 145.418C131.665 143.289 124.316 145.428 122.054 147.001L121.468 151.224L123.454 149.653C125.531 148.011 127.982 146.91 130.588 146.448L136.404 145.418Z" fill="#333333" fill-opacity="0.4"/>
<path d="M94.5 66H126L125.228 68.3162C125.092 68.7246 124.71 69 124.279 69H95.1805C94.5625 69 94.0925 68.4451 94.1941 67.8356L94.5 66Z" fill="#555555" fill-opacity="0.1"/>
<path d="M95.8106 64.7575C95.9219 64.3123 96.3219 64 96.7808 64H104.43C104.783 64 105.11 63.8142 105.316 63.5269C106.074 62.4681 108.147 60 111 60C113.853 60 115.926 62.4681 116.684 63.5269C116.89 63.8142 117.217 64 117.57 64H124.719C125.37 64 125.847 64.6114 125.689 65.2425L125.189 67.2425C125.078 67.6877 124.678 68 124.219 68H96.2808C95.6302 68 95.1528 67.3886 95.3106 66.7575L95.8106 64.7575Z" fill="#C88C82"/>
<path d="M112.75 64.0318C112.816 64.1494 113 64.1344 113 64C113 62.8954 112.105 62 111 62C109.895 62 109 62.8954 109 64C109 64.1344 109.184 64.1494 109.25 64.0318C109.591 63.4165 110.247 63 111 63C111.753 63 112.409 63.4165 112.75 64.0318Z" fill="#824D44" fill-opacity="0.8"/>
<g opacity="0.5">
<rect opacity="0.4" x="-13" y="12" width="24" height="6" rx="1.5" fill="#00A876"/>
<rect opacity="0.32" x="2" width="15" height="6" rx="1.5" fill="#00A876"/>
<rect opacity="0.2" x="-4" y="6" width="24" height="6" rx="1.5" fill="#00A876"/>
<rect opacity="0.2" x="-1" y="18" width="16.5" height="6" rx="1.5" fill="#00A876"/>
</g>
<path d="M321.326 115.948C324.255 111.068 327.568 106.751 330.847 102.488C343.221 86.3844 351.202 68.4054 348.714 47.3944C344.158 8.92973 304.78 -17.9896 269.191 -9.39459C264.427 -8.24576 259.731 -6.45995 255.198 -3.979C253.591 -3.09726 252.034 -2.14287 250.529 -1.11809C250.024 -0.77388 249.528 -0.418488 249.035 -0.0586395C248.894 0.0452881 248.753 0.15033 248.612 0.255371C248.237 0.53476 247.866 0.818604 247.498 1.10693C247.372 1.20639 247.245 1.30362 247.119 1.40309C246.646 1.78082 246.177 2.16525 245.715 2.5564C245.639 2.62233 245.564 2.68938 245.487 2.7542C245.098 3.08946 244.712 3.42921 244.331 3.77342C244.197 3.89523 244.063 4.01701 243.93 4.13995C243.572 4.46962 243.218 4.80377 242.868 5.14127C242.774 5.23291 242.678 5.32231 242.583 5.41507C242.151 5.83861 241.725 6.26888 241.305 6.70471C241.204 6.80975 241.106 6.91594 241.006 7.02209C240.677 7.36742 240.353 7.71722 240.032 8.07149C239.911 8.20447 239.791 8.33745 239.671 8.47154C239.311 8.8761 238.955 9.28513 238.605 9.69974C238.559 9.75337 238.512 9.80701 238.466 9.86066C238.075 10.3267 237.691 10.8005 237.313 11.2777C237.207 11.4107 237.104 11.5448 237 11.6778C236.714 12.0455 236.431 12.4154 236.153 12.7886C236.049 12.9272 235.945 13.0658 235.843 13.2043C235.482 13.6961 235.126 14.1922 234.778 14.6951C234.749 14.7365 234.721 14.7801 234.691 14.8225C234.371 15.2874 234.058 15.7568 233.749 16.2295C233.651 16.3804 233.554 16.5324 233.457 16.6833C233.201 17.0833 232.948 17.4857 232.7 17.8913C232.62 18.0232 232.537 18.1539 232.457 18.2869C232.142 18.81 231.833 19.3363 231.532 19.8683C231.47 19.9767 231.411 20.0862 231.351 20.1946C231.106 20.6304 230.867 21.0696 230.631 21.511C230.545 21.6731 230.459 21.8362 230.374 21.9994C230.138 22.4498 229.907 22.9035 229.681 23.3606C229.63 23.4634 229.578 23.5651 229.527 23.6679C229.257 24.22 228.995 24.7754 228.739 25.3353C228.673 25.4783 228.61 25.6225 228.545 25.7655C228.349 26.2014 228.157 26.6395 227.97 27.0798C227.899 27.2452 227.829 27.4106 227.759 27.5759C227.533 28.118 227.312 28.6622 227.099 29.2109C227.087 29.2411 227.074 29.2724 227.062 29.3026C226.838 29.8792 226.624 30.4603 226.415 31.0426C226.355 31.2102 226.297 31.3767 226.238 31.5444C226.082 31.9903 225.929 32.4384 225.781 32.8887C225.729 33.0485 225.675 33.2084 225.623 33.3693C225.434 33.9582 225.25 34.5494 225.076 35.1428C225.052 35.2244 225.03 35.3071 225.006 35.3887C224.856 35.9061 224.711 36.4269 224.572 36.9477C224.524 37.1265 224.478 37.3053 224.431 37.4852C224.309 37.959 224.191 38.4351 224.077 38.9112C224.044 39.0498 224.01 39.1883 223.977 39.328C223.838 39.9293 223.706 40.5339 223.581 41.1385C223.553 41.2759 223.528 41.4145 223.5 41.5519C223.404 42.0347 223.312 42.5186 223.225 43.0036C223.193 43.1858 223.16 43.3668 223.129 43.5479C223.039 44.0742 222.955 44.6017 222.876 45.1292C222.862 45.2208 222.847 45.3125 222.834 45.4052C222.745 46.0165 222.665 46.6301 222.592 47.2447C222.572 47.4112 222.554 47.5777 222.536 47.7442C222.483 48.2159 222.434 48.6886 222.39 49.1613C222.374 49.339 222.357 49.5156 222.342 49.6921C222.289 50.3112 222.242 50.9304 222.205 51.5506C222.204 51.5718 222.203 51.5931 222.202 51.6143C222.167 52.2133 222.141 52.8123 222.121 53.4124C222.115 53.5923 222.111 53.7723 222.106 53.9533C222.094 54.4305 222.086 54.9088 222.083 55.3871C222.083 55.4966 222.078 55.6062 222.078 55.7146C222.078 55.7682 222.08 55.8219 222.08 55.8744C222.081 56.4588 222.087 57.0422 222.102 57.6256C222.103 57.658 222.105 57.6893 222.105 57.7206C222.121 58.2737 222.143 58.8247 222.172 59.3768C222.181 59.5589 222.193 59.7422 222.204 59.9243C222.228 60.3334 222.255 60.7435 222.287 61.1514C222.302 61.3503 222.317 61.5493 222.335 61.7482C222.371 62.1729 222.412 62.5975 222.457 63.0211C222.473 63.182 222.488 63.3429 222.506 63.5038C222.571 64.0816 222.642 64.6582 222.721 65.2338C222.736 65.3366 222.752 65.4383 222.767 65.5411C222.835 66.0161 222.908 66.491 222.986 66.9649C223.017 67.1537 223.051 67.3426 223.083 67.5315C223.153 67.9293 223.225 68.3271 223.302 68.7239C223.339 68.9161 223.376 69.1094 223.415 69.3017C223.504 69.742 223.599 70.1812 223.697 70.6192C223.727 70.7522 223.754 70.8852 223.785 71.0171C223.915 71.5814 224.053 72.1447 224.199 72.7068C224.235 72.8443 224.274 72.9806 224.311 73.1192C224.425 73.5461 224.542 73.9719 224.665 74.3965C224.72 74.5865 224.777 74.7765 224.834 74.9653C224.95 75.352 225.07 75.7376 225.193 76.1209C225.251 76.3031 225.309 76.4852 225.369 76.6663C225.525 77.1356 225.686 77.6039 225.853 78.0699C225.883 78.1526 225.91 78.2364 225.94 78.3191C226.139 78.8656 226.347 79.4087 226.561 79.9485C226.622 80.1038 226.686 80.2569 226.749 80.4111C226.908 80.8023 227.07 81.1923 227.237 81.5812C227.316 81.7645 227.397 81.9478 227.477 82.1299C227.644 82.5065 227.815 82.8809 227.99 83.2542C228.067 83.4184 228.142 83.5838 228.221 83.747C228.473 84.2745 228.732 84.7997 229.001 85.3205C237.111 101.032 253.066 111.468 256.597 129.803C256.978 131.791 257.202 133.839 257.59 135.827C253.896 136.803 251.141 140.253 251.141 144.341C251.141 147.461 252.748 150.208 255.149 151.772C252.748 153.336 251.141 156.083 251.141 159.202C251.141 162.281 252.704 164.998 255.052 166.573C252.704 168.147 251.141 170.864 251.141 173.943C251.141 178.783 254.998 182.743 259.713 182.743H265.09C265.594 196.542 275.516 207.553 287.686 207.553C299.858 207.553 309.78 196.542 310.283 182.743H315.661C320.375 182.743 324.233 178.783 324.233 173.943C324.233 170.864 322.67 168.147 320.321 166.573C322.67 164.998 324.233 162.281 324.233 159.202C324.233 156.083 322.625 153.336 320.224 151.772C322.625 150.208 324.233 147.461 324.233 144.341C324.233 139.885 320.96 136.182 316.762 135.622C316.846 134.952 316.904 134.266 316.929 133.561C317.164 127.028 317.896 121.666 321.326 115.948Z" fill="#FFB81F"/>
<path d="M245.4 42.2492C245.4 42.2492 250.524 63.9676 269.594 65.5697C269.594 65.5697 280.973 65.2413 285.814 69.7416C285.814 69.7416 284.505 31.3086 245.4 42.2492Z" fill="#00A876"/>
<path d="M290.736 63.7856C290.736 63.7856 274.158 43.7777 300.621 21.5188C300.621 21.5188 310.066 31.4232 304.98 48.0181C302.602 55.7751 292.881 61.7834 290.736 63.7856Z" fill="#00A876"/>
<path d="M291.934 83.5129C291.449 83.5129 291.001 83.2069 290.825 82.7223C285.04 66.7825 275.125 58.6269 267.826 54.5906C259.938 50.2306 253.392 49.6185 253.327 49.6137C252.676 49.5563 252.192 48.9681 252.248 48.3001C252.302 47.6306 252.875 47.1348 253.527 47.1922C253.813 47.2161 260.632 47.8538 268.949 52.4513C275.493 56.0699 284.04 62.8355 290.157 75.1246C289.993 71.9507 289.895 67.9733 290.05 63.6485C290.549 49.6456 293.291 38.8437 298.201 31.5426C298.573 30.991 299.311 30.8524 299.848 31.2333C300.385 31.6143 300.52 32.3716 300.149 32.9231C289.021 49.4734 293.064 81.812 293.108 82.1372C293.187 82.7509 292.805 83.3264 292.221 83.4763C292.125 83.5018 292.028 83.5129 291.934 83.5129Z" fill="#4D3709"/>
<path fill-rule="evenodd" clip-rule="evenodd" d="M278.06 75.7638C290.009 73.6873 302.031 76.5124 311.911 83.7188C319.546 89.2881 325.192 96.9605 328.298 105.821C325.877 109.026 323.496 112.333 321.326 115.948C317.896 121.667 317.163 127.029 316.928 133.562C316.903 134.266 316.846 134.952 316.762 135.622C320.96 136.182 324.233 139.884 324.233 144.341C324.233 145.151 324.122 145.937 323.919 146.683C323.503 147.354 323.07 148.017 322.618 148.67C321.894 149.716 321.131 150.723 320.336 151.695C320.299 151.721 320.262 151.747 320.224 151.772C320.235 151.778 320.245 151.786 320.255 151.793C313.351 160.192 303.879 165.764 293.204 167.619C281.255 169.695 269.233 166.87 259.354 159.663C256.997 157.944 254.831 156.023 252.869 153.93C253.495 153.078 254.269 152.345 255.149 151.772C252.748 150.208 251.141 147.461 251.141 144.341C251.141 140.253 253.896 136.804 257.59 135.827C257.203 133.839 256.978 131.791 256.597 129.803C254.696 119.932 249.194 112.351 243.254 105.004C244.608 101.399 246.409 97.9436 248.645 94.712C255.664 84.5692 266.111 77.8402 278.06 75.7638Z" fill="#CEE5EB"/>
<path fill-rule="evenodd" clip-rule="evenodd" d="M278.045 75.7544C289.994 73.6779 302.016 76.503 311.896 83.7094C319.531 89.2787 325.177 96.9511 328.283 105.812C325.862 109.016 323.481 112.322 321.311 115.938C317.881 121.656 317.149 127.019 316.914 133.552C316.889 134.256 316.831 134.942 316.747 135.613C320.945 136.173 324.218 139.875 324.218 144.332C324.218 145.142 324.107 145.928 323.904 146.674C323.488 147.345 323.055 148.008 322.604 148.661C321.88 149.707 321.116 150.714 320.321 151.686C320.284 151.711 320.247 151.738 320.209 151.762C320.22 151.769 320.231 151.777 320.241 151.784C313.337 160.183 303.864 165.755 293.188 167.61C281.239 169.686 269.218 166.861 259.339 159.655C256.982 157.935 254.817 156.013 252.854 153.92C253.481 153.069 254.254 152.336 255.135 151.762C252.734 150.199 251.127 147.452 251.127 144.332C251.127 140.244 253.881 136.794 257.575 135.817C257.188 133.829 256.963 131.781 256.582 129.793C254.681 119.923 249.18 112.342 243.24 104.995C244.594 101.39 246.395 97.9341 248.631 94.7026C255.65 84.5601 266.096 77.8309 278.045 75.7544Z" fill="#00616F"/>
<path fill-rule="evenodd" clip-rule="evenodd" d="M295.192 116.107C296.77 115.635 298.649 115.805 299.806 117.004C300.098 117.306 300.362 117.681 300.761 117.793C301.295 117.943 301.816 117.566 302.335 117.369C303.793 116.816 305.393 117.71 306.555 118.77C308.94 121.323 310.023 121.651 311.105 121.804C313.15 122.092 314.861 123.523 315.552 125.519C315.558 125.536 315.564 125.553 315.57 125.57C315.876 126.44 316.565 127.099 317.41 127.375C317.141 129.345 317.006 131.389 316.928 133.562C316.903 134.266 316.845 134.952 316.761 135.622C319.672 136.01 322.137 137.91 323.376 140.524C322.823 141.455 322.328 142.401 321.96 143.379C320.917 145.877 320.45 148.629 319.131 150.986C314.641 158.324 304.543 159.503 299.015 166.206C297.125 166.801 295.185 167.275 293.203 167.619C293.148 167.629 293.093 167.635 293.038 167.645C293.067 167.509 293.104 167.375 293.151 167.245C295.254 160.867 301.393 152.481 295.608 146.467C293.835 144.819 291.119 144.12 290.09 141.904C289.434 140.49 289.655 138.778 289.019 137.355C288.347 135.85 286.784 134.813 286.449 133.194C285.863 130.361 289.268 128.314 289.871 125.486C289.831 121.352 290.92 117.455 295.192 116.107ZM278.059 75.7639C284.148 74.7058 290.255 74.9227 296.088 76.341C296.226 76.3977 296.364 76.4552 296.501 76.5149C298.566 77.4152 300.41 78.7939 302.037 80.3811C303.024 81.3441 304.387 83.0637 304.846 84.3801C305.306 85.6965 305.038 87.157 304.118 88.1887C303.198 89.22 301.12 88.8808 300.247 87.8078C299.796 87.2537 299.643 86.4839 299.157 85.9621C298.47 85.2254 297.162 85.2539 296.506 86.0197C296.288 86.2748 296.159 86.5935 296.112 86.927C295.921 88.2863 294.983 89.4056 293.677 89.7024C293.307 89.7866 292.937 89.8763 292.576 89.9865C291.168 90.4152 289.727 89.223 289.462 90.7053C289.238 91.958 289.886 93.4306 289.12 94.4318C288.664 95.0268 287.854 95.2103 287.326 95.7385C286.332 96.7326 286.703 98.4026 286.85 99.8186C286.998 101.235 286.353 103.136 284.973 102.995C283.436 102.838 283.386 100.592 282.74 99.1506C282.193 97.931 280.89 97.112 279.583 97.1662C277.642 97.2471 276.099 99.0135 274.17 99.2502C273.296 99.3577 272.368 99.1458 271.555 99.4924C270.193 100.073 269.836 101.861 269.769 103.374C269.715 104.6 269.733 105.866 270.183 107.003C270.633 108.141 271.603 109.134 272.792 109.268C274.687 109.481 276.143 107.606 277.872 106.824C278.039 106.749 278.217 106.696 278.4 106.691C279.828 106.646 279.861 108.858 279.36 109.902C279.117 110.406 279.035 110.98 279.181 111.523C279.796 113.804 282.018 112.214 283.114 113.242C283.993 114.067 283.283 115.739 284.024 116.696C284.591 117.428 285.666 117.352 286.578 117.339C287.59 117.324 288.895 117.75 288.728 118.931C288.656 119.445 288.315 119.879 287.855 120.094C286.617 120.672 285.262 121.489 283.856 121.323C282.495 121.163 281.409 120.128 280.431 119.143C278.51 117.208 276.6 115.261 274.701 113.303C274.38 112.973 274.051 112.636 273.642 112.434C273.306 112.268 272.932 112.203 272.561 112.169C270.021 111.936 267.244 113.048 265.025 111.758C263.467 110.852 262.678 108.978 262.399 107.162C262.101 105.226 262.23 103.129 261.162 101.48C261.048 101.305 260.897 101.155 260.709 101.073C259.89 100.718 259.288 101.855 259.227 102.764C259.147 103.951 257.53 104.16 257.169 103.029C256.99 102.469 256.873 101.879 256.774 101.303C256.075 97.2253 256.618 92.3444 257.004 88.2229C257.173 86.4286 257.479 85.2847 258.612 84.2443C264.279 79.9249 270.899 77.0083 278.059 75.7639ZM286.522 104.748C287.015 104.696 287.524 104.682 287.995 104.84C288.638 105.056 289.145 105.566 289.751 105.876C291.326 106.682 293.222 106.01 294.967 106.244C296.34 106.428 297.626 107.21 298.444 108.357C298.604 108.581 298.752 108.835 298.753 109.113C298.755 109.438 298.558 109.729 298.332 109.955C297.467 110.822 296.041 111.028 294.976 110.441C294.416 110.132 293.969 109.64 293.419 109.313C291.431 108.133 288.921 109.426 286.639 109.161C285.903 109.076 285.194 108.826 284.508 108.536C284.035 108.336 283.55 108.1 283.225 107.673C282.822 107.127 282.999 106.334 283.575 105.986C284.23 105.589 285.561 104.85 286.522 104.748Z" fill="#00A876"/>
<path d="M324.511 159.164C324.511 156.025 322.893 153.261 320.476 151.686C322.893 150.113 324.511 147.349 324.511 144.209C324.511 139.724 321.217 135.998 316.991 135.434C316.628 135.386 316.26 135.352 315.883 135.352H259.57C258.832 135.352 258.118 135.459 257.433 135.64C253.715 136.623 250.942 140.095 250.942 144.209C250.942 147.349 252.56 150.113 254.976 151.686C252.56 153.261 250.942 156.025 250.942 159.164C250.942 162.263 252.516 164.997 254.879 166.581C252.516 168.166 250.942 170.9 250.942 173.998C250.942 178.869 254.825 182.855 259.57 182.855H264.982C265.489 196.741 275.476 207.822 287.726 207.822C299.977 207.822 309.964 196.741 310.47 182.855H315.883C320.628 182.855 324.511 178.869 324.511 173.998C324.511 170.9 322.938 168.166 320.574 166.581C322.938 164.997 324.511 162.263 324.511 159.164Z" fill="#003138"/>
<path opacity="0.3" d="M345.859 34.7393C347.224 38.7845 348.196 43.0145 348.714 47.3945C351.202 68.4054 343.221 86.3845 330.846 102.488C327.568 106.751 324.256 111.068 321.326 115.948C317.896 121.667 317.163 127.028 316.928 133.562C316.903 134.265 316.846 134.952 316.762 135.622C320.96 136.182 324.233 139.884 324.233 144.341C324.233 147.461 322.625 150.208 320.224 151.771C322.625 153.336 324.233 156.083 324.233 159.202C324.233 162.281 322.669 164.998 320.321 166.572C322.669 168.147 324.233 170.864 324.233 173.942C324.233 178.782 320.375 182.743 315.661 182.743H310.283C309.78 196.541 299.857 207.553 287.686 207.553C275.515 207.552 265.594 196.541 265.09 182.743H259.712C254.998 182.743 251.141 178.782 251.141 173.942C251.141 170.864 252.704 168.147 255.052 166.572C252.704 164.998 251.141 162.281 251.141 159.202C251.141 156.083 252.748 153.336 255.149 151.771C252.748 150.208 251.141 147.461 251.141 144.341C251.141 140.253 253.896 136.804 257.59 135.827C257.203 133.839 256.978 131.791 256.597 129.803C253.065 111.467 237.11 101.032 229 85.3203C228.732 84.7996 228.473 84.2745 228.22 83.7471C228.142 83.5839 228.067 83.4182 227.99 83.2539C227.815 82.8808 227.644 82.5064 227.477 82.1299C227.396 81.9478 227.317 81.7643 227.238 81.5811C227.07 81.1922 226.907 80.8023 226.749 80.4111C226.686 80.257 226.622 80.1035 226.561 79.9482C226.347 79.4086 226.139 78.8657 225.941 78.3193C225.911 78.2367 225.883 78.1529 225.853 78.0703C225.686 77.6043 225.524 77.1354 225.369 76.666C225.309 76.4851 225.251 76.3031 225.193 76.1211C225.069 75.7379 224.949 75.3524 224.833 74.9658C224.777 74.777 224.72 74.5865 224.666 74.3965C224.543 73.9718 224.425 73.546 224.311 73.1191C224.274 72.9806 224.235 72.8444 224.199 72.707C224.053 72.1449 223.915 71.581 223.785 71.0166C223.754 70.8849 223.727 70.752 223.698 70.6191C223.599 70.1811 223.505 69.742 223.416 69.3018C223.377 69.1095 223.339 68.9159 223.302 68.7236C223.226 68.327 223.153 67.929 223.083 67.5312C223.051 67.3424 223.017 67.1537 222.986 66.9648C222.908 66.491 222.835 66.016 222.767 65.541C222.752 65.4382 222.735 65.3362 222.721 65.2334C222.642 64.658 222.571 64.0815 222.506 63.5039C222.488 63.3431 222.473 63.1823 222.457 63.0215C222.453 62.9885 222.451 62.9549 222.448 62.9219C232.051 86.2547 255.01 102.682 281.806 102.682C317.243 102.682 345.969 73.955 345.969 38.5186C345.969 37.2499 345.932 35.9897 345.859 34.7393Z" fill="#003138"/>
<path opacity="0.5" d="M242.078 13.8852C244.26 10.8762 246.812 8.1502 249.667 5.80992C251.366 4.41651 253.251 3.12363 255.4 2.7893C257.552 2.45731 260.011 3.33638 260.962 5.34233C261.682 6.86434 261.411 8.71833 260.682 10.238C259.956 11.7553 258.822 13.0201 257.759 14.313C254.674 18.0654 252.061 22.2293 250.011 26.6667C248.895 29.0795 247.922 31.6138 246.257 33.6712C242.562 38.2349 234.463 37.5428 234.626 30.4729C234.753 24.939 238.972 18.1636 242.078 13.8852Z" fill="#FFE3A5"/>
<path d="M324.511 159.171C324.511 156.031 322.893 153.266 320.476 151.691C322.893 150.117 324.511 147.352 324.511 144.211C324.511 139.725 321.217 135.998 316.991 135.434C316.628 135.386 316.26 135.352 315.883 135.352H259.57C258.832 135.352 258.118 135.459 257.433 135.64C253.715 136.623 250.942 140.096 250.942 144.211C250.942 147.352 252.56 150.117 254.976 151.691C252.56 153.266 250.942 156.031 250.942 159.171C250.942 162.271 252.516 165.005 254.879 166.591C252.516 168.176 250.942 170.91 250.942 174.01C250.942 178.882 254.825 182.869 259.57 182.869H315.883C320.628 182.869 324.511 178.882 324.511 174.01C324.511 170.91 322.938 168.176 320.574 166.591C322.938 165.005 324.511 162.271 324.511 159.171Z" fill="#003138"/>
<path d="M259.136 149.51C258.503 149.51 257.985 150.044 257.985 150.698V151.215C257.985 151.867 258.503 152.402 259.136 152.402H316.348C316.982 152.402 317.501 151.867 317.501 151.215V150.698C317.501 150.044 316.982 149.51 316.348 149.51H259.136Z" fill="#00616F"/>
<path d="M150 50.5C165.967 50.5001 178.799 63.7701 178.799 80C178.799 96.2299 165.967 109.5 150 109.5C134.033 109.5 121.201 96.23 121.201 80C121.201 63.77 134.033 50.5 150 50.5Z" fill="#00A92F" stroke="#E5F6F1" stroke-width="5"/>
<path d="M158.054 71.6376C158.458 71.2241 158.996 70.9955 159.554 71.0001C160.111 71.0046 160.646 71.2419 161.044 71.662C161.442 72.082 161.673 72.6519 161.687 73.2514C161.702 73.8509 161.5 74.4331 161.123 74.8751L149.681 90.2609C149.484 90.4888 149.247 90.6716 148.983 90.7985C148.719 90.9255 148.434 90.9938 148.145 90.9996C147.855 91.0054 147.568 90.9484 147.3 90.832C147.032 90.7157 146.788 90.5424 146.584 90.3226L138.996 82.1641C138.785 81.9524 138.615 81.6971 138.498 81.4134C138.38 81.1298 138.317 80.8236 138.312 80.5131C138.307 80.2026 138.36 79.8941 138.468 79.6062C138.576 79.3182 138.737 79.0567 138.941 78.8371C139.146 78.6175 139.389 78.4444 139.657 78.3281C139.925 78.2118 140.211 78.1546 140.5 78.1601C140.789 78.1656 141.074 78.2336 141.338 78.36C141.601 78.4864 141.839 78.6686 142.036 78.8958L148.041 85.3492L158 71.7055C158.018 71.6817 158.037 71.6591 158.057 71.6376H158.054Z" fill="white"/>
</g>
<defs>
<clipPath id="clip0_11858_251694">
<rect width="300" height="160" rx="16" fill="white"/>
</clipPath>
</defs>
</svg>
