<svg width="120" height="120" viewBox="0 0 120 120" fill="none" xmlns="http://www.w3.org/2000/svg">
<mask id="mask0_3653_41449" style="mask-type:alpha" maskUnits="userSpaceOnUse" x="0" y="0" width="120" height="120">
<circle cx="60" cy="60" r="60" fill="#00A2B9"/>
</mask>
<g mask="url(#mask0_3653_41449)">
<path opacity="0.1" d="M-134.157 79.0382L-137.647 67.7068V137.647H176.471V-15.8828L172.98 -8.85403C169.49 -1.82525 162.51 12.2323 155.529 14.1788C148.549 16.1253 141.569 5.96074 134.588 15.3122C127.608 24.6638 120.627 53.5313 113.647 62.5374C106.667 71.5434 99.6862 60.6879 92.7058 60.799C85.7254 60.91 78.7451 71.9878 71.7647 72.8951C64.7843 73.8025 57.8039 64.5395 50.8235 66.6727C43.8431 68.8059 36.8627 82.3352 29.8823 82.6419C22.9019 82.9486 15.9215 70.0327 8.94113 65.9689C1.96074 61.9051 -5.01965 66.6934 -12 77.6771C-18.9804 88.6608 -25.9608 105.84 -32.9412 109.089C-39.9216 112.338 -46.902 101.658 -53.8824 92.0704C-60.8628 82.4827 -67.8432 73.9877 -74.8236 71.9373C-81.804 69.887 -88.7844 74.2813 -95.7647 85.9817C-102.745 97.6822 -109.726 116.689 -116.706 114.861C-123.686 113.033 -130.667 90.3697 -134.157 79.0382Z" fill="#229BD8"/>
<path d="M61.1421 61.4382C61.1421 61.851 61.1421 62.1607 61.1421 62.5735C61.1421 64.7409 61.5549 66.8052 62.3806 68.7662C62.9999 70.3144 63.8256 71.7593 64.9609 73.1011C65.2705 73.5139 65.6834 73.9268 65.993 74.2364C69.0894 77.3327 73.2178 79.0873 77.5527 79.0873C79.3073 79.0873 80.9587 78.7777 82.5068 78.2616V94.4658H28.8369V51.9427L52.7819 26.5527H82.5068V46.9886C80.9587 46.4725 79.2041 46.1629 77.5527 46.1629C77.0366 46.1629 76.5206 46.1629 76.0045 46.2661C72.7017 46.5757 69.6054 47.8143 67.1283 49.8785C66.7155 50.1881 66.3027 50.601 65.8898 51.0138C64.1352 52.7684 62.7935 54.9359 61.9678 57.2065C61.5549 58.5483 61.2453 59.9932 61.1421 61.4382Z" fill="url(#paint0_linear_3653_41449)"/>
<path d="M52.7819 26.5527V51.9427H28.9401L52.7819 26.5527Z" fill="#00A2B9"/>
<path d="M76.0045 34.0879H57.3232V38.4228H76.0045V34.0879Z" fill="white"/>
<path d="M76.0045 45.6465V46.2658C72.7017 46.5754 69.6054 47.8139 67.1283 49.8781H57.3232V45.6465H76.0045Z" fill="white"/>
<path d="M62.0709 57.2051C61.5549 58.5468 61.2453 59.9918 61.142 61.54H38.2291V57.2051H62.0709Z" fill="white"/>
<path d="M64.8577 72.997H38.2291V68.6621H62.2774C62.8966 70.3135 63.8256 71.7585 64.8577 72.997Z" fill="white"/>
<path d="M76.0045 80.3242H38.2291V84.6591H76.0045V80.3242Z" fill="white"/>
<path d="M87.9772 73.1009C90.7639 70.3142 92.312 66.4954 92.312 62.5734C92.312 58.6513 90.7639 54.8325 87.9772 52.0458C85.1905 49.2591 81.3716 47.7109 77.4496 47.7109C73.5276 47.7109 69.7088 49.2591 66.922 52.0458C64.1353 54.8325 62.5872 58.6513 62.5872 62.5734C62.5872 66.4954 64.1353 70.3142 66.922 73.1009C69.7088 75.8876 73.5276 77.4358 77.4496 77.4358C81.4749 77.4358 85.1905 75.8876 87.9772 73.1009Z" fill="#59A344"/>
<path d="M84.7776 56.1753C84.984 56.2785 85.1905 56.3817 85.2937 56.4849C85.3969 56.5881 85.6033 56.7945 85.6033 57.001C85.7065 57.2074 85.7065 57.4138 85.7065 57.6202C85.7065 57.8266 85.7065 58.0331 85.6033 58.2395C85.5001 58.4459 85.3969 58.6523 85.2937 58.7555L75.3854 68.6638C75.2822 68.767 75.0757 68.9735 74.8693 68.9735C74.6629 69.0767 74.4565 69.0767 74.25 69.0767C74.0436 69.0767 73.8372 69.0767 73.6308 68.9735C73.4244 68.8703 73.2179 68.767 73.1147 68.6638L69.812 65.3611C69.5023 65.0514 69.2959 64.6386 69.2959 64.2257C69.2959 63.8129 69.5023 63.4001 69.812 63.0904C70.1216 62.7808 70.5344 62.5744 70.9473 62.5744C71.3601 62.5744 71.773 62.7808 72.0826 63.0904L74.25 65.2579L83.023 56.4849C83.1262 56.3817 83.3327 56.1753 83.5391 56.1753C83.7455 56.0721 83.9519 56.072 84.1583 56.072C84.3648 55.9688 84.5712 56.0721 84.7776 56.1753Z" fill="#F2F1F1"/>
<circle opacity="0.1" cx="60" cy="60" r="60" fill="#00A2B9"/>
</g>
<defs>
<linearGradient id="paint0_linear_3653_41449" x1="28.8732" y1="60.5064" x2="82.5084" y2="60.5064" gradientUnits="userSpaceOnUse">
<stop stop-color="#26C1DE"/>
<stop offset="0.2557" stop-color="#28BEDB"/>
<stop offset="0.4406" stop-color="#26B7D5"/>
<stop offset="0.6032" stop-color="#21ACCC"/>
<stop offset="0.7529" stop-color="#189EC0"/>
<stop offset="0.8926" stop-color="#0D8CB1"/>
<stop offset="1" stop-color="#007CA4"/>
</linearGradient>
</defs>
</svg>
