<svg width="388" height="160" viewBox="0 0 388 160" fill="none" xmlns="http://www.w3.org/2000/svg">
<defs>
<linearGradient id="paint0_linear_26862_176243" x1="194.5" y1="19" x2="194.5" y2="79" gradientUnits="userSpaceOnUse">
<stop stop-color="#DE350B" stop-opacity="0.3"/>
<stop offset="1" stop-color="#DE350B"/>
</linearGradient>
<linearGradient id="paint1_linear_26862_176243" x1="195" y1="91" x2="195" y2="99" gradientUnits="userSpaceOnUse">
<stop stop-color="#DE350B"/>
<stop offset="1" stop-color="#DE350B" stop-opacity="0"/>
</linearGradient>
<clipPath id="clip0_26862_176243">
<rect width="388" height="160" rx="16" fill="white"/>
</clipPath>
</defs>
<g clip-path="url(#clip0_26862_176243)">
<rect width="388" height="160" rx="16" fill="#E5F7FF"/>
<mask id="path-2-outside-1_26862_176243" maskUnits="userSpaceOnUse" x="131" y="49" width="127" height="147" fill="black">
<rect fill="white" x="131" y="49" width="127" height="147"/>
<path d="M136 67.7009C136 60.1341 142.134 54 149.701 54H238.757C246.324 54 252.458 60.1341 252.458 67.701V195.577H136V67.7009Z"/>
</mask>
<path d="M136 67.7009C136 60.1341 142.134 54 149.701 54H238.757C246.324 54 252.458 60.1341 252.458 67.701V195.577H136V67.7009Z" fill="#FAEAC2"/>
<path d="M131.433 67.701C131.433 57.6119 139.612 49.433 149.701 49.433H238.757C248.846 49.433 257.025 57.6119 257.025 67.701H247.891C247.891 62.6564 243.802 58.567 238.757 58.567H149.701C144.656 58.567 140.567 62.6564 140.567 67.701H131.433ZM252.458 195.577H136H252.458ZM131.433 195.577V67.701C131.433 57.6119 139.612 49.433 149.701 49.433V58.567C144.656 58.567 140.567 62.6564 140.567 67.701V195.577H131.433ZM238.757 49.433C248.846 49.433 257.025 57.6119 257.025 67.701V195.577H247.891V67.701C247.891 62.6564 243.802 58.567 238.757 58.567L238.757 49.433Z" fill="#25262B" mask="url(#path-2-outside-1_26862_176243)"/>
<path d="M140 151C140 152.105 140.895 153 142 153H160C161.105 153 162 152.105 162 151V134.5C162 133.395 161.105 132.5 160 132.5H153C151.895 132.5 151 131.605 151 130.5V126C151 124.895 150.105 124 149 124H142C140.895 124 140 124.895 140 126V131.457V151Z" fill="#DCC792"/>
<path d="M153.5 127.5C153.5 128.605 154.395 129.5 155.5 129.5H164.907C166.047 129.5 166.957 130.452 166.905 131.591L166.774 134.474C166.686 136.397 169.101 137.321 170.32 135.831L175.048 130.053C175.34 129.695 175.5 129.248 175.5 128.786V111C175.5 109.895 174.605 109 173.5 109H166.5C165.395 109 164.5 108.105 164.5 107V102.5C164.5 101.395 163.605 100.5 162.5 100.5H155.5C154.395 100.5 153.5 101.395 153.5 102.5V107.957V127.5Z" fill="#F0DCAB"/>
<path d="M250 65.8603C250 65.3111 249.774 64.7861 249.375 64.4084L241.079 56.5481C240.707 56.1962 240.215 56 239.703 56H226.862C226.312 56 225.786 56.2267 225.408 56.6268L218.638 63.7956C217.978 64.4942 217.908 65.5635 218.472 66.3418L227.401 78.673C227.777 79.1925 228.38 79.5 229.021 79.5H237C238.105 79.5 239 80.3954 239 81.5V89C239 90.1046 239.895 91 241 91H248C249.105 91 250 90.1046 250 89V80.5429V65.8603Z" fill="#F0DCAB" fill-opacity="0.8"/>
<path d="M140 117.5C140 118.605 140.895 119.5 142 119.5H149C150.105 119.5 151 118.605 151 117.5V113C151 111.895 150.105 111 149 111H142C140.895 111 140 111.895 140 113V117.5Z" fill="#DCC792"/>
<path d="M239 159C239 160.105 239.895 161 241 161H246C247.105 161 248 160.105 248 159V134C248 132.895 247.105 132 246 132H241C239.895 132 239 132.895 239 134V159Z" fill="#F0DCAB"/>
<path d="M177.414 129.794C177.414 129.011 178.274 128.532 178.94 128.944L189.347 135.379C190.277 135.954 190.573 137.168 190.013 138.106L185 146.5L181.1 151.7C180.722 152.204 180.129 152.5 179.5 152.5L167.5 152.5C166.947 152.5 166.5 152.053 166.5 151.5L166.498 145.372C166.498 144.873 166.867 144.449 167.362 144.381L175.686 143.237C176.676 143.101 177.414 142.255 177.414 141.256L177.414 129.794Z" fill="#DCC792"/>
<path d="M174.5 69.6714C174.826 69.8858 175.208 70 175.598 70H189C190.105 70 191 70.8954 191 72V88.5C191 89.6046 190.105 90.5 189 90.5H178.041C177.389 90.5 176.777 90.1816 176.403 89.6469L166.5 75.5L161.146 65.3862C160.178 63.558 162.283 61.643 164.012 62.779L174.5 69.6714Z" fill="#DCC792"/>
<path d="M232 129.829C232.326 129.614 232.708 129.5 233.098 129.5L246.5 129.5C247.605 129.5 248.5 128.605 248.5 127.5L248.5 111C248.5 109.895 247.605 109 246.5 109L235.541 109C234.889 109 234.277 109.318 233.903 109.853L224 124L218.646 134.114C217.678 135.942 219.783 137.857 221.512 136.721L232 129.829Z" fill="#DCC792"/>
<path fill-rule="evenodd" clip-rule="evenodd" d="M148.742 54.0332C152.276 73.8917 176.25 108.381 204.001 119.864C233.001 131.864 246.785 171.436 246.785 189.436H232.502C232.502 172.936 222.731 144.413 200.572 135.864C181.699 128.583 144.574 107.947 137.93 60.6884C140.167 56.9412 144.142 54.3518 148.742 54.0332Z" fill="#BBDADE"/>
<path d="M195.002 55H204.002L204 88.9997C204 92.3135 206.686 95 210 95H252.392V104H236.153C234.179 104 232.331 104.971 231.212 106.597L197.58 155.433C197.123 156.096 197.598 157 198.404 157H252.396V166H197.501C195.292 166 193.501 167.791 193.501 170V189H183.002L183.004 170C183.004 167.791 181.213 166 179.004 166H136.004V157H182.49C182.813 157 183.115 156.845 183.303 156.583L217.596 108.748C219.019 106.763 217.6 104 215.158 104H136L136 95H189C192.314 95 195 92.3139 195 89.0003L195.002 55Z" fill="white"/>
<path d="M233.293 89.2929C233.923 89.9229 233.477 91 232.586 91H213C210.791 91 209 89.2091 209 87V67.4142C209 66.5233 210.077 66.0771 210.707 66.7071L233.293 89.2929Z" fill="#DCC792"/>
<path d="M195.809 109.837C194.978 109.293 195.363 108 196.357 108H211.284C212.145 108 212.604 109.016 212.034 109.662L206.573 115.851C206.244 116.224 205.691 116.298 205.276 116.026L195.809 109.837Z" fill="#F0DCAB"/>
<path d="M202.478 153.963C202.054 154.629 202.533 155.5 203.322 155.5H217.086C217.977 155.5 218.423 154.423 217.793 153.793L209.381 145.381C208.929 144.929 208.174 145.012 207.831 145.552L202.478 153.963Z" fill="#F0DCAB"/>
<path d="M174.82 54H213.64L212.108 57.0636C210.947 59.3845 208.575 60.8505 205.981 60.8505H182.479C179.885 60.8505 177.513 59.3845 176.352 57.0636L174.82 54Z" fill="#25262B"/>
<path d="M71.5 124.5C82.1509 121.1 90.4969 118.5 90.4969 118.5L105.775 122.442C130.358 128.785 145.049 153.961 138.478 178.484L135.206 190.695L57.2399 169.804L34.9969 160.5C34.9969 160.5 48.003 132 71.5 124.5Z" fill="#1A4E66"/>
<path d="M72 154C73.5 149.5 76.4763 143.563 80.5382 140.469" stroke="#133B4E" stroke-width="2.28349" stroke-linecap="round"/>
<path d="M125.531 164.682C125.531 160.682 125.531 158.682 122.031 155.182" stroke="#133B4E" stroke-width="2.28349" stroke-linecap="round"/>
<path fill-rule="evenodd" clip-rule="evenodd" d="M108.352 78.4406C110.989 68.5968 121.107 62.755 130.951 65.3927C141 68.0853 146.838 78.5488 143.851 88.5144L138.252 107.193C135.775 115.459 127.852 120.864 119.252 120.154L119.092 120.141L118.264 126.656C117.409 133.381 110.91 137.88 104.315 136.312C95.2448 134.156 89.259 125.509 90.4346 116.261L90.716 114.048L93.1462 94.9293C91.803 93.8382 90.7791 92.3287 90.297 90.5293C89.0801 85.9881 91.7751 81.3202 96.3164 80.1034C100.596 78.9567 104.988 81.2841 106.498 85.3568L108.352 78.4406Z" fill="#FF9BA5"/>
<path d="M95.3501 83.7598C97.2698 82.5774 101.022 81.8223 102.906 87.0336" stroke="#D4737C" stroke-width="1.71262" stroke-linecap="round"/>
<ellipse cx="134.708" cy="92.1302" rx="2.39769" ry="3.67646" transform="rotate(9.7725 134.708 92.1302)" fill="white"/>
<ellipse cx="119.821" cy="90.4153" rx="2.39769" ry="3.67646" transform="rotate(9.7725 119.821 90.4153)" fill="white"/>
<ellipse cx="2.04652" cy="2.40055" rx="2.04652" ry="2.40055" transform="matrix(0.987497 0.157637 -0.182706 0.983168 134.75 88.0522)" fill="#25262B"/>
<ellipse cx="2.04652" cy="2.40055" rx="2.04652" ry="2.40055" transform="matrix(0.987497 0.157637 -0.182706 0.983168 119.84 86.5024)" fill="#25262B"/>
<path d="M125.953 95.8882C129.349 96.691 134.577 98.9217 128.317 101.421" stroke="#D4737C" stroke-width="1.71262" stroke-linecap="round"/>
<path d="M92.4688 100.586L93.1645 94.9195V94.9195C94.8388 95.6944 96.706 95.9534 98.528 95.6634L98.8307 95.6152L92.4688 100.586Z" fill="#D5737C"/>
<path fill-rule="evenodd" clip-rule="evenodd" d="M118.095 127.648C117.834 128.851 117.389 129.971 116.796 130.984L103.637 115.393L109.789 118.284C111.915 119.283 114.215 119.863 116.561 119.991L119.097 120.129L119.095 120.141L119.093 120.141L119.042 120.539L118.095 127.648Z" fill="#D5737C"/>
<path d="M100.544 61.3456C102.42 54.0268 109.91 49.6477 117.208 51.6032L137.468 57.0319C145.648 59.2235 151.044 67.0079 150.225 75.4362V75.4362C150.057 77.1739 149.561 78.864 148.765 80.4176L145.811 86.1804C145.042 87.6815 143.289 88.3927 141.692 87.8522V87.8522C140.695 87.5149 139.91 86.7355 139.566 85.7409L137.879 80.866C136.786 77.7064 134.806 74.9284 132.176 72.864L129.508 70.77V70.77C128.436 76.6598 124.228 81.4914 118.542 83.3624L112.719 85.2781C111.39 85.7155 110.252 86.5996 109.501 87.7801L108.414 89.4867C107.957 90.2038 106.849 89.9101 106.808 89.061L106.752 87.9253C106.354 79.7859 95.7319 76.9708 91.355 83.8447V83.8447L89.0775 75.0174C87.1982 67.7334 93.0441 60.7632 100.544 61.3456V61.3456V61.3456Z" fill="#25262B"/>
<path d="M130.375 107.15C125.721 108.681 122.393 108.625 118.132 105.812" stroke="#D4737C" stroke-width="2.28349" stroke-linecap="round"/>
<path d="M132.891 82.5564C137.064 84.9658 140.293 84.8527 141.386 84.495" stroke="#25262B" stroke-width="3.42524" stroke-linecap="round"/>
<path d="M116.805 81.2017C121.459 82.4489 124.549 81.5038 125.512 80.8754" stroke="#25262B" stroke-width="3.42524" stroke-linecap="round"/>
<mask id="path-34-outside-2_26862_176243" maskUnits="userSpaceOnUse" x="165" y="12" width="59" height="74" fill="black">
<rect fill="white" x="165" y="12" width="59" height="74"/>
<path fill-rule="evenodd" clip-rule="evenodd" d="M194.508 52.6026C188.622 52.6026 183.851 47.7677 183.851 41.8049C183.851 35.8409 188.622 31.0059 194.508 31.0059C200.393 31.0059 205.163 35.8409 205.163 41.8049C205.163 47.7677 200.393 52.6026 194.508 52.6026ZM194.5 19.0091C182.419 18.6621 172.351 28.3039 172.009 40.5447C171.999 40.8929 171.998 41.2412 172.004 41.5894C172.004 60.498 192.842 77.9916 193.719 78.7113C194.162 79.0962 194.815 79.0962 195.258 78.7113C196.183 77.8719 216.996 58.6273 216.996 41.5894C217.224 29.3462 207.614 19.2339 195.53 19.0042C195.187 18.9981 194.843 18.9993 194.5 19.0091Z"/>
</mask>
<path fill-rule="evenodd" clip-rule="evenodd" d="M194.508 52.6026C188.622 52.6026 183.851 47.7677 183.851 41.8049C183.851 35.8409 188.622 31.0059 194.508 31.0059C200.393 31.0059 205.163 35.8409 205.163 41.8049C205.163 47.7677 200.393 52.6026 194.508 52.6026ZM194.5 19.0091C182.419 18.6621 172.351 28.3039 172.009 40.5447C171.999 40.8929 171.998 41.2412 172.004 41.5894C172.004 60.498 192.842 77.9916 193.719 78.7113C194.162 79.0962 194.815 79.0962 195.258 78.7113C196.183 77.8719 216.996 58.6273 216.996 41.5894C217.224 29.3462 207.614 19.2339 195.53 19.0042C195.187 18.9981 194.843 18.9993 194.5 19.0091Z" fill="url(#paint0_linear_26862_176243)"/>
<path d="M194.5 19.0091L194.321 25.2565L194.5 25.2616L194.679 25.2565L194.5 19.0091ZM172.009 40.5447L165.761 40.3699L165.761 40.3716L172.009 40.5447ZM172.004 41.5894H178.254V41.5353L178.253 41.4812L172.004 41.5894ZM193.719 78.7113L197.821 73.9955L197.754 73.9371L197.685 73.8807L193.719 78.7113ZM195.258 78.7113L199.359 83.4272L199.409 83.3838L199.458 83.3393L195.258 78.7113ZM216.996 41.5894L210.747 41.4731L210.746 41.5312V41.5894H216.996ZM195.53 19.0042L195.649 12.7553L195.641 12.7552L195.53 19.0042ZM194.508 46.3526C192.151 46.3526 190.101 44.3937 190.101 41.8049H177.601C177.601 51.1416 185.093 58.8526 194.508 58.8526V46.3526ZM190.101 41.8049C190.101 39.2144 192.152 37.2559 194.508 37.2559V24.7559C185.092 24.7559 177.601 32.4674 177.601 41.8049H190.101ZM194.508 37.2559C196.863 37.2559 198.913 39.2135 198.913 41.8049H211.413C211.413 32.4683 203.924 24.7559 194.508 24.7559V37.2559ZM198.913 41.8049C198.913 44.3946 196.863 46.3526 194.508 46.3526V58.8526C203.923 58.8526 211.413 51.1407 211.413 41.8049H198.913ZM194.68 12.7617C179.069 12.3132 166.198 24.7555 165.761 40.3699L178.256 40.7195C178.504 31.8523 185.77 25.0109 194.321 25.2565L194.68 12.7617ZM165.761 40.3716C165.748 40.8207 165.747 41.2629 165.755 41.6976L178.253 41.4812C178.248 41.2194 178.249 40.9652 178.256 40.7178L165.761 40.3716ZM165.754 41.5894C165.754 53.1697 172.028 63.6582 177.603 70.8126C183.31 78.1378 189.119 83.021 189.753 83.5419L197.685 73.8807C197.443 73.682 192.394 69.4585 187.463 63.1298C182.399 56.6304 178.254 48.9177 178.254 41.5894H165.754ZM189.617 83.4272C192.412 85.8576 196.565 85.8576 199.359 83.4272L191.156 73.9955C193.065 72.3348 195.911 72.3348 197.821 73.9955L189.617 83.4272ZM199.458 83.3393C200.072 82.7826 205.817 77.4676 211.462 69.9905C216.9 62.7865 223.246 52.2924 223.246 41.5894H210.746C210.746 47.9244 206.685 55.5715 201.485 62.4591C196.492 69.0736 191.369 73.8006 191.057 74.0834L199.458 83.3393ZM223.245 41.7057C223.536 26.0904 211.26 13.0521 195.649 12.7553L195.411 25.2531C203.967 25.4157 210.912 32.602 210.747 41.4731L223.245 41.7057ZM195.641 12.7552C195.209 12.7475 194.769 12.7489 194.322 12.7616L194.679 25.2565C194.917 25.2497 195.164 25.2487 195.419 25.2532L195.641 12.7552Z" fill="#E5F7FF" mask="url(#path-34-outside-2_26862_176243)"/>
<path fill-rule="evenodd" clip-rule="evenodd" d="M194.509 52.6026C188.623 52.6026 183.852 47.7676 183.852 41.8048C183.852 35.8408 188.623 31.0059 194.509 31.0059C200.394 31.0059 205.164 35.8408 205.164 41.8048C205.164 47.7676 200.394 52.6026 194.509 52.6026" fill="#E5F7FF"/>
<path opacity="0.8" d="M226.5 22.5C230.245 25.8481 231.402 29.0503 231.089 34.277" stroke="#DE350B" stroke-width="4" stroke-linecap="round"/>
<path opacity="0.8" d="M237 15.8093C240.745 19.1574 244.314 27.4603 244 32.687" stroke="#DE350B" stroke-width="4" stroke-linecap="round"/>
<path opacity="0.8" d="M163.207 22.5C159.462 25.8481 158.305 29.0503 158.618 34.277" stroke="#DE350B" stroke-width="4" stroke-linecap="round"/>
<path opacity="0.8" d="M152.707 15.8093C148.962 19.1574 145.393 27.4603 145.707 32.687" stroke="#DE350B" stroke-width="4" stroke-linecap="round"/>
<ellipse opacity="0.2" cx="195" cy="95" rx="12" ry="4" fill="url(#paint1_linear_26862_176243)"/>
<ellipse opacity="0.4" cx="195" cy="94" rx="7" ry="2" fill="#DE350B"/>
</g>
</svg>
