<svg width="224" height="135" viewBox="0 0 224 135" fill="none" xmlns="http://www.w3.org/2000/svg">
<path fill-rule="evenodd" clip-rule="evenodd" d="M105.924 110.215C145.857 112.883 166.344 147.792 197.637 128.927C228.92 110.067 229.892 66.9918 207.522 47.4041C185.152 27.8165 146.936 59.6492 118.973 53.4207C91.0106 47.1922 78.9065 32.375 56.9065 28.9941C34.9065 25.6133 17.0927 31.0753 8.52086 47.404C-2.98903 69.3296 -3.42092 103.119 21.1041 115.336C48.012 128.74 74.6694 108.127 105.924 110.215Z" fill="#EFEFEF"/>
<path opacity="0.8" d="M105.617 33.7707C135.346 47.2178 155.432 35.6379 160.686 31.9501C161.048 31.696 160.801 31.2122 160.371 31.3141L153.12 33.0323C135.412 37.2284 116.759 34.0351 101.455 24.1876C90.6512 17.2355 78.075 13.5389 65.2274 13.5389L54.4771 13.5389C54.2841 13.5389 54.2406 13.8697 54.4304 13.9048C61.3319 15.1797 83.6889 20.1176 105.617 33.7707Z" fill="#EFEFEF" stroke="#EFEFEF" stroke-width="10" stroke-linecap="round" stroke-linejoin="round"/>
<ellipse opacity="0.8" cx="180.406" cy="30.8164" rx="8.5" ry="4.5" fill="#EFEFEF"/>
<path opacity="0.4" d="M143.953 70.0365C139.251 77.6177 145.297 89.616 158.466 92.1321C164.565 93.2973 175.545 90.2783 179.978 86.3497C183.068 83.6115 180.795 75.4299 174.601 77.7401C172.163 78.6491 169.651 78.4989 168.452 82.7093C167.811 84.96 169.532 89.1057 170.597 91.2308C173.413 96.8524 176.587 101.5 184.406 101.5C197.406 101.5 196.406 92.1321 205.906 92.1321" stroke="#666666" stroke-width="2" stroke-linecap="round" stroke-dasharray="6 6"/>
<ellipse cx="212.942" cy="85.8046" rx="7.49612" ry="4.49767" transform="rotate(9.17724 212.942 85.8046)" fill="#666666"/>
<ellipse opacity="0.6" cx="210.654" cy="79.5134" rx="3.58793" ry="5.9969" transform="rotate(-7.57772 210.654 79.5134)" fill="white"/>
<ellipse opacity="0.8" cx="3.6226" cy="5.9969" rx="3.6226" ry="5.9969" transform="matrix(-0.793103 -0.609088 -0.609088 0.793103 222.521 78.2041)" fill="white"/>
<path fill-rule="evenodd" clip-rule="evenodd" d="M62 16C57.5817 16 54 19.5817 54 24V102C54 106.418 57.5817 110 62 110H119.678C113.175 104.873 109 96.9239 109 88C109 72.536 121.536 60 137 60C141.294 60 145.363 60.9668 149 62.6945V24C149 19.5817 145.418 16 141 16H62Z" fill="#515155"/>
<path d="M65 24C65 19.5817 68.5817 16 73 16H141C145.418 16 149 19.5817 149 24V40H65V24Z" fill="#25262B"/>
<path fill-rule="evenodd" clip-rule="evenodd" d="M62 16C57.5817 16 54 19.5817 54 24V102C54 106.418 57.5817 110 62 110H119.893C113.467 104.873 109.341 96.9238 109.341 87.9999C109.341 72.536 121.73 59.9999 137.012 59.9999C137.343 59.9999 137.672 60.0058 138 60.0175L138 102V24C138 19.5817 134.418 16 130 16H62Z" fill="#BDBDBD"/>
<path d="M54 24C54 19.5817 57.5817 16 62 16H130C134.418 16 138 19.5817 138 24V40H54V24Z" fill="#666666"/>
<rect x="63.9065" y="52" width="16" height="16" rx="2" fill="white"/>
<rect x="63.9065" y="78" width="16" height="16" rx="2" fill="white"/>
<rect x="87.9065" y="52" width="16" height="16" rx="2" fill="white"/>
<rect x="87.9065" y="78" width="16" height="16" rx="2" fill="white"/>
<circle cx="76" cy="27" r="5" fill="white"/>
<circle cx="114" cy="27" r="5" fill="white"/>
<path d="M80.9065 14V16H84.9065V14H80.9065ZM78.9065 29C80.0111 29 80.9065 28.1046 80.9065 27C80.9065 25.8954 80.0111 25 78.9065 25V29ZM79.4065 6C78.3019 6 77.4065 6.89543 77.4065 8C77.4065 9.10457 78.3019 10 79.4065 10V6ZM84.9065 14V11.5H80.9065V14H84.9065ZM73.9065 11.5V24H77.9065V11.5H73.9065ZM73.9065 24C73.9065 26.7614 76.1451 29 78.9065 29V25C78.3542 25 77.9065 24.5523 77.9065 24H73.9065ZM79.4065 6C76.3689 6 73.9065 8.46243 73.9065 11.5H77.9065C77.9065 10.6716 78.5781 10 79.4065 10V6ZM84.9065 11.5C84.9065 8.46243 82.4441 6 79.4065 6V10C80.2349 10 80.9065 10.6716 80.9065 11.5H84.9065Z" fill="#BDBDBD"/>
<path d="M118.906 14V16H122.906V14H118.906ZM116.906 29C118.011 29 118.906 28.1046 118.906 27C118.906 25.8954 118.011 25 116.906 25V29ZM117.406 6C116.302 6 115.406 6.89543 115.406 8C115.406 9.10457 116.302 10 117.406 10V6ZM122.906 14V11.5H118.906V14H122.906ZM111.906 11.5V24H115.906V11.5H111.906ZM111.906 24C111.906 26.7614 114.145 29 116.906 29V25C116.354 25 115.906 24.5523 115.906 24H111.906ZM117.406 6C114.369 6 111.906 8.46243 111.906 11.5H115.906C115.906 10.6716 116.578 10 117.406 10V6ZM122.906 11.5C122.906 8.46243 120.444 6 117.406 6V10C118.235 10 118.906 10.6716 118.906 11.5H122.906Z" fill="#BDBDBD"/>
<path d="M136.907 110.5C149.333 110.5 159.407 100.427 159.407 88.0001C159.407 75.5737 149.333 65.5001 136.907 65.5001C124.48 65.5001 114.407 75.5737 114.407 88.0001C114.407 100.427 124.48 110.5 136.907 110.5Z" fill="#666666"/>
<path d="M136.906 76.75V88L144.406 91.75" stroke="white" stroke-width="4" stroke-linecap="round" stroke-linejoin="round"/>
<path fill-rule="evenodd" clip-rule="evenodd" d="M113.906 52C112.802 52 111.906 52.8954 111.906 54V66C111.906 67.1046 112.802 68 113.906 68H117.404C120.347 65.116 123.924 62.8765 127.906 61.5097V54C127.906 52.8954 127.011 52 125.906 52H113.906Z" fill="white"/>
<path opacity="0.4" d="M72.0022 53.8198C70.7084 56.9737 67.9022 58.9897 65.4676 60.6172C61.3243 63.387 57.1398 63.2689 51.4655 61.9414C47.4734 61.0075 44.4737 61.612 33.1202 52.6281" stroke="#666666" stroke-width="2" stroke-linecap="round" stroke-dasharray="6 6"/>
<ellipse cx="27.223" cy="45.3211" rx="7.31563" ry="4.38938" fill="#666666"/>
<ellipse opacity="0.6" cx="24.04" cy="39.6134" rx="3.50155" ry="5.85251" transform="rotate(-16.755 24.04 39.6134)" fill="white"/>
<ellipse opacity="0.8" cx="3.53537" cy="5.85251" rx="3.53537" ry="5.85251" transform="matrix(-0.880094 -0.4748 -0.4748 0.880094 35.2688 36.5068)" fill="white"/>
</svg>
