<svg width="120" height="120" viewBox="0 0 120 120" fill="none" xmlns="http://www.w3.org/2000/svg">
<defs>
<linearGradient id="paint0_linear_36992_211775" x1="90.0257" y1="21.17" x2="56.6761" y2="71.2621" gradientUnits="userSpaceOnUse">
<stop stop-color="white" stop-opacity="0.63"/>
<stop offset="1" stop-color="white" stop-opacity="0"/>
</linearGradient>
<linearGradient id="paint1_linear_36992_211775" x1="81.1577" y1="15.2579" x2="47.8081" y2="65.35" gradientUnits="userSpaceOnUse">
<stop offset="0.197917" stop-color="white" stop-opacity="0.63"/>
<stop offset="1" stop-color="white" stop-opacity="0"/>
</linearGradient>
</defs>
<mask id="mask0_36992_211775" style="mask-type:alpha" maskUnits="userSpaceOnUse" x="0" y="0" width="120" height="120">
<circle cx="60" cy="60" r="60" fill="#00A2B9"/>
</mask>
<g mask="url(#mask0_36992_211775)">
<path opacity="0.1" d="M-134.158 79.0382L-137.648 67.7068V137.647H176.47V-15.8828L172.979 -8.85403C169.489 -1.82525 162.509 12.2323 155.529 14.1788C148.548 16.1253 141.568 5.96074 134.587 15.3122C127.607 24.6638 120.627 53.5313 113.646 62.5374C106.666 71.5434 99.6854 60.6879 92.705 60.799C85.7246 60.91 78.7442 71.9878 71.7638 72.8951C64.7834 73.8025 57.803 64.5395 50.8226 66.6727C43.8422 68.8059 36.8618 82.3352 29.8815 82.6419C22.9011 82.9486 15.9207 70.0327 8.94028 65.9689C1.95988 61.9051 -5.02051 66.6934 -12.0009 77.6771C-18.9813 88.6608 -25.9617 105.84 -32.9421 109.089C-39.9225 112.338 -46.9029 101.658 -53.8832 92.0704C-60.8636 82.4827 -67.844 73.9877 -74.8244 71.9373C-81.8048 69.887 -88.7852 74.2813 -95.7656 85.9817C-102.746 97.6822 -109.726 116.689 -116.707 114.861C-123.687 113.033 -130.668 90.3697 -134.158 79.0382Z" fill="#229BD8"/>
<path d="M65.2132 93.8657L62.1789 95.0486C61.0847 95.4588 59.8789 95.4588 58.7846 95.0486L55.7503 93.8657C48.0647 90.8526 41.4633 85.5972 36.804 78.7826C32.1448 71.968 29.6433 63.9094 29.6246 55.6543V41.3571C35.4489 42.1872 41.3892 41.431 46.8198 39.1683C52.2503 36.9056 56.9701 33.22 60.4818 28.5C66.9104 37.86 77.5561 42.2829 91.3389 41.3571V55.6543C91.3203 63.9094 88.8187 71.968 84.1595 78.7826C79.5003 85.5972 72.8988 90.8526 65.2132 93.8657Z" fill="#00A2B9" stroke="#00A2B9" stroke-opacity="0.2" stroke-width="9" stroke-linecap="round" stroke-linejoin="round"/>
<path opacity="0.2" d="M75.3962 37.1367H82.888L36.1866 110.051H28.6948L75.3962 37.1367Z" fill="url(#paint0_linear_36992_211775)"/>
<path opacity="0.2" d="M66.5282 31.2246H74.0201L27.3186 104.139H19.8268L66.5282 31.2246Z" fill="url(#paint1_linear_36992_211775)"/>
<path opacity="0.1" fill-rule="evenodd" clip-rule="evenodd" d="M60.2648 95.352C75.0728 85.6785 84.8583 68.9565 84.8583 49.9489C84.8583 47.0184 84.6257 44.1423 84.1779 41.3379C86.4581 41.5177 88.8471 41.5251 91.3386 41.3578V55.6549C91.32 63.91 88.8184 71.9686 84.1592 78.7832C79.5 85.5978 72.8985 90.8532 65.2129 93.8664L62.1786 95.0492C61.5627 95.2801 60.9115 95.3811 60.2648 95.352Z" fill="#25262B"/>
<path d="M68.9993 62.252C68.9993 61.0111 67.9902 60.002 66.7493 60.002H65.6243V56.627C65.6243 53.5253 63.101 51.002 59.9993 51.002C56.8977 51.002 54.3743 53.5253 54.3743 56.627V60.002H53.2493C52.0085 60.002 50.9993 61.0111 50.9993 62.252V71.252C50.9993 72.4928 52.0085 73.502 53.2493 73.502H66.7493C67.9902 73.502 68.9993 72.4928 68.9993 71.252V62.252ZM56.6243 56.627C56.6243 54.7662 58.1386 53.252 59.9993 53.252C61.8601 53.252 63.3743 54.7662 63.3743 56.627V60.002H56.6243V56.627Z" fill="white"/>
<circle opacity="0.1" cx="60" cy="60" r="60" fill="#00A2B9"/>
</g>
<path d="M115.314 27.3137C118.314 24.3131 120 20.2435 120 16C120 11.7565 118.314 7.68687 115.314 4.68629C112.313 1.68571 108.243 0 104 0C99.7565 0 95.6869 1.68571 92.6863 4.68629C89.6857 7.68687 88 11.7565 88 16C88 20.2435 89.6857 24.3131 92.6863 27.3137C95.6869 30.3143 99.7565 32 104 32C108.243 32 112.313 30.3143 115.314 27.3137Z" fill="#5AA200"/>
<path d="M111.792 9.02052C112.008 9.11014 112.205 9.2415 112.37 9.40705C112.535 9.57219 112.667 9.76837 112.756 9.98436C112.846 10.2003 112.892 10.4319 112.892 10.6657C112.892 10.8996 112.846 11.1311 112.756 11.3471C112.667 11.5631 112.535 11.7592 112.37 11.9244L101.703 22.5911C101.538 22.7566 101.342 22.888 101.126 22.9776C100.91 23.0672 100.678 23.1133 100.444 23.1133C100.211 23.1133 99.9791 23.0672 99.7631 22.9776C99.5471 22.888 99.3509 22.7566 99.1858 22.5911L95.6302 19.0355C95.2964 18.7017 95.1089 18.2489 95.1089 17.7768C95.1089 17.3047 95.2964 16.852 95.6302 16.5182C95.9641 16.1843 96.4168 15.9968 96.8889 15.9968C97.361 15.9968 97.8138 16.1843 98.1476 16.5182L100.444 18.8186L109.852 9.40705C110.018 9.2415 110.214 9.11014 110.43 9.02052C110.646 8.9309 110.877 8.88477 111.111 8.88477C111.345 8.88477 111.577 8.9309 111.792 9.02052Z" fill="white"/>
</svg>
