<svg width="388" height="160" viewBox="0 0 388 160" fill="none" xmlns="http://www.w3.org/2000/svg">
<path d="M0 16C0 7.16345 7.16344 0 16 0H372C380.837 0 388 7.16344 388 16V144C388 152.837 380.837 160 372 160H16C7.16344 160 0 152.837 0 144V16Z" fill="url(#paint0_linear_47173_39707)"/>
<ellipse cx="87.0156" cy="153.314" rx="49.5234" ry="6.6853" fill="#E6F6F8"/>
<ellipse cx="294.391" cy="153.314" rx="49.5234" ry="6.6853" fill="#E6F6F8"/>
<path d="M245.544 153.315H297.196C302.503 153.315 307.242 149.989 309.046 144.998L342.831 51.5176C343.539 49.5591 343.546 47.4158 342.85 45.453L340.136 37.7923L333.702 33.3262H291.263L235.023 146.324L239.03 150.526C240.729 152.307 243.082 153.315 245.544 153.315Z" fill="#1A5A71"/>
<path d="M332.278 35.0011C337.248 35.0011 339.9 38.7876 338.199 43.4584L303.724 138.179C302.024 142.85 296.616 146.636 291.646 146.636H241.246C236.276 146.636 233.624 142.85 235.325 138.179L269.8 43.4584C271.5 38.7876 276.908 35.0011 281.878 35.0011H332.278Z" fill="url(#paint1_linear_47173_39707)" stroke="#00A2B9" stroke-width="3.6"/>
<path opacity="0.2" d="M302.392 36.6914L316.099 36.6914L265.941 95.6543H252.234L302.392 36.6914Z" fill="url(#paint2_linear_47173_39707)"/>
<path opacity="0.2" d="M325.65 36.6914L339.356 36.6914L289.199 95.6543H275.492L325.65 36.6914Z" fill="url(#paint3_linear_47173_39707)"/>
<path d="M135.878 153.315H84.226C78.9186 153.315 74.1802 149.989 72.3762 144.998L38.5908 51.5176C37.8829 49.5591 37.8762 47.4158 38.5716 45.453L41.2856 37.7923L47.7196 33.3262H90.1591L146.398 146.324L142.392 150.526C140.693 152.307 138.34 153.315 135.878 153.315Z" fill="#1A5A71"/>
<path d="M49.1442 35.0011C44.1736 35.0011 41.5223 38.7876 43.2224 43.4584L77.6979 138.179C79.398 142.85 84.8056 146.636 89.7761 146.636H140.176C145.146 146.636 147.797 142.85 146.097 138.179L111.622 43.4584C109.922 38.7876 104.514 35.0011 99.5436 35.0011H49.1442Z" fill="url(#paint4_linear_47173_39707)" stroke="#00A2B9" stroke-width="3.6"/>
<path opacity="0.2" d="M85.0319 36.6914L70.6642 36.6914L123.242 101.8H137.609L85.0319 36.6914Z" fill="url(#paint5_linear_47173_39707)"/>
<path opacity="0.2" d="M60.6491 36.6914L46.2813 36.6914L98.8588 101.8H113.227L60.6491 36.6914Z" fill="url(#paint6_linear_47173_39707)"/>
<path d="M151.473 68.7246C149.193 67.1925 147.783 64.6448 147.784 61.8983L147.788 50.1994C147.789 47.5856 149.173 45.1674 151.426 43.8422L161.873 37.6972C162.229 37.4876 162.296 37.0003 162.01 36.7019C160.482 35.1087 158.37 34.2078 156.163 34.2078L150.502 34.2078C147.918 34.2078 145.459 35.3169 143.748 37.2534L135.192 46.9395C134.913 47.2551 134.547 47.4799 134.139 47.5849C130.183 48.6035 108.307 54.2284 93.0616 57.9825C77.1608 61.8981 54.7193 70.0885 54.7193 70.0885L62.8182 92.3535C62.8182 92.3535 82.0217 81.775 97.2812 77.8388C112.445 73.9273 133.645 68.8319 135.413 68.4075C135.5 68.3867 135.576 68.3918 135.662 68.4159C136.509 68.6529 137.216 69.2337 137.708 69.9617C139.412 72.4813 144.234 78.2333 153.085 78.8958C156.412 79.1448 161.576 78.3562 159.939 75.4488C159.154 74.0547 154.755 70.9306 151.473 68.7246Z" fill="#FF9BA5"/>
<path d="M156.89 38.4639C149.902 39.1199 143.999 43.924 141.938 50.6328C141.32 52.6446 141.074 54.7524 141.211 56.8525L141.235 57.2236C141.736 64.8896 146.721 71.5349 153.94 74.1602L157.73 75.5381C158.525 75.8268 159.355 75.9991 160.196 76.0547C160.146 75.8639 160.062 75.6623 159.942 75.4492C159.157 74.0552 154.759 70.9306 151.477 68.7246C149.197 67.1925 147.786 64.645 147.787 61.8984L147.792 50.2002C147.793 47.5864 149.177 45.168 151.43 43.8428L161.273 38.0518L156.89 38.4639Z" fill="#D4737C"/>
<circle cx="164.5" cy="56.6914" r="20" fill="url(#paint7_linear_47173_39707)"/>
<path opacity="0.2" d="M182.605 48.1309C183.836 50.7259 184.526 53.6274 184.526 56.6904C184.526 67.736 175.572 76.6903 164.526 76.6904C159.431 76.6904 154.782 74.7844 151.25 71.6475L182.605 48.1309Z" fill="#25262B"/>
<circle cx="164.49" cy="56.6927" r="13.3333" fill="white"/>
<g filter="url(#filter0_ii_47173_39707)">
<path d="M164.5 71.6901C172.691 71.6901 179.5 64.8958 179.5 56.6898C179.5 48.4981 172.676 41.6895 164.485 41.6895C156.279 41.6895 149.5 48.4981 149.5 56.6898C149.5 64.8958 156.294 71.6901 164.5 71.6901Z" fill="url(#paint8_linear_47173_39707)"/>
</g>
<path d="M163.726 47.4626C163.975 46.6949 165.061 46.6949 165.311 47.4626L166.95 52.5091C167.062 52.8524 167.382 53.0849 167.743 53.0849H173.049C173.856 53.0849 174.192 54.1179 173.539 54.5924L169.246 57.7113C168.954 57.9235 168.832 58.2996 168.943 58.643L170.583 63.6894C170.833 64.4572 169.954 65.0956 169.301 64.6211L165.008 61.5023C164.716 61.29 164.32 61.29 164.028 61.5022L159.736 64.6211C159.083 65.0956 158.204 64.4572 158.453 63.6894L160.093 58.643C160.205 58.2996 160.082 57.9235 159.79 57.7113L155.497 54.5924C154.844 54.1179 155.18 53.0849 155.987 53.0849H161.293C161.654 53.0849 161.974 52.8524 162.086 52.5091L163.726 47.4626Z" fill="white"/>
<path d="M198.493 53.7828C200.106 50.5528 204.262 49.5914 207.13 51.7844L235.672 73.6119L236.06 73.9082L235.946 74.3824L230.256 98.1634L230.076 98.9126L229.333 98.7136L189.136 87.9761C185.619 87.0367 183.85 83.1082 185.476 79.8521L187.353 76.0933L189.659 71.4731L189.861 71.07L190.311 71.0577L191.982 71.0151C195.463 70.9263 197.365 66.9196 195.235 64.166L194.352 63.0255L194.064 62.6526L194.275 62.2312L196.582 57.611L198.493 53.7828Z" fill="url(#paint9_linear_47173_39707)" stroke="#004953" stroke-width="1.5"/>
<path d="M195.836 69.1299L241.264 90.3763" stroke="url(#paint10_linear_47173_39707)" stroke-width="2" stroke-dasharray="4 4"/>
<path opacity="0.3" d="M238.067 75.2207L229.527 97.9893L220.125 95.4775C221.949 93.6069 224.119 90.9961 225.693 87.8789C228.584 82.1558 227.27 73.1904 225.345 65.9014L238.067 75.2207Z" fill="#25262B"/>
<path d="M227.8 94.4905C225.695 94.3659 216.232 93.9463 215.632 96.4291C214.466 101.253 226.363 101.975 229.621 101.254C232.636 100.586 238.544 98.7304 238.544 98.7304L239.437 98.4805C239.807 98.3766 240.189 98.3733 240.559 98.4778C243.515 99.311 257.77 103.378 271.531 108.144C284.28 112.559 307.78 122.024 307.78 122.024L315.922 99.8291C315.922 99.8291 292.644 91.0121 276.743 87.0965C265.731 84.3847 254.395 81.4007 247.881 79.6639C244.335 78.7182 241.309 76.4129 239.438 73.2546L235.292 66.2534C234.61 65.1023 233.613 64.1706 232.418 63.5687L231.018 62.8631C229.595 62.1464 227.97 61.9365 226.412 62.2679L222.967 63.0008C222.089 63.1876 221.882 64.3471 222.642 64.8253L226.673 67.3626C228.366 68.4284 229.523 70.1678 229.85 72.1415L231.223 80.4215L231.691 87.6283C231.84 89.9112 230.921 92.1339 229.203 93.6454L228.528 94.2395C228.327 94.4171 228.068 94.5064 227.8 94.4905Z" fill="#FF9BA5"/>
<path d="M116.427 52.067L127.019 49.3799L128.086 70.209L120.908 71.8137L116.427 52.067Z" fill="#D4737C"/>
<path d="M223.073 65.0957C227.92 66.3923 231.713 70.1883 232.994 75.0566L234.081 79.1875C234.349 80.2063 234.536 81.2447 234.641 82.293L235.211 88.0234C235.567 91.6033 232.715 94.6896 229.118 94.6162L221.516 94.4609C224.111 94.3066 226.795 94.4297 227.801 94.4893C228.069 94.5051 228.328 94.4159 228.529 94.2383L229.204 93.6445C230.921 92.133 231.841 89.9099 231.692 87.627L231.224 80.4209L229.851 72.1406C229.523 70.1669 228.367 68.4271 226.674 67.3613L223.073 65.0957Z" fill="#D4737C"/>
<path d="M279.125 87.707C294.865 91.8558 315.923 99.8301 315.923 99.8301L311.517 111.84L294.187 98.9287L279.125 87.707Z" fill="url(#paint11_linear_47173_39707)"/>
<path d="M128.964 71.7111C129.208 73.2545 128.23 74.725 126.717 75.1157C118.738 77.1761 106.606 80.7169 96.9423 83.2097C81.7087 87.1392 64.5889 97.4239 64.5241 97.4595L54.2266 68.7797C54.3209 68.7453 76.8138 60.6441 92.681 56.7368C101.373 54.5963 114.215 50.1802 122.978 47.7653C124.114 47.4522 125.255 48.2068 125.439 49.3708L128.964 71.7111Z" fill="#1A4E66"/>
<path d="M85.5234 58.6465C70.8252 62.8056 54.3258 68.7449 54.2285 68.7803L61.4023 88.4707V87.5459L85.5234 58.6465Z" fill="url(#paint12_linear_47173_39707)"/>
<path d="M245.699 21.1884L246.564 17.1698C246.677 16.6434 247.428 16.6434 247.542 17.1698L248.407 21.1922C248.448 21.384 248.598 21.5339 248.79 21.5756L252.305 22.3397C252.844 22.4569 252.824 23.2329 252.279 23.3217L248.815 23.8864C248.61 23.9198 248.448 24.0764 248.406 24.2798L247.543 28.5023C247.434 29.0355 246.672 29.0355 246.563 28.5023L245.7 24.2828C245.658 24.0779 245.493 23.9207 245.287 23.8888L241.619 23.3223C241.068 23.2372 241.048 22.4508 241.594 22.3384L245.311 21.5729C245.505 21.5329 245.657 21.3821 245.699 21.1884Z" fill="#FF991F"/>
<path d="M236.01 37.5362L236.52 35.1698C236.633 34.6434 237.384 34.6434 237.497 35.1698L238.007 37.54C238.048 37.7318 238.198 37.8817 238.39 37.9234L240.305 38.3397C240.844 38.4569 240.824 39.2329 240.279 39.3217L238.415 39.6256C238.21 39.659 238.048 39.8155 238.006 40.0189L237.498 42.5023C237.389 43.0355 236.627 43.0355 236.518 42.5023L236.011 40.0219C235.969 39.817 235.804 39.6599 235.598 39.6279L233.619 39.3223C233.068 39.2372 233.048 38.4508 233.594 38.3384L235.622 37.9207C235.816 37.8808 235.969 37.7299 236.01 37.5362Z" fill="#FF991F"/>
<path d="M268.25 22.8984C274.085 22.8984 279.681 25.216 283.807 29.3418C287.932 33.4676 290.25 39.0637 290.25 44.8984C290.25 50.7332 287.932 56.3293 283.807 60.4551C279.681 64.5809 274.085 66.8984 268.25 66.8984C262.415 66.8984 256.819 64.5809 252.693 60.4551C248.568 56.3293 246.25 50.7332 246.25 44.8984C246.25 39.0637 248.568 33.4676 252.693 29.3418C256.819 25.216 262.415 22.8984 268.25 22.8984Z" fill="#00A92F" stroke="#EAF8F9" stroke-width="4"/>
<mask id="path-31-inside-1_47173_39707" fill="white">
<path d="M277.995 36.1756C278.265 36.2876 278.51 36.4518 278.717 36.6587C278.924 36.8651 279.088 37.1104 279.2 37.3803C279.312 37.6503 279.37 37.9398 279.37 38.2321C279.37 38.5244 279.312 38.8138 279.2 39.0838C279.088 39.3537 278.924 39.599 278.717 39.8054L265.383 53.1387C265.177 53.3457 264.932 53.5099 264.662 53.6219C264.392 53.7339 264.102 53.7916 263.81 53.7916C263.518 53.7916 263.228 53.7339 262.958 53.6219C262.688 53.5099 262.443 53.3457 262.237 53.1387L257.792 48.6943C257.375 48.277 257.141 47.7111 257.141 47.1209C257.141 46.5308 257.375 45.9649 257.792 45.5476C258.21 45.1303 258.776 44.8959 259.366 44.8959C259.956 44.8959 260.522 45.1303 260.939 45.5476L263.81 48.4232L275.57 36.6587C275.777 36.4518 276.022 36.2876 276.292 36.1756C276.562 36.0635 276.851 36.0059 277.143 36.0059C277.436 36.0059 277.725 36.0635 277.995 36.1756Z"/>
</mask>
<path d="M277.995 36.1756C278.265 36.2876 278.51 36.4518 278.717 36.6587C278.924 36.8651 279.088 37.1104 279.2 37.3803C279.312 37.6503 279.37 37.9398 279.37 38.2321C279.37 38.5244 279.312 38.8138 279.2 39.0838C279.088 39.3537 278.924 39.599 278.717 39.8054L265.383 53.1387C265.177 53.3457 264.932 53.5099 264.662 53.6219C264.392 53.7339 264.102 53.7916 263.81 53.7916C263.518 53.7916 263.228 53.7339 262.958 53.6219C262.688 53.5099 262.443 53.3457 262.237 53.1387L257.792 48.6943C257.375 48.277 257.141 47.7111 257.141 47.1209C257.141 46.5308 257.375 45.9649 257.792 45.5476C258.21 45.1303 258.776 44.8959 259.366 44.8959C259.956 44.8959 260.522 45.1303 260.939 45.5476L263.81 48.4232L275.57 36.6587C275.777 36.4518 276.022 36.2876 276.292 36.1756C276.562 36.0635 276.851 36.0059 277.143 36.0059C277.436 36.0059 277.725 36.0635 277.995 36.1756Z" fill="white"/>
<path d="M278.717 36.6587L274.469 40.896L274.474 40.9014L274.479 40.9067L278.717 36.6587ZM277.995 36.1756L275.696 41.7174V41.7174L277.995 36.1756ZM276.292 36.1756L278.591 41.7174L278.591 41.7174L276.292 36.1756ZM275.57 36.6587L279.814 40.9006L279.818 40.896L275.57 36.6587ZM263.81 48.4232L259.564 52.6625L263.808 56.9125L268.054 52.665L263.81 48.4232ZM260.939 45.5476L265.185 41.3083L265.182 41.305L260.939 45.5476ZM257.792 45.5476L262.035 49.7903L262.035 49.7902L257.792 45.5476ZM257.792 48.6943L262.035 44.4516L262.035 44.4516L257.792 48.6943ZM262.237 53.1387L266.485 48.9015L266.479 48.8961L262.237 53.1387ZM262.958 53.6219L265.258 48.0801L265.258 48.0801L262.958 53.6219ZM264.662 53.6219L262.362 48.0801L262.362 48.0801L264.662 53.6219ZM265.383 53.1387L261.141 48.8961L261.135 48.9015L265.383 53.1387ZM278.717 39.8054L274.479 35.5574L274.474 35.5627L278.717 39.8054ZM278.717 36.6587L282.965 32.4215C282.201 31.6557 281.294 31.0482 280.295 30.6337L277.995 36.1756L275.696 41.7174C275.237 41.5269 274.82 41.2478 274.469 40.896L278.717 36.6587ZM277.995 36.1756L280.295 30.6337C279.296 30.2192 278.225 30.0059 277.143 30.0059V36.0059V42.0059C276.647 42.0059 276.154 41.9078 275.696 41.7174L277.995 36.1756ZM277.143 36.0059V30.0059C276.062 30.0059 274.991 30.2192 273.992 30.6337L276.292 36.1756L278.591 41.7174C278.132 41.9078 277.64 42.0059 277.143 42.0059V36.0059ZM276.292 36.1756L273.992 30.6337C272.993 31.0482 272.086 31.6557 271.322 32.4214L275.57 36.6587L279.818 40.896C279.467 41.2478 279.05 41.5269 278.591 41.7174L276.292 36.1756ZM275.57 36.6587L271.327 32.4169L259.567 44.1813L263.81 48.4232L268.054 52.665L279.814 40.9006L275.57 36.6587ZM263.81 48.4232L268.056 44.1838L265.185 41.3083L260.939 45.5476L256.693 49.787L259.564 52.6625L263.81 48.4232ZM260.939 45.5476L265.182 41.305C263.639 39.7625 261.547 38.8959 259.366 38.8959V44.8959V50.8959C258.364 50.8959 257.404 50.4982 256.696 49.7902L260.939 45.5476ZM259.366 44.8959V38.8959C257.184 38.8959 255.092 39.7625 253.55 41.305L257.792 45.5476L262.035 49.7902C261.327 50.4982 260.367 50.8959 259.366 50.8959V44.8959ZM257.792 45.5476L253.55 41.305C252.007 42.8475 251.141 44.9395 251.141 47.1209H257.141H263.141C263.141 48.1221 262.743 49.0823 262.035 49.7903L257.792 45.5476ZM257.141 47.1209H251.141C251.141 49.3023 252.007 51.3944 253.55 52.9369L257.792 48.6943L262.035 44.4516C262.743 45.1596 263.141 46.1198 263.141 47.1209H257.141ZM257.792 48.6943L253.55 52.9369L257.994 57.3814L262.237 53.1387L266.479 48.8961L262.035 44.4516L257.792 48.6943ZM262.237 53.1387L257.989 57.376C258.753 58.1417 259.66 58.7492 260.659 59.1637L262.958 53.6219L265.258 48.0801C265.717 48.2705 266.134 48.5496 266.485 48.9015L262.237 53.1387ZM262.958 53.6219L260.659 59.1637C261.658 59.5782 262.729 59.7916 263.81 59.7916V53.7916V47.7916C264.307 47.7916 264.799 47.8896 265.258 48.0801L262.958 53.6219ZM263.81 53.7916V59.7916C264.892 59.7916 265.962 59.5782 266.961 59.1637L264.662 53.6219L262.362 48.0801C262.821 47.8896 263.313 47.7916 263.81 47.7916V53.7916ZM264.662 53.6219L266.961 59.1637C267.96 58.7492 268.868 58.1417 269.631 57.376L265.383 53.1387L261.135 48.9015C261.486 48.5496 261.903 48.2705 262.362 48.0801L264.662 53.6219ZM265.383 53.1387L269.626 57.3814L282.959 44.048L278.717 39.8054L274.474 35.5627L261.141 48.8961L265.383 53.1387ZM278.717 39.8054L282.954 44.0534C283.72 43.2896 284.327 42.3823 284.742 41.3834L279.2 39.0838L273.658 36.7842C273.849 36.3252 274.128 35.9083 274.479 35.5574L278.717 39.8054ZM279.2 39.0838L284.742 41.3834C285.156 40.3845 285.37 39.3136 285.37 38.2321H279.37H273.37C273.37 37.7351 273.468 37.2431 273.658 36.7842L279.2 39.0838ZM279.37 38.2321H285.37C285.37 37.1505 285.156 36.0796 284.742 35.0808L279.2 37.3803L273.658 39.6799C273.468 39.221 273.37 38.729 273.37 38.2321H279.37ZM279.2 37.3803L284.742 35.0808C284.327 34.0818 283.72 33.1745 282.954 32.4107L278.717 36.6587L274.479 40.9067C274.128 40.5558 273.849 40.139 273.658 39.6799L279.2 37.3803Z" fill="white" mask="url(#path-31-inside-1_47173_39707)"/>
<path d="M170.562 26.5688C172.48 22.1503 175.592 19.306 179.815 18.1067C184.914 16.6591 196.499 19.7131 204.562 22.9693L207.653 15.8488L220.486 36.1726L196.875 40.6755L199.949 33.5964C195.071 31.5767 186.302 28.2936 183.024 27.8752C179.482 27.4233 176.608 27.7985 173.38 28.4996L169.342 29.3783L170.562 26.5688Z" fill="url(#paint13_linear_47173_39707)"/>
<path d="M189.392 106.939C186.536 110.818 182.867 112.896 178.483 113.123C173.19 113.396 162.579 107.833 155.446 102.86L150.843 109.111L142.87 86.4359L166.89 87.3156L162.314 93.5303C166.618 96.5875 174.433 101.745 177.535 102.884C180.888 104.115 183.773 104.391 187.075 104.428L191.208 104.472L189.392 106.939Z" fill="url(#paint14_linear_47173_39707)"/>
<defs>
<filter id="filter0_ii_47173_39707" x="147.833" y="40.0228" width="33.3333" height="33.3343" filterUnits="userSpaceOnUse" color-interpolation-filters="sRGB">
<feFlood flood-opacity="0" result="BackgroundImageFix"/>
<feBlend mode="normal" in="SourceGraphic" in2="BackgroundImageFix" result="shape"/>
<feColorMatrix in="SourceAlpha" type="matrix" values="0 0 0 0 0 0 0 0 0 0 0 0 0 0 0 0 0 0 127 0" result="hardAlpha"/>
<feOffset dx="-1.66667" dy="-1.66667"/>
<feGaussianBlur stdDeviation="0.833333"/>
<feComposite in2="hardAlpha" operator="arithmetic" k2="-1" k3="1"/>
<feColorMatrix type="matrix" values="0 0 0 0 0.580392 0 0 0 0 0.360784 0 0 0 0 0.0470588 0 0 0 0.3 0"/>
<feBlend mode="normal" in2="shape" result="effect1_innerShadow_47173_39707"/>
<feColorMatrix in="SourceAlpha" type="matrix" values="0 0 0 0 0 0 0 0 0 0 0 0 0 0 0 0 0 0 127 0" result="hardAlpha"/>
<feOffset dx="1.66667" dy="1.66667"/>
<feGaussianBlur stdDeviation="1.66667"/>
<feComposite in2="hardAlpha" operator="arithmetic" k2="-1" k3="1"/>
<feColorMatrix type="matrix" values="0 0 0 0 1 0 0 0 0 1 0 0 0 0 1 0 0 0 0.3 0"/>
<feBlend mode="normal" in2="effect1_innerShadow_47173_39707" result="effect2_innerShadow_47173_39707"/>
</filter>
<linearGradient id="paint0_linear_47173_39707" x1="194" y1="0" x2="194" y2="160" gradientUnits="userSpaceOnUse">
<stop stop-color="#E6F6F8"/>
<stop offset="1" stop-color="#E6F6F8" stop-opacity="0"/>
</linearGradient>
<linearGradient id="paint1_linear_47173_39707" x1="306.463" y1="36.6924" x2="306.463" y2="144.945" gradientUnits="userSpaceOnUse">
<stop stop-color="#012634"/>
<stop offset="1" stop-color="#25262B"/>
</linearGradient>
<linearGradient id="paint2_linear_47173_39707" x1="303.34" y1="38.1978" x2="278.308" y2="92.8381" gradientUnits="userSpaceOnUse">
<stop stop-color="white" stop-opacity="0.46"/>
<stop offset="1" stop-color="white" stop-opacity="0"/>
</linearGradient>
<linearGradient id="paint3_linear_47173_39707" x1="326.598" y1="38.1978" x2="301.566" y2="92.8381" gradientUnits="userSpaceOnUse">
<stop stop-color="white" stop-opacity="0"/>
<stop offset="0.504808" stop-color="white" stop-opacity="0.46"/>
<stop offset="1" stop-color="white" stop-opacity="0"/>
</linearGradient>
<linearGradient id="paint4_linear_47173_39707" x1="74.9594" y1="36.6924" x2="74.9594" y2="144.945" gradientUnits="userSpaceOnUse">
<stop stop-color="#012634"/>
<stop offset="1" stop-color="#25262B"/>
</linearGradient>
<linearGradient id="paint5_linear_47173_39707" x1="84.0379" y1="38.3548" x2="112.612" y2="97.564" gradientUnits="userSpaceOnUse">
<stop stop-color="white" stop-opacity="0"/>
<stop offset="0.504808" stop-color="white" stop-opacity="0.46"/>
<stop offset="1" stop-color="white" stop-opacity="0"/>
</linearGradient>
<linearGradient id="paint6_linear_47173_39707" x1="59.6551" y1="38.3548" x2="88.2293" y2="97.564" gradientUnits="userSpaceOnUse">
<stop stop-color="white" stop-opacity="0.46"/>
<stop offset="1" stop-color="white" stop-opacity="0"/>
</linearGradient>
<linearGradient id="paint7_linear_47173_39707" x1="173.667" y1="75.0247" x2="155.333" y2="40.0247" gradientUnits="userSpaceOnUse">
<stop stop-color="#A76400"/>
<stop offset="0.7" stop-color="#FF991F"/>
</linearGradient>
<linearGradient id="paint8_linear_47173_39707" x1="171.088" y1="71.3317" x2="158.643" y2="42.0498" gradientUnits="userSpaceOnUse">
<stop stop-color="#F3AF00"/>
<stop offset="1" stop-color="#FFC83A"/>
</linearGradient>
<linearGradient id="paint9_linear_47173_39707" x1="235.044" y1="84.3761" x2="191.146" y2="66.5822" gradientUnits="userSpaceOnUse">
<stop stop-color="#00A2B9"/>
<stop offset="1" stop-color="#004953"/>
</linearGradient>
<linearGradient id="paint10_linear_47173_39707" x1="231" y1="85.5" x2="195" y2="68" gradientUnits="userSpaceOnUse">
<stop stop-color="#31808B"/>
<stop offset="1" stop-color="#0D2225"/>
</linearGradient>
<linearGradient id="paint11_linear_47173_39707" x1="297.398" y1="109.736" x2="304.017" y2="79.9251" gradientUnits="userSpaceOnUse">
<stop stop-color="#FF9BA5"/>
<stop offset="1" stop-color="#D4737C"/>
</linearGradient>
<linearGradient id="paint12_linear_47173_39707" x1="144.251" y1="40.1237" x2="113.961" y2="100.754" gradientUnits="userSpaceOnUse">
<stop stop-color="#012634"/>
<stop offset="1" stop-color="#012634" stop-opacity="0"/>
</linearGradient>
<linearGradient id="paint13_linear_47173_39707" x1="191.135" y1="4" x2="255.967" y2="150.944" gradientUnits="userSpaceOnUse">
<stop stop-color="#004953"/>
<stop offset="1" stop-color="#00A2B9"/>
</linearGradient>
<linearGradient id="paint14_linear_47173_39707" x1="171.227" y1="117.501" x2="134.847" y2="17.2142" gradientUnits="userSpaceOnUse">
<stop stop-color="#004953"/>
<stop offset="1" stop-color="#00A2B9"/>
</linearGradient>
</defs>
</svg>
