<svg width="120" height="120" viewBox="0 0 120 120" fill="none" xmlns="http://www.w3.org/2000/svg">
<mask id="mask0_10191_116394" style="mask-type:alpha" maskUnits="userSpaceOnUse" x="0" y="0" width="120" height="120">
<circle cx="60" cy="60" r="60" fill="#00A2B9"/>
</mask>
<g mask="url(#mask0_10191_116394)">
<path opacity="0.1" d="M-134.158 79.0387L-137.648 67.7073V137.647H176.47V-15.8823L172.98 -8.85354C169.489 -1.82476 162.509 12.2328 155.529 14.1793C148.548 16.1258 141.568 5.96122 134.587 15.3127C127.607 24.6642 120.627 53.5318 113.646 62.5378C106.666 71.5439 99.6854 60.6883 92.705 60.7994C85.7246 60.9105 78.7442 71.9883 71.7638 72.8956C64.7834 73.803 57.803 64.54 50.8226 66.6732C43.8423 68.8063 36.8619 82.3357 29.8815 82.6424C22.9011 82.9491 15.9207 70.0332 8.94029 65.9694C1.9599 61.9056 -5.02049 66.6939 -12.0009 77.6776C-18.9813 88.6613 -25.9617 105.84 -32.9421 109.09C-39.9224 112.339 -46.9028 101.659 -53.8832 92.0708C-60.8636 82.4831 -67.844 73.9882 -74.8244 71.9378C-81.8048 69.8875 -88.7852 74.2818 -95.7656 85.9822C-102.746 97.6827 -109.726 116.689 -116.707 114.861C-123.687 113.033 -130.668 90.3702 -134.158 79.0387Z" fill="#DE350B"/>
<path d="M72.3677 43.7666C78.5969 42.7747 84.826 42.7051 91.0552 45.0049C93.0372 45.7396 94.2221 47.7221 94.2222 49.8213V78.1562C94.2222 80.9437 91.2078 82.7865 88.5103 82.0518C79.1629 79.5093 69.8031 81.8883 60.4439 84.2559C50.2404 86.845 40.0371 89.4339 29.8336 85.6436C27.8515 84.9087 26.6666 82.9265 26.6666 80.8271V52.5039C26.6668 49.7167 29.6694 47.8737 32.3785 48.6084C35.2788 49.3973 38.1803 49.712 41.0826 49.7021C44.3837 53.2754 49.392 55.5546 54.9996 55.5547C63.3007 55.5547 70.2878 50.5596 72.3677 43.7666ZM55.9996 29.1162C62.3269 29.1164 67.4565 34.2459 67.4566 40.5732C67.4565 46.8996 62.3285 52.0276 56.0025 52.0293V52.0303L56.0015 52.0293L55.9996 52.0303V52.0293C54.4947 52.0309 53.0041 51.737 51.6138 51.1611C50.3965 50.6569 49.2766 49.9465 48.3033 49.0625L47.8961 48.6729C46.9936 47.768 46.9954 46.303 47.9 45.4004C48.7484 44.5541 50.0896 44.5024 50.9976 45.2451L51.1724 45.4043C51.8051 46.0386 52.5576 46.5419 53.3853 46.8848C54.1095 47.1847 54.8794 47.357 55.6607 47.3945L55.9966 47.4023H55.9996C59.7706 47.4022 62.8276 44.3443 62.8277 40.5732C62.8275 36.8022 59.7706 33.7453 55.9996 33.7451C54.4434 33.7451 53.0113 34.2644 51.8619 35.1416C52.7178 35.3386 53.3569 36.1038 53.357 37.0195C53.357 38.0845 52.4933 38.9481 51.4283 38.9482H48.1285C47.2754 39.5111 46.1205 39.459 45.3199 38.748C44.4473 37.973 44.3012 36.6876 44.9283 35.7422V32.4482C44.9283 31.3832 45.7919 30.5195 46.857 30.5195C47.6849 30.5197 48.3883 31.0427 48.6617 31.7754C50.6483 30.1176 53.2086 29.1162 55.9996 29.1162Z" fill="url(#paint0_linear_10191_116394)"/>
<path d="M42.6666 69.3333V69.3573M77.3332 63.9787V64.0053M66.6666 66.6667C66.6666 68.4348 65.9642 70.1305 64.7139 71.3807C63.4637 72.631 61.768 73.3333 59.9999 73.3333C58.2318 73.3333 56.5361 72.631 55.2859 71.3807C54.0356 70.1305 53.3332 68.4348 53.3332 66.6667C53.3332 64.8986 54.0356 63.2029 55.2859 61.9526C56.5361 60.7024 58.2318 60 59.9999 60C61.768 60 63.4637 60.7024 64.7139 61.9526C65.9642 63.2029 66.6666 64.8986 66.6666 66.6667Z" stroke="white" stroke-width="4" stroke-linecap="round" stroke-linejoin="round"/>
<circle opacity="0.1" cx="60" cy="60" r="60" fill="#DE350B"/>
</g>
<path d="M115.314 27.3137C118.314 24.3131 120 20.2435 120 16C120 11.7565 118.314 7.68687 115.314 4.68629C112.313 1.68571 108.243 0 104 0C99.7565 0 95.6869 1.68571 92.6863 4.68629C89.6857 7.68687 88 11.7565 88 16C88 20.2435 89.6857 24.3131 92.6863 27.3137C95.6869 30.3143 99.7565 32 104 32C108.243 32 112.313 30.3143 115.314 27.3137Z" fill="#DE350B"/>
<path d="M110 10L98 22" stroke="white" stroke-width="3" stroke-linecap="round" stroke-linejoin="round"/>
<path d="M98 10L110 22" stroke="white" stroke-width="3" stroke-linecap="round" stroke-linejoin="round"/>
<defs>
<linearGradient id="paint0_linear_10191_116394" x1="60.4444" y1="29.1162" x2="60.4444" y2="87.5546" gradientUnits="userSpaceOnUse">
<stop offset="0.545" stop-color="#DE350B"/>
<stop offset="1" stop-color="#A12000"/>
</linearGradient>
</defs>
</svg>
