<svg width="124" height="138" viewBox="0 0 124 138" fill="none" xmlns="http://www.w3.org/2000/svg">
<mask id="mask0_12643_135440" style="mask-type:alpha" maskUnits="userSpaceOnUse" x="4" y="0" width="120" height="120">
<circle cx="64" cy="60" r="60" fill="#00A2B9"/>
</mask>
<g mask="url(#mask0_12643_135440)">
<path opacity="0.1" d="M-130.158 79.0382L-133.648 67.7068V137.647H180.47V-15.8828L176.979 -8.85403C173.489 -1.82525 166.509 12.2323 159.529 14.1788C152.548 16.1253 145.568 5.96074 138.587 15.3122C131.607 24.6638 124.627 53.5313 117.646 62.5374C110.666 71.5434 103.685 60.6879 96.705 60.799C89.7246 60.91 82.7442 71.9878 75.7638 72.8951C68.7834 73.8025 61.803 64.5395 54.8226 66.6727C47.8422 68.8059 40.8618 82.3352 33.8815 82.6419C26.9011 82.9486 19.9207 70.0327 12.9403 65.9689C5.95988 61.9051 -1.02051 66.6934 -8.00089 77.6771C-14.9813 88.6608 -21.9617 105.84 -28.9421 109.089C-35.9225 112.338 -42.9029 101.658 -49.8832 92.0704C-56.8636 82.4827 -63.844 73.9877 -70.8244 71.9373C-77.8048 69.887 -84.7852 74.2813 -91.7656 85.9817C-98.746 97.6822 -105.726 116.689 -112.707 114.861C-119.687 113.033 -126.668 90.3697 -130.158 79.0382Z" fill="#FF991F"/>
<rect x="42.3999" y="42" width="43.2" height="25.2" fill="white"/>
<path fill-rule="evenodd" clip-rule="evenodd" d="M43 66V42H85V66H43ZM85 36H43C41.4087 36 39.8826 36.6321 38.7574 37.7574C37.6321 38.8826 37 40.4087 37 42V66C37 67.5913 37.6321 69.1174 38.7574 70.2426C39.8826 71.3679 41.4087 72 43 72H85C86.5913 72 88.1174 71.3679 89.2426 70.2426C90.3679 69.1174 91 67.5913 91 66V42C91 40.4087 90.3679 38.8826 89.2426 37.7574C88.1174 36.6321 86.5913 36 85 36ZM91 84H37C36.2044 84 35.4413 83.6839 34.8787 83.1213C34.3161 82.5587 34 81.7957 34 81C34 80.2043 34.3161 79.4413 34.8787 78.8787C35.4413 78.3161 36.2044 78 37 78H91C91.7956 78 92.5587 78.3161 93.1213 78.8787C93.6839 79.4413 94 80.2043 94 81C94 81.7957 93.6839 82.5587 93.1213 83.1213C92.5587 83.6839 91.7956 84 91 84Z" fill="url(#paint0_linear_12643_135440)"/>
<circle opacity="0.1" cx="64" cy="60" r="60" fill="#FF991F"/>
</g>
<path d="M44.9706 126.971C49.4714 122.47 52 116.365 52 110C52 103.635 49.4714 97.5303 44.9706 93.0294C40.4697 88.5286 34.3652 86 28 86C21.6348 86 15.5303 88.5286 11.0294 93.0294C6.52857 97.5303 4 103.635 4 110C4 116.365 6.52857 122.47 11.0294 126.971C15.5303 131.471 21.6348 134 28 134C34.3652 134 40.4697 131.471 44.9706 126.971Z" fill="#FF991F" stroke="white" stroke-width="8"/>
<path d="M34.4826 119.259H35.4086V117.407H34.4826V116.481C34.4809 115.356 34.187 114.251 33.6298 113.274C33.0726 112.297 32.2711 111.481 31.3039 110.907C30.9752 110.712 30.7789 110.4 30.7789 110.073V109.926C30.7789 109.599 30.9752 109.287 31.303 109.093C32.2704 108.519 33.072 107.703 33.6294 106.726C34.1867 105.748 34.4808 104.643 34.4826 103.518V102.592H35.4086V100.74H20.5938V102.592H21.5197V103.518C21.5216 104.643 21.8156 105.748 22.3729 106.726C22.9303 107.703 23.7319 108.519 24.6993 109.093C25.0271 109.287 25.2234 109.598 25.2234 109.926V110.073C25.2234 110.4 25.0271 110.712 24.6993 110.906C23.7319 111.48 22.9303 112.296 22.3729 113.273C21.8156 114.251 21.5216 115.356 21.5197 116.481V117.407H20.5938V119.259H34.4826ZM32.6308 102.592V103.518C32.6294 104.52 32.3032 105.495 31.7012 106.296H24.3012C23.6991 105.495 23.3729 104.52 23.3715 103.518V102.592H32.6308ZM25.64 112.501C26.5391 111.97 27.0752 111.062 27.0752 110.073V109.999H28.9271V110.073C28.9271 111.062 29.4632 111.97 30.3632 112.501C31.1952 112.996 31.8502 113.741 32.2354 114.629H23.7669C24.1522 113.741 24.8076 112.996 25.64 112.501Z" fill="white"/>
<defs>
<linearGradient id="paint0_linear_12643_135440" x1="64" y1="36" x2="64" y2="84" gradientUnits="userSpaceOnUse">
<stop stop-color="#FF991F"/>
<stop offset="1" stop-color="#B27D3E"/>
</linearGradient>
</defs>
</svg>
