<svg width="120" height="120" viewBox="0 0 120 120" fill="none" xmlns="http://www.w3.org/2000/svg">
<mask id="mask0_15760_80175" style="mask-type:alpha" maskUnits="userSpaceOnUse" x="0" y="0" width="120" height="120">
<circle cx="60" cy="60" r="60" fill="#00A2B9"/>
</mask>
<g mask="url(#mask0_15760_80175)">
<path opacity="0.1" d="M-134.157 79.0387L-137.647 67.7073V137.647H176.47V-15.8823L172.98 -8.85354C169.49 -1.82476 162.509 12.2328 155.529 14.1793C148.549 16.1258 141.568 5.96122 134.588 15.3127C127.607 24.6642 120.627 53.5318 113.647 62.5378C106.666 71.5439 99.6859 60.6883 92.7055 60.7994C85.7251 60.9105 78.7447 71.9883 71.7643 72.8956C64.7839 73.803 57.8035 64.54 50.8231 66.6732C43.8427 68.8063 36.8623 82.3357 29.8819 82.6424C22.9016 82.9491 15.9212 70.0332 8.94077 65.9694C1.96037 61.9056 -5.02002 66.6939 -12.0004 77.6776C-18.9808 88.6613 -25.9612 105.84 -32.9416 109.09C-39.922 112.339 -46.9024 101.659 -53.8828 92.0708C-60.8632 82.4831 -67.8435 73.9882 -74.8239 71.9378C-81.8043 69.8875 -88.7847 74.2818 -95.7651 85.9822C-102.746 97.6827 -109.726 116.689 -116.706 114.861C-123.687 113.033 -130.667 90.3702 -134.157 79.0387Z" fill="#229BD8"/>
<path d="M86.316 54.4679L82.212 42.1529C81.6167 40.3603 80.4715 38.801 78.9393 37.6964C77.4072 36.5918 75.5658 35.9982 73.677 35.9999H46.323C44.4342 35.9982 42.5928 36.5918 41.0607 37.6964C39.5285 38.801 38.3833 40.3603 37.788 42.1529L33.684 54.4679C32.5938 54.9253 31.6628 55.6942 31.0075 56.6782C30.3522 57.6622 30.0018 58.8176 30 59.9999V74.9999C30 77.2589 31.269 79.2059 33.117 80.2289C33.078 80.4269 33 80.6069 33 80.8139V86.9999C33 87.7955 33.3161 88.5586 33.8787 89.1212C34.4413 89.6838 35.2044 89.9999 36 89.9999H39C39.7956 89.9999 40.5587 89.6838 41.1213 89.1212C41.6839 88.5586 42 87.7955 42 86.9999V80.9999H78V86.9999C78 87.7955 78.3161 88.5586 78.8787 89.1212C79.4413 89.6838 80.2043 89.9999 81 89.9999H84C84.7957 89.9999 85.5587 89.6838 86.1213 89.1212C86.6839 88.5586 87 87.7955 87 86.9999V80.8139C87 80.6069 86.922 80.4239 86.883 80.2289C87.8232 79.7163 88.6085 78.9606 89.1568 78.0408C89.7051 77.1209 89.9963 76.0707 90 74.9999V59.9999C90 57.5129 88.476 55.3769 86.316 54.4679ZM36 74.9999V59.9999H84L84.006 74.9999H36ZM46.323 41.9999H73.674C74.967 41.9999 76.113 42.8219 76.521 44.0519L79.839 53.9999H40.161L43.476 44.0519C43.675 43.4543 44.0572 42.9345 44.5681 42.5662C45.0791 42.1978 45.6931 41.9997 46.323 41.9999Z" fill="url(#paint0_linear_15760_80175)"/>
<path d="M43.5 71.9999C45.9853 71.9999 48 69.9852 48 67.4999C48 65.0146 45.9853 62.9999 43.5 62.9999C41.0147 62.9999 39 65.0146 39 67.4999C39 69.9852 41.0147 71.9999 43.5 71.9999Z" fill="url(#paint1_linear_15760_80175)"/>
<path d="M76.5 71.9999C78.9853 71.9999 81 69.9852 81 67.4999C81 65.0146 78.9853 62.9999 76.5 62.9999C74.0147 62.9999 72 65.0146 72 67.4999C72 69.9852 74.0147 71.9999 76.5 71.9999Z" fill="url(#paint2_linear_15760_80175)"/>
<circle opacity="0.1" cx="60" cy="60" r="60" fill="#00A2B9"/>
</g>
<path d="M115.314 27.3137C118.314 24.3131 120 20.2435 120 16C120 11.7565 118.314 7.68687 115.314 4.68629C112.313 1.68571 108.243 0 104 0C99.7565 0 95.6869 1.68571 92.6863 4.68629C89.6857 7.68687 88 11.7565 88 16C88 20.2435 89.6857 24.3131 92.6863 27.3137C95.6869 30.3143 99.7565 32 104 32C108.243 32 112.313 30.3143 115.314 27.3137Z" fill="#5AA200"/>
<path d="M111.793 9.02125C112.009 9.11088 112.205 9.24223 112.37 9.40779C112.536 9.57293 112.667 9.76911 112.757 9.98509C112.846 10.2011 112.893 10.4326 112.893 10.6665C112.893 10.9003 112.846 11.1318 112.757 11.3478C112.667 11.5638 112.536 11.76 112.37 11.9251L101.704 22.5918C101.538 22.7573 101.342 22.8887 101.126 22.9783C100.91 23.0679 100.679 23.1141 100.445 23.1141C100.211 23.1141 99.9796 23.0679 99.7636 22.9783C99.5476 22.8887 99.3514 22.7573 99.1863 22.5918L95.6307 19.0362C95.2969 18.7024 95.1094 18.2497 95.1094 17.7776C95.1094 17.3055 95.2969 16.8527 95.6307 16.5189C95.9645 16.1851 96.4173 15.9975 96.8894 15.9975C97.3615 15.9975 97.8142 16.1851 98.1481 16.5189L100.445 18.8193L109.853 9.40779C110.018 9.24223 110.214 9.11088 110.43 9.02125C110.646 8.93163 110.878 8.8855 111.112 8.8855C111.345 8.8855 111.577 8.93163 111.793 9.02125Z" fill="#F1F1F1"/>
<defs>
<linearGradient id="paint0_linear_15760_80175" x1="60" y1="35.9999" x2="60" y2="89.9999" gradientUnits="userSpaceOnUse">
<stop stop-color="#01C6E2"/>
<stop offset="1" stop-color="#007CA4"/>
</linearGradient>
<linearGradient id="paint1_linear_15760_80175" x1="43.5" y1="62.9999" x2="43.5" y2="71.9999" gradientUnits="userSpaceOnUse">
<stop stop-color="#01C6E2"/>
<stop offset="1" stop-color="#007CA4"/>
</linearGradient>
<linearGradient id="paint2_linear_15760_80175" x1="76.5" y1="62.9999" x2="76.5" y2="71.9999" gradientUnits="userSpaceOnUse">
<stop stop-color="#01C6E2"/>
<stop offset="1" stop-color="#007CA4"/>
</linearGradient>
</defs>
</svg>
