<svg width="428" height="307" viewBox="0 0 428 307" fill="none" xmlns="http://www.w3.org/2000/svg">
<defs>
<linearGradient id="paint0_linear_8724_104762" x1="210.2" y1="59" x2="210.2" y2="99" gradientUnits="userSpaceOnUse">
<stop stop-color="#F3AF00" stop-opacity="0.5"/>
<stop offset="0.5" stop-color="#26B5CA"/>
<stop offset="1" stop-color="#00A2B9"/>
</linearGradient>
<clipPath id="clip0_8724_104762">
<rect width="428" height="307" fill="white"/>
</clipPath>
</defs>
<g clip-path="url(#clip0_8724_104762)">
<path fill-rule="evenodd" clip-rule="evenodd" d="M315.531 107.608C315.531 164.929 269.062 211.398 211.741 211.398C154.42 211.398 107.952 164.929 107.952 107.608C107.952 50.2874 154.42 3.81836 211.741 3.81836C269.062 3.81836 315.531 50.2874 315.531 107.608Z" stroke="#DDDDDD" stroke-width="4" stroke-dasharray="12 12"/>
<path fill-rule="evenodd" clip-rule="evenodd" d="M288.817 107.608C288.817 150.175 254.309 184.683 211.742 184.683C169.174 184.683 134.668 150.175 134.668 107.608C134.668 65.0412 169.174 30.5332 211.742 30.5332C254.309 30.5332 288.817 65.0412 288.817 107.608Z" stroke="#DDDDDD" stroke-width="4" stroke-dasharray="12 12"/>
<path fill-rule="evenodd" clip-rule="evenodd" d="M128 159.666C123.446 161.058 115.861 167.895 113.266 176C112.831 168.469 108.15 159.004 103 157.64C109.284 155.371 116.09 147.029 117.901 140C117.573 147.367 124.12 158.063 128 159.666Z" fill="#CDC9C9"/>
<path fill-rule="evenodd" clip-rule="evenodd" d="M310.405 48.0658C306.571 49.9389 300.874 57.3559 299.791 65.3875C298.269 58.2684 292.689 49.8129 287.915 49.1315C293.148 46.2147 297.932 37.4521 298.478 30.54C299.298 37.5992 306.719 47.0045 310.405 48.0658Z" fill="#CDC9C9"/>
<path d="M179.859 266.01C180.09 265.299 180.332 264.595 180.586 263.892C189.395 239.501 211.505 222.294 234.631 210.558C242.609 206.509 251.061 202.772 257.094 196.17C270.837 181.135 266.65 156.333 248.773 146.624C257.075 151.131 281.096 141.817 268.169 132.327C265.112 130.082 261.259 129.274 257.844 127.625C254.43 125.975 251.157 122.861 251.392 119.073C251.496 117.42 252.265 115.878 253.195 114.505C257.271 108.506 264.446 105.103 268.292 98.9548C269.141 97.5936 269.83 96.0401 269.695 94.4405C269.48 91.9027 267.196 89.9339 264.743 89.2572C240.341 82.5357 221.538 112.194 197.382 109.495C196.002 109.341 194.525 109.099 193.294 109.741C191.864 110.49 191.249 112.186 190.837 113.747C187.98 124.506 188.826 136.215 193.206 146.451C196.844 154.957 202.973 163.151 202.05 172.356C201.223 180.597 194.763 187.695 194.936 195.974C194.983 198.177 195.502 200.426 194.936 202.557C194.083 205.767 191.014 207.84 188.042 209.324C173.584 216.542 156.746 216.653 141.007 220.314C139.896 220.571 138.731 220.879 137.923 221.683C136.516 223.079 136.701 225.351 136.897 227.324C138.435 242.693 134.763 258.055 131.117 273.063C127.091 289.639 123.065 306.216 119.039 322.793C118.613 324.546 118.251 326.603 119.416 327.98C120.055 328.737 121.031 329.11 121.966 329.437C127.387 331.333 132.982 332.721 138.662 333.582C143.16 334.267 147.852 334.601 152.189 333.221C158.93 331.075 163.779 325.096 166.932 318.763C175.022 302.505 174.245 283.264 179.859 266.01Z" fill="#D4A79A"/>
<path d="M146.871 173.679C149.701 166.204 153.358 159.048 155.822 151.442C157.803 145.328 158.987 138.983 159.968 132.631C161.76 121.046 161.767 109.356 162.244 97.6396C168.239 100.42 175.106 106.984 176.125 113.513C177.14 120.042 174.987 126.69 174.276 133.262C172.526 149.477 172.03 167.18 181.835 180.212C185.542 185.138 190.368 189.114 194.244 193.905C198.12 198.7 201.088 204.794 200.043 210.87C198.747 218.41 191.856 223.548 185.308 227.504C176.725 232.691 167.773 237.263 158.541 241.17C153.1 243.473 152.246 245.919 144.894 245.996C140.865 246.038 135.37 232.426 136.862 215.872C138.511 197.512 140.249 191.175 146.871 173.679Z" fill="#D4A79A"/>
<path d="M241.383 29.8418H175.822C168.366 29.8418 162.268 35.9403 162.268 43.3962V109.153C191.145 83.2288 220.584 57.9311 251.277 34.1984C248.8 31.5337 245.286 29.8418 241.383 29.8418Z" fill="white"/>
<path d="M251.281 34.1985C220.588 57.9312 191.153 83.2289 162.271 109.153V166.732V203.853C162.271 211.305 168.37 217.408 175.826 217.408H241.383C248.839 217.408 254.937 211.309 254.937 203.853V43.3924C254.937 39.9086 253.595 36.7325 251.415 34.3254C251.369 34.2831 251.323 34.2446 251.281 34.1985Z" fill="white"/>
<path fill-rule="evenodd" clip-rule="evenodd" d="M175.822 29.8423H241.383C248.835 29.8423 254.934 35.9408 254.934 43.3967V203.858C254.934 211.314 248.835 217.412 241.379 217.412H175.822C168.366 217.412 162.268 211.314 162.268 203.858V43.3967C162.268 35.9408 168.366 29.8423 175.822 29.8423ZM235.5 199.912C242.956 199.912 249.054 193.814 249.054 186.358V49.6986C249.054 42.2428 242.952 36.1442 235.5 36.1442H181.701C174.246 36.1442 168.147 42.2428 168.147 49.6986V186.358C168.147 193.814 174.246 199.912 181.701 199.912H235.5Z" fill="#666666"/>
<path d="M217.701 34.1329H199.505C199.282 34.1329 199.102 33.9522 199.102 33.7292V32.9909C199.102 32.7679 199.282 32.5872 199.505 32.5872H217.701C217.924 32.5872 218.105 32.7679 218.105 32.9909V33.7292C218.105 33.9522 217.924 34.1329 217.701 34.1329Z" fill="white"/>
<path d="M208.602 212.886C211.257 212.886 213.409 210.734 213.409 208.079C213.409 205.425 211.257 203.273 208.602 203.273C205.948 203.273 203.796 205.425 203.796 208.079C203.796 210.734 205.948 212.886 208.602 212.886Z" fill="#666666"/>
<path opacity="0.36" d="M210.463 140.137C224.668 140.137 236.184 128.622 236.184 114.416C236.184 100.211 224.668 88.6958 210.463 88.6958C196.258 88.6958 184.742 100.211 184.742 114.416C184.742 128.622 196.258 140.137 210.463 140.137Z" fill="#666666"/>
<path opacity="0.36" d="M210.463 133.893C221.22 133.893 229.939 125.173 229.939 114.416C229.939 103.66 221.22 94.9404 210.463 94.9404C199.707 94.9404 190.987 103.66 190.987 114.416C190.987 125.173 199.707 133.893 210.463 133.893Z" fill="#666666"/>
<path d="M210.463 124.929C216.269 124.929 220.976 120.222 220.976 114.416C220.976 108.61 216.269 103.904 210.463 103.904C204.657 103.904 199.95 108.61 199.95 114.416C199.95 120.222 204.657 124.929 210.463 124.929Z" fill="#666666"/>
<path d="M285.24 262.515C284.79 259.058 284.509 255.555 284.444 251.991C284.029 228.466 287.489 197.704 264.995 183.304C254.874 176.825 241.497 176.409 233.283 166.65C230.261 163.059 228.634 158.464 227.093 153.972C222.286 139.984 217.645 125.933 213.177 111.825C208.586 112.329 205.959 117.516 204.948 122.184C202.014 135.715 205.679 149.827 210.474 162.77C215.269 175.713 221.279 188.383 223.278 202.095C224.036 207.298 222.451 214.604 217.38 214.412C214.699 214.308 212.665 211.901 211.296 209.509C205.732 199.792 204.075 185.922 193.897 181.873C191.201 180.801 187.348 181.189 186.468 184.042C185.991 185.58 185.476 187.23 186.079 188.718C194.547 209.697 200.88 228.65 213.915 246.942C218.887 253.921 229.43 261.204 234.218 268.337C251.36 293.881 250.952 297.818 264.964 325.069C265.891 326.873 267.771 309.612 269.501 310.592C271.166 311.538 270.028 319.148 271.912 318.913C281.429 317.733 292.504 324.616 301.04 320.097C302.459 319.348 303.955 318.521 304.739 317.079C305.524 315.633 305.424 313.872 305.304 312.219C303.263 284.329 288.831 290.028 285.24 262.515Z" fill="#EAC2AB"/>
<path fill-rule="evenodd" clip-rule="evenodd" d="M210.201 81.4017C206.225 81.4017 203.002 78.1784 203.002 74.2032C203.002 70.2272 206.225 67.0039 210.201 67.0039C214.177 67.0039 217.4 70.2272 217.4 74.2032C217.4 78.1784 214.177 81.4017 210.201 81.4017ZM210.2 59.0061C202.039 58.7747 195.237 65.2026 195.006 73.3631C194.999 73.5953 194.998 73.8275 195.002 74.0596C195.002 86.6653 209.08 98.3278 209.672 98.8076C209.971 99.0641 210.413 99.0641 210.712 98.8076C211.337 98.2479 225.397 85.4182 225.397 74.0596C225.551 65.8975 219.059 59.1559 210.896 59.0028C210.664 58.9987 210.432 58.9995 210.2 59.0061Z" fill="white"/>
<path fill-rule="evenodd" clip-rule="evenodd" d="M210.201 81.4017C206.225 81.4017 203.002 78.1784 203.002 74.2032C203.002 70.2272 206.225 67.0039 210.201 67.0039C214.177 67.0039 217.4 70.2272 217.4 74.2032C217.4 78.1784 214.177 81.4017 210.201 81.4017ZM210.2 59.0061C202.039 58.7747 195.237 65.2026 195.006 73.3631C194.999 73.5953 194.998 73.8275 195.002 74.0596C195.002 86.6653 209.08 98.3278 209.672 98.8076C209.971 99.0641 210.413 99.0641 210.712 98.8076C211.337 98.2479 225.397 85.4182 225.397 74.0596C225.551 65.8975 219.059 59.1559 210.896 59.0028C210.664 58.9987 210.432 58.9995 210.2 59.0061Z" fill="url(#paint0_linear_8724_104762)" fill-opacity="0.95"/>
</g>
</svg>
