<svg width="96" height="96" viewBox="0 0 96 96" fill="none" xmlns="http://www.w3.org/2000/svg">
<circle opacity="0.1" cx="48" cy="48" r="48" fill="#00A2B9"/>
<circle opacity="0.2" cx="48" cy="48" r="40" fill="#00A2B9"/>
<circle cx="48" cy="48" r="32" fill="#00A2B9"/>
<path d="M47.9 60C48.6 60 49.192 59.758 49.676 59.274C50.16 58.79 50.4013 58.1987 50.4 57.5C50.4 56.8 50.1587 56.208 49.676 55.724C49.1933 55.24 48.6013 54.9987 47.9 55C47.2 55 46.6087 55.242 46.126 55.726C45.6433 56.21 45.4013 56.8013 45.4 57.5C45.4 58.2 45.642 58.792 46.126 59.276C46.61 59.76 47.2013 60.0013 47.9 60ZM46.1792 50.4521C46.0777 51.4688 46.9283 52.3 47.95 52.3C48.9717 52.3 49.7539 51.4609 49.9571 50.4596C50.0144 50.1772 50.0873 49.924 50.176 49.7C50.4267 49.0667 51.1347 48.2 52.3 47.1C53.1667 46.2333 53.85 45.408 54.35 44.624C54.85 43.84 55.1 42.8987 55.1 41.8C55.1 39.9333 54.4167 38.5 53.05 37.5C51.6833 36.5 50.0667 36 48.2 36C46.3 36 44.758 36.5 43.574 37.5C42.8322 38.1265 42.2315 38.8315 41.7718 39.6151C41.3083 40.4049 41.7671 41.3628 42.6192 41.6985C43.5712 42.0735 44.6802 41.5371 45.3044 40.7263C45.3746 40.6351 45.4484 40.543 45.526 40.45C46.11 39.75 47.0013 39.4 48.2 39.4C49.2667 39.4 50.0667 39.692 50.6 40.276C51.1333 40.86 51.4 41.5013 51.4 42.2C51.4 42.8667 51.2 43.492 50.8 44.076C50.4 44.66 49.9 45.2013 49.3 45.7C47.8333 47 46.9333 47.9833 46.6 48.65C46.3993 49.0514 46.259 49.6521 46.1792 50.4521ZM48 68C45.2333 68 42.6333 67.4747 40.2 66.424C37.7667 65.3733 35.65 63.9487 33.85 62.15C32.05 60.35 30.6253 58.2333 29.576 55.8C28.5267 53.3667 28.0013 50.7667 28 48C28 45.2333 28.5253 42.6333 29.576 40.2C30.6267 37.7667 32.0513 35.65 33.85 33.85C35.65 32.05 37.7667 30.6253 40.2 29.576C42.6333 28.5267 45.2333 28.0013 48 28C50.7667 28 53.3667 28.5253 55.8 29.576C58.2333 30.6267 60.35 32.0513 62.15 33.85C63.95 35.65 65.3753 37.7667 66.426 40.2C67.4767 42.6333 68.0013 45.2333 68 48C68 50.7667 67.4747 53.3667 66.424 55.8C65.3733 58.2333 63.9487 60.35 62.15 62.15C60.35 63.95 58.2333 65.3753 55.8 66.426C53.3667 67.4767 50.7667 68.0013 48 68Z" fill="white"/>
<circle cx="48" cy="48" r="20" fill="white"/>
<path d="M57.625 45.1995C58.508 45.708 59.2239 46.4624 59.6855 47.3707C60.1471 48.2791 60.3344 49.3021 60.2246 50.315C60.1147 51.328 59.7125 52.2871 59.067 53.0754C58.4214 53.8637 57.5604 54.4471 56.589 54.7545C56.2457 56.3126 55.3805 57.7066 54.1368 58.7059C52.8931 59.7052 51.3454 60.2498 49.75 60.2495H47.125C46.8929 60.2495 46.6704 60.1573 46.5063 59.9932C46.3422 59.8291 46.25 59.6066 46.25 59.3745C46.25 59.1425 46.3422 58.9199 46.5063 58.7558C46.6704 58.5917 46.8929 58.4995 47.125 58.4995H49.75C50.8361 58.4998 51.8955 58.1634 52.7825 57.5366C53.6694 56.9098 54.3402 56.0234 54.7025 54.9995H54.125C53.8929 54.9995 53.6704 54.9073 53.5063 54.7432C53.3422 54.5791 53.25 54.3566 53.25 54.1245V45.3745C53.25 45.1425 53.3422 44.9199 53.5063 44.7558C53.6704 44.5917 53.8929 44.4995 54.125 44.4995H55C55.2835 44.4995 55.5617 44.5223 55.8347 44.566C55.6377 42.6251 54.7273 40.8264 53.2798 39.5184C51.8324 38.2104 49.9509 37.4862 48 37.4862C46.0491 37.4862 44.1676 38.2104 42.7201 39.5184C41.2727 40.8264 40.3622 42.6251 40.1652 44.566C40.4413 44.5218 40.7204 44.4996 41 44.4995H41.875C42.1071 44.4995 42.3296 44.5917 42.4937 44.7558C42.6578 44.9199 42.75 45.1425 42.75 45.3745V54.1245C42.75 54.3566 42.6578 54.5791 42.4937 54.7432C42.3296 54.9073 42.1071 54.9995 41.875 54.9995H41C39.8432 55.0008 38.7184 54.62 37.8003 53.9163C36.8822 53.2125 36.2222 52.2253 35.9229 51.1079C35.6236 49.9905 35.7017 48.8055 36.1452 47.7371C36.5886 46.6687 37.3724 45.7766 38.375 45.1995C38.375 42.6468 39.389 40.1987 41.1941 38.3936C42.9991 36.5886 45.4473 35.5745 48 35.5745C50.5527 35.5745 53.0009 36.5886 54.8059 38.3936C56.6109 40.1987 57.625 42.6468 57.625 45.1995ZM41 46.2495C40.0717 46.2495 39.1815 46.6183 38.5251 47.2746C37.8687 47.931 37.5 48.8213 37.5 49.7495C37.5 50.6778 37.8687 51.568 38.5251 52.2244C39.1815 52.8808 40.0717 53.2495 41 53.2495V46.2495ZM58.5 49.7495C58.5 48.8213 58.1312 47.931 57.4749 47.2746C56.8185 46.6183 55.9282 46.2495 55 46.2495V53.2495C55.9282 53.2495 56.8185 52.8808 57.4749 52.2244C58.1312 51.568 58.5 50.6778 58.5 49.7495Z" fill="#00A2B9" stroke="#00A2B9" stroke-width="0.466667"/>
</svg>
