<svg width="96" height="96" viewBox="0 0 96 96" fill="none" xmlns="http://www.w3.org/2000/svg">
<circle opacity="0.1" cx="48" cy="48" r="48" fill="#DE350B"/>
<circle opacity="0.2" cx="48" cy="48" r="40" fill="#DE350B"/>
<circle cx="48" cy="48" r="32" fill="#DE350B"/>
<path d="M51.2868 47.998L61.3105 37.9963C61.7494 37.5572 61.996 36.9618 61.996 36.341C61.996 35.7201 61.7494 35.1247 61.3105 34.6856C60.8715 34.2466 60.2762 34 59.6554 34C59.0346 34 58.4393 34.2466 58.0003 34.6856L48 44.7107L37.9997 34.6856C37.5607 34.2466 36.9654 34 36.3446 34C35.7238 34 35.1285 34.2466 34.6895 34.6856C34.2506 35.1247 34.004 35.7201 34.004 36.341C34.004 36.9618 34.2506 37.5572 34.6895 37.9963L44.7132 47.998L34.6895 57.9998C34.471 58.2165 34.2976 58.4744 34.1793 58.7585C34.0609 59.0426 34 59.3473 34 59.6551C34 59.9628 34.0609 60.2676 34.1793 60.5517C34.2976 60.8358 34.471 61.0936 34.6895 61.3104C34.9062 61.5289 35.1641 61.7023 35.4481 61.8207C35.7322 61.9391 36.0369 62 36.3446 62C36.6523 62 36.957 61.9391 37.2411 61.8207C37.5251 61.7023 37.783 61.5289 37.9997 61.3104L48 51.2853L58.0003 61.3104C58.217 61.5289 58.4749 61.7023 58.7589 61.8207C59.043 61.9391 59.3477 62 59.6554 62C59.9631 62 60.2678 61.9391 60.5519 61.8207C60.8359 61.7023 61.0938 61.5289 61.3105 61.3104C61.529 61.0936 61.7024 60.8358 61.8207 60.5517C61.9391 60.2676 62 59.9628 62 59.6551C62 59.3473 61.9391 59.0426 61.8207 58.7585C61.7024 58.4744 61.529 58.2165 61.3105 57.9998L51.2868 47.998Z" fill="#FCEBE7"/>
</svg>
