<svg width="120" height="120" viewBox="0 0 120 120" fill="none" xmlns="http://www.w3.org/2000/svg">
<mask id="mask0_15760_77567" style="mask-type:alpha" maskUnits="userSpaceOnUse" x="0" y="0" width="120" height="120">
<circle cx="60" cy="60" r="60" fill="#00A2B9"/>
</mask>
<g mask="url(#mask0_15760_77567)">
<path opacity="0.1" d="M-134.158 79.0387L-137.648 67.7073V137.647H176.47V-15.8823L172.979 -8.85354C169.489 -1.82476 162.509 12.2328 155.529 14.1793C148.548 16.1258 141.568 5.96122 134.587 15.3127C127.607 24.6642 120.627 53.5318 113.646 62.5378C106.666 71.5439 99.6854 60.6883 92.705 60.7994C85.7246 60.9105 78.7442 71.9883 71.7638 72.8956C64.7834 73.803 57.803 64.54 50.8226 66.6732C43.8422 68.8063 36.8618 82.3357 29.8815 82.6424C22.9011 82.9491 15.9207 70.0332 8.94028 65.9694C1.95988 61.9056 -5.02051 66.6939 -12.0009 77.6776C-18.9813 88.6613 -25.9617 105.84 -32.9421 109.09C-39.9225 112.339 -46.9029 101.659 -53.8832 92.0708C-60.8636 82.4831 -67.844 73.9882 -74.8244 71.9378C-81.8048 69.8875 -88.7852 74.2818 -95.7656 85.9822C-102.746 97.6827 -109.726 116.689 -116.707 114.861C-123.687 113.033 -130.668 90.3702 -134.158 79.0387Z" fill="#FF991F"/>
<path d="M39.0198 66.1782C39.0198 63.1482 39.0198 61.6362 39.6858 60.3432C40.3488 59.0532 41.5818 58.1712 44.0448 56.4132L56.5338 47.4912C58.2138 46.2912 59.0598 45.6882 60.0198 45.6882C60.9798 45.6882 61.8228 46.2882 63.5058 47.4912L75.9948 56.4102C78.4578 58.1712 79.6908 59.0502 80.3538 60.3432C81.0168 61.6362 81.0198 63.1482 81.0198 66.1752V81.0012C81.0198 83.8302 81.0198 85.2432 80.1408 86.1222C79.2618 87.0012 77.8488 87.0012 75.0198 87.0012H45.0198C42.1908 87.0012 40.7778 87.0012 39.8988 86.1222C39.0198 85.2432 39.0198 83.8302 39.0198 81.0012V66.1782Z" fill="white"/>
<path d="M39.0198 66.1782C39.0198 63.1482 39.0198 61.6362 39.6858 60.3432C40.3488 59.0532 41.5818 58.1712 44.0448 56.4132L56.5338 47.4912C58.2138 46.2912 59.0598 45.6882 60.0198 45.6882C60.9798 45.6882 61.8228 46.2882 63.5058 47.4912L75.9948 56.4102C78.4578 58.1712 79.6908 59.0502 80.3538 60.3432C81.0168 61.6362 81.0198 63.1482 81.0198 66.1752V81.0012C81.0198 83.8302 81.0198 85.2432 80.1408 86.1222C79.2618 87.0012 77.8488 87.0012 75.0198 87.0012H45.0198C42.1908 87.0012 40.7778 87.0012 39.8988 86.1222C39.0198 85.2432 39.0198 83.8302 39.0198 81.0012V66.1782Z" fill="#FF991F" fill-opacity="0.4"/>
<path d="M33.001 61.1608C33.001 61.9588 33.001 62.3608 33.253 62.4838C33.505 62.6068 33.823 62.3638 34.453 61.8688L56.317 44.8648C58.087 43.4878 58.972 42.8008 60.001 42.8008C61.03 42.8008 61.915 43.4908 63.685 44.8648L85.549 61.8688C86.179 62.3608 86.497 62.6068 86.749 62.4838C87.001 62.3608 87.001 61.9588 87.001 61.1608V59.9338C87.001 58.4938 87.001 57.7738 86.695 57.1498C86.389 56.5258 85.822 56.0818 84.685 55.1998L63.685 38.8648C61.915 37.4878 61.03 36.8008 60.001 36.8008C58.972 36.8008 58.087 37.4908 56.317 38.8648L35.317 55.1998C34.18 56.0818 33.61 56.5258 33.307 57.1498C33.004 57.7738 33.001 58.4938 33.001 59.9338V61.1608ZM61.501 68.9998H58.501C56.9097 68.9998 55.3836 69.6319 54.2583 70.7571C53.1331 71.8824 52.501 73.4085 52.501 74.9998V86.5498C52.501 86.7988 52.702 86.9998 52.951 86.9998H67.051C67.1703 86.9998 67.2848 86.9524 67.3692 86.868C67.4536 86.7836 67.501 86.6691 67.501 86.5498V74.9998C67.501 73.4085 66.8688 71.8824 65.7436 70.7571C64.6184 69.6319 63.0923 68.9998 61.501 68.9998Z" fill="#FF991F"/>
<path d="M76.4822 38.998H73.4822C72.6538 38.998 71.9822 39.6696 71.9822 40.498V49.498C71.9822 50.3265 72.6538 50.998 73.4822 50.998H76.4822C77.3106 50.998 77.9822 50.3265 77.9822 49.498V40.498C77.9822 39.6696 77.3106 38.998 76.4822 38.998Z" fill="#FF991F"/>
<circle opacity="0.1" cx="60" cy="60" r="60" fill="#FF991F"/>
</g>
</svg>
