<svg width="120" height="120" viewBox="0 0 120 120" fill="none" xmlns="http://www.w3.org/2000/svg">
<mask id="mask0_14380_13455" style="mask-type:alpha" maskUnits="userSpaceOnUse" x="0" y="0" width="120" height="120">
<circle cx="60" cy="60" r="60" fill="#00A2B9"/>
</mask>
<g mask="url(#mask0_14380_13455)">
<path opacity="0.1" d="M-134.157 79.0387L-137.647 67.7073V137.647H176.47V-15.8823L172.98 -8.85354C169.49 -1.82476 162.509 12.2328 155.529 14.1793C148.549 16.1258 141.568 5.96122 134.588 15.3127C127.607 24.6642 120.627 53.5318 113.647 62.5378C106.666 71.5439 99.6859 60.6883 92.7055 60.7994C85.7251 60.9105 78.7447 71.9883 71.7643 72.8956C64.7839 73.803 57.8035 64.54 50.8231 66.6732C43.8427 68.8063 36.8623 82.3357 29.8819 82.6424C22.9016 82.9491 15.9212 70.0332 8.94077 65.9694C1.96037 61.9056 -5.02002 66.6939 -12.0004 77.6776C-18.9808 88.6613 -25.9612 105.84 -32.9416 109.09C-39.922 112.339 -46.9024 101.659 -53.8828 92.0708C-60.8632 82.4831 -67.8435 73.9882 -74.8239 71.9378C-81.8043 69.8875 -88.7847 74.2818 -95.7651 85.9822C-102.746 97.6827 -109.726 116.689 -116.706 114.861C-123.687 113.033 -130.667 90.3702 -134.157 79.0387Z" fill="#229BD8"/>
<path d="M39.8662 76.9341C38.2931 78.7474 37.333 81.254 37.333 84.0005V88.6675H28V84.6675C28 80.9609 33.0398 77.8408 39.8662 76.9341ZM60 74.0005C69.5733 74.0005 77.333 78.4805 77.333 84.0005V88.6675H42.667V84.0005C42.667 78.4805 50.4267 74.0005 60 74.0005ZM80.1338 76.9341C86.9602 77.8408 92 80.9609 92 84.6675V88.6675H82.667V84.0005C82.667 81.254 81.7069 78.7474 80.1338 76.9341ZM41.333 56.6675C42.8263 56.6675 44.2131 57.0676 45.4131 57.7876C45.0132 61.6008 46.1335 65.3873 48.4268 68.3472C47.0934 70.9072 44.4263 72.6675 41.333 72.6675C39.2114 72.6674 37.177 71.8239 35.6768 70.3237C34.1765 68.8235 33.3331 66.7891 33.333 64.6675C33.333 62.5457 34.1765 60.5105 35.6768 59.0103C37.177 57.5101 39.2115 56.6676 41.333 56.6675ZM78.667 56.6675C80.7885 56.6676 82.823 57.5101 84.3232 59.0103C85.8235 60.5105 86.667 62.5457 86.667 64.6675C86.6669 66.7891 85.8235 68.8235 84.3232 70.3237C82.823 71.8239 80.7886 72.6674 78.667 72.6675C75.5737 72.6675 72.9066 70.9072 71.5732 68.3472C73.8981 65.3457 74.9776 61.564 74.5869 57.7876C75.7869 57.0676 77.1737 56.6675 78.667 56.6675ZM60 50.0005C62.4753 50.0005 64.8493 50.9837 66.5996 52.7339C68.3499 54.4841 69.3329 56.8583 69.333 59.3335C69.333 61.8088 68.3498 64.1828 66.5996 65.9331C64.8493 67.6834 62.4754 68.6675 60 68.6675C57.5246 68.6675 55.1507 67.6834 53.4004 65.9331C51.6502 64.1828 50.667 61.8088 50.667 59.3335C50.6671 56.8583 51.6501 54.4841 53.4004 52.7339C55.1507 50.9836 57.5247 50.0005 60 50.0005ZM48.9004 34.6675C50.6093 34.6676 52.2486 35.3458 53.457 36.5542C54.6654 37.7626 55.3437 39.4019 55.3438 41.1108C55.3438 49.0868 44.7415 50.6581 44.6777 50.6675V48.0005L44.4336 47.9907C42.6863 47.9302 41.0324 47.1859 39.8291 45.9175C38.6259 44.6491 37.9693 42.9585 38.001 41.2104C38.0326 39.4625 38.7498 37.7968 39.998 36.5728C41.2465 35.3487 42.9264 34.6647 44.6748 34.6675H48.9004ZM74.0107 32.0005C75.7787 32.0005 77.4744 32.7026 78.7246 33.9526C79.9749 35.2029 80.6777 36.8994 80.6777 38.6675C80.6776 40.4355 79.9748 42.1312 78.7246 43.3813C77.4744 44.6315 75.7788 45.3335 74.0107 45.3335H71.3438V49.3335C71.2695 49.323 59.3439 47.6215 59.3438 38.9819C59.3438 37.1304 60.0795 35.3546 61.3887 34.0454C62.6979 32.7362 64.4737 32.0005 66.3252 32.0005H74.0107Z" fill="url(#paint0_linear_14380_13455)"/>
<circle opacity="0.1" cx="60" cy="60" r="60" fill="#00A2B9"/>
</g>
<path d="M115.314 27.3137C118.314 24.3131 120 20.2435 120 16C120 11.7565 118.314 7.68687 115.314 4.68629C112.313 1.68571 108.243 0 104 0C99.7565 0 95.6869 1.68571 92.6863 4.68629C89.6857 7.68687 88 11.7565 88 16C88 20.2435 89.6857 24.3131 92.6863 27.3137C95.6869 30.3143 99.7565 32 104 32C108.243 32 112.313 30.3143 115.314 27.3137Z" fill="#5AA200"/>
<path d="M111.793 9.0215C112.009 9.11112 112.205 9.24247 112.37 9.40803C112.536 9.57317 112.667 9.76935 112.757 9.98533C112.846 10.2013 112.893 10.4329 112.893 10.6667C112.893 10.9005 112.846 11.1321 112.757 11.3481C112.667 11.564 112.536 11.7602 112.37 11.9254L101.704 22.592C101.538 22.7576 101.342 22.8889 101.126 22.9786C100.91 23.0682 100.679 23.1143 100.445 23.1143C100.211 23.1143 99.9796 23.0682 99.7636 22.9786C99.5476 22.8889 99.3514 22.7576 99.1863 22.592L95.6307 19.0365C95.2969 18.7027 95.1094 18.2499 95.1094 17.7778C95.1094 17.3057 95.2969 16.853 95.6307 16.5191C95.9645 16.1853 96.4173 15.9978 96.8894 15.9978C97.3615 15.9978 97.8142 16.1853 98.1481 16.5191L100.445 18.8196L109.853 9.40803C110.018 9.24247 110.214 9.11112 110.43 9.0215C110.646 8.93188 110.878 8.88574 111.112 8.88574C111.345 8.88574 111.577 8.93188 111.793 9.0215Z" fill="#F1F1F1"/>
<defs>
<linearGradient id="paint0_linear_14380_13455" x1="60" y1="32.0005" x2="60" y2="88.6675" gradientUnits="userSpaceOnUse">
<stop stop-color="#01C6E2"/>
<stop offset="1" stop-color="#007CA4"/>
</linearGradient>
</defs>
</svg>
