<svg width="120" height="120" viewBox="0 0 120 120" fill="none" xmlns="http://www.w3.org/2000/svg">
<circle cx="60" cy="60" r="60" fill="#EFEFEF"/>
<path d="M87 78C87.7957 78 88.5585 78.3163 89.1211 78.8789C89.6837 79.4415 90 80.2043 90 81C90 81.7957 89.6837 82.5585 89.1211 83.1211C88.5585 83.6837 87.7957 84 87 84H33C32.2044 84 31.4415 83.6837 30.8789 83.1211C30.3163 82.5585 30 81.7957 30 81C30 80.2043 30.3163 79.4415 30.8789 78.8789C31.4415 78.3163 32.2044 78 33 78H87ZM81 36C82.5913 36 84.117 36.6326 85.2422 37.7578C86.3674 38.883 87 40.4087 87 42V66C87 67.5913 86.3674 69.117 85.2422 70.2422C84.117 71.3674 82.5913 72 81 72H39C37.4087 72 35.883 71.3674 34.7578 70.2422C33.6326 69.117 33 67.5913 33 66V42C33 40.4087 33.6326 38.883 34.7578 37.7578C35.883 36.6326 37.4087 36 39 36H81ZM39 66H81V42H39V66Z" fill="#BDBDBD"/>
<circle cx="80" cy="80" r="18.1429" fill="#BDBDBD" stroke="#EFEFEF" stroke-width="3.71429"/>
<path d="M75 74.9993L85 84.9993" stroke="#EFEFEF" stroke-width="3.71429" stroke-linecap="round" stroke-linejoin="round"/>
<path d="M75 84.9993L85 74.9993" stroke="#EFEFEF" stroke-width="3.71429" stroke-linecap="round" stroke-linejoin="round"/>
</svg>
