<svg width="388" height="160" viewBox="0 0 388 160" fill="none" xmlns="http://www.w3.org/2000/svg">
<g clip-path="url(#clip0_30345_101906)">
<rect width="388" height="160" rx="16" fill="#FEEDEC"/>
<g opacity="0.5">
<rect opacity="0.4" width="24" height="6" rx="1.5" transform="matrix(-1 0 0 1 79 5)" fill="#DE350B"/>
<rect opacity="0.2" width="24" height="6" rx="1.5" transform="matrix(-1 0 0 1 70 -1)" fill="#DE350B"/>
<rect opacity="0.2" width="16.5" height="6" rx="1.5" transform="matrix(-1 0 0 1 67 11)" fill="#DE350B"/>
</g>
<g opacity="0.5">
<rect opacity="0.4" x="-13" y="80" width="24" height="6" rx="1.5" fill="#DE350B"/>
<rect opacity="0.32" x="8" y="68" width="12" height="6" rx="1.5" fill="#DE350B"/>
<rect opacity="0.2" x="-4" y="74" width="24" height="6" rx="1.5" fill="#DE350B"/>
<rect opacity="0.2" x="-1" y="86" width="16.5" height="6" rx="1.5" fill="#DE350B"/>
</g>
<path d="M295 58.0132L335.919 56.4844V160H295V58.0132Z" fill="#DE350B" fill-opacity="0.6"/>
<path d="M185.622 60.3033C187.324 54.2705 192.828 50.104 199.096 50.104H327.93C333.234 50.104 337.07 55.1712 335.63 60.2759L307.5 160H157.5L185.622 60.3033Z" fill="white"/>
<path d="M191.718 83.0906C192.179 81.3311 193.768 80.104 195.587 80.104H214.909C216.219 80.104 217.175 81.3431 216.843 82.6107L212.782 98.1174C212.321 99.8769 210.732 101.104 208.913 101.104H189.591C188.281 101.104 187.325 99.8649 187.657 98.5973L191.718 83.0906Z" fill="#EFEFEF"/>
<path d="M225.218 83.0906C225.679 81.3311 227.268 80.104 229.087 80.104H248.409C249.719 80.104 250.675 81.3431 250.343 82.6107L246.282 98.1174C245.821 99.8769 244.232 101.104 242.413 101.104H223.091C221.781 101.104 220.825 99.8649 221.157 98.5973L225.218 83.0906Z" fill="#EFEFEF"/>
<path d="M258.718 83.0906C259.179 81.3311 260.768 80.104 262.587 80.104H281.909C283.219 80.104 284.175 81.3431 283.843 82.6107L279.782 98.1174C279.321 99.8769 277.732 101.104 275.913 101.104H256.591C255.281 101.104 254.325 99.8649 254.657 98.5973L258.718 83.0906Z" fill="#EFEFEF"/>
<path d="M292.218 83.0906C292.679 81.3311 294.268 80.104 296.087 80.104H315.409C316.719 80.104 317.675 81.3431 317.343 82.6107L313.282 98.1174C312.821 99.8769 311.232 101.104 309.413 101.104H290.091C288.781 101.104 287.825 99.8649 288.157 98.5973L292.218 83.0906Z" fill="#EFEFEF"/>
<path d="M183.718 110.091C184.179 108.331 185.768 107.104 187.587 107.104H206.909C208.219 107.104 209.175 108.343 208.843 109.611L204.782 125.117C204.321 126.877 202.732 128.104 200.913 128.104H181.591C180.281 128.104 179.325 126.865 179.657 125.597L183.718 110.091Z" fill="#EFEFEF"/>
<path d="M217.218 110.091C217.679 108.331 219.268 107.104 221.087 107.104H240.409C241.719 107.104 242.675 108.343 242.343 109.611L238.282 125.117C237.821 126.877 236.232 128.104 234.413 128.104H215.091C213.781 128.104 212.825 126.865 213.157 125.597L217.218 110.091Z" fill="#EFEFEF"/>
<path d="M250.718 110.091C251.179 108.331 252.768 107.104 254.587 107.104H273.909C275.219 107.104 276.175 108.343 275.843 109.611L271.782 125.117C271.321 126.877 269.732 128.104 267.913 128.104H248.591C247.281 128.104 246.325 126.865 246.657 125.597L250.718 110.091Z" fill="#EFEFEF"/>
<path d="M284.218 110.091C284.679 108.331 286.268 107.104 288.087 107.104H307.409C308.719 107.104 309.675 108.343 309.343 109.611L305.282 125.117C304.821 126.877 303.232 128.104 301.413 128.104H282.091C280.781 128.104 279.825 126.865 280.157 125.597L284.218 110.091Z" fill="#EFEFEF"/>
<path d="M175.718 137.091C176.179 135.331 177.768 134.104 179.587 134.104H196.317C198.938 134.104 200.851 136.582 200.187 139.117L196.782 152.117C196.321 153.877 194.732 155.104 192.913 155.104H176.183C173.562 155.104 171.649 152.626 172.313 150.091L175.718 137.091Z" fill="#F25043" fill-opacity="0.4"/>
<path d="M209.218 137.091C209.679 135.331 211.268 134.104 213.087 134.104H232.409C233.719 134.104 234.675 135.343 234.343 136.611L230.282 152.117C229.821 153.877 228.232 155.104 226.413 155.104H207.091C205.781 155.104 204.825 153.865 205.157 152.597L209.218 137.091Z" fill="#EFEFEF"/>
<path d="M242.718 137.091C243.179 135.331 244.768 134.104 246.587 134.104H265.909C267.219 134.104 268.175 135.343 267.843 136.611L263.782 152.117C263.321 153.877 261.732 155.104 259.913 155.104H240.591C239.281 155.104 238.325 153.865 238.657 152.597L242.718 137.091Z" fill="#EFEFEF"/>
<path d="M276.218 137.091C276.679 135.331 278.268 134.104 280.087 134.104H299.409C300.719 134.104 301.675 135.343 301.343 136.611L297.282 152.117C296.821 153.877 295.232 155.104 293.413 155.104H274.091C272.781 155.104 271.825 153.865 272.157 152.597L276.218 137.091Z" fill="#EFEFEF"/>
<path fill-rule="evenodd" clip-rule="evenodd" d="M332.293 72.104H182.293L185.622 60.3033C187.323 54.2705 192.828 50.104 199.096 50.104H327.93C333.234 50.104 337.069 55.1712 335.629 60.2759L332.293 72.104Z" fill="#F8C8BF"/>
<ellipse cx="4.3" cy="6" rx="4.3" ry="6" transform="matrix(0.9746 0.223953 -0.308426 0.951248 205.961 52)" fill="#DE350B" fill-opacity="0.2"/>
<ellipse cx="4.3" cy="6" rx="4.3" ry="6" transform="matrix(0.9746 0.223953 -0.308426 0.951248 237.059 52)" fill="#DE350B" fill-opacity="0.2"/>
<ellipse cx="4.3" cy="6" rx="4.3" ry="6" transform="matrix(0.9746 0.223953 -0.308426 0.951248 268.16 52)" fill="#DE350B" fill-opacity="0.2"/>
<ellipse cx="4.3" cy="6" rx="4.3" ry="6" transform="matrix(0.9746 0.223953 -0.308426 0.951248 299.258 52)" fill="#DE350B" fill-opacity="0.2"/>
<path d="M220 47.6044L220 50.1044L225 50.1036L225 47.6036L220 47.6044ZM205.5 58.2391C205.5 59.6198 206.619 60.7393 208 60.7395C209.38 60.7397 210.5 59.6205 210.5 58.2398L205.5 58.2391ZM225 47.6036C225 45.2744 224.762 43.3262 224.249 41.7789C223.74 40.2411 222.864 38.8318 221.406 38.0577C219.902 37.2594 218.318 37.4182 217.024 37.9091C215.758 38.3896 214.577 39.2469 213.537 40.2256C211.443 42.1948 209.462 45.0871 208.002 48.2051C206.544 51.3199 205.5 54.8849 205.5 58.2391L210.5 58.2398C210.5 55.8439 211.27 53.017 212.53 50.3251C213.789 47.6365 215.432 45.3074 216.962 43.8678C217.734 43.1421 218.365 42.7481 218.798 42.5838C219.204 42.43 219.205 42.5506 219.061 42.474C218.963 42.4216 219.219 42.4938 219.503 43.351C219.784 44.1986 220 45.5587 220 47.6044L225 47.6036Z" fill="#25262B"/>
<path d="M251 47.6044L251 50.1044L256 50.1036L256 47.6036L251 47.6044ZM236.5 58.2391C236.5 59.6198 237.619 60.7393 239 60.7395C240.38 60.7397 241.5 59.6205 241.5 58.2398L236.5 58.2391ZM256 47.6036C256 45.2744 255.762 43.3262 255.249 41.7789C254.74 40.2411 253.864 38.8318 252.406 38.0577C250.902 37.2594 249.318 37.4182 248.024 37.9091C246.758 38.3896 245.577 39.2469 244.537 40.2256C242.443 42.1948 240.462 45.0871 239.002 48.2051C237.544 51.3199 236.5 54.8849 236.5 58.2391L241.5 58.2398C241.5 55.8439 242.27 53.017 243.53 50.3251C244.789 47.6365 246.432 45.3074 247.962 43.8678C248.734 43.1421 249.365 42.7481 249.798 42.5838C250.204 42.43 250.205 42.5506 250.061 42.474C249.963 42.4216 250.219 42.4938 250.503 43.351C250.784 44.1986 251 45.5587 251 47.6044L256 47.6036Z" fill="#25262B"/>
<path d="M282 47.6044L282 50.1044L287 50.1036L287 47.6036L282 47.6044ZM267.5 58.2391C267.5 59.6198 268.619 60.7393 270 60.7395C271.38 60.7397 272.5 59.6205 272.5 58.2398L267.5 58.2391ZM287 47.6036C287 45.2744 286.762 43.3262 286.249 41.7789C285.74 40.2411 284.864 38.8318 283.406 38.0577C281.902 37.2594 280.318 37.4182 279.024 37.9091C277.758 38.3896 276.577 39.2469 275.537 40.2256C273.443 42.1948 271.462 45.0871 270.002 48.2051C268.544 51.3199 267.5 54.8849 267.5 58.2391L272.5 58.2398C272.5 55.8439 273.27 53.017 274.53 50.3251C275.789 47.6365 277.432 45.3074 278.962 43.8678C279.734 43.1421 280.365 42.7481 280.798 42.5838C281.204 42.43 281.205 42.5506 281.061 42.474C280.963 42.4216 281.219 42.4938 281.503 43.351C281.784 44.1986 282 45.5587 282 47.6044L287 47.6036Z" fill="#25262B"/>
<path d="M313 47.6044L313 50.1044L318 50.1036L318 47.6036L313 47.6044ZM298.5 58.2391C298.5 59.6198 299.619 60.7393 301 60.7395C302.38 60.7397 303.5 59.6205 303.5 58.2398L298.5 58.2391ZM318 47.6036C318 45.2744 317.762 43.3262 317.249 41.7789C316.74 40.2411 315.864 38.8318 314.406 38.0577C312.902 37.2594 311.318 37.4182 310.024 37.9091C308.758 38.3896 307.577 39.2469 306.537 40.2256C304.443 42.1948 302.462 45.0871 301.002 48.2051C299.544 51.3199 298.5 54.8849 298.5 58.2391L303.5 58.2398C303.5 55.8439 304.27 53.017 305.53 50.3251C306.789 47.6365 308.432 45.3074 309.962 43.8678C310.734 43.1421 311.365 42.7481 311.798 42.5838C312.204 42.43 312.205 42.5506 312.061 42.474C311.963 42.4216 312.219 42.4938 312.503 43.351C312.784 44.1986 313 45.5587 313 47.6044L318 47.6036Z" fill="#25262B"/>
<path fill-rule="evenodd" clip-rule="evenodd" d="M328.072 87.0704C327.387 87.0237 326.696 87 326 87C309.431 87 296 100.431 296 117C296 128.562 302.541 138.597 312.125 143.605L328.072 87.0704Z" fill="white"/>
<path fill-rule="evenodd" clip-rule="evenodd" d="M312.125 143.605C316.274 145.774 320.994 147 326 147C342.569 147 356 133.568 356 117C356 101.128 343.674 88.1345 328.072 87.0703L312.125 143.605Z" fill="#FEEDEC"/>
<circle cx="326" cy="117" r="24" fill="#BDBDBD"/>
<path fill-rule="evenodd" clip-rule="evenodd" d="M315.467 95.429C307.492 99.3304 302 107.524 302 117C302 130.255 312.745 141 326 141C327.025 141 328.036 140.936 329.027 140.811C316.235 139.261 306.323 128.365 306.323 115.154C306.323 108.017 309.216 101.555 313.893 96.8778C314.398 96.3736 314.922 95.8902 315.467 95.429Z" fill="#25262B" fill-opacity="0.08"/>
<path d="M325.078 103.154V118.154L335.078 123.154" stroke="white" stroke-width="5.21739" stroke-linecap="round" stroke-linejoin="round"/>
<path opacity="0.2" fill-rule="evenodd" clip-rule="evenodd" d="M333.835 94.3083C335.733 94.9636 337.523 95.8503 339.172 96.9346L313.281 137.357C311.591 136.299 310.041 135.035 308.668 133.602L333.835 94.3083Z" fill="url(#paint0_linear_30345_101906)"/>
<path opacity="0.2" fill-rule="evenodd" clip-rule="evenodd" d="M302.91 123.566L322.307 93.2825C323.511 93.0965 324.745 93 326.001 93C327.14 93 328.26 93.0793 329.357 93.2328L305.816 129.988C304.55 128.025 303.563 125.866 302.91 123.566Z" fill="url(#paint1_linear_30345_101906)"/>
<path d="M150.2 79C145.671 79 142 82.6713 142 87.2V118.4C142 122.929 145.671 126.6 150.2 126.6H163.095L166.698 130.924C168.937 133.61 173.063 133.61 175.302 130.924L178.905 126.6H191.8C196.329 126.6 200 122.929 200 118.4V87.2C200 82.6713 196.329 79 191.8 79H150.2Z" fill="#DE350B" stroke="white" stroke-width="6"/>
<rect width="24.4102" height="4.78146" rx="2.39073" transform="matrix(0.712531 0.70164 -0.712531 0.70164 164.012 92.4001)" fill="white"/>
<rect width="24.4102" height="4.78146" rx="2.39073" transform="matrix(0.712531 -0.70164 -0.712531 -0.70164 164.012 113.2)" fill="white"/>
<path d="M59.4883 124.5C70.1392 121.1 78.4852 118.5 78.4852 118.5L93.7629 122.442C118.346 128.785 133.037 153.961 126.466 178.484L123.194 190.695L45.2282 169.804L22.9852 160.5C22.9852 160.5 35.9913 132 59.4883 124.5Z" fill="#1A4E66"/>
<path d="M59.9883 154C61.4883 149.5 64.4646 143.563 68.5265 140.469" stroke="#133B4E" stroke-width="2.28349" stroke-linecap="round"/>
<path d="M113.52 164.682C113.52 160.682 113.52 158.682 110.02 155.182" stroke="#133B4E" stroke-width="2.28349" stroke-linecap="round"/>
<path fill-rule="evenodd" clip-rule="evenodd" d="M96.3407 78.4403C98.9783 68.5965 109.097 62.7548 118.94 65.3924C128.989 68.0851 134.827 78.5486 131.84 88.5142L126.241 107.193C123.764 115.459 115.841 120.863 107.241 120.154L107.08 120.141L106.252 126.656C105.397 133.381 98.8987 137.88 92.3031 136.312C83.2331 134.156 77.2473 125.509 78.4229 116.261L78.7042 114.048L81.1344 94.9296C79.7909 93.8384 78.7668 92.3288 78.2846 90.5292C77.0678 85.9879 79.7628 81.3201 84.304 80.1033C88.5845 78.9563 92.9774 81.2848 94.4868 85.359L96.3407 78.4403Z" fill="#FF9BA5"/>
<path d="M83.3384 83.7598C85.2581 82.5774 89.0102 81.8223 90.8946 87.0336" stroke="#D4737C" stroke-width="1.71262" stroke-linecap="round"/>
<ellipse cx="122.696" cy="92.1302" rx="2.39769" ry="3.67646" transform="rotate(9.7725 122.696 92.1302)" fill="white"/>
<ellipse cx="107.809" cy="90.4153" rx="2.39769" ry="3.67646" transform="rotate(9.7725 107.809 90.4153)" fill="white"/>
<ellipse cx="2.04652" cy="2.40055" rx="2.04652" ry="2.40055" transform="matrix(0.987497 0.157637 -0.182706 0.983168 122.207 90.5498)" fill="#25262B"/>
<ellipse cx="2.04652" cy="2.40055" rx="2.04652" ry="2.40055" transform="matrix(0.987497 0.157637 -0.182706 0.983168 107.297 89)" fill="#25262B"/>
<path d="M113.941 95.8882C117.338 96.691 122.565 98.9217 116.305 101.421" stroke="#D4737C" stroke-width="1.71262" stroke-linecap="round"/>
<path d="M80.457 100.586L81.1528 94.9195C82.8271 95.6944 84.6943 95.9534 86.5163 95.6634L86.8189 95.6152L80.457 100.586Z" fill="#D5737C"/>
<path fill-rule="evenodd" clip-rule="evenodd" d="M106.083 127.644C105.823 128.848 105.378 129.97 104.784 130.983L91.625 115.393L97.7769 118.284C99.9036 119.283 102.203 119.863 104.549 119.991L107.085 120.129L107.083 120.141L107.081 120.141L107.023 120.598L106.083 127.644Z" fill="#D5737C"/>
<path d="M88.5323 61.3456C90.4084 54.0268 97.8987 49.6477 105.197 51.6032L125.457 57.0319C133.636 59.2235 139.032 67.0079 138.214 75.4362C138.045 77.1739 137.55 78.864 136.753 80.4176L133.8 86.1804C133.03 87.6815 131.278 88.3927 129.68 87.8522C128.683 87.5149 127.898 86.7355 127.554 85.7409L125.867 80.866C124.774 77.7064 122.794 74.9284 120.164 72.864L117.497 70.77C116.424 76.6598 112.217 81.4914 106.53 83.3624L100.707 85.2781C99.3779 85.7155 98.2407 86.5996 97.4889 87.7801L96.4021 89.4867C95.9454 90.2038 94.8373 89.9101 94.7958 89.061L94.7402 87.9253C94.3422 79.7859 83.7202 76.9708 79.3433 83.8447L77.0658 75.0174C75.1865 67.7334 81.0324 60.7632 88.5323 61.3456Z" fill="#25262B"/>
<path d="M100.988 103.912C105.5 105.5 108 107 110.922 111.193" stroke="#D4737C" stroke-width="2.28349" stroke-linecap="round"/>
<path d="M120.879 82.5564C125.052 84.9658 128.281 84.8527 129.374 84.495" stroke="#25262B" stroke-width="3.42524" stroke-linecap="round"/>
<path d="M104.793 81.2017C109.448 82.4489 112.538 81.5038 113.501 80.8754" stroke="#25262B" stroke-width="3.42524" stroke-linecap="round"/>
</g>
<defs>
<linearGradient id="paint0_linear_30345_101906" x1="348.38" y1="78.0422" x2="317.137" y2="124.969" gradientUnits="userSpaceOnUse">
<stop stop-color="white" stop-opacity="0.63"/>
<stop offset="1" stop-color="white" stop-opacity="0"/>
</linearGradient>
<linearGradient id="paint1_linear_30345_101906" x1="339.15" y1="73.4267" x2="307.907" y2="120.354" gradientUnits="userSpaceOnUse">
<stop offset="0.197917" stop-color="white" stop-opacity="0.63"/>
<stop offset="1" stop-color="white" stop-opacity="0"/>
</linearGradient>
<clipPath id="clip0_30345_101906">
<rect width="388" height="160" rx="16" fill="white"/>
</clipPath>
</defs>
</svg>
