<svg width="298" height="174" viewBox="0 0 298 174" fill="none" xmlns="http://www.w3.org/2000/svg">

    <defs>
        <filter id="filter0_f_21721_187742" x="11.5652" y="130.875" width="287.243" height="286.458"
            filterUnits="userSpaceOnUse" color-interpolation-filters="sRGB">
            <feFlood flood-opacity="0" result="BackgroundImageFix" />
            <feBlend mode="normal" in="SourceGraphic" in2="BackgroundImageFix" result="shape" />
            <feGaussianBlur stdDeviation="8" result="effect1_foregroundBlur_21721_187742" />
        </filter>
        <filter id="filter1_f_21721_187742" x="128.174" y="130.875" width="287.243" height="286.458"
            filterUnits="userSpaceOnUse" color-interpolation-filters="sRGB">
            <feFlood flood-opacity="0" result="BackgroundImageFix" />
            <feBlend mode="normal" in="SourceGraphic" in2="BackgroundImageFix" result="shape" />
            <feGaussianBlur stdDeviation="8" result="effect1_foregroundBlur_21721_187742" />
        </filter>
        <filter id="filter2_f_21721_187742" x="-118" y="130.875" width="287.243" height="286.458"
            filterUnits="userSpaceOnUse" color-interpolation-filters="sRGB">
            <feFlood flood-opacity="0" result="BackgroundImageFix" />
            <feBlend mode="normal" in="SourceGraphic" in2="BackgroundImageFix" result="shape" />
            <feGaussianBlur stdDeviation="8" result="effect1_foregroundBlur_21721_187742" />
        </filter>
        <linearGradient id="paint0_linear_21721_187742" x1="148.813" y1="117.167" x2="148.813" y2="172.708"
            gradientUnits="userSpaceOnUse">
            <stop stop-color="#D9D9D9" />
            <stop offset="1" stop-color="white" />
        </linearGradient>
        <clipPath id="clip0_21721_187742">
            <rect width="298" height="174" fill="white" />
        </clipPath>
    </defs>
    <g clip-path="url(#clip0_21721_187742)">
        <ellipse cx="148.813" cy="306.396" rx="189.813" ry="189.229" fill="url(#paint0_linear_21721_187742)" />
        <g opacity="0.7" filter="url(#filter0_f_21721_187742)">
            <ellipse cx="155.187" cy="274.104" rx="127.622" ry="127.229" fill="white" />
        </g>
        <g opacity="0.7" filter="url(#filter1_f_21721_187742)">
            <ellipse cx="271.796" cy="274.104" rx="127.622" ry="127.229" fill="white" />
        </g>
        <g opacity="0.7" filter="url(#filter2_f_21721_187742)">
            <ellipse cx="25.6217" cy="274.104" rx="127.622" ry="127.229" fill="white" />
        </g>
        <path
            d="M198 59.7931C198 55.3748 194.418 51.7931 190 51.7931H152C149.791 51.7931 148 50.0022 148 47.7931V46C148 41.5817 144.418 38 140 38H106C101.582 38 98 41.5817 98 46V130C98 134.418 101.582 138 106 138H190C194.418 138 198 134.418 198 130V59.7931Z"
            fill="#666666" />
        <path opacity="0.4"
            d="M98 75H138C140.209 75 142 73.2091 142 71V69C142 64.5817 145.582 61 150 61H198V130C198 134.418 194.418 138 190 138H106C101.582 138 98 134.418 98 130V75Z"
            fill="#25262B" />
        <path
            d="M109.527 93.847C111.385 81.2858 112.117 73.8523 106.203 63.7618C104.255 60.4391 99.6776 55.5677 96 54.237C92.1529 52.845 87.4519 52.7654 83.7729 54.237C79.0473 56.1272 69.2314 59.5854 66.1079 63.7618C63.6571 67.0386 69.1152 74.0323 71.7006 76.1066C73.3116 77.399 78.5778 81.3594 80.9502 80.4324C83.5476 79.4175 84.0671 74.816 83.7729 72.5475C83.1132 67.4607 80.1628 62.2737 77.5649 57.9209C73.5 43.0002 56.5 42.5002 49 45.5002"
            stroke="#BDBDBD" stroke-width="2" stroke-linecap="round" stroke-dasharray="6 6" />
        <ellipse cx="11.65" cy="6.78711" rx="11.65" ry="6.78711"
            transform="matrix(0.966125 -0.258076 0.259564 0.965726 25.5748 33.1697)" fill="#666666" />
        <ellipse opacity="0.6" cx="5.56054" cy="9.07622" rx="5.56054" ry="9.07622"
            transform="matrix(0.854842 -0.518888 0.533805 0.845607 21.8058 24.7131)" fill="#E6E6E6" />
        <ellipse opacity="0.8" cx="5.59711" cy="9.1052" rx="5.59711" ry="9.1052"
            transform="matrix(-0.975642 -0.21937 -0.242493 0.970153 47.4331 20.249)" fill="#E6E6E6" />
        <path
            d="M250.704 27.5749C245.382 24.8339 241.592 23.5485 237.622 22.7944C226.782 20.7355 215.001 22.4314 208.071 30.9989V30.9989C205.502 34.175 203.507 38.1305 203.71 42.0773C203.97 47.1467 205.122 54.4576 208.071 58.7581C210.385 62.1323 218.792 59.2545 221.599 57.4894C223.348 56.3896 228.814 52.7086 228.704 50.1707C228.584 47.392 224.387 45.4092 222.139 44.9506C217.098 43.9223 211.219 45.0216 206.247 46.0591C197.783 47.8248 192.29 51.6199 186.064 57.5716C181.683 61.7589 179.23 73.5998 182.469 80.0581"
            stroke="#BDBDBD" stroke-width="2" stroke-linecap="round" stroke-dasharray="6 6" />
        <ellipse cx="11.65" cy="6.78711" rx="11.65" ry="6.78711"
            transform="matrix(-0.966125 -0.258076 -0.259564 0.965726 278.142 33.1697)" fill="#666666" />
        <ellipse opacity="0.6" cx="5.56054" cy="9.07622" rx="5.56054" ry="9.07622"
            transform="matrix(-0.854842 -0.518888 -0.533805 0.845607 281.911 24.7131)" fill="#E6E6E6" />
        <ellipse opacity="0.8" cx="5.59711" cy="9.1052" rx="5.59711" ry="9.1052"
            transform="matrix(0.975642 -0.21937 0.242493 0.970153 256.284 20.249)" fill="#E6E6E6" />
        <path
            d="M88.0312 90.6481C86.9844 85.6757 90.7782 81 95.8596 81H144C146.209 81 148 79.2091 148 77V75C148 70.5817 151.582 67 156 67H204.858C210.03 67 213.843 71.8333 212.638 76.8628L199.469 131.863C198.608 135.462 195.39 138 191.689 138H104.491C100.708 138 97.4421 135.35 96.6628 131.648L88.0312 90.6481Z"
            fill="#BDBDBD" />
        <rect opacity="0.4" x="108" y="126" width="32" height="2" rx="1" fill="#666666" />
    </g>
</svg>