<svg width="300" height="160" viewBox="0 0 300 160" fill="none" xmlns="http://www.w3.org/2000/svg">
<defs>
<linearGradient id="paint0_linear_2951_20064" x1="208.243" y1="62.7961" x2="174.397" y2="113.634" gradientUnits="userSpaceOnUse">
<stop stop-color="white" stop-opacity="0.63"/>
<stop offset="1" stop-color="white" stop-opacity="0"/>
</linearGradient>
<linearGradient id="paint1_linear_2951_20064" x1="199.243" y1="56.7961" x2="165.397" y2="107.634" gradientUnits="userSpaceOnUse">
<stop offset="0.197917" stop-color="white" stop-opacity="0.63"/>
<stop offset="1" stop-color="white" stop-opacity="0"/>
</linearGradient>
<clipPath id="clip0_2951_20064">
<rect width="300" height="160" rx="16" fill="white"/>
</clipPath>
</defs>
<g clip-path="url(#clip0_2951_20064)">
<rect width="300" height="160" rx="16" fill="#FEEDEC"/>
<g opacity="0.5">
<rect opacity="0.4" width="24" height="6" rx="1.5" transform="matrix(-1 0 0 1 260 5)" fill="#DE350B"/>
<rect opacity="0.2" width="24" height="6" rx="1.5" transform="matrix(-1 0 0 1 251 -1)" fill="#DE350B"/>
<rect opacity="0.2" width="16.5" height="6" rx="1.5" transform="matrix(-1 0 0 1 248 11)" fill="#DE350B"/>
</g>
<circle cx="112.691" cy="135.313" r="21.6932" fill="#EF937E"/>
<circle cx="93.2814" cy="150.156" r="19.4097" fill="#EF937E"/>
<circle cx="72.1591" cy="162.144" r="14.2718" fill="#EF937E"/>
<path d="M96.7067 134.171H130.959V166.14H96.7067V134.171Z" fill="#EF937E"/>
<mask id="path-9-outside-1_2951_20064" maskUnits="userSpaceOnUse" x="114.542" y="19.5645" width="127" height="147" fill="black">
<rect fill="white" x="114.542" y="19.5645" width="127" height="147"/>
<path d="M119.542 38.2654C119.542 30.6986 125.676 24.5645 133.243 24.5645H222.299C229.866 24.5645 236 30.6986 236 38.2654V166.141H119.542V38.2654Z"/>
</mask>
<path d="M119.542 38.2654C119.542 30.6986 125.676 24.5645 133.243 24.5645H222.299C229.866 24.5645 236 30.6986 236 38.2654V166.141H119.542V38.2654Z" fill="white"/>
<path d="M114.975 38.2654C114.975 28.1763 123.154 19.9975 133.243 19.9975H222.299C232.388 19.9975 240.567 28.1763 240.567 38.2654H231.433C231.433 33.2209 227.344 29.1314 222.299 29.1314H133.243C128.198 29.1314 124.109 33.2209 124.109 38.2654H114.975ZM236 166.141H119.542H236ZM114.975 166.141V38.2654C114.975 28.1763 123.154 19.9975 133.243 19.9975V29.1314C128.198 29.1314 124.109 33.2209 124.109 38.2654V166.141H114.975ZM222.299 19.9975C232.388 19.9975 240.567 28.1763 240.567 38.2654V166.141H231.433V38.2654C231.433 33.2209 227.344 29.1314 222.299 29.1314L222.299 19.9975Z" fill="#DE350B" fill-opacity="0.2" mask="url(#path-9-outside-1_2951_20064)"/>
<path d="M183.062 136.574L179.982 137.774C178.872 138.19 177.648 138.19 176.537 137.774L173.458 136.574C165.658 133.516 158.958 128.182 154.229 121.266C149.501 114.35 146.962 106.171 146.943 97.7934V83.2834C152.854 84.1258 158.883 83.3584 164.394 81.062C169.906 78.7656 174.696 75.0252 178.26 70.2349C184.784 79.7342 195.588 84.2229 209.576 83.2834V97.7934C209.557 106.171 207.018 114.35 202.29 121.266C197.561 128.182 190.862 133.516 183.062 136.574Z" fill="#00A2B9" stroke="#00A2B9" stroke-opacity="0.2" stroke-width="9.13398" stroke-linecap="round" stroke-linejoin="round"/>
<path opacity="0.2" d="M193.396 79.0005H200.999L153.603 153H145.999L193.396 79.0005Z" fill="url(#paint0_linear_2951_20064)"/>
<path opacity="0.2" d="M184.396 73.0005H191.999L144.603 147H136.999L184.396 73.0005Z" fill="url(#paint1_linear_2951_20064)"/>
<path opacity="0.1" fill-rule="evenodd" clip-rule="evenodd" d="M178.037 138.081C193.067 128.264 202.999 111.292 202.999 92.0005C202.999 89.0271 202.763 86.1087 202.309 83.2632C204.623 83.4456 207.047 83.4532 209.576 83.2833V97.7933C209.557 106.171 207.018 114.35 202.289 121.266C197.561 128.182 190.861 133.516 183.061 136.574L179.982 137.774C179.356 138.009 178.694 138.111 178.037 138.081Z" fill="#25262B"/>
<path d="M186.904 104.487C186.904 103.227 185.88 102.203 184.62 102.203H183.479V98.7781C183.479 95.6303 180.918 93.0693 177.77 93.0693C174.622 93.0693 172.061 95.6303 172.061 98.7781V102.203H170.919C169.66 102.203 168.636 103.227 168.636 104.487V113.621C168.636 114.88 169.66 115.904 170.919 115.904H184.62C185.88 115.904 186.904 114.88 186.904 113.621V104.487ZM174.345 98.7781C174.345 96.8896 175.882 95.3528 177.77 95.3528C179.658 95.3528 181.195 96.8896 181.195 98.7781V102.203H174.345V98.7781Z" fill="white"/>
<circle cx="211.999" cy="91.0005" r="18" fill="#DE350B" stroke="white" stroke-width="4"/>
<path d="M212 79.334C205.583 79.334 200.333 84.584 200.333 91.0007C200.333 97.4173 205.583 102.667 212 102.667C218.417 102.667 223.667 97.4173 223.667 91.0007C223.667 84.584 218.417 79.334 212 79.334ZM202.667 91.0007C202.667 85.8673 206.867 81.6673 212 81.6673C214.1 81.6673 216.083 82.3673 217.717 83.6507L204.65 96.7173C203.367 95.084 202.667 93.1007 202.667 91.0007ZM212 100.334C209.9 100.334 207.917 99.634 206.283 98.3507L219.35 85.284C220.633 86.9173 221.333 88.9007 221.333 91.0007C221.333 96.134 217.133 100.334 212 100.334Z" fill="white"/>
<path d="M158.361 24.5645H197.18L195.649 27.6281C194.488 29.9489 192.116 31.4149 189.521 31.4149H166.02C163.425 31.4149 161.053 29.9489 159.893 27.6281L158.361 24.5645Z" fill="#F8C8BF"/>
<path d="M-1.47443 113.067L32.3778 122.138C56.7412 128.666 71.1995 153.709 64.6713 178.072L61.2891 190.695L-16.6769 169.804L-1.47443 113.067Z" fill="#1A4E66"/>
<path fill-rule="evenodd" clip-rule="evenodd" d="M34.4335 78.4401C37.0712 68.5963 47.1893 62.7545 57.0331 65.3922C67.0823 68.0848 72.9199 78.5483 69.9328 88.5139L64.3341 107.193C61.8566 115.458 53.9336 120.863 45.334 120.154L45.174 120.141L44.3459 126.656C43.491 133.381 36.9925 137.879 30.3969 136.312C21.3268 134.156 15.341 125.509 16.5166 116.26L16.7979 114.047L19.2282 94.9288C17.885 93.8377 16.8611 92.3282 16.3789 90.5288C15.1621 85.9876 17.8571 81.3197 22.3983 80.1029C26.678 78.9562 31.0701 81.2836 32.5803 85.3564L34.4335 78.4401Z" fill="#FF9BA5"/>
<path d="M21.4311 83.7596C23.3508 82.5771 27.1029 81.822 28.9873 87.0334" stroke="#D4737C" stroke-width="1.71262" stroke-linecap="round"/>
<ellipse cx="60.7893" cy="92.1297" rx="2.39769" ry="3.67646" transform="rotate(9.7725 60.7893 92.1297)" fill="white"/>
<ellipse cx="45.902" cy="90.4149" rx="2.39769" ry="3.67646" transform="rotate(9.7725 45.902 90.4149)" fill="white"/>
<ellipse cx="2.04652" cy="2.40055" rx="2.04652" ry="2.40055" transform="matrix(0.987497 0.157637 -0.182706 0.983168 58.8319 90.0522)" fill="#25262B"/>
<ellipse cx="2.04652" cy="2.40055" rx="2.04652" ry="2.40055" transform="matrix(0.987497 0.157637 -0.182706 0.983168 43.9223 88.502)" fill="#25262B"/>
<path d="M52.0371 95.8877C55.4333 96.6906 60.6606 98.9212 54.4006 101.421" stroke="#D4737C" stroke-width="1.71262" stroke-linecap="round"/>
<path d="M18.5496 100.585L19.2453 94.9193C20.9197 95.6942 22.7868 95.9531 24.6089 95.6631L24.9115 95.615L18.5496 100.585Z" fill="#D5737C"/>
<path fill-rule="evenodd" clip-rule="evenodd" d="M44.1756 127.648C43.9152 128.851 43.4705 129.971 42.8769 130.983L29.7177 115.393L35.8696 118.284C37.9963 119.283 40.2959 119.863 42.6422 119.991L45.1777 120.129L45.1761 120.141L45.1737 120.141L45.1232 120.539L44.1756 127.648Z" fill="#D5737C"/>
<path d="M26.6267 61.3451C28.5027 54.0263 35.9931 49.6473 43.2911 51.6028L63.551 57.0314C71.7304 59.2231 77.1261 67.0074 76.308 75.4358C76.1393 77.1734 75.6438 78.8635 74.8476 80.4171L71.8941 86.1799C71.1247 87.681 69.3721 88.3922 67.7743 87.8517C66.7774 87.5144 65.9926 86.735 65.6484 85.7404L63.9617 80.8655C62.8685 77.7059 60.8886 74.9279 58.2586 72.8635L55.5909 70.7695C54.5188 76.6593 50.311 81.4909 44.6243 83.3619L38.8018 85.2776C37.4722 85.715 36.335 86.5991 35.5832 87.7797L34.4964 89.4863C34.0398 90.2034 32.9316 89.9096 32.8901 89.0605L32.8346 87.9248C32.4366 79.7854 21.8145 76.9703 17.4376 83.8442L15.1601 75.0169C13.2808 67.7329 19.1267 60.7627 26.6267 61.3451Z" fill="#25262B"/>
<path d="M39.391 104.056C44.1865 105.057 47.0409 106.77 49.3244 111.337" stroke="#D4737C" stroke-width="2.28349" stroke-linecap="round"/>
<path d="M58.9724 82.5562C63.1456 84.9656 66.3749 84.8525 67.4679 84.4948" stroke="#25262B" stroke-width="3.42524" stroke-linecap="round"/>
<path d="M42.8853 81.2012C47.54 82.4484 50.6299 81.5033 51.5931 80.8749" stroke="#25262B" stroke-width="3.42524" stroke-linecap="round"/>
<g opacity="0.5">
<rect opacity="0.4" x="273" y="139" width="24" height="6" rx="1.5" fill="#DE350B"/>
<rect opacity="0.32" x="294" y="127" width="12" height="6" rx="1.5" fill="#DE350B"/>
<rect opacity="0.2" x="282" y="133" width="24" height="6" rx="1.5" fill="#DE350B"/>
<rect opacity="0.2" x="285" y="145" width="16.5" height="6" rx="1.5" fill="#DE350B"/>
</g>
</g>
</svg>
