<svg width="300" height="161" viewBox="0 0 300 161" fill="none" xmlns="http://www.w3.org/2000/svg">
<g clip-path="url(#clip0_26270_167104)">
<rect y="0.5" width="300" height="160" rx="16" fill="#FEEDEC"/>
<rect x="286" y="97.5" width="14" height="64" fill="#F0C1B8"/>
<path d="M9 150L55 129.377L105.5 122.5L150 85.5L309 88.5L312 98.2538L298.125 113.815L284.25 129.377L256.5 160.5H9V150Z" fill="#F9CDC4"/>
<path d="M78.0849 69.6758C80.9554 67.9361 84.3004 67.1432 87.6464 67.4094L302.5 84.5L300 98.2538L286.125 113.815L272.25 129.377L244.5 160.5H0V117L78.0849 69.6758Z" fill="#FBDBD6"/>
<g filter="url(#filter0_f_26270_167104)">
<path d="M248.467 111.079C249.992 113.089 250.799 115.516 250.748 117.932L250.714 119.532C250.659 122.095 249.673 124.474 247.937 126.23L179.602 195.346L175.067 187.517L248.467 111.079Z" fill="#B8513A" fill-opacity="0.12"/>
</g>
<path d="M247.467 106.079C248.992 108.089 249.799 110.516 249.748 112.932L249.714 114.532C249.659 117.095 248.673 119.474 246.937 121.23L178.602 190.346L174.067 182.517L247.467 106.079Z" fill="#D78573"/>
<path d="M175.718 98.8977C172.525 98.5677 168.195 100.025 165.952 102.185L88.5112 176.742C86.1958 178.972 86.9815 181.097 90.2552 181.46L161.228 189.322C164.494 189.683 168.973 188.15 171.18 185.914L243.229 112.923C246.72 109.386 245.337 106.093 240.136 105.556L175.718 98.8977Z" fill="white" stroke="#F3AB9B" stroke-width="5.32696"/>
<path d="M186.096 101.196L220.548 105.207L217.92 107.342C215.928 108.959 213.216 109.812 210.913 109.544L190.056 107.116C187.753 106.848 186.255 105.505 186.186 103.648L186.096 101.196Z" fill="#F3AB9B"/>
<circle cx="18.0138" cy="18.0138" r="20.2655" transform="matrix(0.999274 0.038097 -0.466558 0.843154 160.491 125.739)" fill="#DE350B" stroke="white" stroke-width="4.50344"/>
<g clip-path="url(#clip1_26270_167104)">
<path d="M176.216 130.538C168.997 130.263 160.333 135.022 156.962 141.113C153.592 147.204 156.74 152.413 163.959 152.688C171.178 152.963 179.843 148.205 183.213 142.114C186.584 136.023 183.435 130.814 176.216 130.538ZM159.587 141.213C162.284 136.34 169.215 132.533 174.99 132.753C177.353 132.844 179.216 133.593 180.38 134.881L158.816 146.725C158.23 145.119 158.484 143.207 159.587 141.213ZM165.185 150.473C162.822 150.383 160.959 149.634 159.795 148.345L181.359 136.502C181.945 138.107 181.691 140.02 180.588 142.014C177.892 146.887 170.96 150.693 165.185 150.473Z" fill="white"/>
</g>
<g opacity="0.3">
<path d="M131.254 112.92C132.268 114.337 132.78 116.028 132.699 117.695L132.645 118.799C132.559 120.568 131.833 122.192 130.601 123.372L82.1096 169.807L79.1257 164.315L131.254 112.92Z" fill="#D78573"/>
<path d="M81.845 106.605C79.6465 106.317 76.6292 107.242 75.0394 108.691L20.157 158.712C18.516 160.207 19.0184 161.69 21.2721 162.002L70.1317 168.771C72.3804 169.083 75.5019 168.108 77.0681 166.606L128.198 117.565C130.675 115.189 129.783 112.889 126.201 112.419L81.845 106.605Z" fill="white" stroke="#F3AB9B" stroke-width="3.67975"/>
<g clip-path="url(#clip2_26270_167104)">
<path d="M72.5891 153.856C74.613 154.273 77.0171 154.046 79.2728 153.225C81.5284 152.403 83.4507 151.055 84.6168 149.477C85.7829 147.899 86.0973 146.22 85.4908 144.809C84.8843 143.399 83.4066 142.372 81.3827 141.955C79.3589 141.539 76.9547 141.766 74.6991 142.587C72.4435 143.409 70.5211 144.757 69.355 146.335C68.1889 147.913 67.8746 149.592 68.4811 151.003C69.0876 152.413 70.5653 153.44 72.5891 153.856ZM81.894 146.971L76.187 150.157C75.9362 150.297 75.657 150.402 75.3704 150.465C75.0839 150.527 74.7976 150.546 74.5333 150.519C74.2691 150.491 74.0339 150.419 73.8455 150.308C73.6572 150.196 73.5207 150.048 73.4465 149.874L72.73 148.213C72.6433 148.011 72.6883 147.771 72.8551 147.545C73.0218 147.319 73.2968 147.127 73.6195 147.009C73.9421 146.892 74.286 146.859 74.5755 146.919C74.8649 146.978 75.0763 147.125 75.1631 147.327L75.6673 148.504L80.6691 145.712C80.8134 145.632 80.9722 145.568 81.1363 145.525C81.3005 145.482 81.4668 145.461 81.6257 145.462C81.7847 145.464 81.9332 145.488 82.0627 145.534C82.1923 145.579 82.3004 145.645 82.3808 145.728C82.4612 145.81 82.5124 145.908 82.5315 146.015C82.5506 146.123 82.5371 146.237 82.4919 146.353C82.4467 146.468 82.3706 146.582 82.2681 146.688C82.1655 146.795 82.0384 146.891 81.894 146.971ZM83.1373 134.481C82.1378 135.834 80.4901 136.989 78.5567 137.693C76.6233 138.397 74.5625 138.592 72.8278 138.235C71.0931 137.878 69.8265 136.998 69.3066 135.789C68.7868 134.58 69.0562 133.141 70.0558 131.788C71.0553 130.435 72.703 129.28 74.6364 128.576C76.5698 127.872 78.6305 127.677 80.3652 128.034C82.0999 128.391 83.3665 129.271 83.8864 130.48C84.4063 131.689 84.1368 133.129 83.1373 134.481Z" fill="#00A2B9"/>
<path d="M53.4651 144.043C52.2088 145.743 54.3891 146.192 54.3891 146.192L65.8485 148.551C66.0831 147.656 66.5316 146.754 67.1747 145.886C67.9812 144.792 69.0797 143.773 70.3959 142.897C71.712 142.022 73.2151 141.31 74.8034 140.81C73.8719 140.484 72.8012 140.189 71.5715 139.935C60.6702 137.691 54.7213 142.343 53.4651 144.043Z" fill="#00A2B9"/>
</g>
<path d="M88.9678 108.389L112.682 111.809L110.827 113.233C109.421 114.313 107.532 114.85 105.947 114.621L91.5903 112.551C90.0052 112.322 88.9962 111.367 88.9839 110.083L88.9678 108.389Z" fill="#F3AB9B"/>
</g>
<path d="M105 105.905L115.851 101.957L107.006 94.5341L105 105.905ZM107.348 104.663C107.709 104.245 107.662 103.613 107.244 103.253C106.826 102.892 106.194 102.939 105.833 103.357L107.348 104.663ZM109.177 99.6837C108.794 100.082 108.807 100.715 109.205 101.098C109.603 101.48 110.236 101.468 110.619 101.07L109.177 99.6837ZM114.082 97.6651C114.486 97.2892 114.51 96.6565 114.134 96.2518C113.758 95.8472 113.125 95.8238 112.721 96.1997L114.082 97.6651ZM116.46 92.9246C116.034 93.276 115.974 93.9063 116.325 94.3323C116.676 94.7584 117.307 94.8189 117.733 94.4674L116.46 92.9246ZM121.566 91.4961C122.013 91.1713 122.112 90.5459 121.787 90.0992C121.462 89.6525 120.836 89.5537 120.39 89.8785L121.566 91.4961ZM124.501 87.0819C124.035 87.3779 123.897 87.9958 124.193 88.4621C124.489 88.9283 125.107 89.0664 125.573 88.7704L124.501 87.0819ZM129.746 86.3077C130.231 86.0428 130.409 85.4352 130.144 84.9506C129.879 84.466 129.271 84.2879 128.787 84.5529L129.746 86.3077ZM133.24 82.3089C132.739 82.5405 132.52 83.1347 132.752 83.6361C132.984 84.1374 133.578 84.3561 134.079 84.1244L133.24 82.3089ZM138.546 82.2452C139.063 82.0489 139.322 81.4713 139.126 80.9551C138.93 80.4388 138.352 80.1794 137.836 80.3757L138.546 82.2452ZM142.554 78.7722C142.025 78.9309 141.725 79.4885 141.884 80.0174C142.042 80.5464 142.6 80.8465 143.129 80.6878L142.554 78.7722ZM147.805 79.4695C148.345 79.3502 148.685 78.8164 148.566 78.2771C148.447 77.7379 147.913 77.3974 147.373 77.5167L147.805 79.4695ZM152.29 76.6239C151.743 76.7016 151.363 77.2078 151.441 77.7546C151.518 78.3014 152.025 78.6817 152.571 78.604L152.29 76.6239ZM157.381 78.1131C157.932 78.0789 158.351 77.6044 158.317 77.0532C158.283 76.5019 157.808 76.0828 157.257 76.1169L157.381 78.1131ZM162.246 76.0124C161.694 76.0011 161.237 76.4395 161.226 76.9917C161.214 77.5438 161.653 78.0006 162.205 78.012L162.246 76.0124ZM167.028 78.3178C167.578 78.3766 168.07 77.9792 168.129 77.4301C168.188 76.8809 167.791 76.388 167.242 76.3292L167.028 78.3178ZM172.184 77.0845C171.643 76.9762 171.116 77.3275 171.008 77.8691C170.899 78.4107 171.251 78.9375 171.792 79.0457L172.184 77.0845ZM176.469 80.213C176.997 80.3725 177.555 80.0731 177.715 79.5444C177.874 79.0156 177.575 78.4577 177.046 78.2982L176.469 80.213ZM181.766 79.9843C181.256 79.7721 180.671 80.0135 180.459 80.5234C180.246 81.0333 180.488 81.6186 180.998 81.8308L181.766 79.9843ZM185.33 83.9112C185.814 84.1771 186.422 84.0002 186.688 83.5161C186.954 83.032 186.777 82.4241 186.293 82.1582L185.33 83.9112ZM190.552 84.8231C190.102 84.5035 189.478 84.6096 189.158 85.0601C188.839 85.5105 188.945 86.1347 189.395 86.4543L190.552 84.8231ZM193.129 89.4571C193.537 89.829 194.17 89.7994 194.542 89.3911C194.913 88.9828 194.884 88.3503 194.476 87.9784L193.129 89.4571ZM197.978 91.5997C197.62 91.1789 196.989 91.1277 196.568 91.4854C196.148 91.8431 196.096 92.4742 196.454 92.895L197.978 91.5997ZM199.304 96.7309C199.603 97.1951 200.222 97.3286 200.686 97.0293C201.15 96.7299 201.284 96.111 200.984 95.6469L199.304 96.7309ZM203.43 100.057C203.195 99.5572 202.599 99.3429 202.1 99.5781C201.6 99.8134 201.386 100.409 201.621 100.909L203.43 100.057ZM110.619 101.07C111.757 99.8862 112.912 98.7516 114.082 97.6651L112.721 96.1997C111.523 97.3119 110.341 98.473 109.177 99.6837L110.619 101.07ZM117.733 94.4674C118.997 93.4245 120.276 92.4344 121.566 91.4961L120.39 89.8785C119.066 90.8408 117.756 91.8559 116.46 92.9246L117.733 94.4674ZM125.573 88.7704C126.955 87.8934 128.347 87.0729 129.746 86.3077L128.787 84.5529C127.349 85.3389 125.919 86.1816 124.501 87.0819L125.573 88.7704ZM134.079 84.1244C135.564 83.4383 137.054 82.8123 138.546 82.2452L137.836 80.3757C136.3 80.9593 134.767 81.6034 133.24 82.3089L134.079 84.1244ZM143.129 80.6878C144.691 80.219 146.251 79.8134 147.805 79.4695L147.373 77.5167C145.77 77.8713 144.163 78.2894 142.554 78.7722L143.129 80.6878ZM152.571 78.604C154.186 78.3747 155.791 78.2115 157.381 78.1131L157.257 76.1169C155.614 76.2187 153.957 76.3872 152.29 76.6239L152.571 78.604ZM162.205 78.012C163.835 78.0454 165.445 78.148 167.028 78.3178L167.242 76.3292C165.6 76.1532 163.933 76.047 162.246 76.0124L162.205 78.012ZM171.792 79.0457C173.386 79.3643 174.947 79.7542 176.469 80.213L177.046 78.2982C175.462 77.8206 173.84 77.4154 172.184 77.0845L171.792 79.0457ZM180.998 81.8308C182.493 82.4527 183.939 83.147 185.33 83.9112L186.293 82.1582C184.837 81.3586 183.326 80.6332 181.766 79.9843L180.998 81.8308ZM189.395 86.4543C190.707 87.3846 191.953 88.3864 193.129 89.4571L194.476 87.9784C193.239 86.8519 191.928 85.7994 190.552 84.8231L189.395 86.4543ZM196.454 92.895C197.484 94.1073 198.437 95.3867 199.304 96.7309L200.984 95.6469C200.069 94.2279 199.064 92.878 197.978 91.5997L196.454 92.895ZM201.621 100.909C201.959 101.627 202.275 102.361 202.569 103.109L204.431 102.378C204.121 101.589 203.787 100.815 203.43 100.057L201.621 100.909Z" fill="#F3AB9B"/>
<g opacity="0.5">
<rect opacity="0.4" width="24" height="6" rx="1.5" transform="matrix(-1 0 0 1 260 5.5)" fill="#DE350B"/>
<rect opacity="0.2" width="24" height="6" rx="1.5" transform="matrix(-1 0 0 1 251 -0.5)" fill="#DE350B"/>
<rect opacity="0.2" width="16.5" height="6" rx="1.5" transform="matrix(-1 0 0 1 248 11.5)" fill="#DE350B"/>
</g>
<g opacity="0.5">
<rect opacity="0.4" x="43" y="49" width="24" height="6" rx="1.5" fill="#DE350B"/>
<rect opacity="0.32" x="64" y="37" width="12" height="6" rx="1.5" fill="#DE350B"/>
<rect opacity="0.2" x="52" y="43" width="24" height="6" rx="1.5" fill="#DE350B"/>
<rect opacity="0.2" x="55" y="55" width="16.5" height="6" rx="1.5" fill="#DE350B"/>
</g>
<path d="M-1.47461 113.568L32.3777 122.639C56.741 129.167 71.1993 154.21 64.6711 178.573L61.2889 191.196L-16.6771 170.305L-1.47461 113.568Z" fill="#1A4E66"/>
<path fill-rule="evenodd" clip-rule="evenodd" d="M34.4333 78.9406C37.071 69.0968 47.1892 63.255 57.0329 65.8927C67.0821 68.5853 72.9197 79.0488 69.9326 89.0144L64.3339 107.693C61.8564 115.959 53.9334 121.364 45.3338 120.654L45.1738 120.641L44.3457 127.156C43.4908 133.881 36.9923 138.38 30.3967 136.812C21.3266 134.656 15.3408 126.009 16.5164 116.761L16.7978 114.548L19.228 95.4293C17.8848 94.3382 16.8609 92.8287 16.3788 91.0293C15.1619 86.4881 17.8569 81.8202 22.3982 80.6034C26.6778 79.4567 31.0699 81.7841 32.5801 85.8568L34.4333 78.9406Z" fill="#FF9BA5"/>
<path d="M21.4309 84.2601C23.3507 83.0776 27.1028 82.3225 28.9871 87.5339" stroke="#D4737C" stroke-width="1.71262" stroke-linecap="round"/>
<ellipse cx="60.7892" cy="92.6307" rx="2.39769" ry="3.67646" transform="rotate(9.7725 60.7892 92.6307)" fill="white"/>
<ellipse cx="45.902" cy="90.9158" rx="2.39769" ry="3.67646" transform="rotate(9.7725 45.902 90.9158)" fill="white"/>
<ellipse cx="2.04652" cy="2.40055" rx="2.04652" ry="2.40055" transform="matrix(0.987497 0.157637 -0.182706 0.983168 60.7869 91.0498)" fill="#25262B"/>
<ellipse cx="2.04652" cy="2.40055" rx="2.04652" ry="2.40055" transform="matrix(0.987497 0.157637 -0.182706 0.983168 45.8772 89.5)" fill="#25262B"/>
<path d="M52.0371 96.3887C55.4333 97.1915 60.6606 99.4221 54.4006 101.922" stroke="#D4737C" stroke-width="1.71262" stroke-linecap="round"/>
<path d="M18.5496 101.086L19.2453 95.4198C20.9197 96.1946 22.7868 96.4536 24.6088 96.1636L24.9115 96.1155L18.5496 101.086Z" fill="#D5737C"/>
<path fill-rule="evenodd" clip-rule="evenodd" d="M44.1756 128.148C43.9152 129.351 43.4705 130.471 42.8769 131.484L29.7178 115.894L35.8697 118.784C37.9964 119.783 40.2959 120.363 42.6422 120.491L45.1778 120.63L45.1761 120.642L45.1737 120.641L45.1232 121.039L44.1756 128.148Z" fill="#D5737C"/>
<path d="M26.6266 61.8461C28.5026 54.5272 35.993 50.1482 43.291 52.1037L63.5509 57.5324C71.7303 59.724 77.1261 67.5084 76.3079 75.9367C76.1392 77.6744 75.6437 79.3645 74.8475 80.9181L71.894 86.6809C71.1246 88.182 69.372 88.8932 67.7742 88.3527C66.7773 88.0154 65.9925 87.236 65.6483 86.2414L63.9616 81.3665C62.8684 78.2069 60.8885 75.4289 58.2585 73.3645L55.5909 71.2705C54.5187 77.1603 50.3109 81.9919 44.6242 83.8629L38.8017 85.7786C37.4721 86.216 36.3349 87.1 35.5831 88.2806L34.4963 89.9872C34.0397 90.7043 32.9315 90.4106 32.89 89.5615L32.8345 88.4258C32.4365 80.2864 21.8144 77.4713 17.4375 84.3452L15.16 75.5179C13.2807 68.2339 19.1266 61.2637 26.6266 61.8461Z" fill="#25262B"/>
<path d="M67.4678 84.9951C63.2946 82.5857 60.0653 82.6988 58.9723 83.0565" stroke="#25262B" stroke-width="3.42524" stroke-linecap="round"/>
<path d="M42.8853 81.7021C47.5399 82.9493 50.6299 82.0043 51.593 81.3759" stroke="#25262B" stroke-width="3.42524" stroke-linecap="round"/>
<circle cx="46.5" cy="108" r="2.5" fill="#D4737C" stroke="#D4737C" stroke-width="2.28"/>
</g>
<defs>
<filter id="filter0_f_26270_167104" x="164.067" y="100.079" width="97.6831" height="106.267" filterUnits="userSpaceOnUse" color-interpolation-filters="sRGB">
<feFlood flood-opacity="0" result="BackgroundImageFix"/>
<feBlend mode="normal" in="SourceGraphic" in2="BackgroundImageFix" result="shape"/>
<feGaussianBlur stdDeviation="5.5" result="effect1_foregroundBlur_26270_167104"/>
</filter>
<clipPath id="clip0_26270_167104">
<rect y="0.5" width="300" height="160" rx="16" fill="white"/>
</clipPath>
<clipPath id="clip1_26270_167104">
<rect width="31.5241" height="31.5241" fill="white" transform="matrix(0.999274 0.038097 -0.466558 0.843154 161.691 127.724)"/>
</clipPath>
<clipPath id="clip2_26270_167104">
<rect width="35.2202" height="35.2202" fill="white" transform="matrix(0.990455 0.203921 -0.570687 0.77236 65.4355 121.043)"/>
</clipPath>
</defs>
</svg>
