<svg width="120" height="120" viewBox="0 0 120 120" fill="none" xmlns="http://www.w3.org/2000/svg">
<defs>
<linearGradient id="paint0_linear_4244_39934" x1="80.9998" y1="47.666" x2="80.9998" y2="74.3327" gradientUnits="userSpaceOnUse">
<stop stop-color="#01C6E2"/>
<stop offset="1" stop-color="#007CA4"/>
</linearGradient>
<linearGradient id="paint1_linear_4244_39934" x1="80.9998" y1="47.666" x2="80.9998" y2="74.3327" gradientUnits="userSpaceOnUse">
<stop stop-color="#01C6E2"/>
<stop offset="1" stop-color="#007CA4"/>
</linearGradient>
<linearGradient id="paint2_linear_4244_39934" x1="51.6665" y1="42.333" x2="51.6665" y2="79.6663" gradientUnits="userSpaceOnUse">
<stop stop-color="#01C6E2"/>
<stop offset="1" stop-color="#007CA4"/>
</linearGradient>
<linearGradient id="paint3_linear_4244_39934" x1="51.6665" y1="42.333" x2="51.6665" y2="79.6663" gradientUnits="userSpaceOnUse">
<stop stop-color="#01C6E2"/>
<stop offset="1" stop-color="#007CA4"/>
</linearGradient>
</defs>
<mask id="mask0_4244_39934" style="mask-type:alpha" maskUnits="userSpaceOnUse" x="0" y="0" width="120" height="120">
<circle cx="60" cy="60" r="60" fill="#00A2B9"/>
</mask>
<g mask="url(#mask0_4244_39934)">
<path opacity="0.1" d="M-134.158 79.0382L-137.648 67.7068V137.647H176.47V-15.8828L172.979 -8.85403C169.489 -1.82525 162.509 12.2323 155.529 14.1788C148.548 16.1253 141.568 5.96074 134.587 15.3122C127.607 24.6638 120.627 53.5313 113.646 62.5374C106.666 71.5434 99.6854 60.6879 92.705 60.799C85.7246 60.91 78.7442 71.9878 71.7638 72.8951C64.7834 73.8025 57.803 64.5395 50.8226 66.6727C43.8422 68.8059 36.8618 82.3352 29.8815 82.6419C22.9011 82.9486 15.9207 70.0327 8.94028 65.9689C1.95988 61.9051 -5.02051 66.6934 -12.0009 77.6771C-18.9813 88.6608 -25.9617 105.84 -32.9421 109.089C-39.9225 112.338 -46.9029 101.658 -53.8832 92.0704C-60.8636 82.4827 -67.844 73.9877 -74.8244 71.9373C-81.8048 69.887 -88.7852 74.2813 -95.7656 85.9817C-102.746 97.6822 -109.726 116.689 -116.707 114.861C-123.687 113.033 -130.668 90.3697 -134.158 79.0382Z" fill="#229BD8"/>
<path d="M90.3332 47.666L71.6665 60.9993L90.3332 74.3327V47.666Z" fill="url(#paint0_linear_4244_39934)" stroke="url(#paint1_linear_4244_39934)" stroke-width="3" stroke-linecap="round" stroke-linejoin="round"/>
<path d="M66.3332 42.333H36.9998C34.0543 42.333 31.6665 44.7208 31.6665 47.6663V74.333C31.6665 77.2785 34.0543 79.6663 36.9998 79.6663H66.3332C69.2787 79.6663 71.6665 77.2785 71.6665 74.333V47.6663C71.6665 44.7208 69.2787 42.333 66.3332 42.333Z" fill="url(#paint2_linear_4244_39934)" stroke="url(#paint3_linear_4244_39934)" stroke-width="3" stroke-linecap="round" stroke-linejoin="round"/>
<circle opacity="0.1" cx="60" cy="60" r="60" fill="#00A2B9"/>
</g>
<path d="M115.314 27.3137C118.314 24.3131 120 20.2435 120 16C120 11.7565 118.314 7.68687 115.314 4.68629C112.313 1.68571 108.243 0 104 0C99.7565 0 95.6869 1.68571 92.6863 4.68629C89.6857 7.68687 88 11.7565 88 16C88 20.2435 89.6857 24.3131 92.6863 27.3137C95.6869 30.3143 99.7565 32 104 32C108.243 32 112.313 30.3143 115.314 27.3137Z" fill="#5AA200"/>
<path d="M111.792 9.0215C112.008 9.11112 112.205 9.24247 112.37 9.40803C112.535 9.57317 112.667 9.76935 112.756 9.98533C112.846 10.2013 112.892 10.4329 112.892 10.6667C112.892 10.9005 112.846 11.1321 112.756 11.3481C112.667 11.564 112.535 11.7602 112.37 11.9254L101.703 22.592C101.538 22.7576 101.342 22.8889 101.126 22.9786C100.91 23.0682 100.678 23.1143 100.444 23.1143C100.211 23.1143 99.9791 23.0682 99.7631 22.9786C99.5471 22.8889 99.3509 22.7576 99.1858 22.592L95.6302 19.0365C95.2964 18.7027 95.1089 18.2499 95.1089 17.7778C95.1089 17.3057 95.2964 16.853 95.6302 16.5191C95.9641 16.1853 96.4168 15.9978 96.8889 15.9978C97.361 15.9978 97.8138 16.1853 98.1476 16.5191L100.444 18.8196L109.852 9.40803C110.018 9.24247 110.214 9.11112 110.43 9.0215C110.646 8.93188 110.877 8.88574 111.111 8.88574C111.345 8.88574 111.577 8.93188 111.792 9.0215Z" fill="#F1F1F1"/>
</svg>
