<svg width="388" height="160" viewBox="0 0 388 160" fill="none" xmlns="http://www.w3.org/2000/svg">
<g clip-path="url(#clip0_30469_34804)">
<rect width="388" height="160" rx="16" fill="#FEEDEC"/>
<g opacity="0.5">
<rect opacity="0.4" width="24" height="6" rx="1.5" transform="matrix(-1 0 0 1 79 5)" fill="#DE350B"/>
<rect opacity="0.2" width="24" height="6" rx="1.5" transform="matrix(-1 0 0 1 70 -1)" fill="#DE350B"/>
<rect opacity="0.2" width="16.5" height="6" rx="1.5" transform="matrix(-1 0 0 1 67 11)" fill="#DE350B"/>
</g>
<g opacity="0.5">
<rect opacity="0.4" x="-13" y="80" width="24" height="6" rx="1.5" fill="#DE350B"/>
<rect opacity="0.32" x="8" y="68" width="12" height="6" rx="1.5" fill="#DE350B"/>
<rect opacity="0.2" x="-4" y="74" width="24" height="6" rx="1.5" fill="#DE350B"/>
<rect opacity="0.2" x="-1" y="86" width="16.5" height="6" rx="1.5" fill="#DE350B"/>
</g>
<path d="M273.499 58.0132L314.418 56.4844V160H273.499V58.0132Z" fill="#DE350B" fill-opacity="0.6"/>
<path d="M164.122 60.3008C165.824 54.268 171.328 50.1016 177.596 50.1016H306.43C311.734 50.1016 315.57 55.1688 314.13 60.2734L286 159.998H136L164.122 60.3008Z" fill="white"/>
<path d="M170.217 83.0881C170.678 81.3286 172.267 80.1016 174.086 80.1016H193.408C194.718 80.1016 195.674 81.3407 195.343 82.6083L191.281 98.115C190.82 99.8745 189.231 101.102 187.412 101.102H168.09C166.78 101.102 165.824 99.8625 166.156 98.5948L170.217 83.0881Z" fill="#EFEFEF"/>
<path d="M203.717 83.0881C204.178 81.3286 205.767 80.1016 207.586 80.1016H226.908C228.218 80.1016 229.174 81.3407 228.843 82.6083L224.781 98.115C224.32 99.8745 222.731 101.102 220.912 101.102H201.59C200.28 101.102 199.324 99.8625 199.656 98.5948L203.717 83.0881Z" fill="#EFEFEF"/>
<path d="M237.217 83.0881C237.678 81.3286 239.267 80.1016 241.086 80.1016H260.408C261.718 80.1016 262.674 81.3407 262.343 82.6083L258.281 98.115C257.82 99.8745 256.231 101.102 254.412 101.102H235.09C233.78 101.102 232.824 99.8625 233.156 98.5948L237.217 83.0881Z" fill="#EFEFEF"/>
<path d="M270.717 83.0881C271.178 81.3286 272.767 80.1016 274.586 80.1016H293.908C295.218 80.1016 296.174 81.3407 295.843 82.6083L291.781 98.115C291.32 99.8745 289.731 101.102 287.912 101.102H268.59C267.28 101.102 266.324 99.8625 266.656 98.5948L270.717 83.0881Z" fill="#EFEFEF"/>
<path d="M162.217 110.088C162.678 108.329 164.267 107.102 166.086 107.102H185.408C186.718 107.102 187.674 108.341 187.343 109.608L183.281 125.115C182.82 126.874 181.231 128.102 179.412 128.102H160.09C158.78 128.102 157.824 126.862 158.156 125.595L162.217 110.088Z" fill="#EFEFEF"/>
<path d="M195.717 110.088C196.178 108.329 197.767 107.102 199.586 107.102H218.908C220.218 107.102 221.174 108.341 220.843 109.608L216.781 125.115C216.32 126.874 214.731 128.102 212.912 128.102H193.59C192.28 128.102 191.324 126.862 191.656 125.595L195.717 110.088Z" fill="#EFEFEF"/>
<path d="M229.217 110.088C229.678 108.329 231.267 107.102 233.086 107.102H252.408C253.718 107.102 254.674 108.341 254.343 109.608L250.281 125.115C249.82 126.874 248.231 128.102 246.412 128.102H227.09C225.78 128.102 224.824 126.862 225.156 125.595L229.217 110.088Z" fill="#EFEFEF"/>
<path d="M262.717 110.088C263.178 108.329 264.767 107.102 266.586 107.102H285.908C287.218 107.102 288.174 108.341 287.843 109.608L283.781 125.115C283.32 126.874 281.731 128.102 279.912 128.102H260.59C259.28 128.102 258.324 126.862 258.656 125.595L262.717 110.088Z" fill="#EFEFEF"/>
<path d="M154.217 137.088C154.678 135.329 156.267 134.102 158.086 134.102H174.816C177.437 134.102 179.35 136.58 178.686 139.115L175.281 152.115C174.82 153.874 173.231 155.102 171.412 155.102H154.682C152.061 155.102 150.148 152.623 150.812 150.088L154.217 137.088Z" fill="#EFEFEF"/>
<path d="M187.717 137.088C188.178 135.329 189.767 134.102 191.586 134.102H210.908C212.218 134.102 213.174 135.341 212.843 136.608L208.781 152.115C208.32 153.874 206.731 155.102 204.912 155.102H185.59C184.28 155.102 183.324 153.862 183.656 152.595L187.717 137.088Z" fill="#EFEFEF"/>
<path d="M221.217 137.088C221.678 135.329 223.267 134.102 225.086 134.102H244.408C245.718 134.102 246.674 135.341 246.343 136.608L242.281 152.115C241.82 153.874 240.231 155.102 238.412 155.102H219.09C217.78 155.102 216.824 153.862 217.156 152.595L221.217 137.088Z" fill="#EFEFEF"/>
<path d="M254.717 137.088C255.178 135.329 256.767 134.102 258.586 134.102H277.908C279.218 134.102 280.174 135.341 279.843 136.608L275.781 152.115C275.32 153.874 273.731 155.102 271.912 155.102H252.59C251.28 155.102 250.324 153.862 250.656 152.595L254.717 137.088Z" fill="#EFEFEF"/>
<path fill-rule="evenodd" clip-rule="evenodd" d="M310.793 72.1016H160.793L164.122 60.3008C165.823 54.268 171.328 50.1016 177.596 50.1016H306.43C311.734 50.1016 315.569 55.1688 314.129 60.2734L310.793 72.1016Z" fill="#F8C8BF"/>
<ellipse cx="4.3" cy="6" rx="4.3" ry="6" transform="matrix(0.9746 0.223953 -0.308426 0.951248 184.461 52)" fill="#DE350B" fill-opacity="0.2"/>
<ellipse cx="4.3" cy="6" rx="4.3" ry="6" transform="matrix(0.9746 0.223953 -0.308426 0.951248 215.559 52)" fill="#DE350B" fill-opacity="0.2"/>
<ellipse cx="4.3" cy="6" rx="4.3" ry="6" transform="matrix(0.9746 0.223953 -0.308426 0.951248 246.66 52)" fill="#DE350B" fill-opacity="0.2"/>
<ellipse cx="4.3" cy="6" rx="4.3" ry="6" transform="matrix(0.9746 0.223953 -0.308426 0.951248 277.758 52)" fill="#DE350B" fill-opacity="0.2"/>
<path d="M198.499 47.6044L198.499 50.1044L203.499 50.1036L203.499 47.6036L198.499 47.6044ZM183.999 58.2391C183.999 59.6198 185.118 60.7393 186.499 60.7395C187.879 60.7397 188.999 59.6205 188.999 58.2398L183.999 58.2391ZM203.499 47.6036C203.499 45.2744 203.261 43.3262 202.748 41.7789C202.239 40.2411 201.363 38.8318 199.905 38.0577C198.401 37.2594 196.817 37.4182 195.523 37.9091C194.257 38.3896 193.076 39.2469 192.036 40.2256C189.942 42.1948 187.961 45.0871 186.501 48.2051C185.043 51.3199 184 54.8849 183.999 58.2391L188.999 58.2398C188.999 55.8439 189.769 53.017 191.029 50.3251C192.288 47.6365 193.931 45.3074 195.461 43.8678C196.233 43.1421 196.864 42.7481 197.297 42.5838C197.703 42.43 197.705 42.5506 197.56 42.474C197.462 42.4216 197.718 42.4938 198.002 43.351C198.283 44.1986 198.499 45.5587 198.499 47.6044L203.499 47.6036Z" fill="#25262B"/>
<path d="M229.499 47.6044L229.499 50.1044L234.499 50.1036L234.499 47.6036L229.499 47.6044ZM214.999 58.2391C214.999 59.6198 216.118 60.7393 217.499 60.7395C218.879 60.7397 219.999 59.6205 219.999 58.2398L214.999 58.2391ZM234.499 47.6036C234.499 45.2744 234.261 43.3262 233.748 41.7789C233.239 40.2411 232.363 38.8318 230.905 38.0577C229.401 37.2594 227.817 37.4182 226.523 37.9091C225.257 38.3896 224.076 39.2469 223.036 40.2256C220.942 42.1948 218.961 45.0871 217.501 48.2051C216.043 51.3199 215 54.8849 214.999 58.2391L219.999 58.2398C219.999 55.8439 220.769 53.017 222.029 50.3251C223.288 47.6365 224.931 45.3074 226.461 43.8678C227.233 43.1421 227.864 42.7481 228.297 42.5838C228.703 42.43 228.705 42.5506 228.56 42.474C228.462 42.4216 228.718 42.4938 229.002 43.351C229.283 44.1986 229.499 45.5587 229.499 47.6044L234.499 47.6036Z" fill="#25262B"/>
<path d="M260.499 47.6044L260.499 50.1044L265.499 50.1036L265.499 47.6036L260.499 47.6044ZM245.999 58.2391C245.999 59.6198 247.118 60.7393 248.499 60.7395C249.879 60.7397 250.999 59.6205 250.999 58.2398L245.999 58.2391ZM265.499 47.6036C265.499 45.2744 265.261 43.3262 264.748 41.7789C264.239 40.2411 263.363 38.8318 261.905 38.0577C260.401 37.2594 258.817 37.4182 257.523 37.9091C256.257 38.3896 255.076 39.2469 254.036 40.2256C251.942 42.1948 249.961 45.0871 248.501 48.2051C247.043 51.3199 246 54.8849 245.999 58.2391L250.999 58.2398C250.999 55.8439 251.769 53.017 253.029 50.3251C254.288 47.6365 255.931 45.3074 257.461 43.8678C258.233 43.1421 258.864 42.7481 259.297 42.5838C259.703 42.43 259.705 42.5506 259.56 42.474C259.462 42.4216 259.718 42.4938 260.002 43.351C260.283 44.1986 260.499 45.5587 260.499 47.6044L265.499 47.6036Z" fill="#25262B"/>
<path d="M291.499 47.6044L291.499 50.1044L296.499 50.1036L296.499 47.6036L291.499 47.6044ZM276.999 58.2391C276.999 59.6198 278.118 60.7393 279.499 60.7395C280.879 60.7397 281.999 59.6205 281.999 58.2398L276.999 58.2391ZM296.499 47.6036C296.499 45.2744 296.261 43.3262 295.748 41.7789C295.239 40.2411 294.363 38.8318 292.905 38.0577C291.401 37.2594 289.817 37.4182 288.523 37.9091C287.257 38.3896 286.076 39.2469 285.036 40.2256C282.942 42.1948 280.961 45.0871 279.501 48.2051C278.043 51.3199 277 54.8849 276.999 58.2391L281.999 58.2398C281.999 55.8439 282.769 53.017 284.029 50.3251C285.288 47.6365 286.931 45.3074 288.461 43.8678C289.233 43.1421 289.864 42.7481 290.297 42.5838C290.703 42.43 290.705 42.5506 290.56 42.474C290.462 42.4216 290.718 42.4938 291.002 43.351C291.283 44.1986 291.499 45.5587 291.499 47.6044L296.499 47.6036Z" fill="#25262B"/>
<g clip-path="url(#clip1_30469_34804)">
<path d="M209.225 88.5652L216.963 84.2344L221.225 88.5652L218.493 95.3708C218.362 95.6989 218.095 96.0137 217.752 96.2457C217.408 96.4778 217.017 96.6081 216.663 96.6081H207.33C206.976 96.6081 206.69 96.4778 206.533 96.2457C206.376 96.0137 206.362 95.6989 206.493 95.3708L209.225 88.5652Z" stroke="#00A2B9" stroke-width="1.5" stroke-linecap="round" stroke-linejoin="round"/>
<path d="M210.245 95.9901L212.48 90.4219H216.48L214.245 95.9901" stroke="#00A2B9" stroke-width="1.5" stroke-linecap="round" stroke-linejoin="round"/>
</g>
<g clip-path="url(#clip2_30469_34804)">
<path d="M159.225 142.565L166.963 138.234L171.225 142.565L168.493 149.371C168.362 149.699 168.095 150.014 167.752 150.246C167.408 150.478 167.017 150.608 166.663 150.608H157.33C156.976 150.608 156.69 150.478 156.533 150.246C156.376 150.014 156.362 149.699 156.493 149.371L159.225 142.565Z" stroke="#00A2B9" stroke-width="1.5" stroke-linecap="round" stroke-linejoin="round"/>
<path d="M160.245 149.99L162.48 144.422H166.48L164.245 149.99" stroke="#00A2B9" stroke-width="1.5" stroke-linecap="round" stroke-linejoin="round"/>
</g>
<g clip-path="url(#clip3_30469_34804)">
<path d="M192.265 142.565L200.003 138.234L204.265 142.565L201.533 149.371C201.402 149.699 201.135 150.014 200.792 150.246C200.448 150.478 200.057 150.608 199.703 150.608H190.37C190.016 150.608 189.73 150.478 189.573 150.246C189.416 150.014 189.402 149.699 189.533 149.371L192.265 142.565Z" stroke="#00A2B9" stroke-width="1.5" stroke-linecap="round" stroke-linejoin="round"/>
<path d="M193.285 149.99L195.52 144.422H199.52L197.285 149.99" stroke="#00A2B9" stroke-width="1.5" stroke-linecap="round" stroke-linejoin="round"/>
</g>
<g clip-path="url(#clip4_30469_34804)">
<path d="M242.225 88.5652L249.963 84.2344L254.225 88.5652L251.493 95.3708C251.362 95.6989 251.095 96.0137 250.752 96.2457C250.408 96.4778 250.017 96.6081 249.663 96.6081H240.33C239.976 96.6081 239.69 96.4778 239.533 96.2457C239.376 96.0137 239.362 95.6989 239.493 95.3708L242.225 88.5652Z" stroke="#00A2B9" stroke-width="1.5" stroke-linecap="round" stroke-linejoin="round"/>
<path d="M243.245 95.9901L245.48 90.4219H249.48L247.245 95.9901" stroke="#00A2B9" stroke-width="1.5" stroke-linecap="round" stroke-linejoin="round"/>
</g>
<g clip-path="url(#clip5_30469_34804)">
<path d="M234.265 115.565L242.003 111.234L246.265 115.565L243.533 122.371C243.402 122.699 243.135 123.014 242.792 123.246C242.448 123.478 242.057 123.608 241.703 123.608H232.37C232.016 123.608 231.73 123.478 231.573 123.246C231.416 123.014 231.402 122.699 231.533 122.371L234.265 115.565Z" stroke="#00A2B9" stroke-width="1.5" stroke-linecap="round" stroke-linejoin="round"/>
<path d="M235.285 122.99L237.52 117.422H241.52L239.285 122.99" stroke="#00A2B9" stroke-width="1.5" stroke-linecap="round" stroke-linejoin="round"/>
</g>
<g clip-path="url(#clip6_30469_34804)">
<path d="M226.305 142.565L234.043 138.234L238.305 142.565L235.573 149.371C235.442 149.699 235.175 150.014 234.832 150.246C234.489 150.478 234.097 150.608 233.743 150.608H224.41C224.056 150.608 223.77 150.478 223.613 150.246C223.456 150.014 223.442 149.699 223.573 149.371L226.305 142.565Z" stroke="#00A2B9" stroke-width="1.5" stroke-linecap="round" stroke-linejoin="round"/>
<path d="M227.325 149.99L229.56 144.422H233.56L231.325 149.99" stroke="#00A2B9" stroke-width="1.5" stroke-linecap="round" stroke-linejoin="round"/>
</g>
<g clip-path="url(#clip7_30469_34804)">
<path d="M268.265 115.565L276.003 111.234L280.265 115.565L277.533 122.371C277.402 122.699 277.135 123.014 276.792 123.246C276.448 123.478 276.057 123.608 275.703 123.608H266.37C266.016 123.608 265.73 123.478 265.573 123.246C265.416 123.014 265.402 122.699 265.533 122.371L268.265 115.565Z" stroke="#00A2B9" stroke-width="1.5" stroke-linecap="round" stroke-linejoin="round"/>
<path d="M269.285 122.99L271.52 117.422H275.52L273.285 122.99" stroke="#00A2B9" stroke-width="1.5" stroke-linecap="round" stroke-linejoin="round"/>
</g>
<g clip-path="url(#clip8_30469_34804)">
<path d="M284.667 96.5496L288.465 85.5185C288.58 85.1841 288.55 84.8635 288.382 84.6271C288.213 84.3906 287.92 84.2578 287.566 84.2578H279.566C279.212 84.2578 278.828 84.3906 278.496 84.6271C278.165 84.8635 277.914 85.1841 277.799 85.5185L274 96.5496M284.667 96.5496H274M284.667 96.5496H286M284.667 96.5496H280.667M274 96.5496H272.667M274 96.5496H278M280.667 96.5496L281.752 93.3978C281.81 93.2306 281.795 93.0703 281.71 92.9521C281.626 92.8339 281.479 92.7675 281.303 92.7675H279.969C279.792 92.7675 279.6 92.8339 279.434 92.9521C279.269 93.0703 279.143 93.2306 279.086 93.3978L278 96.5496M280.667 96.5496H278M280.372 87.7247H281.039M279.504 90.2461H280.171M283.706 87.7247H284.372M282.837 90.2461H283.504" stroke="#DDDDDD" stroke-width="1.5" stroke-linecap="round" stroke-linejoin="round"/>
</g>
<g clip-path="url(#clip9_30469_34804)">
<path d="M268.667 150.55L272.465 139.519C272.58 139.184 272.55 138.863 272.382 138.627C272.213 138.391 271.92 138.258 271.566 138.258H263.566C263.212 138.258 262.828 138.391 262.496 138.627C262.165 138.863 261.914 139.184 261.799 139.519L258 150.55M268.667 150.55H258M268.667 150.55H270M268.667 150.55H264.667M258 150.55H256.667M258 150.55H262M264.667 150.55L265.752 147.398C265.81 147.231 265.795 147.07 265.71 146.952C265.626 146.834 265.479 146.767 265.303 146.767H263.969C263.792 146.767 263.6 146.834 263.434 146.952C263.269 147.07 263.143 147.231 263.086 147.398L262 150.55M264.667 150.55H262M264.372 141.725H265.039M263.504 144.246H264.171M267.706 141.725H268.372M266.837 144.246H267.504" stroke="#DDDDDD" stroke-width="1.5" stroke-linecap="round" stroke-linejoin="round"/>
</g>
<g clip-path="url(#clip10_30469_34804)">
<path d="M183.667 96.5496L187.465 85.5185C187.58 85.1841 187.55 84.8635 187.382 84.6271C187.213 84.3906 186.92 84.2578 186.566 84.2578H178.566C178.212 84.2578 177.828 84.3906 177.496 84.6271C177.165 84.8635 176.914 85.1841 176.799 85.5185L173 96.5496M183.667 96.5496H173M183.667 96.5496H185M183.667 96.5496H179.667M173 96.5496H171.667M173 96.5496H177M179.667 96.5496L180.752 93.3978C180.81 93.2306 180.795 93.0703 180.71 92.9521C180.626 92.8339 180.479 92.7675 180.303 92.7675H178.969C178.792 92.7675 178.6 92.8339 178.434 92.9521C178.269 93.0703 178.143 93.2306 178.086 93.3978L177 96.5496M179.667 96.5496H177M179.372 87.7247H180.039M178.504 90.2461H179.171M182.706 87.7247H183.372M181.837 90.2461H182.504" stroke="#DDDDDD" stroke-width="1.5" stroke-linecap="round" stroke-linejoin="round"/>
</g>
<g clip-path="url(#clip11_30469_34804)">
<path d="M175.667 123.55L179.465 112.519C179.58 112.184 179.55 111.863 179.382 111.627C179.213 111.391 178.92 111.258 178.566 111.258H170.566C170.212 111.258 169.828 111.391 169.496 111.627C169.165 111.863 168.914 112.184 168.799 112.519L165 123.55M175.667 123.55H165M175.667 123.55H177M175.667 123.55H171.667M165 123.55H163.667M165 123.55H169M171.667 123.55L172.752 120.398C172.81 120.231 172.795 120.07 172.71 119.952C172.626 119.834 172.479 119.767 172.303 119.767H170.969C170.792 119.767 170.6 119.834 170.434 119.952C170.269 120.07 170.143 120.231 170.086 120.398L169 123.55M171.667 123.55H169M171.372 114.725H172.039M170.504 117.246H171.171M174.706 114.725H175.372M173.837 117.246H174.504" stroke="#DDDDDD" stroke-width="1.5" stroke-linecap="round" stroke-linejoin="round"/>
</g>
<g clip-path="url(#clip12_30469_34804)">
<path d="M209.667 123.55L213.465 112.519C213.58 112.184 213.55 111.863 213.382 111.627C213.213 111.391 212.92 111.258 212.566 111.258H204.566C204.212 111.258 203.828 111.391 203.496 111.627C203.165 111.863 202.914 112.184 202.799 112.519L199 123.55M209.667 123.55H199M209.667 123.55H211M209.667 123.55H205.667M199 123.55H197.667M199 123.55H203M205.667 123.55L206.752 120.398C206.81 120.231 206.795 120.07 206.71 119.952C206.626 119.834 206.479 119.767 206.303 119.767H204.969C204.792 119.767 204.6 119.834 204.434 119.952C204.269 120.07 204.143 120.231 204.086 120.398L203 123.55M205.667 123.55H203M205.372 114.725H206.039M204.504 117.246H205.171M208.706 114.725H209.372M207.837 117.246H208.504" stroke="#DDDDDD" stroke-width="1.5" stroke-linecap="round" stroke-linejoin="round"/>
</g>
<path d="M92.4893 124.499C103.14 121.099 111.486 118.499 111.486 118.499L126.764 122.441C151.347 128.784 166.038 153.959 159.467 178.483L156.195 190.694L78.2292 169.803L55.9862 160.499C55.9862 160.499 68.9923 131.999 92.4893 124.499Z" fill="#1A4E66"/>
<path d="M92.9893 154C94.4893 149.5 97.4655 143.563 101.527 140.469" stroke="#133B4E" stroke-width="2.28349" stroke-linecap="round"/>
<path d="M146.521 164.68C146.521 160.68 146.521 158.68 143.021 155.18" stroke="#133B4E" stroke-width="2.28349" stroke-linecap="round"/>
<path fill-rule="evenodd" clip-rule="evenodd" d="M129.343 78.4403C131.98 68.5965 142.098 62.7548 151.942 65.3924C161.991 68.0851 167.829 78.5486 164.842 88.5142L159.243 107.193C156.766 115.459 148.843 120.863 140.243 120.154L140.082 120.141L139.254 126.656C138.399 133.381 131.901 137.88 125.305 136.312C116.235 134.156 110.249 125.509 111.425 116.261L111.706 114.048L114.136 94.9296C112.793 93.8384 111.769 92.3288 111.287 90.5292C110.07 85.9879 112.765 81.3201 117.306 80.1033C121.586 78.9563 125.979 81.2848 127.489 85.359L129.343 78.4403Z" fill="#FF9BA5"/>
<path d="M116.339 83.7581C118.259 82.5757 122.011 81.8206 123.896 87.0319" stroke="#D4737C" stroke-width="1.71262" stroke-linecap="round"/>
<ellipse cx="155.697" cy="92.1238" rx="2.39769" ry="3.67646" transform="rotate(9.7725 155.697 92.1238)" fill="white"/>
<ellipse cx="140.81" cy="90.4129" rx="2.39769" ry="3.67646" transform="rotate(9.7725 140.81 90.4129)" fill="white"/>
<ellipse cx="1.8" cy="2.40055" rx="1.8" ry="2.40055" transform="matrix(0.987497 0.157637 -0.182706 0.983168 156.206 89.5469)" fill="#25262B"/>
<ellipse cx="1.8" cy="2.40055" rx="1.8" ry="2.40055" transform="matrix(0.987497 0.157637 -0.182706 0.983168 141.295 88)" fill="#25262B"/>
<path d="M146.942 95.8828C150.339 96.6857 155.566 98.9163 149.306 101.416" stroke="#D4737C" stroke-width="1.71262" stroke-linecap="round"/>
<path d="M113.458 100.586L114.154 94.9198C115.828 95.6946 117.695 95.9536 119.517 95.6636L119.82 95.6155L113.458 100.586Z" fill="#D5737C"/>
<path fill-rule="evenodd" clip-rule="evenodd" d="M139.085 127.641C138.825 128.846 138.38 129.967 137.785 130.981L124.626 115.391L130.778 118.281C132.905 119.281 135.205 119.86 137.551 119.988L140.086 120.127L140.085 120.139L140.082 120.138L140.024 120.595L139.085 127.641Z" fill="#D5737C"/>
<path d="M121.533 61.3402C123.409 54.0214 130.9 49.6424 138.198 51.5979L158.458 57.0265C166.637 59.2182 172.033 67.0025 171.215 75.4309C171.046 77.1685 170.55 78.8586 169.754 80.4122L166.801 86.175C166.031 87.6761 164.279 88.3873 162.681 87.8468C161.684 87.5096 160.899 86.7301 160.555 85.7355L158.868 80.8606C157.775 77.701 155.795 74.923 153.165 72.8586L150.498 70.7646C149.425 76.6544 145.218 81.486 139.531 83.357L133.708 85.2727C132.379 85.7101 131.242 86.5942 130.49 87.7748L129.403 89.4814C128.946 90.1985 127.838 89.9048 127.797 89.0556L127.741 87.9199C127.343 79.7805 116.721 76.9654 112.344 83.8393L110.067 75.012C108.187 67.728 114.033 60.7579 121.533 61.3402Z" fill="#25262B"/>
<ellipse cx="140.862" cy="107.813" rx="1.71262" ry="2.85437" transform="rotate(12.8767 140.862 107.813)" fill="#D4737C"/>
<path d="M153.88 82.5547C158.053 84.9641 161.282 84.851 162.375 84.4933" stroke="#25262B" stroke-width="3.42524" stroke-linecap="round"/>
<path d="M137.794 81.1953C142.449 82.4425 145.539 81.4975 146.502 80.8691" stroke="#25262B" stroke-width="3.42524" stroke-linecap="round"/>
</g>
<defs>
<clipPath id="clip0_30469_34804">
<rect width="388" height="160" rx="16" fill="white"/>
</clipPath>
<clipPath id="clip1_30469_34804">
<rect width="16" height="16" fill="white" transform="matrix(1 0 -0.372502 0.928031 209.46 83)"/>
</clipPath>
<clipPath id="clip2_30469_34804">
<rect width="16" height="16" fill="white" transform="matrix(1 0 -0.372502 0.928031 159.46 137)"/>
</clipPath>
<clipPath id="clip3_30469_34804">
<rect width="16" height="16" fill="white" transform="matrix(1 0 -0.372502 0.928031 192.5 137)"/>
</clipPath>
<clipPath id="clip4_30469_34804">
<rect width="16" height="16" fill="white" transform="matrix(1 0 -0.372502 0.928031 242.46 83)"/>
</clipPath>
<clipPath id="clip5_30469_34804">
<rect width="16" height="16" fill="white" transform="matrix(1 0 -0.372502 0.928031 234.5 110)"/>
</clipPath>
<clipPath id="clip6_30469_34804">
<rect width="16" height="16" fill="white" transform="matrix(1 0 -0.372502 0.928031 226.54 137)"/>
</clipPath>
<clipPath id="clip7_30469_34804">
<rect width="16" height="16" fill="white" transform="matrix(1 0 -0.372502 0.928031 268.5 110)"/>
</clipPath>
<clipPath id="clip8_30469_34804">
<rect width="16" height="16" fill="white" transform="matrix(1 0 -0.325568 0.945519 276 83)"/>
</clipPath>
<clipPath id="clip9_30469_34804">
<rect width="16" height="16" fill="white" transform="matrix(1 0 -0.325568 0.945519 260 137)"/>
</clipPath>
<clipPath id="clip10_30469_34804">
<rect width="16" height="16" fill="white" transform="matrix(1 0 -0.325568 0.945519 175 83)"/>
</clipPath>
<clipPath id="clip11_30469_34804">
<rect width="16" height="16" fill="white" transform="matrix(1 0 -0.325568 0.945519 167 110)"/>
</clipPath>
<clipPath id="clip12_30469_34804">
<rect width="16" height="16" fill="white" transform="matrix(1 0 -0.325568 0.945519 201 110)"/>
</clipPath>
</defs>
</svg>
