<svg width="428" height="241" viewBox="0 0 428 241" fill="none" xmlns="http://www.w3.org/2000/svg">
<g clip-path="url(#clip0_20878_172250)">
<path d="M0 0H428V321H0V0Z" fill="#EFEFEF"/>
<path opacity="0.05" d="M487 418C487 385.301 479.939 352.922 466.219 322.712C452.5 292.502 432.391 265.052 407.04 241.93C381.69 218.809 351.594 200.467 318.473 187.954C285.351 175.441 249.851 169 214 169C178.149 169 142.649 175.441 109.527 187.954C76.4055 200.467 46.3102 218.809 20.9598 241.93C-4.39056 265.052 -24.4996 292.502 -38.2191 322.712C-51.9387 352.922 -59 385.301 -59 418L214 418H487Z" fill="#25262B"/>
<path d="M123 76.6001C123 74.391 124.791 72.6001 127 72.6001H308.4C310.609 72.6001 312.4 74.391 312.4 76.6001V167C312.4 169.209 310.609 171 308.4 171H127C124.791 171 123 169.209 123 167V121.8V76.6001Z" fill="#EFEFEF" stroke="#BDBDBD" stroke-width="8"/>
<path d="M123 77C123 74.7909 124.791 73 127 73H183C185.209 73 187 74.7909 187 77V167C187 169.209 185.209 171 183 171H127C124.791 171 123 169.209 123 167V122V77Z" fill="#EFEFEF" stroke="#BDBDBD" stroke-width="8"/>
<path d="M123 75.2377C123 73.4166 124.23 71.8253 125.993 71.3667L169 60.1742L169 181.877L126.03 171.134C124.249 170.689 123 169.089 123 167.254V122.255V75.2377Z" fill="#BDBDBD" stroke="#BDBDBD" stroke-width="8"/>
<path d="M247 100.413C247 98.9147 246.706 97.4307 246.135 96.0461C245.564 94.6614 244.727 93.4033 243.672 92.3436C242.616 91.2838 241.364 90.4432 239.985 89.8697C238.606 89.2961 237.129 89.0009 235.636 89.0009H224.51C223.005 88.9815 221.512 89.2623 220.116 89.8271C218.721 90.3918 217.451 91.2293 216.38 92.2909C215.309 93.3525 214.459 94.6171 213.879 96.0112C213.299 97.4054 213 98.9014 213 100.413C213 101.924 213.299 103.42 213.879 104.814C214.459 106.208 215.309 107.473 216.38 108.534C217.451 109.596 218.721 110.433 220.116 110.998C221.512 111.563 223.005 111.844 224.51 111.824H226.688V117.334C226.688 117.334 247 114.58 247 100.413ZM236.656 130.556C236.656 134.73 233.289 138.111 229.133 138.111C224.976 138.111 221.61 134.73 221.61 130.556C221.61 126.382 224.976 123 229.133 123C233.289 123 236.656 126.382 236.656 130.556ZM229.133 141.889C223.797 141.889 213.146 144.59 213.146 149.949V157H245.119V149.949C245.119 144.588 234.468 141.889 229.133 141.889ZM264.867 138.111C269.024 138.111 272.39 134.73 272.39 130.556C272.39 126.382 269.024 123 264.867 123C260.711 123 257.344 126.382 257.344 130.556C257.344 134.73 260.711 138.111 264.867 138.111ZM264.867 141.889C259.532 141.889 248.881 144.59 248.881 149.949V157H280.854V149.949C280.854 144.588 270.203 141.889 264.867 141.889ZM262.125 90.8898C259.111 90.8898 256.221 92.0922 254.09 94.2325C251.959 96.3727 250.762 99.2755 250.762 102.302C250.762 116.469 268.817 119.223 268.817 119.223V113.713H269.49C270.995 113.732 272.488 113.452 273.884 112.887C275.279 112.322 276.549 111.485 277.62 110.423C278.691 109.361 279.541 108.097 280.121 106.703C280.701 105.308 281 103.812 281 102.301C281 100.79 280.701 99.2943 280.121 97.9001C279.541 96.5059 278.691 95.2414 277.62 94.1798C276.549 93.1182 275.279 92.2807 273.884 91.7159C272.488 91.1512 270.995 90.8704 269.49 90.8898H262.125Z" fill="#BDBDBD"/>
<rect x="111" y="167" width="32" height="8" rx="4" fill="#BDBDBD"/>
<circle cx="160" cy="119" r="5" fill="white"/>
</g>
<defs>
<clipPath id="clip0_20878_172250">
<rect width="428" height="241" fill="white"/>
</clipPath>
</defs>
</svg>
