<svg width="120" height="120" viewBox="0 0 120 120" fill="none" xmlns="http://www.w3.org/2000/svg">
<circle cx="60" cy="60" r="60" fill="#EFEFEF"/>
<g clip-path="url(#clip0_37211_29999)">
<g clip-path="url(#clip1_37211_29999)">
<path d="M67.1001 47.9765L84.8087 43.2315C86.9436 42.6595 89.2182 42.9589 91.1322 44.064C93.0463 45.1691 94.4429 46.9892 95.0149 49.1241C95.587 51.2589 95.2875 53.5335 94.1824 55.4476C93.0774 57.3616 91.2572 58.7582 89.1224 59.3303L76.179 62.7984C75.6967 62.928 75.2498 63.1642 74.8711 63.4897C74.4924 63.8151 74.1916 64.2215 73.9911 64.6788L66.7105 81.296C66.51 81.7533 66.2092 82.1597 65.8305 82.4851C65.4519 82.8106 65.0049 83.0468 64.5226 83.1764L57.9415 84.9398C57.4155 85.0803 56.8631 85.09 56.3326 84.9677C55.802 84.8455 55.3095 84.5952 54.898 84.2387C54.4865 83.8822 54.1687 83.4303 53.9722 82.9226C53.7756 82.4149 53.7065 81.8667 53.7707 81.3261L54.7269 73.2777C54.7911 72.7374 54.7221 72.1895 54.5258 71.682C54.3295 71.1745 54.012 70.7227 53.6009 70.3662C53.1898 70.0097 52.6977 69.7592 52.1675 69.6366C51.6374 69.5141 51.0852 69.5232 50.5594 69.6632L38.1183 72.9968C37.4882 73.1655 36.8226 73.1457 36.2037 72.9398C35.5848 72.7339 35.0399 72.351 34.6365 71.8385L23.4229 57.5885C23.0816 57.1548 22.8533 56.6432 22.7585 56.0995C22.6637 55.5558 22.7054 54.9971 22.8798 54.4735C23.0543 53.9499 23.3559 53.4778 23.7578 53.0996C24.1597 52.7214 24.6492 52.4488 25.1825 52.3065L31.1873 50.6975C31.7852 50.5376 32.4157 50.5474 33.0084 50.7256C33.601 50.9039 34.1323 51.2436 34.5428 51.7067L36.7566 54.1987C37.1671 54.6618 37.6984 55.0015 38.291 55.1798C38.8837 55.358 39.5142 55.3678 40.1121 55.2079L51.0013 52.2902M67.1001 47.9765L55.3009 38.7148C54.8939 38.3953 54.418 38.1749 53.911 38.0712C53.404 37.9674 52.8799 37.9831 52.38 38.1171L46.3205 39.7407C45.7719 39.888 45.2701 40.173 44.8627 40.5687C44.4552 40.9644 44.1556 41.4577 43.9923 42.0016C43.829 42.5456 43.8074 43.1223 43.9296 43.677C44.0518 44.2317 44.3136 44.7459 44.6904 45.171L51.0013 52.2902M67.1001 47.9765L51.0013 52.2902L67.1001 47.9765Z" fill="#BDBDBD"/>
<circle cx="80" cy="74.2852" r="18.1429" fill="#BDBDBD" stroke="#EFEFEF" stroke-width="3.71429"/>
<path d="M75 69.2852L85 79.2852" stroke="#EFEFEF" stroke-width="3.71429" stroke-linecap="round" stroke-linejoin="round"/>
<path d="M75 79.2852L85 69.2852" stroke="#EFEFEF" stroke-width="3.71429" stroke-linecap="round" stroke-linejoin="round"/>
</g>
</g>
<defs>
<clipPath id="clip0_37211_29999">
<rect width="80" height="80" fill="white" transform="translate(20 20)"/>
</clipPath>
<clipPath id="clip1_37211_29999">
<rect width="80" height="80" fill="white" transform="translate(20 20)"/>
</clipPath>
</defs>
</svg>
