<svg width="96" height="96" viewBox="0 0 96 96" fill="none" xmlns="http://www.w3.org/2000/svg">
<circle opacity="0.1" cx="48" cy="48" r="48" fill="#00A2B9"/>
<circle opacity="0.2" cx="48" cy="48" r="40" fill="#00A2B9"/>
<circle cx="48" cy="48" r="32" fill="#00A2B9"/>
<path d="M48 24.667C43.3851 24.667 38.8738 26.0355 35.0367 28.5994C31.1995 31.1633 28.2088 34.8074 26.4428 39.071C24.6767 43.3347 24.2147 48.0262 25.115 52.5524C26.0153 57.0787 28.2376 61.2363 31.5008 64.4995C34.764 67.7627 38.9216 69.985 43.4479 70.8853C47.9741 71.7856 52.6656 71.3236 56.9292 69.5575C61.1929 67.7915 64.837 64.8008 67.4009 60.9636C69.9648 57.1265 71.3333 52.6152 71.3333 48.0003C71.3333 44.9361 70.7298 41.902 69.5572 39.071C68.3845 36.2401 66.6658 33.6679 64.4991 31.5012C62.3324 29.3345 59.7602 27.6157 56.9292 26.4431C54.0983 25.2705 51.0641 24.667 48 24.667ZM50.3333 57.3337C50.3333 57.9525 50.0875 58.546 49.6499 58.9836C49.2123 59.4212 48.6188 59.667 48 59.667C47.3811 59.667 46.7876 59.4212 46.3501 58.9836C45.9125 58.546 45.6666 57.9525 45.6666 57.3337V45.667C45.6666 45.0482 45.9125 44.4547 46.3501 44.0171C46.7876 43.5795 47.3811 43.3337 48 43.3337C48.6188 43.3337 49.2123 43.5795 49.6499 44.0171C50.0875 44.4547 50.3333 45.0482 50.3333 45.667V57.3337ZM48 41.0003C47.5385 41.0003 47.0874 40.8635 46.7036 40.6071C46.3199 40.3507 46.0209 39.9863 45.8442 39.5599C45.6676 39.1336 45.6214 38.6644 45.7115 38.2118C45.8015 37.7592 46.0237 37.3434 46.3501 37.0171C46.6764 36.6908 47.0921 36.4685 47.5448 36.3785C47.9974 36.2885 48.4665 36.3347 48.8929 36.5113C49.3193 36.6879 49.6837 36.9869 49.9401 37.3707C50.1965 37.7544 50.3333 38.2055 50.3333 38.667C50.3333 39.2858 50.0875 39.8793 49.6499 40.3169C49.2123 40.7545 48.6188 41.0003 48 41.0003Z" fill="white"/>
</svg>
