<svg width="298" height="155" viewBox="0 0 298 155" fill="none" xmlns="http://www.w3.org/2000/svg">
<g clip-path="url(#clip0_26544_173206)">
<ellipse cx="148.813" cy="287.229" rx="189.813" ry="189.229" fill="url(#paint0_linear_26544_173206)"/>
<g opacity="0.7" filter="url(#filter0_f_26544_173206)">
<ellipse cx="155.187" cy="276.105" rx="127.622" ry="127.229" fill="white"/>
</g>
<g opacity="0.7" filter="url(#filter1_f_26544_173206)">
<ellipse cx="271.796" cy="276.105" rx="127.622" ry="127.229" fill="white"/>
</g>
<g opacity="0.7" filter="url(#filter2_f_26544_173206)">
<ellipse cx="25.6217" cy="276.105" rx="127.622" ry="127.229" fill="white"/>
</g>
<mask id="path-6-inside-1_26544_173206" fill="white">
<path d="M100.8 24.2002C100.8 23.0956 101.695 22.2002 102.8 22.2002H195C196.105 22.2002 197 23.0956 197 24.2002V41.0002C197 42.1048 196.105 43.0002 195 43.0002H102.8C101.695 43.0002 100.8 42.1048 100.8 41.0002V24.2002Z"/>
</mask>
<path d="M100.8 24.2002C100.8 23.0956 101.695 22.2002 102.8 22.2002H195C196.105 22.2002 197 23.0956 197 24.2002V41.0002C197 42.1048 196.105 43.0002 195 43.0002H102.8C101.695 43.0002 100.8 42.1048 100.8 41.0002V24.2002Z" fill="#BDBDBD"/>
<path d="M100.8 22.2002H197H100.8ZM197 43.0002H100.8H197ZM100.8 43.0002V22.2002V43.0002ZM195 22.2002C198.314 22.2002 201 24.8865 201 28.2002V37.0002C201 40.3139 198.314 43.0002 195 43.0002H193C193 43.0002 193 42.1048 193 41.0002V24.2002C193 23.0956 193 22.2002 193 22.2002H195Z" fill="#666666" fill-opacity="0.5" mask="url(#path-6-inside-1_26544_173206)"/>
<rect opacity="0.4" x="173" y="30" width="5.2" height="5.2" rx="1" fill="#666666"/>
<rect x="108.6" y="30" width="31.2" height="5.2" rx="2.6" fill="#EFEFEF"/>
<rect x="182" y="30" width="5.2" height="5.2" rx="2.6" fill="#666666"/>
<mask id="path-11-inside-2_26544_173206" fill="white">
<path d="M100.8 50.2002C100.8 49.0956 101.695 48.2002 102.8 48.2002H195C196.105 48.2002 197 49.0956 197 50.2002V67.0002C197 68.1048 196.105 69.0002 195 69.0002H102.8C101.695 69.0002 100.8 68.1048 100.8 67.0002V50.2002Z"/>
</mask>
<path d="M100.8 50.2002C100.8 49.0956 101.695 48.2002 102.8 48.2002H195C196.105 48.2002 197 49.0956 197 50.2002V67.0002C197 68.1048 196.105 69.0002 195 69.0002H102.8C101.695 69.0002 100.8 68.1048 100.8 67.0002V50.2002Z" fill="#BDBDBD"/>
<path d="M100.8 48.2002H197H100.8ZM197 69.0002H100.8H197ZM100.8 69.0002V48.2002V69.0002ZM195 48.2002C198.314 48.2002 201 50.8865 201 54.2002V63.0002C201 66.3139 198.314 69.0002 195 69.0002H193C193 69.0002 193 68.1048 193 67.0002V50.2002C193 49.0956 193 48.2002 193 48.2002H195Z" fill="#666666" fill-opacity="0.5" mask="url(#path-11-inside-2_26544_173206)"/>
<rect x="108.6" y="56" width="31.2" height="5.2" rx="2.6" fill="#EFEFEF"/>
<rect opacity="0.4" x="173" y="56" width="5.2" height="5.2" rx="1" fill="#666666"/>
<rect x="182" y="56" width="5.2" height="5.2" rx="2.6" fill="#666666"/>
<mask id="path-16-inside-3_26544_173206" fill="white">
<path d="M100.8 76.2002C100.8 75.0956 101.695 74.2002 102.8 74.2002H195C196.105 74.2002 197 75.0956 197 76.2002V93.0002C197 94.1048 196.105 95.0002 195 95.0002H102.8C101.695 95.0002 100.8 94.1048 100.8 93.0002V76.2002Z"/>
</mask>
<path d="M100.8 76.2002C100.8 75.0956 101.695 74.2002 102.8 74.2002H195C196.105 74.2002 197 75.0956 197 76.2002V93.0002C197 94.1048 196.105 95.0002 195 95.0002H102.8C101.695 95.0002 100.8 94.1048 100.8 93.0002V76.2002Z" fill="#BDBDBD"/>
<path d="M100.8 74.2002H197H100.8ZM197 95.0002H100.8H197ZM100.8 95.0002V74.2002V95.0002ZM195 74.2002C198.314 74.2002 201 76.8865 201 80.2002V89.0002C201 92.3139 198.314 95.0002 195 95.0002H193C193 95.0002 193 94.1048 193 93.0002V76.2002C193 75.0956 193 74.2002 193 74.2002H195Z" fill="#666666" fill-opacity="0.5" mask="url(#path-16-inside-3_26544_173206)"/>
<rect opacity="0.4" x="173" y="82" width="5.2" height="5.2" rx="1" fill="#666666"/>
<rect x="108.6" y="82" width="31.2" height="5.2" rx="2.6" fill="#EFEFEF"/>
<rect x="182" y="82" width="5.2" height="5.2" rx="2.6" fill="#666666"/>
<mask id="path-21-inside-4_26544_173206" fill="white">
<path d="M100.8 102.2C100.8 101.096 101.695 100.2 102.8 100.2H195C196.105 100.2 197 101.096 197 102.2V119C197 120.105 196.105 121 195 121H102.8C101.695 121 100.8 120.105 100.8 119V102.2Z"/>
</mask>
<path d="M100.8 102.2C100.8 101.096 101.695 100.2 102.8 100.2H195C196.105 100.2 197 101.096 197 102.2V119C197 120.105 196.105 121 195 121H102.8C101.695 121 100.8 120.105 100.8 119V102.2Z" fill="#BDBDBD"/>
<path d="M100.8 100.2H197H100.8ZM197 121H100.8H197ZM100.8 121V100.2V121ZM195 100.2C198.314 100.2 201 102.886 201 106.2V115C201 118.314 198.314 121 195 121H193C193 121 193 120.105 193 119V102.2C193 101.096 193 100.2 193 100.2H195Z" fill="#666666" fill-opacity="0.5" mask="url(#path-21-inside-4_26544_173206)"/>
<rect opacity="0.4" x="173" y="108" width="5.2" height="5.2" rx="1" fill="#666666"/>
<rect x="108.6" y="108" width="31.2" height="5.2" rx="2.6" fill="#EFEFEF"/>
<rect x="182" y="108" width="5.2" height="5.2" rx="2.6" fill="#666666"/>
<rect x="112.5" y="43" width="72.8" height="5.2" fill="#DDDDDD"/>
<path d="M112.5 21C112.5 18.7909 114.291 17 116.5 17H180.1C182.972 17 185.3 19.3281 185.3 22.2H112.5V21Z" fill="#DDDDDD"/>
<rect x="112.5" y="69" width="72.8" height="5.2" fill="#DDDDDD"/>
<rect x="112.5" y="95" width="72.8" height="5.2" fill="#DDDDDD"/>
<path d="M112.5 121H126.5V125.2C126.5 125.752 126.052 126.2 125.5 126.2H113.5C112.948 126.2 112.5 125.752 112.5 125.2V121Z" fill="#666666"/>
<path d="M171 121H185V125.2C185 125.752 184.552 126.2 184 126.2H172C171.448 126.2 171 125.752 171 125.2V121Z" fill="#666666"/>
<path d="M156.246 26.6959L155.921 8.16189L141.547 10.2201L131.228 -0.464338L129.67 20.1975L134.214 35.2559L150.72 36.9393L158.501 65.9584L167.548 33.6923L156.246 26.6959Z" fill="white"/>
<path d="M222.928 50L212 52.9282" stroke="#BDBDBD" stroke-width="2" stroke-linecap="round" stroke-linejoin="round"/>
<path d="M216 46L218.928 56.9282" stroke="#BDBDBD" stroke-width="2" stroke-linecap="round" stroke-linejoin="round"/>
<path d="M70 84L80.9282 86.9282" stroke="#BDBDBD" stroke-width="2" stroke-linecap="round" stroke-linejoin="round"/>
<path d="M76.9282 80L74 90.9282" stroke="#BDBDBD" stroke-width="2" stroke-linecap="round" stroke-linejoin="round"/>
<circle cx="93" cy="43" r="18" fill="#F3AF00" stroke="white" stroke-width="4"/>
<g clip-path="url(#clip1_26544_173206)">
<path d="M99.8501 47.1891L94.4389 37.2225C94.2957 36.9592 94.0841 36.7395 93.8265 36.5864C93.5689 36.4333 93.2747 36.3525 92.9751 36.3525C92.6754 36.3525 92.3812 36.4333 92.1236 36.5864C91.866 36.7395 91.6544 36.9592 91.5112 37.2225L86.0945 47.1891C85.9527 47.4436 85.8801 47.7308 85.8839 48.0221C85.8877 48.3134 85.9678 48.5986 86.1162 48.8492C86.2646 49.0999 86.4761 49.3073 86.7296 49.4508C86.9832 49.5943 87.2699 49.6688 87.5612 49.6669H98.3834C98.6723 49.6672 98.9563 49.5923 99.2076 49.4497C99.4588 49.3071 99.6687 49.1016 99.8166 48.8534C99.9645 48.6053 100.045 48.3229 100.051 48.034C100.057 47.7452 99.9878 47.4598 99.8501 47.2058V47.1891ZM92.1445 40.078C92.1445 39.857 92.2323 39.645 92.3886 39.4888C92.5449 39.3325 92.7568 39.2447 92.9778 39.2447C93.1988 39.2447 93.4108 39.3325 93.5671 39.4888C93.7234 39.645 93.8112 39.857 93.8112 40.078V43.9058C93.8112 44.1268 93.7234 44.3388 93.5671 44.495C93.4108 44.6513 93.1988 44.7391 92.9778 44.7391C92.7568 44.7391 92.5449 44.6513 92.3886 44.495C92.2323 44.3388 92.1445 44.1268 92.1445 43.9058V40.078ZM93.0001 47.5836C92.8111 47.5836 92.6263 47.5275 92.4692 47.4225C92.312 47.3175 92.1896 47.1683 92.1172 46.9937C92.0449 46.8191 92.026 46.627 92.0629 46.4416C92.0997 46.2562 92.1907 46.086 92.3244 45.9523C92.458 45.8187 92.6283 45.7277 92.8136 45.6908C92.999 45.6539 93.1911 45.6729 93.3657 45.7452C93.5403 45.8175 93.6896 45.94 93.7946 46.0971C93.8996 46.2543 93.9556 46.439 93.9556 46.628C93.9556 46.8814 93.8549 47.1245 93.6757 47.3037C93.4965 47.4829 93.2535 47.5836 93.0001 47.5836Z" fill="white"/>
</g>
</g>
<defs>
<filter id="filter0_f_26544_173206" x="11.5652" y="132.876" width="287.243" height="286.458" filterUnits="userSpaceOnUse" color-interpolation-filters="sRGB">
<feFlood flood-opacity="0" result="BackgroundImageFix"/>
<feBlend mode="normal" in="SourceGraphic" in2="BackgroundImageFix" result="shape"/>
<feGaussianBlur stdDeviation="8" result="effect1_foregroundBlur_26544_173206"/>
</filter>
<filter id="filter1_f_26544_173206" x="128.174" y="132.876" width="287.243" height="286.458" filterUnits="userSpaceOnUse" color-interpolation-filters="sRGB">
<feFlood flood-opacity="0" result="BackgroundImageFix"/>
<feBlend mode="normal" in="SourceGraphic" in2="BackgroundImageFix" result="shape"/>
<feGaussianBlur stdDeviation="8" result="effect1_foregroundBlur_26544_173206"/>
</filter>
<filter id="filter2_f_26544_173206" x="-118" y="132.876" width="287.243" height="286.458" filterUnits="userSpaceOnUse" color-interpolation-filters="sRGB">
<feFlood flood-opacity="0" result="BackgroundImageFix"/>
<feBlend mode="normal" in="SourceGraphic" in2="BackgroundImageFix" result="shape"/>
<feGaussianBlur stdDeviation="8" result="effect1_foregroundBlur_26544_173206"/>
</filter>
<linearGradient id="paint0_linear_26544_173206" x1="148.813" y1="98" x2="148.813" y2="153.542" gradientUnits="userSpaceOnUse">
<stop stop-color="#D9D9D9"/>
<stop offset="1" stop-color="white"/>
</linearGradient>
<clipPath id="clip0_26544_173206">
<rect width="298" height="155" rx="8" fill="white"/>
</clipPath>
<clipPath id="clip1_26544_173206">
<rect width="20" height="20" fill="white" transform="translate(83 33)"/>
</clipPath>
</defs>
</svg>
