<svg width="120" height="120" viewBox="0 0 120 120" fill="none" xmlns="http://www.w3.org/2000/svg">
<defs>
<linearGradient id="paint0_linear_5016_48097" x1="59.9999" y1="38.6675" x2="59.9999" y2="81.3341" gradientUnits="userSpaceOnUse">
<stop stop-color="#01C6E2"/>
<stop offset="1" stop-color="#007CA4"/>
</linearGradient>
</defs>
<mask id="mask0_5016_48097" style="mask-type:alpha" maskUnits="userSpaceOnUse" x="0" y="0" width="120" height="120">
<circle cx="60" cy="60" r="60" fill="#00A2B9"/>
</mask>
<g mask="url(#mask0_5016_48097)">
<path opacity="0.1" d="M-134.158 79.0387L-137.648 67.7073V137.647H176.47V-15.8823L172.979 -8.85354C169.489 -1.82476 162.509 12.2328 155.529 14.1793C148.548 16.1258 141.568 5.96122 134.587 15.3127C127.607 24.6642 120.627 53.5318 113.646 62.5378C106.666 71.5439 99.6854 60.6883 92.705 60.7994C85.7246 60.9105 78.7442 71.9883 71.7638 72.8956C64.7834 73.803 57.803 64.54 50.8226 66.6732C43.8422 68.8063 36.8618 82.3357 29.8815 82.6424C22.9011 82.9491 15.9207 70.0332 8.94028 65.9694C1.95988 61.9056 -5.02051 66.6939 -12.0009 77.6776C-18.9813 88.6613 -25.9617 105.84 -32.9421 109.09C-39.9225 112.339 -46.9029 101.659 -53.8832 92.0708C-60.8636 82.4831 -67.844 73.9882 -74.8244 71.9378C-81.8048 69.8875 -88.7852 74.2818 -95.7656 85.9822C-102.746 97.6827 -109.726 116.689 -116.707 114.861C-123.687 113.033 -130.668 90.3702 -134.158 79.0387Z" fill="#229BD8"/>
<rect x="35.9999" y="44.0005" width="48" height="20" fill="white"/>
<path d="M81.3332 38.6675H38.6666C35.7333 38.6675 33.3599 41.0675 33.3599 44.0008L33.3333 76.0008C33.3333 78.9341 35.7333 81.3341 38.6666 81.3341H81.3332C84.2666 81.3341 86.6666 78.9341 86.6666 76.0008V44.0008C86.6666 41.0675 84.2666 38.6675 81.3332 38.6675ZM80.2666 50.0008L61.4132 61.7875C60.5599 62.3208 59.4399 62.3208 58.5866 61.7875L39.7333 50.0008C39.4659 49.8507 39.2317 49.6479 39.045 49.4047C38.8582 49.1615 38.7228 48.8829 38.6468 48.5858C38.5708 48.2887 38.5559 47.9793 38.603 47.6763C38.6501 47.3733 38.7581 47.083 38.9207 46.8229C39.0832 46.5629 39.2968 46.3386 39.5485 46.1635C39.8003 45.9884 40.0849 45.8662 40.3852 45.8043C40.6856 45.7424 40.9953 45.7421 41.2958 45.8033C41.5963 45.8646 41.8812 45.9862 42.1333 46.1608L59.9999 57.3341L77.8666 46.1608C78.1187 45.9862 78.4036 45.8646 78.704 45.8033C79.0045 45.7421 79.3143 45.7424 79.6146 45.8043C79.9149 45.8662 80.1996 45.9884 80.4513 46.1635C80.7031 46.3386 80.9166 46.5629 81.0792 46.8229C81.2417 47.083 81.3498 47.3733 81.3968 47.6763C81.4439 47.9793 81.429 48.2887 81.3531 48.5858C81.2771 48.8829 81.1416 49.1615 80.9549 49.4047C80.7681 49.6479 80.534 49.8507 80.2666 50.0008Z" fill="url(#paint0_linear_5016_48097)"/>
<circle opacity="0.1" cx="60" cy="60" r="60" fill="#00A2B9"/>
</g>
<path d="M115.314 27.3137C118.314 24.3131 120 20.2435 120 16C120 11.7565 118.314 7.68687 115.314 4.68629C112.313 1.68571 108.243 0 104 0C99.7565 0 95.6869 1.68571 92.6863 4.68629C89.6857 7.68687 88 11.7565 88 16C88 20.2435 89.6857 24.3131 92.6863 27.3137C95.6869 30.3143 99.7565 32 104 32C108.243 32 112.313 30.3143 115.314 27.3137Z" fill="#5AA200"/>
<path d="M111.792 9.0215C112.008 9.11112 112.205 9.24247 112.37 9.40803C112.535 9.57317 112.667 9.76935 112.756 9.98533C112.846 10.2013 112.892 10.4329 112.892 10.6667C112.892 10.9005 112.846 11.1321 112.756 11.3481C112.667 11.564 112.535 11.7602 112.37 11.9254L101.703 22.592C101.538 22.7576 101.342 22.8889 101.126 22.9786C100.91 23.0682 100.678 23.1143 100.444 23.1143C100.211 23.1143 99.9791 23.0682 99.7631 22.9786C99.5471 22.8889 99.3509 22.7576 99.1858 22.592L95.6302 19.0365C95.2964 18.7027 95.1089 18.2499 95.1089 17.7778C95.1089 17.3057 95.2964 16.853 95.6302 16.5191C95.9641 16.1853 96.4168 15.9978 96.8889 15.9978C97.361 15.9978 97.8138 16.1853 98.1476 16.5191L100.444 18.8196L109.852 9.40803C110.018 9.24247 110.214 9.11112 110.43 9.0215C110.646 8.93188 110.877 8.88574 111.111 8.88574C111.345 8.88574 111.577 8.93188 111.792 9.0215Z" fill="#F1F1F1"/>
</svg>
