<svg width="222" height="148" viewBox="0 0 222 148" fill="none" xmlns="http://www.w3.org/2000/svg">
<path fill-rule="evenodd" clip-rule="evenodd" d="M105.018 110.721C144.95 113.389 165.437 148.298 196.73 129.433C228.014 110.573 228.986 67.4976 206.616 47.91C184.245 28.3224 146.03 60.155 118.067 53.9265C90.1041 47.698 78 32.8809 56 29.5C34 26.1191 16.1862 31.5812 7.61437 47.9099C-3.89553 69.8355 -4.32741 103.625 20.1976 115.842C47.1055 129.246 73.7629 108.633 105.018 110.721Z" fill="#EFEFEF"/>
<path opacity="0.8" d="M104.71 34.2759C134.439 47.723 154.525 36.1431 159.78 32.4553C160.142 32.2013 159.895 31.7174 159.464 31.8194L152.213 33.5376C134.506 37.7336 115.852 34.5403 100.549 24.6928C89.7446 17.7407 77.1683 14.0441 64.3208 14.0441L53.5705 14.0441C53.3775 14.0441 53.334 14.375 53.5238 14.41C60.4253 15.685 82.7823 20.6229 104.71 34.2759Z" fill="#EFEFEF" stroke="#EFEFEF" stroke-width="10" stroke-linecap="round" stroke-linejoin="round"/>
<ellipse opacity="0.8" cx="179.5" cy="31.3217" rx="8.5" ry="4.5" fill="#EFEFEF"/>
<path opacity="0.4" d="M129.778 67.2024C128.811 76.0708 139.445 84.2823 152.409 80.8651C158.413 79.2826 167.014 71.818 169.316 66.3605C170.92 62.5566 165.338 56.1584 160.748 60.917C158.941 62.7896 156.611 63.7388 157.347 68.0541C157.741 70.3609 161.083 73.3571 162.962 74.8142C167.93 78.6683 172.598 83.5005 180.316 82.2421C193.054 80.1651 193.345 73.4081 192.301 70.6859" stroke="#666666" stroke-width="2" stroke-linecap="round" stroke-dasharray="6 6"/>
<path opacity="0.4" d="M23.0281 63.2752C21.5942 73 21.0294 78.755 25.5943 86.567C27.0974 89.1394 33.8339 93.8257 36.6722 94.8559C39.6414 95.9336 42.5769 95.0803 45.4164 93.941C49.0637 92.4776 54.1291 89.8003 56.5399 86.567C58.4314 84.0301 54.2188 78.6156 52.2233 77.0097C50.98 76.0091 46.9154 72.943 45.0844 73.6607C43.0797 74.4465 42.6787 78.0089 42.9058 79.7651C43.415 83.7033 45.6921 87.7191 47.6972 91.089C51.1096 96.8241 55.2644 99.8813 61.1821 102.932C65.3454 105.078 70.1838 107.097 74.7714 108.117C76.7214 108.551 79.3613 109.783 81.3211 109.529" stroke="#666666" stroke-width="2" stroke-linecap="round" stroke-dasharray="6 6"/>
<ellipse cx="194.035" cy="64.8065" rx="7.49612" ry="4.49767" transform="rotate(9.17724 194.035 64.8065)" fill="#666666"/>
<ellipse opacity="0.6" cx="191.748" cy="58.5136" rx="3.58793" ry="5.9969" transform="rotate(-7.57772 191.748 58.5136)" fill="white"/>
<ellipse opacity="0.8" rx="3.6226" ry="5.9969" transform="matrix(-0.793103 -0.609088 -0.609088 0.793103 197.089 59.7549)" fill="white"/>
<ellipse cx="26.2259" cy="52.9829" rx="7.31563" ry="4.38938" transform="rotate(-15 26.2259 52.9829)" fill="#666666"/>
<ellipse opacity="0.6" cx="21.6742" cy="48.2943" rx="3.50155" ry="5.85251" transform="rotate(-31.755 21.6742 48.2943)" fill="white"/>
<ellipse opacity="0.8" rx="3.53537" ry="5.85251" transform="matrix(-0.972992 -0.230837 -0.230837 0.972992 26.9254 47.2647)" fill="white"/>
<path d="M154.684 93.4805L148.434 63.8301C147.227 57.3613 142.578 53.5 136 53.5H86C82.7188 53.5 79.9453 54.416 77.7774 56.2227C75.6094 58.0293 74.1895 60.5801 73.5625 63.8184L67.3125 93.4805C67.2703 93.6927 67.2494 93.9086 67.25 94.125V116C67.25 119.315 68.567 122.495 70.9112 124.839C73.2554 127.183 76.4348 128.5 79.75 128.5H142.25C145.565 128.5 148.745 127.183 151.089 124.839C153.433 122.495 154.75 119.315 154.75 116V94.125C154.749 93.9085 154.727 93.6926 154.684 93.4805ZM79.6836 65.082V65.0273C80.377 61.4277 82.3809 59.7539 85.9902 59.7539H136C139.635 59.7539 141.639 61.4238 142.303 65.0098C142.303 65.0352 142.313 65.0605 142.316 65.0859L147.576 90.0625C147.6 90.1763 147.598 90.294 147.571 90.407C147.543 90.52 147.491 90.6254 147.418 90.7156C147.344 90.8058 147.252 90.8785 147.147 90.9284C147.042 90.9782 146.927 91.004 146.811 91.0039H123.5C122.676 90.9997 121.884 91.3228 121.298 91.9022C120.712 92.4815 120.38 93.2698 120.375 94.0938C120.375 96.5802 119.387 98.9647 117.629 100.723C115.871 102.481 113.486 103.469 111 103.469C108.514 103.469 106.129 102.481 104.371 100.723C102.613 98.9647 101.625 96.5802 101.625 94.0938C101.623 93.6854 101.541 93.2815 101.382 92.905C101.224 92.5286 100.993 92.1869 100.703 91.8997C100.413 91.6124 100.069 91.3851 99.6911 91.2307C99.3131 91.0763 98.9083 90.9979 98.5 91H75.1895C75.0732 91.0001 74.9584 90.9743 74.8533 90.9245C74.7483 90.8746 74.6558 90.8019 74.5824 90.7117C74.509 90.6215 74.4567 90.516 74.4293 90.4031C74.4019 90.2901 74.4 90.1724 74.4238 90.0586L79.6836 65.082Z" fill="#BDBDBD"/>
<circle cx="74.6" cy="125.6" r="19.6" fill="#25262B" stroke="white" stroke-width="4"/>
<path d="M70.2437 125.418C70.2437 123.388 70.6075 121.798 71.3349 120.648C72.0741 119.498 73.2944 118.923 74.9957 118.923C76.6971 118.923 77.9115 119.498 78.6389 120.648C79.3781 121.798 79.7477 123.388 79.7477 125.418C79.7477 127.459 79.3781 129.061 78.6389 130.222C77.9115 131.384 76.6971 131.965 74.9957 131.965C73.2944 131.965 72.0741 131.384 71.3349 130.222C70.6075 129.061 70.2437 127.459 70.2437 125.418ZM77.3189 125.418C77.3189 124.549 77.2603 123.822 77.1429 123.235C77.0373 122.637 76.8144 122.15 76.4741 121.774C76.1456 121.399 75.6528 121.211 74.9957 121.211C74.3387 121.211 73.84 121.399 73.4997 121.774C73.1712 122.15 72.9483 122.637 72.8309 123.235C72.7253 123.822 72.6725 124.549 72.6725 125.418C72.6725 126.309 72.7253 127.06 72.8309 127.67C72.9365 128.269 73.1595 128.756 73.4997 129.131C73.84 129.495 74.3387 129.677 74.9957 129.677C75.6528 129.677 76.1515 129.495 76.4917 129.131C76.832 128.756 77.0549 128.269 77.1605 127.67C77.2661 127.06 77.3189 126.309 77.3189 125.418Z" fill="white"/>
</svg>
