<svg width="124" height="138" viewBox="0 0 124 138" fill="none" xmlns="http://www.w3.org/2000/svg">
<defs>
<linearGradient id="paint0_linear_12643_137158" x1="84.9993" y1="47.666" x2="84.9993" y2="74.3327" gradientUnits="userSpaceOnUse">
<stop stop-color="#FF991F"/>
<stop offset="1" stop-color="#B27D3E"/>
</linearGradient>
<linearGradient id="paint1_linear_12643_137158" x1="84.9993" y1="47.666" x2="84.9993" y2="74.3327" gradientUnits="userSpaceOnUse">
<stop stop-color="#FF991F"/>
<stop offset="1" stop-color="#B27D3E"/>
</linearGradient>
<linearGradient id="paint2_linear_12643_137158" x1="55.666" y1="42.333" x2="55.666" y2="79.6663" gradientUnits="userSpaceOnUse">
<stop stop-color="#FF991F"/>
<stop offset="1" stop-color="#B27D3E"/>
</linearGradient>
<linearGradient id="paint3_linear_12643_137158" x1="55.666" y1="42.333" x2="55.666" y2="79.6663" gradientUnits="userSpaceOnUse">
<stop stop-color="#FF991F"/>
<stop offset="1" stop-color="#B27D3E"/>
</linearGradient>
</defs>
<mask id="mask0_12643_137158" style="mask-type:alpha" maskUnits="userSpaceOnUse" x="4" y="0" width="120" height="120">
<circle cx="64" cy="60" r="60" fill="#00A2B9"/>
</mask>
<g mask="url(#mask0_12643_137158)">
<path opacity="0.1" d="M-130.158 79.0382L-133.648 67.7068V137.647H180.469V-15.8828L176.979 -8.85403C173.489 -1.82525 166.508 12.2323 159.528 14.1788C152.548 16.1253 145.567 5.96074 138.587 15.3122C131.606 24.6638 124.626 53.5313 117.646 62.5374C110.665 71.5434 103.685 60.6879 96.7045 60.799C89.7241 60.91 82.7437 71.9878 75.7633 72.8951C68.7829 73.8025 61.8025 64.5395 54.8221 66.6727C47.8418 68.8059 40.8614 82.3352 33.881 82.6419C26.9006 82.9486 19.9202 70.0327 12.9398 65.9689C5.9594 61.9051 -1.021 66.6934 -8.00138 77.6771C-14.9818 88.6608 -21.9622 105.84 -28.9426 109.089C-35.923 112.338 -42.9033 101.658 -49.8837 92.0704C-56.8641 82.4827 -63.8445 73.9877 -70.8249 71.9373C-77.8053 69.887 -84.7857 74.2813 -91.7661 85.9817C-98.7465 97.6822 -105.727 116.689 -112.707 114.861C-119.688 113.033 -126.668 90.3697 -130.158 79.0382Z" fill="#FF991F"/>
<path d="M94.3327 47.666L75.666 60.9993L94.3327 74.3327V47.666Z" fill="url(#paint0_linear_12643_137158)" stroke="url(#paint1_linear_12643_137158)" stroke-width="3" stroke-linecap="round" stroke-linejoin="round"/>
<path d="M70.3327 42.333H40.9993C38.0538 42.333 35.666 44.7208 35.666 47.6663V74.333C35.666 77.2785 38.0538 79.6663 40.9993 79.6663H70.3327C73.2782 79.6663 75.666 77.2785 75.666 74.333V47.6663C75.666 44.7208 73.2782 42.333 70.3327 42.333Z" fill="url(#paint2_linear_12643_137158)" stroke="url(#paint3_linear_12643_137158)" stroke-width="3" stroke-linecap="round" stroke-linejoin="round"/>
<circle opacity="0.1" cx="64" cy="60" r="60" fill="#FF991F"/>
<path d="M44.9706 126.971C49.4714 122.47 52 116.365 52 110C52 103.635 49.4714 97.5303 44.9706 93.0294C40.4697 88.5286 34.3652 86 28 86C21.6348 86 15.5303 88.5286 11.0294 93.0294C6.52857 97.5303 4 103.635 4 110C4 116.365 6.52857 122.47 11.0294 126.971C15.5303 131.471 21.6348 134 28 134C34.3652 134 40.4697 131.471 44.9706 126.971Z" fill="#FF991F" stroke="white" stroke-width="8"/>
<path d="M34.4826 119.259H35.4086V117.407H34.4826V116.481C34.4809 115.356 34.187 114.251 33.6298 113.274C33.0726 112.297 32.2711 111.481 31.3039 110.907C30.9752 110.712 30.7789 110.4 30.7789 110.073V109.926C30.7789 109.599 30.9752 109.287 31.303 109.093C32.2704 108.519 33.072 107.703 33.6294 106.726C34.1867 105.748 34.4808 104.643 34.4826 103.518V102.592H35.4086V100.74H20.5938V102.592H21.5197V103.518C21.5216 104.643 21.8156 105.748 22.3729 106.726C22.9303 107.703 23.7319 108.519 24.6993 109.093C25.0271 109.287 25.2234 109.598 25.2234 109.926V110.073C25.2234 110.4 25.0271 110.712 24.6993 110.906C23.7319 111.48 22.9303 112.296 22.3729 113.273C21.8156 114.251 21.5216 115.356 21.5197 116.481V117.407H20.5938V119.259H34.4826ZM32.6308 102.592V103.518C32.6294 104.52 32.3032 105.495 31.7012 106.296H24.3012C23.6991 105.495 23.3729 104.52 23.3715 103.518V102.592H32.6308ZM25.64 112.501C26.5391 111.97 27.0752 111.062 27.0752 110.073V109.999H28.9271V110.073C28.9271 111.062 29.4632 111.97 30.3632 112.501C31.1952 112.996 31.8502 113.741 32.2354 114.629H23.7669C24.1522 113.741 24.8076 112.996 25.64 112.501Z" fill="white"/>
</g>
</svg>
