<svg width="298" height="155" viewBox="0 0 298 155" fill="none" xmlns="http://www.w3.org/2000/svg">
<g clip-path="url(#clip0_24918_161055)">
<rect x="68" y="94" width="52" height="52" rx="4.75472" fill="#666666"/>
<rect x="76.0566" y="71.1133" width="9.50943" height="9.50943" rx="1.18868" fill="#EFEFEF"/>
<rect width="9.50943" height="9.50943" rx="1.18868" transform="matrix(-1 0 0 1 205.623 125.792)" fill="#DDDDDD"/>
<rect width="9.50943" height="9.50943" rx="1.18868" transform="matrix(-1 0 0 1 216.32 110.34)" fill="#BDBDBD"/>
<rect width="4.75472" height="4.75472" rx="1.18868" transform="matrix(-1 0 0 1 188.981 128.17)" fill="#BDBDBD"/>
<rect width="4.75472" height="4.75472" rx="1.18868" transform="matrix(-1 0 0 1 90.3203 85.3774)" fill="#BDBDBD"/>
<rect width="4.75472" height="4.75472" rx="1.18868" transform="matrix(-1 0 0 1 230.585 119.849)" fill="#BDBDBD"/>
<rect width="16.6415" height="16.6415" rx="1.18868" transform="matrix(-1 0 0 1 205.623 86.5659)" fill="#EFEFEF"/>
<rect x="59.415" y="77.0566" width="9.50943" height="9.50943" rx="1.18868" fill="#DDDDDD"/>
<rect width="9.50943" height="9.50943" rx="1.18868" transform="matrix(-1 0 0 1 222.264 131.736)" fill="#EFEFEF"/>
<path opacity="0.2" d="M86 94H120V130H98C91.3726 130 86 124.627 86 118V94Z" fill="#25262B"/>
<g opacity="0.7" filter="url(#filter0_f_24918_161055)">
<ellipse cx="148.187" cy="255.104" rx="127.622" ry="127.229" fill="white"/>
</g>
<g opacity="0.7" filter="url(#filter1_f_24918_161055)">
<ellipse cx="264.796" cy="255.104" rx="127.622" ry="127.229" fill="white"/>
</g>
<g opacity="0.7" filter="url(#filter2_f_24918_161055)">
<ellipse cx="18.6217" cy="255.104" rx="127.622" ry="127.229" fill="white"/>
</g>
<g filter="url(#filter3_f_24918_161055)">
<ellipse cx="149" cy="141" rx="42" ry="1" fill="#ADADAD"/>
</g>
<rect x="93.8867" y="20" width="102.226" height="102.226" rx="8" fill="#DDDDDD"/>
<path fill-rule="evenodd" clip-rule="evenodd" d="M196.113 90.5874C187.757 104.662 175.024 115.833 159.791 122.226H186.604C191.856 122.226 196.113 117.969 196.113 112.717V90.5874Z" fill="black" fill-opacity="0.05"/>
<path d="M164.762 81.5142H156.441C155.867 81.5142 155.401 81.9798 155.401 82.5543V90.875C155.401 91.4494 155.867 91.9151 156.441 91.9151H164.762C165.337 91.9151 165.802 91.4494 165.802 90.875V82.5543C165.802 81.9798 165.337 81.5142 164.762 81.5142Z" fill="#666666" fill-opacity="0.8"/>
<path d="M154.361 73.1934H148.12C147.546 73.1934 147.08 73.659 147.08 74.2335V80.474C147.08 81.0484 147.546 81.5141 148.12 81.5141H154.361C154.935 81.5141 155.401 81.0484 155.401 80.474V74.2335C155.401 73.659 154.935 73.1934 154.361 73.1934Z" fill="#666666" fill-opacity="0.8"/>
<path d="M173.082 91.915H166.842C166.267 91.915 165.802 92.3807 165.802 92.9551V99.1957C165.802 99.7701 166.267 100.236 166.842 100.236H173.082C173.657 100.236 174.123 99.7701 174.123 99.1957V92.9551C174.123 92.3807 173.657 91.915 173.082 91.915Z" fill="#666666" fill-opacity="0.8"/>
<path d="M173.082 73.1934H168.922C168.348 73.1934 167.882 73.659 167.882 74.2335V78.3938C167.882 78.9683 168.348 79.4339 168.922 79.4339H173.082C173.657 79.4339 174.122 78.9683 174.122 78.3938V74.2335C174.122 73.659 173.657 73.1934 173.082 73.1934Z" fill="#666666" fill-opacity="0.8"/>
<path d="M152.281 93.9954H148.12C147.546 93.9954 147.08 94.461 147.08 95.0355V99.1958C147.08 99.7703 147.546 100.236 148.12 100.236H152.281C152.855 100.236 153.321 99.7703 153.321 99.1958V95.0355C153.321 94.461 152.855 93.9954 152.281 93.9954Z" fill="#666666" fill-opacity="0.8"/>
<path d="M169.962 41.9905H151.24C150.137 41.9905 149.079 42.4288 148.298 43.209C147.518 43.9892 147.08 45.0475 147.08 46.1509V64.8726C147.08 65.976 147.518 67.0342 148.298 67.8144C149.079 68.5946 150.137 69.0329 151.24 69.0329H169.962C171.065 69.0329 172.123 68.5946 172.904 67.8144C173.684 67.0342 174.122 65.976 174.122 64.8726V46.1509C174.122 45.0475 173.684 43.9892 172.904 43.209C172.123 42.4288 171.065 41.9905 169.962 41.9905ZM165.801 59.6721C165.801 59.9479 165.692 60.2125 165.497 60.4075C165.302 60.6026 165.037 60.7122 164.761 60.7122H156.441C156.165 60.7122 155.9 60.6026 155.705 60.4075C155.51 60.2125 155.401 59.9479 155.401 59.6721V51.3513C155.401 51.0755 155.51 50.8109 155.705 50.6159C155.9 50.4208 156.165 50.3112 156.441 50.3112H164.761C165.037 50.3112 165.302 50.4208 165.497 50.6159C165.692 50.8109 165.801 51.0755 165.801 51.3513V59.6721ZM138.759 41.9905H120.037C118.934 41.9905 117.876 42.4288 117.095 43.209C116.315 43.9892 115.877 45.0475 115.877 46.1509V64.8726C115.877 65.976 116.315 67.0342 117.095 67.8144C117.876 68.5946 118.934 69.0329 120.037 69.0329H138.759C139.862 69.0329 140.921 68.5946 141.701 67.8144C142.481 67.0342 142.919 65.976 142.919 64.8726V46.1509C142.919 45.0475 142.481 43.9892 141.701 43.209C140.921 42.4288 139.862 41.9905 138.759 41.9905ZM134.599 59.6721C134.599 59.9479 134.489 60.2125 134.294 60.4075C134.099 60.6026 133.834 60.7122 133.559 60.7122H125.238C124.962 60.7122 124.697 60.6026 124.502 60.4075C124.307 60.2125 124.198 59.9479 124.198 59.6721V51.3513C124.198 51.0755 124.307 50.8109 124.502 50.6159C124.697 50.4208 124.962 50.3112 125.238 50.3112H133.559C133.834 50.3112 134.099 50.4208 134.294 50.6159C134.489 50.8109 134.599 51.0755 134.599 51.3513V59.6721ZM138.759 73.1933H120.037C118.934 73.1933 117.876 73.6316 117.095 74.4119C116.315 75.1921 115.877 76.2503 115.877 77.3537V96.0754C115.877 97.1788 116.315 98.237 117.095 99.0172C117.876 99.7974 118.934 100.236 120.037 100.236H138.759C139.862 100.236 140.921 99.7974 141.701 99.0172C142.481 98.237 142.919 97.1788 142.919 96.0754V77.3537C142.919 76.2503 142.481 75.1921 141.701 74.4119C140.921 73.6316 139.862 73.1933 138.759 73.1933ZM134.599 90.8749C134.599 91.1508 134.489 91.4153 134.294 91.6104C134.099 91.8054 133.834 91.915 133.559 91.915H125.238C124.962 91.915 124.697 91.8054 124.502 91.6104C124.307 91.4153 124.198 91.1508 124.198 90.8749V82.5542C124.198 82.2783 124.307 82.0138 124.502 81.8187C124.697 81.6236 124.962 81.5141 125.238 81.5141H133.559C133.834 81.5141 134.099 81.6236 134.294 81.8187C134.489 82.0138 134.599 82.2783 134.599 82.5542V90.8749Z" fill="#666666" fill-opacity="0.8"/>
<path d="M106.891 34.5977L97.7853 19.448L86.8967 28.0006L73.2819 24.0972L81.846 41.9023L92.7777 52.1708L107.211 45.6914L127.472 65.9449L119.559 34.9869L106.891 34.5977Z" fill="white"/>
</g>
<defs>
<filter id="filter0_f_24918_161055" x="4.56543" y="111.875" width="287.243" height="286.458" filterUnits="userSpaceOnUse" color-interpolation-filters="sRGB">
<feFlood flood-opacity="0" result="BackgroundImageFix"/>
<feBlend mode="normal" in="SourceGraphic" in2="BackgroundImageFix" result="shape"/>
<feGaussianBlur stdDeviation="8" result="effect1_foregroundBlur_24918_161055"/>
</filter>
<filter id="filter1_f_24918_161055" x="121.174" y="111.875" width="287.243" height="286.458" filterUnits="userSpaceOnUse" color-interpolation-filters="sRGB">
<feFlood flood-opacity="0" result="BackgroundImageFix"/>
<feBlend mode="normal" in="SourceGraphic" in2="BackgroundImageFix" result="shape"/>
<feGaussianBlur stdDeviation="8" result="effect1_foregroundBlur_24918_161055"/>
</filter>
<filter id="filter2_f_24918_161055" x="-125" y="111.875" width="287.243" height="286.458" filterUnits="userSpaceOnUse" color-interpolation-filters="sRGB">
<feFlood flood-opacity="0" result="BackgroundImageFix"/>
<feBlend mode="normal" in="SourceGraphic" in2="BackgroundImageFix" result="shape"/>
<feGaussianBlur stdDeviation="8" result="effect1_foregroundBlur_24918_161055"/>
</filter>
<filter id="filter3_f_24918_161055" x="101" y="134" width="96" height="14" filterUnits="userSpaceOnUse" color-interpolation-filters="sRGB">
<feFlood flood-opacity="0" result="BackgroundImageFix"/>
<feBlend mode="normal" in="SourceGraphic" in2="BackgroundImageFix" result="shape"/>
<feGaussianBlur stdDeviation="3" result="effect1_foregroundBlur_24918_161055"/>
</filter>
<clipPath id="clip0_24918_161055">
<rect width="298" height="155" fill="white"/>
</clipPath>
</defs>
</svg>
