<svg width="300" height="160" viewBox="0 0 300 160" fill="none" xmlns="http://www.w3.org/2000/svg">
<g clip-path="url(#clip0_24736_160550)">
<rect width="300" height="160" rx="16" fill="#E6F6F8"/>
<path opacity="0.08" d="M201.275 163.84L301.573 73.0002L327.296 117.554L205.076 188.118L201.275 163.84Z" fill="#00A2B9"/>
<path opacity="0.08" d="M151.045 159.033L286.816 -18.9998L323.194 17.3781L161 181.5L151.045 159.033Z" fill="#00A2B9"/>
<path opacity="0.08" d="M113.145 158.021L175.806 -38.8157L225.5 -25.5005L133 172.5L113.145 158.021Z" fill="#00A2B9"/>
<path opacity="0.08" d="M112.066 169.112L50 -8.36364L99.6932 -21.6789L136.5 171.724L112.066 169.112Z" fill="#00A2B9"/>
<path opacity="0.08" d="M81 164.5L-57.4619 -1.68898L-12.9082 -27.4121L105.278 160.699L81 164.5Z" fill="#00A2B9"/>
<path opacity="0.08" d="M105.536 174.1L-109.885 154.494L-96.5695 104.801L170 162.5L105.536 174.1Z" fill="#00A2B9"/>
<path d="M0 0H36V20C36 28.8366 28.8366 36 20 36H0V0Z" fill="#00A2B9"/>
<path d="M15.6199 11.0044L13.3311 17.1556C13.0536 17.9014 13.3195 18.7566 14.0356 19.1036C17.2047 20.6393 20.2553 19.9512 22.0843 19.0569C22.7465 18.7331 22.9921 17.9552 22.7682 17.2529L20.8146 11.1278C20.4511 9.98808 19.3922 9.21436 18.196 9.21436C17.0477 9.21436 16.0204 9.92821 15.6199 11.0044Z" stroke="white" stroke-width="1.5" stroke-linecap="round"/>
<path d="M18 20.1431V25.9288" stroke="white" stroke-width="1.5" stroke-linecap="round"/>
<path d="M15.4287 23.5715H20.5716" stroke="white" stroke-width="1.5" stroke-linecap="round"/>
<path d="M15.4284 23.5713L14.5713 26.1427" stroke="white" stroke-width="1.5" stroke-linecap="round"/>
<path d="M20.5713 23.5713L21.4284 26.1427" stroke="white" stroke-width="1.5" stroke-linecap="round"/>
<path fill-rule="evenodd" clip-rule="evenodd" d="M23.1438 16.6072C22.7296 16.6072 22.3938 16.943 22.3938 17.3572C22.3938 17.7714 22.7296 18.1072 23.1438 18.1072H24.9653V25.9286C24.9653 26.3428 25.301 26.6786 25.7153 26.6786C26.1295 26.6786 26.4653 26.3428 26.4653 25.9286V18.1072H28.2867C28.7009 18.1072 29.0367 17.7714 29.0367 17.3572C29.0367 16.943 28.7009 16.6072 28.2867 16.6072H25.7153H23.1438ZM12.8577 16.6074C13.2719 16.6074 13.6077 16.9432 13.6077 17.3574C13.6077 17.7716 13.2719 18.1074 12.8577 18.1074H12.2148H11.0363V25.9288C11.0363 26.343 10.7005 26.6788 10.2863 26.6788C9.87206 26.6788 9.53627 26.343 9.53627 25.9288V18.1074H7.71484C7.30063 18.1074 6.96484 17.7716 6.96484 17.3574C6.96484 16.9432 7.30063 16.6074 7.71484 16.6074H10.2863H12.2148H12.8577Z" fill="white"/>
</g>
<defs>
<clipPath id="clip0_24736_160550">
<rect width="300" height="160" rx="16" fill="white"/>
</clipPath>
</defs>
</svg>
