<svg width="375" height="375" viewBox="0 0 375 375" fill="none" xmlns="http://www.w3.org/2000/svg">
<g clip-path="url(#clip0_162_3548)">
<rect width="375" height="375" fill="url(#paint0_linear_162_3548)"/>
<path d="M423 119.4L166.782 -105L146.285 -84.6L199.82 -10.0076H-116V234.481H250.084V176.129C250.084 153.26 267.476 134.141 290.243 131.983L423 119.4Z" fill="url(#paint1_linear_162_3548)" fill-opacity="0.08"/>
<g opacity="0.6">
<path d="M307.5 40.402L360.773 45.961L347.339 56.1523L307.5 40.402Z" fill="white"/>
<path d="M307.5 40.402L360.773 45.961L345.254 50.825L307.5 40.402Z" fill="#C1F8FF"/>
<path d="M413.119 56.1509L359.846 50.592L373.28 40.4007L413.119 56.1509Z" fill="white"/>
<path d="M413.119 56.1509L359.846 50.592L375.365 45.7279L413.119 56.1509Z" fill="#C1F8FF"/>
<path d="M380.971 -0.923523L361.813 49.0954L355.446 33.4814L380.971 -0.923523Z" fill="white"/>
<path d="M380.971 -0.923523L361.813 49.0954L361.131 32.8466L380.971 -0.923523Z" fill="#C1F8FF"/>
<path d="M360.773 47.8158H363.553L371.891 153.435H352.435L360.773 47.8158Z" fill="white"/>
<path d="M363.551 47.8158L371.89 153.435H365.404L362.625 47.8158H363.551Z" fill="#C1F8FF"/>
<circle cx="362.163" cy="47.8154" r="5.09567" fill="white"/>
<circle cx="362.162" cy="47.8151" r="3.70594" fill="#1A4E66"/>
</g>
<g opacity="0.6">
<path d="M232 113.402L285.273 118.961L271.839 129.152L232 113.402Z" fill="white"/>
<path d="M232 113.402L285.273 118.961L269.754 123.825L232 113.402Z" fill="#C1F8FF"/>
<path d="M337.619 129.151L284.346 123.592L297.78 113.401L337.619 129.151Z" fill="white"/>
<path d="M337.619 129.151L284.346 123.592L299.865 118.728L337.619 129.151Z" fill="#C1F8FF"/>
<path d="M305.471 72.0765L286.313 122.095L279.946 106.481L305.471 72.0765Z" fill="white"/>
<path d="M305.471 72.0765L286.313 122.095L285.631 105.847L305.471 72.0765Z" fill="#C1F8FF"/>
<path d="M285.273 120.816H288.053L296.391 226.435H276.935L285.273 120.816Z" fill="white"/>
<path d="M288.051 120.816L296.39 226.435H289.904L287.125 120.816H288.051Z" fill="#C1F8FF"/>
<circle cx="286.663" cy="120.815" r="5.09567" fill="white"/>
<circle cx="286.662" cy="120.815" r="3.70594" fill="#1A4E66"/>
</g>
<path d="M332 147L338.027 150.5V192.2H332V147Z" fill="#4997A4"/>
<path d="M332 151H338V172.5L332 192V151Z" fill="#2A7986"/>
<path d="M289 147L295.027 150.5V192.2H289V147Z" fill="#4997A4"/>
<path d="M289 151H295V172.5L289 192V151Z" fill="#2A7986"/>
<path d="M290.073 150.013H334.446L335.267 147.003L337.661 149.39C338.047 149.775 338.195 150.338 338.047 150.863L328.99 183.16H278.019L290.073 150.013Z" fill="#35AABA"/>
<path d="M286.005 150.013L334.433 150.013L329.785 166.586L327.462 174.873L326.198 179.304C326.048 179.834 326.198 180.404 326.59 180.79L328.993 183.16H325.138L277.828 183.16C277.326 183.16 276.857 182.91 276.577 182.493L275.427 180.781C275.159 180.381 275.098 179.877 275.263 179.424L286.005 150.013Z" fill="#23C4DB"/>
<path d="M286.699 147.992C286.916 147.396 287.481 147 288.115 147H335.273L326.286 179.047C326.104 179.697 325.511 180.147 324.835 180.147H277.157C276.112 180.147 275.384 179.108 275.741 178.125L286.699 147.992Z" fill="white"/>
<path d="M289.674 151.877C289.78 151.576 290.065 151.374 290.384 151.374H300.031C300.542 151.374 300.905 151.872 300.748 152.359L297.989 160.925C297.889 161.236 297.599 161.447 297.272 161.447H287.36C286.84 161.447 286.476 160.933 286.649 160.443L289.674 151.877Z" fill="#9DE0E8"/>
<path opacity="0.5" d="M300.03 151.373C300.541 151.373 300.904 151.871 300.747 152.357L297.987 160.924C297.887 161.235 297.598 161.445 297.271 161.445H295.778L299.335 151.373H300.03Z" fill="#4A92B4"/>
<path d="M284.391 166.202C284.498 165.901 284.782 165.699 285.102 165.699H294.749C295.26 165.699 295.623 166.197 295.466 166.684L292.707 175.25C292.607 175.561 292.317 175.772 291.99 175.772H282.077C281.558 175.772 281.194 175.258 281.367 174.768L284.391 166.202Z" fill="#9DE0E8"/>
<path d="M304.443 151.877C304.549 151.576 304.834 151.374 305.153 151.374H314.801C315.312 151.374 315.674 151.872 315.518 152.359L312.758 160.925C312.658 161.236 312.368 161.447 312.041 161.447H302.129C301.609 161.447 301.246 160.933 301.419 160.443L304.443 151.877Z" fill="#9DE0E8"/>
<path d="M299.161 166.202C299.267 165.901 299.552 165.699 299.871 165.699H309.519C310.03 165.699 310.392 166.197 310.236 166.684L307.476 175.25C307.376 175.561 307.086 175.772 306.759 175.772H296.847C296.327 175.772 295.963 175.258 296.137 174.768L299.161 166.202Z" fill="#9DE0E8"/>
<path d="M319.213 151.877C319.319 151.576 319.604 151.374 319.923 151.374H329.57C330.081 151.374 330.444 151.872 330.287 152.359L327.528 160.925C327.428 161.236 327.138 161.447 326.811 161.447H316.899C316.379 161.447 316.015 160.933 316.188 160.443L319.213 151.877Z" fill="#9DE0E8"/>
<path d="M313.93 166.202C314.037 165.901 314.321 165.699 314.641 165.699H324.288C324.799 165.699 325.162 166.197 325.005 166.684L322.246 175.25C322.145 175.561 321.856 175.772 321.529 175.772H311.616C311.097 175.772 310.733 175.258 310.906 174.768L313.93 166.202Z" fill="#9DE0E8"/>
<path opacity="0.5" d="M314.804 151.373C315.315 151.373 315.677 151.871 315.521 152.357L312.761 160.924C312.661 161.235 312.371 161.445 312.044 161.445H310.552L314.109 151.373H314.804Z" fill="#4A92B4"/>
<path opacity="0.5" d="M329.574 151.373C330.084 151.373 330.447 151.871 330.29 152.357L327.531 160.924C327.43 161.235 327.141 161.445 326.814 161.445H325.322L328.878 151.373H329.574Z" fill="#4A92B4"/>
<path opacity="0.5" d="M294.748 165.698C295.259 165.698 295.622 166.196 295.465 166.682L292.705 175.249C292.605 175.56 292.315 175.77 291.988 175.77H290.496L294.053 165.698H294.748Z" fill="#4A92B4"/>
<path opacity="0.5" d="M309.527 165.698C310.037 165.698 310.4 166.196 310.243 166.682L307.484 175.249C307.383 175.56 307.094 175.77 306.767 175.77H305.275L308.831 165.698H309.527Z" fill="#4A92B4"/>
<path opacity="0.5" d="M324.305 165.698C324.816 165.698 325.178 166.196 325.022 166.682L322.262 175.249C322.161 175.56 321.872 175.77 321.545 175.77H320.053L323.609 165.698H324.305Z" fill="#4A92B4"/>
<path d="M348.786 147L342.759 150.5V192.2H348.786V147Z" fill="#4997A4"/>
<path d="M348.786 151H342.786V172.5L348.786 192V151Z" fill="#2A7986"/>
<path d="M390.713 150.013H346.34L345.519 147.003L343.125 149.39C342.739 149.775 342.591 150.338 342.738 150.863L351.795 183.16H402.767L390.713 150.013Z" fill="#35AABA"/>
<path d="M394.781 150.013L346.353 150.013L351 166.586L353.324 174.873L354.587 179.304C354.738 179.834 354.588 180.404 354.196 180.79L351.793 183.16H355.648L402.958 183.16C403.46 183.16 403.929 182.91 404.209 182.493L405.358 180.781C405.627 180.381 405.688 179.877 405.523 179.424L394.781 150.013Z" fill="#23C4DB"/>
<path d="M394.087 147.992C393.87 147.396 393.304 147 392.671 147H345.513L354.5 179.047C354.682 179.697 355.275 180.147 355.951 180.147H403.628C404.674 180.147 405.402 179.108 405.044 178.125L394.087 147.992Z" fill="white"/>
<path d="M376.343 151.877C376.236 151.576 375.952 151.374 375.632 151.374H365.985C365.474 151.374 365.111 151.872 365.268 152.359L368.027 160.925C368.128 161.236 368.417 161.447 368.744 161.447H378.657C379.177 161.447 379.54 160.933 379.367 160.443L376.343 151.877Z" fill="#9DE0E8"/>
<path d="M381.625 166.202C381.519 165.901 381.234 165.699 380.915 165.699H371.267C370.756 165.699 370.394 166.197 370.55 166.684L373.31 175.25C373.41 175.561 373.7 175.772 374.027 175.772H383.939C384.459 175.772 384.822 175.258 384.649 174.768L381.625 166.202Z" fill="#9DE0E8"/>
<path d="M361.573 151.877C361.467 151.576 361.182 151.374 360.863 151.374H351.216C350.705 151.374 350.342 151.872 350.499 152.359L353.258 160.925C353.358 161.236 353.648 161.447 353.975 161.447H363.887C364.407 161.447 364.771 160.933 364.598 160.443L361.573 151.877Z" fill="#9DE0E8"/>
<path d="M366.856 166.202C366.749 165.901 366.465 165.699 366.145 165.699H356.498C355.987 165.699 355.624 166.197 355.781 166.684L358.54 175.25C358.64 175.561 358.93 175.772 359.257 175.772H369.17C369.689 175.772 370.053 175.258 369.88 174.768L366.856 166.202Z" fill="#9DE0E8"/>
<path opacity="0.5" d="M365.982 151.373C365.471 151.373 365.108 151.871 365.265 152.357L368.025 160.924C368.125 161.235 368.415 161.445 368.742 161.445H370.234L366.677 151.373H365.982Z" fill="#4A92B4"/>
<path opacity="0.5" d="M351.212 151.373C350.701 151.373 350.339 151.871 350.496 152.357L353.255 160.924C353.356 161.235 353.645 161.445 353.972 161.445H355.464L351.908 151.373H351.212Z" fill="#4A92B4"/>
<path opacity="0.5" d="M371.259 165.698C370.749 165.698 370.386 166.196 370.543 166.682L373.302 175.249C373.403 175.56 373.692 175.77 374.019 175.77H375.511L371.955 165.698H371.259Z" fill="#4A92B4"/>
<path opacity="0.5" d="M356.481 165.698C355.97 165.698 355.608 166.196 355.764 166.682L358.524 175.249C358.624 175.56 358.914 175.77 359.241 175.77H360.733L357.176 165.698H356.481Z" fill="#4A92B4"/>
<g filter="url(#filter0_f_162_3548)">
<path d="M217.5 181H385.5V201L159 198.5L217.5 181Z" fill="#029EB4"/>
</g>
</g>
<defs>
<filter id="filter0_f_162_3548" x="138.6" y="160.6" width="267.3" height="60.8" filterUnits="userSpaceOnUse" color-interpolation-filters="sRGB">
<feFlood flood-opacity="0" result="BackgroundImageFix"/>
<feBlend mode="normal" in="SourceGraphic" in2="BackgroundImageFix" result="shape"/>
<feGaussianBlur stdDeviation="10.2" result="effect1_foregroundBlur_162_3548"/>
</filter>
<linearGradient id="paint0_linear_162_3548" x1="187.5" y1="-2.49923e-06" x2="239.007" y2="334.284" gradientUnits="userSpaceOnUse">
<stop stop-color="#00616F"/>
<stop offset="0.634776" stop-color="#00A2B9"/>
<stop offset="1" stop-color="#F7F7F8"/>
</linearGradient>
<linearGradient id="paint1_linear_162_3548" x1="153.5" y1="110" x2="153.5" y2="234.481" gradientUnits="userSpaceOnUse">
<stop stop-color="#062124"/>
<stop offset="1" stop-color="#062124" stop-opacity="0"/>
</linearGradient>
<clipPath id="clip0_162_3548">
<rect width="375" height="375" fill="white"/>
</clipPath>
</defs>
</svg>
