<svg width="120" height="120" viewBox="0 0 120 120" fill="none" xmlns="http://www.w3.org/2000/svg">
<circle cx="60" cy="60" r="60" fill="#EFEFEF"/>
<g clip-path="url(#clip0_28300_185668)">
<path d="M446.667 513.333V380C446.667 358 464.667 340 486.667 340H620C642 340 660 358 660 380V513.333C660 535.333 642 553.333 620 553.333H486.667C464.667 553.333 446.667 535.333 446.667 513.333ZM913.333 553.333H1046.67C1068.67 553.333 1086.67 535.333 1086.67 513.333V380C1086.67 358 1068.67 340 1046.67 340H913.333C891.333 340 873.333 358 873.333 380V513.333C873.333 535.333 891.333 553.333 913.333 553.333ZM486.667 873.333H620C642 873.333 660 855.333 660 833.333V700C660 678 642 660 620 660H486.667C464.667 660 446.667 678 446.667 700V833.333C446.667 855.333 464.667 873.333 486.667 873.333ZM913.333 873.333H1046.67C1068.67 873.333 1086.67 855.333 1086.67 833.333V700C1086.67 678 1068.67 660 1046.67 660H913.333C891.333 660 873.333 678 873.333 700V833.333C873.333 855.333 891.333 873.333 913.333 873.333ZM660 1153.33V1020C660 998 642 980 620 980H486.667C464.667 980 446.667 998 446.667 1020V1153.33C446.667 1175.33 464.667 1193.33 486.667 1193.33H620C642 1193.33 660 1175.33 660 1153.33ZM913.333 1193.33H1046.67C1068.67 1193.33 1086.67 1175.33 1086.67 1153.33V1020C1086.67 998 1068.67 980 1046.67 980H913.333C891.333 980 873.333 998 873.333 1020V1153.33C873.333 1175.33 891.333 1193.33 913.333 1193.33ZM1513.33 1606.67V1726.67H20V1606.67C20 1584.67 38 1566.67 60 1566.67H125V100C125 55.6667 160.667 20 205 20H1328.33C1372.67 20 1408.33 55.6667 1408.33 100V1566.67H1473.33C1495.33 1566.67 1513.33 1584.67 1513.33 1606.67ZM285 1563.33H660V1340C660 1318 678 1300 700 1300H833.333C855.333 1300 873.333 1318 873.333 1340V1563.33H1248.33V183.333L286.667 180L285 1563.33Z" fill="#00A2B9"/>
<path d="M60.0013 53.3337C67.3651 53.3337 73.3346 47.3641 73.3346 40.0003C73.3346 32.6365 67.3651 26.667 60.0013 26.667C52.6375 26.667 46.668 32.6365 46.668 40.0003C46.668 47.3641 52.6375 53.3337 60.0013 53.3337Z" stroke="#BDBDBD" stroke-width="8" stroke-linecap="round" stroke-linejoin="round"/>
<path d="M90 93.334C90 76.7657 76.5683 63.334 60 63.334C43.4317 63.334 30 76.7657 30 93.334" stroke="#BDBDBD" stroke-width="8" stroke-linecap="round" stroke-linejoin="round"/>
<path d="M59.9987 93.334L66.6654 85.0007L59.9987 63.334L53.332 85.0007L59.9987 93.334Z" stroke="#BDBDBD" stroke-width="8" stroke-linecap="round" stroke-linejoin="round"/>
</g>
<defs>
<clipPath id="clip0_28300_185668">
<rect width="80" height="80" fill="white" transform="translate(20 20)"/>
</clipPath>
</defs>
</svg>
