<svg width="222" height="137" viewBox="0 0 222 137" fill="none" xmlns="http://www.w3.org/2000/svg">
<path fill-rule="evenodd" clip-rule="evenodd" d="M105.018 110.215C144.95 112.883 165.437 147.792 196.73 128.927C228.014 110.067 228.986 66.9918 206.616 47.4041C184.245 27.8165 146.03 59.6492 118.067 53.4207C90.1041 47.1922 78 32.375 56 28.9941C34 25.6133 16.1862 31.0753 7.61437 47.404C-3.89553 69.3296 -4.32741 103.119 20.1976 115.336C47.1055 128.74 73.7629 108.127 105.018 110.215Z" fill="#EFEFEF"/>
<path opacity="0.8" d="M104.71 33.7707C134.439 47.2178 154.525 35.6379 159.78 31.9501C160.142 31.696 159.895 31.2122 159.464 31.3141L152.213 33.0323C134.506 37.2284 115.852 34.0351 100.549 24.1876C89.7446 17.2355 77.1683 13.5389 64.3208 13.5389L53.5705 13.5389C53.3775 13.5389 53.334 13.8697 53.5238 13.9048C60.4253 15.1797 82.7823 20.1176 104.71 33.7707Z" fill="#EFEFEF" stroke="#EFEFEF" stroke-width="10" stroke-linecap="round" stroke-linejoin="round"/>
<ellipse opacity="0.8" cx="179.5" cy="30.8164" rx="8.5" ry="4.5" fill="#EFEFEF"/>
<path opacity="0.4" d="M138.047 66.0366C133.345 73.6178 139.391 85.6162 152.56 88.1322C158.658 89.2974 169.639 86.2784 174.072 82.3498C177.161 79.6117 174.889 71.4301 168.694 73.7402C166.256 74.6492 163.744 74.499 162.545 78.7094C161.905 80.9601 163.625 85.1058 164.69 87.231C167.507 92.8525 170.68 97.5 178.5 97.5C191.5 97.5 190.5 88.1322 200 88.1322" stroke="#666666" stroke-width="2" stroke-linecap="round" stroke-dasharray="6 6"/>
<ellipse cx="207.035" cy="81.8047" rx="7.49612" ry="4.49767" transform="rotate(9.17724 207.035 81.8047)" fill="#666666"/>
<ellipse opacity="0.6" cx="204.748" cy="75.5135" rx="3.58793" ry="5.9969" transform="rotate(-7.57772 204.748 75.5135)" fill="white"/>
<ellipse opacity="0.8" rx="3.6226" ry="5.9969" transform="matrix(-0.793103 -0.609088 -0.609088 0.793103 210.089 76.7539)" fill="white"/>
<path opacity="0.4" d="M89.0113 61.6592C85.6476 69.5206 83.4783 73.9794 77.1754 76.3979C75.1 77.1943 68.8008 75.9201 66.561 74.7147C64.2179 73.4537 62.7434 70.8488 61.4548 68.1069C59.7996 64.585 57.7838 59.2372 57.684 55.3052C57.6057 52.2201 62.6347 51.2586 64.5962 51.482C65.8184 51.6211 69.7238 52.2211 70.5622 53.9772C71.4801 55.8999 70.1696 58.6949 69.256 59.7834C67.2073 62.224 64.0111 63.5146 61.2696 64.5334C56.6039 66.2673 52.6456 65.5995 47.5798 63.7254C44.0157 62.4069 41 62.5 32.5 53.5" stroke="#666666" stroke-width="2" stroke-linecap="round" stroke-dasharray="6 6"/>
<ellipse cx="26.1081" cy="45.1418" rx="7.31563" ry="4.38938" fill="#666666"/>
<ellipse opacity="0.6" cx="22.9253" cy="39.4341" rx="3.50155" ry="5.85251" transform="rotate(-16.755 22.9253 39.4341)" fill="white"/>
<ellipse opacity="0.8" rx="3.53537" ry="5.85251" transform="matrix(-0.880094 -0.4748 -0.4748 0.880094 28.2641 39.7997)" fill="white"/>
<path fill-rule="evenodd" clip-rule="evenodd" d="M83.001 27C78.5827 27 75.001 30.5817 75.001 35V126.414C75.0009 126.414 75.0009 126.414 75.0008 126.414L75.0008 128.847C75.0008 133.298 71.433 136.916 67.001 136.997V137H75.001H91.001H145.001C153.838 137 161.001 129.837 161.001 121V35C161.001 30.5817 157.419 27 153.001 27H83.001Z" fill="#BDBDBD"/>
<path opacity="0.5" d="M92.001 100H142.001" stroke="white" stroke-width="8" stroke-linecap="round"/>
<path opacity="0.5" d="M92.001 80H124.001" stroke="white" stroke-width="8" stroke-linecap="round"/>
<path opacity="0.5" d="M92.001 120H142.001" stroke="white" stroke-width="8" stroke-linecap="round"/>
<rect x="88.001" y="40" width="24" height="24" rx="8" fill="white"/>
<path opacity="0.8" d="M44.5 85.7493C44.5 81.4694 47.9695 77.9998 52.2494 77.9996C56.5296 77.9993 59.9996 81.4691 59.9996 85.7493L59.9998 111.999L48.4995 111.999C46.2904 111.998 44.4996 110.208 44.4997 107.998L44.5 85.7493Z" fill="#25262B"/>
<path opacity="0.6" fill-rule="evenodd" clip-rule="evenodd" d="M52.3328 78H64.001V78.001L75.0006 78.0007L75.0007 128.921C75.0007 133.382 71.3843 136.999 66.9234 136.998C63.1 136.998 60.0007 133.899 60.0007 130.075L60.0004 86H59.9996L59.9996 85.7493C59.9996 81.4969 56.5746 78.0445 52.3328 78ZM52.1668 78H52.001V78.0035C52.0561 78.0017 52.1114 78.0006 52.1668 78Z" fill="#25262B"/>
</svg>
