<svg width="76" height="48" viewBox="0 0 76 48" fill="none" xmlns="http://www.w3.org/2000/svg">
<path d="M4.56366 8.94531C4.56366 7.28846 5.90681 5.94531 7.56366 5.94531H71.3455C73.0023 5.94531 74.3455 7.28846 74.3455 8.94531V39.6362C74.3455 41.2931 73.0023 42.6362 71.3455 42.6362H7.56367C5.90681 42.6362 4.56366 41.2931 4.56366 39.6362V24.2908V8.94531Z" fill="#EFEFEF" stroke="#BDBDBD" stroke-width="2"/>
<path d="M4.56366 12.0908C4.56366 8.77711 7.24995 6.09082 10.5637 6.09082H27.7455C28.2978 6.09082 28.7455 6.53854 28.7455 7.09082V41.6363C28.7455 42.1886 28.2978 42.6363 27.7455 42.6363H9.56366C6.80224 42.6363 4.56366 40.3977 4.56366 37.6363V24.3635V12.0908Z" fill="#EFEFEF" stroke="#BDBDBD" stroke-width="2"/>
<path d="M4.56366 8.21672C4.56366 6.84591 5.49284 5.64946 6.82098 5.3101L21.3161 1.60641C21.9485 1.44482 22.5637 1.92257 22.5637 2.57528V45.4497C22.5637 46.0985 21.9554 46.5756 21.3253 46.4209L6.84852 42.8675C5.50695 42.5382 4.56366 41.3354 4.56366 39.954V24.4563V8.21672Z" fill="#BDBDBD" stroke="#BDBDBD" stroke-width="2"/>
<path d="M51 16.0283C51 15.4993 50.8963 14.9755 50.6947 14.4869C50.4932 13.9982 50.1977 13.5541 49.8253 13.1801C49.4529 12.8061 49.0107 12.5094 48.5241 12.3069C48.0375 12.1045 47.516 12.0003 46.9893 12.0003H43.0623C42.5313 11.9935 42.0042 12.0926 41.5117 12.2919C41.0191 12.4912 40.5709 12.7868 40.193 13.1615C39.8151 13.5362 39.515 13.9825 39.3103 14.4746C39.1055 14.9666 39 15.4946 39 16.0279C39 16.5613 39.1055 17.0893 39.3103 17.5813C39.515 18.0734 39.8151 18.5197 40.193 18.8944C40.5709 19.2691 41.0191 19.5647 41.5117 19.764C42.0042 19.9633 42.5313 20.0624 43.0623 20.0556H43.831V22.0002C43.831 22.0002 51 21.0282 51 16.0283ZM47.3491 26.6668C47.3491 28.1401 46.1609 29.3334 44.6939 29.3334C43.2269 29.3334 42.0387 28.1401 42.0387 26.6668C42.0387 25.1935 43.2269 24.0002 44.6939 24.0002C46.1609 24.0002 47.3491 25.1935 47.3491 26.6668ZM44.6939 30.6667C42.8107 30.6667 39.0516 31.6201 39.0516 33.5114V36H50.3362V33.5114C50.3362 31.6194 46.5771 30.6667 44.6939 30.6667ZM57.3061 29.3334C58.7731 29.3334 59.9613 28.1401 59.9613 26.6668C59.9613 25.1935 58.7731 24.0002 57.3061 24.0002C55.8391 24.0002 54.6509 25.1935 54.6509 26.6668C54.6509 28.1401 55.8391 29.3334 57.3061 29.3334ZM57.3061 30.6667C55.4229 30.6667 51.6638 31.6201 51.6638 33.5114V36H62.9484V33.5114C62.9484 31.6194 59.1893 30.6667 57.3061 30.6667ZM56.3383 12.667C55.2746 12.667 54.2545 13.0914 53.5023 13.8467C52.7502 14.6021 52.3276 15.6267 52.3276 16.6949C52.3276 21.6949 58.7001 22.6669 58.7001 22.6669V20.7222H58.9377C59.4687 20.7291 59.9958 20.63 60.4883 20.4306C60.9809 20.2313 61.4291 19.9357 61.807 19.561C62.1849 19.1864 62.485 18.7401 62.6898 18.248C62.8945 17.7559 63 17.2279 63 16.6946C63 16.1613 62.8945 15.6333 62.6898 15.1412C62.485 14.6492 62.1849 14.2028 61.807 13.8282C61.4291 13.4535 60.9809 13.1579 60.4883 12.9586C59.9958 12.7592 59.4687 12.6601 58.9377 12.667H56.3383Z" fill="#BDBDBD"/>
<rect x="0.654541" y="40.7271" width="11.6364" height="2.90909" rx="1.45455" fill="#BDBDBD"/>
<circle cx="18.4727" cy="23.2728" r="1.81818" fill="white"/>
</svg>
