<svg width="300" height="160" viewBox="0 0 300 160" fill="none" xmlns="http://www.w3.org/2000/svg">
<defs>
<linearGradient id="paint0_linear_25096_160780" x1="208.244" y1="62.7956" x2="174.398" y2="113.633" gradientUnits="userSpaceOnUse">
<stop stop-color="white" stop-opacity="0.63"/>
<stop offset="1" stop-color="white" stop-opacity="0"/>
</linearGradient>
<linearGradient id="paint1_linear_25096_160780" x1="199.244" y1="56.7956" x2="165.398" y2="107.633" gradientUnits="userSpaceOnUse">
<stop offset="0.197917" stop-color="white" stop-opacity="0.63"/>
<stop offset="1" stop-color="white" stop-opacity="0"/>
</linearGradient>
<clipPath id="clip0_25096_160780">
<rect width="300" height="160" rx="16" fill="white"/>
</clipPath>
<clipPath id="clip1_25096_160780">
<rect width="20" height="20" fill="white" transform="translate(202 81)"/>
</clipPath>
</defs>

<g clip-path="url(#clip0_25096_160780)">
<rect width="300" height="160" rx="16" fill="#FFF5E9"/>
<g opacity="0.5">
<rect opacity="0.4" width="24" height="6" rx="1.5" transform="matrix(-1 0 0 1 260 5)" fill="#F3AF00"/>
<rect opacity="0.2" width="24" height="6" rx="1.5" transform="matrix(-1 0 0 1 251 -1)" fill="#F3AF00"/>
<rect opacity="0.2" width="16.5" height="6" rx="1.5" transform="matrix(-1 0 0 1 248 11)" fill="#F3AF00"/>
</g>
<circle cx="112.691" cy="135.313" r="21.6932" fill="#F9D377"/>
<circle cx="93.2818" cy="150.156" r="19.4097" fill="#F9D377"/>
<circle cx="72.1595" cy="162.144" r="14.2718" fill="#F9D377"/>
<path d="M96.707 134.172H130.959V166.141H96.707V134.172Z" fill="#F9D377"/>
<mask id="path-9-outside-1_25096_160780" maskUnits="userSpaceOnUse" x="114.542" y="19.5645" width="127" height="147" fill="black">
<rect fill="white" x="114.542" y="19.5645" width="127" height="147"/>
<path d="M119.542 38.2654C119.542 30.6986 125.676 24.5645 133.243 24.5645H222.299C229.866 24.5645 236 30.6986 236 38.2654V166.141H119.542V38.2654Z"/>
</mask>
<path d="M119.542 38.2654C119.542 30.6986 125.676 24.5645 133.243 24.5645H222.299C229.866 24.5645 236 30.6986 236 38.2654V166.141H119.542V38.2654Z" fill="white"/>
<path d="M114.975 38.2654C114.975 28.1763 123.154 19.9975 133.243 19.9975H222.299C232.388 19.9975 240.567 28.1763 240.567 38.2654H231.433C231.433 33.2209 227.344 29.1314 222.299 29.1314H133.243C128.198 29.1314 124.109 33.2209 124.109 38.2654H114.975ZM236 166.141H119.542H236ZM114.975 166.141V38.2654C114.975 28.1763 123.154 19.9975 133.243 19.9975V29.1314C128.198 29.1314 124.109 33.2209 124.109 38.2654V166.141H114.975ZM222.299 19.9975C232.388 19.9975 240.567 28.1763 240.567 38.2654V166.141H231.433V38.2654C231.433 33.2209 227.344 29.1314 222.299 29.1314L222.299 19.9975Z" fill="#F3AF00" fill-opacity="0.2" mask="url(#path-9-outside-1_25096_160780)"/>
<path d="M183.062 136.573L179.982 137.774C178.872 138.19 177.648 138.19 176.537 137.774L173.458 136.573C165.658 133.515 158.958 128.182 154.23 121.265C149.501 114.349 146.962 106.171 146.943 97.7929V83.2829C152.854 84.1253 158.883 83.3579 164.394 81.0615C169.906 78.7651 174.696 75.0247 178.26 70.2344C184.784 79.7337 195.588 84.2224 209.576 83.2829V97.7929C209.557 106.171 207.019 114.349 202.29 121.265C197.561 128.182 190.862 133.515 183.062 136.573Z" fill="#00A2B9" stroke="#00A2B9" stroke-opacity="0.2" stroke-width="9.13398" stroke-linecap="round" stroke-linejoin="round"/>
<path opacity="0.2" d="M193.397 79H201L153.603 153H146L193.397 79Z" fill="url(#paint0_linear_25096_160780)"/>
<path opacity="0.2" d="M184.397 73H192L144.603 147H137L184.397 73Z" fill="url(#paint1_linear_25096_160780)"/>
<path opacity="0.1" fill-rule="evenodd" clip-rule="evenodd" d="M178.037 138.081C193.067 128.263 202.999 111.292 202.999 92.0001C202.999 89.0266 202.763 86.1082 202.309 83.2627C204.623 83.4451 207.048 83.4527 209.576 83.2829V97.7928C209.557 106.171 207.018 114.349 202.29 121.265C197.561 128.181 190.862 133.515 183.062 136.573L179.982 137.774C179.356 138.008 178.694 138.111 178.037 138.081Z" fill="#25262B"/>
<path d="M186.905 104.487C186.905 103.227 185.881 102.203 184.621 102.203H183.479V98.7781C183.479 95.6303 180.918 93.0693 177.771 93.0693C174.623 93.0693 172.062 95.6303 172.062 98.7781V102.203H170.92C169.661 102.203 168.637 103.227 168.637 104.487V113.621C168.637 114.88 169.661 115.904 170.92 115.904H184.621C185.881 115.904 186.905 114.88 186.905 113.621V104.487ZM174.345 98.7781C174.345 96.8896 175.882 95.3528 177.771 95.3528C179.659 95.3528 181.196 96.8896 181.196 98.7781V102.203H174.345V98.7781Z" fill="white"/>
<circle cx="212" cy="91" r="18" fill="#F3AF00" stroke="white" stroke-width="4"/>
<g clip-path="url(#clip1_25096_160780)">
<path d="M218.85 95.1891L213.439 85.2225C213.296 84.9592 213.084 84.7395 212.826 84.5864C212.569 84.4333 212.275 84.3525 211.975 84.3525C211.675 84.3525 211.381 84.4333 211.124 84.5864C210.866 84.7395 210.654 84.9592 210.511 85.2225L205.094 95.1891C204.953 95.4436 204.88 95.7308 204.884 96.0221C204.888 96.3134 204.968 96.5986 205.116 96.8492C205.265 97.0999 205.476 97.3073 205.73 97.4508C205.983 97.5943 206.27 97.6688 206.561 97.6669H217.383C217.672 97.6672 217.956 97.5923 218.208 97.4497C218.459 97.3071 218.669 97.1016 218.817 96.8534C218.965 96.6053 219.045 96.3229 219.051 96.034C219.057 95.7452 218.988 95.4598 218.85 95.2058V95.1891ZM211.144 88.078C211.144 87.857 211.232 87.645 211.389 87.4888C211.545 87.3325 211.757 87.2447 211.978 87.2447C212.199 87.2447 212.411 87.3325 212.567 87.4888C212.723 87.645 212.811 87.857 212.811 88.078V91.9058C212.811 92.1268 212.723 92.3388 212.567 92.495C212.411 92.6513 212.199 92.7391 211.978 92.7391C211.757 92.7391 211.545 92.6513 211.389 92.495C211.232 92.3388 211.144 92.1268 211.144 91.9058V88.078ZM212 95.5836C211.811 95.5836 211.626 95.5275 211.469 95.4225C211.312 95.3175 211.19 95.1683 211.117 94.9937C211.045 94.8191 211.026 94.627 211.063 94.4416C211.1 94.2562 211.191 94.086 211.324 93.9523C211.458 93.8187 211.628 93.7277 211.814 93.6908C211.999 93.6539 212.191 93.6729 212.366 93.7452C212.54 93.8175 212.69 93.94 212.795 94.0971C212.9 94.2543 212.956 94.439 212.956 94.628C212.956 94.8814 212.855 95.1245 212.676 95.3037C212.497 95.4829 212.253 95.5836 212 95.5836Z" fill="white"/>
</g>
<path d="M166.086 82.2171L168 74L162.305 74.6519L159.565 69.667L157.007 77.1438L157.217 83.164L163.082 85.4458L163.13 96.9494L169.54 85.9384L166.086 82.2171Z" fill="white"/>
<path d="M158.361 24.5645H197.181L195.649 27.6281C194.488 29.9489 192.116 31.4149 189.522 31.4149H166.02C163.426 31.4149 161.054 29.9489 159.893 27.6281L158.361 24.5645Z" fill="#FDE7BA"/>
<path d="M-1.47461 113.068L32.3777 122.139C56.741 128.667 71.1993 153.71 64.6711 178.073L61.2889 190.696L-16.6771 169.805L-1.47461 113.068Z" fill="#1A4E66"/>
<path fill-rule="evenodd" clip-rule="evenodd" d="M34.4336 78.4406C37.0712 68.5968 47.1894 62.755 57.0332 65.3927C67.0824 68.0853 72.92 78.5488 69.9329 88.5144L64.3341 107.193C61.8566 115.459 53.9336 120.864 45.334 120.154L45.1741 120.141L44.3459 126.656C43.491 133.381 36.9925 137.88 30.3969 136.312C21.3268 134.156 15.3411 125.509 16.5167 116.261L16.798 114.048L19.2282 94.9293C17.8851 93.8382 16.8611 92.3287 16.379 90.5293C15.1622 85.9881 17.8572 81.3202 22.3984 80.1034C26.6781 78.9567 31.0702 81.2841 32.5804 85.3568L34.4336 78.4406Z" fill="#FF9BA5"/>
<path d="M21.4312 83.7601C23.3509 82.5776 27.103 81.8225 28.9874 87.0339" stroke="#D4737C" stroke-width="1.71262" stroke-linecap="round"/>
<ellipse cx="60.7896" cy="92.1307" rx="2.39769" ry="3.67646" transform="rotate(9.7725 60.7896 92.1307)" fill="white"/>
<ellipse cx="45.902" cy="90.4158" rx="2.39769" ry="3.67646" transform="rotate(9.7725 45.902 90.4158)" fill="white"/>
<ellipse cx="2.04652" cy="2.40055" rx="2.04652" ry="2.40055" transform="matrix(0.987497 0.157637 -0.182706 0.983168 58.832 90.0527)" fill="#25262B"/>
<ellipse cx="2.04652" cy="2.40055" rx="2.04652" ry="2.40055" transform="matrix(0.987497 0.157637 -0.182706 0.983168 43.9229 88.5029)" fill="#25262B"/>
<path d="M52.0371 95.8887C55.4333 96.6915 60.6606 98.9221 54.4006 101.422" stroke="#D4737C" stroke-width="1.71262" stroke-linecap="round"/>
<path d="M18.5498 100.586L19.2455 94.9198C20.9199 95.6946 22.787 95.9536 24.6091 95.6636L24.9117 95.6155L18.5498 100.586Z" fill="#D5737C"/>
<path fill-rule="evenodd" clip-rule="evenodd" d="M44.1756 127.648C43.9152 128.851 43.4705 129.971 42.8769 130.984L29.7178 115.394L35.8697 118.284C37.9964 119.283 40.2959 119.863 42.6422 119.991L45.1778 120.13L45.1761 120.142L45.1737 120.141L45.1232 120.539L44.1756 127.648Z" fill="#D5737C"/>
<path d="M26.6271 61.3461C28.5031 54.0272 35.9935 49.6482 43.2915 51.6037L63.5514 57.0323C71.7308 59.224 77.1265 67.0084 76.3084 75.4367C76.1397 77.1744 75.6442 78.8645 74.848 80.4181L71.8945 86.1809C71.1251 87.682 69.3725 88.3932 67.7747 87.8527C66.7778 87.5154 65.993 86.736 65.6488 85.7414L63.9621 80.8665C62.8689 77.7069 60.889 74.9289 58.259 72.8645L55.5913 70.7705C54.5192 76.6603 50.3114 81.4919 44.6247 83.3629L38.8022 85.2786C37.4726 85.716 36.3354 86.6 35.5836 87.7806L34.4968 89.4872C34.0402 90.2043 32.932 89.9106 32.8905 89.0615L32.835 87.9258C32.437 79.7864 21.8149 76.9713 17.438 83.8452L15.1605 75.0179C13.2812 67.7339 19.1271 60.7637 26.6271 61.3461Z" fill="#25262B"/>
<path d="M39.3916 104.057C44.1872 105.058 47.0415 106.771 49.325 111.338" stroke="#D4737C" stroke-width="2.28349" stroke-linecap="round"/>
<path d="M58.9727 82.5566C63.1459 84.966 66.3752 84.853 67.4682 84.4953" stroke="#25262B" stroke-width="3.42524" stroke-linecap="round"/>
<path d="M42.8857 81.2021C47.5404 82.4493 50.6303 81.5043 51.5935 80.8759" stroke="#25262B" stroke-width="3.42524" stroke-linecap="round"/>
<g opacity="0.5">
<rect opacity="0.4" x="273" y="139" width="24" height="6" rx="1.5" fill="#F3AF00"/>
<rect opacity="0.32" x="294" y="127" width="12" height="6" rx="1.5" fill="#F3AF00"/>
<rect opacity="0.2" x="282" y="133" width="24" height="6" rx="1.5" fill="#F3AF00"/>
<rect opacity="0.2" x="285" y="145" width="16.5" height="6" rx="1.5" fill="#F3AF00"/>
</g>
</g>
</svg>
