<svg width="96" height="96" viewBox="0 0 96 96" fill="none" xmlns="http://www.w3.org/2000/svg">
<circle opacity="0.1" cx="48" cy="48" r="48" fill="#DE350B"/>
<circle opacity="0.2" cx="48" cy="48" r="40" fill="#DE350B"/>
<circle cx="48" cy="48" r="32" fill="#DE350B"/>
<path d="M61.9247 61.9245C65.6177 58.2315 67.6924 53.2227 67.6924 47.9999C67.6924 42.7772 65.6177 37.7684 61.9247 34.0754C58.2316 30.3823 53.2228 28.3076 48.0001 28.3076C42.7774 28.3076 37.7686 30.3823 34.0755 34.0754C30.3825 37.7684 28.3078 42.7772 28.3078 47.9999C28.3078 53.2227 30.3825 58.2315 34.0755 61.9245C37.7686 65.6175 42.7774 67.6922 48.0001 67.6922C53.2228 67.6922 58.2316 65.6175 61.9247 61.9245Z" fill="white"/>
<path d="M50.3477 47.9986L57.5075 40.8545C57.821 40.5409 57.9972 40.1156 57.9972 39.6721C57.9972 39.2286 57.821 38.8033 57.5075 38.4897C57.1939 38.1762 56.7687 38 56.3253 38C55.8819 38 55.4566 38.1762 55.1431 38.4897L48 45.6505L40.8569 38.4897C40.5434 38.1762 40.1181 38 39.6747 38C39.2313 38 38.8061 38.1762 38.4925 38.4897C38.179 38.8033 38.0028 39.2286 38.0028 39.6721C38.0028 40.1156 38.179 40.5409 38.4925 40.8545L45.6523 47.9986L38.4925 55.1427C38.3365 55.2975 38.2126 55.4817 38.1281 55.6846C38.0435 55.8875 38 56.1052 38 56.3251C38 56.5449 38.0435 56.7626 38.1281 56.9655C38.2126 57.1684 38.3365 57.3526 38.4925 57.5074C38.6473 57.6635 38.8315 57.7874 39.0344 57.8719C39.2373 57.9565 39.4549 58 39.6747 58C39.8945 58 40.1122 57.9565 40.3151 57.8719C40.518 57.7874 40.7021 57.6635 40.8569 57.5074L48 50.3466L55.1431 57.5074C55.2979 57.6635 55.482 57.7874 55.6849 57.8719C55.8878 57.9565 56.1055 58 56.3253 58C56.5451 58 56.7627 57.9565 56.9656 57.8719C57.1685 57.7874 57.3527 57.6635 57.5075 57.5074C57.6635 57.3526 57.7874 57.1684 57.8719 56.9655C57.9565 56.7626 58 56.5449 58 56.3251C58 56.1052 57.9565 55.8875 57.8719 55.6846C57.7874 55.4817 57.6635 55.2975 57.5075 55.1427L50.3477 47.9986Z" fill="#DE350B"/>
</svg>
