<svg width="298" height="155" viewBox="0 0 298 155" fill="none" xmlns="http://www.w3.org/2000/svg">
<g clip-path="url(#clip0_23091_178932)">
<ellipse cx="148.813" cy="287.396" rx="189.813" ry="189.229" fill="url(#paint0_linear_23091_178932)"/>
<g opacity="0.7" filter="url(#filter0_f_23091_178932)">
<ellipse cx="148.187" cy="255.104" rx="127.622" ry="127.229" fill="white"/>
</g>
<g opacity="0.7" filter="url(#filter1_f_23091_178932)">
<ellipse cx="264.796" cy="255.104" rx="127.622" ry="127.229" fill="white"/>
</g>
<g opacity="0.7" filter="url(#filter2_f_23091_178932)">
<ellipse cx="18.6217" cy="255.104" rx="127.622" ry="127.229" fill="white"/>
</g>
<path d="M101.356 25.2323C103.088 20.3111 107.939 17.8723 113.156 17.8723H180.046C188.384 17.8723 195.61 23.6331 197.024 31.8502C198.739 41.8091 200.628 55.4856 200.628 67.3936C200.628 75.8441 199.676 86.6403 198.511 96.6933C196.504 114.017 181.534 126.596 164.094 126.596H133.973C116.316 126.596 100.548 115.932 98.0727 98.4491C96.8727 89.9745 96 79.6113 96 67.3936C96 45.2418 98.8689 32.2943 101.356 25.2323Z" fill="#E4E4E4"/>
<path fill-rule="evenodd" clip-rule="evenodd" d="M131.419 126.521C132.265 126.571 133.117 126.596 133.973 126.596H164.094C181.534 126.596 196.504 114.017 198.511 96.6933C199.676 86.6403 200.628 75.8441 200.628 67.3936C200.628 55.4857 198.739 41.8092 197.024 31.8502C195.61 23.6331 188.384 17.8723 180.046 17.8723H137.217C143.113 17.8723 148.642 20.7661 151.571 25.8836C157.197 35.7154 165.628 52.8699 165.628 67.3936C165.628 75.8441 164.676 86.6403 163.511 96.6933C161.593 113.242 147.847 125.461 131.419 126.521Z" fill="black" fill-opacity="0.05"/>
<path fill-rule="evenodd" clip-rule="evenodd" d="M106.784 116C113.552 122.791 123.425 126.596 133.973 126.596H164.094C181.534 126.596 196.504 114.017 198.511 96.6934C199.676 86.6403 200.628 75.8442 200.628 67.3936C200.628 55.4857 198.739 41.8092 197.024 31.8502C195.617 23.6748 188.457 17.9309 180.173 17.8728C182.986 26.1659 185 34.9322 185 43.0343C185 55.3503 183.449 71.7089 181.769 85.8151C179.692 103.252 164.702 116 147.142 116H106.784Z" fill="black" fill-opacity="0.05"/>
<rect x="128.021" width="41.7021" height="17.8723" rx="8.93617" fill="#525252"/>
<path fill-rule="evenodd" clip-rule="evenodd" d="M158.964 17.8723H160.787C165.723 17.8723 169.723 13.8715 169.723 8.93617C169.723 4.00086 165.723 0 160.787 0H150.064C154.999 0 159 4.00086 159 8.93617V17.0638C159 17.3364 158.988 17.606 158.964 17.8723Z" fill="black" fill-opacity="0.2"/>
<rect x="135.468" y="20.1063" width="28.2979" height="12.6596" rx="6.32979" fill="#525252" fill-opacity="0.2"/>
<rect x="96.7446" y="8.93616" width="104.255" height="17.8723" rx="8.93617" fill="#9D9D9D"/>
<path fill-rule="evenodd" clip-rule="evenodd" d="M104.607 9H165.064C169.999 9 174 13.0009 174 17.9362V26.8085H192.064C196.999 26.8085 201 22.8076 201 17.8723C201 12.937 196.999 8.93616 192.064 8.93616H105.681C105.317 8.93616 104.959 8.95785 104.607 9Z" fill="black" fill-opacity="0.1"/>
<path fill-rule="evenodd" clip-rule="evenodd" d="M106 8.93616H105.681C100.745 8.93616 96.7446 12.937 96.7446 17.8723C96.7446 22.8076 100.745 26.8085 105.681 26.8085H113.087C109.039 25.9568 106 22.3652 106 18.0639V8.93616Z" fill="white" fill-opacity="0.1"/>
<path d="M112.397 84.1809C112.397 81.195 114.608 78.6703 117.568 78.2757L135.584 75.8734C139.156 75.3972 142.329 78.1756 142.329 81.7786V99.6901C142.329 102.676 140.119 105.201 137.159 105.595L119.142 107.998C115.571 108.474 112.397 105.695 112.397 102.092V84.1809Z" fill="#919191"/>
<path d="M109.404 82.1855C109.404 79.1996 111.615 76.675 114.574 76.2803L132.591 73.8781C136.163 73.4019 139.336 76.1803 139.336 79.7833V97.6947C139.336 100.681 137.126 103.205 134.166 103.6L116.149 106.002C112.578 106.478 109.404 103.7 109.404 100.097V82.1855Z" fill="#BDBDBD"/>
<path fill-rule="evenodd" clip-rule="evenodd" d="M114.022 105.904C112.802 105.623 111.716 104.964 110.904 104.049C111.003 102.842 111.254 101.649 111.653 100.499C112.275 98.7036 113.244 97.0485 114.506 95.6282C115.768 94.2078 117.297 93.0498 119.006 92.2205C120.716 91.391 122.571 90.9064 124.468 90.7942C126.365 90.682 128.264 90.9445 130.059 91.5666C131.855 92.1887 133.51 93.1584 134.93 94.4201C136.35 95.6818 137.508 97.2109 138.338 98.9201C138.522 99.2996 138.689 99.6864 138.839 100.079C138.026 101.938 136.289 103.317 134.166 103.6L119.162 105.6L114.022 105.904ZM129.592 84.4943C129.788 87.7947 127.27 90.6285 123.97 90.8237C120.67 91.0189 117.836 88.5017 117.64 85.2012C117.445 81.9008 119.963 79.067 123.263 78.8718C126.563 78.6766 129.397 81.1938 129.592 84.4943Z" fill="white"/>
<path d="M131.759 65.5639C131.759 62.578 133.97 60.0534 136.929 59.6587L154.946 57.2565C158.518 56.7803 161.691 59.5587 161.691 63.1617V81.0732C161.691 84.0591 159.481 86.5837 156.521 86.9784L138.504 89.3806C134.933 89.8568 131.759 87.0784 131.759 83.4754V65.5639Z" fill="#919191"/>
<path d="M128.766 63.5685C128.766 60.5826 130.977 58.0579 133.936 57.6633L151.953 55.261C155.525 54.7848 158.698 57.5632 158.698 61.1662V79.0777C158.698 82.0636 156.488 84.5882 153.528 84.9829L135.511 87.3851C131.94 87.8613 128.766 85.0829 128.766 81.4799V63.5685Z" fill="#BDBDBD"/>
<path fill-rule="evenodd" clip-rule="evenodd" d="M133.384 87.2875C132.164 87.0063 131.078 86.3468 130.266 85.4325C130.365 84.2248 130.616 83.0317 131.014 81.8817C131.637 80.0866 132.606 78.4316 133.868 77.0112C135.13 75.5909 136.659 74.4329 138.368 73.6035C140.077 72.774 141.933 72.2895 143.83 72.1773C145.726 72.0651 147.626 72.3275 149.421 72.9497C151.216 73.5718 152.872 74.5414 154.292 75.8031C155.712 77.0648 156.87 78.594 157.7 80.3032C157.884 80.6827 158.051 81.0694 158.201 81.4623C157.388 83.3211 155.651 84.6999 153.528 84.9829L138.524 86.9835L133.384 87.2875ZM148.954 65.8773C149.149 69.1777 146.632 72.0115 143.332 72.2067C140.032 72.4019 137.198 69.8847 137.002 66.5843C136.807 63.2839 139.325 60.4501 142.625 60.2549C145.925 60.0597 148.759 62.5769 148.954 65.8773Z" fill="white"/>
<path d="M134.738 93.117C134.738 90.1311 136.948 87.6065 139.908 87.2118L157.925 84.8096C161.496 84.3334 164.67 87.1118 164.67 90.7148V108.626C164.67 111.612 162.459 114.137 159.5 114.531L141.483 116.934C137.911 117.41 134.738 114.632 134.738 111.029V93.117Z" fill="#919191"/>
<path d="M131.745 91.1217C131.745 88.1358 133.955 85.6111 136.915 85.2165L154.932 82.8142C158.503 82.338 161.676 85.1164 161.676 88.7194V106.631C161.676 109.617 159.466 112.141 156.506 112.536L138.489 114.938C134.918 115.415 131.745 112.636 131.745 109.033V91.1217Z" fill="#BDBDBD"/>
<path fill-rule="evenodd" clip-rule="evenodd" d="M136.362 114.841C135.143 114.56 134.056 113.9 133.244 112.986C133.343 111.778 133.594 110.585 133.993 109.435C134.615 107.64 135.585 105.985 136.847 104.564C138.108 103.144 139.637 101.986 141.347 101.157C143.056 100.327 144.912 99.8427 146.808 99.7305C148.705 99.6183 150.605 99.8807 152.4 100.503C154.195 101.125 155.85 102.095 157.27 103.356C158.691 104.618 159.849 106.147 160.678 107.856C160.862 108.236 161.03 108.623 161.179 109.015C160.367 110.874 158.629 112.253 156.506 112.536L141.502 114.537L136.362 114.841ZM151.933 93.4305C152.128 96.731 149.61 99.5647 146.31 99.76C143.01 99.9552 140.176 97.4379 139.981 94.1375C139.786 90.8371 142.303 88.0033 145.603 87.8081C148.903 87.6129 151.737 90.1301 151.933 93.4305Z" fill="white"/>
<path d="M159.312 73.7553C159.312 70.7695 161.523 68.2448 164.483 67.8502L182.5 65.4479C186.071 64.9717 189.244 67.7501 189.244 71.3531V89.2646C189.244 92.2505 187.034 94.7751 184.074 95.1698L166.057 97.572C162.486 98.0482 159.312 95.2698 159.312 91.6668V73.7553Z" fill="#919191"/>
<path d="M156.319 71.76C156.319 68.7741 158.53 66.2494 161.489 65.8548L179.506 63.4525C183.078 62.9763 186.251 65.7547 186.251 69.3577V87.2692C186.251 90.2551 184.041 92.7798 181.081 93.1744L163.064 95.5767C159.493 96.0528 156.319 93.2745 156.319 89.6715V71.76Z" fill="#BDBDBD"/>
<path fill-rule="evenodd" clip-rule="evenodd" d="M160.937 95.4791C159.718 95.1978 158.631 94.5383 157.819 93.624C157.918 92.4164 158.169 91.2232 158.568 90.0732C159.19 88.2781 160.159 86.6231 161.421 85.2028C162.683 83.7824 164.212 82.6244 165.921 81.795C167.631 80.9656 169.486 80.481 171.383 80.3688C173.28 80.2566 175.179 80.519 176.975 81.1412C178.77 81.7633 180.425 82.7329 181.845 83.9947C183.266 85.2564 184.423 86.7855 185.253 88.4947C185.437 88.8742 185.604 89.261 185.754 89.6538C184.941 91.5126 183.204 92.8914 181.081 93.1745L166.077 95.175L160.937 95.4791ZM176.507 74.0689C176.703 77.3693 174.185 80.203 170.885 80.3983C167.585 80.5935 164.751 78.0763 164.556 74.7758C164.36 71.4754 166.878 68.6416 170.178 68.4464C173.478 68.2512 176.312 70.7684 176.507 74.0689Z" fill="white"/>
<path opacity="0.5" d="M105.78 41.4028C105.933 38.8518 108.047 36.8617 110.602 36.8617C113.385 36.8617 115.593 39.2062 115.425 41.9839L114.146 63.2248C113.992 65.7758 111.879 67.7659 109.323 67.7659C106.54 67.7659 104.333 65.4214 104.5 62.6437L105.78 41.4028Z" fill="white"/>
<rect opacity="0.5" x="104.191" y="72.234" width="9.68085" height="14.8936" rx="4.84043" fill="white"/>
<circle cx="206.6" cy="42.6" r="19.6" fill="#25262B" stroke="white" stroke-width="4"/>
<path d="M207 48C207.53 48 208.039 47.7893 208.414 47.4142C208.789 47.0391 209 46.5304 209 46C209 45.4696 208.789 44.9609 208.414 44.5858C208.039 44.2107 207.53 44 207 44C206.47 44 205.961 44.2107 205.586 44.5858C205.211 44.9609 205 45.4696 205 46C205 46.5304 205.211 47.0391 205.586 47.4142C205.961 47.7893 206.47 48 207 48ZM213 39C213.53 39 214.039 39.2107 214.414 39.5858C214.789 39.9609 215 40.4696 215 41V51C215 51.5304 214.789 52.0391 214.414 52.4142C214.039 52.7893 213.53 53 213 53H201C200.47 53 199.961 52.7893 199.586 52.4142C199.211 52.0391 199 51.5304 199 51V41C199 40.4696 199.211 39.9609 199.586 39.5858C199.961 39.2107 200.47 39 201 39H202V37C202 35.6739 202.527 34.4021 203.464 33.4645C204.402 32.5268 205.674 32 207 32C207.657 32 208.307 32.1293 208.913 32.3806C209.52 32.6319 210.071 33.0002 210.536 33.4645C211 33.9288 211.368 34.48 211.619 35.0866C211.871 35.6932 212 36.3434 212 37V39H213ZM207 34C206.204 34 205.441 34.3161 204.879 34.8787C204.316 35.4413 204 36.2044 204 37V39H210V37C210 36.2044 209.684 35.4413 209.121 34.8787C208.559 34.3161 207.796 34 207 34Z" fill="white"/>
<g filter="url(#filter3_f_23091_178932)">
<ellipse cx="149" cy="141" rx="42" ry="1" fill="#ADADAD"/>
</g>
</g>
<defs>
<filter id="filter0_f_23091_178932" x="4.56543" y="111.875" width="287.244" height="286.458" filterUnits="userSpaceOnUse" color-interpolation-filters="sRGB">
<feFlood flood-opacity="0" result="BackgroundImageFix"/>
<feBlend mode="normal" in="SourceGraphic" in2="BackgroundImageFix" result="shape"/>
<feGaussianBlur stdDeviation="8" result="effect1_foregroundBlur_23091_178932"/>
</filter>
<filter id="filter1_f_23091_178932" x="121.174" y="111.875" width="287.244" height="286.458" filterUnits="userSpaceOnUse" color-interpolation-filters="sRGB">
<feFlood flood-opacity="0" result="BackgroundImageFix"/>
<feBlend mode="normal" in="SourceGraphic" in2="BackgroundImageFix" result="shape"/>
<feGaussianBlur stdDeviation="8" result="effect1_foregroundBlur_23091_178932"/>
</filter>
<filter id="filter2_f_23091_178932" x="-125" y="111.875" width="287.244" height="286.458" filterUnits="userSpaceOnUse" color-interpolation-filters="sRGB">
<feFlood flood-opacity="0" result="BackgroundImageFix"/>
<feBlend mode="normal" in="SourceGraphic" in2="BackgroundImageFix" result="shape"/>
<feGaussianBlur stdDeviation="8" result="effect1_foregroundBlur_23091_178932"/>
</filter>
<filter id="filter3_f_23091_178932" x="101" y="134" width="96" height="14" filterUnits="userSpaceOnUse" color-interpolation-filters="sRGB">
<feFlood flood-opacity="0" result="BackgroundImageFix"/>
<feBlend mode="normal" in="SourceGraphic" in2="BackgroundImageFix" result="shape"/>
<feGaussianBlur stdDeviation="3" result="effect1_foregroundBlur_23091_178932"/>
</filter>
<linearGradient id="paint0_linear_23091_178932" x1="148.813" y1="98.1666" x2="148.813" y2="153.708" gradientUnits="userSpaceOnUse">
<stop stop-color="#D9D9D9"/>
<stop offset="1" stop-color="white"/>
</linearGradient>
<clipPath id="clip0_23091_178932">
<rect width="298" height="155" fill="white"/>
</clipPath>
</defs>
</svg>
