<svg width="140" height="78" viewBox="0 0 140 78" fill="none" xmlns="http://www.w3.org/2000/svg">
<g opacity="0.1">
<path d="M112.143 -44.5H39.5501C33.8227 -44.5 29.1797 -40.7276 29.1797 -36.0741V22.9074C29.1797 27.5609 33.8227 31.3333 39.5501 31.3333H112.143C117.87 31.3333 122.513 27.5609 122.513 22.9074V-36.0741C122.513 -40.7276 117.87 -44.5 112.143 -44.5Z" stroke="#00A2B9" stroke-width="10" stroke-linecap="round" stroke-linejoin="round"/>
<path d="M100.463 -44.5H27.8704C22.143 -44.5 17.5 -39.2767 17.5 -32.8333V48.8333C17.5 55.2767 22.143 60.5 27.8704 60.5H100.463C106.19 60.5 110.833 55.2767 110.833 48.8333V-32.8333C110.833 -39.2767 106.19 -44.5 100.463 -44.5Z" fill="white" stroke="#00A2B9" stroke-width="10" stroke-linecap="round" stroke-linejoin="round"/>
<path d="M40.8203 2.16504H87.487" stroke="#00A2B9" stroke-width="10" stroke-linecap="round" stroke-linejoin="round"/>
<path d="M40.8203 25.5H87.487" stroke="#00A2B9" stroke-width="10" stroke-linecap="round" stroke-linejoin="round"/>
</g>
</svg>
