<svg width="120" height="120" viewBox="0 0 120 120" fill="none" xmlns="http://www.w3.org/2000/svg">
<circle opacity="0.5" cx="60" cy="60" r="60" fill="#FEEDEC"/>
<circle cx="60" cy="60" r="48" fill="#FEEDEC"/>
<g clip-path="url(#clip0_8442_90180)">
<path d="M71.25 33.75C72.2446 33.75 73.1984 34.1451 73.9016 34.8483C74.6049 35.5516 75 36.5054 75 37.5V82.5C75 83.4946 74.6049 84.4484 73.9016 85.1516C73.1984 85.8549 72.2446 86.25 71.25 86.25H48.75C47.7554 86.25 46.8016 85.8549 46.0984 85.1516C45.3951 84.4484 45 83.4946 45 82.5V37.5C45 36.5054 45.3951 35.5516 46.0984 34.8483C46.8016 34.1451 47.7554 33.75 48.75 33.75H71.25ZM48.75 30C46.7609 30 44.8532 30.7902 43.4467 32.1967C42.0402 33.6032 41.25 35.5109 41.25 37.5V82.5C41.25 84.4891 42.0402 86.3968 43.4467 87.8033C44.8532 89.2098 46.7609 90 48.75 90H71.25C73.2391 90 75.1468 89.2098 76.5533 87.8033C77.9598 86.3968 78.75 84.4891 78.75 82.5V37.5C78.75 35.5109 77.9598 33.6032 76.5533 32.1967C75.1468 30.7902 73.2391 30 71.25 30H48.75Z" fill="#DE350B"/>
<path d="M60 82.5C60.9946 82.5 61.9484 82.1049 62.6516 81.4016C63.3549 80.6984 63.75 79.7446 63.75 78.75C63.75 77.7554 63.3549 76.8016 62.6516 76.0984C61.9484 75.3951 60.9946 75 60 75C59.0054 75 58.0516 75.3951 57.3484 76.0984C56.6451 76.8016 56.25 77.7554 56.25 78.75C56.25 79.7446 56.6451 80.6984 57.3484 81.4016C58.0516 82.1049 59.0054 82.5 60 82.5Z" fill="#DE350B"/>
</g>
<circle cx="78" cy="55" r="14" fill="#DE350B" stroke="#FEEDEC" stroke-width="4"/>
<path d="M79.4086 54.9991L83.7045 50.7127C83.8926 50.5245 83.9983 50.2693 83.9983 50.0033C83.9983 49.7372 83.8926 49.482 83.7045 49.2938C83.5164 49.1057 83.2612 49 82.9952 49C82.7291 49 82.474 49.1057 82.2859 49.2938L78 53.5903L73.7141 49.2938C73.526 49.1057 73.2709 49 73.0048 49C72.7388 49 72.4836 49.1057 72.2955 49.2938C72.1074 49.482 72.0017 49.7372 72.0017 50.0033C72.0017 50.2693 72.1074 50.5245 72.2955 50.7127L76.5914 54.9991L72.2955 59.2856C72.2019 59.3785 72.1276 59.489 72.0768 59.6108C72.0261 59.7325 72 59.8631 72 59.995C72 60.1269 72.0261 60.2575 72.0768 60.3793C72.1276 60.501 72.2019 60.6116 72.2955 60.7044C72.3884 60.7981 72.4989 60.8724 72.6206 60.9232C72.7424 60.9739 72.8729 61 73.0048 61C73.1367 61 73.2673 60.9739 73.389 60.9232C73.5108 60.8724 73.6213 60.7981 73.7141 60.7044L78 56.408L82.2859 60.7044C82.3787 60.7981 82.4892 60.8724 82.611 60.9232C82.7327 60.9739 82.8633 61 82.9952 61C83.1271 61 83.2576 60.9739 83.3794 60.9232C83.5011 60.8724 83.6116 60.7981 83.7045 60.7044C83.7981 60.6116 83.8724 60.501 83.9232 60.3793C83.9739 60.2575 84 60.1269 84 59.995C84 59.8631 83.9739 59.7325 83.9232 59.6108C83.8724 59.489 83.7981 59.3785 83.7045 59.2856L79.4086 54.9991Z" fill="#FEEDEC"/>
<defs>
<clipPath id="clip0_8442_90180">
<rect width="60" height="60" fill="white" transform="translate(30 30)"/>
</clipPath>
</defs>
</svg>
