<svg width="388" height="160" viewBox="0 0 388 160" fill="none" xmlns="http://www.w3.org/2000/svg">
<g clip-path="url(#clip0_39086_430524)">
<rect width="388" height="160" rx="16" fill="#FCEBE7"/>
<g opacity="0.5">
<rect opacity="0.4" width="24" height="6" rx="1.5" transform="matrix(-1 0 0 1 79 5)" fill="#DE350B"/>
<rect opacity="0.2" width="24" height="6" rx="1.5" transform="matrix(-1 0 0 1 70 -1)" fill="#DE350B"/>
<rect opacity="0.2" width="16.5" height="6" rx="1.5" transform="matrix(-1 0 0 1 67 11)" fill="#DE350B"/>
</g>
<g opacity="0.5">
<rect opacity="0.4" x="-13" y="80" width="24" height="6" rx="1.5" fill="#DE350B"/>
<rect opacity="0.32" x="8" y="68" width="12" height="6" rx="1.5" fill="#DE350B"/>
<rect opacity="0.2" x="-4" y="74" width="24" height="6" rx="1.5" fill="#DE350B"/>
<rect opacity="0.2" x="-1" y="86" width="16.5" height="6" rx="1.5" fill="#DE350B"/>
</g>
<g opacity="0.5">
<rect opacity="0.4" x="361.273" y="117.69" width="24" height="6" rx="1.5" fill="#DE350B"/>
<rect opacity="0.32" x="382.273" y="105.69" width="12" height="6" rx="1.5" fill="#DE350B"/>
<rect opacity="0.2" x="370.273" y="111.69" width="24" height="6" rx="1.5" fill="#DE350B"/>
<rect opacity="0.2" x="373.273" y="123.69" width="16.5" height="6" rx="1.5" fill="#DE350B"/>
</g>
<path d="M273.5 58.0132L314.419 56.4844V160H273.5V58.0132Z" fill="#DE350B" fill-opacity="0.6"/>
<path d="M164.122 60.3028C165.824 54.27 171.328 50.1035 177.596 50.1035H306.43C311.734 50.1035 315.57 55.1707 314.13 60.2754L286 160H136L164.122 60.3028Z" fill="white"/>
<g opacity="0.5">
<path d="M170.218 83.0901C170.679 81.3306 172.268 80.1035 174.087 80.1035H193.409C194.719 80.1035 195.675 81.3426 195.343 82.6102L191.282 98.117C190.821 99.8764 189.232 101.104 187.413 101.104H168.091C166.781 101.104 165.825 99.8644 166.157 98.5968L170.218 83.0901Z" fill="#EAFBEF"/>
<path d="M203.718 83.0901C204.179 81.3306 205.768 80.1035 207.587 80.1035H226.909C228.219 80.1035 229.175 81.3426 228.843 82.6102L224.782 98.117C224.321 99.8764 222.732 101.104 220.913 101.104H201.591C200.281 101.104 199.325 99.8644 199.657 98.5968L203.718 83.0901Z" fill="#EAFBEF"/>
<path d="M237.218 83.0901C237.679 81.3306 239.268 80.1035 241.087 80.1035H260.409C261.719 80.1035 262.675 81.3426 262.343 82.6102L258.282 98.117C257.821 99.8764 256.232 101.104 254.413 101.104H235.091C233.781 101.104 232.825 99.8644 233.157 98.5968L237.218 83.0901Z" fill="#EAFBEF"/>
<path d="M270.718 83.0901C271.179 81.3306 272.768 80.1035 274.587 80.1035H293.909C295.219 80.1035 296.175 81.3426 295.843 82.6102L291.782 98.117C291.321 99.8764 289.732 101.104 287.913 101.104H268.591C267.281 101.104 266.325 99.8644 266.657 98.5968L270.718 83.0901Z" fill="#EAFBEF"/>
</g>
<path opacity="0.5" d="M162.218 110.09C162.679 108.331 164.268 107.104 166.087 107.104H185.409C186.719 107.104 187.675 108.343 187.343 109.61L183.282 125.117C182.821 126.876 181.232 128.104 179.413 128.104H160.091C158.781 128.104 157.825 126.864 158.157 125.597L162.218 110.09Z" fill="#EAFBEF"/>
<path d="M195.718 110.09C196.179 108.331 197.768 107.104 199.587 107.104H218.909C220.219 107.104 221.175 108.343 220.843 109.61L216.782 125.117C216.321 126.876 214.732 128.104 212.913 128.104H193.591C192.281 128.104 191.325 126.864 191.657 125.597L195.718 110.09Z" fill="#FCEBE7"/>
<path d="M229.218 110.09C229.679 108.331 231.268 107.104 233.087 107.104H252.409C253.719 107.104 254.675 108.343 254.343 109.61L250.282 125.117C249.821 126.876 248.232 128.104 246.413 128.104H227.091C225.781 128.104 224.825 126.864 225.157 125.597L229.218 110.09Z" fill="#FCEBE7"/>
<path d="M262.718 110.09C263.179 108.331 264.768 107.104 266.587 107.104H285.909C287.219 107.104 288.175 108.343 287.843 109.61L283.782 125.117C283.321 126.876 281.732 128.104 279.913 128.104H260.591C259.281 128.104 258.325 126.864 258.657 125.597L262.718 110.09Z" fill="#FCEBE7"/>
<g opacity="0.5">
<path d="M154.218 137.09C154.679 135.331 156.268 134.104 158.087 134.104H174.817C177.438 134.104 179.351 136.582 178.687 139.117L175.282 152.117C174.821 153.876 173.232 155.104 171.413 155.104H154.683C152.062 155.104 150.149 152.625 150.813 150.09L154.218 137.09Z" fill="#EAFBEF"/>
<path d="M187.718 137.09C188.179 135.331 189.768 134.104 191.587 134.104H210.909C212.219 134.104 213.175 135.343 212.843 136.61L208.782 152.117C208.321 153.876 206.732 155.104 204.913 155.104H185.591C184.281 155.104 183.325 153.864 183.657 152.597L187.718 137.09Z" fill="#EAFBEF"/>
<path d="M221.218 137.09C221.679 135.331 223.268 134.104 225.087 134.104H244.409C245.719 134.104 246.675 135.343 246.343 136.61L242.282 152.117C241.821 153.876 240.232 155.104 238.413 155.104H219.091C217.781 155.104 216.825 153.864 217.157 152.597L221.218 137.09Z" fill="#EAFBEF"/>
<path d="M254.718 137.09C255.179 135.331 256.768 134.104 258.587 134.104H277.909C279.219 134.104 280.175 135.343 279.843 136.61L275.782 152.117C275.321 153.876 273.732 155.104 271.913 155.104H252.591C251.281 155.104 250.325 153.864 250.657 152.597L254.718 137.09Z" fill="#EAFBEF"/>
</g>
<path fill-rule="evenodd" clip-rule="evenodd" d="M310.789 72.1035H160.789L164.118 60.3028C165.819 54.27 171.324 50.1035 177.592 50.1035H306.426C311.73 50.1035 315.565 55.1707 314.126 60.2754L310.789 72.1035Z" fill="#F8C8BF"/>
<ellipse cx="4.3" cy="6" rx="4.3" ry="6" transform="matrix(0.9746 0.223953 -0.308426 0.951248 184.461 52)" fill="#DE350B" fill-opacity="0.2"/>
<ellipse cx="4.3" cy="6" rx="4.3" ry="6" transform="matrix(0.9746 0.223953 -0.308426 0.951248 215.562 52)" fill="#DE350B" fill-opacity="0.2"/>
<ellipse cx="4.3" cy="6" rx="4.3" ry="6" transform="matrix(0.9746 0.223953 -0.308426 0.951248 246.656 52)" fill="#DE350B" fill-opacity="0.2"/>
<ellipse cx="4.3" cy="6" rx="4.3" ry="6" transform="matrix(0.9746 0.223953 -0.308426 0.951248 277.758 52)" fill="#DE350B" fill-opacity="0.2"/>
<path d="M198.5 47.6044L198.5 50.1044L203.5 50.1036L203.5 47.6036L198.5 47.6044ZM184 58.2391C184 59.6198 185.119 60.7393 186.5 60.7395C187.88 60.7397 189 59.6205 189 58.2398L184 58.2391ZM203.5 47.6036C203.5 45.2744 203.262 43.3262 202.749 41.7789C202.24 40.2411 201.364 38.8318 199.906 38.0577C198.402 37.2594 196.818 37.4182 195.524 37.9091C194.258 38.3896 193.077 39.2469 192.037 40.2256C189.943 42.1948 187.962 45.0871 186.502 48.2051C185.044 51.3199 184 54.8849 184 58.2391L189 58.2398C189 55.8439 189.77 53.017 191.03 50.3251C192.289 47.6365 193.932 45.3074 195.462 43.8678C196.234 43.1421 196.865 42.7481 197.298 42.5838C197.704 42.43 197.705 42.5506 197.561 42.474C197.463 42.4216 197.719 42.4938 198.003 43.351C198.284 44.1986 198.5 45.5587 198.5 47.6044L203.5 47.6036Z" fill="#25262B"/>
<path d="M229.5 47.6044L229.5 50.1044L234.5 50.1036L234.5 47.6036L229.5 47.6044ZM215 58.2391C215 59.6198 216.119 60.7393 217.5 60.7395C218.88 60.7397 220 59.6205 220 58.2398L215 58.2391ZM234.5 47.6036C234.5 45.2744 234.262 43.3262 233.749 41.7789C233.24 40.2411 232.364 38.8318 230.906 38.0577C229.402 37.2594 227.818 37.4182 226.524 37.9091C225.258 38.3896 224.077 39.2469 223.037 40.2256C220.943 42.1948 218.962 45.0871 217.502 48.2051C216.044 51.3199 215 54.8849 215 58.2391L220 58.2398C220 55.8439 220.77 53.017 222.03 50.3251C223.289 47.6365 224.932 45.3074 226.462 43.8678C227.234 43.1421 227.865 42.7481 228.298 42.5838C228.704 42.43 228.705 42.5506 228.561 42.474C228.463 42.4216 228.719 42.4938 229.003 43.351C229.284 44.1986 229.5 45.5587 229.5 47.6044L234.5 47.6036Z" fill="#25262B"/>
<path d="M260.5 47.6044L260.5 50.1044L265.5 50.1036L265.5 47.6036L260.5 47.6044ZM246 58.2391C246 59.6198 247.119 60.7393 248.5 60.7395C249.88 60.7397 251 59.6205 251 58.2398L246 58.2391ZM265.5 47.6036C265.5 45.2744 265.262 43.3262 264.749 41.7789C264.24 40.2411 263.364 38.8318 261.906 38.0577C260.402 37.2594 258.818 37.4182 257.524 37.9091C256.258 38.3896 255.077 39.2469 254.037 40.2256C251.943 42.1948 249.962 45.0871 248.502 48.2051C247.044 51.3199 246 54.8849 246 58.2391L251 58.2398C251 55.8439 251.77 53.017 253.03 50.3251C254.289 47.6365 255.932 45.3074 257.462 43.8678C258.234 43.1421 258.865 42.7481 259.298 42.5838C259.704 42.43 259.705 42.5506 259.561 42.474C259.463 42.4216 259.719 42.4938 260.003 43.351C260.284 44.1986 260.5 45.5587 260.5 47.6044L265.5 47.6036Z" fill="#25262B"/>
<path d="M291.5 47.6044L291.5 50.1044L296.5 50.1036L296.5 47.6036L291.5 47.6044ZM277 58.2391C277 59.6198 278.119 60.7393 279.5 60.7395C280.88 60.7397 282 59.6205 282 58.2398L277 58.2391ZM296.5 47.6036C296.5 45.2744 296.262 43.3262 295.749 41.7789C295.24 40.2411 294.364 38.8318 292.906 38.0577C291.402 37.2594 289.818 37.4182 288.524 37.9091C287.258 38.3896 286.077 39.2469 285.037 40.2256C282.943 42.1948 280.962 45.0871 279.502 48.2051C278.044 51.3199 277 54.8849 277 58.2391L282 58.2398C282 55.8439 282.77 53.017 284.03 50.3251C285.289 47.6365 286.932 45.3074 288.462 43.8678C289.234 43.1421 289.865 42.7481 290.298 42.5838C290.704 42.43 290.705 42.5506 290.561 42.474C290.463 42.4216 290.719 42.4938 291.003 43.351C291.284 44.1986 291.5 45.5587 291.5 47.6044L296.5 47.6036Z" fill="#25262B"/>
<g clip-path="url(#clip1_39086_430524)">
<path d="M241.74 110.913C242.414 110.913 242.788 111.38 243.103 111.773L243.104 111.774L243.239 111.945C243.286 112.001 243.332 112.055 243.379 112.104C243.473 112.204 243.566 112.28 243.65 112.316L243.721 112.341C243.799 112.363 243.897 112.376 244.007 112.385C244.153 112.397 244.318 112.4 244.483 112.403H244.482C245.083 112.409 245.796 112.419 246.157 112.898C246.427 113.257 246.39 113.734 246.287 114.194L246.171 114.644C246.128 114.804 246.083 114.959 246.053 115.102C246.023 115.244 246.009 115.368 246.025 115.466C246.04 115.564 246.089 115.675 246.157 115.791C246.225 115.906 246.31 116.025 246.395 116.142L246.396 116.143L246.616 116.467C246.827 116.808 246.986 117.204 246.847 117.69C246.661 118.337 246.036 118.826 245.509 119.237L245.508 119.238C245.355 119.355 245.198 119.476 245.062 119.594C244.925 119.711 244.813 119.821 244.75 119.913C244.685 120.005 244.628 120.13 244.575 120.274C244.521 120.418 244.472 120.577 244.423 120.737C244.251 121.316 244.043 122.003 243.408 122.482C242.773 122.961 242.054 122.97 241.45 122.976L241.451 122.977C241.283 122.98 241.121 122.979 240.97 122.99C240.819 123 240.683 123.021 240.57 123.063C240.455 123.105 240.318 123.182 240.17 123.28C240.022 123.377 239.866 123.492 239.711 123.606L239.71 123.607C239.169 124 238.527 124.466 237.854 124.466C237.181 124.466 236.806 124 236.491 123.607L236.49 123.606C236.401 123.492 236.309 123.374 236.215 123.275C236.144 123.201 236.075 123.139 236.009 123.098L235.944 123.063C235.858 123.027 235.734 123.006 235.588 122.995C235.441 122.983 235.276 122.98 235.111 122.977L235.111 122.976C234.511 122.97 233.798 122.96 233.438 122.482C233.077 122.003 233.264 121.316 233.423 120.737L233.541 120.278C233.571 120.135 233.585 120.011 233.57 119.914C233.554 119.815 233.505 119.705 233.437 119.589C233.369 119.473 233.284 119.355 233.199 119.238L233.198 119.237C232.907 118.826 232.562 118.337 232.747 117.69C232.933 117.043 233.558 116.554 234.085 116.143L234.087 116.142L234.315 115.964C234.391 115.905 234.464 115.845 234.532 115.786C234.67 115.668 234.781 115.558 234.845 115.467L234.892 115.392C234.937 115.311 234.979 115.214 235.02 115.105C235.073 114.962 235.122 114.803 235.171 114.644L235.312 114.194C235.473 113.734 235.709 113.257 236.186 112.898C236.821 112.419 237.539 112.409 238.143 112.403L238.624 112.39C238.776 112.379 238.911 112.358 239.024 112.316C239.139 112.274 239.276 112.197 239.424 112.1C239.572 112.003 239.729 111.888 239.883 111.774L239.884 111.773L240.307 111.473C240.748 111.175 241.235 110.913 241.74 110.913ZM241.437 111.97C241.33 111.97 241.181 112.035 241.001 112.144C240.823 112.251 240.625 112.395 240.427 112.54C240.083 112.791 239.707 113.063 239.327 113.23L239.164 113.295C238.837 113.41 238.517 113.442 238.191 113.453L237.861 113.46C237.637 113.463 237.414 113.467 237.217 113.492C237.067 113.511 236.939 113.541 236.839 113.589L236.749 113.645C236.642 113.726 236.551 113.873 236.47 114.062C236.431 114.155 236.394 114.254 236.36 114.356L236.265 114.662C236.159 115.012 236.06 115.377 235.845 115.723L235.746 115.871C235.461 116.258 235.058 116.577 234.673 116.876C234.479 117.027 234.287 117.176 234.134 117.318C233.98 117.461 233.876 117.587 233.847 117.69C233.817 117.793 233.849 117.918 233.921 118.062C233.992 118.203 234.099 118.353 234.206 118.504C234.419 118.803 234.65 119.134 234.703 119.51L234.715 119.653C234.727 119.988 234.63 120.346 234.529 120.717L234.446 121.034C234.421 121.137 234.4 121.236 234.387 121.327C234.36 121.512 234.368 121.654 234.429 121.735L234.489 121.789C234.563 121.838 234.677 121.869 234.819 121.888C235.005 121.913 235.226 121.917 235.435 121.92L235.748 121.924C236.063 121.933 236.376 121.961 236.644 122.086L236.772 122.153C237.061 122.326 237.273 122.588 237.474 122.84C237.589 122.984 237.704 123.128 237.82 123.236C237.938 123.345 238.05 123.409 238.157 123.409C238.264 123.409 238.413 123.345 238.594 123.236C238.772 123.128 238.969 122.984 239.167 122.84C239.56 122.553 239.995 122.239 240.43 122.085L240.593 122.034C240.972 121.93 241.345 121.925 241.734 121.92L242.065 121.912C242.173 121.908 242.279 121.9 242.378 121.888C242.577 121.862 242.738 121.816 242.845 121.735L242.923 121.662C242.997 121.578 243.064 121.459 243.124 121.318C243.203 121.132 243.268 120.919 243.329 120.717C243.45 120.318 243.564 119.898 243.849 119.509L243.96 119.367C244.233 119.042 244.584 118.766 244.921 118.504C245.115 118.353 245.307 118.203 245.46 118.062C245.615 117.918 245.718 117.793 245.747 117.69C245.777 117.587 245.746 117.461 245.673 117.318C245.602 117.176 245.495 117.027 245.388 116.876C245.202 116.614 245.001 116.328 244.919 116.009L244.891 115.87C244.852 115.587 244.905 115.289 244.982 114.978L245.066 114.662C245.124 114.448 245.181 114.235 245.207 114.052C245.227 113.914 245.229 113.799 245.202 113.716L245.165 113.645C245.104 113.564 244.964 113.517 244.775 113.492C244.589 113.467 244.369 113.463 244.159 113.46C243.746 113.454 243.307 113.46 242.95 113.294C242.595 113.127 242.349 112.827 242.12 112.54C242.005 112.395 241.891 112.251 241.774 112.144C241.656 112.035 241.544 111.97 241.437 111.97ZM239.26 119.564C239.472 119.564 239.652 119.645 239.76 119.79L239.798 119.846C239.875 119.983 239.89 120.155 239.839 120.333C239.806 120.447 239.748 120.56 239.669 120.662L239.582 120.76C239.489 120.855 239.379 120.934 239.261 120.992L239.141 121.044C239.019 121.087 238.896 121.107 238.78 121.101L238.667 121.087C238.557 121.065 238.461 121.018 238.385 120.951L238.318 120.877C238.257 120.796 238.221 120.699 238.212 120.592L238.212 120.483C238.224 120.334 238.283 120.18 238.384 120.039L238.467 119.938C238.555 119.841 238.661 119.757 238.778 119.694L238.897 119.638C239.017 119.589 239.141 119.564 239.26 119.564ZM240.776 114.277C240.921 114.277 241.045 114.333 241.12 114.432L241.166 114.513C241.201 114.599 241.204 114.701 241.174 114.806L240.209 118.17C240.179 118.275 240.118 118.377 240.033 118.463L239.941 118.544C239.809 118.643 239.654 118.699 239.508 118.699C239.399 118.699 239.302 118.668 239.228 118.611L239.163 118.544C239.089 118.445 239.069 118.311 239.109 118.17L240.074 114.806C240.114 114.666 240.211 114.532 240.342 114.432C240.474 114.333 240.63 114.277 240.776 114.277Z" fill="#DE350B" stroke="#DE350B" stroke-width="0.1"/>
</g>
<g clip-path="url(#clip2_39086_430524)">
<path d="M208.24 110.913C208.914 110.913 209.288 111.38 209.603 111.773L209.604 111.774L209.739 111.945C209.786 112.001 209.832 112.055 209.879 112.104C209.973 112.204 210.066 112.28 210.15 112.316L210.221 112.341C210.299 112.363 210.397 112.376 210.507 112.385C210.653 112.397 210.818 112.4 210.983 112.403H210.982C211.583 112.409 212.296 112.419 212.657 112.898C212.927 113.257 212.89 113.734 212.787 114.194L212.671 114.644C212.628 114.804 212.583 114.959 212.553 115.102C212.523 115.244 212.509 115.368 212.525 115.466C212.54 115.564 212.589 115.675 212.657 115.791C212.725 115.906 212.81 116.025 212.895 116.142L212.896 116.143L213.116 116.467C213.327 116.808 213.486 117.204 213.347 117.69C213.161 118.337 212.536 118.826 212.009 119.237L212.008 119.238C211.855 119.355 211.698 119.476 211.562 119.594C211.425 119.711 211.313 119.821 211.25 119.913C211.185 120.005 211.128 120.13 211.075 120.274C211.021 120.418 210.972 120.577 210.923 120.737C210.751 121.316 210.543 122.003 209.908 122.482C209.273 122.961 208.554 122.97 207.95 122.976L207.951 122.977C207.783 122.98 207.621 122.979 207.47 122.99C207.319 123 207.183 123.021 207.07 123.063C206.955 123.105 206.818 123.182 206.67 123.28C206.522 123.377 206.366 123.492 206.211 123.606L206.21 123.607C205.669 124 205.027 124.466 204.354 124.466C203.681 124.466 203.306 124 202.991 123.607L202.99 123.606C202.901 123.492 202.809 123.374 202.715 123.275C202.644 123.201 202.575 123.139 202.509 123.098L202.444 123.063C202.358 123.027 202.234 123.006 202.088 122.995C201.941 122.983 201.776 122.98 201.611 122.977L201.611 122.976C201.011 122.97 200.298 122.96 199.938 122.482C199.577 122.003 199.764 121.316 199.923 120.737L200.041 120.278C200.071 120.135 200.085 120.011 200.07 119.914C200.054 119.815 200.005 119.705 199.937 119.589C199.869 119.473 199.784 119.355 199.699 119.238L199.698 119.237C199.407 118.826 199.062 118.337 199.247 117.69C199.433 117.043 200.058 116.554 200.585 116.143L200.587 116.142L200.815 115.964C200.891 115.905 200.964 115.845 201.032 115.786C201.17 115.668 201.281 115.558 201.345 115.467L201.392 115.392C201.437 115.311 201.479 115.214 201.52 115.105C201.573 114.962 201.622 114.803 201.671 114.644L201.812 114.194C201.973 113.734 202.209 113.257 202.686 112.898C203.321 112.419 204.039 112.409 204.643 112.403L205.124 112.39C205.276 112.379 205.411 112.358 205.524 112.316C205.639 112.274 205.776 112.197 205.924 112.1C206.072 112.003 206.229 111.888 206.383 111.774L206.384 111.773L206.807 111.473C207.248 111.175 207.735 110.913 208.24 110.913ZM207.937 111.97C207.83 111.97 207.681 112.035 207.501 112.144C207.323 112.251 207.125 112.395 206.927 112.54C206.583 112.791 206.207 113.063 205.827 113.23L205.664 113.295C205.337 113.41 205.017 113.442 204.691 113.453L204.361 113.46C204.137 113.463 203.914 113.467 203.717 113.492C203.567 113.511 203.439 113.541 203.339 113.589L203.249 113.645C203.142 113.726 203.051 113.873 202.97 114.062C202.931 114.155 202.894 114.254 202.86 114.356L202.765 114.662C202.659 115.012 202.56 115.377 202.345 115.723L202.246 115.871C201.961 116.258 201.558 116.577 201.173 116.876C200.979 117.027 200.787 117.176 200.634 117.318C200.48 117.461 200.376 117.587 200.347 117.69C200.317 117.793 200.349 117.918 200.421 118.062C200.492 118.203 200.599 118.353 200.706 118.504C200.919 118.803 201.15 119.134 201.203 119.51L201.215 119.653C201.227 119.988 201.13 120.346 201.029 120.717L200.946 121.034C200.921 121.137 200.9 121.236 200.887 121.327C200.86 121.512 200.868 121.654 200.929 121.735L200.989 121.789C201.063 121.838 201.177 121.869 201.319 121.888C201.505 121.913 201.726 121.917 201.935 121.92L202.248 121.924C202.563 121.933 202.876 121.961 203.144 122.086L203.272 122.153C203.561 122.326 203.773 122.588 203.974 122.84C204.089 122.984 204.204 123.128 204.32 123.236C204.438 123.345 204.55 123.409 204.657 123.409C204.764 123.409 204.913 123.345 205.094 123.236C205.272 123.128 205.469 122.984 205.667 122.84C206.06 122.553 206.495 122.239 206.93 122.085L207.093 122.034C207.472 121.93 207.845 121.925 208.234 121.92L208.565 121.912C208.673 121.908 208.779 121.9 208.878 121.888C209.077 121.862 209.238 121.816 209.345 121.735L209.423 121.662C209.497 121.578 209.564 121.459 209.624 121.318C209.703 121.132 209.768 120.919 209.829 120.717C209.95 120.318 210.064 119.898 210.349 119.509L210.46 119.367C210.733 119.042 211.084 118.766 211.421 118.504C211.615 118.353 211.807 118.203 211.96 118.062C212.115 117.918 212.218 117.793 212.247 117.69C212.277 117.587 212.246 117.461 212.173 117.318C212.102 117.176 211.995 117.027 211.888 116.876C211.702 116.614 211.501 116.328 211.419 116.009L211.391 115.87C211.352 115.587 211.405 115.289 211.482 114.978L211.566 114.662C211.624 114.448 211.681 114.235 211.707 114.052C211.727 113.914 211.729 113.799 211.702 113.716L211.665 113.645C211.604 113.564 211.464 113.517 211.275 113.492C211.089 113.467 210.869 113.463 210.659 113.46C210.246 113.454 209.807 113.46 209.45 113.294C209.095 113.127 208.849 112.827 208.62 112.54C208.505 112.395 208.391 112.251 208.274 112.144C208.156 112.035 208.044 111.97 207.937 111.97ZM205.76 119.564C205.972 119.564 206.152 119.645 206.26 119.79L206.298 119.846C206.375 119.983 206.39 120.155 206.339 120.333C206.306 120.447 206.248 120.56 206.169 120.662L206.082 120.76C205.989 120.855 205.879 120.934 205.761 120.992L205.641 121.044C205.519 121.087 205.396 121.107 205.28 121.101L205.167 121.087C205.057 121.065 204.961 121.018 204.885 120.951L204.818 120.877C204.757 120.796 204.721 120.699 204.712 120.592L204.712 120.483C204.724 120.334 204.783 120.18 204.884 120.039L204.967 119.938C205.055 119.841 205.161 119.757 205.278 119.694L205.397 119.638C205.517 119.589 205.641 119.564 205.76 119.564ZM207.276 114.277C207.421 114.277 207.545 114.333 207.62 114.432L207.666 114.513C207.701 114.599 207.704 114.701 207.674 114.806L206.709 118.17C206.679 118.275 206.618 118.377 206.533 118.463L206.441 118.544C206.309 118.643 206.154 118.699 206.008 118.699C205.899 118.699 205.802 118.668 205.728 118.611L205.663 118.544C205.589 118.445 205.569 118.311 205.609 118.17L206.574 114.806C206.614 114.666 206.711 114.532 206.842 114.432C206.974 114.333 207.13 114.277 207.276 114.277Z" fill="#DE350B" stroke="#DE350B" stroke-width="0.1"/>
</g>
<g clip-path="url(#clip3_39086_430524)">
<path d="M274.74 110.913C275.414 110.913 275.788 111.38 276.103 111.773L276.104 111.774L276.239 111.945C276.286 112.001 276.332 112.055 276.379 112.104C276.473 112.204 276.566 112.28 276.65 112.316L276.721 112.341C276.799 112.363 276.897 112.376 277.007 112.385C277.153 112.397 277.318 112.4 277.483 112.403H277.482C278.083 112.409 278.796 112.419 279.157 112.898C279.427 113.257 279.39 113.734 279.287 114.194L279.171 114.644C279.128 114.804 279.083 114.959 279.053 115.102C279.023 115.244 279.009 115.368 279.025 115.466C279.04 115.564 279.089 115.675 279.157 115.791C279.225 115.906 279.31 116.025 279.395 116.142L279.396 116.143L279.616 116.467C279.827 116.808 279.986 117.204 279.847 117.69C279.661 118.337 279.036 118.826 278.509 119.237L278.508 119.238C278.355 119.355 278.198 119.476 278.062 119.594C277.925 119.711 277.813 119.821 277.75 119.913C277.685 120.005 277.628 120.13 277.575 120.274C277.521 120.418 277.472 120.577 277.423 120.737C277.251 121.316 277.043 122.003 276.408 122.482C275.773 122.961 275.054 122.97 274.45 122.976L274.451 122.977C274.283 122.98 274.121 122.979 273.97 122.99C273.819 123 273.683 123.021 273.57 123.063C273.455 123.105 273.318 123.182 273.17 123.28C273.022 123.377 272.866 123.492 272.711 123.606L272.71 123.607C272.169 124 271.527 124.466 270.854 124.466C270.181 124.466 269.806 124 269.491 123.607L269.49 123.606C269.401 123.492 269.309 123.374 269.215 123.275C269.144 123.201 269.075 123.139 269.009 123.098L268.944 123.063C268.858 123.027 268.734 123.006 268.588 122.995C268.441 122.983 268.276 122.98 268.111 122.977L268.111 122.976C267.511 122.97 266.798 122.96 266.438 122.482C266.077 122.003 266.264 121.316 266.423 120.737L266.541 120.278C266.571 120.135 266.585 120.011 266.57 119.914C266.554 119.815 266.505 119.705 266.437 119.589C266.369 119.473 266.284 119.355 266.199 119.238L266.198 119.237C265.907 118.826 265.562 118.337 265.747 117.69C265.933 117.043 266.558 116.554 267.085 116.143L267.087 116.142L267.315 115.964C267.391 115.905 267.464 115.845 267.532 115.786C267.67 115.668 267.781 115.558 267.845 115.467L267.892 115.392C267.937 115.311 267.979 115.214 268.02 115.105C268.073 114.962 268.122 114.803 268.171 114.644L268.312 114.194C268.473 113.734 268.709 113.257 269.186 112.898C269.821 112.419 270.539 112.409 271.143 112.403L271.624 112.39C271.776 112.379 271.911 112.358 272.024 112.316C272.139 112.274 272.276 112.197 272.424 112.1C272.572 112.003 272.729 111.888 272.883 111.774L272.884 111.773L273.307 111.473C273.748 111.175 274.235 110.913 274.74 110.913ZM274.437 111.97C274.33 111.97 274.181 112.035 274.001 112.144C273.823 112.251 273.625 112.395 273.427 112.54C273.083 112.791 272.707 113.063 272.327 113.23L272.164 113.295C271.837 113.41 271.517 113.442 271.191 113.453L270.861 113.46C270.637 113.463 270.414 113.467 270.217 113.492C270.067 113.511 269.939 113.541 269.839 113.589L269.749 113.645C269.642 113.726 269.551 113.873 269.47 114.062C269.431 114.155 269.394 114.254 269.36 114.356L269.265 114.662C269.159 115.012 269.06 115.377 268.845 115.723L268.746 115.871C268.461 116.258 268.058 116.577 267.673 116.876C267.479 117.027 267.287 117.176 267.134 117.318C266.98 117.461 266.876 117.587 266.847 117.69C266.817 117.793 266.849 117.918 266.921 118.062C266.992 118.203 267.099 118.353 267.206 118.504C267.419 118.803 267.65 119.134 267.703 119.51L267.715 119.653C267.727 119.988 267.63 120.346 267.529 120.717L267.446 121.034C267.421 121.137 267.4 121.236 267.387 121.327C267.36 121.512 267.368 121.654 267.429 121.735L267.489 121.789C267.563 121.838 267.677 121.869 267.819 121.888C268.005 121.913 268.226 121.917 268.435 121.92L268.748 121.924C269.063 121.933 269.376 121.961 269.644 122.086L269.772 122.153C270.061 122.326 270.273 122.588 270.474 122.84C270.589 122.984 270.704 123.128 270.82 123.236C270.938 123.345 271.05 123.409 271.157 123.409C271.264 123.409 271.413 123.345 271.594 123.236C271.772 123.128 271.969 122.984 272.167 122.84C272.56 122.553 272.995 122.239 273.43 122.085L273.593 122.034C273.972 121.93 274.345 121.925 274.734 121.92L275.065 121.912C275.173 121.908 275.279 121.9 275.378 121.888C275.577 121.862 275.738 121.816 275.845 121.735L275.923 121.662C275.997 121.578 276.064 121.459 276.124 121.318C276.203 121.132 276.268 120.919 276.329 120.717C276.45 120.318 276.564 119.898 276.849 119.509L276.96 119.367C277.233 119.042 277.584 118.766 277.921 118.504C278.115 118.353 278.307 118.203 278.46 118.062C278.615 117.918 278.718 117.793 278.747 117.69C278.777 117.587 278.746 117.461 278.673 117.318C278.602 117.176 278.495 117.027 278.388 116.876C278.202 116.614 278.001 116.328 277.919 116.009L277.891 115.87C277.852 115.587 277.905 115.289 277.982 114.978L278.066 114.662C278.124 114.448 278.181 114.235 278.207 114.052C278.227 113.914 278.229 113.799 278.202 113.716L278.165 113.645C278.104 113.564 277.964 113.517 277.775 113.492C277.589 113.467 277.369 113.463 277.159 113.46C276.746 113.454 276.307 113.46 275.95 113.294C275.595 113.127 275.349 112.827 275.12 112.54C275.005 112.395 274.891 112.251 274.774 112.144C274.656 112.035 274.544 111.97 274.437 111.97ZM272.26 119.564C272.472 119.564 272.652 119.645 272.76 119.79L272.798 119.846C272.875 119.983 272.89 120.155 272.839 120.333C272.806 120.447 272.748 120.56 272.669 120.662L272.582 120.76C272.489 120.855 272.379 120.934 272.261 120.992L272.141 121.044C272.019 121.087 271.896 121.107 271.78 121.101L271.667 121.087C271.557 121.065 271.461 121.018 271.385 120.951L271.318 120.877C271.257 120.796 271.221 120.699 271.212 120.592L271.212 120.483C271.224 120.334 271.283 120.18 271.384 120.039L271.467 119.938C271.555 119.841 271.661 119.757 271.778 119.694L271.897 119.638C272.017 119.589 272.141 119.564 272.26 119.564ZM273.776 114.277C273.921 114.277 274.045 114.333 274.12 114.432L274.166 114.513C274.201 114.599 274.204 114.701 274.174 114.806L273.209 118.17C273.179 118.275 273.118 118.377 273.033 118.463L272.941 118.544C272.809 118.643 272.654 118.699 272.508 118.699C272.399 118.699 272.302 118.668 272.228 118.611L272.163 118.544C272.089 118.445 272.069 118.311 272.109 118.17L273.074 114.806C273.114 114.666 273.211 114.532 273.342 114.432C273.474 114.333 273.63 114.277 273.776 114.277Z" fill="#DE350B" stroke="#DE350B" stroke-width="0.1"/>
</g>
<g opacity="0.3" clip-path="url(#clip4_39086_430524)">
<path d="M178.357 117.163L178.205 117.694C177.847 118.937 177.081 120.148 176.021 121.144C174.961 122.14 173.663 122.869 172.321 123.221C170.979 123.574 169.665 123.532 168.575 123.101C167.485 122.67 166.677 121.873 166.272 120.83C165.867 119.786 165.886 118.552 166.327 117.311C166.768 116.07 167.607 114.889 168.719 113.943C169.831 112.998 171.156 112.339 172.496 112.065C173.837 111.791 175.122 111.916 176.158 112.422" stroke="#00A92F" stroke-width="1.5" stroke-linecap="round" stroke-linejoin="round"/>
<path d="M179.527 113.08L171.871 118.853L170.567 117.123" stroke="#00A92F" stroke-width="1.5" stroke-linecap="round" stroke-linejoin="round"/>
</g>
<g opacity="0.3" clip-path="url(#clip5_39086_430524)">
<path d="M203.943 144.163L203.791 144.694C203.433 145.937 202.667 147.148 201.607 148.144C200.547 149.14 199.249 149.869 197.907 150.221C196.565 150.574 195.251 150.532 194.161 150.101C193.071 149.67 192.263 148.873 191.858 147.83C191.453 146.786 191.472 145.552 191.913 144.311C192.354 143.07 193.193 141.889 194.305 140.943C195.417 139.998 196.742 139.339 198.082 139.065C199.423 138.791 200.707 138.916 201.744 139.422" stroke="#00A92F" stroke-width="1.5" stroke-linecap="round" stroke-linejoin="round"/>
<path d="M205.112 140.08L197.457 145.853L196.153 144.123" stroke="#00A92F" stroke-width="1.5" stroke-linecap="round" stroke-linejoin="round"/>
</g>
<g opacity="0.3" clip-path="url(#clip6_39086_430524)">
<path d="M237.943 144.163L237.791 144.694C237.433 145.937 236.667 147.148 235.607 148.144C234.547 149.14 233.249 149.869 231.907 150.221C230.565 150.574 229.251 150.532 228.161 150.101C227.071 149.67 226.263 148.873 225.858 147.83C225.453 146.786 225.472 145.552 225.913 144.311C226.354 143.07 227.193 141.889 228.305 140.943C229.417 139.998 230.742 139.339 232.082 139.065C233.423 138.791 234.707 138.916 235.744 139.422" stroke="#00A92F" stroke-width="1.5" stroke-linecap="round" stroke-linejoin="round"/>
<path d="M239.112 140.08L231.457 145.853L230.153 144.123" stroke="#00A92F" stroke-width="1.5" stroke-linecap="round" stroke-linejoin="round"/>
</g>
<g opacity="0.3" clip-path="url(#clip7_39086_430524)">
<path d="M270.943 144.163L270.791 144.694C270.433 145.937 269.667 147.148 268.607 148.144C267.547 149.14 266.249 149.869 264.907 150.221C263.565 150.574 262.251 150.532 261.161 150.101C260.071 149.67 259.263 148.873 258.858 147.83C258.453 146.786 258.472 145.552 258.913 144.311C259.354 143.07 260.193 141.889 261.305 140.943C262.417 139.998 263.742 139.339 265.082 139.065C266.423 138.791 267.707 138.916 268.744 139.422" stroke="#00A92F" stroke-width="1.5" stroke-linecap="round" stroke-linejoin="round"/>
<path d="M272.112 140.08L264.457 145.853L263.153 144.123" stroke="#00A92F" stroke-width="1.5" stroke-linecap="round" stroke-linejoin="round"/>
</g>
<g opacity="0.3" clip-path="url(#clip8_39086_430524)">
<path d="M170.357 144.163L170.205 144.694C169.847 145.937 169.081 147.148 168.021 148.144C166.961 149.14 165.663 149.869 164.321 150.221C162.979 150.574 161.665 150.532 160.575 150.101C159.485 149.67 158.677 148.873 158.272 147.83C157.867 146.786 157.886 145.552 158.327 144.311C158.768 143.07 159.607 141.889 160.719 140.943C161.831 139.998 163.156 139.339 164.496 139.065C165.837 138.791 167.122 138.916 168.158 139.422" stroke="#00A92F" stroke-width="1.5" stroke-linecap="round" stroke-linejoin="round"/>
<path d="M171.527 140.08L163.871 145.853L162.567 144.123" stroke="#00A92F" stroke-width="1.5" stroke-linecap="round" stroke-linejoin="round"/>
</g>
<g opacity="0.3" clip-path="url(#clip9_39086_430524)">
<path d="M186.357 90.1631L186.205 90.6937C185.847 91.9375 185.081 93.1476 184.021 94.1438C182.961 95.1399 181.663 95.8687 180.321 96.2213C178.979 96.5739 177.665 96.5316 176.575 96.1006C175.485 95.6696 174.677 94.873 174.272 93.8296C173.867 92.7862 173.886 91.552 174.327 90.3109C174.768 89.0699 175.607 87.8886 176.719 86.9431C177.831 85.9977 179.156 85.3388 180.496 85.0647C181.837 84.7906 183.122 84.916 184.158 85.4222" stroke="#00A92F" stroke-width="1.5" stroke-linecap="round" stroke-linejoin="round"/>
<path d="M187.527 86.0801L179.871 91.8534L178.567 90.1231" stroke="#00A92F" stroke-width="1.5" stroke-linecap="round" stroke-linejoin="round"/>
</g>
<g opacity="0.3" clip-path="url(#clip10_39086_430524)">
<path d="M220.372 90.1631L220.22 90.6937C219.863 91.9375 219.097 93.1476 218.037 94.1438C216.976 95.1399 215.678 95.8687 214.336 96.2213C212.995 96.5739 211.681 96.5316 210.591 96.1006C209.5 95.6696 208.693 94.873 208.288 93.8296C207.883 92.7862 207.902 91.552 208.343 90.3109C208.784 89.0699 209.623 87.8886 210.735 86.9431C211.846 85.9977 213.171 85.3388 214.512 85.0647C215.853 84.7906 217.137 84.916 218.174 85.4222" stroke="#00A92F" stroke-width="1.5" stroke-linecap="round" stroke-linejoin="round"/>
<path d="M221.542 86.0801L213.887 91.8534L212.583 90.1231" stroke="#00A92F" stroke-width="1.5" stroke-linecap="round" stroke-linejoin="round"/>
</g>
<g opacity="0.3" clip-path="url(#clip11_39086_430524)">
<path d="M253.388 90.1631L253.236 90.6937C252.878 91.9375 252.113 93.1476 251.052 94.1438C249.992 95.1399 248.694 95.8687 247.352 96.2213C246.01 96.5739 244.696 96.5316 243.606 96.1006C242.516 95.6696 241.708 94.873 241.303 93.8296C240.898 92.7862 240.918 91.552 241.359 90.3109C241.8 89.0699 242.639 87.8886 243.75 86.9431C244.862 85.9977 246.187 85.3388 247.528 85.0647C248.868 84.7906 250.153 84.916 251.189 85.4222" stroke="#00A92F" stroke-width="1.5" stroke-linecap="round" stroke-linejoin="round"/>
<path d="M254.558 86.0801L246.902 91.8534L245.598 90.1231" stroke="#00A92F" stroke-width="1.5" stroke-linecap="round" stroke-linejoin="round"/>
</g>
<g opacity="0.3" clip-path="url(#clip12_39086_430524)">
<path d="M286.404 90.1631L286.251 90.6937C285.894 91.9375 285.128 93.1476 284.068 94.1438C283.007 95.1399 281.71 95.8687 280.368 96.2213C279.026 96.5739 277.712 96.5316 276.622 96.1006C275.532 95.6696 274.724 94.873 274.319 93.8296C273.914 92.7862 273.933 91.552 274.374 90.3109C274.815 89.0699 275.654 87.8886 276.766 86.9431C277.878 85.9977 279.203 85.3388 280.543 85.0647C281.884 84.7906 283.168 84.916 284.205 85.4222" stroke="#00A92F" stroke-width="1.5" stroke-linecap="round" stroke-linejoin="round"/>
<path d="M287.573 86.0801L279.918 91.8534L278.614 90.1231" stroke="#00A92F" stroke-width="1.5" stroke-linecap="round" stroke-linejoin="round"/>
</g>
<path d="M92.4883 124.497C103.139 121.097 111.485 118.497 111.485 118.497L126.763 122.439C151.346 128.782 166.037 153.957 159.466 178.481L156.194 190.692L78.2282 169.801L55.9852 160.497C55.9852 160.497 68.9913 131.997 92.4883 124.497Z" fill="#1A4E66"/>
<path d="M92.9922 153.997C94.4922 149.497 97.4685 143.56 101.53 140.466" stroke="#133B4E" stroke-width="2.28349" stroke-linecap="round"/>
<path d="M146.523 164.679C146.523 160.679 146.523 158.679 143.023 155.179" stroke="#133B4E" stroke-width="2.28349" stroke-linecap="round"/>
<path fill-rule="evenodd" clip-rule="evenodd" d="M129.345 78.4374C131.982 68.5936 142.1 62.7519 151.944 65.3895C161.993 68.0822 167.831 78.5456 164.844 88.5113L159.245 107.19C156.768 115.456 148.845 120.86 140.245 120.151L140.084 120.138L139.256 126.653C138.401 133.378 131.903 137.877 125.307 136.309C116.237 134.153 110.251 125.506 111.427 116.258L111.708 114.045L114.138 94.9267C112.795 93.8355 111.771 92.3258 111.289 90.5262C110.072 85.985 112.767 81.3172 117.308 80.1003C121.588 78.9534 125.981 81.2819 127.491 85.3561L129.345 78.4374Z" fill="#FF9BA5"/>
<path d="M116.338 83.7571C118.258 82.5747 122.01 81.8196 123.895 87.0309" stroke="#D4737C" stroke-width="1.71262" stroke-linecap="round"/>
<ellipse cx="155.7" cy="92.1268" rx="2.39769" ry="3.67646" transform="rotate(9.7725 155.7 92.1268)" fill="white"/>
<ellipse cx="140.809" cy="90.4119" rx="2.39769" ry="3.67646" transform="rotate(9.7725 140.809 90.4119)" fill="white"/>
<ellipse cx="1.8" cy="2.40055" rx="1.8" ry="2.40055" transform="matrix(0.987497 0.157637 -0.182706 0.983168 156.203 90.5469)" fill="#25262B"/>
<ellipse cx="1.8" cy="2.40055" rx="1.8" ry="2.40055" transform="matrix(0.987497 0.157637 -0.182706 0.983168 141.297 89)" fill="#25262B"/>
<path d="M146.945 95.8848C150.341 96.6876 155.569 98.9182 149.309 101.418" stroke="#D4737C" stroke-width="1.71262" stroke-linecap="round"/>
<path d="M113.461 100.583L114.157 94.9168C115.831 95.6917 117.698 95.9507 119.52 95.6607L119.823 95.6125L113.461 100.583Z" fill="#D5737C"/>
<path fill-rule="evenodd" clip-rule="evenodd" d="M139.083 127.641C138.823 128.846 138.378 129.967 137.784 130.981L124.625 115.391L130.777 118.281C132.904 119.281 135.203 119.86 137.549 119.988L140.085 120.127L140.083 120.139L140.081 120.138L140.023 120.595L139.083 127.641Z" fill="#D5737C"/>
<path d="M121.536 61.3432C123.412 54.0243 130.903 49.6453 138.201 51.6008L158.461 57.0294C166.64 59.2211 172.036 67.0054 171.218 75.4338C171.049 77.1714 170.553 78.8615 169.757 80.4152L166.804 86.178C166.034 87.679 164.282 88.3902 162.684 87.8497C161.687 87.5125 160.902 86.733 160.558 85.7385L158.871 80.8636C157.778 77.7039 155.798 74.9259 153.168 72.8615L150.501 70.7676C149.428 76.6574 145.221 81.489 139.534 83.36L133.711 85.2756C132.382 85.7131 131.245 86.5971 130.493 87.7777L129.406 89.4843C128.949 90.2014 127.841 89.9077 127.8 89.0586L127.744 87.9228C127.346 79.7834 116.724 76.9683 112.347 83.8423L110.07 75.015C108.19 67.731 114.036 60.7608 121.536 61.3432Z" fill="#25262B"/>
<ellipse cx="140.862" cy="107.813" rx="1.71262" ry="2.85437" transform="rotate(12.8767 140.862 107.813)" fill="#D4737C"/>
<path d="M153.883 82.5537C158.056 84.9631 161.285 84.85 162.378 84.4923" stroke="#25262B" stroke-width="3.42524" stroke-linecap="round"/>
<path d="M137.797 81.1982C142.451 82.4454 145.541 81.5004 146.505 80.872" stroke="#25262B" stroke-width="3.42524" stroke-linecap="round"/>
</g>
<defs>
<clipPath id="clip0_39086_430524">
<rect width="388" height="160" rx="16" fill="white"/>
</clipPath>
<clipPath id="clip1_39086_430524">
<rect width="16" height="16" fill="white" transform="matrix(1 0 -0.275637 0.961262 234 110)"/>
</clipPath>
<clipPath id="clip2_39086_430524">
<rect width="16" height="16" fill="white" transform="matrix(1 0 -0.275637 0.961262 200.5 110)"/>
</clipPath>
<clipPath id="clip3_39086_430524">
<rect width="16" height="16" fill="white" transform="matrix(1 0 -0.275637 0.961262 267 110)"/>
</clipPath>
<clipPath id="clip4_39086_430524">
<rect width="16" height="16" fill="white" transform="matrix(1 0 -0.275637 0.961262 166.414 110)"/>
</clipPath>
<clipPath id="clip5_39086_430524">
<rect width="16" height="16" fill="white" transform="matrix(1 0 -0.275637 0.961262 192 137)"/>
</clipPath>
<clipPath id="clip6_39086_430524">
<rect width="16" height="16" fill="white" transform="matrix(1 0 -0.275637 0.961262 226 137)"/>
</clipPath>
<clipPath id="clip7_39086_430524">
<rect width="16" height="16" fill="white" transform="matrix(1 0 -0.275637 0.961262 259 137)"/>
</clipPath>
<clipPath id="clip8_39086_430524">
<rect width="16" height="16" fill="white" transform="matrix(1 0 -0.275637 0.961262 158.414 137)"/>
</clipPath>
<clipPath id="clip9_39086_430524">
<rect width="16" height="16" fill="white" transform="matrix(1 0 -0.275637 0.961262 174.414 83)"/>
</clipPath>
<clipPath id="clip10_39086_430524">
<rect width="16" height="16" fill="white" transform="matrix(1 0 -0.275637 0.961262 208.43 83)"/>
</clipPath>
<clipPath id="clip11_39086_430524">
<rect width="16" height="16" fill="white" transform="matrix(1 0 -0.275637 0.961262 241.445 83)"/>
</clipPath>
<clipPath id="clip12_39086_430524">
<rect width="16" height="16" fill="white" transform="matrix(1 0 -0.275637 0.961262 274.461 83)"/>
</clipPath>
</defs>
</svg>
