<svg width="388" height="160" viewBox="0 0 388 160" fill="none" xmlns="http://www.w3.org/2000/svg">
<g clip-path="url(#clip0_8968_2587)">
<rect width="388" height="160" rx="16" fill="#F8F8F8"/>
<g opacity="0.5" clip-path="url(#clip1_8968_2587)">
<path d="M342.936 109.447C341.285 109.665 339.594 110.641 336.212 112.594C332.83 114.546 331.139 115.523 330.125 116.843C329.455 117.717 328.963 118.714 328.678 119.777C328.393 120.841 328.32 121.951 328.464 123.042C328.598 124.044 329.01 125.069 329.754 126.474C330.304 127.481 330.59 128.612 330.584 129.76C330.578 130.909 330.282 132.037 329.721 133.039C329.134 134.025 328.305 134.847 327.314 135.426C326.322 136.005 325.2 136.324 324.052 136.351C322.459 136.409 321.372 136.562 320.431 136.951C318.378 137.802 316.747 139.433 315.897 141.485C315.266 143.025 315.262 144.977 315.261 148.882C315.261 152.787 315.256 154.74 315.899 156.28C316.32 157.297 316.937 158.222 317.715 159C318.494 159.779 319.418 160.396 320.435 160.818C321.374 161.204 322.462 161.355 324.051 161.415C326.389 161.502 328.553 162.702 329.722 164.727C330.891 166.751 330.848 169.225 329.751 171.29C329.012 172.699 328.594 173.719 328.463 174.724C328.32 175.815 328.392 176.924 328.678 177.988C328.963 179.051 329.455 180.048 330.125 180.921C331.139 182.242 332.831 183.219 336.209 185.174C339.595 187.124 341.285 188.098 342.937 188.32C344.028 188.464 345.137 188.391 346.201 188.106C347.264 187.821 348.261 187.329 349.134 186.658C349.938 186.039 350.614 185.175 351.461 183.825C352.058 182.844 352.895 182.031 353.893 181.462C354.89 180.893 356.016 180.586 357.164 180.571C359.503 180.575 361.624 181.842 362.866 183.825C363.713 185.175 364.388 186.043 365.193 186.657C366.066 187.328 367.063 187.82 368.127 188.105C369.191 188.39 370.3 188.463 371.392 188.319C373.042 188.101 374.733 187.125 378.115 185.172C381.498 183.22 383.189 182.243 384.202 180.923C384.873 180.049 385.364 179.052 385.649 177.988C385.934 176.925 386.007 175.815 385.863 174.723C385.73 173.721 385.319 172.7 384.574 171.292C383.477 169.225 383.438 166.751 384.606 164.727C385.194 163.74 386.022 162.919 387.014 162.34C388.005 161.76 389.128 161.442 390.276 161.415C391.868 161.357 392.955 161.203 393.893 160.817C394.91 160.396 395.835 159.778 396.613 159C397.392 158.222 398.009 157.298 398.431 156.281C399.067 154.743 399.066 152.788 399.066 148.883C399.066 144.979 399.071 143.026 398.429 141.486C398.008 140.468 397.39 139.544 396.612 138.766C395.834 137.987 394.91 137.369 393.893 136.948C392.954 136.561 391.865 136.411 390.277 136.35C389.129 136.323 388.006 136.005 387.014 135.426C386.022 134.847 385.194 134.026 384.606 133.039C383.437 131.014 383.48 128.541 384.576 126.476C385.316 125.067 385.733 124.047 385.864 123.042C386.008 121.951 385.935 120.841 385.65 119.778C385.365 118.715 384.873 117.718 384.203 116.845C383.188 115.524 381.496 114.546 378.118 112.592C374.733 110.642 373.043 109.668 371.39 109.446C370.299 109.302 369.19 109.375 368.127 109.66C367.063 109.945 366.067 110.437 365.194 111.107C364.39 111.726 363.713 112.591 362.863 113.943C362.265 114.923 361.429 115.735 360.432 116.304C359.436 116.872 358.311 117.179 357.163 117.195C356.015 117.179 354.89 116.872 353.893 116.303C352.896 115.734 352.059 114.921 351.462 113.94C350.615 112.591 349.94 111.723 349.135 111.108C348.261 110.438 347.264 109.946 346.2 109.661C345.137 109.376 344.027 109.303 342.936 109.447Z" fill="#BDBDBD" stroke="#F8F8F8" stroke-width="10.9996"/>
<path d="M363.449 159.769C369.462 156.297 371.522 148.609 368.051 142.597C364.579 136.584 356.891 134.524 350.878 137.995C344.866 141.467 342.806 149.155 346.277 155.168C349.748 161.18 357.437 163.24 363.449 159.769Z" fill="#F8F8F8"/>
</g>
<g opacity="0.5" clip-path="url(#clip2_8968_2587)">
<path d="M353.713 60.4909C352.67 60.6282 351.601 61.2454 349.463 62.4796C347.325 63.7139 346.256 64.331 345.616 65.1656C345.192 65.7178 344.881 66.348 344.701 67.0203C344.521 67.6927 344.475 68.3939 344.566 69.084C344.65 69.7173 344.911 70.365 345.381 71.2529C345.729 71.8898 345.909 72.6046 345.906 73.3303C345.902 74.056 345.715 74.769 345.361 75.4025C344.989 76.0261 344.465 76.5453 343.839 76.9114C343.212 77.2776 342.503 77.4787 341.777 77.496C340.77 77.5327 340.083 77.6297 339.488 77.8755C338.191 78.4131 337.16 79.4438 336.622 80.7411C336.224 81.7143 336.221 82.9486 336.221 85.4168C336.221 87.885 336.217 89.1192 336.624 90.0928C336.89 90.7357 337.28 91.3199 337.772 91.812C338.264 92.3041 338.848 92.6945 339.491 92.9608C340.084 93.2052 340.772 93.3004 341.776 93.3386C343.254 93.3935 344.622 94.1515 345.361 95.4315C346.1 96.7114 346.072 98.2746 345.38 99.5799C344.912 100.471 344.648 101.115 344.565 101.75C344.475 102.44 344.521 103.141 344.701 103.813C344.881 104.485 345.192 105.115 345.616 105.667C346.257 106.502 347.326 107.12 349.461 108.356C351.601 109.588 352.669 110.204 353.714 110.344C354.404 110.435 355.105 110.389 355.777 110.209C356.449 110.029 357.079 109.718 357.631 109.294C358.139 108.903 358.566 108.356 359.101 107.503C359.479 106.883 360.008 106.369 360.639 106.01C361.269 105.65 361.98 105.456 362.706 105.446C364.185 105.449 365.525 106.25 366.31 107.503C366.845 108.356 367.272 108.905 367.781 109.293C368.333 109.717 368.963 110.028 369.636 110.208C370.308 110.388 371.009 110.434 371.699 110.343C372.742 110.206 373.811 109.589 375.949 108.355C378.087 107.12 379.156 106.503 379.796 105.669C380.22 105.116 380.531 104.486 380.711 103.814C380.891 103.142 380.937 102.44 380.846 101.75C380.762 101.117 380.502 100.472 380.031 99.5814C379.338 98.275 379.313 96.7113 380.052 95.4317C380.423 94.8081 380.947 94.289 381.573 93.9228C382.2 93.5567 382.91 93.3555 383.635 93.3382C384.642 93.3015 385.329 93.2045 385.922 92.9601C386.565 92.694 387.149 92.3038 387.641 91.8119C388.133 91.32 388.523 90.7359 388.79 90.0931C389.192 89.1209 389.191 87.8856 389.191 85.4175C389.192 82.9493 389.195 81.715 388.789 80.7414C388.522 80.0985 388.132 79.5143 387.64 79.0222C387.148 78.5301 386.564 78.1397 385.922 77.8734C385.328 77.629 384.64 77.5338 383.636 77.4956C382.91 77.4785 382.201 77.2775 381.574 76.9115C380.947 76.5455 380.423 76.0264 380.051 75.4028C379.312 74.1229 379.34 72.5596 380.033 71.2543C380.5 70.3636 380.764 69.7188 380.847 69.0838C380.938 68.3939 380.892 67.6929 380.711 67.0208C380.531 66.3488 380.22 65.7188 379.797 65.1669C379.156 64.332 378.086 63.7139 375.951 62.4786C373.811 61.246 372.743 60.6302 371.698 60.49C371.009 60.3992 370.308 60.4453 369.635 60.6255C368.963 60.8057 368.333 61.1165 367.782 61.5403C367.273 61.9315 366.846 62.4781 366.309 63.3327C365.931 63.9519 365.402 64.4652 364.772 64.8247C364.142 65.1841 363.431 65.378 362.706 65.3882C361.98 65.378 361.269 65.184 360.639 64.8242C360.008 64.4644 359.48 63.9506 359.102 63.3309C358.567 62.4778 358.14 61.9291 357.631 61.5408C357.079 61.1169 356.449 60.806 355.777 60.6259C355.104 60.4457 354.403 60.3999 353.713 60.4909Z" fill="#BDBDBD" stroke="#F8F8F8" stroke-width="6.95256"/>
<path d="M366.679 92.2974C370.479 90.1033 371.782 85.2437 369.587 81.4433C367.393 77.6429 362.534 76.3408 358.733 78.5349C354.933 80.7291 353.631 85.5887 355.825 89.3891C358.019 93.1895 362.879 94.4916 366.679 92.2974Z" fill="#F8F8F8"/>
</g>
<g opacity="0.5" clip-path="url(#clip3_8968_2587)">
<path d="M309.454 90.6191C308.713 90.7167 307.954 91.1551 306.435 92.0319C304.917 92.9087 304.157 93.3471 303.702 93.9401C303.401 94.3323 303.18 94.78 303.052 95.2577C302.924 95.7353 302.892 96.2335 302.956 96.7237C303.016 97.1736 303.202 97.6337 303.535 98.2645C303.782 98.717 303.911 99.2248 303.908 99.7403C303.906 100.256 303.772 100.762 303.521 101.212C303.257 101.655 302.885 102.024 302.44 102.284C301.995 102.544 301.491 102.687 300.975 102.7C300.26 102.726 299.772 102.795 299.349 102.969C298.427 103.351 297.695 104.083 297.313 105.005C297.03 105.696 297.028 106.573 297.028 108.327C297.028 110.08 297.026 110.957 297.314 111.649C297.503 112.105 297.78 112.52 298.13 112.87C298.479 113.219 298.894 113.497 299.351 113.686C299.773 113.86 300.261 113.927 300.975 113.954C302.025 113.993 302.996 114.532 303.521 115.441C304.046 116.35 304.027 117.461 303.534 118.388C303.202 119.021 303.015 119.479 302.956 119.93C302.891 120.42 302.924 120.918 303.052 121.396C303.18 121.873 303.401 122.321 303.702 122.713C304.158 123.306 304.917 123.745 306.434 124.623C307.954 125.498 308.713 125.936 309.455 126.035C309.945 126.1 310.443 126.067 310.921 125.939C311.398 125.811 311.846 125.59 312.238 125.289C312.599 125.011 312.902 124.623 313.282 124.017C313.551 123.577 313.927 123.212 314.375 122.956C314.822 122.7 315.328 122.563 315.843 122.556C316.894 122.557 317.846 123.127 318.404 124.017C318.784 124.623 319.087 125.013 319.449 125.289C319.841 125.59 320.289 125.811 320.766 125.939C321.244 126.067 321.742 126.099 322.232 126.035C322.973 125.937 323.733 125.499 325.251 124.622C326.77 123.745 327.529 123.307 327.984 122.714C328.285 122.321 328.506 121.874 328.634 121.396C328.762 120.918 328.795 120.42 328.73 119.93C328.67 119.48 328.486 119.022 328.151 118.389C327.659 117.461 327.641 116.35 328.166 115.441C328.43 114.998 328.802 114.63 329.247 114.369C329.692 114.109 330.196 113.966 330.712 113.954C331.427 113.928 331.915 113.859 332.336 113.685C332.793 113.496 333.208 113.219 333.557 112.87C333.907 112.52 334.184 112.105 334.373 111.649C334.659 110.958 334.659 110.081 334.659 108.327C334.659 106.574 334.661 105.697 334.373 105.005C334.184 104.549 333.906 104.133 333.557 103.784C333.207 103.434 332.792 103.157 332.336 102.968C331.914 102.794 331.425 102.727 330.712 102.699C330.197 102.687 329.693 102.544 329.247 102.284C328.802 102.024 328.43 101.656 328.166 101.213C327.641 100.303 327.66 99.1928 328.152 98.2655C328.484 97.6327 328.672 97.1747 328.731 96.7235C328.795 96.2334 328.762 95.7355 328.634 95.258C328.506 94.7806 328.286 94.333 327.985 93.9409C327.529 93.3478 326.769 92.9087 325.252 92.0312C323.732 91.1555 322.973 90.7181 322.232 90.6184C321.741 90.554 321.243 90.5867 320.766 90.7147C320.289 90.8427 319.841 91.0636 319.449 91.3646C319.088 91.6425 318.784 92.0308 318.403 92.6379C318.134 93.0778 317.759 93.4425 317.311 93.6978C316.863 93.9532 316.358 94.0909 315.843 94.0982C315.328 94.091 314.822 93.9531 314.375 93.6975C313.927 93.4419 313.551 93.0769 313.283 92.6367C312.903 92.0306 312.599 91.6408 312.238 91.365C311.846 91.0638 311.398 90.843 310.921 90.715C310.443 90.587 309.945 90.5544 309.454 90.6191Z" fill="#BDBDBD" stroke="#F8F8F8" stroke-width="4.93916"/>
<path d="M318.666 113.214C321.366 111.656 322.291 108.203 320.732 105.504C319.173 102.804 315.721 101.879 313.021 103.437C310.321 104.996 309.396 108.448 310.955 111.148C312.514 113.848 315.966 114.773 318.666 113.214Z" fill="#F8F8F8"/>
</g>
<path d="M275 130L286.014 129.691L275 141.264L275 130Z" fill="url(#paint0_linear_8968_2587)"/>
<path d="M147.19 147.601L160.62 144.435L158.841 132.087L147.19 147.601Z" fill="url(#paint1_linear_8968_2587)"/>
<mask id="path-10-outside-1_8968_2587" maskUnits="userSpaceOnUse" x="153.542" y="33" width="127" height="147" fill="black">
<rect fill="white" x="153.542" y="33" width="127" height="147"/>
<path d="M158.542 51.7009C158.542 44.1341 164.676 38 172.243 38H261.299C268.866 38 275 44.1341 275 51.701V179.577H158.542V51.7009Z"/>
</mask>
<path d="M158.542 51.7009C158.542 44.1341 164.676 38 172.243 38H261.299C268.866 38 275 44.1341 275 51.701V179.577H158.542V51.7009Z" fill="white"/>
<path d="M153.975 51.701C153.975 41.6119 162.154 33.433 172.243 33.433H261.299C271.388 33.433 279.567 41.6119 279.567 51.701H270.433C270.433 46.6564 266.344 42.567 261.299 42.567H172.243C167.198 42.567 163.109 46.6564 163.109 51.701H153.975ZM275 179.577H158.542H275ZM153.975 179.577V51.701C153.975 41.6119 162.154 33.433 172.243 33.433V42.567C167.198 42.567 163.109 46.6564 163.109 51.701V179.577H153.975ZM261.299 33.433C271.388 33.433 279.567 41.6119 279.567 51.701V179.577H270.433V51.701C270.433 46.6564 266.344 42.567 261.299 42.567L261.299 33.433Z" fill="#BDBDBD" fill-opacity="0.4" mask="url(#path-10-outside-1_8968_2587)"/>
<path d="M197.361 38H236.18L234.649 41.0636C233.488 43.3845 231.116 44.8505 228.521 44.8505H205.02C202.425 44.8505 200.053 43.3845 198.893 41.0636L197.361 38Z" fill="#E0E0E0"/>
<rect x="167" y="123.436" width="48" height="8" rx="4" fill="#EFEFEF"/>
<rect x="167" y="139.436" width="66" height="15" rx="4" fill="#EFEFEF"/>
<rect x="167" y="93.4355" width="22" height="22" rx="4" fill="#EFEFEF"/>
<rect x="193" y="93.4355" width="22" height="22" rx="4" fill="white"/>
<rect x="219" y="93.4355" width="22" height="22" rx="4" fill="#EFEFEF"/>
<rect x="245" y="93.4355" width="22" height="22" rx="4" fill="#EFEFEF"/>
<path d="M263 53.4355C265.209 53.4355 267 55.2264 267 57.4355V81.4355C267 83.6447 265.209 85.4355 263 85.4355H171C168.791 85.4355 167 83.6447 167 81.4355V57.4355C167 55.2264 168.791 53.4355 171 53.4355H263Z" fill="#EFEFEF"/>
<path d="M49.4894 124.497C60.1403 121.097 68.4863 118.497 68.4863 118.497L83.764 122.439C108.347 128.782 123.038 153.957 116.467 178.481L113.195 190.692L35.2293 169.801L12.9863 160.497C12.9863 160.497 25.9924 131.997 49.4894 124.497Z" fill="#1A4E66"/>
<path d="M49.9894 153.997C51.4894 149.497 54.4657 143.56 58.5276 140.466" stroke="#133B4E" stroke-width="2.28349" stroke-linecap="round"/>
<path d="M103.521 164.679C103.521 160.679 103.521 158.679 100.021 155.179" stroke="#133B4E" stroke-width="2.28349" stroke-linecap="round"/>
<path d="M86.3426 78.437C88.9804 68.5937 99.0982 62.7521 108.942 65.3894C118.991 68.0821 124.828 78.5459 121.841 88.5115L116.243 107.191C113.765 115.456 105.842 120.861 97.2429 120.151L97.0816 120.138L96.2543 126.653C95.3994 133.378 88.9002 137.877 82.3046 136.31C73.2346 134.154 67.2485 125.506 68.4241 116.258L68.7058 114.045L71.1355 94.9239C69.7929 93.8329 68.7679 92.3251 68.286 90.5263C67.0693 85.9852 69.7644 81.3173 74.3053 80.1004C78.5862 78.9533 82.9778 81.2833 84.4867 85.3583L86.3426 78.437Z" fill="#FF9BA5"/>
<path d="M102.173 107.781C99 106.5 98.5 106.5 95.173 104.781" stroke="#D4737C" stroke-width="2.28349" stroke-linecap="round"/>
<path d="M73.3395 83.7567C75.2592 82.5742 79.0113 81.8191 80.8957 87.0305" stroke="#D4737C" stroke-width="1.71262" stroke-linecap="round"/>
<ellipse cx="112.697" cy="92.1273" rx="2.39769" ry="3.67646" transform="rotate(9.7725 112.697 92.1273)" fill="white"/>
<ellipse cx="97.8103" cy="90.4124" rx="2.39769" ry="3.67646" transform="rotate(9.7725 97.8103 90.4124)" fill="white"/>
<ellipse cx="1.8" cy="2.40055" rx="1.8" ry="2.40055" transform="matrix(0.987497 0.157637 -0.182706 0.983168 112.787 88.5469)" fill="#25262B"/>
<ellipse cx="1.8" cy="2.40055" rx="1.8" ry="2.40055" transform="matrix(0.987497 0.157637 -0.182706 0.983168 97.8772 87)" fill="#25262B"/>
<path d="M103.943 95.8853C107.339 96.6881 112.566 98.9187 106.306 101.418" stroke="#D4737C" stroke-width="1.71262" stroke-linecap="round"/>
<path d="M70.4581 100.583L71.1538 94.9163C72.8282 95.6912 74.6954 95.9502 76.5174 95.6602L76.82 95.6121L70.4581 100.583Z" fill="#D5737C"/>
<path d="M87.7786 118.281C89.9052 119.28 92.2046 119.86 94.5507 119.988L97.0861 120.126L97.0839 120.137L97.082 120.138L97.0295 120.549L96.0837 127.641C95.8234 128.845 95.3787 129.966 94.7845 130.98L81.6264 115.39L87.7786 118.281Z" fill="#D5737C"/>
<path d="M78.5335 61.3427C80.4095 54.0238 87.8999 49.6448 95.1979 51.6003L115.458 57.0289C123.637 59.2206 129.033 67.0049 128.215 75.4333C128.046 77.1709 127.551 78.861 126.754 80.4147L123.801 86.1775C123.032 87.6785 121.279 88.3898 119.681 87.8492C118.684 87.512 117.899 86.7326 117.555 85.738L115.869 80.8631C114.775 77.7035 112.795 74.9254 110.165 72.8611L107.498 70.7671C106.426 76.6569 102.218 81.4885 96.5311 83.3595L90.7086 85.2751C89.379 85.7126 88.2418 86.5966 87.49 87.7772L86.4032 89.4838C85.9466 90.2009 84.8384 89.9072 84.7969 89.0581L84.7414 87.9223C84.3434 79.7829 73.7213 76.9679 69.3444 83.8418L67.0669 75.0145C65.1876 67.7305 71.0335 60.7603 78.5335 61.3427Z" fill="#25262B"/>
<path d="M110.88 82.5532C115.053 84.9626 118.283 84.8495 119.375 84.4918" stroke="#25262B" stroke-width="3.42524" stroke-linecap="round"/>
<path d="M94.7941 81.1987C99.4487 82.4459 102.539 81.5009 103.502 80.8725" stroke="#25262B" stroke-width="3.42524" stroke-linecap="round"/>
<rect x="191" y="80" width="26" height="31" rx="6" fill="#BDBDBD" stroke="white" stroke-width="4"/>
<circle cx="163" cy="52" r="26" fill="#F3AF00" stroke="url(#paint2_linear_8968_2587)" stroke-width="4"/>
<path opacity="0.4" d="M171.918 29.7129C174.392 30.7035 176.662 32.0934 178.649 33.8037L153.161 73.8955C150.735 72.8038 148.524 71.3211 146.607 69.5273L171.918 29.7129ZM163 28C164.873 28 166.695 28.2145 168.444 28.6201L144.142 66.8467C142.267 64.4683 140.834 61.7262 139.962 58.7441L159.331 28.2783C160.527 28.0948 161.753 28 163 28Z" fill="url(#paint3_linear_8968_2587)"/>
<path fill-rule="evenodd" clip-rule="evenodd" d="M157.4 38C162.039 38 165.8 41.7608 165.8 46.4C165.8 47.2486 165.674 48.0678 165.44 48.84L174.2 57.6C175.746 59.1464 175.746 61.6536 174.2 63.2C172.654 64.7464 170.146 64.7464 168.6 63.2L159.84 54.4401C159.068 54.6741 158.249 54.8 157.4 54.8C152.761 54.8 149 51.0392 149 46.4C149 45.5047 149.14 44.6422 149.399 43.8331L153.373 47.8L157.311 46.4883L157.487 46.3125L158.8 42.3777L154.822 38.4031C155.634 38.1414 156.501 38 157.4 38Z" fill="white"/>
<g clip-path="url(#clip4_8968_2587)">
<rect width="138.793" height="18.6613" transform="translate(147.121 147.6) rotate(-15)" fill="white"/>
<rect x="147.121" y="147.6" width="142.455" height="19.5242" transform="rotate(-15 147.121 147.6)" fill="#F3AF00"/>
<path d="M157.249 144.886L168.425 141.892L163.35 163.465L152.174 166.459L157.249 144.886Z" fill="#25262B"/>
<path d="M179.6 138.898L190.776 135.904L185.701 157.476L174.526 160.471L179.6 138.898Z" fill="#25262B"/>
<path d="M201.952 132.909L213.128 129.915L208.053 151.487L196.877 154.482L201.952 132.909Z" fill="#25262B"/>
<path d="M224.303 126.92L235.479 123.925L230.404 145.498L219.229 148.493L224.303 126.92Z" fill="#25262B"/>
<path d="M246.655 120.931L257.83 117.937L252.756 139.509L241.58 142.504L246.655 120.931Z" fill="#25262B"/>
<path d="M269.006 114.942L280.182 111.948L275.107 133.521L263.931 136.515L269.006 114.942Z" fill="#25262B"/>
<path d="M291.357 108.952L302.533 105.958L297.458 127.53L286.282 130.525L291.357 108.952Z" fill="#25262B"/>
</g>
<g opacity="0.5">
<rect opacity="0.4" width="24" height="6" rx="1.5" transform="matrix(-1 0 0 1 16 139.908)" fill="#848484"/>
<rect opacity="0.2" width="24" height="6" rx="1.5" transform="matrix(-1 0 0 1 7 133.908)" fill="#848484"/>
<rect opacity="0.2" width="16.5" height="6" rx="1.5" transform="matrix(-1 0 0 1 4 145.908)" fill="#848484"/>
</g>
<g opacity="0.5">
<rect opacity="0.4" x="53" y="5.90771" width="24" height="6" rx="1.5" fill="#848484"/>
<rect opacity="0.2" x="62" y="-0.0922852" width="24" height="6" rx="1.5" fill="#848484"/>
<rect opacity="0.2" x="65" y="11.9077" width="16.5" height="6" rx="1.5" fill="#848484"/>
</g>
</g>
<defs>
<linearGradient id="paint0_linear_8968_2587" x1="280.507" y1="129.691" x2="280.507" y2="141.264" gradientUnits="userSpaceOnUse">
<stop stop-color="#955D1A"/>
<stop offset="1" stop-color="#C18844"/>
</linearGradient>
<linearGradient id="paint1_linear_8968_2587" x1="154.672" y1="146.029" x2="151.466" y2="134.063" gradientUnits="userSpaceOnUse">
<stop stop-color="#955D1A"/>
<stop offset="1" stop-color="#C18844"/>
</linearGradient>
<linearGradient id="paint2_linear_8968_2587" x1="175" y1="67.5" x2="151.002" y2="51.8194" gradientUnits="userSpaceOnUse">
<stop stop-color="white"/>
<stop offset="1" stop-color="#F8F8F8"/>
</linearGradient>
<linearGradient id="paint3_linear_8968_2587" x1="174.89" y1="3.46441" x2="132.921" y2="66.0323" gradientUnits="userSpaceOnUse">
<stop stop-color="white" stop-opacity="0.63"/>
<stop offset="1" stop-color="white" stop-opacity="0"/>
</linearGradient>
<clipPath id="clip0_8968_2587">
<rect width="388" height="160" rx="16" fill="white"/>
</clipPath>
<clipPath id="clip1_8968_2587">
<rect width="100.568" height="100.568" fill="white" transform="translate(288.475 130.477) rotate(-30)"/>
</clipPath>
<clipPath id="clip2_8968_2587">
<rect width="63.5663" height="63.5663" fill="white" transform="translate(319.29 73.7832) rotate(-30)"/>
</clipPath>
<clipPath id="clip3_8968_2587">
<rect width="45.158" height="45.158" fill="white" transform="translate(285 100.062) rotate(-30)"/>
</clipPath>
<clipPath id="clip4_8968_2587">
<rect width="138.793" height="18.6613" fill="white" transform="translate(147.121 147.6) rotate(-15)"/>
</clipPath>
</defs>
</svg>
