<svg width="64" height="64" viewBox="0 0 64 64" fill="none" xmlns="http://www.w3.org/2000/svg">
<circle cx="32" cy="32" r="32" fill="#00A2B9"/>
<path d="M20.9226 20.9181C20.0106 14.0779 25.3319 8 32.2326 8C38.9685 8 44.2385 13.8046 43.5896 20.5091L43.4205 22.2571C42.8479 28.1737 37.756 32.6142 31.8165 32.3767C26.3732 32.1589 21.8747 28.0587 21.1547 22.6588L20.9226 20.9181Z" fill="#666666"/>
<path fill-rule="evenodd" clip-rule="evenodd" d="M10.1299 55.3594C11.2313 50.619 13.0943 46.1048 15.9998 43.1994C16.8381 42.7802 17.6003 42.3885 18.3091 42.0242C23.0111 39.6077 25.3621 38.3994 31.9998 38.3994C39.9997 39.1994 43.1997 39.9994 48.7997 43.1994C51.7205 46.1202 53.1199 50.6668 53.7893 55.4347C48.0764 60.7487 40.4177 63.999 31.9999 63.999C23.5424 63.999 15.8513 60.718 10.1299 55.3594Z" fill="white"/>
<path d="M31.9999 41.5996L32.7999 43.9996L33.5999 63.9996H30.3999L31.1999 43.9996L31.9999 41.5996Z" fill="#666666"/>
<path d="M27.2002 33.5998C27.2002 30.9488 29.3492 28.7998 32.0002 28.7998C34.6512 28.7998 36.8002 30.9488 36.8002 33.5998V40.6874C36.8002 41.2529 36.5023 41.7774 35.9952 42.0276C35.0346 42.5016 33.3846 43.1998 32.0002 43.1998C30.6157 43.1998 28.9658 42.5016 28.0052 42.0276C27.4981 41.7774 27.2002 41.2529 27.2002 40.6874V33.5998Z" fill="white"/>
<path fill-rule="evenodd" clip-rule="evenodd" d="M36.7997 37.0545C35.7988 37.4083 34.7217 37.6008 33.5997 37.6008C31.141 37.6008 28.8981 36.6764 27.1997 35.1563V33.6008C27.1997 30.9498 29.3487 28.8008 31.9997 28.8008C34.6507 28.8008 36.7997 30.9498 36.7997 33.6008V37.0545Z" fill="#EFEFEF"/>
<path d="M22.3999 17.6002C22.3999 14.0656 25.2653 11.2002 28.7999 11.2002H35.1999C38.7345 11.2002 41.5999 14.0656 41.5999 17.6002V26.4002C41.5999 31.7021 37.3018 36.0002 31.9999 36.0002C26.698 36.0002 22.3999 31.7021 22.3999 26.4002V17.6002Z" fill="white"/>
<path fill-rule="evenodd" clip-rule="evenodd" d="M22.4009 17.527C22.4401 14.0261 25.2903 11.2002 28.8005 11.2002H35.2005C36.8243 11.2002 38.307 11.805 39.4354 12.8016C37.959 16.5182 33.7555 19.1997 28.8005 19.1997C26.4211 19.1997 24.2149 18.5813 22.4009 17.527Z" fill="#666666"/>
<rect x="20.7998" y="8" width="14.4" height="8" rx="4" fill="#666666"/>
<rect x="19.2002" y="12.7998" width="12.8" height="6.4" rx="3.2" fill="#666666"/>
<path d="M40.3753 14.6764C40.1812 13.7056 40.9237 12.7998 41.9138 12.7998C42.6617 12.7998 43.3056 13.3277 43.4522 14.061L44.4247 18.9232C44.6188 19.894 43.8763 20.7998 42.8862 20.7998C42.1383 20.7998 41.4944 20.2719 41.3478 19.5386L40.3753 14.6764Z" fill="#666666"/>
<path fill-rule="evenodd" clip-rule="evenodd" d="M41.6003 20.3905C38.8038 19.4021 36.8003 16.7351 36.8003 13.6002C36.8003 12.8664 36.9101 12.1582 37.1141 11.4912C39.7138 12.3048 41.6003 14.7322 41.6003 17.6002V20.3905Z" fill="#666666"/>
<path fill-rule="evenodd" clip-rule="evenodd" d="M39.0496 63.2203L41.3753 60.4295C41.941 59.7507 41.8493 58.7417 41.1705 58.176L37.5996 55.2003L43.8579 49.6374C44.4104 49.1464 44.5545 48.3408 44.2067 47.6886L39.8317 39.4854C38.8362 39.2041 37.8242 38.9759 36.7996 38.8027V50.4003V63.6419C37.5587 63.5277 38.309 63.3869 39.0496 63.2203Z" fill="#B4B4B4"/>
<path fill-rule="evenodd" clip-rule="evenodd" d="M25.0395 63.3275L22.6247 60.4297C22.059 59.7508 22.1507 58.7419 22.8295 58.1762L26.4004 55.2005L20.1421 49.6376C19.5896 49.1465 19.4455 48.341 19.7933 47.6888L24.2376 39.3558C25.2113 39.0984 26.2002 38.8917 27.2004 38.7373V50.4005V63.7003C26.472 63.6003 25.7514 63.4757 25.0395 63.3275Z" fill="#B4B4B4"/>
<path d="M27.2002 40L32.0002 41.6L36.8002 40V44L35.2002 45.6L32.0002 43.2L28.8002 45.6L27.2002 44V40Z" fill="#DDDDDD"/>
</svg>
