<svg width="300" height="160" viewBox="0 0 300 160" fill="none" xmlns="http://www.w3.org/2000/svg">
<defs>
<linearGradient id="paint0_linear_25131_159877" x1="180.701" y1="62.7956" x2="146.855" y2="113.633" gradientUnits="userSpaceOnUse">
<stop stop-color="white" stop-opacity="0.63"/>
<stop offset="1" stop-color="white" stop-opacity="0"/>
</linearGradient>
<linearGradient id="paint1_linear_25131_159877" x1="171.701" y1="56.7956" x2="137.855" y2="107.633" gradientUnits="userSpaceOnUse">
<stop offset="0.197917" stop-color="white" stop-opacity="0.63"/>
<stop offset="1" stop-color="white" stop-opacity="0"/>
</linearGradient>
<clipPath id="clip0_25131_159877">
<rect width="300" height="160" rx="16" fill="white"/>
</clipPath>
<clipPath id="clip1_25131_159877">
<rect width="20" height="20" fill="white" transform="translate(174.458 81)"/>
</clipPath>
</defs>

<g clip-path="url(#clip0_25131_159877)">
<rect width="300" height="160" rx="16" fill="#FFF5E9"/>
<g opacity="0.5">
<rect opacity="0.4" width="24" height="6" rx="1.5" transform="matrix(-1 0 0 1 260 5)" fill="#F3AF00"/>
<rect opacity="0.2" width="24" height="6" rx="1.5" transform="matrix(-1 0 0 1 251 -1)" fill="#F3AF00"/>
<rect opacity="0.2" width="16.5" height="6" rx="1.5" transform="matrix(-1 0 0 1 248 11)" fill="#F3AF00"/>
</g>
<circle cx="81.804" cy="135.313" r="21.6932" fill="#F9D377"/>
<circle cx="62.3941" cy="150.156" r="19.4097" fill="#F9D377"/>
<circle cx="41.2718" cy="162.144" r="14.2718" fill="#F9D377"/>
<path d="M65.8193 134.172H100.072V166.141H65.8193V134.172Z" fill="#F9D377"/>
<mask id="path-9-outside-1_25131_159877" maskUnits="userSpaceOnUse" x="87" y="19.5645" width="127" height="147" fill="black">
<rect fill="white" x="87" y="19.5645" width="127" height="147"/>
<path d="M92 38.2654C92 30.6986 98.1341 24.5645 105.701 24.5645H194.757C202.324 24.5645 208.458 30.6986 208.458 38.2654V166.141H92V38.2654Z"/>
</mask>
<path d="M92 38.2654C92 30.6986 98.1341 24.5645 105.701 24.5645H194.757C202.324 24.5645 208.458 30.6986 208.458 38.2654V166.141H92V38.2654Z" fill="white"/>
<path d="M87.433 38.2654C87.433 28.1763 95.6119 19.9975 105.701 19.9975H194.757C204.846 19.9975 213.025 28.1763 213.025 38.2654H203.891C203.891 33.2209 199.802 29.1314 194.757 29.1314H105.701C100.656 29.1314 96.567 33.2209 96.567 38.2654H87.433ZM208.458 166.141H92H208.458ZM87.433 166.141V38.2654C87.433 28.1763 95.6119 19.9975 105.701 19.9975V29.1314C100.656 29.1314 96.567 33.2209 96.567 38.2654V166.141H87.433ZM194.757 19.9975C204.846 19.9975 213.025 28.1763 213.025 38.2654V166.141H203.891V38.2654C203.891 33.2209 199.802 29.1314 194.757 29.1314L194.757 19.9975Z" fill="#F3AF00" fill-opacity="0.2" mask="url(#path-9-outside-1_25131_159877)"/>
<path d="M155.52 136.573L152.44 137.774C151.33 138.19 150.106 138.19 148.995 137.774L145.916 136.573C138.116 133.515 131.416 128.182 126.688 121.265C121.959 114.349 119.42 106.171 119.401 97.7929V83.2829C125.312 84.1253 131.341 83.3579 136.852 81.0615C142.364 78.7651 147.154 75.0247 150.718 70.2344C157.242 79.7337 168.046 84.2224 182.034 83.2829V97.7929C182.015 106.171 179.477 114.349 174.748 121.265C170.019 128.182 163.32 133.515 155.52 136.573Z" fill="#00A2B9" stroke="#00A2B9" stroke-opacity="0.2" stroke-width="9.13398" stroke-linecap="round" stroke-linejoin="round"/>
<path opacity="0.2" d="M165.854 79H173.458L126.061 153H118.458L165.854 79Z" fill="url(#paint0_linear_25131_159877)"/>
<path opacity="0.2" d="M156.854 73H164.458L117.061 147H109.458L156.854 73Z" fill="url(#paint1_linear_25131_159877)"/>
<path opacity="0.1" fill-rule="evenodd" clip-rule="evenodd" d="M150.495 138.081C165.525 128.263 175.457 111.292 175.457 92.0001C175.457 89.0266 175.221 86.1082 174.767 83.2627C177.081 83.4451 179.505 83.4527 182.034 83.2829V97.7928C182.015 106.171 179.476 114.349 174.747 121.265C170.019 128.181 163.319 133.515 155.519 136.573L152.44 137.774C151.814 138.008 151.152 138.111 150.495 138.081Z" fill="#25262B"/>
<path d="M159.362 104.487C159.362 103.227 158.338 102.203 157.078 102.203H155.936V98.7781C155.936 95.6303 153.376 93.0693 150.228 93.0693C147.08 93.0693 144.519 95.6303 144.519 98.7781V102.203H143.377C142.118 102.203 141.094 103.227 141.094 104.487V113.621C141.094 114.88 142.118 115.904 143.377 115.904H157.078C158.338 115.904 159.362 114.88 159.362 113.621V104.487ZM146.802 98.7781C146.802 96.8896 148.339 95.3528 150.228 95.3528C152.116 95.3528 153.653 96.8896 153.653 98.7781V102.203H146.802V98.7781Z" fill="white"/>
<circle cx="184.458" cy="91" r="18" fill="#F3AF00" stroke="white" stroke-width="4"/>
<g clip-path="url(#clip1_25131_159877)">
<path d="M191.308 95.1891L185.896 85.2225C185.753 84.9592 185.542 84.7395 185.284 84.5864C185.026 84.4333 184.732 84.3525 184.433 84.3525C184.133 84.3525 183.839 84.4333 183.581 84.5864C183.324 84.7395 183.112 84.9592 182.969 85.2225L177.552 95.1891C177.41 95.4436 177.338 95.7308 177.341 96.0221C177.345 96.3134 177.425 96.5986 177.574 96.8492C177.722 97.0999 177.934 97.3073 178.187 97.4508C178.441 97.5943 178.727 97.6688 179.019 97.6669H189.841C190.13 97.6672 190.414 97.5923 190.665 97.4497C190.916 97.3071 191.126 97.1016 191.274 96.8534C191.422 96.6053 191.503 96.3229 191.509 96.034C191.515 95.7452 191.445 95.4598 191.308 95.2058V95.1891ZM183.602 88.078C183.602 87.857 183.69 87.645 183.846 87.4888C184.002 87.3325 184.214 87.2447 184.435 87.2447C184.656 87.2447 184.868 87.3325 185.025 87.4888C185.181 87.645 185.269 87.857 185.269 88.078V91.9058C185.269 92.1268 185.181 92.3388 185.025 92.495C184.868 92.6513 184.656 92.7391 184.435 92.7391C184.214 92.7391 184.002 92.6513 183.846 92.495C183.69 92.3388 183.602 92.1268 183.602 91.9058V88.078ZM184.458 95.5836C184.269 95.5836 184.084 95.5275 183.927 95.4225C183.77 95.3175 183.647 95.1683 183.575 94.9937C183.502 94.8191 183.484 94.627 183.52 94.4416C183.557 94.2562 183.648 94.086 183.782 93.9523C183.916 93.8187 184.086 93.7277 184.271 93.6908C184.457 93.6539 184.649 93.6729 184.823 93.7452C184.998 93.8175 185.147 93.94 185.252 94.0971C185.357 94.2543 185.413 94.439 185.413 94.628C185.413 94.8814 185.312 95.1245 185.133 95.3037C184.954 95.4829 184.711 95.5836 184.458 95.5836Z" fill="white"/>
</g>
<path d="M138.086 82.2171L140 74L134.305 74.6519L131.565 69.667L129.007 77.1438L129.217 83.164L135.082 85.4458L135.13 96.9494L141.54 85.9384L138.086 82.2171Z" fill="white"/>
<path d="M130.819 24.5645H169.639L168.107 27.6281C166.947 29.9489 164.574 31.4149 161.98 31.4149H138.478C135.884 31.4149 133.512 29.9489 132.351 27.6281L130.819 24.5645Z" fill="#FDE7BA"/>
<g opacity="0.5">
<rect opacity="0.4" x="273" y="139" width="24" height="6" rx="1.5" fill="#F3AF00"/>
<rect opacity="0.32" x="294" y="127" width="12" height="6" rx="1.5" fill="#F3AF00"/>
<rect opacity="0.2" x="282" y="133" width="24" height="6" rx="1.5" fill="#F3AF00"/>
<rect opacity="0.2" x="285" y="145" width="16.5" height="6" rx="1.5" fill="#F3AF00"/>
</g>
<g opacity="0.5">
<rect opacity="0.4" y="93" width="24" height="6" rx="1.5" fill="#F3AF00"/>
<rect opacity="0.32" x="21" y="81" width="12" height="6" rx="1.5" fill="#F3AF00"/>
<rect opacity="0.2" x="9" y="87" width="24" height="6" rx="1.5" fill="#F3AF00"/>
<rect opacity="0.2" x="12" y="99" width="16.5" height="6" rx="1.5" fill="#F3AF00"/>
</g>
</g>
</svg>
