<svg width="96" height="96" viewBox="0 0 96 96" fill="none" xmlns="http://www.w3.org/2000/svg">
<circle opacity="0.1" cx="48" cy="48" r="48" fill="#F3AF00"/>
<circle opacity="0.2" cx="48" cy="48" r="40" fill="#F3AF00"/>
<circle cx="48" cy="48" r="32" fill="#F3AF00"/>
<g clip-path="url(#clip0_10191_116315)">
<path d="M67.18 57.7289L52.0289 29.8222C51.6278 29.0852 51.0353 28.47 50.314 28.0414C49.5927 27.6127 48.7691 27.3865 47.93 27.3865C47.0909 27.3865 46.2673 27.6127 45.546 28.0414C44.8247 28.47 44.2322 29.0852 43.8311 29.8222L28.6644 57.7289C28.2675 58.4415 28.0642 59.2456 28.0749 60.0612C28.0855 60.8768 28.3098 61.6753 28.7253 62.3772C29.1407 63.0791 29.7329 63.6599 30.4428 64.0616C31.1527 64.4633 31.9555 64.6719 32.7711 64.6667H63.0733C63.8823 64.6674 64.6775 64.4579 65.3811 64.0586C66.0846 63.6593 66.6723 63.0839 67.0864 62.389C67.5005 61.6941 67.7269 60.9035 67.7433 60.0947C67.7597 59.2859 67.5656 58.4867 67.18 57.7756V57.7289ZM45.6044 37.8178C45.6044 37.199 45.8503 36.6055 46.2879 36.1679C46.7254 35.7303 47.3189 35.4845 47.9378 35.4845C48.5566 35.4845 49.1501 35.7303 49.5877 36.1679C50.0253 36.6055 50.2711 37.199 50.2711 37.8178V48.5356C50.2711 49.1544 50.0253 49.7479 49.5877 50.1855C49.1501 50.6231 48.5566 50.8689 47.9378 50.8689C47.3189 50.8689 46.7254 50.6231 46.2879 50.1855C45.8503 49.7479 45.6044 49.1544 45.6044 48.5356V37.8178ZM48 58.8334C47.4708 58.8334 46.9535 58.6764 46.5135 58.3824C46.0735 58.0885 45.7306 57.6706 45.5281 57.1817C45.3256 56.6928 45.2726 56.1548 45.3759 55.6358C45.4791 55.1168 45.7339 54.6401 46.1081 54.2659C46.4823 53.8917 46.959 53.6369 47.478 53.5337C47.997 53.4304 48.535 53.4834 49.0239 53.6859C49.5128 53.8884 49.9306 54.2314 50.2246 54.6713C50.5186 55.1113 50.6756 55.6286 50.6756 56.1578C50.6756 56.8674 50.3937 57.5479 49.8919 58.0497C49.3901 58.5515 48.7096 58.8334 48 58.8334Z" fill="white"/>
</g>
<defs>
<clipPath id="clip0_10191_116315">
<rect width="56" height="56" fill="white" transform="translate(20 18)"/>
</clipPath>
</defs>
</svg>
