<svg width="222" height="137" viewBox="0 0 222 137" fill="none" xmlns="http://www.w3.org/2000/svg">
<path fill-rule="evenodd" clip-rule="evenodd" d="M108.115 96.5001C147.723 99.1677 157.213 130.682 194.408 124C231.604 117.319 227.126 66.9528 204.938 47.3652C182.749 27.7776 144.844 59.6102 117.108 53.3818C89.3723 47.1533 77.3665 32.3361 55.5452 28.9552C33.7239 25.5743 16.0547 31.0364 7.55252 47.3651C-3.86389 69.2907 -4.29226 103.081 20.0336 115.297C46.7229 128.701 77.1137 94.4121 108.115 96.5001Z" fill="#EFEFEF"/>
<path opacity="0.8" d="M104.33 33.7707C133.962 47.2231 153.978 35.6287 159.204 31.9457C159.563 31.6926 159.316 31.2113 158.889 31.3129L151.644 33.0359C134.015 37.2286 115.428 34.0329 100.184 24.1881C89.4202 17.2365 76.8863 13.5389 64.0866 13.5389L53.3646 13.5389C53.1729 13.5389 53.1304 13.8677 53.3189 13.9027C60.1822 15.1744 82.4699 20.1102 104.33 33.7707Z" fill="#EFEFEF" stroke="#EFEFEF" stroke-width="10" stroke-linecap="round" stroke-linejoin="round"/>
<ellipse opacity="0.8" cx="178.844" cy="30.8164" rx="8.46894" ry="4.5" fill="#EFEFEF"/>
<path fill-rule="evenodd" clip-rule="evenodd" d="M134.278 37.1116H158.094C158.832 37.107 159.564 37.254 160.248 37.5441C160.932 37.8342 161.554 38.2617 162.08 38.8022C162.605 39.3428 163.023 39.9858 163.309 40.6945C163.596 41.4032 163.746 42.1637 163.75 42.9327V125C163.75 131.627 158.377 137 151.75 137H88.75V137H69.75V136.997C74.182 136.916 77.7499 133.298 77.7498 128.847L77.7498 126.414L77.75 126.414V42.9327C77.7696 42.0806 77.9626 41.2426 78.3161 40.4738C78.6696 39.7051 79.1756 39.0232 79.8008 38.4731C80.4259 37.923 81.156 37.5172 81.9428 37.2825C82.7297 37.0478 83.5553 36.9896 84.3654 37.1116H107.255C108.207 34.1651 110.023 31.6043 112.447 29.7901C114.871 27.9759 117.781 27 120.767 27C123.752 27 126.662 27.9759 129.086 29.7901C131.51 31.6043 133.327 34.1651 134.278 37.1116ZM98.5552 47.4457C98.5552 46.5322 98.9037 45.6561 99.524 45.0101C100.144 44.3641 100.986 44.0013 101.863 44.0013H111.071C112.27 44.0013 113.241 43.0297 113.241 41.8313C113.241 39.7165 114.048 37.6883 115.484 36.1929C116.92 34.6975 118.868 33.8574 120.899 33.8574C122.929 33.8574 124.877 34.6975 126.313 36.1929C127.749 37.6883 128.556 39.7165 128.556 41.8313C128.556 43.1248 129.605 44.1735 130.898 44.1735H139.934C140.812 44.1735 141.653 44.5364 142.273 45.1823C142.894 45.8283 143.242 46.7044 143.242 47.6179V47.8179C143.242 51.1316 140.556 53.8179 137.242 53.8179H104.549C101.186 53.8179 98.4802 51.055 98.55 47.6933L98.5552 47.4457Z" fill="#BDBDBD"/>
<path d="M103.75 89.5862L117.992 102L139.75 78" stroke="white" stroke-width="8" stroke-linecap="round" stroke-linejoin="round"/>
<path opacity="0.8" d="M47.4989 85.6267C47.4988 81.4152 50.9127 78.0011 55.1242 78.001C59.3356 78.0009 62.7497 81.4148 62.7498 85.6262L62.7506 112.001L51.4995 112C49.2905 112 47.4998 110.21 47.4997 108.001L47.4989 85.6267Z" fill="#25262B"/>
<path opacity="0.6" fill-rule="evenodd" clip-rule="evenodd" d="M54.75 85.9998H62.7493L62.7493 85.6253C62.7492 81.4381 59.3742 78.0391 55.1962 78.0003H62.75V78.0004L77.7496 78L77.7498 128.974C77.7498 133.406 74.1073 136.998 69.676 136.998C65.8745 136.997 62.7498 133.916 62.7498 130.114L62.7498 86.0003H54.75V85.9998ZM54.75 78.009C54.85 78.0042 54.9505 78.0013 55.0515 78.0003H54.75V78.009Z" fill="#25262B"/>
</svg>
