<svg width="120" height="120" viewBox="0 0 120 120" fill="none" xmlns="http://www.w3.org/2000/svg">
<mask id="mask0_5668_91249" style="mask-type:alpha" maskUnits="userSpaceOnUse" x="0" y="0" width="120" height="120">
<circle cx="60" cy="60" r="60" fill="#00A2B9"/>
</mask>
<defs>
<linearGradient id="paint0_linear_5668_91249" x1="60.2" y1="34.8008" x2="60.2" y2="94.001" gradientUnits="userSpaceOnUse">
<stop stop-color="#01C6E2"/>
<stop offset="1" stop-color="#007CA4"/>
</linearGradient>
</defs>
<g mask="url(#mask0_5668_91249)">
<path opacity="0.1" d="M-134.158 79.0382L-137.648 67.7068V137.647H176.47V-15.8828L172.979 -8.85403C169.489 -1.82525 162.509 12.2323 155.529 14.1788C148.548 16.1253 141.568 5.96074 134.587 15.3122C127.607 24.6638 120.627 53.5313 113.646 62.5374C106.666 71.5434 99.6854 60.6879 92.705 60.799C85.7246 60.91 78.7442 71.9878 71.7638 72.8951C64.7834 73.8025 57.803 64.5395 50.8226 66.6727C43.8422 68.8059 36.8618 82.3352 29.8815 82.6419C22.9011 82.9486 15.9207 70.0327 8.94028 65.9689C1.95988 61.9051 -5.02051 66.6934 -12.0009 77.6771C-18.9813 88.6608 -25.9617 105.84 -32.9421 109.089C-39.9225 112.338 -46.9029 101.658 -53.8832 92.0704C-60.8636 82.4827 -67.844 73.9877 -74.8244 71.9373C-81.8048 69.887 -88.7852 74.2813 -95.7656 85.9817C-102.746 97.6822 -109.726 116.689 -116.707 114.861C-123.687 113.033 -130.668 90.3697 -134.158 79.0382Z" fill="#229BD8"/>
<path fill-rule="evenodd" clip-rule="evenodd" d="M34.6 34.8008C32.8327 34.8008 31.4 36.2335 31.4 38.0008V69.5196L25.1415 89.8597C24.8429 90.8303 25.0227 91.885 25.626 92.7019C26.2293 93.5188 27.1845 94.0008 28.2 94.0008H50.5651C50.5767 94.0009 50.5884 94.001 50.6 94.001H69.8C69.8117 94.001 69.8234 94.0009 69.835 94.0008H92.2C93.2155 94.0008 94.1708 93.5188 94.7741 92.7019C95.3774 91.885 95.5572 90.8303 95.2585 89.8597L89 69.5196V38.0008C89 36.2335 87.5673 34.8008 85.8 34.8008H34.6ZM72.1433 87.6008H87.8674L83.4366 73.2008H36.9635L32.5327 87.6008H48.2568L50.5894 80.2349C51.0105 78.9049 52.2449 78.001 53.64 78.001H66.7601C68.1552 78.001 69.3896 78.9049 69.8107 80.2349L72.1433 87.6008ZM65.43 87.6008H54.9701L55.9833 84.401H64.4168L65.43 87.6008ZM82.6 41.2008V66.8008H37.8V41.2008H82.6Z" fill="url(#paint0_linear_5668_91249)"/>
<circle opacity="0.1" cx="60" cy="60" r="60" fill="#00A2B9"/>
</g>
<path d="M115.314 27.3137C118.314 24.3131 120 20.2435 120 16C120 11.7565 118.314 7.68687 115.314 4.68629C112.313 1.68571 108.243 0 104 0C99.7565 0 95.6869 1.68571 92.6863 4.68629C89.6857 7.68687 88 11.7565 88 16C88 20.2435 89.6857 24.3131 92.6863 27.3137C95.6869 30.3143 99.7565 32 104 32C108.243 32 112.313 30.3143 115.314 27.3137Z" fill="#5AA200"/>
<path d="M111.792 9.0215C112.008 9.11112 112.205 9.24247 112.37 9.40803C112.535 9.57317 112.667 9.76935 112.756 9.98533C112.846 10.2013 112.892 10.4329 112.892 10.6667C112.892 10.9005 112.846 11.1321 112.756 11.3481C112.667 11.564 112.535 11.7602 112.37 11.9254L101.703 22.592C101.538 22.7576 101.342 22.8889 101.126 22.9786C100.91 23.0682 100.678 23.1143 100.444 23.1143C100.211 23.1143 99.9791 23.0682 99.7631 22.9786C99.5471 22.8889 99.3509 22.7576 99.1858 22.592L95.6302 19.0365C95.2964 18.7027 95.1089 18.2499 95.1089 17.7778C95.1089 17.3057 95.2964 16.853 95.6302 16.5191C95.9641 16.1853 96.4168 15.9978 96.8889 15.9978C97.361 15.9978 97.8138 16.1853 98.1476 16.5191L100.444 18.8196L109.852 9.40803C110.018 9.24247 110.214 9.11112 110.43 9.0215C110.646 8.93188 110.877 8.88574 111.111 8.88574C111.345 8.88574 111.577 8.93188 111.792 9.0215Z" fill="#F1F1F1"/>

</svg>
