<svg width="124" height="138" viewBox="0 0 124 138" fill="none" xmlns="http://www.w3.org/2000/svg">
<circle cx="64" cy="60" r="60" fill="#EFEFEF"/>
<path d="M64 90C80.5685 90 94 76.5685 94 60C94 43.4315 80.5685 30 64 30C47.4315 30 34 43.4315 34 60C34 76.5685 47.4315 90 64 90Z" stroke="#BDBDBD" stroke-width="6" stroke-linecap="round" stroke-linejoin="round"/>
<path d="M64 42V60L76 66" stroke="#BDBDBD" stroke-width="6" stroke-linecap="round" stroke-linejoin="round"/>
<path d="M44.9706 126.971C49.4714 122.47 52 116.365 52 110C52 103.635 49.4714 97.5303 44.9706 93.0294C40.4697 88.5286 34.3652 86 28 86C21.6348 86 15.5303 88.5286 11.0294 93.0294C6.52857 97.5303 4 103.635 4 110C4 116.365 6.52857 122.47 11.0294 126.971C15.5303 131.471 21.6348 134 28 134C34.3652 134 40.4697 131.471 44.9706 126.971Z" fill="#FF991F" stroke="white" stroke-width="8"/>
<path d="M27.9997 98.332C25.6922 98.332 23.4366 99.0163 21.518 100.298C19.5995 101.58 18.1041 103.402 17.2211 105.534C16.3381 107.666 16.107 110.012 16.5572 112.275C17.0073 114.538 18.1185 116.617 19.7501 118.248C21.3817 119.88 23.4605 120.991 25.7236 121.441C27.9867 121.891 30.3325 121.66 32.4643 120.777C34.5961 119.894 36.4182 118.399 37.7002 116.48C38.9821 114.562 39.6663 112.306 39.6663 109.999C39.6663 108.467 39.3646 106.95 38.7783 105.534C38.192 104.119 37.3326 102.832 36.2493 101.749C35.1659 100.666 33.8798 99.8064 32.4643 99.2201C31.0489 98.6338 29.5318 98.332 27.9997 98.332ZM29.1663 114.665C29.1663 114.975 29.0434 115.272 28.8246 115.49C28.6058 115.709 28.3091 115.832 27.9997 115.832C27.6903 115.832 27.3935 115.709 27.1747 115.49C26.9559 115.272 26.833 114.975 26.833 114.665V108.832C26.833 108.523 26.9559 108.226 27.1747 108.007C27.3935 107.788 27.6903 107.665 27.9997 107.665C28.3091 107.665 28.6058 107.788 28.8246 108.007C29.0434 108.226 29.1663 108.523 29.1663 108.832V114.665ZM27.9997 106.499C27.7689 106.499 27.5434 106.43 27.3515 106.302C27.1597 106.174 27.0101 105.992 26.9218 105.778C26.8335 105.565 26.8104 105.331 26.8554 105.104C26.9004 104.878 27.0116 104.67 27.1747 104.507C27.3379 104.344 27.5458 104.233 27.7721 104.188C27.9984 104.143 28.233 104.166 28.4461 104.254C28.6593 104.342 28.8415 104.492 28.9697 104.684C29.0979 104.876 29.1663 105.101 29.1663 105.332C29.1663 105.641 29.0434 105.938 28.8246 106.157C28.6058 106.376 28.3091 106.499 27.9997 106.499Z" fill="white"/>
</svg>
