<svg width="96" height="96" viewBox="0 0 96 96" fill="none" xmlns="http://www.w3.org/2000/svg">
<circle opacity="0.1" cx="48" cy="48" r="48" fill="#00A2B9"/>
<circle opacity="0.2" cx="48" cy="48" r="40" fill="#00A2B9"/>
<circle cx="48" cy="48" r="32" fill="#00A2B9"/>
<path d="M47.9 60C48.6 60 49.192 59.758 49.676 59.274C50.16 58.79 50.4013 58.1987 50.4 57.5C50.4 56.8 50.1587 56.208 49.676 55.724C49.1933 55.24 48.6013 54.9987 47.9 55C47.2 55 46.6087 55.242 46.126 55.726C45.6433 56.21 45.4013 56.8013 45.4 57.5C45.4 58.2 45.642 58.792 46.126 59.276C46.61 59.76 47.2013 60.0013 47.9 60ZM46.1792 50.4521C46.0777 51.4688 46.9283 52.3 47.95 52.3C48.9717 52.3 49.7539 51.4609 49.9571 50.4596C50.0144 50.1772 50.0873 49.924 50.176 49.7C50.4267 49.0667 51.1347 48.2 52.3 47.1C53.1667 46.2333 53.85 45.408 54.35 44.624C54.85 43.84 55.1 42.8987 55.1 41.8C55.1 39.9333 54.4167 38.5 53.05 37.5C51.6833 36.5 50.0667 36 48.2 36C46.3 36 44.758 36.5 43.574 37.5C42.8322 38.1265 42.2315 38.8315 41.7718 39.6151C41.3083 40.4049 41.7671 41.3628 42.6192 41.6985C43.5712 42.0735 44.6802 41.5371 45.3044 40.7263C45.3746 40.6351 45.4484 40.543 45.526 40.45C46.11 39.75 47.0013 39.4 48.2 39.4C49.2667 39.4 50.0667 39.692 50.6 40.276C51.1333 40.86 51.4 41.5013 51.4 42.2C51.4 42.8667 51.2 43.492 50.8 44.076C50.4 44.66 49.9 45.2013 49.3 45.7C47.8333 47 46.9333 47.9833 46.6 48.65C46.3993 49.0514 46.259 49.6521 46.1792 50.4521ZM48 68C45.2333 68 42.6333 67.4747 40.2 66.424C37.7667 65.3733 35.65 63.9487 33.85 62.15C32.05 60.35 30.6253 58.2333 29.576 55.8C28.5267 53.3667 28.0013 50.7667 28 48C28 45.2333 28.5253 42.6333 29.576 40.2C30.6267 37.7667 32.0513 35.65 33.85 33.85C35.65 32.05 37.7667 30.6253 40.2 29.576C42.6333 28.5267 45.2333 28.0013 48 28C50.7667 28 53.3667 28.5253 55.8 29.576C58.2333 30.6267 60.35 32.0513 62.15 33.85C63.95 35.65 65.3753 37.7667 66.426 40.2C67.4767 42.6333 68.0013 45.2333 68 48C68 50.7667 67.4747 53.3667 66.424 55.8C65.3733 58.2333 63.9487 60.35 62.15 62.15C60.35 63.95 58.2333 65.3753 55.8 66.426C53.3667 67.4767 50.7667 68.0013 48 68Z" fill="white"/>
<circle cx="48" cy="48" r="20" fill="white"/>
<path d="M57.6252 45.1992C58.5082 45.7077 59.2241 46.4621 59.6857 47.3704C60.1473 48.2787 60.3346 49.3018 60.2248 50.3147C60.115 51.3277 59.7128 52.2868 59.0672 53.0751C58.4216 53.8634 57.5607 54.4468 56.5892 54.7542C56.2459 56.3123 55.3808 57.7063 54.1371 58.7056C52.8934 59.7049 51.3457 60.2495 49.7502 60.2492H47.1252C46.8932 60.2492 46.6706 60.157 46.5065 59.9929C46.3424 59.8288 46.2502 59.6063 46.2502 59.3742C46.2502 59.1422 46.3424 58.9196 46.5065 58.7555C46.6706 58.5914 46.8932 58.4992 47.1252 58.4992H49.7502C50.8363 58.4995 51.8958 58.1631 52.7827 57.5363C53.6697 56.9095 54.3405 56.0231 54.7027 54.9992H54.1252C53.8932 54.9992 53.6706 54.907 53.5065 54.7429C53.3424 54.5788 53.2502 54.3563 53.2502 54.1242V45.3742C53.2502 45.1422 53.3424 44.9196 53.5065 44.7555C53.6706 44.5914 53.8932 44.4992 54.1252 44.4992H55.0002C55.2837 44.4992 55.562 44.522 55.835 44.5657C55.638 42.6248 54.7276 40.8261 53.2801 39.5181C51.8326 38.2101 49.9511 37.4859 48.0002 37.4859C46.0493 37.4859 44.1679 38.2101 42.7204 39.5181C41.2729 40.8261 40.3625 42.6248 40.1655 44.5657C40.4415 44.5215 40.7207 44.4993 41.0002 44.4992H41.8752C42.1073 44.4992 42.3299 44.5914 42.494 44.7555C42.658 44.9196 42.7502 45.1422 42.7502 45.3742V54.1242C42.7502 54.3563 42.658 54.5788 42.494 54.7429C42.3299 54.907 42.1073 54.9992 41.8752 54.9992H41.0002C39.8435 55.0005 38.7186 54.6197 37.8005 53.916C36.8824 53.2122 36.2225 52.225 35.9232 51.1076C35.6239 49.9902 35.702 48.8052 36.1454 47.7368C36.5888 46.6684 37.3727 45.7763 38.3752 45.1992C38.3752 42.6465 39.3893 40.1984 41.1943 38.3933C42.9994 36.5883 45.4475 35.5742 48.0002 35.5742C50.5529 35.5742 53.0011 36.5883 54.8061 38.3933C56.6112 40.1984 57.6252 42.6465 57.6252 45.1992ZM41.0002 46.2492C40.072 46.2492 39.1817 46.618 38.5254 47.2743C37.869 47.9307 37.5002 48.821 37.5002 49.7492C37.5002 50.6775 37.869 51.5677 38.5254 52.2241C39.1817 52.8805 40.072 53.2492 41.0002 53.2492V46.2492ZM58.5002 49.7492C58.5002 48.821 58.1315 47.9307 57.4751 47.2743C56.8187 46.618 55.9285 46.2492 55.0002 46.2492V53.2492C55.9285 53.2492 56.8187 52.8805 57.4751 52.2241C58.1315 51.5677 58.5002 50.6775 58.5002 49.7492Z" fill="#00A2B9" stroke="#00A2B9" stroke-width="0.466667"/>
</svg>
