<svg width="12" height="12" viewBox="0 0 12 12" fill="none" xmlns="http://www.w3.org/2000/svg">
<path d="M11.6667 1.5C11.8508 1.5 12 1.33219 12 1.125V0.375C12 0.167812 11.8508 0 11.6667 0H0.333333C0.149167 0 0 0.167812 0 0.375V1.125C0 1.33219 0.149167 1.5 0.333333 1.5H0.66625V10.5H0.333333C0.149167 10.5 0 10.6678 0 10.875V11.625C0 11.8322 0.149167 12 0.333333 12H5.33333V10.125C5.33333 9.91875 5.48333 9.75 5.66667 9.75H6.33333C6.51667 9.75 6.66667 9.91875 6.66667 10.125V12H11.6667C11.8508 12 12 11.8322 12 11.625V10.875C12 10.6678 11.8508 10.5 11.6667 10.5H11.3333V1.5H11.6667ZM5.33333 2.55C5.33333 2.4 5.46667 2.25 5.6 2.25H6.4C6.53333 2.25 6.66667 2.4 6.66667 2.55V3.45C6.66667 3.6 6.53333 3.75 6.4 3.75H5.6C5.46667 3.75 5.33333 3.6 5.33333 3.45V2.55ZM5.33333 4.8C5.33333 4.65 5.46667 4.5 5.6 4.5H6.4C6.53333 4.5 6.66667 4.65 6.66667 4.8V5.7C6.66667 5.85 6.53333 6 6.4 6H5.6C5.46667 6 5.33333 5.85 5.33333 5.7V4.8ZM2.66667 2.55C2.66667 2.4 2.8 2.25 2.93333 2.25H3.73333C3.86667 2.25 4 2.4 4 2.55V3.45C4 3.6 3.86667 3.75 3.73333 3.75H2.93333C2.8 3.75 2.66667 3.6 2.66667 3.45V2.55ZM3.73333 6H2.93333C2.8 6 2.66667 5.85 2.66667 5.7V4.8C2.66667 4.65 2.8 4.5 2.93333 4.5H3.73333C3.86667 4.5 4 4.65 4 4.8V5.7C4 5.85 3.86667 6 3.73333 6ZM4 9C4 7.75734 4.89542 6.75 6 6.75C7.10458 6.75 8 7.75734 8 9H4ZM9.33333 5.7C9.33333 5.85 9.2 6 9.06667 6H8.26667C8.13333 6 8 5.85 8 5.7V4.8C8 4.65 8.13333 4.5 8.26667 4.5H9.06667C9.2 4.5 9.33333 4.65 9.33333 4.8V5.7ZM9.33333 3.45C9.33333 3.6 9.2 3.75 9.06667 3.75H8.26667C8.13333 3.75 8 3.6 8 3.45V2.55C8 2.4 8.13333 2.25 8.26667 2.25H9.06667C9.2 2.25 9.33333 2.4 9.33333 2.55V3.45Z" fill="#666666"/>
</svg>
