<svg width="48" height="48" viewBox="0 0 48 48" fill="none" xmlns="http://www.w3.org/2000/svg">
<circle cx="24" cy="24" r="24" fill="#00A2B9" fill-opacity="0.14"/>
<path d="M16.813 11L16.125 11.719L11.719 16.125L11 16.813L18.188 24L13.188 29L13.125 29.313L12.031 34.813L11.719 36.281L13.188 35.969L18.688 34.875L19 34.812L24 29.812L31.156 36.969L31.844 36.25L36.25 31.844L36.969 31.156L29.812 24L34.75 19.062C35.1325 18.6809 35.4361 18.228 35.6432 17.7293C35.8503 17.2306 35.9569 16.696 35.9569 16.156C35.9569 15.616 35.8503 15.0814 35.6432 14.5827C35.4361 14.084 35.1325 13.6311 34.75 13.25C34.3696 12.8656 33.9171 12.5601 33.4185 12.3509C32.9198 12.1417 32.3848 12.033 31.844 12.031C31.3031 12.0329 30.7678 12.1415 30.269 12.3507C29.7701 12.5599 29.3175 12.8655 28.937 13.25L24 18.188L16.813 11ZM16.813 13.844L18.75 15.812L17.281 17.282L18.719 18.719L20.188 17.25L22.562 19.625L19.594 22.594L13.813 16.813L16.813 13.844ZM31.843 13.969C32.363 13.969 32.891 14.203 33.343 14.656C34.246 15.559 34.246 16.723 33.343 17.625L32.688 18.281L29.718 15.312L30.375 14.656C30.828 14.203 31.325 13.969 31.844 13.969H31.843ZM28.313 16.719L31.281 19.688L19.188 31.78C18.5261 30.5093 17.4892 29.4731 16.218 28.812L28.313 16.719ZM28.406 25.406L30.781 27.781L29.281 29.281L30.719 30.719L32.219 29.219L34.125 31.125L31.125 34.125L25.406 28.406L28.406 25.406ZM14.938 30.406C16.137 30.9099 17.0906 31.8638 17.594 33.063L14.281 33.719L14.938 30.406Z" fill="#00A2B9"/>
</svg>
