<svg width="83" height="82" viewBox="0 0 83 82" fill="none" xmlns="http://www.w3.org/2000/svg">
<g filter="url(#filter0_d_10147_63530)">
<path d="M21.9424 47C21.9424 50.3137 24.6287 53 27.9424 53H47.9424C51.2561 53 53.9424 50.3137 53.9424 47V21H27.9424C24.6287 21 21.9424 23.6863 21.9424 27V47Z" fill="#F3AF00"/>
</g>
<path d="M53.9424 21H55.9424C59.2561 21 61.9424 23.6863 61.9424 27H53.9424V21Z" fill="#F3AF00"/>
<path d="M53.9424 21H55.9424C59.2561 21 61.9424 23.6863 61.9424 27H53.9424V21Z" fill="#25262B" fill-opacity="0.4"/>
<path d="M37.4669 28.4635C37.6165 28.0029 38.2682 28.0029 38.4179 28.4635L40.0753 33.5643C40.1422 33.7703 40.3342 33.9098 40.5508 33.9098H45.9141C46.3985 33.9098 46.5999 34.5296 46.208 34.8143L41.869 37.9668C41.6937 38.0941 41.6204 38.3198 41.6874 38.5258L43.3447 43.6266C43.4944 44.0873 42.9671 44.4704 42.5753 44.1857L38.2363 41.0332C38.061 40.9059 37.8237 40.9059 37.6485 41.0332L33.3095 44.1857C32.9176 44.4704 32.3904 44.0873 32.5401 43.6266L34.1974 38.5258C34.2643 38.3198 34.191 38.0941 34.0158 37.9668L29.6768 34.8143C29.2849 34.5296 29.4863 33.9098 29.9707 33.9098H35.334C35.5506 33.9098 35.7426 33.7703 35.8095 33.5643L37.4669 28.4635Z" fill="white"/>
<defs>
<filter id="filter0_d_10147_63530" x="0.942383" y="0" width="82" height="82" filterUnits="userSpaceOnUse" color-interpolation-filters="sRGB">
<feFlood flood-opacity="0" result="BackgroundImageFix"/>
<feColorMatrix in="SourceAlpha" type="matrix" values="0 0 0 0 0 0 0 0 0 0 0 0 0 0 0 0 0 0 127 0" result="hardAlpha"/>
<feOffset dx="4" dy="4"/>
<feGaussianBlur stdDeviation="12.5"/>
<feComposite in2="hardAlpha" operator="out"/>
<feColorMatrix type="matrix" values="0 0 0 0 0.4375 0 0 0 0 0.4375 0 0 0 0 0.4375 0 0 0 0.12 0"/>
<feBlend mode="normal" in2="BackgroundImageFix" result="effect1_dropShadow_10147_63530"/>
<feBlend mode="normal" in="SourceGraphic" in2="effect1_dropShadow_10147_63530" result="shape"/>
</filter>
</defs>
</svg>
