<svg width="512" height="512" viewBox="0 0 512 512" fill="none" xmlns="http://www.w3.org/2000/svg">
<path d="M116.438 184.155C88.3608 214.709 115.612 250.219 122.219 256C133.214 265.62 231.225 360.051 231.225 360.051C245.264 373.264 274.167 372.439 286.554 360.051C286.554 360.051 400.516 247.742 406.296 241.961C407.948 240.309 425.29 204.8 400.516 180.026C374.09 153.6 339.406 170.942 335.277 175.071C328.733 181.614 265.083 253.678 244.438 260.129C218.012 268.387 201.496 238.658 201.496 238.658C201.496 238.658 206.369 207.65 196.541 192.413C181.829 169.601 141.757 156.602 116.438 184.155Z" fill="#11A9BE" stroke="#11A9BE" stroke-width="1.65161"/>
<path d="M425.225 130.39C450.067 163.206 464.622 202.652 467.047 243.739C469.471 284.826 459.659 325.71 438.849 361.22C418.039 396.731 387.165 425.273 350.133 443.236C313.102 461.2 271.574 467.78 230.803 462.143" stroke="#364041" stroke-width="4.95484" stroke-linecap="round"/>
<path d="M95.6086 384.493C67.077 348.146 51.4544 303.334 51.204 257.127C50.9534 210.918 66.0893 165.942 94.2254 129.287" stroke="#364041" stroke-width="4.95484" stroke-linecap="round"/>
<path d="M178.951 64.0359C213.997 49.3664 252.388 44.5705 289.966 50.1679" stroke="#364041" stroke-width="4.95484" stroke-linecap="round"/>
<path d="M372.531 63.9208C422.355 93.2914 458.818 140.874 474.221 196.623" stroke="#11A9BE" stroke-width="8.25806" stroke-linecap="round"/>
<path d="M313.885 472.184C256.55 486.659 195.813 477.767 145.034 447.459C94.2559 417.152 57.5965 367.916 43.1206 310.58" stroke="#11A9BE" stroke-width="8.25806" stroke-linecap="round"/>
<path d="M67.625 142.099C87.224 109.116 115.002 81.7489 148.273 62.6435C181.544 43.538 219.183 33.3409 257.548 33.0385" stroke="#11A9BE" stroke-width="8.25806" stroke-linecap="round"/>
<path d="M479.794 260.955C482.075 260.955 483.923 259.106 483.923 256.826C483.923 254.546 482.075 252.697 479.794 252.697C477.514 252.697 475.665 254.546 475.665 256.826C475.665 259.106 477.514 260.955 479.794 260.955Z" fill="#11A9BE"/>
<path d="M473.187 318.761C475.468 318.761 477.316 316.913 477.316 314.632C477.316 312.352 475.468 310.503 473.187 310.503C470.907 310.503 469.058 312.352 469.058 314.632C469.058 316.913 470.907 318.761 473.187 318.761Z" fill="#11A9BE"/>
<path d="M450.067 371.613C452.347 371.613 454.196 369.764 454.196 367.484C454.196 365.204 452.347 363.355 450.067 363.355C447.786 363.355 445.938 365.204 445.938 367.484C445.938 369.764 447.786 371.613 450.067 371.613Z" fill="#11A9BE"/>
<path d="M413.727 416.207C416.008 416.207 417.856 414.358 417.856 412.078C417.856 409.797 416.008 407.949 413.727 407.949C411.447 407.949 409.598 409.797 409.598 412.078C409.598 414.358 411.447 416.207 413.727 416.207Z" fill="#11A9BE"/>
<path d="M367.482 450.89C369.762 450.89 371.611 449.042 371.611 446.761C371.611 444.481 369.762 442.632 367.482 442.632C365.201 442.632 363.353 444.481 363.353 446.761C363.353 449.042 365.201 450.89 367.482 450.89Z" fill="#11A9BE"/>
<path d="M37.1603 257.651C39.4407 257.651 41.2893 255.803 41.2893 253.522C41.2893 251.242 39.4407 249.393 37.1603 249.393C34.8799 249.393 33.0312 251.242 33.0312 253.522C33.0312 255.803 34.8799 257.651 37.1603 257.651Z" fill="#11A9BE"/>
<path d="M45.4193 199.845C47.6997 199.845 49.5483 197.996 49.5483 195.716C49.5483 193.436 47.6997 191.587 45.4193 191.587C43.1389 191.587 41.2903 193.436 41.2903 195.716C41.2903 197.996 43.1389 199.845 45.4193 199.845Z" fill="#11A9BE"/>
<path d="M317.937 46.2452C320.218 46.2452 322.066 44.3966 322.066 42.1162C322.066 39.8358 320.218 37.9872 317.937 37.9872C315.657 37.9872 313.808 39.8358 313.808 42.1162C313.808 44.3966 315.657 46.2452 317.937 46.2452Z" fill="#11A9BE"/>
<path d="M132.955 94.1418C134.323 94.1418 135.433 93.0326 135.433 91.6644C135.433 90.2961 134.323 89.1869 132.955 89.1869C131.587 89.1869 130.478 90.2961 130.478 91.6644C130.478 93.0326 131.587 94.1418 132.955 94.1418Z" fill="#364041"/>
<path d="M132.955 421.161C134.323 421.161 135.433 420.052 135.433 418.684C135.433 417.316 134.323 416.206 132.955 416.206C131.587 416.206 130.478 417.316 130.478 418.684C130.478 420.052 131.587 421.161 132.955 421.161Z" fill="#364041"/>
<path d="M179.201 447.587C180.569 447.587 181.678 446.478 181.678 445.11C181.678 443.741 180.569 442.632 179.201 442.632C177.832 442.632 176.723 443.741 176.723 445.11C176.723 446.478 177.832 447.587 179.201 447.587Z" fill="#364041"/>
<path d="M337.754 67.716C339.123 67.716 340.232 66.6068 340.232 65.2386C340.232 63.8703 339.123 62.7612 337.754 62.7612C336.386 62.7612 335.277 63.8703 335.277 65.2386C335.277 66.6068 336.386 67.716 337.754 67.716Z" fill="#364041"/>
<path d="M385.651 94.1418C387.02 94.1418 388.129 93.0326 388.129 91.6644C388.129 90.2961 387.02 89.1869 385.651 89.1869C384.283 89.1869 383.174 90.2961 383.174 91.6644C383.174 93.0326 384.283 94.1418 385.651 94.1418Z" fill="#364041"/>
</svg>
