<svg width="28" height="29" viewBox="0 0 28 29" fill="none" xmlns="http://www.w3.org/2000/svg">
<path d="M8.16667 20.3333V18C8.16667 17.3812 8.4125 16.7877 8.85008 16.3501C9.28767 15.9125 9.88116 15.6667 10.5 15.6667H17.5C18.1188 15.6667 18.7123 15.9125 19.1499 16.3501C19.5875 16.7877 19.8333 17.3812 19.8333 18V20.3333M8.16667 20.3333V22.6667C8.16667 23.2855 8.4125 23.879 8.85008 24.3166C9.28767 24.7542 9.88116 25 10.5 25H17.5C18.1188 25 18.7123 24.7542 19.1499 24.3166C19.5875 23.879 19.8333 23.2855 19.8333 22.6667V20.3333M8.16667 20.3333H5.83333C5.21449 20.3333 4.621 20.0875 4.18342 19.6499C3.74583 19.2123 3.5 18.6188 3.5 18V11C3.5 10.3812 3.74583 9.78767 4.18342 9.35008C4.621 8.9125 5.21449 8.66667 5.83333 8.66667H7M7 8.66667V6.33333C7 5.71449 7.24583 5.121 7.68342 4.68342C8.121 4.24583 8.71449 4 9.33333 4H18.6667C19.2855 4 19.879 4.24583 20.3166 4.68342C20.7542 5.121 21 5.71449 21 6.33333V8.66667M7 8.66667H21M21 8.66667H22.1667C22.7855 8.66667 23.379 8.9125 23.8166 9.35008C24.2542 9.78767 24.5 10.3812 24.5 11V18C24.5 18.6188 24.2542 19.2123 23.8166 19.6499C23.379 20.0875 22.7855 20.3333 22.1667 20.3333H19.8333M8.16667 12.1667H9.33333" stroke="#00A2B9" stroke-width="2.33333" stroke-linecap="round" stroke-linejoin="round"/>
</svg>
