<svg width="32" height="32" viewBox="0 0 32 32" fill="none" xmlns="http://www.w3.org/2000/svg">
<rect x="4" y="8" width="24" height="10" fill="#F3AF00"/>
<path d="M26.6667 5.33337H5.33341C3.86675 5.33337 2.68008 6.53337 2.68008 8.00004L2.66675 24C2.66675 25.4667 3.86675 26.6667 5.33341 26.6667H26.6667C28.1334 26.6667 29.3334 25.4667 29.3334 24V8.00004C29.3334 6.53337 28.1334 5.33337 26.6667 5.33337ZM26.1334 11L16.7067 16.8934C16.2801 17.16 15.7201 17.16 15.2934 16.8934L5.86675 11C5.73305 10.925 5.61597 10.8236 5.5226 10.702C5.42923 10.5804 5.3615 10.4411 5.32352 10.2925C5.28553 10.144 5.27808 9.98929 5.30162 9.83778C5.32516 9.68628 5.3792 9.54113 5.46046 9.41111C5.54172 9.28109 5.64851 9.16891 5.77438 9.08137C5.90025 8.99382 6.04258 8.93272 6.19274 8.90177C6.34291 8.87082 6.49779 8.87066 6.64802 8.9013C6.79825 8.93195 6.9407 8.99275 7.06675 9.08004L16.0001 14.6667L24.9334 9.08004C25.0595 8.99275 25.2019 8.93195 25.3521 8.9013C25.5024 8.87066 25.6573 8.87082 25.8074 8.90177C25.9576 8.93272 26.0999 8.99382 26.2258 9.08137C26.3516 9.16891 26.4584 9.28109 26.5397 9.41111C26.621 9.54113 26.675 9.68628 26.6985 9.83778C26.7221 9.98929 26.7146 10.144 26.6766 10.2925C26.6387 10.4411 26.5709 10.5804 26.4776 10.702C26.3842 10.8236 26.2671 10.925 26.1334 11Z" fill="#00A2B9"/>
</svg>
