<svg width="28" height="29" viewBox="0 0 28 29" fill="none" xmlns="http://www.w3.org/2000/svg">
<path d="M20.9999 9.23778C20.9999 9.23778 23.3333 8.06761 24.7811 9.25294C25.0168 9.44311 25.3108 9.82111 25.4403 10.0976C25.6666 10.5841 25.6666 11.0554 25.6666 12.0004V22.4555C25.6666 23.6291 24.4533 24.4353 23.3333 24.174C22.1854 23.9103 21.011 23.7792 19.8333 23.7831C17.5968 23.7831 15.5539 24.2335 13.9999 24.9755C12.4459 25.7175 10.4031 26.1666 8.16658 26.1666C6.92292 26.1666 5.73992 26.0266 4.66659 25.777C3.97709 25.6148 3.63175 25.5343 3.21875 25.2006C2.94659 24.9638 2.72276 24.6766 2.55959 24.3548C2.33325 23.8683 2.33325 23.397 2.33325 22.4531V12.0004C2.33325 10.8244 3.54659 10.0171 4.66659 10.2808C5.57075 10.4919 6.55309 10.6238 7.58325 10.6599" stroke="#00A2B9" stroke-width="2" stroke-linecap="round" stroke-linejoin="round"/>
<path d="M6.4165 18.4168V18.4273M21.5832 16.0742V16.0858M16.9165 17.2502C16.9165 18.0237 16.6092 18.7656 16.0622 19.3126C15.5153 19.8595 14.7734 20.1668 13.9998 20.1668C13.2263 20.1668 12.4844 19.8595 11.9374 19.3126C11.3905 18.7656 11.0832 18.0237 11.0832 17.2502C11.0832 16.4766 11.3905 15.7347 11.9374 15.1878C12.4844 14.6408 13.2263 14.3335 13.9998 14.3335C14.7734 14.3335 15.5153 14.6408 16.0622 15.1878C16.6092 15.7347 16.9165 16.4766 16.9165 17.2502Z" stroke="#00A2B9" stroke-width="2" stroke-linecap="round" stroke-linejoin="round"/>
<path d="M11.1716 8.82845C11.5426 9.20044 11.9835 9.49544 12.4689 9.6965C12.9543 9.89755 13.4746 10.0007 14 10C16.2091 10 18 8.20911 18 6C18 3.79089 16.2091 2 14 2C12.8956 2 11.8956 2.44778 11.1716 3.17156C10.8031 3.54 10 4.44444 10 4.44444" stroke="#00A2B9" stroke-width="1.8" stroke-linecap="round" stroke-linejoin="round"/>
<path d="M10 2.44385V4.44385H12" stroke="#00A2B9" stroke-width="1.5" stroke-linecap="round" stroke-linejoin="round"/>
</svg>
