<svg width="44" height="32" viewBox="0 0 44 32" fill="none" xmlns="http://www.w3.org/2000/svg">
<rect width="44" height="32" rx="16" fill="white"/>
<path d="M17.8438 11.0469V21H16.1279V11.0469H17.8438ZM22.8682 21H20.7422L20.7559 19.6396H22.8682C23.4834 19.6396 23.9984 19.5052 24.4131 19.2363C24.8324 18.9674 25.1468 18.5824 25.3564 18.0811C25.5706 17.5798 25.6777 16.9827 25.6777 16.29V15.75C25.6777 15.2122 25.6162 14.736 25.4932 14.3213C25.3747 13.9066 25.1969 13.5579 24.96 13.2754C24.7275 12.9928 24.4404 12.7786 24.0986 12.6328C23.7614 12.487 23.3717 12.4141 22.9297 12.4141H20.7012V11.0469H22.9297C23.5905 11.0469 24.1943 11.1585 24.7412 11.3818C25.2881 11.6006 25.7598 11.9173 26.1562 12.332C26.5573 12.7467 26.8649 13.2435 27.0791 13.8223C27.2933 14.401 27.4004 15.0482 27.4004 15.7637V16.29C27.4004 17.0055 27.2933 17.6527 27.0791 18.2314C26.8649 18.8102 26.5573 19.307 26.1562 19.7217C25.7552 20.1318 25.2767 20.4486 24.7207 20.6719C24.1693 20.8906 23.5518 21 22.8682 21ZM21.6924 11.0469V21H19.9766V11.0469H21.6924Z" fill="#00A2B9"/>
</svg>
