<svg width="124" height="124" viewBox="0 0 124 124" fill="none" xmlns="http://www.w3.org/2000/svg">
<circle cx="64" cy="64" r="60" fill="#EFEFEF"/>
<path d="M51.5 51.5C51.5 50.837 51.7634 50.2011 52.2322 49.7322C52.7011 49.2634 53.337 49 54 49H74C74.3949 48.9996 74.7843 49.0927 75.1363 49.2717C75.4882 49.4507 75.7928 49.7106 76.025 50.03C73.82 50.895 71.875 52.265 70.32 54H54C53.337 54 52.7011 53.7366 52.2322 53.2678C51.7634 52.7989 51.5 52.163 51.5 51.5ZM66.5 64H54C53.337 64 52.7011 64.2634 52.2322 64.7322C51.7634 65.2011 51.5 65.837 51.5 66.5C51.5 67.163 51.7634 67.7989 52.2322 68.2678C52.7011 68.7366 53.337 69 54 69H67.35C66.8 67.435 66.5 65.75 66.5 64ZM61.04 94H46.5C45.837 94 45.2011 93.7366 44.7322 93.2678C44.2634 92.7989 44 92.163 44 91.5V41.5C44 40.837 44.2634 40.2011 44.7322 39.7322C45.2011 39.2634 45.837 39 46.5 39H81.5C82.163 39 82.7989 39.2634 83.2678 39.7322C83.7366 40.2011 84 40.837 84 41.5V49.205C85.795 49.505 87.48 50.13 89 51.005V41.5C89 39.5109 88.2098 37.6032 86.8033 36.1967C85.3968 34.7902 83.4891 34 81.5 34V31.5C81.5 30.837 81.2366 30.2011 80.7678 29.7322C80.2989 29.2634 79.663 29 79 29C78.337 29 77.7011 29.2634 77.2322 29.7322C76.7634 30.2011 76.5 30.837 76.5 31.5V34H66.5V31.5C66.5 30.837 66.2366 30.2011 65.7678 29.7322C65.2989 29.2634 64.663 29 64 29C63.337 29 62.7011 29.2634 62.2322 29.7322C61.7634 30.2011 61.5 30.837 61.5 31.5V34H51.5V31.5C51.5 30.837 51.2366 30.2011 50.7678 29.7322C50.2989 29.2634 49.663 29 49 29C48.337 29 47.7011 29.2634 47.2322 29.7322C46.7634 30.2011 46.5 30.837 46.5 31.5V34C44.5109 34 42.6032 34.7902 41.1967 36.1967C39.7902 37.6032 39 39.5109 39 41.5V91.5C39 93.4891 39.7902 95.3968 41.1967 96.8033C42.6032 98.2098 44.5109 99 46.5 99H64.43C64.63 99 64.82 98.99 65.02 98.975C63.4022 97.5721 62.0535 95.8863 61.04 94ZM70.05 96.485C68.2157 95.3857 66.6954 93.8325 65.6358 91.975C64.5761 90.1176 64.0127 88.0185 64 85.88C64 82.515 66.655 79.76 70.05 79.465C70.24 79.45 70.44 79.44 70.64 79.44H92.36C96.025 79.44 99 82.325 99 85.88C99 91.625 94.965 96.635 89.21 98.03L88.795 98.13C84.0008 99.2898 78.9992 99.2898 74.205 98.13L73.79 98.03C72.471 97.7113 71.2094 97.1901 70.05 96.485ZM89 70.615C87.6564 72.1385 85.8808 73.2166 83.9094 73.706C81.938 74.1954 79.8642 74.0729 77.9642 73.3547C76.0641 72.6364 74.4278 71.3566 73.2731 69.6855C72.1183 68.0144 71.4999 66.0313 71.5 64C71.5001 62.382 71.8928 60.7882 72.6444 59.3554C73.396 57.9226 74.484 56.6935 75.8151 55.7737C77.1462 54.8539 78.6806 54.2708 80.2866 54.0745C81.8927 53.8782 83.5224 54.0745 85.0358 54.6466C86.5493 55.2187 87.9013 56.1495 88.9759 57.3591C90.0505 58.5687 90.8156 60.0209 91.2054 61.5912C91.5952 63.1616 91.5982 64.803 91.2141 66.3747C90.83 67.9465 90.0702 69.4015 89 70.615ZM51.5 81.5C51.5 80.837 51.7634 80.2011 52.2322 79.7322C52.7011 79.2634 53.337 79 54 79H56.5C57.163 79 57.7989 79.2634 58.2678 79.7322C58.7366 80.2011 59 80.837 59 81.5C59 82.163 58.7366 82.7989 58.2678 83.2678C57.7989 83.7366 57.163 84 56.5 84H54C53.337 84 52.7011 83.7366 52.2322 83.2678C51.7634 82.7989 51.5 82.163 51.5 81.5Z" fill="#BDBDBD"/>
<circle cx="20" cy="20" r="18" fill="#25262B" stroke="white" stroke-width="4"/>
<path d="M21.8782 19.9989L27.606 14.2836C27.8568 14.0327 27.9977 13.6925 27.9977 13.3377C27.9977 12.9829 27.8568 12.6427 27.606 12.3918C27.3552 12.1409 27.015 12 26.6602 12C26.3055 12 25.9653 12.1409 25.7145 12.3918L20 18.1204L14.2855 12.3918C14.0347 12.1409 13.6945 12 13.3398 12C12.985 12 12.6448 12.1409 12.394 12.3918C12.1432 12.6427 12.0023 12.9829 12.0023 13.3377C12.0023 13.6925 12.1432 14.0327 12.394 14.2836L18.1218 19.9989L12.394 25.7142C12.2692 25.838 12.1701 25.9853 12.1024 26.1477C12.0348 26.31 12 26.4842 12 26.66C12 26.8359 12.0348 27.01 12.1024 27.1724C12.1701 27.3347 12.2692 27.4821 12.394 27.6059C12.5178 27.7308 12.6652 27.8299 12.8275 27.8975C12.9898 27.9652 13.1639 28 13.3398 28C13.5156 28 13.6897 27.9652 13.852 27.8975C14.0144 27.8299 14.1617 27.7308 14.2855 27.6059L20 21.8773L25.7145 27.6059C25.8383 27.7308 25.9856 27.8299 26.148 27.8975C26.3103 27.9652 26.4844 28 26.6602 28C26.8361 28 27.0102 27.9652 27.1725 27.8975C27.3348 27.8299 27.4822 27.7308 27.606 27.6059C27.7308 27.4821 27.8299 27.3347 27.8976 27.1724C27.9652 27.01 28 26.8359 28 26.66C28 26.4842 27.9652 26.31 27.8976 26.1477C27.8299 25.9853 27.7308 25.838 27.606 25.7142L21.8782 19.9989Z" fill="white"/>
</svg>
