<svg width="48" height="48" viewBox="0 0 48 48" fill="none" xmlns="http://www.w3.org/2000/svg">
<circle cx="24" cy="24" r="24" fill="#00A2B9" fill-opacity="0.14"/>
<path d="M34.6983 12.4033C33.8621 12.2587 33.0153 12.1846 32.1667 12.1816C29.2714 12.1793 26.4366 13.0095 24 14.5733C21.5572 13.03 18.7228 12.2202 15.8334 12.24C14.9847 12.2429 14.1379 12.3171 13.3017 12.4616C13.0278 12.5089 12.7797 12.6523 12.6022 12.8662C12.4246 13.0801 12.3293 13.3504 12.3334 13.6283V27.6283C12.3309 27.7997 12.3662 27.9696 12.4368 28.1258C12.5074 28.2821 12.6116 28.4208 12.7419 28.5322C12.8722 28.6436 13.0255 28.7249 13.1908 28.7703C13.3561 28.8157 13.5294 28.8241 13.6984 28.795C15.3702 28.5055 17.0831 28.5535 18.7361 28.9362C20.3891 29.3189 21.9488 30.0286 23.3234 31.0233L23.4634 31.105H23.5917C23.7209 31.1595 23.8598 31.1876 24 31.1876C24.1403 31.1876 24.2791 31.1595 24.4084 31.105H24.5367L24.6767 31.0233C26.0416 30.0063 27.5969 29.2737 29.2502 28.8689C30.9035 28.4641 32.6213 28.3953 34.3017 28.6666C34.4706 28.6958 34.6439 28.6874 34.8092 28.642C34.9746 28.5965 35.1278 28.5152 35.2581 28.4038C35.3885 28.2925 35.4926 28.1537 35.5633 27.9975C35.6339 27.8413 35.6692 27.6714 35.6667 27.5V13.5C35.6545 13.2342 35.5519 12.9805 35.3758 12.781C35.1996 12.5815 34.9606 12.4483 34.6983 12.4033ZM22.8334 27.9083C20.6744 26.7741 18.2721 26.1815 15.8334 26.1816H14.6667V14.515C15.0553 14.4934 15.4448 14.4934 15.8334 14.515C18.3223 14.5122 20.7569 15.2426 22.8334 16.615V27.9083ZM33.3333 26.2283H32.1667C29.7279 26.2282 27.3257 26.8208 25.1667 27.955V16.615C27.2431 15.2426 29.6777 14.5122 32.1667 14.515C32.5553 14.4934 32.9448 14.4934 33.3333 14.515V26.2283ZM34.6983 31.07C33.8621 30.9254 33.0153 30.8512 32.1667 30.8483C29.2714 30.8459 26.4366 31.6761 24 33.24C21.5635 31.6761 18.7286 30.8459 15.8334 30.8483C14.9847 30.8512 14.1379 30.9254 13.3017 31.07C13.1498 31.0941 13.0042 31.148 12.8732 31.2285C12.7423 31.3091 12.6285 31.4148 12.5385 31.5395C12.4485 31.6641 12.3841 31.8054 12.3489 31.9551C12.3137 32.1047 12.3084 32.2599 12.3334 32.4116C12.3926 32.7146 12.5696 32.9817 12.8254 33.1545C13.0813 33.3272 13.3952 33.3915 13.6984 33.3333C15.3702 33.0438 17.0831 33.0919 18.7361 33.4746C20.3891 33.8573 21.9488 34.5669 23.3234 35.5616C23.5209 35.7023 23.7575 35.7779 24 35.7779C24.2426 35.7779 24.4791 35.7023 24.6767 35.5616C26.0512 34.5669 27.6109 33.8573 29.2639 33.4746C30.9169 33.0919 32.6298 33.0438 34.3017 33.3333C34.6049 33.3915 34.9187 33.3272 35.1746 33.1545C35.4304 32.9817 35.6074 32.7146 35.6667 32.4116C35.6916 32.2599 35.6864 32.1047 35.6512 31.9551C35.6159 31.8054 35.5515 31.6641 35.4615 31.5395C35.3715 31.4148 35.2578 31.3091 35.1268 31.2285C34.9958 31.148 34.8502 31.0941 34.6983 31.07Z" fill="#00A2B9"/>
</svg>
