<svg width="28" height="28" viewBox="0 0 28 28" fill="none" xmlns="http://www.w3.org/2000/svg">
<g clip-path="url(#clip0_646_12539)">
<g filter="url(#filter0_ii_646_12539)">
<path fill-rule="evenodd" clip-rule="evenodd" d="M26.5309 17.8494C26.5309 18.1703 26.5063 18.4862 26.4645 18.7957C26.0654 15.3086 23.1062 12.6003 19.5123 12.6003C15.6464 12.6004 12.5123 15.7344 12.5123 19.6003C12.5124 21.6916 13.4314 23.5668 14.8854 24.8494H7.52014C6.65057 24.8492 5.94518 24.1447 5.94495 23.2751V6.2439L26.5309 6.24292V17.8494Z" fill="#0C7889"/>
</g>
<g filter="url(#filter1_i_646_12539)">
<path fill-rule="evenodd" clip-rule="evenodd" d="M26.5305 6.2439C26.5286 6.25733 26.0074 9.84011 25.4729 13.0437C25.3619 13.709 25.1742 14.4423 24.9475 15.1902C23.6641 13.6104 21.7069 12.6005 19.5129 12.6003C15.6469 12.6003 12.5129 15.7343 12.5129 19.6003C12.513 20.2046 12.5887 20.791 12.7327 21.3503H2.42895C1.39726 21.3503 0.70748 20.2662 1.10962 19.3162C1.85331 17.5602 2.83357 15.0041 3.1604 13.0437C3.69537 9.83404 4.21704 6.2439 4.21704 6.2439H26.5305Z" fill="#00A2B9"/>
</g>
<path d="M5.60809 2.84204H25.1315C25.8815 2.84223 26.489 3.45044 26.489 4.20044V6.25806H4.24969V4.19946C4.24982 3.44947 4.85805 2.84204 5.60809 2.84204Z" fill="#FFB81F" stroke="url(#paint0_linear_646_12539)" stroke-width="0.0835785"/>
<foreignObject x="-135.511" y="-109.106" width="284.848" height="284.106"><div xmlns="http://www.w3.org/1999/xhtml" style="backdrop-filter:blur(7px);clip-path:url(#bgblur_1_646_12539_clip_path);height:100%;width:100%"></div></foreignObject><g opacity="0.4" filter="url(#filter2_d_646_12539)" data-figma-bg-blur-radius="14">
<path d="M5.20282 14.6203C5.28205 14.3105 5.56119 14.0938 5.881 14.0938H8.63595C9.09291 14.0938 9.42734 14.5245 9.31413 14.9672L8.62213 17.6734C8.5429 17.9832 8.26376 18.2 7.94395 18.2H5.189C4.73204 18.2 4.39761 17.7693 4.51082 17.3265L5.20282 14.6203Z" fill="url(#paint1_linear_646_12539)" fill-opacity="0.9"/>
<path d="M5.88123 14.1289H8.63611C9.07013 14.129 9.38817 14.5385 9.28064 14.959L8.58826 17.665C8.51289 17.9592 8.24744 18.165 7.94373 18.165H5.18884C4.75482 18.1649 4.43678 17.7555 4.54431 17.335L5.23669 14.6289C5.31199 14.3346 5.57744 14.1289 5.88123 14.1289Z" stroke="url(#paint2_linear_646_12539)" stroke-width="0.07"/>
</g>
<foreignObject x="-121.567" y="-114.8" width="284.822" height="284.119"><div xmlns="http://www.w3.org/1999/xhtml" style="backdrop-filter:blur(7px);clip-path:url(#bgblur_2_646_12539_clip_path);height:100%;width:100%"></div></foreignObject><g opacity="0.4" filter="url(#filter3_d_646_12539)" data-figma-bg-blur-radius="14">
<path d="M19.1155 8.93436C19.1919 8.62074 19.4728 8.40002 19.7956 8.40002H22.5546C23.0083 8.40002 23.3421 8.82492 23.2348 9.26569L22.5725 11.9844C22.4961 12.2981 22.2152 12.5188 21.8924 12.5188H19.1333C18.6797 12.5188 18.3459 12.0939 18.4532 11.6531L19.1155 8.93436Z" fill="url(#paint3_linear_646_12539)" fill-opacity="0.9"/>
<path d="M19.7951 8.43518H22.5549C22.9857 8.43532 23.3024 8.83879 23.2004 9.25745L22.5383 11.9762C22.4657 12.274 22.1992 12.4838 21.8928 12.484H19.133C18.7023 12.4838 18.3857 12.0803 18.4875 11.6617L19.1496 8.94299C19.2221 8.64521 19.4887 8.4354 19.7951 8.43518Z" stroke="url(#paint4_linear_646_12539)" stroke-width="0.07"/>
</g>
<foreignObject x="-127.859" y="-114.8" width="284.822" height="284.119"><div xmlns="http://www.w3.org/1999/xhtml" style="backdrop-filter:blur(7px);clip-path:url(#bgblur_3_646_12539_clip_path);height:100%;width:100%"></div></foreignObject><g opacity="0.4" filter="url(#filter4_d_646_12539)" data-figma-bg-blur-radius="14">
<path d="M12.824 8.93436C12.9004 8.62074 13.1813 8.40002 13.5041 8.40002H16.2631C16.7168 8.40002 17.0506 8.82492 16.9433 9.26569L16.281 11.9844C16.2046 12.2981 15.9237 12.5188 15.6009 12.5188H12.8418C12.3882 12.5188 12.0544 12.0939 12.1617 11.6531L12.824 8.93436Z" fill="url(#paint5_linear_646_12539)" fill-opacity="0.9"/>
<path d="M13.5036 8.43518H16.2634C16.6942 8.43532 17.0109 8.83879 16.9089 9.25745L16.2468 11.9762C16.1742 12.274 15.9077 12.4838 15.6013 12.484H12.8415C12.4108 12.4838 12.0942 12.0803 12.196 11.6617L12.8581 8.94299C12.9306 8.64521 13.1972 8.4354 13.5036 8.43518Z" stroke="url(#paint6_linear_646_12539)" stroke-width="0.07"/>
</g>
<foreignObject x="-134.15" y="-114.8" width="284.822" height="284.119"><div xmlns="http://www.w3.org/1999/xhtml" style="backdrop-filter:blur(7px);clip-path:url(#bgblur_4_646_12539_clip_path);height:100%;width:100%"></div></foreignObject><g filter="url(#filter5_d_646_12539)" data-figma-bg-blur-radius="14">
<path d="M6.53215 8.93436C6.60855 8.62074 6.88948 8.40002 7.21227 8.40002H9.97133C10.425 8.40002 10.7588 8.82492 10.6514 9.26569L9.98921 11.9844C9.91282 12.2981 9.63188 12.5188 9.3091 12.5188H6.55003C6.09638 12.5188 5.76255 12.0939 5.86992 11.6531L6.53215 8.93436Z" fill="#E6F6F8"/>
<path d="M7.21179 8.43518H9.97156C10.4024 8.43532 10.719 8.83879 10.6171 9.25745L9.95496 11.9762C9.88238 12.274 9.61592 12.4838 9.30945 12.484H6.54968C6.11898 12.4838 5.80241 12.0803 5.90417 11.6617L6.56628 8.94299C6.63882 8.64521 6.90534 8.4354 7.21179 8.43518Z" stroke="url(#paint7_linear_646_12539)" stroke-width="0.07"/>
</g>
<foreignObject x="-129.211" y="-109.106" width="284.36" height="284.106"><div xmlns="http://www.w3.org/1999/xhtml" style="backdrop-filter:blur(7px);clip-path:url(#bgblur_5_646_12539_clip_path);height:100%;width:100%"></div></foreignObject><g opacity="0.4" filter="url(#filter6_d_646_12539)" data-figma-bg-blur-radius="14">
<path fill-rule="evenodd" clip-rule="evenodd" d="M14.9358 14.0936C15.0107 14.0936 15.0819 14.1066 15.1487 14.1278C13.89 15.1329 12.9851 16.5622 12.6526 18.2001H11.4896C11.0326 18.2001 10.6976 17.7688 10.8108 17.326L11.5032 14.62C11.5826 14.3104 11.8613 14.0937 12.181 14.0936H14.9358Z" fill="url(#paint8_linear_646_12539)" fill-opacity="0.9"/>
</g>
<circle cx="19.5125" cy="19.6" r="5.55821" fill="#FFB81F" stroke="url(#paint9_linear_646_12539)" stroke-width="0.0835785"/>
<g clip-path="url(#clip6_646_12539)">
<path d="M21.9625 22.2249L20.6938 20.9562M21.3792 19.3083C21.3792 20.597 20.3345 21.6416 19.0459 21.6416C17.7572 21.6416 16.7125 20.597 16.7125 19.3083C16.7125 18.0196 17.7572 16.975 19.0459 16.975C20.3345 16.975 21.3792 18.0196 21.3792 19.3083Z" stroke="white" stroke-width="1.05" stroke-linecap="round" stroke-linejoin="round"/>
</g>
</g>
<defs>
<filter id="filter0_ii_646_12539" x="5.05245" y="4.45792" width="23.2634" height="21.2839" filterUnits="userSpaceOnUse" color-interpolation-filters="sRGB">
<feFlood flood-opacity="0" result="BackgroundImageFix"/>
<feBlend mode="normal" in="SourceGraphic" in2="BackgroundImageFix" result="shape"/>
<feColorMatrix in="SourceAlpha" type="matrix" values="0 0 0 0 0 0 0 0 0 0 0 0 0 0 0 0 0 0 127 0" result="hardAlpha"/>
<feOffset dx="1.785" dy="-1.785"/>
<feGaussianBlur stdDeviation="1.785"/>
<feComposite in2="hardAlpha" operator="arithmetic" k2="-1" k3="1"/>
<feColorMatrix type="matrix" values="0 0 0 0 0.101961 0 0 0 0 0.105882 0 0 0 0 0.117647 0 0 0 0.24 0"/>
<feBlend mode="normal" in2="shape" result="effect1_innerShadow_646_12539"/>
<feColorMatrix in="SourceAlpha" type="matrix" values="0 0 0 0 0 0 0 0 0 0 0 0 0 0 0 0 0 0 127 0" result="hardAlpha"/>
<feOffset dx="-0.8925" dy="0.8925"/>
<feGaussianBlur stdDeviation="0.8925"/>
<feComposite in2="hardAlpha" operator="arithmetic" k2="-1" k3="1"/>
<feColorMatrix type="matrix" values="0 0 0 0 0.901961 0 0 0 0 0.964706 0 0 0 0 0.972549 0 0 0 0.16 0"/>
<feBlend mode="normal" in2="effect1_innerShadow_646_12539" result="effect2_innerShadow_646_12539"/>
</filter>
<filter id="filter1_i_646_12539" x="0.200014" y="6.2439" width="26.3305" height="15.8998" filterUnits="userSpaceOnUse" color-interpolation-filters="sRGB">
<feFlood flood-opacity="0" result="BackgroundImageFix"/>
<feBlend mode="normal" in="SourceGraphic" in2="BackgroundImageFix" result="shape"/>
<feColorMatrix in="SourceAlpha" type="matrix" values="0 0 0 0 0 0 0 0 0 0 0 0 0 0 0 0 0 0 127 0" result="hardAlpha"/>
<feOffset dx="-0.793333" dy="0.793333"/>
<feGaussianBlur stdDeviation="0.793333"/>
<feComposite in2="hardAlpha" operator="arithmetic" k2="-1" k3="1"/>
<feColorMatrix type="matrix" values="0 0 0 0 0.901961 0 0 0 0 0.964706 0 0 0 0 0.972549 0 0 0 0.16 0"/>
<feBlend mode="normal" in2="shape" result="effect1_innerShadow_646_12539"/>
</filter>
<filter id="filter2_d_646_12539" x="-135.511" y="-109.106" width="284.848" height="284.106" filterUnits="userSpaceOnUse" color-interpolation-filters="sRGB">
<feFlood flood-opacity="0" result="BackgroundImageFix"/>
<feColorMatrix in="SourceAlpha" type="matrix" values="0 0 0 0 0 0 0 0 0 0 0 0 0 0 0 0 0 0 127 0" result="hardAlpha"/>
<feOffset dy="16.8"/>
<feGaussianBlur stdDeviation="70"/>
<feColorMatrix type="matrix" values="0 0 0 0 1 0 0 0 0 1 0 0 0 0 1 0 0 0 0.8 0"/>
<feBlend mode="normal" in2="BackgroundImageFix" result="effect1_dropShadow_646_12539"/>
<feBlend mode="normal" in="SourceGraphic" in2="effect1_dropShadow_646_12539" result="shape"/>
</filter>
<clipPath id="bgblur_1_646_12539_clip_path" transform="translate(135.511 109.106)"><path d="M5.20282 14.6203C5.28205 14.3105 5.56119 14.0938 5.881 14.0938H8.63595C9.09291 14.0938 9.42734 14.5245 9.31413 14.9672L8.62213 17.6734C8.5429 17.9832 8.26376 18.2 7.94395 18.2H5.189C4.73204 18.2 4.39761 17.7693 4.51082 17.3265L5.20282 14.6203Z"/>
</clipPath><filter id="filter3_d_646_12539" x="-121.567" y="-114.8" width="284.822" height="284.119" filterUnits="userSpaceOnUse" color-interpolation-filters="sRGB">
<feFlood flood-opacity="0" result="BackgroundImageFix"/>
<feColorMatrix in="SourceAlpha" type="matrix" values="0 0 0 0 0 0 0 0 0 0 0 0 0 0 0 0 0 0 127 0" result="hardAlpha"/>
<feOffset dy="16.8"/>
<feGaussianBlur stdDeviation="70"/>
<feColorMatrix type="matrix" values="0 0 0 0 1 0 0 0 0 1 0 0 0 0 1 0 0 0 0.8 0"/>
<feBlend mode="normal" in2="BackgroundImageFix" result="effect1_dropShadow_646_12539"/>
<feBlend mode="normal" in="SourceGraphic" in2="effect1_dropShadow_646_12539" result="shape"/>
</filter>
<clipPath id="bgblur_2_646_12539_clip_path" transform="translate(121.567 114.8)"><path d="M19.1155 8.93436C19.1919 8.62074 19.4728 8.40002 19.7956 8.40002H22.5546C23.0083 8.40002 23.3421 8.82492 23.2348 9.26569L22.5725 11.9844C22.4961 12.2981 22.2152 12.5188 21.8924 12.5188H19.1333C18.6797 12.5188 18.3459 12.0939 18.4532 11.6531L19.1155 8.93436Z"/>
</clipPath><filter id="filter4_d_646_12539" x="-127.859" y="-114.8" width="284.822" height="284.119" filterUnits="userSpaceOnUse" color-interpolation-filters="sRGB">
<feFlood flood-opacity="0" result="BackgroundImageFix"/>
<feColorMatrix in="SourceAlpha" type="matrix" values="0 0 0 0 0 0 0 0 0 0 0 0 0 0 0 0 0 0 127 0" result="hardAlpha"/>
<feOffset dy="16.8"/>
<feGaussianBlur stdDeviation="70"/>
<feColorMatrix type="matrix" values="0 0 0 0 1 0 0 0 0 1 0 0 0 0 1 0 0 0 0.8 0"/>
<feBlend mode="normal" in2="BackgroundImageFix" result="effect1_dropShadow_646_12539"/>
<feBlend mode="normal" in="SourceGraphic" in2="effect1_dropShadow_646_12539" result="shape"/>
</filter>
<clipPath id="bgblur_3_646_12539_clip_path" transform="translate(127.859 114.8)"><path d="M12.824 8.93436C12.9004 8.62074 13.1813 8.40002 13.5041 8.40002H16.2631C16.7168 8.40002 17.0506 8.82492 16.9433 9.26569L16.281 11.9844C16.2046 12.2981 15.9237 12.5188 15.6009 12.5188H12.8418C12.3882 12.5188 12.0544 12.0939 12.1617 11.6531L12.824 8.93436Z"/>
</clipPath><filter id="filter5_d_646_12539" x="-134.15" y="-114.8" width="284.822" height="284.119" filterUnits="userSpaceOnUse" color-interpolation-filters="sRGB">
<feFlood flood-opacity="0" result="BackgroundImageFix"/>
<feColorMatrix in="SourceAlpha" type="matrix" values="0 0 0 0 0 0 0 0 0 0 0 0 0 0 0 0 0 0 127 0" result="hardAlpha"/>
<feOffset dy="16.8"/>
<feGaussianBlur stdDeviation="70"/>
<feColorMatrix type="matrix" values="0 0 0 0 1 0 0 0 0 1 0 0 0 0 1 0 0 0 0.8 0"/>
<feBlend mode="normal" in2="BackgroundImageFix" result="effect1_dropShadow_646_12539"/>
<feBlend mode="normal" in="SourceGraphic" in2="effect1_dropShadow_646_12539" result="shape"/>
</filter>
<clipPath id="bgblur_4_646_12539_clip_path" transform="translate(134.15 114.8)"><path d="M6.53215 8.93436C6.60855 8.62074 6.88948 8.40002 7.21227 8.40002H9.97133C10.425 8.40002 10.7588 8.82492 10.6514 9.26569L9.98921 11.9844C9.91282 12.2981 9.63188 12.5188 9.3091 12.5188H6.55003C6.09638 12.5188 5.76255 12.0939 5.86992 11.6531L6.53215 8.93436Z"/>
</clipPath><filter id="filter6_d_646_12539" x="-129.211" y="-109.106" width="284.36" height="284.106" filterUnits="userSpaceOnUse" color-interpolation-filters="sRGB">
<feFlood flood-opacity="0" result="BackgroundImageFix"/>
<feColorMatrix in="SourceAlpha" type="matrix" values="0 0 0 0 0 0 0 0 0 0 0 0 0 0 0 0 0 0 127 0" result="hardAlpha"/>
<feOffset dy="16.8"/>
<feGaussianBlur stdDeviation="70"/>
<feColorMatrix type="matrix" values="0 0 0 0 1 0 0 0 0 1 0 0 0 0 1 0 0 0 0.8 0"/>
<feBlend mode="normal" in2="BackgroundImageFix" result="effect1_dropShadow_646_12539"/>
<feBlend mode="normal" in="SourceGraphic" in2="effect1_dropShadow_646_12539" result="shape"/>
</filter>
<clipPath id="bgblur_5_646_12539_clip_path" transform="translate(129.211 109.106)"><path fill-rule="evenodd" clip-rule="evenodd" d="M14.9358 14.0936C15.0107 14.0936 15.0819 14.1066 15.1487 14.1278C13.89 15.1329 12.9851 16.5622 12.6526 18.2001H11.4896C11.0326 18.2001 10.6976 17.7688 10.8108 17.326L11.5032 14.62C11.5826 14.3104 11.8613 14.0937 12.181 14.0936H14.9358Z"/>
</clipPath><linearGradient id="paint0_linear_646_12539" x1="15.3437" y1="3.84547" x2="15.3437" y2="5.74235" gradientUnits="userSpaceOnUse">
<stop stop-color="white"/>
<stop offset="1" stop-color="white" stop-opacity="0.12"/>
</linearGradient>
<linearGradient id="paint1_linear_646_12539" x1="5.03236" y1="15.3372" x2="7.20685" y2="19.2896" gradientUnits="userSpaceOnUse">
<stop stop-color="white"/>
<stop offset="1" stop-color="white" stop-opacity="0.19"/>
</linearGradient>
<linearGradient id="paint2_linear_646_12539" x1="7.08748" y1="14" x2="7.08748" y2="18.2" gradientUnits="userSpaceOnUse">
<stop stop-color="white"/>
<stop offset="1" stop-color="white" stop-opacity="0.12"/>
</linearGradient>
<linearGradient id="paint3_linear_646_12539" x1="19.2904" y1="9.73728" x2="21.4649" y2="13.6897" gradientUnits="userSpaceOnUse">
<stop stop-color="white"/>
<stop offset="1" stop-color="white" stop-opacity="0.19"/>
</linearGradient>
<linearGradient id="paint4_linear_646_12539" x1="21.3455" y1="8.40002" x2="21.3455" y2="12.6" gradientUnits="userSpaceOnUse">
<stop stop-color="white"/>
<stop offset="1" stop-color="white" stop-opacity="0.12"/>
</linearGradient>
<linearGradient id="paint5_linear_646_12539" x1="12.9989" y1="9.73728" x2="15.1734" y2="13.6897" gradientUnits="userSpaceOnUse">
<stop stop-color="white"/>
<stop offset="1" stop-color="white" stop-opacity="0.19"/>
</linearGradient>
<linearGradient id="paint6_linear_646_12539" x1="15.054" y1="8.40002" x2="15.054" y2="12.6" gradientUnits="userSpaceOnUse">
<stop stop-color="white"/>
<stop offset="1" stop-color="white" stop-opacity="0.12"/>
</linearGradient>
<linearGradient id="paint7_linear_646_12539" x1="8.76223" y1="8.40002" x2="8.76223" y2="12.6" gradientUnits="userSpaceOnUse">
<stop stop-color="white"/>
<stop offset="1" stop-color="white" stop-opacity="0.12"/>
</linearGradient>
<linearGradient id="paint8_linear_646_12539" x1="11.3322" y1="15.3371" x2="13.5069" y2="19.2895" gradientUnits="userSpaceOnUse">
<stop stop-color="white"/>
<stop offset="1" stop-color="white" stop-opacity="0.19"/>
</linearGradient>
<linearGradient id="paint9_linear_646_12539" x1="19.5125" y1="14" x2="19.5125" y2="25.2" gradientUnits="userSpaceOnUse">
<stop stop-color="white"/>
<stop offset="1" stop-color="white" stop-opacity="0.12"/>
</linearGradient>
<clipPath id="clip0_646_12539">
<rect width="28" height="28" fill="white"/>
</clipPath>
<clipPath id="clip6_646_12539">
<rect width="7" height="7" fill="white" transform="translate(15.8375 16.1)"/>
</clipPath>
</defs>
</svg>
