<svg width="28" height="29" viewBox="0 0 28 29" fill="none" xmlns="http://www.w3.org/2000/svg">
<path d="M9.625 10.125C9.625 9.89294 9.71719 9.67038 9.88128 9.50628C10.0454 9.34219 10.2679 9.25 10.5 9.25H17.5C17.6382 9.24984 17.7745 9.28243 17.8977 9.34509C18.0209 9.40775 18.1275 9.4987 18.2087 9.6105C17.437 9.91325 16.7563 10.3927 16.212 11H10.5C10.2679 11 10.0454 10.9078 9.88128 10.7437C9.71719 10.5796 9.625 10.3571 9.625 10.125ZM14.875 14.5H10.5C10.2679 14.5 10.0454 14.5922 9.88128 14.7563C9.71719 14.9204 9.625 15.1429 9.625 15.375C9.625 15.6071 9.71719 15.8296 9.88128 15.9937C10.0454 16.1578 10.2679 16.25 10.5 16.25H15.1725C14.98 15.7022 14.875 15.1125 14.875 14.5ZM12.964 25H7.875C7.64294 25 7.42038 24.9078 7.25628 24.7437C7.09219 24.5796 7 24.3571 7 24.125V6.625C7 6.39294 7.09219 6.17038 7.25628 6.00628C7.42038 5.84219 7.64294 5.75 7.875 5.75H20.125C20.3571 5.75 20.5796 5.84219 20.7437 6.00628C20.9078 6.17038 21 6.39294 21 6.625V9.32175C21.6283 9.42675 22.218 9.6455 22.75 9.95175V6.625C22.75 5.92881 22.4734 5.26113 21.9812 4.76884C21.4889 4.27656 20.8212 4 20.125 4V3.125C20.125 2.89294 20.0328 2.67038 19.8687 2.50628C19.7046 2.34219 19.4821 2.25 19.25 2.25C19.0179 2.25 18.7954 2.34219 18.6313 2.50628C18.4672 2.67038 18.375 2.89294 18.375 3.125V4H14.875V3.125C14.875 2.89294 14.7828 2.67038 14.6187 2.50628C14.4546 2.34219 14.2321 2.25 14 2.25C13.7679 2.25 13.5454 2.34219 13.3813 2.50628C13.2172 2.67038 13.125 2.89294 13.125 3.125V4H9.625V3.125C9.625 2.89294 9.53281 2.67038 9.36872 2.50628C9.20462 2.34219 8.98206 2.25 8.75 2.25C8.51794 2.25 8.29538 2.34219 8.13128 2.50628C7.96719 2.67038 7.875 2.89294 7.875 3.125V4C7.17881 4 6.51113 4.27656 6.01884 4.76884C5.52656 5.26113 5.25 5.92881 5.25 6.625V24.125C5.25 24.8212 5.52656 25.4889 6.01884 25.9812C6.51113 26.4734 7.17881 26.75 7.875 26.75H14.1505C14.2205 26.75 14.287 26.7465 14.357 26.7412C13.7908 26.2502 13.3187 25.6602 12.964 25ZM16.1175 25.8697C15.4755 25.485 14.9434 24.9414 14.5725 24.2913C14.2016 23.6411 14.0045 22.9065 14 22.158C14 20.9803 14.9293 20.016 16.1175 19.9128C16.184 19.9075 16.254 19.904 16.324 19.904H23.926C25.2087 19.904 26.25 20.9138 26.25 22.158C26.25 24.1688 24.8377 25.9222 22.8235 26.4105L22.6782 26.4455C21.0003 26.8514 19.2497 26.8514 17.5718 26.4455L17.4265 26.4105C16.9649 26.2989 16.5233 26.1165 16.1175 25.8697ZM22.75 16.8153C22.2798 17.3485 21.6583 17.7258 20.9683 17.8971C20.2783 18.0684 19.5525 18.0255 18.8875 17.7741C18.2224 17.5228 17.6497 17.0748 17.2456 16.4899C16.8414 15.905 16.625 15.2109 16.625 14.5C16.625 13.9337 16.7625 13.3759 17.0255 12.8744C17.2886 12.3729 17.6694 11.9427 18.1353 11.6208C18.6012 11.2989 19.1382 11.0948 19.7003 11.0261C20.2624 10.9574 20.8328 11.0261 21.3625 11.2263C21.8923 11.4265 22.3655 11.7523 22.7416 12.1757C23.1177 12.599 23.3855 13.1073 23.5219 13.6569C23.6583 14.2065 23.6594 14.7811 23.5249 15.3312C23.3905 15.8813 23.1246 16.3905 22.75 16.8153ZM9.625 20.625C9.625 20.3929 9.71719 20.1704 9.88128 20.0063C10.0454 19.8422 10.2679 19.75 10.5 19.75H11.375C11.6071 19.75 11.8296 19.8422 11.9937 20.0063C12.1578 20.1704 12.25 20.3929 12.25 20.625C12.25 20.8571 12.1578 21.0796 11.9937 21.2437C11.8296 21.4078 11.6071 21.5 11.375 21.5H10.5C10.2679 21.5 10.0454 21.4078 9.88128 21.2437C9.71719 21.0796 9.625 20.8571 9.625 20.625Z" fill="#00A2B9"/>
</svg>
