<svg width="28" height="29" viewBox="0 0 28 29" fill="none" xmlns="http://www.w3.org/2000/svg">
<path d="M16.334 22.6667C20.7335 22.6667 22.9338 22.6667 24.3 21.2993C25.6673 19.9332 25.6673 17.7328 25.6673 13.3333C25.6673 8.93383 25.6673 6.7335 24.3 5.36733C22.9338 4 20.7335 4 16.334 4H11.6673C7.26782 4 5.06748 4 3.70132 5.36733C2.33398 6.7335 2.33398 8.93383 2.33398 13.3333C2.33398 17.7328 2.33398 19.9332 3.70132 21.2993C4.46315 22.0623 5.48398 22.3995 7.00065 22.5477" stroke="#00A2B9" stroke-width="2" stroke-linecap="round" stroke-linejoin="round"/>
<path d="M16.3341 22.667C14.8921 22.667 13.3031 23.2503 11.8529 24.0028C9.52194 25.2127 8.35644 25.8182 7.78244 25.432C7.20844 25.047 7.31694 23.8512 7.5351 21.4607L7.5841 20.917" stroke="#00A2B9" stroke-width="2" stroke-linecap="round"/>
</svg>
