<svg width="24" height="24" viewBox="0 0 24 24" fill="none" xmlns="http://www.w3.org/2000/svg">
<path d="M15 22H3C2.46957 22 1.96086 21.7893 1.58579 21.4142C1.21071 21.0391 1 20.5304 1 20V4C1 3.46957 1.21071 2.96086 1.58579 2.58579C1.96086 2.21071 2.46957 2 3 2H11.5L15 5.5" stroke="#00A2B9" stroke-width="2" stroke-linecap="round" stroke-linejoin="round"/>
<path d="M3.87473 9.22121C3.44372 9.56653 3.37426 10.1959 3.71959 10.6269C4.06491 11.0579 4.69426 11.1274 5.12527 10.782L3.87473 9.22121ZM7.5 8L7.49724 9L7.5 8ZM5.5 18.5L4.56747 18.1389C4.39022 18.5967 4.57143 19.1154 4.99517 19.3632C5.41892 19.611 5.95987 19.5146 6.27193 19.1357L5.5 18.5ZM13 13L13.9864 12.8356L13 13ZM20.3153 12.9506C20.8394 12.7765 21.1231 12.2104 20.949 11.6863C20.7749 11.1622 20.2088 10.8785 19.6847 11.0526L20.3153 12.9506ZM4.5 10.0016C5.12527 10.782 5.12524 10.7821 5.12522 10.7821C5.12523 10.7821 5.12522 10.7821 5.12523 10.7821C5.12526 10.782 5.12532 10.782 5.12542 10.7819C5.12562 10.7817 5.12597 10.7815 5.12647 10.7811C5.12747 10.7803 5.12906 10.779 5.13122 10.7773C5.13554 10.7738 5.14216 10.7685 5.15092 10.7616C5.16846 10.7476 5.19459 10.7269 5.22824 10.7003C5.29555 10.6471 5.39276 10.5708 5.51114 10.479C5.74852 10.295 6.06816 10.0511 6.40112 9.8087C6.7374 9.56386 7.07254 9.33121 7.34459 9.16372C7.48207 9.07907 7.58497 9.02257 7.65302 8.99058C7.76916 8.93597 7.6812 9.0005 7.49724 9L7.50276 7C7.1938 6.99915 6.91834 7.12597 6.80206 7.18064C6.63768 7.25793 6.46324 7.35768 6.29604 7.46062C5.95871 7.6683 5.5751 7.93615 5.22388 8.19188C4.86934 8.45002 4.53273 8.70687 4.28574 8.89836C4.16193 8.99434 4.05992 9.07446 3.98856 9.13082C3.95287 9.15902 3.9248 9.1813 3.90547 9.19668C3.89581 9.20438 3.88832 9.21035 3.88315 9.21447C3.88057 9.21654 3.87856 9.21814 3.87715 9.21927C3.87645 9.21983 3.8759 9.22028 3.87549 9.2206C3.87529 9.22076 3.87512 9.22089 3.875 9.22099C3.87494 9.22104 3.87487 9.2211 3.87484 9.22112C3.87478 9.22117 3.87473 9.22121 4.5 10.0016ZM7.49724 9C7.39296 8.99971 7.25196 8.95766 7.13926 8.8536C7.048 8.76935 7.03691 8.70089 7.04882 8.74054C7.07813 8.83811 7.10472 9.09093 7.06228 9.55123C6.98067 10.4366 6.689 11.6731 6.3131 12.9747C5.94168 14.2606 5.50529 15.5522 5.16013 16.5261C4.9879 17.0121 4.83915 17.4168 4.73368 17.6995C4.68096 17.8407 4.63909 17.9514 4.61055 18.0264C4.59628 18.0639 4.58535 18.0924 4.57807 18.1114C4.57443 18.1209 4.5717 18.128 4.56992 18.1326C4.56903 18.1349 4.56837 18.1366 4.56796 18.1376C4.56776 18.1382 4.56762 18.1385 4.56753 18.1387C4.56749 18.1389 4.56748 18.1389 4.56745 18.1389C4.56745 18.1389 4.56747 18.1389 5.5 18.5C6.43253 18.8611 6.43258 18.861 6.43264 18.8608C6.43268 18.8607 6.43276 18.8605 6.43284 18.8603C6.433 18.8599 6.43323 18.8593 6.43351 18.8586C6.43409 18.8571 6.4349 18.855 6.43596 18.8522C6.43807 18.8467 6.44114 18.8388 6.44512 18.8284C6.45309 18.8077 6.46472 18.7773 6.47971 18.7379C6.50969 18.6591 6.55311 18.5443 6.60747 18.3987C6.71616 18.1074 6.86876 17.6922 7.04524 17.1942C7.39752 16.2003 7.84803 14.8679 8.23456 13.5296C8.61661 12.2068 8.95391 10.8188 9.05384 9.73483C9.10218 9.21048 9.10767 8.6425 8.96424 8.16507C8.88977 7.91722 8.75439 7.62272 8.49595 7.38411C8.21606 7.12571 7.86498 7.001 7.50276 7L7.49724 9ZM5.5 18.5C6.27193 19.1357 6.27189 19.1358 6.27188 19.1358C6.27191 19.1357 6.27193 19.1357 6.27199 19.1356C6.27212 19.1355 6.27235 19.1352 6.27268 19.1348C6.27336 19.134 6.27445 19.1327 6.27595 19.1308C6.27896 19.1272 6.28362 19.1216 6.28988 19.114C6.3024 19.0989 6.32131 19.0762 6.34621 19.0464C6.396 18.9867 6.4697 18.899 6.56402 18.7879C6.75273 18.5657 7.02355 18.2506 7.35026 17.8817C8.00582 17.1413 8.8772 16.194 9.7571 15.3444C10.6607 14.4719 11.4915 13.784 12.0758 13.4823C12.3996 13.3153 12.4377 13.3787 12.3114 13.3498C12.2083 13.3263 12.1059 13.2618 12.0402 13.1764C11.9884 13.1089 11.9996 13.0805 12.0136 13.1644L13.9864 12.8356C13.9379 12.5444 13.8358 12.2308 13.6265 11.9583C13.4034 11.6678 13.0993 11.4783 12.757 11.4001C12.1521 11.2619 11.5614 11.4972 11.1585 11.7051C10.2898 12.1535 9.2768 13.028 8.3679 13.9056C7.4353 14.806 6.52543 15.7962 5.85286 16.5558C5.51551 16.9369 5.23555 17.2625 5.03949 17.4934C4.94143 17.6088 4.86425 17.7008 4.81126 17.7642C4.78477 17.7959 4.76431 17.8205 4.75031 17.8374C4.74331 17.8458 4.73792 17.8524 4.7342 17.8569C4.73234 17.8591 4.73089 17.8609 4.72987 17.8621C4.72936 17.8627 4.72895 17.8632 4.72865 17.8636C4.7285 17.8638 4.72835 17.8639 4.72828 17.864C4.72816 17.8642 4.72807 17.8643 5.5 18.5ZM12.0136 13.1644C12.0717 13.5126 12.1014 13.8302 12.129 14.1436C12.1551 14.4395 12.1822 14.7758 12.2396 15.0813C12.299 15.3976 12.4023 15.7535 12.6229 16.0889C12.8518 16.4369 13.1655 16.7008 13.5528 16.8944L14.4472 15.1056C14.3345 15.0492 14.3057 15.0079 14.2939 14.9899C14.2738 14.9594 14.2383 14.8887 14.2052 14.7122C14.17 14.525 14.1508 14.3024 14.1213 13.9679C14.0933 13.6507 14.0582 13.2663 13.9864 12.8356L12.0136 13.1644ZM13.5528 16.8944C14.4848 17.3604 15.3958 17.1993 16.144 16.8166C16.8539 16.4535 17.4879 15.8607 18.0171 15.3046C18.2885 15.0193 18.5506 14.7236 18.7939 14.4475C19.0418 14.1663 19.2663 13.9098 19.4815 13.6792C19.6974 13.4478 19.8821 13.2663 20.0418 13.1343C20.2097 12.9957 20.2973 12.9566 20.3153 12.9506L19.6847 11.0526C19.3277 11.1712 19.0178 11.3862 18.7683 11.5922C18.5106 11.805 18.2579 12.0589 18.0192 12.3148C17.7797 12.5714 17.5323 12.8541 17.2934 13.1252C17.0499 13.4015 16.8105 13.6713 16.5682 13.9259C16.0699 14.4496 15.6277 14.8343 15.2332 15.0361C14.8769 15.2183 14.6554 15.2097 14.4472 15.1056L13.5528 16.8944Z" fill="#00A2B9"/>
</svg>
