<svg width="28" height="28" viewBox="0 0 28 28" fill="none" xmlns="http://www.w3.org/2000/svg">
<g clip-path="url(#clip0_31542_1969)">
<path d="M23.6252 11.1992C24.5082 11.7077 25.2241 12.4621 25.6857 13.3704C26.1473 14.2787 26.3346 15.3018 26.2248 16.3147C26.115 17.3277 25.7128 18.2868 25.0672 19.0751C24.4216 19.8634 23.5607 20.4468 22.5892 20.7542C22.2459 22.3123 21.3808 23.7063 20.1371 24.7056C18.8934 25.7049 17.3457 26.2495 15.7502 26.2492H13.1252C12.8932 26.2492 12.6706 26.157 12.5065 25.9929C12.3424 25.8288 12.2502 25.6063 12.2502 25.3742C12.2502 25.1422 12.3424 24.9196 12.5065 24.7555C12.6706 24.5914 12.8932 24.4992 13.1252 24.4992H15.7502C16.8363 24.4995 17.8958 24.1631 18.7827 23.5363C19.6697 22.9095 20.3405 22.0231 20.7027 20.9992H20.1252C19.8932 20.9992 19.6706 20.907 19.5065 20.7429C19.3424 20.5788 19.2502 20.3563 19.2502 20.1242V11.3742C19.2502 11.1422 19.3424 10.9196 19.5065 10.7555C19.6706 10.5914 19.8932 10.4992 20.1252 10.4992H21.0002C21.2837 10.4992 21.562 10.522 21.835 10.5657C21.638 8.62478 20.7276 6.82606 19.2801 5.51806C17.8326 4.21006 15.9511 3.4859 14.0002 3.4859C12.0493 3.4859 10.1679 4.21006 8.72039 5.51806C7.27291 6.82606 6.36248 8.62478 6.16548 10.5657C6.44153 10.5215 6.72066 10.4993 7.00023 10.4992H7.87523C8.1073 10.4992 8.32986 10.5914 8.49395 10.7555C8.65805 10.9196 8.75023 11.1422 8.75023 11.3742V20.1242C8.75023 20.3563 8.65805 20.5788 8.49395 20.7429C8.32986 20.907 8.1073 20.9992 7.87523 20.9992H7.00023C5.84345 21.0005 4.71863 20.6197 3.80053 19.916C2.88243 19.2122 2.22246 18.225 1.92316 17.1076C1.62386 15.9902 1.70198 14.8052 2.1454 13.7368C2.58881 12.6684 3.37269 11.7763 4.37523 11.1992C4.37523 8.64651 5.38929 6.19835 7.19433 4.39332C8.99937 2.58828 11.4475 1.57422 14.0002 1.57422C16.5529 1.57422 19.0011 2.58828 20.8061 4.39332C22.6112 6.19835 23.6252 8.64651 23.6252 11.1992ZM7.00023 12.2492C6.07197 12.2492 5.18174 12.618 4.52536 13.2743C3.86898 13.9307 3.50023 14.821 3.50023 15.7492C3.50023 16.6775 3.86898 17.5677 4.52536 18.2241C5.18174 18.8805 6.07197 19.2492 7.00023 19.2492V12.2492ZM24.5002 15.7492C24.5002 14.821 24.1315 13.9307 23.4751 13.2743C22.8187 12.618 21.9285 12.2492 21.0002 12.2492V19.2492C21.9285 19.2492 22.8187 18.8805 23.4751 18.2241C24.1315 17.5677 24.5002 16.6775 24.5002 15.7492Z" fill="#666666" stroke="#666666" stroke-width="0.466667"/>
</g>
<defs>
<clipPath id="clip0_31542_1969">
<rect width="28" height="28" fill="white"/>
</clipPath>
</defs>
</svg>
