<svg width="32" height="28" viewBox="0 0 32 28" fill="none" xmlns="http://www.w3.org/2000/svg">
<rect width="32" height="28" rx="8" fill="#00A2B9" fill-opacity="0.1"/>
<path fill-rule="evenodd" clip-rule="evenodd" d="M12.9753 6.16737C12.8628 6.27453 12.7996 6.41988 12.7996 6.57143C12.7996 6.72298 12.8628 6.86833 12.9753 6.97549C13.0879 7.08265 13.2405 7.14286 13.3996 7.14286H13.6V8.28571H12.4C11.7635 8.28571 11.153 8.52653 10.7029 8.95518C10.2529 9.38384 10 9.96522 10 10.5714V18.5714C10 19.1776 10.2529 19.759 10.7029 20.1877C11.153 20.6163 11.7635 20.8571 12.4 20.8571V21.4286C12.4 21.5801 12.4632 21.7255 12.5757 21.8326C12.6883 21.9398 12.8409 22 13 22C13.1591 22 13.3117 21.9398 13.4243 21.8326C13.5368 21.7255 13.6 21.5801 13.6 21.4286V20.8571H18.4V21.4286C18.4 21.5801 18.4632 21.7255 18.5757 21.8326C18.6883 21.9398 18.8409 22 19 22C19.1591 22 19.3117 21.9398 19.4243 21.8326C19.5368 21.7255 19.6 21.5801 19.6 21.4286V20.8571C20.2365 20.8571 20.847 20.6163 21.2971 20.1877C21.7471 19.759 22 19.1776 22 18.5714V10.5714C22 9.96522 21.7471 9.38384 21.2971 8.95518C20.847 8.52653 20.2365 8.28571 19.6 8.28571H18.4V7.14286H18.5992C18.7583 7.14286 18.9109 7.08265 19.0235 6.97549C19.136 6.86833 19.1992 6.72298 19.1992 6.57143C19.1992 6.41988 19.136 6.27453 19.0235 6.16737C18.9109 6.0602 18.7583 6 18.5992 6H13.3996C13.2405 6 13.0879 6.0602 12.9753 6.16737ZM14.8 8.28571V7.14286H17.2V8.28571H14.8ZM11.5515 9.76331C11.7765 9.54898 12.0817 9.42857 12.4 9.42857H19.6C19.9183 9.42857 20.2235 9.54898 20.4485 9.76331C20.6736 9.97763 20.8 10.2683 20.8 10.5714V18.5714C20.8 18.8745 20.6736 19.1652 20.4485 19.3796C20.2235 19.5939 19.9183 19.7143 19.6 19.7143H12.4C12.0817 19.7143 11.7765 19.5939 11.5515 19.3796C11.3264 19.1652 11.2 18.8745 11.2 18.5714V10.5714C11.2 10.2683 11.3264 9.97763 11.5515 9.76331Z" fill="#00A2B9"/>
<rect x="12.8501" y="10.5" width="1.1" height="8" rx="0.55" fill="#00A2B9"/>
<rect x="15.4502" y="10.5" width="1.1" height="8" rx="0.55" fill="#00A2B9"/>
<rect x="18.0503" y="10.5" width="1.1" height="8" rx="0.55" fill="#00A2B9"/>
</svg>
