<svg width="25" height="24" viewBox="0 0 25 24" fill="none" xmlns="http://www.w3.org/2000/svg">
<g clip-path="url(#clip0_41528_452338)">
<mask id="path-1-inside-1_41528_452338" fill="white">
<path d="M12.9421 3.66539L13.6987 3.31622C13.632 3.17167 13.5253 3.04925 13.3912 2.96344C13.2571 2.87763 13.1013 2.83203 12.9421 2.83203C12.7829 2.83203 12.627 2.87763 12.4929 2.96344C12.3588 3.04925 12.2521 3.17167 12.1854 3.31622L12.9421 3.66539ZM15.5287 9.27206L14.7712 9.62206C14.831 9.75125 14.923 9.86298 15.0382 9.94657C15.1535 10.0302 15.2882 10.0828 15.4296 10.0996L15.5287 9.27206ZM21.6604 9.99956L22.2262 10.6112C22.3431 10.5031 22.4265 10.3637 22.4666 10.2096C22.5068 10.0555 22.5019 9.89318 22.4526 9.74177C22.4033 9.59036 22.3117 9.45624 22.1886 9.35527C22.0655 9.25431 21.916 9.19073 21.7579 9.17206L21.6604 9.99956ZM18.3304 20.2479L17.9229 20.9754C18.0619 21.0534 18.2203 21.0899 18.3794 21.0806C18.5385 21.0713 18.6916 21.0165 18.8205 20.9228C18.9495 20.8292 19.0488 20.7005 19.1069 20.5521C19.1649 20.4036 19.1791 20.2417 19.1479 20.0854L18.3304 20.2479ZM12.9421 17.2321L13.3496 16.5046C13.2252 16.4349 13.085 16.3984 12.9425 16.3984C12.7999 16.3984 12.6598 16.4349 12.5354 16.5046L12.9421 17.2321ZM7.55374 20.2487L6.73708 20.0854C6.70598 20.2416 6.72027 20.4034 6.77827 20.5517C6.83627 20.7 6.93554 20.8285 7.06433 20.9222C7.19312 21.0158 7.34604 21.0706 7.505 21.08C7.66395 21.0894 7.82228 21.0531 7.96124 20.9754L7.55374 20.2487ZM8.75708 14.1921L9.57458 14.3537C9.60233 14.2139 9.59376 14.0694 9.5497 13.9338C9.50564 13.7983 9.42756 13.6763 9.32291 13.5796L8.75708 14.1921ZM4.22374 9.99872L4.12624 9.17122C3.96812 9.18989 3.81865 9.25347 3.69553 9.35444C3.57242 9.4554 3.4808 9.58953 3.43153 9.74093C3.38226 9.89234 3.37739 10.0547 3.41751 10.2088C3.45763 10.3629 3.54106 10.5022 3.65791 10.6104L4.22374 9.99872ZM10.3287 10.1137C10.4384 10.1021 10.5447 10.0688 10.6414 10.0158C10.7381 9.96277 10.8233 9.89109 10.8921 9.8049C10.9609 9.71871 11.0119 9.61973 11.0421 9.51368C11.0724 9.40763 11.0813 9.29664 11.0683 9.18712C11.0554 9.07761 11.0208 8.97175 10.9666 8.8757C10.9125 8.77964 10.8398 8.69529 10.7528 8.62754C10.6658 8.55978 10.5662 8.50997 10.4598 8.481C10.3534 8.45202 10.2423 8.44445 10.1329 8.45872L10.3287 10.1137ZM18.4379 16.5137C18.4166 16.4064 18.3743 16.3043 18.3135 16.2132C18.2527 16.1222 18.1746 16.0441 18.0836 15.9833C17.9926 15.9224 17.8905 15.8801 17.7831 15.8588C17.6758 15.8374 17.5653 15.8374 17.4579 15.8587C17.3506 15.8801 17.2485 15.9223 17.1574 15.9831C17.0664 16.0439 16.9883 16.1221 16.9274 16.2131C16.8666 16.3041 16.8243 16.4062 16.8029 16.5135C16.7816 16.6209 16.7816 16.7314 16.8029 16.8387L18.4379 16.5137ZM11.0429 5.79289C10.9503 5.99357 10.9412 6.22282 11.0176 6.4302C11.0941 6.63759 11.2497 6.80612 11.4504 6.89872C11.6511 6.99133 11.8803 7.00042 12.0877 6.924C12.2951 6.84758 12.4636 6.6919 12.5562 6.49122L11.0429 5.79289ZM17.9754 12.2721C17.8168 12.423 17.724 12.6303 17.717 12.8492C17.7101 13.068 17.7895 13.2808 17.9382 13.4416C18.0869 13.6023 18.2929 13.698 18.5116 13.7081C18.7303 13.7182 18.9442 13.6418 19.1071 13.4954L17.9754 12.2721ZM12.1854 4.01372L14.7712 9.62206L16.2854 8.92372L13.6987 3.31622L12.1854 4.01372ZM15.4304 10.0996L21.5621 10.8271L21.7579 9.17206L15.6262 8.44456L15.4304 10.0996ZM18.7371 19.5212L13.3487 16.5046L12.5354 17.9596L17.9229 20.9754L18.7371 19.5212ZM12.5354 16.5046L7.14708 19.5212L7.96124 20.9754L13.3496 17.9587L12.5354 16.5046ZM8.37124 20.4104L9.57458 14.3537L7.94041 14.0287L6.73708 20.0854L8.37124 20.4104ZM9.32291 13.5796L4.78958 9.38789L3.65874 10.6112L8.19208 14.8029L9.32291 13.5796ZM4.32291 10.8271L10.3287 10.1146L10.1329 8.45872L4.12624 9.17122L4.32291 10.8271ZM16.8029 16.8387L17.5129 20.4104L19.1479 20.0854L18.4379 16.5146L16.8029 16.8387ZM12.5562 6.49122L13.6987 4.01456L12.1854 3.31622L11.0437 5.79289L12.5562 6.49122ZM21.0946 9.38789L17.9754 12.2712L19.1071 13.4962L22.2262 10.6112L21.0946 9.38789Z"/>
</mask>
<path d="M12.9421 3.66539L12.5929 4.42205L12.9421 4.58317L13.2912 4.42205L12.9421 3.66539ZM13.6987 3.31622L14.4554 2.96716L14.4554 2.96708L13.6987 3.31622ZM12.1854 3.31622L11.4287 2.96708L11.4286 2.96736L12.1854 3.31622ZM15.5287 9.27206L16.3562 9.37121L16.5337 7.88974L15.1792 8.51557L15.5287 9.27206ZM14.7712 9.62206L14.0145 9.97098L14.015 9.97212L14.7712 9.62206ZM15.4296 10.0996L15.3317 10.9271L16.158 11.0249L16.257 10.1987L15.4296 10.0996ZM21.6604 9.99956L20.8328 9.90204L20.7879 10.2835L21.0487 10.5654L21.6604 9.99956ZM22.2262 10.6112L22.7921 11.223L22.7923 11.2228L22.2262 10.6112ZM18.3304 20.2479L18.1679 19.4305L17.7911 19.5055L17.6034 19.8406L18.3304 20.2479ZM12.9421 17.2321L12.2147 17.6387L12.9413 18.9386L13.6691 17.6393L12.9421 17.2321ZM13.3496 16.5046L14.0766 16.9118L14.484 16.1846L13.7567 15.7774L13.3496 16.5046ZM12.5354 16.5046L12.1283 15.7774L12.1283 15.7774L12.5354 16.5046ZM7.55374 20.2487L8.28059 19.8411L8.09308 19.5068L7.71717 19.4316L7.55374 20.2487ZM7.96124 20.9754L8.36812 21.7026L8.36833 21.7025L7.96124 20.9754ZM8.75708 14.1921L8.14496 13.6266L7.13429 14.7206L8.59541 15.0096L8.75708 14.1921ZM9.57458 14.3537L10.3919 14.5161L10.392 14.516L9.57458 14.3537ZM4.22374 9.99872L4.83547 10.5646L5.0963 10.2827L5.05135 9.90121L4.22374 9.99872ZM3.65791 10.6104L3.09186 11.222L3.7036 11.7882L4.26964 11.1763L3.65791 10.6104ZM10.3287 10.1137L9.50118 10.2116L9.59794 11.0293L10.4167 10.9424L10.3287 10.1137ZM18.4379 16.5137L18.6004 17.3311L19.4177 17.1686L19.2552 16.3513L18.4379 16.5137ZM16.8029 16.8387L15.9856 17.0012L15.9856 17.0012L16.8029 16.8387ZM11.0429 5.79289L11.3921 5.03623L10.6354 4.68707L10.2863 5.44373L11.0429 5.79289ZM12.5562 6.49122L13.3129 6.84038L13.3129 6.84029L12.5562 6.49122ZM17.9754 12.2721L18.5871 11.7062L18.0131 11.0857L17.4009 11.6685L17.9754 12.2721ZM19.1071 13.4954L19.6642 14.1151L20.2928 13.55L19.7188 12.9295L19.1071 13.4954ZM12.1854 4.01372L11.8366 3.25691L11.0797 3.60577L11.4286 4.36265L12.1854 4.01372ZM16.2854 8.92372L16.6344 9.68045L17.3912 9.33142L17.0421 8.57467L16.2854 8.92372ZM15.4304 10.0996L14.6028 10.0016L14.505 10.8289L15.3322 10.9271L15.4304 10.0996ZM21.5621 10.8271L21.4639 11.6546L22.2917 11.7528L22.3896 10.925L21.5621 10.8271ZM15.6262 8.44456L15.7244 7.61703L14.8966 7.51881L14.7987 8.34663L15.6262 8.44456ZM18.7371 19.5212L19.4642 19.9283L19.8713 19.2012L19.1442 18.7941L18.7371 19.5212ZM13.3487 16.5046L13.7558 15.7774L13.0282 15.3701L12.6213 16.0979L13.3487 16.5046ZM12.5354 17.9596L11.808 17.5529L11.4016 18.2799L12.1284 18.6867L12.5354 17.9596ZM7.14708 19.5212L6.73999 18.7941L6.01284 19.2012L6.41995 19.9283L7.14708 19.5212ZM13.3496 17.9587L13.7567 18.6859L14.4838 18.2788L14.0767 17.5516L13.3496 17.9587ZM8.37124 20.4104L8.20869 21.2277L9.02618 21.3903L9.1886 20.5728L8.37124 20.4104ZM7.94041 14.0287L8.10296 13.2114L7.28547 13.0488L7.12305 13.8663L7.94041 14.0287ZM4.78958 9.38789L5.35532 8.77603L4.74338 8.21021L4.17764 8.82222L4.78958 9.38789ZM3.65874 10.6112L3.04681 10.0456L2.48121 10.6574L3.093 11.2231L3.65874 10.6112ZM8.19208 14.8029L7.62633 15.4148L8.23827 15.9806L8.80401 15.3686L8.19208 14.8029ZM4.32291 10.8271L3.49539 10.9253L3.59366 11.7527L4.42108 11.6546L4.32291 10.8271ZM10.3287 10.1146L10.4269 10.9421L11.2541 10.8439L11.1563 10.0167L10.3287 10.1146ZM17.5129 20.4104L16.6956 20.5729L16.858 21.3902L17.6754 21.2277L17.5129 20.4104ZM18.4379 16.5146L19.2552 16.352L19.0928 15.5352L18.2758 15.6971L18.4379 16.5146ZM13.6987 4.01456L14.4554 4.36363L14.8045 3.60702L14.0479 3.2579L13.6987 4.01456ZM11.0437 5.79289L10.2869 5.44403L9.9383 6.20037L10.6944 6.54947L11.0437 5.79289ZM21.0946 9.38789L21.7063 8.822L21.1406 8.21049L20.5289 8.77595L21.0946 9.38789ZM17.9754 12.2712L17.4097 11.6593L16.798 12.2248L17.3633 12.8367L17.9754 12.2712ZM19.1071 13.4962L18.495 14.0617L19.0608 14.6742L19.6729 14.108L19.1071 13.4962ZM12.9421 3.66539L13.2912 4.42205L14.0479 4.07288L13.6987 3.31622L13.3496 2.55957L12.5929 2.90873L12.9421 3.66539ZM13.6987 3.31622L14.4554 2.96708C14.322 2.67798 14.1086 2.43313 13.8404 2.26152L13.3912 2.96344L12.9421 3.66536L12.9421 3.66536L13.6987 3.31622ZM13.3912 2.96344L13.8404 2.26152C13.5722 2.0899 13.2605 1.9987 12.9421 1.9987V2.83203V3.66536V3.66536L13.3912 2.96344ZM12.9421 2.83203V1.9987C12.6237 1.9987 12.3119 2.0899 12.0438 2.26152L12.4929 2.96344L12.9421 3.66536L12.9421 3.66536V2.83203ZM12.4929 2.96344L12.0438 2.26152C11.7756 2.43313 11.5621 2.67798 11.4287 2.96708L12.1854 3.31622L12.9421 3.66536L12.9421 3.66536L12.4929 2.96344ZM12.1854 3.31622L11.8362 4.07288L12.5929 4.42205L12.9421 3.66539L13.2912 2.90873L12.5346 2.55957L12.1854 3.31622ZM15.5287 9.27206L15.1792 8.51557L14.4217 8.86557L14.7712 9.62206L15.1208 10.3785L15.8783 10.0285L15.5287 9.27206ZM14.7712 9.62206L14.015 9.97212C14.1346 10.2305 14.3184 10.454 14.5489 10.6211L15.0382 9.94657L15.5275 9.27199V9.27199L14.7712 9.62206ZM15.0382 9.94657L14.5489 10.6211C14.7794 10.7883 15.0489 10.8937 15.3317 10.9271L15.4296 10.0996L15.5275 9.27199V9.27199L15.0382 9.94657ZM15.4296 10.0996L16.257 10.1987L16.3562 9.37121L15.5287 9.27206L14.7013 9.1729L14.6022 10.0004L15.4296 10.0996ZM21.6604 9.99956L21.0487 10.5654L21.6145 11.1771L22.2262 10.6112L22.838 10.0453L22.2721 9.43366L21.6604 9.99956ZM22.2262 10.6112L22.7923 11.2228C23.026 11.0065 23.1928 10.7278 23.2731 10.4196L22.4666 10.2096L21.6602 9.99964H21.6602L22.2262 10.6112ZM22.4666 10.2096L23.2731 10.4196C23.3533 10.1114 23.3436 9.78671 23.2451 9.4839L22.4526 9.74177L21.6602 9.99964L22.4666 10.2096ZM22.4526 9.74177L23.2451 9.4839C23.1465 9.18108 22.9633 8.91284 22.717 8.7109L22.1886 9.35527L21.6602 9.99964L21.6602 9.99964L22.4526 9.74177ZM22.1886 9.35527L22.717 8.7109C22.4708 8.50897 22.1719 8.38181 21.8556 8.34447L21.7579 9.17206L21.6602 9.99964V9.99964L22.1886 9.35527ZM21.7579 9.17206L20.9303 9.07454L20.8328 9.90204L21.6604 9.99956L22.488 10.0971L22.5855 9.26957L21.7579 9.17206ZM18.3304 20.2479L17.6034 19.8406L17.1959 20.5681L17.9229 20.9754L18.65 21.3826L19.0575 20.6551L18.3304 20.2479ZM17.9229 20.9754L17.5151 21.7021C17.7931 21.8581 18.1099 21.9311 18.4281 21.9125L18.3794 21.0806L18.3307 20.2487H18.3307L17.9229 20.9754ZM18.3794 21.0806L18.4281 21.9125C18.7463 21.8939 19.0525 21.7844 19.3104 21.597L18.8205 20.9228L18.3307 20.2487H18.3307L18.3794 21.0806ZM18.8205 20.9228L19.3104 21.597C19.5682 21.4097 19.767 21.1523 19.883 20.8555L19.1069 20.5521L18.3307 20.2487H18.3307L18.8205 20.9228ZM19.1069 20.5521L19.883 20.8555C19.9991 20.5586 20.0275 20.2347 19.9651 19.9221L19.1479 20.0854L18.3307 20.2487L19.1069 20.5521ZM19.1479 20.0854L18.9854 19.268L18.1679 19.4305L18.3304 20.2479L18.4929 21.0652L19.3104 20.9027L19.1479 20.0854ZM12.9421 17.2321L13.6691 17.6393L14.0766 16.9118L13.3496 16.5046L12.6225 16.0973L12.215 16.8248L12.9421 17.2321ZM13.3496 16.5046L13.7567 15.7774C13.5079 15.6382 13.2276 15.565 12.9425 15.565V16.3984V17.2317L12.9425 17.2317L13.3496 16.5046ZM12.9425 16.3984V15.565C12.6574 15.565 12.3771 15.6382 12.1283 15.7774L12.5354 16.5046L12.9425 17.2317L12.9425 17.2317V16.3984ZM12.5354 16.5046L11.808 16.9112L12.2147 17.6387L12.9421 17.2321L13.6695 16.8254L13.2628 16.0979L12.5354 16.5046ZM7.55374 20.2487L7.71717 19.4316L6.9005 19.2682L6.73708 20.0854L6.57365 20.9025L7.39031 21.0659L7.55374 20.2487ZM6.73708 20.0854L5.91979 19.9226C5.85759 20.235 5.88618 20.5586 6.00218 20.8552L6.77827 20.5517L7.55436 20.2481V20.2481L6.73708 20.0854ZM6.77827 20.5517L6.00218 20.8552C6.11817 21.1518 6.31671 21.4089 6.57429 21.5962L7.06433 20.9222L7.55436 20.2481V20.2481L6.77827 20.5517ZM7.06433 20.9222L6.57429 21.5962C6.83188 21.7835 7.13773 21.893 7.45563 21.9119L7.505 21.08L7.55436 20.2481V20.2481L7.06433 20.9222ZM7.505 21.08L7.45563 21.9119C7.77354 21.9307 8.0902 21.8581 8.36812 21.7026L7.96124 20.9754L7.55436 20.2481H7.55436L7.505 21.08ZM7.96124 20.9754L8.68809 20.5678L8.28059 19.8411L7.55374 20.2487L6.8269 20.6563L7.2344 21.383L7.96124 20.9754ZM8.75708 14.1921L8.59541 15.0096L9.41291 15.1712L9.57458 14.3537L9.73624 13.5362L8.91874 13.3746L8.75708 14.1921ZM9.57458 14.3537L10.392 14.516C10.4475 14.2364 10.4303 13.9473 10.3422 13.6762L9.5497 13.9338L8.75719 14.1914V14.1914L9.57458 14.3537ZM9.5497 13.9338L10.3422 13.6762C10.2541 13.4051 10.0979 13.1612 9.88862 12.9677L9.32291 13.5796L8.75719 14.1914V14.1914L9.5497 13.9338ZM9.32291 13.5796L8.7108 13.0141L8.14496 13.6266L8.75708 14.1921L9.36919 14.7575L9.93502 14.145L9.32291 13.5796ZM4.22374 9.99872L5.05135 9.90121L4.95385 9.07371L4.12624 9.17122L3.29863 9.26874L3.39613 10.0962L4.22374 9.99872ZM4.12624 9.17122L4.02853 8.34364C3.71228 8.38098 3.41335 8.50814 3.16711 8.71007L3.69553 9.35444L4.22396 9.99881H4.22396L4.12624 9.17122ZM3.69553 9.35444L3.16711 8.71007C2.92087 8.912 2.73764 9.18024 2.6391 9.48306L3.43153 9.74093L4.22396 9.99881L4.22396 9.99881L3.69553 9.35444ZM3.43153 9.74093L2.6391 9.48306C2.54055 9.78588 2.53083 10.1106 2.61107 10.4188L3.41751 10.2088L4.22396 9.99881L4.22396 9.99881L3.43153 9.74093ZM3.41751 10.2088L2.61107 10.4188C2.69131 10.7269 2.85815 11.0057 3.09186 11.222L3.65791 10.6104L4.22396 9.99881H4.22396L3.41751 10.2088ZM3.65791 10.6104L4.26964 11.1763L4.83547 10.5646L4.22374 9.99872L3.61201 9.43283L3.04618 10.0445L3.65791 10.6104ZM10.3287 10.1137L10.4167 10.9424C10.636 10.9191 10.8485 10.8525 11.042 10.7465L10.6414 10.0158L10.2408 9.28504V9.28504L10.3287 10.1137ZM10.6414 10.0158L11.042 10.7465C11.2354 10.6405 11.4058 10.4971 11.5434 10.3248L10.8921 9.8049L10.2408 9.28504L10.6414 10.0158ZM10.8921 9.8049L11.5434 10.3248C11.681 10.1524 11.783 9.95441 11.8435 9.74231L11.0421 9.51368L10.2408 9.28504V9.28504L10.8921 9.8049ZM11.0421 9.51368L11.8435 9.74231C11.904 9.53022 11.9218 9.30823 11.8959 9.0892L11.0683 9.18712L10.2408 9.28504V9.28504L11.0421 9.51368ZM11.0683 9.18712L11.8959 9.0892C11.87 8.87017 11.8008 8.65846 11.6925 8.46635L10.9666 8.8757L10.2408 9.28504H10.2408L11.0683 9.18712ZM10.9666 8.8757L11.6925 8.46635C11.5842 8.27424 11.4388 8.10554 11.2648 7.97003L10.7528 8.62754L10.2408 9.28504H10.2408L10.9666 8.8757ZM10.7528 8.62754L11.2648 7.97003C11.0907 7.83452 10.8915 7.7349 10.6787 7.67695L10.4598 8.481L10.2408 9.28504H10.2408L10.7528 8.62754ZM10.4598 8.481L10.6787 7.67695C10.4659 7.61899 10.2437 7.60385 10.025 7.6324L10.1329 8.45872L10.2408 9.28504L10.4598 8.481ZM10.1329 8.45872L9.30535 8.55665L9.50118 10.2116L10.3287 10.1137L11.1563 10.0158L10.9605 8.3608L10.1329 8.45872ZM18.4379 16.5137L19.2552 16.3513C19.2126 16.1366 19.128 15.9324 19.0064 15.7504L18.3135 16.2132L17.6205 16.6761L17.6206 16.6762L18.4379 16.5137ZM18.3135 16.2132L19.0064 15.7504C18.8849 15.5683 18.7286 15.4121 18.5466 15.2904L18.0836 15.9833L17.6205 16.6761L17.6205 16.6761L18.3135 16.2132ZM18.0836 15.9833L18.5466 15.2904C18.3646 15.1688 18.1605 15.0842 17.9458 15.0415L17.7831 15.8588L17.6204 16.6761L17.6205 16.6761L18.0836 15.9833ZM17.7831 15.8588L17.9458 15.0415C17.7311 14.9987 17.5101 14.9987 17.2954 15.0414L17.4579 15.8587L17.6204 16.6761H17.6204L17.7831 15.8588ZM17.4579 15.8587L17.2954 15.0414C17.0807 15.0841 16.8766 15.1686 16.6945 15.2902L17.1574 15.9831L17.6203 16.6761L17.6204 16.6761L17.4579 15.8587ZM17.1574 15.9831L16.6945 15.2902C16.5125 15.4118 16.3562 15.568 16.2346 15.75L16.9274 16.2131L17.6203 16.6761L17.6203 16.6761L17.1574 15.9831ZM16.9274 16.2131L16.2346 15.75C16.113 15.932 16.0284 16.1361 15.9857 16.3508L16.8029 16.5135L17.6202 16.6762L17.6203 16.6761L16.9274 16.2131ZM16.8029 16.5135L15.9857 16.3508C15.9429 16.5655 15.9429 16.7865 15.9856 17.0012L16.8029 16.8387L17.6202 16.6763L17.6202 16.6762L16.8029 16.5135ZM16.8029 16.8387L16.9654 17.6561L18.6004 17.3311L18.4379 16.5137L18.2754 15.6964L16.6404 16.0214L16.8029 16.8387ZM11.0429 5.79289L10.2863 5.44373C10.101 5.84509 10.0829 6.30358 10.2357 6.71834L11.0176 6.4302L11.7996 6.14206V6.14205L11.0429 5.79289ZM11.0176 6.4302L10.2357 6.71834C10.3885 7.13311 10.6999 7.47017 11.1012 7.65538L11.4504 6.89872L11.7996 6.14207L11.7996 6.14206L11.0176 6.4302ZM11.4504 6.89872L11.1012 7.65538C11.5026 7.84059 11.9611 7.85877 12.3759 7.70593L12.0877 6.924L11.7996 6.14207L11.7996 6.14207L11.4504 6.89872ZM12.0877 6.924L12.3759 7.70593C12.7906 7.55309 13.1277 7.24174 13.3129 6.84038L12.5562 6.49122L11.7996 6.14206L11.7996 6.14207L12.0877 6.924ZM12.5562 6.49122L12.9054 5.73457L11.3921 5.03623L11.0429 5.79289L10.6937 6.54955L12.2071 7.24788L12.5562 6.49122ZM17.9754 12.2721L17.4009 11.6685C17.0837 11.9704 16.898 12.385 16.8841 12.8227L17.717 12.8492L18.55 12.8757H18.55L17.9754 12.2721ZM17.717 12.8492L16.8841 12.8227C16.8702 13.2604 17.0291 13.686 17.3265 14.0074L17.9382 13.4416L18.55 12.8757L17.717 12.8492ZM17.9382 13.4416L17.3265 14.0074C17.6239 14.3289 18.0358 14.5204 18.4733 14.5406L18.5116 13.7081L18.55 12.8757H18.55L17.9382 13.4416ZM18.5116 13.7081L18.4733 14.5406C18.9107 14.5607 19.3385 14.4079 19.6642 14.1151L19.1071 13.4954L18.55 12.8757V12.8757L18.5116 13.7081ZM19.1071 13.4954L19.7188 12.9295L18.5871 11.7062L17.9754 12.2721L17.3637 12.8379L18.4953 14.0613L19.1071 13.4954ZM12.1854 4.01372L11.4286 4.36265L14.0145 9.97098L14.7712 9.62206L15.528 9.27313L12.9422 3.6648L12.1854 4.01372ZM14.7712 9.62206L15.1202 10.3788L16.6344 9.68045L16.2854 8.92372L15.9364 8.16699L14.4222 8.86532L14.7712 9.62206ZM16.2854 8.92372L17.0421 8.57467L14.4554 2.96716L13.6987 3.31622L12.942 3.66528L15.5287 9.27278L16.2854 8.92372ZM13.6987 3.31622L13.3499 2.55941L11.8366 3.25691L12.1854 4.01372L12.5342 4.77054L14.0476 4.07304L13.6987 3.31622ZM15.4304 10.0996L15.3322 10.9271L21.4639 11.6546L21.5621 10.8271L21.6603 9.99953L15.5286 9.27203L15.4304 10.0996ZM21.5621 10.8271L22.3896 10.925L22.5855 9.26998L21.7579 9.17206L20.9303 9.07413L20.7345 10.7291L21.5621 10.8271ZM21.7579 9.17206L21.8561 8.34453L15.7244 7.61703L15.6262 8.44456L15.5281 9.27209L21.6597 9.99959L21.7579 9.17206ZM15.6262 8.44456L14.7987 8.34663L14.6028 10.0016L15.4304 10.0996L16.258 10.1975L16.4538 8.54248L15.6262 8.44456ZM18.7371 19.5212L19.1442 18.7941L13.7558 15.7774L13.3487 16.5046L12.9417 17.2317L18.33 20.2484L18.7371 19.5212ZM13.3487 16.5046L12.6213 16.0979L11.808 17.5529L12.5354 17.9596L13.2628 18.3662L14.0761 16.9112L13.3487 16.5046ZM12.5354 17.9596L12.1284 18.6867L17.5159 21.7025L17.9229 20.9754L18.33 20.2482L12.9425 17.2324L12.5354 17.9596ZM17.9229 20.9754L18.65 21.3825L19.4642 19.9283L18.7371 19.5212L18.01 19.1141L17.1958 20.5683L17.9229 20.9754ZM12.5354 16.5046L12.1283 15.7774L6.73999 18.7941L7.14708 19.5212L7.55416 20.2484L12.9425 17.2317L12.5354 16.5046ZM7.14708 19.5212L6.41995 19.9283L7.23412 21.3825L7.96124 20.9754L8.68837 20.5683L7.8742 19.1141L7.14708 19.5212ZM7.96124 20.9754L8.36833 21.7025L13.7567 18.6859L13.3496 17.9587L12.9425 17.2316L7.55415 20.2483L7.96124 20.9754ZM13.3496 17.9587L14.0767 17.5516L13.2625 16.0975L12.5354 16.5046L11.8083 16.9117L12.6225 18.3658L13.3496 17.9587ZM8.37124 20.4104L9.1886 20.5728L10.3919 14.5161L9.57458 14.3537L8.75722 14.1913L7.55388 20.248L8.37124 20.4104ZM9.57458 14.3537L9.73712 13.5364L8.10296 13.2114L7.94041 14.0287L7.77786 14.846L9.41203 15.171L9.57458 14.3537ZM7.94041 14.0287L7.12305 13.8663L5.91972 19.923L6.73708 20.0854L7.55443 20.2478L8.75777 14.1911L7.94041 14.0287ZM6.73708 20.0854L6.57453 20.9027L8.20869 21.2277L8.37124 20.4104L8.53379 19.5931L6.89962 19.2681L6.73708 20.0854ZM9.32291 13.5796L9.88866 12.9677L5.35532 8.77603L4.78958 9.38789L4.22383 9.99975L8.75716 14.1914L9.32291 13.5796ZM4.78958 9.38789L4.17764 8.82222L3.04681 10.0456L3.65874 10.6112L4.27068 11.1769L5.40151 9.95356L4.78958 9.38789ZM3.65874 10.6112L3.093 11.2231L7.62633 15.4148L8.19208 14.8029L8.75782 14.191L4.22449 9.99936L3.65874 10.6112ZM8.19208 14.8029L8.80401 15.3686L9.93484 14.1452L9.32291 13.5796L8.71097 13.0139L7.58014 14.2372L8.19208 14.8029ZM4.32291 10.8271L4.42108 11.6546L10.4269 10.9421L10.3287 10.1146L10.2306 9.28703L4.22474 9.99953L4.32291 10.8271ZM10.3287 10.1146L11.1563 10.0167L10.9605 8.36085L10.1329 8.45872L9.30534 8.5566L9.50118 10.2124L10.3287 10.1146ZM10.1329 8.45872L10.0347 7.63119L4.02808 8.34369L4.12624 9.17122L4.2244 9.99875L10.2311 9.28625L10.1329 8.45872ZM4.12624 9.17122L3.29873 9.26951L3.49539 10.9253L4.32291 10.8271L5.15043 10.7288L4.95376 9.07294L4.12624 9.17122ZM16.8029 16.8387L15.9856 17.0012L16.6956 20.5729L17.5129 20.4104L18.3302 20.2479L17.6202 16.6762L16.8029 16.8387ZM17.5129 20.4104L17.6754 21.2277L19.3104 20.9027L19.1479 20.0854L18.9854 19.268L17.3504 19.593L17.5129 20.4104ZM19.1479 20.0854L19.9652 19.9229L19.2552 16.352L18.4379 16.5146L17.6206 16.6771L18.3306 20.2479L19.1479 20.0854ZM18.4379 16.5146L18.2758 15.6971L16.6408 16.0213L16.8029 16.8387L16.965 17.6561L18.6 17.332L18.4379 16.5146ZM12.5562 6.49122L13.3129 6.84029L14.4554 4.36363L13.6987 4.01456L12.942 3.66549L11.7995 6.14215L12.5562 6.49122ZM13.6987 4.01456L14.0479 3.2579L12.5346 2.55957L12.1854 3.31622L11.8362 4.07288L13.3496 4.77121L13.6987 4.01456ZM12.1854 3.31622L11.4286 2.96736L10.2869 5.44403L11.0437 5.79289L11.8005 6.14175L12.9422 3.66508L12.1854 3.31622ZM11.0437 5.79289L10.6944 6.54947L12.2069 7.24781L12.5562 6.49122L12.9056 5.73464L11.3931 5.03631L11.0437 5.79289ZM21.0946 9.38789L20.5289 8.77595L17.4097 11.6593L17.9754 12.2712L18.5411 12.8832L21.6602 9.99982L21.0946 9.38789ZM17.9754 12.2712L17.3633 12.8367L18.495 14.0617L19.1071 13.4962L19.7192 12.9307L18.5875 11.7057L17.9754 12.2712ZM19.1071 13.4962L19.6729 14.108L22.7921 11.223L22.2262 10.6112L21.6604 9.99945L18.5412 12.8844L19.1071 13.4962ZM22.2262 10.6112L22.838 10.0453L21.7063 8.822L21.0946 9.38789L20.4828 9.95378L21.6145 11.1771L22.2262 10.6112Z" fill="#666666" mask="url(#path-1-inside-1_41528_452338)"/>
<path d="M6.27539 5.33203L19.6087 18.6654" stroke="#666666" stroke-width="1.66667" stroke-linecap="round"/>
</g>
<defs>
<clipPath id="clip0_41528_452338">
<rect width="20" height="20" fill="white" transform="translate(2.94238 2)"/>
</clipPath>
</defs>
</svg>
