<svg width="32" height="32" viewBox="0 0 32 32" fill="none" xmlns="http://www.w3.org/2000/svg">
<path d="M6.66667 8.00004V18.6667H25.3333V8.00004H6.66667ZM6.66667 5.33337H25.3333C26.0406 5.33337 26.7189 5.61433 27.219 6.11442C27.719 6.61452 28 7.2928 28 8.00004V18.6667C28 19.374 27.719 20.0522 27.219 20.5523C26.7189 21.0524 26.0406 21.3334 25.3333 21.3334H6.66667C5.95942 21.3334 5.28115 21.0524 4.78105 20.5523C4.28095 20.0522 4 19.374 4 18.6667V8.00004C4 7.2928 4.28095 6.61452 4.78105 6.11442C5.28115 5.61433 5.95942 5.33337 6.66667 5.33337Z" fill="white"/>
<path d="M4.00008 26.6667H28.0001C28.3537 26.6667 28.6928 26.5262 28.9429 26.2761C29.1929 26.0261 29.3334 25.687 29.3334 25.3333C29.3334 24.9797 29.1929 24.6406 28.9429 24.3905C28.6928 24.1405 28.3537 24 28.0001 24H4.00008C3.64646 24 3.30732 24.1405 3.05727 24.3905C2.80722 24.6406 2.66675 24.9797 2.66675 25.3333C2.66675 25.687 2.80722 26.0261 3.05727 26.2761C3.30732 26.5262 3.64646 26.6667 4.00008 26.6667Z" fill="white"/>
</svg>
