<svg width="12" height="12" viewBox="0 0 12 12" fill="none" xmlns="http://www.w3.org/2000/svg">
<path d="M10.907 10.3203H1.09366C0.857659 10.3203 0.666992 10.511 0.666992 10.747V11.227C0.666992 11.2857 0.714992 11.3337 0.773659 11.3337H11.227C11.2857 11.3337 11.3337 11.2857 11.3337 11.227V10.747C11.3337 10.511 11.143 10.3203 10.907 10.3203ZM2.60966 9.20033C2.63633 9.20033 2.66299 9.19766 2.68966 9.19366L4.93233 8.80033C4.95899 8.79499 4.98433 8.78299 5.00299 8.76299L10.655 3.11099C10.6674 3.09866 10.6772 3.08401 10.6838 3.06788C10.6905 3.05175 10.694 3.03445 10.694 3.01699C10.694 2.99953 10.6905 2.98224 10.6838 2.96611C10.6772 2.94998 10.6674 2.93533 10.655 2.92299L8.43899 0.705659C8.41366 0.680326 8.38032 0.666992 8.34433 0.666992C8.30832 0.666992 8.27499 0.680326 8.24966 0.705659L2.59766 6.35766C2.57766 6.37766 2.56566 6.40166 2.56033 6.42832L2.16699 8.67099C2.15402 8.74242 2.15866 8.81593 2.18049 8.88517C2.20233 8.9544 2.24072 9.01727 2.29233 9.06833C2.38033 9.15366 2.49099 9.20033 2.60966 9.20033Z" fill="#00A2B9"/>
</svg>
