<svg width="20" height="20" viewBox="0 0 20 20" fill="none" xmlns="http://www.w3.org/2000/svg">
<line x1="5.6499" y1="2.41699" x2="5.6499" y2="18.417" stroke="#00A2B9" stroke-width="1.5" stroke-linecap="round" stroke-linejoin="round"/>
<path d="M8.34982 8.00354C8.34982 9.42641 7.20412 10.5725 5.79991 10.5725C4.3957 10.5725 3.25 9.42641 3.25 8.00354C3.25 6.58066 4.3957 5.43457 5.79991 5.43457C7.20412 5.43457 8.34982 6.58066 8.34982 8.00354Z" fill="white" stroke="#00A2B9" stroke-width="1.5"/>
<line x1="14.3496" y1="18.417" x2="14.3496" y2="2.41699" stroke="#00A2B9" stroke-width="1.5" stroke-linecap="round" stroke-linejoin="round"/>
<path d="M11.6502 12.8304C11.6502 11.4076 12.7959 10.2615 14.2001 10.2615C15.6043 10.2615 16.75 11.4076 16.75 12.8304C16.75 14.2533 15.6043 15.3994 14.2001 15.3994C12.7959 15.3994 11.6502 14.2533 11.6502 12.8304Z" fill="white" stroke="#00A2B9" stroke-width="1.5"/>
</svg>
