<svg width="30" height="28" viewBox="0 0 30 28" fill="none" xmlns="http://www.w3.org/2000/svg">
<rect width="29.7143" height="28" rx="8" fill="#00A2B9" fill-opacity="0.1"/>
<path d="M10.2857 12.184V6.57143C10.2857 6.41988 10.3459 6.27453 10.4531 6.16737C10.5602 6.0602 10.7056 6 10.8571 6C11.0087 6 11.154 6.0602 11.2612 6.16737C11.3684 6.27453 11.4286 6.41988 11.4286 6.57143V12.184C11.7629 12.0658 12.0524 11.8468 12.2571 11.5571C12.4618 11.2675 12.5716 10.9215 12.5714 10.5669V6.57143C12.5714 6.41988 12.6316 6.27453 12.7388 6.16737C12.846 6.0602 12.9913 6 13.1429 6C13.2944 6 13.4398 6.0602 13.5469 6.16737C13.6541 6.27453 13.7143 6.41988 13.7143 6.57143V10.5669C13.7144 11.2255 13.487 11.864 13.0705 12.3742C12.6539 12.8845 12.0739 13.2351 11.4286 13.3669V21.4286C11.4286 21.5801 11.3684 21.7255 11.2612 21.8326C11.154 21.9398 11.0087 22 10.8571 22C10.7056 22 10.5602 21.9398 10.4531 21.8326C10.3459 21.7255 10.2857 21.5801 10.2857 21.4286V13.3669C9.64036 13.2351 9.06035 12.8845 8.64382 12.3742C8.2273 11.864 7.99987 11.2255 8 10.5669V6.57143C8 6.41988 8.0602 6.27453 8.16737 6.16737C8.27453 6.0602 8.41988 6 8.57143 6C8.72298 6 8.86833 6.0602 8.97549 6.16737C9.08265 6.27453 9.14286 6.41988 9.14286 6.57143V10.5669C9.14267 10.9215 9.25249 11.2675 9.45717 11.5571C9.66186 11.8468 9.95134 12.0658 10.2857 12.184ZM17.7143 15.08C16.0926 14.7166 14.8571 12.8366 14.8571 10.5714C14.8571 8.04571 16.392 6 18.2857 6C20.1794 6 21.7143 8.04571 21.7143 10.5714C21.7143 12.8366 20.4789 14.7166 18.8571 15.08V21.4286C18.8571 21.5801 18.7969 21.7255 18.6898 21.8326C18.5826 21.9398 18.4373 22 18.2857 22C18.1342 22 17.9888 21.9398 17.8817 21.8326C17.7745 21.7255 17.7143 21.5801 17.7143 21.4286V15.08ZM18.2857 14C19.4651 14 20.5714 12.5257 20.5714 10.5714C20.5714 8.61714 19.4651 7.14286 18.2857 7.14286C17.1063 7.14286 16 8.61714 16 10.5714C16 12.5257 17.1063 14 18.2857 14Z" fill="#00A2B9"/>
</svg>
