<svg width="120" height="120" viewBox="0 0 120 120" fill="none" xmlns="http://www.w3.org/2000/svg">
<defs>
<clipPath id="clip0_36477_61285">
<rect width="120" height="120" rx="60" fill="white"/>
</clipPath>
</defs>
<g clip-path="url(#clip0_36477_61285)">
<rect width="120" height="120" rx="8" fill="#FEEDEC"/>
<path d="M78.6668 46.6667H76.0002V44C76.0002 41.8783 75.1573 39.8434 73.657 38.3431C72.1567 36.8429 70.1219 36 68.0002 36H41.3335C39.2118 36 37.1769 36.8429 35.6766 38.3431C34.1764 39.8434 33.3335 41.8783 33.3335 44V76C33.3335 78.1217 34.1764 80.1566 35.6766 81.6569C37.1769 83.1571 39.2118 84 41.3335 84H78.6668C80.7886 84 82.8234 83.1571 84.3237 81.6569C85.824 80.1566 86.6668 78.1217 86.6668 76V54.6667C86.6668 52.5449 85.824 50.5101 84.3237 49.0098C82.8234 47.5095 80.7886 46.6667 78.6668 46.6667ZM41.3335 41.3333H68.0002C68.7074 41.3333 69.3857 41.6143 69.8858 42.1144C70.3859 42.6145 70.6668 43.2928 70.6668 44V46.6667H41.3335C40.6263 46.6667 39.948 46.3857 39.4479 45.8856C38.9478 45.3855 38.6668 44.7072 38.6668 44C38.6668 43.2928 38.9478 42.6145 39.4479 42.1144C39.948 41.6143 40.6263 41.3333 41.3335 41.3333ZM81.3335 68H78.6668C77.9596 68 77.2813 67.719 76.7812 67.219C76.2811 66.7189 76.0002 66.0406 76.0002 65.3333C76.0002 64.6261 76.2811 63.9478 76.7812 63.4477C77.2813 62.9476 77.9596 62.6667 78.6668 62.6667H81.3335V68ZM81.3335 57.3333H78.6668C76.5451 57.3333 74.5103 58.1762 73.01 59.6765C71.5097 61.1768 70.6668 63.2116 70.6668 65.3333C70.6668 67.4551 71.5097 69.4899 73.01 70.9902C74.5103 72.4905 76.5451 73.3333 78.6668 73.3333H81.3335V76C81.3335 76.7072 81.0525 77.3855 80.5525 77.8856C80.0524 78.3857 79.3741 78.6667 78.6668 78.6667H41.3335C40.6263 78.6667 39.948 78.3857 39.4479 77.8856C38.9478 77.3855 38.6668 76.7072 38.6668 76V51.5467C39.5235 51.848 40.4253 52.0013 41.3335 52H78.6668C79.3741 52 80.0524 52.281 80.5525 52.781C81.0525 53.2811 81.3335 53.9594 81.3335 54.6667V57.3333Z" fill="#DE350B"/>
<path opacity="0.1" d="M-134.157 79.0382L-137.647 67.7068V137.647H176.47V-15.8828L172.98 -8.85403C169.49 -1.82525 162.509 12.2323 155.529 14.1788C148.549 16.1253 141.568 5.96074 134.588 15.3122C127.607 24.6638 120.627 53.5313 113.647 62.5374C106.666 71.5434 99.6859 60.6879 92.7055 60.799C85.7251 60.91 78.7447 71.9878 71.7643 72.8951C64.7839 73.8025 57.8035 64.5395 50.8231 66.6727C43.8427 68.8059 36.8623 82.3352 29.8819 82.6419C22.9016 82.9486 15.9212 70.0327 8.94077 65.9689C1.96037 61.9051 -5.02002 66.6934 -12.0004 77.6771C-18.9808 88.6608 -25.9612 105.84 -32.9416 109.089C-39.922 112.338 -46.9024 101.658 -53.8828 92.0704C-60.8632 82.4827 -67.8435 73.9877 -74.8239 71.9373C-81.8043 69.887 -88.7847 74.2813 -95.7651 85.9817C-102.746 97.6822 -109.726 116.689 -116.706 114.861C-123.687 113.033 -130.667 90.3697 -134.157 79.0382Z" fill="#F25043"/>
</g>
</svg>
