<svg width="32" height="32" viewBox="0 0 32 32" fill="none" xmlns="http://www.w3.org/2000/svg">
<path d="M21 12C21 11.3434 20.8707 10.6932 20.6194 10.0866C20.3681 9.47995 19.9998 8.92876 19.5355 8.46447C19.0712 8.00017 18.52 7.63188 17.9134 7.3806C17.3068 7.12933 16.6566 7 16 7C15.3434 7 14.6932 7.12933 14.0866 7.3806C13.48 7.63188 12.9288 8.00017 12.4645 8.46447C12.0002 8.92876 11.6319 9.47996 11.3806 10.0866C11.1293 10.6932 11 11.3434 11 12L16 12H21Z" fill="#F3AF00"/>
<rect x="15.5" y="4" width="1" height="2" rx="0.5" fill="#F3AF00"/>
<rect x="10" y="11" width="1" height="2" rx="0.5" transform="rotate(90 10 11)" fill="#F3AF00"/>
<rect width="1" height="2" rx="0.5" transform="matrix(4.37114e-08 1 1 -4.37114e-08 21.8652 11)" fill="#F3AF00"/>
<rect width="1" height="2" rx="0.5" transform="matrix(-0.866025 0.5 0.5 0.866025 11.8652 5)" fill="#F3AF00"/>
<rect x="20" y="5" width="1" height="2" rx="0.5" transform="rotate(30 20 5)" fill="#F3AF00"/>
<rect width="1" height="2" rx="0.5" transform="matrix(-0.5 0.866025 0.866025 0.5 9 7.5)" fill="#F3AF00"/>
<rect x="22.8652" y="7.5" width="1" height="2" rx="0.5" transform="rotate(60 22.8652 7.5)" fill="#F3AF00"/>
<mask id="path-9-inside-1_17689_163746" fill="white">
<path fill-rule="evenodd" clip-rule="evenodd" d="M15.5 14H6L4.14286 20.5H15.5V14ZM16.5 14V20.5H27.8571L26 14H16.5ZM28.1429 21.5H16.5V28H30L28.1429 21.5ZM15.5 28V21.5H3.85714L2 28H15.5Z"/>
</mask>
<path fill-rule="evenodd" clip-rule="evenodd" d="M15.5 14H6L4.14286 20.5H15.5V14ZM16.5 14V20.5H27.8571L26 14H16.5ZM28.1429 21.5H16.5V28H30L28.1429 21.5ZM15.5 28V21.5H3.85714L2 28H15.5Z" fill="#00A2B9"/>
<path d="M6 14V13H5.2457L5.03848 13.7253L6 14ZM15.5 14H16.5V13H15.5V14ZM4.14286 20.5L3.18133 20.2253L2.81713 21.5H4.14286V20.5ZM15.5 20.5V21.5H16.5V20.5H15.5ZM16.5 20.5H15.5V21.5H16.5V20.5ZM16.5 14V13H15.5V14H16.5ZM27.8571 20.5V21.5H29.1829L28.8187 20.2253L27.8571 20.5ZM26 14L26.9615 13.7253L26.7543 13H26V14ZM16.5 21.5V20.5H15.5V21.5H16.5ZM28.1429 21.5L29.1044 21.2253L28.8972 20.5H28.1429V21.5ZM16.5 28H15.5V29H16.5V28ZM30 28V29H31.3257L30.9615 27.7253L30 28ZM15.5 21.5H16.5V20.5H15.5V21.5ZM15.5 28V29H16.5V28H15.5ZM3.85714 21.5V20.5H3.10284L2.89562 21.2253L3.85714 21.5ZM2 28L1.03848 27.7253L0.67427 29H2V28ZM6 15H15.5V13H6V15ZM5.10438 20.7747L6.96152 14.2747L5.03848 13.7253L3.18133 20.2253L5.10438 20.7747ZM15.5 19.5H4.14286V21.5H15.5V19.5ZM14.5 14V20.5H16.5V14H14.5ZM17.5 20.5V14H15.5V20.5H17.5ZM27.8571 19.5H16.5V21.5H27.8571V19.5ZM25.0385 14.2747L26.8956 20.7747L28.8187 20.2253L26.9615 13.7253L25.0385 14.2747ZM16.5 15H26V13H16.5V15ZM16.5 22.5H28.1429V20.5H16.5V22.5ZM17.5 28V21.5H15.5V28H17.5ZM30 27H16.5V29H30V27ZM27.1813 21.7747L29.0385 28.2747L30.9615 27.7253L29.1044 21.2253L27.1813 21.7747ZM14.5 21.5V28H16.5V21.5H14.5ZM3.85714 22.5H15.5V20.5H3.85714V22.5ZM2.96152 28.2747L4.81867 21.7747L2.89562 21.2253L1.03848 27.7253L2.96152 28.2747ZM15.5 27H2V29H15.5V27Z" fill="#00A2B9" mask="url(#path-9-inside-1_17689_163746)"/>
<path fill-rule="evenodd" clip-rule="evenodd" d="M3.85742 21.5L4.14314 20.5H9.60742L11.0003 14H12.0003L10.6074 20.5H15.5003V14H16.5003V20.5H21.3931L20.0003 14H21.0003L22.3931 20.5H27.8574L28.1431 21.5H22.6074L24.0003 28H23.0003L21.6074 21.5H16.5003V28H15.5003V21.5H10.3931L9.00028 28H8.00028L9.39314 21.5H3.85742Z" fill="white"/>
<circle cx="16" cy="21" r="4" fill="white"/>
<path d="M18 20.4H16.3636L16.7273 18L14 21.6H15.6364L15.2727 24L18 20.4Z" fill="#F3AF00"/>
</svg>
