<svg width="48" height="48" viewBox="0 0 48 48" fill="none" xmlns="http://www.w3.org/2000/svg">
<circle cx="24" cy="24" r="24" fill="#EFEFEF"/>
<path d="M22.6462 17.9324C22.8429 17.7356 22.9534 17.4688 22.9534 17.1906C22.9534 16.9124 22.8429 16.6456 22.6462 16.4489C22.4494 16.2522 22.1826 16.1417 21.9044 16.1417C21.6262 16.1417 21.3594 16.2522 21.1627 16.4489L18.2042 19.4074L17.3724 18.6489C17.1658 18.4723 16.8985 18.3829 16.6271 18.3997C16.3558 18.4164 16.1016 18.538 15.9182 18.7388C15.7349 18.9396 15.6367 19.2037 15.6446 19.4755C15.6524 19.7473 15.7656 20.0054 15.9602 20.1952L17.5317 21.6305C17.7308 21.8117 17.992 21.9094 18.2612 21.9031C18.5304 21.8969 18.7869 21.7872 18.9774 21.5969L22.6441 17.9303L22.6462 17.9324ZM22.6462 26.9251C22.7437 27.0224 22.8211 27.138 22.8739 27.2653C22.9267 27.3926 22.9539 27.529 22.9539 27.6668C22.9539 27.8046 22.9267 27.9411 22.8739 28.0683C22.8211 28.1956 22.7437 28.3112 22.6462 28.4085L18.9795 32.0752C18.7886 32.2658 18.5316 32.3755 18.2619 32.3814C17.9922 32.3872 17.7306 32.2888 17.5317 32.1066L15.9602 30.6714C15.7656 30.4816 15.6524 30.2235 15.6446 29.9517C15.6367 29.6799 15.7349 29.4158 15.9182 29.215C16.1016 29.0142 16.3558 28.8926 16.6271 28.8759C16.8985 28.8591 17.1658 28.9485 17.3724 29.1251L18.2042 29.8857L21.1627 26.9251C21.26 26.8276 21.3756 26.7502 21.5029 26.6973C21.6302 26.6445 21.7666 26.6173 21.9044 26.6173C22.0422 26.6173 22.1787 26.6445 22.306 26.6973C22.4332 26.7502 22.5488 26.8276 22.6462 26.9251ZM26.0949 28.1906C25.8171 28.1906 25.5506 28.301 25.3541 28.4975C25.1577 28.6939 25.0473 28.9604 25.0473 29.2383C25.0473 29.5161 25.1577 29.7826 25.3541 29.979C25.5506 30.1755 25.8171 30.2859 26.0949 30.2859H31.333C31.6109 30.2859 31.8773 30.1755 32.0738 29.979C32.2703 29.7826 32.3806 29.5161 32.3806 29.2383C32.3806 28.9604 32.2703 28.6939 32.0738 28.4975C31.8773 28.301 31.6109 28.1906 31.333 28.1906H26.0949ZM25.0473 18.7621C25.0473 18.4842 25.1577 18.2178 25.3541 18.0213C25.5506 17.8248 25.8171 17.7144 26.0949 17.7144H31.333C31.6109 17.7144 31.8773 17.8248 32.0738 18.0213C32.2703 18.2178 32.3806 18.4842 32.3806 18.7621C32.3806 19.0399 32.2703 19.3064 32.0738 19.5028C31.8773 19.6993 31.6109 19.8097 31.333 19.8097H26.0949C25.8171 19.8097 25.5506 19.6993 25.3541 19.5028C25.1577 19.3064 25.0473 19.0399 25.0473 18.7621ZM15.6187 9.3335C13.9516 9.3335 12.3529 9.99574 11.1741 11.1745C9.99525 12.3533 9.33301 13.9521 9.33301 15.6192V32.3811C9.33301 34.0482 9.99525 35.647 11.1741 36.8258C12.3529 38.0046 13.9516 38.6668 15.6187 38.6668H32.3806C34.0477 38.6668 35.6465 38.0046 36.8253 36.8258C38.0041 35.647 38.6663 34.0482 38.6663 32.3811V15.6192C38.6663 13.9521 38.0041 12.3533 36.8253 11.1745C35.6465 9.99574 34.0477 9.3335 32.3806 9.3335H15.6187ZM11.4282 15.6192C11.4282 14.5078 11.8697 13.442 12.6556 12.6561C13.4415 11.8702 14.5073 11.4287 15.6187 11.4287H32.3806C33.492 11.4287 34.5579 11.8702 35.3437 12.6561C36.1296 13.442 36.5711 14.5078 36.5711 15.6192V32.3811C36.5711 33.4925 36.1296 34.5584 35.3437 35.3442C34.5579 36.1301 33.492 36.5716 32.3806 36.5716H15.6187C14.5073 36.5716 13.4415 36.1301 12.6556 35.3442C11.8697 34.5584 11.4282 33.4925 11.4282 32.3811V15.6192Z" fill="#BDBDBD"/>
</svg>
