<svg width="148" height="68" viewBox="0 0 148 68" fill="none" xmlns="http://www.w3.org/2000/svg">
<g filter="url(#filter0_d_27760_189697)">
<rect x="10" y="12" width="130" height="44" rx="8" fill="#25262B" fill-opacity="0.72"/>
<path d="M28.8301 29.0469V39H26.9502V29.0469H28.8301ZM34.8047 29.0469L30.8125 33.9004L28.5293 36.3408L28.1943 34.5156L29.7803 32.458L32.501 29.0469H34.8047ZM32.7129 39L29.6162 34.3379L30.9629 33.1211L34.9482 39H32.7129ZM38.8311 39.1367C38.2705 39.1367 37.7669 39.0456 37.3203 38.8633C36.8737 38.681 36.4932 38.4281 36.1787 38.1045C35.8688 37.7764 35.6296 37.3958 35.4609 36.9629C35.2969 36.5254 35.2148 36.056 35.2148 35.5547V35.2812C35.2148 34.7116 35.2969 34.1943 35.4609 33.7295C35.625 33.2601 35.8574 32.8568 36.1582 32.5195C36.459 32.1823 36.819 31.9225 37.2383 31.7402C37.6576 31.5579 38.1201 31.4668 38.626 31.4668C39.1501 31.4668 39.6126 31.5557 40.0137 31.7334C40.4147 31.9066 40.7497 32.1527 41.0186 32.4717C41.2874 32.7907 41.4902 33.1735 41.627 33.6201C41.7637 34.0622 41.832 34.5521 41.832 35.0898V35.8486H36.0352V34.6045H40.0547V34.4678C40.0456 34.1807 39.9909 33.9186 39.8906 33.6816C39.7904 33.4401 39.6354 33.2487 39.4258 33.1074C39.2161 32.9616 38.945 32.8887 38.6123 32.8887C38.3434 32.8887 38.1087 32.9479 37.9082 33.0664C37.7122 33.1803 37.5482 33.3444 37.416 33.5586C37.2884 33.7682 37.1927 34.0189 37.1289 34.3105C37.0651 34.6022 37.0332 34.9258 37.0332 35.2812V35.5547C37.0332 35.8646 37.0742 36.1517 37.1562 36.416C37.2428 36.6803 37.3682 36.9105 37.5322 37.1064C37.7008 37.2979 37.9014 37.4482 38.1338 37.5576C38.3708 37.6624 38.6396 37.7148 38.9404 37.7148C39.3187 37.7148 39.6605 37.6419 39.9658 37.4961C40.2757 37.3457 40.5446 37.1247 40.7725 36.833L41.6816 37.7764C41.5267 38.0042 41.3171 38.223 41.0527 38.4326C40.793 38.6423 40.4785 38.8132 40.1094 38.9453C39.7402 39.0729 39.3141 39.1367 38.8311 39.1367ZM44.8125 28.5V39H43.001V28.5H44.8125ZM44.5254 35.0352H43.9922C43.9922 34.5202 44.0605 34.0462 44.1973 33.6133C44.334 33.1803 44.5277 32.8044 44.7783 32.4854C45.029 32.1618 45.3275 31.9111 45.6738 31.7334C46.0247 31.5557 46.4121 31.4668 46.8359 31.4668C47.2005 31.4668 47.5309 31.5192 47.8271 31.624C48.1279 31.7243 48.3854 31.8861 48.5996 32.1094C48.8138 32.3327 48.9779 32.6243 49.0918 32.9844C49.2103 33.3398 49.2695 33.7728 49.2695 34.2832V39H47.4512V34.2695C47.4512 33.9277 47.401 33.6589 47.3008 33.4629C47.2005 33.2624 47.057 33.1188 46.8701 33.0322C46.6878 32.9456 46.4622 32.9023 46.1934 32.9023C45.9017 32.9023 45.651 32.9593 45.4414 33.0732C45.2318 33.1826 45.0586 33.3353 44.9219 33.5312C44.7897 33.7272 44.6895 33.9528 44.6211 34.208C44.5573 34.4632 44.5254 34.7389 44.5254 35.0352ZM54.9365 37.4277V34.0166C54.9365 33.766 54.8932 33.5495 54.8066 33.3672C54.7201 33.1849 54.5879 33.0436 54.4102 32.9434C54.2324 32.8431 54.0068 32.793 53.7334 32.793C53.4919 32.793 53.2799 32.834 53.0977 32.916C52.9199 32.998 52.7832 33.1143 52.6875 33.2646C52.5918 33.4105 52.5439 33.5791 52.5439 33.7705H50.7324C50.7324 33.4652 50.8053 33.1758 50.9512 32.9023C51.097 32.6243 51.3044 32.3783 51.5732 32.1641C51.8467 31.9453 52.1725 31.7744 52.5508 31.6514C52.9336 31.5283 53.362 31.4668 53.8359 31.4668C54.3965 31.4668 54.8955 31.5625 55.333 31.7539C55.7751 31.9408 56.1214 32.2233 56.3721 32.6016C56.6273 32.9798 56.7549 33.4561 56.7549 34.0303V37.2568C56.7549 37.626 56.7777 37.9427 56.8232 38.207C56.8734 38.4668 56.9463 38.6924 57.042 38.8838V39H55.2031C55.1165 38.8132 55.0505 38.5762 55.0049 38.2891C54.9593 37.9974 54.9365 37.7103 54.9365 37.4277ZM55.1895 34.4951L55.2031 35.5684H54.0615C53.779 35.5684 53.5306 35.598 53.3164 35.6572C53.1022 35.7119 52.9268 35.7939 52.79 35.9033C52.6533 36.0081 52.5508 36.1357 52.4824 36.2861C52.4141 36.432 52.3799 36.5983 52.3799 36.7852C52.3799 36.9674 52.4209 37.1315 52.5029 37.2773C52.5895 37.4232 52.7126 37.5394 52.8721 37.626C53.0361 37.708 53.2275 37.749 53.4463 37.749C53.7653 37.749 54.0433 37.6852 54.2803 37.5576C54.5173 37.4255 54.7018 37.266 54.834 37.0791C54.9661 36.8923 55.0368 36.7145 55.0459 36.5459L55.5654 37.3252C55.5016 37.512 55.4059 37.7103 55.2783 37.9199C55.1507 38.1296 54.9867 38.3255 54.7861 38.5078C54.5856 38.6901 54.3441 38.8405 54.0615 38.959C53.779 39.0775 53.4508 39.1367 53.0771 39.1367C52.5986 39.1367 52.1702 39.041 51.792 38.8496C51.4137 38.6582 51.1152 38.3962 50.8965 38.0635C50.6777 37.7308 50.5684 37.3525 50.5684 36.9287C50.5684 36.5368 50.6413 36.1904 50.7871 35.8896C50.9329 35.5889 51.1494 35.3359 51.4365 35.1309C51.7236 34.9212 52.0791 34.764 52.5029 34.6592C52.9313 34.5498 53.4212 34.4951 53.9727 34.4951H55.1895ZM62.8184 37.4277V28.5H64.6367V39H62.9961L62.8184 37.4277ZM58.0674 35.3906V35.2471C58.0674 34.682 58.1312 34.1693 58.2588 33.709C58.391 33.2441 58.5824 32.8454 58.833 32.5127C59.0837 32.18 59.3867 31.9225 59.7422 31.7402C60.1022 31.5579 60.5101 31.4668 60.9658 31.4668C61.4079 31.4668 61.793 31.5557 62.1211 31.7334C62.4538 31.9111 62.7363 32.1641 62.9688 32.4922C63.2057 32.8203 63.3949 33.21 63.5361 33.6611C63.6774 34.1077 63.7799 34.5999 63.8438 35.1377V35.5273C63.7799 36.0514 63.6774 36.5322 63.5361 36.9697C63.3949 37.4072 63.2057 37.79 62.9688 38.1182C62.7363 38.4417 62.4538 38.6924 62.1211 38.8701C61.7884 39.0479 61.3988 39.1367 60.9521 39.1367C60.501 39.1367 60.0954 39.0433 59.7354 38.8564C59.3799 38.6696 59.0768 38.4076 58.8262 38.0703C58.5801 37.7331 58.391 37.3366 58.2588 36.8809C58.1312 36.4251 58.0674 35.9284 58.0674 35.3906ZM59.8789 35.2471V35.3906C59.8789 35.7096 59.9062 36.0081 59.9609 36.2861C60.0156 36.5641 60.1045 36.8102 60.2275 37.0244C60.3506 37.234 60.5078 37.3981 60.6992 37.5166C60.8952 37.6351 61.1322 37.6943 61.4102 37.6943C61.7656 37.6943 62.0573 37.6169 62.2852 37.4619C62.5176 37.3024 62.6976 37.0859 62.8252 36.8125C62.9528 36.5345 63.0348 36.2223 63.0713 35.876V34.8027C63.0531 34.5293 63.0052 34.2764 62.9277 34.0439C62.8548 33.8115 62.75 33.611 62.6133 33.4424C62.4811 33.2738 62.3171 33.1416 62.1211 33.0459C61.9251 32.9502 61.6927 32.9023 61.4238 32.9023C61.1458 32.9023 60.9089 32.9639 60.7129 33.0869C60.5169 33.2054 60.3574 33.3717 60.2344 33.5859C60.1113 33.8001 60.0202 34.0485 59.9609 34.3311C59.9062 34.6136 59.8789 34.9189 59.8789 35.2471ZM68.1846 31.6035V39H66.373V31.6035H68.1846ZM66.25 29.6689C66.25 29.4001 66.3411 29.1768 66.5234 28.999C66.7103 28.8213 66.9609 28.7324 67.2754 28.7324C67.5898 28.7324 67.8382 28.8213 68.0205 28.999C68.2074 29.1768 68.3008 29.4001 68.3008 29.6689C68.3008 29.9333 68.2074 30.1543 68.0205 30.332C67.8382 30.5098 67.5898 30.5986 67.2754 30.5986C66.9609 30.5986 66.7103 30.5098 66.5234 30.332C66.3411 30.1543 66.25 29.9333 66.25 29.6689ZM71.7119 33.1143V39H69.9072V31.6035H71.6162L71.7119 33.1143ZM73.9609 31.5557L73.9336 33.2373C73.8333 33.2191 73.7194 33.2054 73.5918 33.1963C73.4688 33.1872 73.3525 33.1826 73.2432 33.1826C72.9652 33.1826 72.7214 33.2214 72.5117 33.2988C72.3021 33.3717 72.1266 33.4788 71.9854 33.6201C71.8486 33.7614 71.7438 33.9346 71.6709 34.1396C71.598 34.3402 71.557 34.568 71.5479 34.8232L71.1582 34.7754C71.1582 34.306 71.2061 33.8708 71.3018 33.4697C71.3975 33.0687 71.5365 32.7178 71.7188 32.417C71.901 32.1162 72.1289 31.8838 72.4023 31.7197C72.6803 31.5511 72.9993 31.4668 73.3594 31.4668C73.4596 31.4668 73.5667 31.4759 73.6807 31.4941C73.7992 31.5078 73.8926 31.5283 73.9609 31.5557ZM78.7939 37.4277V34.0166C78.7939 33.766 78.7507 33.5495 78.6641 33.3672C78.5775 33.1849 78.4453 33.0436 78.2676 32.9434C78.0898 32.8431 77.8643 32.793 77.5908 32.793C77.3493 32.793 77.1374 32.834 76.9551 32.916C76.7773 32.998 76.6406 33.1143 76.5449 33.2646C76.4492 33.4105 76.4014 33.5791 76.4014 33.7705H74.5898C74.5898 33.4652 74.6628 33.1758 74.8086 32.9023C74.9544 32.6243 75.1618 32.3783 75.4307 32.1641C75.7041 31.9453 76.0299 31.7744 76.4082 31.6514C76.791 31.5283 77.2194 31.4668 77.6934 31.4668C78.2539 31.4668 78.7529 31.5625 79.1904 31.7539C79.6325 31.9408 79.9788 32.2233 80.2295 32.6016C80.4847 32.9798 80.6123 33.4561 80.6123 34.0303V37.2568C80.6123 37.626 80.6351 37.9427 80.6807 38.207C80.7308 38.4668 80.8037 38.6924 80.8994 38.8838V39H79.0605C78.974 38.8132 78.9079 38.5762 78.8623 38.2891C78.8167 37.9974 78.7939 37.7103 78.7939 37.4277ZM79.0469 34.4951L79.0605 35.5684H77.9189C77.6364 35.5684 77.388 35.598 77.1738 35.6572C76.9596 35.7119 76.7842 35.7939 76.6475 35.9033C76.5107 36.0081 76.4082 36.1357 76.3398 36.2861C76.2715 36.432 76.2373 36.5983 76.2373 36.7852C76.2373 36.9674 76.2783 37.1315 76.3604 37.2773C76.4469 37.4232 76.57 37.5394 76.7295 37.626C76.8936 37.708 77.085 37.749 77.3037 37.749C77.6227 37.749 77.9007 37.6852 78.1377 37.5576C78.3747 37.4255 78.5592 37.266 78.6914 37.0791C78.8236 36.8923 78.8942 36.7145 78.9033 36.5459L79.4229 37.3252C79.359 37.512 79.2633 37.7103 79.1357 37.9199C79.0081 38.1296 78.8441 38.3255 78.6436 38.5078C78.443 38.6901 78.2015 38.8405 77.9189 38.959C77.6364 39.0775 77.3083 39.1367 76.9346 39.1367C76.4561 39.1367 76.0277 39.041 75.6494 38.8496C75.2712 38.6582 74.9727 38.3962 74.7539 38.0635C74.5352 37.7308 74.4258 37.3525 74.4258 36.9287C74.4258 36.5368 74.4987 36.1904 74.6445 35.8896C74.7904 35.5889 75.0068 35.3359 75.2939 35.1309C75.5811 34.9212 75.9365 34.764 76.3604 34.6592C76.7887 34.5498 77.2786 34.4951 77.8301 34.4951H79.0469ZM84.0098 33.1826V39H82.2051V31.6035H83.9004L84.0098 33.1826ZM83.7227 35.0352H83.1895C83.194 34.4974 83.2669 34.0098 83.4082 33.5723C83.5495 33.1348 83.7477 32.7588 84.0029 32.4443C84.2627 32.1299 84.5703 31.8883 84.9258 31.7197C85.2812 31.5511 85.6777 31.4668 86.1152 31.4668C86.4707 31.4668 86.792 31.5169 87.0791 31.6172C87.3662 31.7174 87.6123 31.877 87.8174 32.0957C88.027 32.3145 88.1865 32.6016 88.2959 32.957C88.4098 33.3079 88.4668 33.7409 88.4668 34.2559V39H86.6484V34.2422C86.6484 33.9049 86.5983 33.6383 86.498 33.4424C86.4023 33.2464 86.2611 33.1074 86.0742 33.0254C85.8919 32.9434 85.6663 32.9023 85.3975 32.9023C85.1195 32.9023 84.8757 32.9593 84.666 33.0732C84.4609 33.1826 84.2878 33.3353 84.1465 33.5312C84.0098 33.7272 83.9049 33.9528 83.832 34.208C83.7591 34.4632 83.7227 34.7389 83.7227 35.0352ZM98.8916 36.416C98.8916 36.2246 98.862 36.0537 98.8027 35.9033C98.748 35.7484 98.6455 35.6094 98.4951 35.4863C98.3493 35.3587 98.1419 35.2357 97.873 35.1172C97.6087 34.9941 97.2669 34.8665 96.8477 34.7344C96.3828 34.5885 95.9499 34.4245 95.5488 34.2422C95.1478 34.0599 94.7946 33.848 94.4893 33.6064C94.1885 33.3649 93.9538 33.0869 93.7852 32.7725C93.6165 32.4535 93.5322 32.0843 93.5322 31.665C93.5322 31.2549 93.6188 30.8812 93.792 30.5439C93.9697 30.2067 94.2204 29.9173 94.5439 29.6758C94.8675 29.4297 95.248 29.2406 95.6855 29.1084C96.1276 28.9762 96.6152 28.9102 97.1484 28.9102C97.8867 28.9102 98.5247 29.0446 99.0625 29.3135C99.6048 29.5824 100.024 29.9469 100.32 30.4072C100.617 30.8675 100.765 31.3848 100.765 31.959H98.8916C98.8916 31.6491 98.8255 31.3757 98.6934 31.1387C98.5658 30.9017 98.3698 30.7148 98.1055 30.5781C97.8457 30.4414 97.5176 30.373 97.1211 30.373C96.7383 30.373 96.4193 30.43 96.1641 30.5439C95.9134 30.6579 95.7243 30.8128 95.5967 31.0088C95.4736 31.2048 95.4121 31.4235 95.4121 31.665C95.4121 31.8473 95.4554 32.0114 95.542 32.1572C95.6286 32.2985 95.7585 32.4329 95.9316 32.5605C96.1048 32.6836 96.319 32.7998 96.5742 32.9092C96.834 33.014 97.1348 33.1188 97.4766 33.2236C98.0234 33.3877 98.502 33.57 98.9121 33.7705C99.3268 33.971 99.6709 34.1989 99.9443 34.4541C100.222 34.7093 100.43 34.9964 100.566 35.3154C100.708 35.6344 100.778 35.9967 100.778 36.4023C100.778 36.8307 100.694 37.2135 100.525 37.5508C100.357 37.888 100.115 38.1751 99.8008 38.4121C99.4863 38.6491 99.1081 38.8291 98.666 38.9521C98.2285 39.0752 97.7386 39.1367 97.1963 39.1367C96.7132 39.1367 96.2347 39.0729 95.7607 38.9453C95.2913 38.8132 94.8652 38.6172 94.4824 38.3574C94.0996 38.0931 93.7943 37.7604 93.5664 37.3594C93.3385 36.9538 93.2246 36.4798 93.2246 35.9375H95.1113C95.1113 36.252 95.1615 36.5208 95.2617 36.7441C95.3665 36.9629 95.5124 37.1429 95.6992 37.2842C95.8906 37.4209 96.1139 37.5212 96.3691 37.585C96.6243 37.6488 96.9001 37.6807 97.1963 37.6807C97.5791 37.6807 97.8936 37.6283 98.1396 37.5234C98.3903 37.4141 98.5771 37.2637 98.7002 37.0723C98.8278 36.8809 98.8916 36.6621 98.8916 36.416ZM106.165 37.4277V34.0166C106.165 33.766 106.122 33.5495 106.035 33.3672C105.949 33.1849 105.816 33.0436 105.639 32.9434C105.461 32.8431 105.235 32.793 104.962 32.793C104.72 32.793 104.508 32.834 104.326 32.916C104.148 32.998 104.012 33.1143 103.916 33.2646C103.82 33.4105 103.772 33.5791 103.772 33.7705H101.961C101.961 33.4652 102.034 33.1758 102.18 32.9023C102.326 32.6243 102.533 32.3783 102.802 32.1641C103.075 31.9453 103.401 31.7744 103.779 31.6514C104.162 31.5283 104.59 31.4668 105.064 31.4668C105.625 31.4668 106.124 31.5625 106.562 31.7539C107.004 31.9408 107.35 32.2233 107.601 32.6016C107.856 32.9798 107.983 33.4561 107.983 34.0303V37.2568C107.983 37.626 108.006 37.9427 108.052 38.207C108.102 38.4668 108.175 38.6924 108.271 38.8838V39H106.432C106.345 38.8132 106.279 38.5762 106.233 38.2891C106.188 37.9974 106.165 37.7103 106.165 37.4277ZM106.418 34.4951L106.432 35.5684H105.29C105.007 35.5684 104.759 35.598 104.545 35.6572C104.331 35.7119 104.155 35.7939 104.019 35.9033C103.882 36.0081 103.779 36.1357 103.711 36.2861C103.643 36.432 103.608 36.5983 103.608 36.7852C103.608 36.9674 103.649 37.1315 103.731 37.2773C103.818 37.4232 103.941 37.5394 104.101 37.626C104.265 37.708 104.456 37.749 104.675 37.749C104.994 37.749 105.272 37.6852 105.509 37.5576C105.746 37.4255 105.93 37.266 106.062 37.0791C106.195 36.8923 106.265 36.7145 106.274 36.5459L106.794 37.3252C106.73 37.512 106.634 37.7103 106.507 37.9199C106.379 38.1296 106.215 38.3255 106.015 38.5078C105.814 38.6901 105.573 38.8405 105.29 38.959C105.007 39.0775 104.679 39.1367 104.306 39.1367C103.827 39.1367 103.399 39.041 103.021 38.8496C102.642 38.6582 102.344 38.3962 102.125 38.0635C101.906 37.7308 101.797 37.3525 101.797 36.9287C101.797 36.5368 101.87 36.1904 102.016 35.8896C102.161 35.5889 102.378 35.3359 102.665 35.1309C102.952 34.9212 103.308 34.764 103.731 34.6592C104.16 34.5498 104.65 34.4951 105.201 34.4951H106.418ZM111.668 38.1797L113.65 31.6035H115.585L112.618 40.1211C112.55 40.3034 112.461 40.5016 112.352 40.7158C112.247 40.93 112.105 41.1328 111.928 41.3242C111.75 41.5202 111.527 41.6797 111.258 41.8027C110.993 41.9258 110.672 41.9873 110.294 41.9873C110.13 41.9873 109.984 41.9759 109.856 41.9531C109.729 41.9303 109.594 41.9007 109.453 41.8643V40.5107C109.499 40.5153 109.551 40.5176 109.61 40.5176C109.674 40.5221 109.729 40.5244 109.774 40.5244C110.039 40.5244 110.257 40.4925 110.431 40.4287C110.604 40.3695 110.743 40.2715 110.848 40.1348C110.957 40.0026 111.048 39.8294 111.121 39.6152L111.668 38.1797ZM110.69 31.6035L112.365 37.0518L112.659 38.959L111.415 39.1846L108.742 31.6035H110.69ZM120.425 37.4277V34.0166C120.425 33.766 120.382 33.5495 120.295 33.3672C120.208 33.1849 120.076 33.0436 119.898 32.9434C119.721 32.8431 119.495 32.793 119.222 32.793C118.98 32.793 118.768 32.834 118.586 32.916C118.408 32.998 118.271 33.1143 118.176 33.2646C118.08 33.4105 118.032 33.5791 118.032 33.7705H116.221C116.221 33.4652 116.294 33.1758 116.439 32.9023C116.585 32.6243 116.793 32.3783 117.062 32.1641C117.335 31.9453 117.661 31.7744 118.039 31.6514C118.422 31.5283 118.85 31.4668 119.324 31.4668C119.885 31.4668 120.384 31.5625 120.821 31.7539C121.263 31.9408 121.61 32.2233 121.86 32.6016C122.116 32.9798 122.243 33.4561 122.243 34.0303V37.2568C122.243 37.626 122.266 37.9427 122.312 38.207C122.362 38.4668 122.435 38.6924 122.53 38.8838V39H120.691C120.605 38.8132 120.539 38.5762 120.493 38.2891C120.448 37.9974 120.425 37.7103 120.425 37.4277ZM120.678 34.4951L120.691 35.5684H119.55C119.267 35.5684 119.019 35.598 118.805 35.6572C118.59 35.7119 118.415 35.7939 118.278 35.9033C118.142 36.0081 118.039 36.1357 117.971 36.2861C117.902 36.432 117.868 36.5983 117.868 36.7852C117.868 36.9674 117.909 37.1315 117.991 37.2773C118.078 37.4232 118.201 37.5394 118.36 37.626C118.524 37.708 118.716 37.749 118.935 37.749C119.254 37.749 119.532 37.6852 119.769 37.5576C120.006 37.4255 120.19 37.266 120.322 37.0791C120.454 36.8923 120.525 36.7145 120.534 36.5459L121.054 37.3252C120.99 37.512 120.894 37.7103 120.767 37.9199C120.639 38.1296 120.475 38.3255 120.274 38.5078C120.074 38.6901 119.832 38.8405 119.55 38.959C119.267 39.0775 118.939 39.1367 118.565 39.1367C118.087 39.1367 117.659 39.041 117.28 38.8496C116.902 38.6582 116.604 38.3962 116.385 38.0635C116.166 37.7308 116.057 37.3525 116.057 36.9287C116.057 36.5368 116.13 36.1904 116.275 35.8896C116.421 35.5889 116.638 35.3359 116.925 35.1309C117.212 34.9212 117.567 34.764 117.991 34.6592C118.42 34.5498 118.91 34.4951 119.461 34.4951H120.678Z" fill="white"/>
</g>
<path d="M115.464 1.84373C116.263 0.884221 117.737 0.884223 118.536 1.84373L127 12H107L115.464 1.84373Z" fill="#25262B" fill-opacity="0.72"/>
<defs>
<filter id="filter0_d_27760_189697" x="0" y="4" width="150" height="64" filterUnits="userSpaceOnUse" color-interpolation-filters="sRGB">
<feFlood flood-opacity="0" result="BackgroundImageFix"/>
<feColorMatrix in="SourceAlpha" type="matrix" values="0 0 0 0 0 0 0 0 0 0 0 0 0 0 0 0 0 0 127 0" result="hardAlpha"/>
<feOffset dy="2"/>
<feGaussianBlur stdDeviation="5"/>
<feColorMatrix type="matrix" values="0 0 0 0 0.0980392 0 0 0 0 0.00392157 0 0 0 0 0.203922 0 0 0 0.12 0"/>
<feBlend mode="normal" in2="BackgroundImageFix" result="effect1_dropShadow_27760_189697"/>
<feBlend mode="normal" in="SourceGraphic" in2="effect1_dropShadow_27760_189697" result="shape"/>
</filter>
</defs>
</svg>
