<svg width="28" height="28" viewBox="0 0 28 28" fill="none" xmlns="http://www.w3.org/2000/svg">
<g clip-path="url(#clip0_646_12340)">
<g filter="url(#filter0_ii_646_12340)">
<path d="M14.0004 2.1001C20.5724 2.10031 25.8998 7.42843 25.8998 14.0005C25.8998 14.8683 25.8047 15.7138 25.6283 16.5288C24.4905 14.2026 22.1014 12.6001 19.3373 12.6001C15.4714 12.6002 12.3373 15.7342 12.3373 19.6001C12.3373 22.2436 13.8034 24.5438 15.9662 25.7349C15.3265 25.8412 14.6702 25.8999 14.0004 25.8999C7.42831 25.8999 2.10019 20.5725 2.09998 14.0005C2.09998 7.4283 7.42818 2.1001 14.0004 2.1001Z" fill="#00A2B9"/>
</g>
<foreignObject x="-132.352" y="-116.9" width="287.314" height="291.599"><div xmlns="http://www.w3.org/1999/xhtml" style="backdrop-filter:blur(7px);clip-path:url(#bgblur_1_646_12340_clip_path);height:100%;width:100%"></div></foreignObject><g filter="url(#filter1_d_646_12340)" data-figma-bg-blur-radius="14">
<mask id="path-2-inside-1_646_12340" fill="white">
<path fill-rule="evenodd" clip-rule="evenodd" d="M13.9121 6.30005C14.492 6.30005 14.9619 6.77002 14.9619 7.34985V13.6497C14.9619 13.8976 14.8758 14.125 14.732 14.3043C14.5802 14.4935 14.4066 14.6745 14.2229 14.8329C14.1754 14.8738 14.1236 14.911 14.0674 14.9436L9.22562 17.7571C8.72437 18.0484 8.08156 17.8783 7.79007 17.3772C7.49874 16.8759 7.66879 16.2331 8.16996 15.9417L12.1661 13.618C12.5971 13.3673 12.8623 12.9064 12.8623 12.4077V7.34985C12.8624 6.77007 13.3324 6.30013 13.9121 6.30005Z"/>
</mask>
<path fill-rule="evenodd" clip-rule="evenodd" d="M13.9121 6.30005C14.492 6.30005 14.9619 6.77002 14.9619 7.34985V13.6497C14.9619 13.8976 14.8758 14.125 14.732 14.3043C14.5802 14.4935 14.4066 14.6745 14.2229 14.8329C14.1754 14.8738 14.1236 14.911 14.0674 14.9436L9.22562 17.7571C8.72437 18.0484 8.08156 17.8783 7.79007 17.3772C7.49874 16.8759 7.66879 16.2331 8.16996 15.9417L12.1661 13.618C12.5971 13.3673 12.8623 12.9064 12.8623 12.4077V7.34985C12.8624 6.77007 13.3324 6.30013 13.9121 6.30005Z" fill="#E6F6F8"/>
<path d="M13.9121 6.30005V6.23005H13.9121L13.9121 6.30005ZM14.9619 7.34985H15.0319V7.34984L14.9619 7.34985ZM14.0674 14.9436L14.1026 15.0041L14.1026 15.0041L14.0674 14.9436ZM9.22562 17.7571L9.19045 17.6966L9.19045 17.6966L9.22562 17.7571ZM7.79007 17.3772L7.72955 17.4124L7.72957 17.4124L7.79007 17.3772ZM8.16996 15.9417L8.13477 15.8811L8.13477 15.8811L8.16996 15.9417ZM12.8623 7.34985L12.7923 7.34984V7.34985H12.8623ZM14.732 14.3043L14.7866 14.3481L14.732 14.3043ZM14.2229 14.8329L14.1771 14.7799L14.2229 14.8329ZM13.9121 6.30005V6.37005C14.4533 6.37005 14.8919 6.80867 14.892 7.34986L14.9619 7.34985L15.0319 7.34984C15.0319 6.73137 14.5307 6.23005 13.9121 6.23005V6.30005ZM14.9619 7.34985H14.892V13.6497H14.9619H15.0319V7.34985H14.9619ZM14.9619 13.6497H14.892C14.892 13.881 14.8116 14.0931 14.6774 14.2605L14.732 14.3043L14.7866 14.3481C14.94 14.1568 15.0319 13.9141 15.0319 13.6497H14.9619ZM14.2229 14.8329L14.1771 14.7799C14.1329 14.818 14.0846 14.8527 14.0322 14.8831L14.0674 14.9436L14.1026 15.0041C14.1625 14.9693 14.2179 14.9296 14.2686 14.8859L14.2229 14.8329ZM14.0674 14.9436L14.0322 14.8831L9.19045 17.6966L9.22562 17.7571L9.26079 17.8176L14.1026 15.0041L14.0674 14.9436ZM9.22562 17.7571L9.19045 17.6966C8.72261 17.9684 8.12264 17.8097 7.85058 17.342L7.79007 17.3772L7.72957 17.4124C8.04049 17.9469 8.72614 18.1283 9.26079 17.8176L9.22562 17.7571ZM7.79007 17.3772L7.8506 17.342C7.57868 16.8741 7.7374 16.2742 8.20515 16.0022L8.16996 15.9417L8.13477 15.8811C7.60017 16.192 7.41881 16.8777 7.72955 17.4124L7.79007 17.3772ZM8.16996 15.9417L8.20514 16.0022L12.2013 13.6785L12.1661 13.618L12.1309 13.5575L8.13477 15.8811L8.16996 15.9417ZM12.8623 12.4077H12.9323V7.34985H12.8623H12.7923V12.4077H12.8623ZM12.8623 7.34985L12.9323 7.34986C12.9324 6.80873 13.371 6.37012 13.9122 6.37005L13.9121 6.30005L13.9121 6.23005C13.2937 6.23013 12.7924 6.73141 12.7923 7.34984L12.8623 7.34985ZM12.1661 13.618L12.2013 13.6785C12.6539 13.4153 12.9323 12.9313 12.9323 12.4077H12.8623H12.7923C12.7923 12.8814 12.5404 13.3194 12.1309 13.5575L12.1661 13.618ZM14.732 14.3043L14.6774 14.2605C14.5282 14.4465 14.3576 14.6244 14.1771 14.7799L14.2229 14.8329L14.2686 14.8859C14.4557 14.7246 14.6322 14.5406 14.7866 14.3481L14.732 14.3043Z" fill="url(#paint0_linear_646_12340)" mask="url(#path-2-inside-1_646_12340)"/>
</g>
<circle cx="19.3375" cy="19.6" r="5.55821" fill="#FFB81F" stroke="url(#paint1_linear_646_12340)" stroke-width="0.0835785"/>
<path d="M19.598 19.6001C19.8068 19.6001 20.0071 19.6831 20.1548 19.8308C20.3025 19.9784 20.3855 20.1787 20.3855 20.3876L20.3849 20.7803C20.439 21.7447 19.6961 22.2256 18.3191 22.2256C16.9467 22.2251 16.1876 21.751 16.1876 20.7945V20.3876C16.1876 20.1787 16.2705 19.9784 16.4182 19.8308C16.5659 19.6831 16.7662 19.6001 16.9751 19.6001H19.598ZM21.8313 19.6001C22.0402 19.6001 22.2405 19.6831 22.3882 19.8308C22.5358 19.9784 22.6188 20.1787 22.6188 20.3876V20.6643C22.6661 21.5289 22.0098 21.9626 20.8107 21.9626C20.648 21.9626 20.4947 21.9547 20.3519 21.939C20.6333 21.6786 20.7839 21.3258 20.7834 20.8795L20.7803 20.7656L20.7813 20.3876C20.7813 20.0736 20.6438 19.7922 20.4254 19.6001H21.8313Z" fill="white"/>
<path d="M21.655 17.2826C21.4581 17.0857 21.191 16.9751 20.9125 16.9751C20.6341 16.9751 20.367 17.0857 20.1701 17.2826C19.9732 17.4795 19.8625 17.7466 19.8625 18.0251C19.8625 18.3036 19.9732 18.5706 20.1701 18.7676C20.367 18.9645 20.6341 19.0751 20.9125 19.0751C21.191 19.0751 21.4581 18.9645 21.655 18.7676C21.8519 18.5706 21.9625 18.3036 21.9625 18.0251C21.9625 17.7466 21.8519 17.4795 21.655 17.2826Z" fill="white"/>
<path d="M19.2156 16.8344C18.9695 16.5882 18.6356 16.45 18.2875 16.45C17.9394 16.45 17.6056 16.5882 17.3595 16.8344C17.1133 17.0805 16.975 17.4144 16.975 17.7625C16.975 18.1105 17.1133 18.4444 17.3595 18.6905C17.6056 18.9367 17.9394 19.075 18.2875 19.075C18.6356 19.075 18.9695 18.9367 19.2156 18.6905C19.4618 18.4444 19.6 18.1105 19.6 17.7625C19.6 17.4144 19.4618 17.0805 19.2156 16.8344Z" fill="white"/>
</g>
<defs>
<filter id="filter0_ii_646_12340" x="1.30664" y="0.513431" width="26.1798" height="26.1798" filterUnits="userSpaceOnUse" color-interpolation-filters="sRGB">
<feFlood flood-opacity="0" result="BackgroundImageFix"/>
<feBlend mode="normal" in="SourceGraphic" in2="BackgroundImageFix" result="shape"/>
<feColorMatrix in="SourceAlpha" type="matrix" values="0 0 0 0 0 0 0 0 0 0 0 0 0 0 0 0 0 0 127 0" result="hardAlpha"/>
<feOffset dx="1.58667" dy="-1.58667"/>
<feGaussianBlur stdDeviation="1.58667"/>
<feComposite in2="hardAlpha" operator="arithmetic" k2="-1" k3="1"/>
<feColorMatrix type="matrix" values="0 0 0 0 0.101961 0 0 0 0 0.105882 0 0 0 0 0.117647 0 0 0 0.24 0"/>
<feBlend mode="normal" in2="shape" result="effect1_innerShadow_646_12340"/>
<feColorMatrix in="SourceAlpha" type="matrix" values="0 0 0 0 0 0 0 0 0 0 0 0 0 0 0 0 0 0 127 0" result="hardAlpha"/>
<feOffset dx="-0.793333" dy="0.793333"/>
<feGaussianBlur stdDeviation="0.793333"/>
<feComposite in2="hardAlpha" operator="arithmetic" k2="-1" k3="1"/>
<feColorMatrix type="matrix" values="0 0 0 0 0.901961 0 0 0 0 0.964706 0 0 0 0 0.972549 0 0 0 0.16 0"/>
<feBlend mode="normal" in2="effect1_innerShadow_646_12340" result="effect2_innerShadow_646_12340"/>
</filter>
<filter id="filter1_d_646_12340" x="-132.352" y="-116.9" width="287.314" height="291.599" filterUnits="userSpaceOnUse" color-interpolation-filters="sRGB">
<feFlood flood-opacity="0" result="BackgroundImageFix"/>
<feColorMatrix in="SourceAlpha" type="matrix" values="0 0 0 0 0 0 0 0 0 0 0 0 0 0 0 0 0 0 127 0" result="hardAlpha"/>
<feOffset dy="16.8"/>
<feGaussianBlur stdDeviation="70"/>
<feColorMatrix type="matrix" values="0 0 0 0 1 0 0 0 0 1 0 0 0 0 1 0 0 0 0.8 0"/>
<feBlend mode="normal" in2="BackgroundImageFix" result="effect1_dropShadow_646_12340"/>
<feBlend mode="normal" in="SourceGraphic" in2="effect1_dropShadow_646_12340" result="shape"/>
</filter>
<clipPath id="bgblur_1_646_12340_clip_path" transform="translate(132.352 116.9)"><path fill-rule="evenodd" clip-rule="evenodd" d="M13.9121 6.30005C14.492 6.30005 14.9619 6.77002 14.9619 7.34985V13.6497C14.9619 13.8976 14.8758 14.125 14.732 14.3043C14.5802 14.4935 14.4066 14.6745 14.2229 14.8329C14.1754 14.8738 14.1236 14.911 14.0674 14.9436L9.22562 17.7571C8.72437 18.0484 8.08156 17.8783 7.79007 17.3772C7.49874 16.8759 7.66879 16.2331 8.16996 15.9417L12.1661 13.618C12.5971 13.3673 12.8623 12.9064 12.8623 12.4077V7.34985C12.8624 6.77007 13.3324 6.30013 13.9121 6.30005Z"/>
</clipPath><linearGradient id="paint0_linear_646_12340" x1="10.6304" y1="5.60005" x2="10.6304" y2="19.6343" gradientUnits="userSpaceOnUse">
<stop stop-color="white"/>
<stop offset="1" stop-color="white" stop-opacity="0.12"/>
</linearGradient>
<linearGradient id="paint1_linear_646_12340" x1="19.3375" y1="14" x2="19.3375" y2="25.2" gradientUnits="userSpaceOnUse">
<stop stop-color="white"/>
<stop offset="1" stop-color="white" stop-opacity="0.12"/>
</linearGradient>
<clipPath id="clip0_646_12340">
<rect width="28" height="28" fill="white"/>
</clipPath>
</defs>
</svg>
