<svg width="32" height="32" viewBox="0 0 32 32" fill="none" xmlns="http://www.w3.org/2000/svg">
<path d="M2.6001 19.0556L12.8668 15.993V28.6806H2.6001V19.0556Z" fill="#00A2B9"/>
<path d="M13.8001 9.43047L27.8001 2.86792V28.2431H13.8L13.8001 9.43047Z" fill="#00A2B9"/>
<path d="M28.9734 2.11902L28.9735 2.11914C29.0374 2.15619 29.0864 2.20572 29.1188 2.26022C29.1511 2.31444 29.1667 2.37298 29.1667 2.4306V28.6805C29.1667 28.7692 29.1295 28.8613 29.0514 28.9345C28.9723 29.0087 28.8584 29.0555 28.7334 29.0555H23.1334C23.0084 29.0555 22.8946 29.0087 22.8154 28.9345C22.7374 28.8613 22.7001 28.7692 22.7001 28.6805V26.0555V25.5555H22.2001H20.3334H19.8334V26.0555V28.6805C19.8334 28.7692 19.7961 28.8613 19.7181 28.9345C19.6389 29.0087 19.525 29.0555 19.4001 29.0555H2.60008C2.47512 29.0555 2.36124 29.0087 2.28209 28.9345C2.20402 28.8613 2.16675 28.7692 2.16675 28.6805V19.0557C2.16684 18.9851 2.19041 18.9128 2.23943 18.8491C2.28892 18.7848 2.3628 18.7318 2.45418 18.7032L2.45429 18.7032L13.0159 15.4027L13.3667 15.293V14.9254V9.43041C13.3667 9.43041 13.3667 9.4304 13.3667 9.43039C13.3668 9.36773 13.3852 9.30388 13.4235 9.24574C13.462 9.18723 13.5201 9.13566 13.5945 9.10069L28.5275 2.10082L28.5277 2.10073C28.5963 2.06855 28.6743 2.05261 28.754 2.05599C28.8336 2.05936 28.9092 2.08179 28.9734 2.11902ZM13.3667 16.7699V16.0899L12.7177 16.2927L3.38433 19.2082L3.03341 19.3178V19.6855V27.8055V28.3055H3.53341H12.8667H13.3667V27.8055V16.7699ZM14.2334 27.8055V28.3055H14.7334H18.4667H18.9667V27.8055V25.1805C18.9667 25.0918 19.004 24.9997 19.0821 24.9266C19.1612 24.8523 19.2751 24.8055 19.4001 24.8055H23.1334C23.2584 24.8055 23.3723 24.8523 23.4514 24.9266C23.5295 24.9997 23.5667 25.0918 23.5667 25.1805V27.8055V28.3055H24.0667H27.8001H28.3001V27.8055V3.8461V3.05952L27.5879 3.39337L14.5212 9.51842L14.2334 9.65332V9.97115V27.8055Z" fill="#F3AF00" stroke="#F3AF00"/>
<path d="M5.40015 20.8055H7.26681V22.5555H5.40015V20.8055ZM9.13348 20.8055H11.0001V22.5555H9.13348V20.8055ZM5.40015 24.3055H7.26681V26.0556H5.40015V24.3055ZM9.13348 24.3055H11.0001V26.0556H9.13348V24.3055ZM16.6001 17.3055H18.4668V19.0555H16.6001V17.3055ZM20.3335 17.3055H22.2001V19.0555H20.3335V17.3055ZM16.6001 20.8055H18.4668V22.5555H16.6001V20.8055ZM20.3335 20.8055H22.2001V22.5555H20.3335V20.8055ZM24.0668 17.3055H25.9335V19.0555H24.0668V17.3055ZM24.0668 20.8055H25.9335V22.5555H24.0668V20.8055ZM16.6001 13.8055H18.4668V15.5555H16.6001V13.8055ZM20.3335 13.8055H22.2001V15.5555H20.3335V13.8055ZM24.0668 13.8055H25.9335V15.5555H24.0668V13.8055ZM16.6001 10.3054H18.4668V12.0555H16.6001V10.3054ZM20.3335 10.3054H22.2001V12.0555H20.3335V10.3054ZM24.0668 10.3054H25.9335V12.0555H24.0668V10.3054ZM24.0668 6.80542H25.9335V8.55543H24.0668V6.80542Z" fill="white"/>
</svg>
