<svg width="18" height="20" viewBox="0 0 18 20" fill="none" xmlns="http://www.w3.org/2000/svg">
<path d="M16.2273 8.36364C16.2273 14.0909 8.86363 19 8.86363 19C8.86363 19 1.5 14.0909 1.5 8.36364C1.5 6.41068 2.27581 4.53771 3.65676 3.15676C5.03771 1.77581 6.91068 1 8.86363 1C10.8166 1 12.6896 1.77581 14.0705 3.15676C15.4515 4.53771 16.2273 6.41068 16.2273 8.36364Z" stroke="#00A2B9" stroke-width="2" stroke-linecap="round" stroke-linejoin="round"/>
<path d="M8.86373 10.8183C10.2193 10.8183 11.3183 9.71933 11.3183 8.36373C11.3183 7.00812 10.2193 5.90918 8.86373 5.90918C7.50812 5.90918 6.40918 7.00812 6.40918 8.36373C6.40918 9.71933 7.50812 10.8183 8.86373 10.8183Z" stroke="#00A2B9" stroke-width="2" stroke-linecap="round" stroke-linejoin="round"/>
</svg>
