<svg width="16" height="16" viewBox="0 0 16 16" fill="none" xmlns="http://www.w3.org/2000/svg">
<path d="M9.33334 11.3333H3.33334M9.33334 11.3333C9.33334 12.4379 10.2288 13.3333 11.3333 13.3333C12.4379 13.3333 13.3333 12.4379 13.3333 11.3333C13.3333 10.2287 12.4379 9.33329 11.3333 9.33329C10.2288 9.33329 9.33334 10.2287 9.33334 11.3333ZM12.6667 4.66663H6.66667M6.66667 4.66663C6.66667 5.7712 5.77124 6.66663 4.66667 6.66663C3.5621 6.66663 2.66667 5.7712 2.66667 4.66663C2.66667 3.56206 3.5621 2.66663 4.66667 2.66663C5.77124 2.66663 6.66667 3.56206 6.66667 4.66663Z" stroke="#00A2B9" stroke-width="1.33333" stroke-linecap="round" stroke-linejoin="round"/>
</svg>
