<svg width="32" height="32" viewBox="0 0 32 32" fill="none" xmlns="http://www.w3.org/2000/svg">
<path d="M4 8C4 5.79086 5.79086 4 8 4H24C26.2091 4 28 5.79086 28 8V24C28 26.2091 26.2091 28 24 28H8C5.79086 28 4 26.2091 4 24V8Z" fill="#F3AF00"/>
<path d="M20.4283 10.517L8.59189 9.62056C7.54757 9.54147 6.50019 9.72748 5.54697 10.1613C2.89123 11.37 1.43339 14.263 2.04197 17.1167L2.08707 17.3281C2.72548 20.3217 5.36976 22.4615 8.43065 22.4615H11.9091L19.4169 22.8733C20.9486 22.9573 22.4844 22.8132 23.9737 22.4456L25.3716 22.1006C27.169 21.657 28.5973 20.2951 29.1259 18.5209L30.3504 14.4112C30.7475 13.0782 30.3461 11.6355 29.3175 10.6993C28.4867 9.94304 27.352 9.61522 26.2459 9.8119L23.0099 10.3873C22.1582 10.5388 21.2908 10.5823 20.4283 10.517Z" fill="#00A2B9"/>
<path d="M11.6387 12.8906V20H10.291L7.26855 15.0684V20H5.92578V12.8906H7.26855L10.3008 17.8271V12.8906H11.6387Z" fill="#EFEFEF"/>
<path d="M17.7178 18.9453V20H13.9385V18.9453H17.7178ZM14.3486 12.8906V20H13.0059V12.8906H14.3486ZM17.2246 15.8252V16.8555H13.9385V15.8252H17.2246ZM17.7031 12.8906V13.9502H13.9385V12.8906H17.7031Z" fill="#EFEFEF"/>
<path d="M20.3984 18.6377L21.8145 12.8906H22.5811L22.6299 14.1016L21.1162 20H20.3057L20.3984 18.6377ZM19.5049 12.8906L20.667 18.6182V20H19.7832L18.1719 12.8906H19.5049ZM24.0996 18.5938L25.2422 12.8906H26.5801L24.9688 20H24.085L24.0996 18.5938ZM22.9473 12.8906L24.3633 18.6572L24.4463 20H23.6357L22.127 14.0967L22.1855 12.8906H22.9473Z" fill="#EFEFEF"/>
</svg>
