<svg width="24" height="24" viewBox="0 0 24 24" fill="none" xmlns="http://www.w3.org/2000/svg">
<path d="M10.9849 7.44914C11.1324 7.30161 11.2153 7.1015 11.2153 6.89286C11.2153 6.68421 11.1324 6.48411 10.9849 6.33657C10.8373 6.18903 10.6372 6.10615 10.4286 6.10615C10.2199 6.10615 10.0198 6.18903 9.87229 6.33657L7.65343 8.55543L7.02957 7.98657C6.87456 7.85408 6.67412 7.78704 6.4706 7.79962C6.26707 7.8122 6.07641 7.90341 5.9389 8.05398C5.80138 8.20455 5.7278 8.40269 5.73368 8.60651C5.73956 8.81034 5.82446 9.0039 5.97043 9.14629L7.149 10.2227C7.29833 10.3587 7.49428 10.4319 7.69618 10.4272C7.89807 10.4225 8.09042 10.3403 8.23329 10.1976L10.9833 7.44757L10.9849 7.44914ZM10.9849 14.1937C11.058 14.2667 11.1161 14.3534 11.1557 14.4489C11.1953 14.5443 11.2157 14.6467 11.2157 14.75C11.2157 14.8533 11.1953 14.9557 11.1557 15.0511C11.1161 15.1466 11.058 15.2333 10.9849 15.3063L8.23486 18.0563C8.09171 18.1993 7.89893 18.2815 7.69666 18.2859C7.49439 18.2903 7.29822 18.2165 7.149 18.0799L5.97043 17.0034C5.82446 16.861 5.73956 16.6675 5.73368 16.4637C5.7278 16.2598 5.80138 16.0617 5.9389 15.9111C6.07641 15.7606 6.26707 15.6693 6.4706 15.6568C6.67412 15.6442 6.87456 15.7112 7.02957 15.8437L7.65343 16.4141L9.87229 14.1937C9.94527 14.1205 10.032 14.0625 10.1274 14.0229C10.2229 13.9833 10.3252 13.9629 10.4286 13.9629C10.5319 13.9629 10.6343 13.9833 10.7297 14.0229C10.8252 14.0625 10.9119 14.1205 10.9849 14.1937ZM13.5714 15.1429C13.363 15.1429 13.1632 15.2256 13.0158 15.373C12.8685 15.5203 12.7857 15.7202 12.7857 15.9286C12.7857 16.137 12.8685 16.3368 13.0158 16.4842C13.1632 16.6315 13.363 16.7143 13.5714 16.7143H17.5C17.7084 16.7143 17.9082 16.6315 18.0556 16.4842C18.2029 16.3368 18.2857 16.137 18.2857 15.9286C18.2857 15.7202 18.2029 15.5203 18.0556 15.373C17.9082 15.2256 17.7084 15.1429 17.5 15.1429H13.5714ZM12.7857 8.07143C12.7857 7.86304 12.8685 7.66319 13.0158 7.51584C13.1632 7.36849 13.363 7.28571 13.5714 7.28571H17.5C17.7084 7.28571 17.9082 7.36849 18.0556 7.51584C18.2029 7.66319 18.2857 7.86304 18.2857 8.07143C18.2857 8.27981 18.2029 8.47966 18.0556 8.62701C17.9082 8.77436 17.7084 8.85714 17.5 8.85714H13.5714C13.363 8.85714 13.1632 8.77436 13.0158 8.62701C12.8685 8.47966 12.7857 8.27981 12.7857 8.07143ZM5.71429 1C4.46398 1 3.26488 1.49668 2.38078 2.38078C1.49668 3.26488 1 4.46398 1 5.71429V18.2857C1 19.536 1.49668 20.7351 2.38078 21.6192C3.26488 22.5033 4.46398 23 5.71429 23H18.2857C19.536 23 20.7351 22.5033 21.6192 21.6192C22.5033 20.7351 23 19.536 23 18.2857V5.71429C23 4.46398 22.5033 3.26488 21.6192 2.38078C20.7351 1.49668 19.536 1 18.2857 1H5.71429ZM2.57143 5.71429C2.57143 4.88075 2.90255 4.08135 3.49195 3.49195C4.08135 2.90255 4.88075 2.57143 5.71429 2.57143H18.2857C19.1193 2.57143 19.9186 2.90255 20.508 3.49195C21.0974 4.08135 21.4286 4.88075 21.4286 5.71429V18.2857C21.4286 19.1193 21.0974 19.9186 20.508 20.508C19.9186 21.0974 19.1193 21.4286 18.2857 21.4286H5.71429C4.88075 21.4286 4.08135 21.0974 3.49195 20.508C2.90255 19.9186 2.57143 19.1193 2.57143 18.2857V5.71429Z" fill="#00A2B9"/>
</svg>
