<svg width="24" height="24" viewBox="0 0 24 24" fill="none" xmlns="http://www.w3.org/2000/svg">
<path d="M20.2501 9.59961C21.007 10.0354 21.6206 10.682 22.0163 11.4606C22.4119 12.2392 22.5725 13.1161 22.4783 13.9843C22.3842 14.8526 22.0394 15.6747 21.4861 16.3504C20.9328 17.0261 20.1948 17.5261 19.3621 17.7896C19.0678 19.1251 18.3263 20.32 17.2603 21.1765C16.1942 22.0331 14.8676 22.4999 13.5001 22.4996H11.2501C11.0512 22.4996 10.8605 22.4206 10.7198 22.2799C10.5791 22.1393 10.5001 21.9485 10.5001 21.7496C10.5001 21.5507 10.5791 21.3599 10.7198 21.2193C10.8605 21.0786 11.0512 20.9996 11.2501 20.9996H13.5001C14.4311 20.9999 15.3392 20.7115 16.0994 20.1743C16.8596 19.637 17.4346 18.8772 17.7451 17.9996H17.2501C17.0512 17.9996 16.8605 17.9206 16.7198 17.7799C16.5791 17.6393 16.5001 17.4485 16.5001 17.2496V9.74961C16.5001 9.5507 16.5791 9.35993 16.7198 9.21928C16.8605 9.07863 17.0512 8.99961 17.2501 8.99961H18.0001C18.2431 8.99961 18.4816 9.01911 18.7156 9.05661C18.5468 7.39295 17.7664 5.85118 16.5257 4.73004C15.285 3.6089 13.6723 2.9882 12.0001 2.9882C10.3279 2.9882 8.71524 3.6089 7.47455 4.73004C6.23385 5.85118 5.45348 7.39295 5.28463 9.05661C5.52125 9.01871 5.7605 8.99965 6.00013 8.99961H6.75013C6.94904 8.99961 7.13981 9.07863 7.28046 9.21928C7.42111 9.35993 7.50013 9.5507 7.50013 9.74961V17.2496C7.50013 17.4485 7.42111 17.6393 7.28046 17.7799C7.13981 17.9206 6.94904 17.9996 6.75013 17.9996H6.00013C5.0086 18.0007 4.04447 17.6743 3.25753 17.0711C2.47058 16.4679 1.9049 15.6217 1.64835 14.6639C1.39181 13.7062 1.45877 12.6905 1.83884 11.7747C2.21891 10.8589 2.8908 10.0943 3.75013 9.59961C3.75013 7.41157 4.61932 5.31315 6.1665 3.76598C7.71367 2.2188 9.81209 1.34961 12.0001 1.34961C14.1882 1.34961 16.2866 2.2188 17.8338 3.76598C19.3809 5.31315 20.2501 7.41157 20.2501 9.59961ZM6.00013 10.4996C5.20448 10.4996 4.44142 10.8157 3.87881 11.3783C3.3162 11.9409 3.00013 12.704 3.00013 13.4996C3.00013 14.2953 3.3162 15.0583 3.87881 15.6209C4.44142 16.1835 5.20448 16.4996 6.00013 16.4996V10.4996ZM21.0001 13.4996C21.0001 12.704 20.6841 11.9409 20.1214 11.3783C19.5588 10.8157 18.7958 10.4996 18.0001 10.4996V16.4996C18.7958 16.4996 19.5588 16.1835 20.1214 15.6209C20.6841 15.0583 21.0001 14.2953 21.0001 13.4996Z" fill="#25262B" stroke="#25262B" stroke-width="0.466667"/>
</svg>
