<svg width="24" height="24" viewBox="0 0 24 24" fill="none" xmlns="http://www.w3.org/2000/svg">
<path d="M3.75 19.38L6.411 17.25H18.75C19.1478 17.25 19.5294 17.092 19.8107 16.8107C20.092 16.5294 20.25 16.1478 20.25 15.75V6C20.25 5.60218 20.092 5.22064 19.8107 4.93934C19.5294 4.65804 19.1478 4.5 18.75 4.5H5.25C4.85218 4.5 4.47064 4.65804 4.18934 4.93934C3.90804 5.22064 3.75 5.60218 3.75 6V19.38ZM6.9375 18.75L3.468 21.525C3.35772 21.6131 3.22483 21.6682 3.0846 21.6841C2.94438 21.7001 2.8025 21.6761 2.67529 21.615C2.54807 21.5539 2.44068 21.4581 2.36545 21.3387C2.29022 21.2193 2.2502 21.0811 2.25 20.94V6C2.25 5.20435 2.56607 4.44129 3.12868 3.87868C3.69129 3.31607 4.45435 3 5.25 3H18.75C19.5456 3 20.3087 3.31607 20.8713 3.87868C21.4339 4.44129 21.75 5.20435 21.75 6V15.75C21.75 16.5456 21.4339 17.3087 20.8713 17.8713C20.3087 18.4339 19.5456 18.75 18.75 18.75H6.9375Z" fill="#00A2B9"/>
<path d="M8.25 12H15.75C16.25 12 16.5 12.25 16.5 12.75C16.5 13.25 16.25 13.5 15.75 13.5H8.25C7.75 13.5 7.5 13.25 7.5 12.75C7.5 12.25 7.75 12 8.25 12ZM8.25 7.5H15.75C16.25 7.5 16.5 7.75 16.5 8.25C16.5 8.75 16.25 9 15.75 9H8.25C7.75 9 7.5 8.75 7.5 8.25C7.5 7.75 7.75 7.5 8.25 7.5Z" fill="#00A2B9"/>
</svg>
