<svg width="24" height="24" viewBox="0 0 24 24" fill="none" xmlns="http://www.w3.org/2000/svg">
<path d="M17.2497 4L17.1497 4.007C16.9698 4.03121 16.8048 4.11985 16.6853 4.25648C16.5657 4.39311 16.4998 4.56846 16.4997 4.75V17.442L13.2797 14.224L13.1957 14.152C13.0435 14.0389 12.8541 13.9876 12.6656 14.0085C12.4771 14.0294 12.3036 14.1209 12.1799 14.2647C12.0562 14.4084 11.9915 14.5937 11.9989 14.7832C12.0063 14.9727 12.0852 15.1523 12.2197 15.286L16.7237 19.786L16.8077 19.858C16.9522 19.9647 17.1302 20.016 17.3093 20.0026C17.4884 19.9892 17.6567 19.912 17.7837 19.785L22.2807 15.285L22.3527 15.201C22.4597 15.0564 22.5112 14.8783 22.4978 14.6989C22.4844 14.5196 22.407 14.351 22.2797 14.224L22.1957 14.152C22.0512 14.045 21.873 13.9935 21.6937 14.0069C21.5143 14.0203 21.3458 14.0977 21.2187 14.225L17.9997 17.446V4.75L17.9937 4.648C17.9691 4.46845 17.8803 4.30389 17.7437 4.18477C17.6071 4.06564 17.432 4.00001 17.2507 4H17.2497ZM6.21373 4.22L1.71973 8.715L1.64673 8.799C1.54002 8.94347 1.48869 9.12144 1.50209 9.30055C1.51549 9.47966 1.59271 9.64801 1.71973 9.775L1.80373 9.848C1.9482 9.95471 2.12617 10.006 2.30528 9.99264C2.48439 9.97925 2.65274 9.90202 2.77973 9.775L5.99673 6.557V19.255L6.00473 19.357C6.02938 19.5366 6.11821 19.7011 6.2548 19.8202C6.39139 19.9394 6.56649 20.005 6.74773 20.005L6.84873 19.998C7.02847 19.9736 7.19326 19.8848 7.31259 19.7482C7.43192 19.6116 7.49769 19.4364 7.49773 19.255L7.49673 6.559L10.7197 9.776L10.8037 9.848C10.956 9.95971 11.1449 10.0098 11.3326 9.98838C11.5202 9.96691 11.6929 9.87543 11.816 9.7322C11.9392 9.58897 12.0037 9.40456 11.9968 9.2158C11.9899 9.02704 11.912 8.84784 11.7787 8.714L7.27473 4.22L7.18973 4.148C7.04526 4.04129 6.86729 3.98996 6.68818 4.00336C6.50907 4.01675 6.34072 4.09398 6.21373 4.221V4.22Z" fill="#666666"/>
</svg>
