<svg width="24" height="24" viewBox="0 0 24 24" fill="none" xmlns="http://www.w3.org/2000/svg">
<path fill-rule="evenodd" clip-rule="evenodd" d="M11.5391 1.40847C11.8099 1.19783 12.1901 1.19783 12.4609 1.40847L21.4609 8.40847C21.6433 8.55058 21.75 8.76904 21.75 9.00027V20.0003C21.7499 20.7295 21.46 21.4289 20.9443 21.9446C20.4286 22.4603 19.7293 22.7503 19 22.7503H5C4.27071 22.7503 3.57138 22.4603 3.05566 21.9446C2.53999 21.4289 2.25006 20.7295 2.25 20.0003V9.00027C2.25 8.76904 2.35668 8.55058 2.53906 8.40847L11.5391 1.40847ZM3.75 9.36648V20.0003C3.75006 20.3317 3.88184 20.6497 4.11621 20.8841C4.35062 21.1184 4.66853 21.2503 5 21.2503H9V12.0003H15V21.2503H19C19.3315 21.2503 19.6494 21.1184 19.8838 20.8841C20.1182 20.6497 20.2499 20.3317 20.25 20.0003V9.36648L12 2.95047L3.75 9.36648Z" fill="#47494D"/>
</svg>
