<svg width="16" height="16" viewBox="0 0 16 16" fill="none" xmlns="http://www.w3.org/2000/svg">
<path d="M9.82288 5.59196L8.95287 4.74695L4.60286 8.97536C4.43154 9.14197 4.29566 9.33977 4.20296 9.55744C4.11026 9.77512 4.06258 10.0084 4.06261 10.244C4.06265 10.4796 4.11042 10.7129 4.20319 10.9305C4.29596 11.1482 4.43192 11.3459 4.60329 11.5125C4.77467 11.679 4.97811 11.8112 5.202 11.9013C5.42589 11.9914 5.66585 12.0378 5.90817 12.0377C6.15049 12.0377 6.39043 11.9913 6.61429 11.9011C6.83815 11.8109 7.04155 11.6787 7.21287 11.5121L12.4329 6.43781C13.0096 5.87698 13.3336 5.11637 13.3335 4.32331C13.3334 3.53025 13.0093 2.76971 12.4325 2.20898C11.8556 1.64826 11.0733 1.3333 10.2576 1.33337C9.44187 1.33345 8.6596 1.64857 8.08287 2.2094L2.60229 7.537L2.59029 7.54783C0.914566 9.17703 0.914566 11.8171 2.59029 13.4454C4.266 15.0738 6.98144 15.0738 8.65716 13.4454L8.6683 13.4338L8.66916 13.4346L12.4106 9.79787L11.5406 8.95286L7.79916 12.5888L7.78801 12.5996C7.21384 13.1567 6.43578 13.4696 5.62458 13.4696C4.81338 13.4696 4.03532 13.1567 3.46114 12.5996C3.17654 12.3223 2.95103 11.9931 2.79756 11.6309C2.64408 11.2686 2.56565 10.8805 2.56676 10.4888C2.56788 10.097 2.64852 9.70937 2.80405 9.34799C2.95959 8.9866 3.18697 8.65862 3.47314 8.38284L3.47229 8.38201L8.95373 3.05442C9.67288 2.3544 10.8437 2.3544 11.5637 3.05442C12.2837 3.75443 12.2829 4.89195 11.5637 5.59113L6.34372 10.6654C6.2269 10.7699 6.07308 10.8264 5.91439 10.8232C5.7557 10.82 5.60441 10.7574 5.49212 10.6483C5.37983 10.5392 5.31523 10.3922 5.3118 10.2379C5.30837 10.0837 5.36638 9.93405 5.47372 9.82037L9.82373 5.59113L9.82288 5.59196Z" fill="#BDBDBD"/>
</svg>
