<svg width="28" height="28" viewBox="0 0 28 28" fill="none" xmlns="http://www.w3.org/2000/svg">
<path d="M6.36759 10.0711C4.83211 11.7421 6.32243 13.684 6.68372 14.0002C7.28502 14.5263 12.645 19.6905 12.645 19.6905C13.4128 20.4131 14.9934 20.3679 15.6708 19.6905C15.6708 19.6905 21.9031 13.5486 22.2192 13.2324C22.3095 13.1421 23.2579 11.2002 21.9031 9.84533C20.4579 8.40017 18.5611 9.34856 18.3353 9.57437C17.9775 9.93222 14.4966 13.8732 13.3676 14.226C11.9224 14.6776 11.0192 13.0518 11.0192 13.0518C11.0192 13.0518 11.2857 11.3561 10.7482 10.5228C9.94365 9.27522 7.75219 8.56437 6.36759 10.0711Z" fill="#11A9BE" stroke="#11A9BE" stroke-width="0.0903226"/>
<path d="M23.2546 7.13086C24.6132 8.92547 25.4092 11.0827 25.5418 13.3296C25.6743 15.5766 25.1377 17.8124 23.9997 19.7544C22.8616 21.6964 21.1732 23.2573 19.148 24.2396C17.1229 25.222 14.8518 25.5819 12.6222 25.2736" stroke="#364041" stroke-width="0.270968" stroke-linecap="round"/>
<path d="M5.22872 21.0269C3.66839 19.0392 2.81403 16.5885 2.80034 14.0616C2.78664 11.5345 3.61438 9.07487 5.15307 7.07031" stroke="#364041" stroke-width="0.270968" stroke-linecap="round"/>
<path d="M9.7865 3.50175C11.7031 2.69951 13.8026 2.43723 15.8576 2.74335" stroke="#364041" stroke-width="0.270968" stroke-linecap="round"/>
<path d="M20.3726 3.49561C23.0974 5.10181 25.0914 7.70399 25.9338 10.7528" stroke="#11A9BE" stroke-width="0.451613" stroke-linecap="round"/>
<path d="M17.1657 25.8226C14.0301 26.6142 10.7086 26.1279 7.93162 24.4704C5.15467 22.813 3.14987 20.1204 2.35822 16.9849" stroke="#11A9BE" stroke-width="0.451613" stroke-linecap="round"/>
<path d="M3.69824 7.77088C4.77006 5.96714 6.28918 4.47049 8.10869 3.42566C9.92819 2.38083 11.9865 1.82318 14.0847 1.80664" stroke="#11A9BE" stroke-width="0.451613" stroke-linecap="round"/>
<path d="M26.2387 14.2712C26.3635 14.2712 26.4646 14.1701 26.4646 14.0454C26.4646 13.9207 26.3635 13.8196 26.2387 13.8196C26.114 13.8196 26.0129 13.9207 26.0129 14.0454C26.0129 14.1701 26.114 14.2712 26.2387 14.2712Z" fill="#11A9BE"/>
<path d="M25.8775 17.4321C26.0022 17.4321 26.1033 17.331 26.1033 17.2063C26.1033 17.0816 26.0022 16.9805 25.8775 16.9805C25.7528 16.9805 25.6517 17.0816 25.6517 17.2063C25.6517 17.331 25.7528 17.4321 25.8775 17.4321Z" fill="#11A9BE"/>
<path d="M24.613 20.3227C24.7377 20.3227 24.8388 20.2216 24.8388 20.0969C24.8388 19.9722 24.7377 19.8711 24.613 19.8711C24.4883 19.8711 24.3872 19.9722 24.3872 20.0969C24.3872 20.2216 24.4883 20.3227 24.613 20.3227Z" fill="#11A9BE"/>
<path d="M22.6258 22.7614C22.7505 22.7614 22.8516 22.6603 22.8516 22.5356C22.8516 22.4109 22.7505 22.3098 22.6258 22.3098C22.5011 22.3098 22.4 22.4109 22.4 22.5356C22.4 22.6603 22.5011 22.7614 22.6258 22.7614Z" fill="#11A9BE"/>
<path d="M20.0967 24.6579C20.2214 24.6579 20.3225 24.5568 20.3225 24.4321C20.3225 24.3074 20.2214 24.2063 20.0967 24.2063C19.9719 24.2063 19.8708 24.3074 19.8708 24.4321C19.8708 24.5568 19.9719 24.6579 20.0967 24.6579Z" fill="#11A9BE"/>
<path d="M2.03202 14.0903C2.15673 14.0903 2.25783 13.9892 2.25783 13.8645C2.25783 13.7398 2.15673 13.6387 2.03202 13.6387C1.90731 13.6387 1.80621 13.7398 1.80621 13.8645C1.80621 13.9892 1.90731 14.0903 2.03202 14.0903Z" fill="#11A9BE"/>
<path d="M2.48386 10.9292C2.60857 10.9292 2.70967 10.8281 2.70967 10.7033C2.70967 10.5786 2.60857 10.4775 2.48386 10.4775C2.35915 10.4775 2.25806 10.5786 2.25806 10.7033C2.25806 10.8281 2.35915 10.9292 2.48386 10.9292Z" fill="#11A9BE"/>
<path d="M17.3872 2.52949C17.512 2.52949 17.6131 2.4284 17.6131 2.30369C17.6131 2.17898 17.512 2.07788 17.3872 2.07788C17.2625 2.07788 17.1614 2.17898 17.1614 2.30369C17.1614 2.4284 17.2625 2.52949 17.3872 2.52949Z" fill="#11A9BE"/>
<path d="M7.27098 5.14865C7.34581 5.14865 7.40647 5.088 7.40647 5.01317C7.40647 4.93834 7.34581 4.87769 7.27098 4.87769C7.19616 4.87769 7.1355 4.93834 7.1355 5.01317C7.1355 5.088 7.19616 5.14865 7.27098 5.14865Z" fill="#364041"/>
<path d="M7.27098 23.0322C7.34581 23.0322 7.40647 22.9715 7.40647 22.8967C7.40647 22.8219 7.34581 22.7612 7.27098 22.7612C7.19616 22.7612 7.1355 22.8219 7.1355 22.8967C7.1355 22.9715 7.19616 23.0322 7.27098 23.0322Z" fill="#364041"/>
<path d="M9.80016 24.4773C9.87498 24.4773 9.93564 24.4166 9.93564 24.3418C9.93564 24.267 9.87498 24.2063 9.80016 24.2063C9.72533 24.2063 9.66467 24.267 9.66467 24.3418C9.66467 24.4166 9.72533 24.4773 9.80016 24.4773Z" fill="#364041"/>
<path d="M18.4708 3.70285C18.5456 3.70285 18.6063 3.64219 18.6063 3.56737C18.6063 3.49254 18.5456 3.43188 18.4708 3.43188C18.396 3.43188 18.3353 3.49254 18.3353 3.56737C18.3353 3.64219 18.396 3.70285 18.4708 3.70285Z" fill="#364041"/>
<path d="M21.0902 5.14865C21.165 5.14865 21.2257 5.088 21.2257 5.01317C21.2257 4.93834 21.165 4.87769 21.0902 4.87769C21.0154 4.87769 20.9547 4.93834 20.9547 5.01317C20.9547 5.088 21.0154 5.14865 21.0902 5.14865Z" fill="#364041"/>
</svg>
