<svg width="19" height="20" viewBox="0 0 19 20" fill="none" xmlns="http://www.w3.org/2000/svg">
<path d="M17 0H8C7.46957 0 6.96086 0.210714 6.58579 0.585786C6.21071 0.960859 6 1.46957 6 2V3C6 3.26522 6.10536 3.51957 6.29289 3.70711C6.48043 3.89464 6.73478 4 7 4C7.26522 4 7.51957 3.89464 7.70711 3.70711C7.89464 3.51957 8 3.26522 8 3V2H17V18H8V17C8 16.7348 7.89464 16.4804 7.70711 16.2929C7.51957 16.1054 7.26522 16 7 16C6.73478 16 6.48043 16.1054 6.29289 16.2929C6.10536 16.4804 6 16.7348 6 17V18C6 18.5304 6.21071 19.0391 6.58579 19.4142C6.96086 19.7893 7.46957 20 8 20H17C17.5304 20 18.0391 19.7893 18.4142 19.4142C18.7893 19.0391 19 18.5304 19 18V2C19 1.46957 18.7893 0.960859 18.4142 0.585786C18.0391 0.210714 17.5304 0 17 0Z" fill="white"/>
<path d="M6.205 14.2949C5.815 14.6849 5.185 14.6849 4.795 14.2949L1.207 10.7069C1.01953 10.5194 0.914213 10.265 0.914213 9.99988C0.914213 9.73472 1.01953 9.48041 1.207 9.29288L4.795 5.70488C4.98509 5.53307 5.23392 5.44087 5.49007 5.44734C5.74621 5.45381 5.99008 5.55844 6.17126 5.73962C6.35244 5.9208 6.45708 6.16467 6.46354 6.42081C6.47001 6.67696 6.37781 6.92579 6.206 7.11588L4.33 8.99988H13C13.2652 8.99988 13.5196 9.10524 13.7071 9.29277C13.8946 9.48031 14 9.73466 14 9.99988C14 10.2651 13.8946 10.5195 13.7071 10.707C13.5196 10.8945 13.2652 10.9999 13 10.9999H4.33L6.206 12.8839C6.39267 13.0713 6.49739 13.3251 6.4972 13.5896C6.49701 13.8541 6.39193 14.1077 6.205 14.2949Z" fill="white"/>
</svg>
