<svg width="24" height="24" viewBox="0 0 24 24" fill="none" xmlns="http://www.w3.org/2000/svg">
<path d="M9 3C7.761 3 6.75 4.011 6.75 5.25V14.7188L7.5 14.1795L8.25 14.7188V5.25C8.25 4.8375 8.5875 4.5 9 4.5H9.75V3H9ZM18 3C16.761 3 15.75 4.011 15.75 5.25V6H9V7.5H15.75V9H9V10.5H15.75V12H9V13.5H15.75V14.7188L16.5 14.1795L17.25 14.7188V5.25C17.25 4.8375 17.5875 4.5 18 4.5H18.75V3H18ZM7.5 15.5392L7.03125 15.9142C7.03125 15.9142 6.27825 16.5 5.27325 16.5C4.26825 16.5 3.46875 15.9142 3.46875 15.9142L2.53125 17.0858C2.53125 17.0858 3.6885 18 5.27325 18C6.369 18 7.06575 17.637 7.5 17.367C7.9365 17.634 8.66925 18 9.77325 18C10.869 18 11.5658 17.637 12 17.367C12.4365 17.634 13.1693 18 14.2733 18C15.369 18 16.0658 17.637 16.5 17.367C16.9365 17.634 17.6693 18 18.7733 18C20.3587 18 21.4688 17.0858 21.4688 17.0858L20.5312 15.9142C20.5312 15.9142 19.7782 16.5 18.7733 16.5C17.7683 16.5 16.9688 15.9142 16.9688 15.9142L16.5 15.5392L16.0312 15.9142C16.0312 15.9142 15.2782 16.5 14.2733 16.5C13.2683 16.5 12.4688 15.9142 12.4688 15.9142L12 15.5392L11.5312 15.9142C11.5312 15.9142 10.7782 16.5 9.77325 16.5C8.76825 16.5 7.96875 15.9142 7.96875 15.9142L7.5 15.5392ZM7.5 18.5392L7.03125 18.9142C7.03125 18.9142 6.27825 19.5 5.27325 19.5C4.26825 19.5 3.46875 18.9142 3.46875 18.9142L2.53125 20.0858C2.53125 20.0858 3.6885 21 5.27325 21C6.369 21 7.06575 20.637 7.5 20.367C7.9365 20.634 8.66925 21 9.77325 21C10.869 21 11.5658 20.637 12 20.367C12.4365 20.634 13.1693 21 14.2733 21C15.369 21 16.0658 20.637 16.5 20.367C16.9365 20.634 17.6693 21 18.7733 21C20.3587 21 21.4688 20.0858 21.4688 20.0858L20.5312 18.9142C20.5312 18.9142 19.7782 19.5 18.7733 19.5C17.7683 19.5 16.9688 18.9142 16.9688 18.9142L16.5 18.5392L16.0312 18.9142C16.0312 18.9142 15.2782 19.5 14.2733 19.5C13.2683 19.5 12.4688 18.9142 12.4688 18.9142L12 18.5392L11.5312 18.9142C11.5312 18.9142 10.7782 19.5 9.77325 19.5C8.76825 19.5 7.96875 18.9142 7.96875 18.9142L7.5 18.5392Z" fill="#BDBDBD"/>
</svg>
