<svg width="28" height="28" viewBox="0 0 28 28" fill="none" xmlns="http://www.w3.org/2000/svg">
<path d="M19.25 9.3L13.2624 3.13742C12.9343 2.80938 12.4894 2.62507 12.0254 2.625H6.625C5.92881 2.625 5.26113 2.90156 4.76884 3.39384C4.27656 3.88613 4 4.55381 4 5.25V22.5C4 24.1569 5.34315 25.5 7 25.5H8.33013" stroke="#00A2B9" stroke-width="2" stroke-linecap="round" stroke-linejoin="round"/>
<path d="M12.75 3.5V8.07627C12.75 8.45387 12.8975 8.816 13.1601 9.083C13.4226 9.35 13.7787 9.5 14.15 9.5H19.45V12.25V14" stroke="#00A2B9" stroke-width="2" stroke-linecap="round" stroke-linejoin="round"/>
<path d="M25.3561 18.0003C24.142 18.0824 22.41 19.2824 21.5334 19.6761C20.8514 19.9831 20.2631 20.248 19.7499 20.248C19.2202 20.248 19.1405 19.8683 19.2506 19.0316C19.2764 18.8441 19.5249 17.1753 18.2499 17.248C17.6616 17.2831 16.7428 17.8292 14.2772 20.2011L15.2499 17.7706C15.9624 15.9917 14.003 14.2199 12.21 15.3613L10.9233 16.2261C10.7499 16.3363 10.6983 16.5683 10.8084 16.7441L11.2116 17.3769C11.3217 17.5527 11.5538 17.6042 11.7295 17.4917L13.0889 16.58C13.5202 16.3058 14.0428 16.7488 13.8553 17.2152L11.5538 22.9714C11.3944 23.3675 11.617 24.0003 12.2499 24.0003C12.4444 24.0003 12.6366 23.9253 12.7795 23.78C13.7686 22.791 16.4053 20.248 17.7295 19.191C17.678 19.8589 17.6803 20.5714 18.2124 21.155C18.5709 21.5488 19.0866 21.748 19.7475 21.748C20.5819 21.748 21.3413 21.4058 22.1452 21.0449C22.9186 20.698 24.4655 19.5777 25.3889 19.5027C25.5881 19.4863 25.7452 19.3316 25.7452 19.1324V18.38C25.7499 18.1667 25.5694 17.9863 25.3561 18.0003Z" fill="#00A2B9" stroke="#00A2B9" stroke-width="0.5"/>
</svg>
