<svg width="28" height="29" viewBox="0 0 28 29" fill="none" xmlns="http://www.w3.org/2000/svg">
<path d="M7.71137 3.125L7.10938 3.75413L3.25413 7.60938L2.625 8.21137L8.9145 14.5L4.5395 18.875L4.48438 19.1489L3.52713 23.9614L3.25413 25.2459L4.5395 24.9729L9.352 24.0156L9.625 23.9605L14 19.5855L20.2615 25.8479L20.8635 25.2188L24.7188 21.3635L25.3479 20.7615L19.0855 14.5L23.4062 10.1793C23.741 9.84578 24.0066 9.44951 24.1878 9.01316C24.369 8.57682 24.4623 8.10898 24.4623 7.6365C24.4623 7.16402 24.369 6.69618 24.1878 6.25984C24.0066 5.82349 23.741 5.42722 23.4062 5.09375C23.0734 4.75742 22.6775 4.49008 22.2412 4.30705C21.8048 4.12402 21.3367 4.02889 20.8635 4.02713C20.3902 4.02878 19.9219 4.12385 19.4854 4.30689C19.0489 4.48992 18.6528 4.75732 18.3199 5.09375L14 9.4145L7.71137 3.125ZM7.71137 5.6135L9.40625 7.3355L8.12088 8.62175L9.37912 9.87912L10.6645 8.59375L12.7418 10.6719L10.1447 13.2697L5.08638 8.21137L7.71137 5.6135ZM20.8626 5.72287C21.3176 5.72287 21.7796 5.92763 22.1751 6.324C22.9653 7.11413 22.9653 8.13263 22.1751 8.92188L21.602 9.49588L19.0033 6.898L19.5781 6.324C19.9745 5.92763 20.4094 5.72287 20.8635 5.72287H20.8626ZM17.7739 8.12912L20.3709 10.727L9.7895 21.3075C9.21032 20.1956 8.30301 19.2889 7.19075 18.7105L17.7739 8.12912ZM17.8553 15.7303L19.9334 17.8084L18.6209 19.1209L19.8791 20.3791L21.1916 19.0666L22.8594 20.7344L20.2344 23.3594L15.2303 18.3553L17.8553 15.7303ZM6.07075 20.1052C7.11987 20.5461 7.95426 21.3808 8.39475 22.4301L5.49588 23.0041L6.07075 20.1052Z" fill="#00A2B9"/>
</svg>
