<svg width="32" height="32" viewBox="0 0 32 32" fill="none" xmlns="http://www.w3.org/2000/svg">
<rect width="32" height="32" rx="8" fill="#666666"/>
<path d="M13.2477 14.1651C13.0043 14.1651 12.771 14.2618 12.5989 14.4338C12.4269 14.6059 12.3302 14.8392 12.3302 15.0826V18.7523H14.1651V16H16.9174V18.2936L20.1285 15.0826L16.9174 11.8715V14.1651H13.2477ZM16.6486 6.26862L25.7314 15.3514C25.9034 15.5234 26 15.7567 26 16C26 16.2433 25.9034 16.4766 25.7314 16.6486L16.6486 25.7314C16.4766 25.9034 16.2433 26 16 26C15.7567 26 15.5234 25.9034 15.3514 25.7314L6.26862 16.6486C6.09662 16.4766 6 16.2433 6 16C6 15.7567 6.09662 15.5234 6.26862 15.3514L15.3514 6.26862C15.5234 6.09662 15.7567 6 16 6C16.2433 6 16.4766 6.09662 16.6486 6.26862Z" fill="white"/>
</svg>
