<svg width="25" height="24" viewBox="0 0 25 24" fill="none" xmlns="http://www.w3.org/2000/svg">
<path d="M20.25 7H4.25C3.14543 7 2.25 7.89543 2.25 9V19C2.25 20.1046 3.14543 21 4.25 21H20.25C21.3546 21 22.25 20.1046 22.25 19V9C22.25 7.89543 21.3546 7 20.25 7Z" stroke="#BDBDBD" stroke-width="1.5" stroke-linecap="round" stroke-linejoin="round"/>
<path d="M16.25 7V3.44444C16.25 3.32657 16.0393 3.21352 15.6642 3.13017C15.2891 3.04683 14.7804 3 14.25 3H10.25C9.71957 3 9.21086 3.04683 8.83579 3.13017C8.46071 3.21352 8.25 3.32657 8.25 3.44444V7" stroke="#BDBDBD" stroke-width="1.5" stroke-linecap="round" stroke-linejoin="round"/>
</svg>
