<svg width="28" height="28" viewBox="0 0 28 28" fill="none" xmlns="http://www.w3.org/2000/svg">
<path d="M25.6667 14V6.25C25.6667 5.69772 25.219 5.25 24.6667 5.25H3.33334C2.78106 5.25 2.33334 5.69772 2.33334 6.25V21.75C2.33334 22.3023 2.78106 22.75 3.33334 22.75H14" stroke="#00A2B9" stroke-width="1.5" stroke-linecap="round" stroke-linejoin="round"/>
<path d="M21 22.7493C22.6108 22.7493 23.9167 21.4435 23.9167 19.8327C23.9167 18.2219 22.6108 16.916 21 16.916C19.3892 16.916 18.0833 18.2219 18.0833 19.8327C18.0833 21.4435 19.3892 22.7493 21 22.7493Z" stroke="#00A2B9" stroke-width="1.5"/>
<path d="M23.3333 21.5833L25.6667 23.3333M3 6L14 14L25 6" stroke="#00A2B9" stroke-width="1.5" stroke-linecap="round" stroke-linejoin="round"/>
</svg>
