<svg width="100" height="101" viewBox="0 0 100 101" fill="none" xmlns="http://www.w3.org/2000/svg">
<path fill-rule="evenodd" clip-rule="evenodd" d="M85 0H15C11.0218 0 7.20644 1.58035 4.39339 4.3934C1.58035 7.20644 0 11.0218 0 15V95C0.00492859 95.9871 0.301941 96.9507 0.853607 97.7693C1.40527 98.5879 2.18691 99.2249 3.10001 99.6C3.69341 99.8799 4.34412 100.017 5 100C5.65804 100.004 6.31036 99.8777 6.91954 99.6289C7.52872 99.38 8.08279 99.0134 8.55 98.55L27.05 80H85C88.9782 80 92.7936 78.4197 95.6066 75.6066C98.4196 72.7936 100 68.9782 100 65V15C100 11.0218 98.4196 7.20644 95.6066 4.3934C92.7936 1.58035 88.9782 0 85 0ZM25 25H75C76.3261 25 77.5979 25.5268 78.5355 26.4645C79.4732 27.4021 80 28.6739 80 30C80 31.3261 79.4732 32.5979 78.5355 33.5355C77.5979 34.4732 76.3261 35 75 35H25C23.6739 35 22.4021 34.4732 21.4645 33.5355C20.5268 32.5979 20 31.3261 20 30C20 28.6739 20.5268 27.4021 21.4645 26.4645C22.4021 25.5268 23.6739 25 25 25ZM45 45H75C76.3261 45 77.5979 45.5268 78.5355 46.4645C79.4732 47.4021 80 48.6739 80 50C80 51.3261 79.4732 52.5979 78.5355 53.5355C77.5979 54.4732 76.3261 55 75 55H45C43.6739 55 42.4021 54.4732 41.4645 53.5355C40.5268 52.5979 40 51.3261 40 50C40 48.6739 40.5268 47.4021 41.4645 46.4645C42.4021 45.5268 43.6739 45 45 45Z" fill="#BDBDBD"/>
</svg>
