<svg width="26" height="22" viewBox="0 0 26 22" fill="none" xmlns="http://www.w3.org/2000/svg">
<path d="M18.5625 10.6283L17.6098 10.9322L18.5625 10.6283ZM17.7646 12.733L17.3254 11.8346L17.7646 12.733ZM8.3745 12.7875L7.93841 13.6874L8.3745 12.7875ZM8.48984 10.8636L11.1601 3.68716L9.28569 2.98969L6.6154 10.1661L8.48984 10.8636ZM15.3307 3.78619L17.6098 10.9322L19.5152 10.3245L17.2361 3.17847L15.3307 3.78619ZM7.93841 13.6874C11.9924 15.6519 15.8854 14.765 18.2039 13.6314L17.3254 11.8346C15.3764 12.7876 12.1513 13.5064 8.81058 11.8876L7.93841 13.6874ZM13.2283 2.25C14.1887 2.25 15.0389 2.87118 15.3307 3.78619L17.2361 3.17847C16.6798 1.43417 15.0592 0.25 13.2283 0.25V2.25ZM17.6098 10.9322C17.7525 11.3796 17.5636 11.7182 17.3254 11.8346L18.2039 13.6314C19.5109 12.9923 19.8952 11.5157 19.5152 10.3245L17.6098 10.9322ZM11.1601 3.68716C11.4816 2.82312 12.3064 2.25 13.2283 2.25V0.25C11.4708 0.25 9.89858 1.34255 9.28569 2.98969L11.1601 3.68716ZM6.6154 10.1661C6.14308 11.4355 6.56263 13.0207 7.93841 13.6874L8.81058 11.8876C8.51544 11.7445 8.31464 11.3344 8.48984 10.8636L6.6154 10.1661Z" fill="#00A2B9"/>
<path d="M13 14V20.75" stroke="#00A2B9" stroke-width="2" stroke-linecap="round"/>
<path d="M10 18H16" stroke="#00A2B9" stroke-width="2" stroke-linecap="round"/>
<path d="M10 18L9 21" stroke="#00A2B9" stroke-width="2" stroke-linecap="round"/>
<path d="M16 18L17 21" stroke="#00A2B9" stroke-width="2" stroke-linecap="round"/>
<path fill-rule="evenodd" clip-rule="evenodd" d="M7 9.75C7.55228 9.75 8 10.1977 8 10.75C8 11.3023 7.55228 11.75 7 11.75H6.25H5V20.75C5 21.3023 4.55228 21.75 4 21.75C3.44772 21.75 3 21.3023 3 20.75V11.75H1C0.447715 11.75 0 11.3023 0 10.75C0 10.1977 0.447715 9.75 1 9.75H4H6.25H7ZM19 9.75C18.4477 9.75 18 10.1977 18 10.75C18 11.3023 18.4477 11.75 19 11.75H21V20.75C21 21.3023 21.4477 21.75 22 21.75C22.5523 21.75 23 21.3023 23 20.75V11.75H25C25.5523 11.75 26 11.3023 26 10.75C26 10.1977 25.5523 9.75 25 9.75H22H19Z" fill="#00A2B9"/>
</svg>
