<svg width="32" height="32" viewBox="0 0 32 32" fill="none" xmlns="http://www.w3.org/2000/svg">
<path fill-rule="evenodd" clip-rule="evenodd" d="M18.4651 12.8991C17.9128 12.3561 17.4975 11.6934 17.2525 10.9641C17.0075 10.2348 16.9395 9.45912 17.0541 8.69931C17.1686 7.9395 17.4625 7.21665 17.9122 6.58868C18.3618 5.96071 18.9547 5.44509 19.6434 5.08313C19.7522 5.02587 19.8742 4.99732 19.9976 5.00025C20.1209 5.00319 20.2414 5.03752 20.3473 5.09989C20.4531 5.16226 20.5407 5.25055 20.6016 5.35614C20.6624 5.46174 20.6944 5.58105 20.6944 5.70243L20.6937 10.0999C21.0682 10.3834 21.5276 10.537 22.0001 10.5367C22.4727 10.5365 22.9319 10.3824 23.3061 10.0985L23.3055 5.7024C23.3055 5.58102 23.3375 5.46171 23.3984 5.35611C23.4592 5.25051 23.5468 5.16222 23.6527 5.09985C23.7585 5.03748 23.879 5.00315 24.0024 5.00021C24.1257 4.99727 24.2477 5.02582 24.3565 5.08308C25.077 5.4617 25.6922 6.00825 26.1482 6.67489C26.6043 7.34154 26.8874 8.10798 26.9727 8.90716C27.058 9.70634 26.9429 10.5139 26.6375 11.2592C26.3321 12.0045 25.8458 12.6649 25.2209 13.1825C24.4776 13.7998 24.0292 14.4874 24.0931 15.1319L25.1265 25.6204C25.1676 26.0487 25.1173 26.4806 24.9789 26.8886C24.8405 27.2967 24.617 27.6717 24.3227 27.9899C24.0284 28.308 23.6698 28.5622 23.2699 28.7361C22.87 28.9101 22.4376 28.9999 22.0004 29C21.5632 29.0001 21.1307 28.9103 20.7308 28.7364C20.3309 28.5626 19.9723 28.3085 19.6779 27.9904C19.3836 27.6724 19.16 27.2973 19.0215 26.8893C18.883 26.4814 18.8326 26.0494 18.8736 25.6212L19.9059 15.1326C19.9685 14.4881 19.5214 13.8006 18.7781 13.1832C18.6698 13.0929 18.5653 12.9981 18.4651 12.8991ZM21.4894 26.3173C21.3554 26.1855 21.2802 26.0068 21.2802 25.8205C21.2802 25.6342 21.3554 25.4555 21.4894 25.3237L21.4948 25.3184C21.6287 25.1867 21.8103 25.1127 21.9997 25.1127C22.1891 25.1127 22.3708 25.1867 22.5047 25.3184L22.5101 25.3237C22.644 25.4555 22.7193 25.6342 22.7193 25.8205C22.7193 26.0068 22.644 26.1855 22.5101 26.3173L22.5047 26.3226C22.3708 26.4543 22.1891 26.5283 21.9997 26.5284C21.8103 26.5284 21.6287 26.4543 21.4947 26.3226L21.4894 26.3173Z" fill="#00A2B9"/>
<path fill-rule="evenodd" clip-rule="evenodd" d="M17.3724 4.00363C15.0157 6.02683 14.3682 8.23104 14.9987 11C15.1076 11.4785 15.3111 11.957 15.5666 12.4517C13.7847 12.6762 12.4076 14.1798 12.4076 16.0024C12.4076 17.98 14.0288 19.5832 16.0292 19.5832C16.7914 19.5832 17.4986 19.3502 18.082 18.9523C18.0649 20.1132 17.8111 21.2406 17.5644 22.3366C17.1323 24.2565 16.7218 26.0801 17.6427 27.8191C17.514 27.9005 17.3653 27.9454 17.2124 27.9484L14.9324 28C14.7596 28.0045 14.5896 27.9554 14.4458 27.8593C14.3021 27.7633 14.1916 27.625 14.1296 27.4636L13.2104 25.0312C12.8968 24.924 12.5863 24.808 12.2792 24.6832C12.0281 24.5745 11.7808 24.4572 11.5376 24.3316L9.25764 25.306C9.10741 25.3701 8.94179 25.3891 8.78093 25.3608C8.62008 25.3325 8.47093 25.258 8.35164 25.1464L6.66444 23.5636C6.53883 23.4463 6.45328 23.2924 6.4199 23.1238C6.38652 22.9552 6.407 22.7803 6.47844 22.624L7.45884 20.488C7.32845 20.235 7.20757 19.9772 7.09644 19.7152C6.96672 19.3945 6.84667 19.0699 6.73644 18.742L4.58844 18.088C4.41384 18.0352 4.26155 17.9263 4.15523 17.7781C4.0489 17.6299 3.99449 17.4507 4.00044 17.2684L4.08444 14.9632C4.09042 14.8128 4.1374 14.6669 4.22031 14.5413C4.30322 14.4156 4.4189 14.315 4.55484 14.2504L6.80844 13.168C6.91284 12.7852 7.00404 12.4876 7.08444 12.2704C7.19765 11.9803 7.32337 11.6952 7.46124 11.416L6.48444 9.352C6.41031 9.19526 6.3878 9.01905 6.42014 8.84871C6.45249 8.67836 6.53802 8.52266 6.66444 8.404L8.34924 6.8128C8.46735 6.70141 8.61513 6.62652 8.77479 6.59714C8.93446 6.56776 9.09922 6.58514 9.24924 6.6472L11.5268 7.588C11.7788 7.42 12.0068 7.2844 12.2132 7.1752C12.4592 7.0444 12.788 6.9076 13.202 6.76L13.994 4.5508C14.0526 4.38912 14.1596 4.24946 14.3005 4.15088C14.4414 4.0523 14.6093 3.99961 14.7812 4H17.294C17.3204 4 17.3465 4.00123 17.3724 4.00363Z" fill="#F3AF00"/>
</svg>
