<svg width="28" height="28" viewBox="0 0 28 28" fill="none" xmlns="http://www.w3.org/2000/svg">
<path d="M22.4256 3.5H7.90708C6.7616 3.5 5.83301 4.25448 5.83301 5.18519V16.9815C5.83301 17.9122 6.7616 18.6667 7.90708 18.6667H22.4256C23.5711 18.6667 24.4997 17.9122 24.4997 16.9815V5.18519C24.4997 4.25448 23.5711 3.5 22.4256 3.5Z" stroke="#00A2B9" stroke-width="2" stroke-linecap="round" stroke-linejoin="round"/>
<path d="M20.0926 3.5H5.57407C4.42859 3.5 3.5 4.54467 3.5 5.83333V22.1667C3.5 23.4553 4.42859 24.5 5.57407 24.5H20.0926C21.2381 24.5 22.1667 23.4553 22.1667 22.1667V5.83333C22.1667 4.54467 21.2381 3.5 20.0926 3.5Z" fill="white" stroke="#00A2B9" stroke-width="2" stroke-linecap="round" stroke-linejoin="round"/>
<path d="M8.16699 12.834H17.5003" stroke="#00A2B9" stroke-width="2" stroke-linecap="round" stroke-linejoin="round"/>
<path d="M8.16699 8.16602H17.5003" stroke="#00A2B9" stroke-width="2" stroke-linecap="round" stroke-linejoin="round"/>
<path d="M8.16699 17.5H17.5003" stroke="#00A2B9" stroke-width="2" stroke-linecap="round" stroke-linejoin="round"/>
</svg>
