<svg width="24" height="24" viewBox="0 0 24 24" fill="none" xmlns="http://www.w3.org/2000/svg">
<path d="M16.082 15.5548L17.2249 14.43C17.4035 14.2542 17.7142 14.3773 17.7142 14.6304V19.7413C17.7142 20.6728 16.9463 21.4286 15.9999 21.4286H3.42819C2.48174 21.4286 1.71387 20.6728 1.71387 19.7413V7.36815C1.71387 6.43664 2.48174 5.6809 3.42819 5.6809H13.1963C13.4498 5.6809 13.5784 5.98319 13.3998 6.16247L12.257 7.2873C12.2034 7.34003 12.1319 7.36815 12.0534 7.36815H3.42819V19.7413H15.9999V15.7517C15.9999 15.6779 16.0285 15.6076 16.082 15.5548ZM21.675 8.46135L12.2962 17.692L9.0676 18.0435C8.13186 18.1455 7.33542 17.3686 7.43899 16.4406L7.79614 13.263L17.1749 4.03231C17.9928 3.22735 19.3142 3.22735 20.1285 4.03231L21.6714 5.55084C22.4893 6.3558 22.4893 7.6599 21.675 8.46135V8.46135ZM18.1464 9.54752L16.0713 7.50524L9.43546 14.0398L9.17474 16.3352L11.5069 16.0786L18.1464 9.54752ZM20.4607 6.74597L18.9178 5.22745C18.7714 5.08333 18.5321 5.08333 18.3892 5.22745L17.2856 6.31362L19.3607 8.35589L20.4643 7.26973C20.6071 7.12209 20.6071 6.89009 20.4607 6.74597V6.74597Z" fill="#666666"/>
</svg>
