<svg width="24" height="24" viewBox="0 0 24 24" fill="none" xmlns="http://www.w3.org/2000/svg">
<path d="M12 19C15.866 19 19 15.866 19 12C19 8.13401 15.866 5 12 5C8.13401 5 5 8.13401 5 12C5 15.866 8.13401 19 12 19Z" stroke="#FF7A00" stroke-width="2" stroke-linecap="round" stroke-linejoin="round"/>
<path d="M12 15C13.6569 15 15 13.6569 15 12C15 10.3431 13.6569 9 12 9C10.3431 9 9 10.3431 9 12C9 13.6569 10.3431 15 12 15Z" fill="#FF7A00"/>
<path d="M22 12H18" stroke="#FF7A00" stroke-width="2" stroke-linecap="round" stroke-linejoin="round"/>
<path d="M6 12H2" stroke="#FF7A00" stroke-width="2" stroke-linecap="round" stroke-linejoin="round"/>
<path d="M12 6V2" stroke="#FF7A00" stroke-width="2" stroke-linecap="round" stroke-linejoin="round"/>
<path d="M12 22V18" stroke="#FF7A00" stroke-width="2" stroke-linecap="round" stroke-linejoin="round"/>
</svg>
