<svg width="28" height="29" viewBox="0 0 28 29" fill="none" xmlns="http://www.w3.org/2000/svg">
<g clip-path="url(#clip0_41100_23083)">
<path d="M20.0928 3C21.8978 3.00011 23.1668 4.60622 23.167 6.33301V12.5293C22.4828 12.5762 21.8149 12.682 21.167 12.8389V6.33301C21.1668 5.48295 20.5784 5.00012 20.0928 5H5.57422C5.08856 5 4.50015 5.48285 4.5 6.33301V22.667C4.50015 23.5172 5.08856 24 5.57422 24H12.0107C12.0039 24.1658 12 24.3325 12 24.5C12 25.008 12.0325 25.5086 12.0938 26H5.57422C3.76909 26 2.50016 24.3938 2.5 22.667V6.33301C2.50016 4.60616 3.76909 3 5.57422 3H20.0928Z" fill="#00A2B9"/>
<path d="M8.16406 13.333H8.66406" stroke="#00A2B9" stroke-width="2" stroke-linecap="round" stroke-linejoin="round"/>
<path d="M8.16406 8.66699H8.66406" stroke="#00A2B9" stroke-width="2" stroke-linecap="round" stroke-linejoin="round"/>
<path d="M11.5 8.66699H17.5" stroke="#00A2B9" stroke-width="2" stroke-linecap="round" stroke-linejoin="round"/>
<path d="M8.16406 18H8.66406" stroke="#00A2B9" stroke-width="2" stroke-linecap="round" stroke-linejoin="round"/>
<path d="M21.434 22C21.7821 22 22.1159 22.1383 22.3621 22.3844C22.6082 22.6306 22.7465 22.9644 22.7465 23.3125L22.7456 23.967C22.8358 25.5744 21.5976 26.3759 19.3025 26.3759C17.0152 26.375 15.75 25.5849 15.75 23.9906V23.3125C15.75 22.9644 15.8883 22.6306 16.1344 22.3844C16.3806 22.1383 16.7144 22 17.0625 22H21.434ZM25.1562 22C25.5043 22 25.8382 22.1383 26.0843 22.3844C26.3305 22.6306 26.4688 22.9644 26.4688 23.3125V23.7736C26.5475 25.2147 25.4537 25.9375 23.4552 25.9375C23.184 25.9375 22.9285 25.9244 22.6905 25.8981C23.1595 25.4641 23.4106 24.8761 23.4097 24.1324L23.4045 23.9425L23.4062 23.3125C23.4062 22.7893 23.177 22.3202 22.813 22H25.1562Z" fill="#00A2B9"/>
<path d="M24.8624 18.1376C24.5342 17.8094 24.0891 17.625 23.625 17.625C23.1609 17.625 22.7158 17.8094 22.3876 18.1376C22.0594 18.4658 21.875 18.9109 21.875 19.375C21.875 19.8391 22.0594 20.2842 22.3876 20.6124C22.7158 20.9406 23.1609 21.125 23.625 21.125C24.0891 21.125 24.5342 20.9406 24.8624 20.6124C25.1906 20.2842 25.375 19.8391 25.375 19.375C25.375 18.9109 25.1906 18.4658 24.8624 18.1376Z" fill="#00A2B9"/>
<path d="M20.7968 17.3907C20.3866 16.9805 19.8302 16.75 19.25 16.75C18.6698 16.75 18.1134 16.9805 17.7032 17.3907C17.293 17.8009 17.0625 18.3573 17.0625 18.9375C17.0625 19.5177 17.293 20.0741 17.7032 20.4843C18.1134 20.8945 18.6698 21.125 19.25 21.125C19.8302 21.125 20.3866 20.8945 20.7968 20.4843C21.207 20.0741 21.4375 19.5177 21.4375 18.9375C21.4375 18.3573 21.207 17.8009 20.7968 17.3907Z" fill="#00A2B9"/>
<path d="M22.7041 3.01172C24.1085 3.12972 25.4971 4.12276 25.4971 5.68555V12.5928C25.006 12.5316 24.5057 12.5 23.998 12.5C23.8304 12.5 23.6631 12.5039 23.4971 12.5107V5.68555C23.4971 5.50327 23.254 5.06037 22.5664 5.00586L22.4229 5H15.1641C14.6118 5 14.1641 4.55228 14.1641 4C14.1641 3.44772 14.6118 3 15.1641 3H22.4229L22.7041 3.01172Z" fill="#00A2B9"/>
<path d="M14.6357 17C14.139 17.6194 13.7035 18.2889 13.3359 19H11.5C10.9477 19 10.5 18.5523 10.5 18C10.5 17.4477 10.9477 17 11.5 17H14.6357Z" fill="#00A2B9"/>
<path d="M17.6025 12.3379C18.1067 12.3892 18.5 12.8153 18.5 13.333C18.5 13.5618 18.4222 13.7719 18.293 13.9404C18.0724 14.0599 17.8575 14.1887 17.6455 14.3213C17.6312 14.3234 17.617 14.3266 17.6025 14.3281L17.5 14.333H11.5C10.9477 14.333 10.5 13.8853 10.5 13.333C10.5 12.7807 10.9477 12.333 11.5 12.333H17.5L17.6025 12.3379Z" fill="#00A2B9"/>
</g>
<defs>
<clipPath id="clip0_41100_23083">
<rect width="28" height="28" fill="white" transform="translate(0 0.5)"/>
</clipPath>
</defs>
</svg>
