<svg width="24" height="25" viewBox="0 0 24 25" fill="none" xmlns="http://www.w3.org/2000/svg">
<path d="M21.0096 18.8988C22.4402 17.6238 23.2502 15.9243 23.2502 14.1607C23.2502 12.2865 22.3728 10.5336 20.7796 9.2248C19.229 7.95139 17.1765 7.25 15 7.25C12.8235 7.25 10.771 7.95139 9.22064 9.22489C7.62741 10.5336 6.75 12.2865 6.75 14.1607C6.75 16.035 7.62741 17.7878 9.22064 19.0967C10.771 20.3702 12.8235 21.0715 15 21.0715C15.29 21.0715 15.5818 21.0587 15.8712 21.0333L16.3655 21.4618C18.0686 22.9375 20.2465 23.7499 22.5 23.75H23.25V22.1536L23.0303 21.934C22.1638 21.0649 21.4771 20.0335 21.0096 18.8988ZM17.3479 20.3281L16.356 19.4684L16.0253 19.5089C15.6851 19.5505 15.3427 19.5714 15 19.5714C11.2781 19.5714 8.25 17.1442 8.25 14.1607C8.25 11.1773 11.2781 8.75 15 8.75C18.7219 8.75 21.75 11.1772 21.75 14.1607C21.75 15.6471 21.0084 17.0348 19.6619 18.0681L19.23 18.3996L19.4293 18.9637C19.8377 20.1159 20.4381 21.1907 21.205 22.1427C19.7768 21.9043 18.4421 21.2764 17.3479 20.3281Z" fill="#00A2B9"/>
<path d="M2.82117 15.3817C3.52323 14.493 4.07445 13.495 4.4528 12.4275L4.65061 11.8662L4.21903 11.5349C2.94928 10.5606 2.25 9.25287 2.25 7.85267C2.25 5.03905 5.1098 2.75 8.625 2.75C11.211 2.75 13.4422 3.98891 14.4411 5.76406C14.6266 5.75506 14.8129 5.75 15 5.75C15.3758 5.75 15.7483 5.76823 16.1172 5.8047C15.7312 4.80463 15.0608 3.89169 14.1391 3.13466C12.6596 1.91933 10.7016 1.25 8.625 1.25C6.54844 1.25 4.59037 1.91933 3.11081 3.13466C1.58841 4.38523 0.75 6.06078 0.75 7.85267C0.75 9.5308 1.5165 11.1477 2.87109 12.3641C2.42903 13.4279 1.7831 14.3949 0.969703 15.2107L0.75 15.4304V17H1.5C2.88689 16.9998 4.25471 16.6769 5.4952 16.0566C5.35918 15.5411 5.27948 15.0123 5.2575 14.4795C4.50458 14.9208 3.6799 15.2262 2.82117 15.3817Z" fill="#00A2B9"/>
</svg>
