<svg width="100" height="100" viewBox="0 0 100 100" fill="none" xmlns="http://www.w3.org/2000/svg">
<defs>
<clipPath id="clip0_22122_175387">
<rect width="100" height="100" rx="16" fill="white"/>
</clipPath>
</defs>
<g clip-path="url(#clip0_22122_175387)">
<rect width="100" height="100" rx="16" fill="#E6F6F8"/>
<path fill-rule="evenodd" clip-rule="evenodd" d="M7.99244 106.5C6.93596 106.499 5.92743 106.293 5.00439 105.92C5.16401 94.8581 9.88608 84.2815 18.1804 76.448C26.6195 68.4777 38.0655 64 50.0002 64C61.935 64 73.3809 68.4777 81.82 76.448C90.1143 84.2815 94.8364 94.8581 94.996 105.92C94.0712 106.294 93.0604 106.5 92.0017 106.5C92.0012 106.5 92.0007 106.5 92.0002 106.5H8.00021C7.99762 106.5 7.99503 106.5 7.99244 106.5Z" fill="#B6DCE1"/>
<path fill-rule="evenodd" clip-rule="evenodd" d="M8.44921 90.1826C6.27093 95.1302 5.08309 100.466 5.00439 105.92C5.92743 106.294 6.93596 106.499 7.99244 106.5L8.00021 106.5H92.0002H92.0017C93.0604 106.5 94.0712 106.294 94.996 105.92C94.918 100.51 93.7483 95.215 91.603 90.3007C89.1115 91.4795 86.2678 92.1491 83.2974 92.1491H50.1486L16.9998 92.1491C13.9316 92.1491 10.9985 91.4347 8.44921 90.1826Z" fill="#8BBFC7" fill-opacity="0.4"/>
<circle cx="50" cy="35" r="24" fill="#B6DCE1"/>
<path fill-rule="evenodd" clip-rule="evenodd" d="M43.1047 43.4877C42.3651 43.2196 41.5265 43.2732 40.9138 43.7667C40.103 44.4199 39.9763 45.5925 40.6284 46.4041C41.0778 46.9634 41.6148 47.485 42.2325 47.9565C44.3023 49.5363 47.1095 50.4238 50.0365 50.4238C52.9636 50.4238 55.7708 49.5363 57.8406 47.9565C58.557 47.4098 59.1647 46.7955 59.6532 46.1334C60.2418 45.3356 60.0796 44.2266 59.2903 43.6267C58.7073 43.1837 57.9287 43.1396 57.2404 43.3891L53.5831 44.7146C51.2917 45.5451 48.7814 45.5451 46.49 44.7146L43.1047 43.4877Z" fill="#7EAFB6"/>
<mask id="mask0_22122_175387" style="mask-type:luminance" maskUnits="userSpaceOnUse" x="41" y="64" width="18" height="37">
<path d="M42.125 93L47.375 72.875H52.625L57.875 93L50 100L42.125 93ZM47.375 65H52.625L55.25 66.75L52.625 72.875H47.375L44.75 66.75L47.375 65Z" fill="white"/>
<path d="M47.375 72.875L42.125 93L50 100L57.875 93L52.625 72.875M47.375 72.875H52.625M47.375 72.875L44.75 66.75L47.375 65H52.625L55.25 66.75L52.625 72.875" stroke="white" stroke-width="2" stroke-linecap="round" stroke-linejoin="round"/>
</mask>
<g mask="url(#mask0_22122_175387)">
<path d="M29.0002 61.501H71.0002V103.501H29.0002V61.501Z" fill="#47828A" fill-opacity="0.5"/>
</g>
</g>
<rect x="2" y="2" width="96" height="96" rx="14" stroke="white" stroke-width="4"/>
</svg>
