<svg width="64" height="21" viewBox="0 0 64 21" fill="none" xmlns="http://www.w3.org/2000/svg">
<path d="M0 10.9H1.85714V10.1H0V10.9ZM5.57143 10.9H9.28571V10.1H5.57143V10.9ZM13 10.9H16.7143V10.1H13V10.9ZM20.4286 10.9H24.1429V10.1H20.4286V10.9ZM27.8571 10.9H31.5714V10.1H27.8571V10.9ZM35.2857 10.9H39V10.1H35.2857V10.9ZM42.7143 10.9H46.4286V10.1H42.7143V10.9ZM50.1429 10.9H52V10.1H50.1429V10.9ZM0 11.3H1.85714V9.7H0V11.3ZM5.57143 11.3H9.28571V9.7H5.57143V11.3ZM13 11.3H16.7143V9.7H13V11.3ZM20.4286 11.3H24.1429V9.7H20.4286V11.3ZM27.8571 11.3H31.5714V9.7H27.8571V11.3ZM35.2857 11.3H39V9.7H35.2857V11.3ZM42.7143 11.3H46.4286V9.7H42.7143V11.3ZM50.1429 11.3H52V9.7H50.1429V11.3Z" fill="#00A2B9"/>
<path d="M56.4 9.16667H58.8C59.1183 9.16667 59.4235 9.30714 59.6485 9.55719C59.8736 9.80724 60 10.1464 60 10.5C60 10.8536 59.8736 11.1928 59.6485 11.4428C59.4235 11.6929 59.1183 11.8333 58.8 11.8333H56.4L54 16.5H52.2L53.4 11.8333H51L49.8 13.1667H48L49.2 10.5L48 7.83333H49.8L51 9.16667H53.4L52.2 4.5H54L56.4 9.16667Z" fill="white" stroke="#00A2B9" stroke-linecap="round" stroke-linejoin="round"/>
</svg>
