<svg width="28" height="28" viewBox="0 0 28 28" fill="none" xmlns="http://www.w3.org/2000/svg">
<g clip-path="url(#clip0_21849_177782)">
<circle cx="14" cy="4" r="3" stroke="#00A2B9" stroke-width="2"/>
<circle cx="14" cy="24" r="3" stroke="#00A2B9" stroke-width="2"/>
<path fill-rule="evenodd" clip-rule="evenodd" d="M7.70711 8.70711C7.31658 9.09763 6.68342 9.09763 6.29289 8.70711C5.90237 8.31658 5.90237 7.68342 6.29289 7.29289L6.79289 6.79289L7.29289 6.29289C7.68342 5.90237 8.31658 5.90237 8.70711 6.29289C9.09763 6.68342 9.09763 7.31658 8.70711 7.70711L8.20711 8.20711L7.70711 8.70711ZM21.7071 8.70711C21.3166 9.09763 20.6834 9.09763 20.2929 8.70711L19.7929 8.20711L19.2929 7.70711C18.9024 7.31658 18.9024 6.68342 19.2929 6.29289C19.6834 5.90237 20.3166 5.90237 20.7071 6.29289L21.2071 6.79289L21.7071 7.29289C22.0976 7.68342 22.0976 8.31658 21.7071 8.70711ZM8.20711 18.7929C7.81658 18.4024 7.18342 18.4024 6.79289 18.7929C6.40237 19.1834 6.40237 19.8166 6.79289 20.2071L7.29289 20.7071L7.79289 21.2071C8.18342 21.5976 8.81658 21.5976 9.20711 21.2071C9.59763 20.8166 9.59763 20.1834 9.20711 19.7929L8.70711 19.2929L8.20711 18.7929ZM19.7929 18.7929C20.1834 18.4024 20.8166 18.4024 21.2071 18.7929C21.5976 19.1834 21.5976 19.8166 21.2071 20.2071L20.7071 20.7071L20.2071 21.2071C19.8166 21.5976 19.1834 21.5976 18.7929 21.2071C18.4024 20.8166 18.4024 20.1834 18.7929 19.7929L19.2929 19.2929L19.7929 18.7929Z" fill="#00A2B9"/>
<circle cx="24" cy="14.5" r="3" stroke="#00A2B9" stroke-width="2"/>
<circle cx="4" cy="14.5" r="3" stroke="#00A2B9" stroke-width="2"/>
</g>
<defs>
<clipPath id="clip0_21849_177782">
<rect width="28" height="28" fill="white"/>
</clipPath>
</defs>
</svg>
