<svg width="48" height="48" viewBox="0 0 48 48" fill="none" xmlns="http://www.w3.org/2000/svg">
<path d="M14.208 6C12.8145 6.00003 11.4594 6.45663 10.3501 7.29994C9.24076 8.14325 8.4383 9.32681 8.0655 10.6695L6.654 15.75H9.765L10.9545 11.472C11.152 10.7609 11.577 10.1342 12.1646 9.68769C12.7523 9.24122 13.47 8.99966 14.208 9H33.795C34.5327 8.99999 35.2501 9.2417 35.8375 9.68814C36.4248 10.1346 36.8496 10.7612 37.047 11.472L41.8755 28.854C42.0106 29.3397 42.0315 29.8501 41.9366 30.3452C41.8418 30.8403 41.6337 31.3068 41.3288 31.7082C41.0238 32.1097 40.6301 32.4351 40.1785 32.6592C39.7269 32.8833 39.2296 32.9999 38.7255 33H21.75V36H38.7255C42.8715 36 45.876 32.0475 44.766 28.0515L39.939 10.6695C39.5662 9.32681 38.7637 8.14325 37.6544 7.29994C36.5451 6.45663 35.19 6.00003 33.7965 6H14.2065H14.208ZM21.75 39H36C36.3978 39 36.7794 39.158 37.0607 39.4393C37.342 39.7206 37.5 40.1022 37.5 40.5C37.5 40.8978 37.342 41.2794 37.0607 41.5607C36.7794 41.842 36.3978 42 36 42H21.705C21.735 41.754 21.75 41.505 21.75 41.25V39ZM6.75 21C6.55109 21 6.36032 21.079 6.21967 21.2197C6.07902 21.3603 6 21.5511 6 21.75V41.25C6 41.4489 6.07902 41.6397 6.21967 41.7803C6.36032 41.921 6.55109 42 6.75 42H15.75C15.9489 42 16.1397 41.921 16.2803 41.7803C16.421 41.6397 16.5 41.4489 16.5 41.25V21.75C16.5 21.5511 16.421 21.3603 16.2803 21.2197C16.1397 21.079 15.9489 21 15.75 21H6.75ZM3 21.75C3 20.7554 3.39509 19.8016 4.09835 19.0983C4.80161 18.3951 5.75544 18 6.75 18H15.75C16.7446 18 17.6984 18.3951 18.4017 19.0983C19.1049 19.8016 19.5 20.7554 19.5 21.75V41.25C19.5 42.2446 19.1049 43.1984 18.4017 43.9016C17.6984 44.6049 16.7446 45 15.75 45H6.75C5.75544 45 4.80161 44.6049 4.09835 43.9016C3.39509 43.1984 3 42.2446 3 41.25V21.75ZM11.25 30C12.0456 30 12.8087 29.6839 13.3713 29.1213C13.9339 28.5587 14.25 27.7956 14.25 27C14.25 26.2044 13.9339 25.4413 13.3713 24.8787C12.8087 24.3161 12.0456 24 11.25 24C10.4544 24 9.69129 24.3161 9.12868 24.8787C8.56607 25.4413 8.25 26.2044 8.25 27C8.25 27.7956 8.56607 28.5587 9.12868 29.1213C9.69129 29.6839 10.4544 30 11.25 30Z" fill="#BDBDBD"/>
</svg>
