<svg width="28" height="28" viewBox="0 0 28 28" fill="none" xmlns="http://www.w3.org/2000/svg">
<path d="M3.79001 2.77304L24.86 12.85C25.073 12.9517 25.2528 13.1116 25.3787 13.3112C25.5046 13.5109 25.5714 13.742 25.5714 13.978C25.5714 14.214 25.5046 14.4452 25.3787 14.6448C25.2528 14.8444 25.073 15.0043 24.86 15.106L3.79001 25.183C3.57401 25.2865 3.33284 25.3257 3.09519 25.2961C2.85754 25.2664 2.63341 25.1691 2.44948 25.0157C2.26554 24.8623 2.12954 24.6593 2.05766 24.4309C1.98578 24.2024 1.98104 23.9581 2.04401 23.727L4.70401 13.978L2.04401 4.22904C1.98104 3.99797 1.98578 3.75367 2.05766 3.52522C2.12954 3.29676 2.26554 3.09377 2.44948 2.94039C2.63341 2.787 2.85754 2.68969 3.09519 2.66002C3.33284 2.63035 3.57401 2.66958 3.79001 2.77304ZM3.63501 4.36204L6.05801 13.249L17 13.25C17.1814 13.2501 17.3566 13.3159 17.4932 13.4352C17.6298 13.5545 17.7186 13.7193 17.743 13.899L17.75 14C17.75 14.1813 17.6844 14.3564 17.5652 14.493C17.4461 14.6296 17.2816 14.7184 17.102 14.743L17 14.75H6.04601L3.63601 23.594L23.742 13.978L3.63501 4.36204Z" fill="#00A2B9"/>
</svg>
