<svg width="24" height="24" viewBox="0 0 24 24" fill="none" xmlns="http://www.w3.org/2000/svg">
<path d="M12 9.75H13.5V14.25H12V9.75ZM4.5 11.25H6V9.75H4.5V11.25ZM24 3V21C24 21.7956 23.6839 22.5587 23.1213 23.1213C22.5587 23.6839 21.7956 24 21 24H3C2.20435 24 1.44129 23.6839 0.87868 23.1213C0.31607 22.5587 0 21.7956 0 21V3C0 2.20435 0.31607 1.44129 0.87868 0.87868C1.44129 0.31607 2.20435 0 3 0H21C21.7956 0 22.5587 0.31607 23.1213 0.87868C23.6839 1.44129 24 2.20435 24 3ZM8.25 9.75C8.25 9.15326 8.01295 8.58097 7.59099 8.15901C7.16903 7.73705 6.59674 7.5 6 7.5H2.25V16.5H4.5V13.5H6C6.59674 13.5 7.16903 13.2629 7.59099 12.841C8.01295 12.419 8.25 11.8467 8.25 11.25V9.75ZM15.75 9.75C15.75 9.15326 15.5129 8.58097 15.091 8.15901C14.669 7.73705 14.0967 7.5 13.5 7.5H9.75V16.5H13.5C14.0967 16.5 14.669 16.2629 15.091 15.841C15.5129 15.419 15.75 14.8467 15.75 14.25V9.75ZM21.75 7.5H17.25V16.5H19.5V13.5H21.75V11.25H19.5V9.75H21.75V7.5Z" fill="#FF5E5E"/>
</svg>
