<svg width="28" height="29" viewBox="0 0 28 29" fill="none" xmlns="http://www.w3.org/2000/svg">
<g clip-path="url(#clip0_19870_173416)">
<path fill-rule="evenodd" clip-rule="evenodd" d="M15 7.5C15 6.94772 14.5523 6.5 14 6.5C13.4477 6.5 13 6.94772 13 7.5V14.5C13 14.8788 13.214 15.225 13.5528 15.3944L15.2787 16.2574C15.773 15.7347 16.3136 15.2564 16.8942 14.8291L15 13.882V7.5Z" fill="#00A2B9"/>
<path fill-rule="evenodd" clip-rule="evenodd" d="M3.33337 14.5C3.33337 8.609 8.109 3.83337 14 3.83337C19.2108 3.83337 23.5489 7.56974 24.4813 12.5095C25.1882 12.5374 25.8794 12.6264 26.5497 12.7714C25.7067 6.5936 20.4093 1.83337 14 1.83337C7.00443 1.83337 1.33337 7.50443 1.33337 14.5C1.33337 20.9093 6.0936 26.2067 12.2714 27.0497C12.1264 26.3794 12.0374 25.6882 12.0095 24.9813C7.06974 24.0489 3.33337 19.7108 3.33337 14.5Z" fill="#00A2B9"/>
<path d="M21.434 22C21.7821 22 22.1159 22.1383 22.3621 22.3844C22.6082 22.6306 22.7465 22.9644 22.7465 23.3125L22.7456 23.967C22.8358 25.5744 21.5976 26.3759 19.3025 26.3759C17.0152 26.375 15.75 25.5849 15.75 23.9906V23.3125C15.75 22.9644 15.8883 22.6306 16.1344 22.3844C16.3806 22.1383 16.7144 22 17.0625 22H21.434ZM25.1562 22C25.5043 22 25.8382 22.1383 26.0843 22.3844C26.3305 22.6306 26.4688 22.9644 26.4688 23.3125V23.7736C26.5475 25.2147 25.4537 25.9375 23.4552 25.9375C23.184 25.9375 22.9285 25.9244 22.6905 25.8981C23.1595 25.4641 23.4106 24.8761 23.4097 24.1324L23.4045 23.9425L23.4062 23.3125C23.4062 22.7893 23.177 22.3202 22.813 22H25.1562Z" fill="#00A2B9"/>
<path d="M24.8624 18.1376C24.5342 17.8094 24.0891 17.625 23.625 17.625C23.1609 17.625 22.7158 17.8094 22.3876 18.1376C22.0594 18.4658 21.875 18.9109 21.875 19.375C21.875 19.8391 22.0594 20.2842 22.3876 20.6124C22.7158 20.9406 23.1609 21.125 23.625 21.125C24.0891 21.125 24.5342 20.9406 24.8624 20.6124C25.1906 20.2842 25.375 19.8391 25.375 19.375C25.375 18.9109 25.1906 18.4658 24.8624 18.1376Z" fill="#00A2B9"/>
<path d="M20.7968 17.3907C20.3866 16.9805 19.8302 16.75 19.25 16.75C18.6698 16.75 18.1134 16.9805 17.7032 17.3907C17.293 17.8009 17.0625 18.3573 17.0625 18.9375C17.0625 19.5177 17.293 20.0741 17.7032 20.4843C18.1134 20.8945 18.6698 21.125 19.25 21.125C19.8302 21.125 20.3866 20.8945 20.7968 20.4843C21.207 20.0741 21.4375 19.5177 21.4375 18.9375C21.4375 18.3573 21.207 17.8009 20.7968 17.3907Z" fill="#00A2B9"/>
</g>
<defs>
<clipPath id="clip0_19870_173416">
<rect width="28" height="28" fill="white" transform="translate(0 0.5)"/>
</clipPath>
</defs>
</svg>
