<svg width="24" height="24" viewBox="0 0 24 24" fill="none" xmlns="http://www.w3.org/2000/svg">
<path d="M16 2V6" stroke="#BDBDBD" stroke-width="1.5" stroke-linecap="round" stroke-linejoin="round"/>
<path d="M8 2V6" stroke="#BDBDBD" stroke-width="1.5" stroke-linecap="round" stroke-linejoin="round"/>
<path fill-rule="evenodd" clip-rule="evenodd" d="M5 4.75C4.30964 4.75 3.75 5.30964 3.75 6V9.25H14.75L16.25 10.75H3.75V20C3.75 20.6904 4.30964 21.25 5 21.25H16.5L15.3 22.75H5C3.48122 22.75 2.25 21.5188 2.25 20V10V6C2.25 4.48122 3.48122 3.25 5 3.25H19C20.5188 3.25 21.75 4.48122 21.75 6V10V13.25L20.25 11.75V10.75H19.25L19 10.5L17.75 9.25H20.25V6C20.25 5.30964 19.6904 4.75 19 4.75H5ZM18.475 21.25H19C19.6904 21.25 20.25 20.6904 20.25 20V19.25L21.75 17.75V20C21.75 21.5188 20.5188 22.75 19 22.75H17.425L18.475 21.25Z" fill="#BDBDBD"/>
<path d="M8.5 15.5003H20.3333M20.3333 15.5003L17.125 12.292M20.3333 15.5003L17.125 18.7087" stroke="#00A2B9" stroke-width="1.5" stroke-linecap="round" stroke-linejoin="round"/>
</svg>
