<svg width="25" height="24" viewBox="0 0 25 24" fill="none" xmlns="http://www.w3.org/2000/svg">
<path d="M8.75 7V3M16.75 7V3M7.75 11H17.75M5.75 21H19.75C20.2804 21 20.7891 20.7893 21.1642 20.4142C21.5393 20.0391 21.75 19.5304 21.75 19V7C21.75 6.46957 21.5393 5.96086 21.1642 5.58579C20.7891 5.21071 20.2804 5 19.75 5H5.75C5.21957 5 4.71086 5.21071 4.33579 5.58579C3.96071 5.96086 3.75 6.46957 3.75 7V19C3.75 19.5304 3.96071 20.0391 4.33579 20.4142C4.71086 20.7893 5.21957 21 5.75 21Z" stroke="#BDBDBD" stroke-width="1.5" stroke-linecap="round" stroke-linejoin="round"/>
</svg>
