<svg width="25" height="24" viewBox="0 0 25 24" fill="none" xmlns="http://www.w3.org/2000/svg">
<g clip-path="url(#clip0_11411_28455)">
<path d="M16.6941 21.0742C19.251 21.0742 21.3237 19.0014 21.3237 16.4446C21.3237 13.8877 19.251 11.8149 16.6941 11.8149C14.1372 11.8149 12.0645 13.8877 12.0645 16.4446C12.0645 19.0014 14.1372 21.0742 16.6941 21.0742Z" fill="#00A2B9" stroke="#00A2B9" stroke-width="1.5" stroke-linecap="round" stroke-linejoin="round"/>
<path d="M17.8975 18.1112L16.9651 17.1788C16.7915 17.0052 16.6939 16.7697 16.6938 16.5242V14.7778" stroke="white" stroke-width="1.5" stroke-linecap="round" stroke-linejoin="round"/>
</g>
<path fill-rule="evenodd" clip-rule="evenodd" d="M2.25 5C2.25 3.34315 3.59315 2 5.25 2H17.0278C18.6846 2 20.0278 3.34315 20.0278 5V10.6696C19.0472 10.1024 17.9088 9.77778 16.6945 9.77778C13.0126 9.77778 10.0278 12.7625 10.0278 16.4444C10.0278 17.6587 10.3525 18.7972 10.9197 19.7778H5.25C3.59315 19.7778 2.25 18.4346 2.25 16.7778V5ZM5.94458 7.55555C5.94458 7.14134 6.28037 6.80555 6.69458 6.80555H15.5835C15.9977 6.80555 16.3335 7.14134 16.3335 7.55555C16.3335 7.96976 15.9977 8.30555 15.5835 8.30555H6.69458C6.28037 8.30555 5.94458 7.96976 5.94458 7.55555ZM12.5153 11.25C11.9857 11.6766 11.5227 12.1827 11.1443 12.75H6.69458C6.28037 12.75 5.94458 12.4142 5.94458 12C5.94458 11.5858 6.28037 11.25 6.69458 11.25H12.5153Z" fill="#00A2B9"/>
<defs>
<clipPath id="clip0_11411_28455">
<rect width="11.1111" height="11.1111" fill="white" transform="translate(11.1387 10.8889)"/>
</clipPath>
</defs>
</svg>
