<svg width="32" height="32" viewBox="0 0 32 32" fill="none" xmlns="http://www.w3.org/2000/svg">
<path d="M16.992 16C17.7877 16 18.5507 16.3161 19.1133 16.8787C19.6759 17.4413 19.992 18.2044 19.992 19L19.99 20.496C20.196 24.17 17.366 26.002 12.12 26.002C6.892 26 4 24.194 4 20.55V19C4 18.2044 4.31607 17.4413 4.87868 16.8787C5.44129 16.3161 6.20435 16 7 16H16.992ZM25.5 16C26.2956 16 27.0587 16.3161 27.6213 16.8787C28.1839 17.4413 28.5 18.2044 28.5 19V20.054C28.68 23.348 26.18 25 21.612 25C20.992 25 20.408 24.97 19.864 24.91C20.936 23.918 21.51 22.574 21.508 20.874L21.496 20.44L21.5 19C21.5 17.804 20.976 16.732 20.144 16H25.5Z" fill="#00A2B9"/>
<path d="M24.8284 7.17157C24.0783 6.42143 23.0609 6 22 6C20.9391 6 19.9217 6.42143 19.1716 7.17157C18.4214 7.92172 18 8.93913 18 10C18 11.0609 18.4214 12.0783 19.1716 12.8284C19.9217 13.5786 20.9391 14 22 14C23.0609 14 24.0783 13.5786 24.8284 12.8284C25.5786 12.0783 26 11.0609 26 10C26 8.93913 25.5786 7.92172 24.8284 7.17157Z" fill="#F3AF00"/>
<path d="M15.5355 5.46447C14.5979 4.52678 13.3261 4 12 4C10.6739 4 9.40215 4.52678 8.46447 5.46447C7.52678 6.40215 7 7.67392 7 9C7 10.3261 7.52678 11.5979 8.46447 12.5355C9.40215 13.4732 10.6739 14 12 14C13.3261 14 14.5979 13.4732 15.5355 12.5355C16.4732 11.5979 17 10.3261 17 9C17 7.67392 16.4732 6.40215 15.5355 5.46447Z" fill="#F3AF00"/>
</svg>
