<svg width="28" height="28" viewBox="0 0 28 28" fill="none" xmlns="http://www.w3.org/2000/svg">
<g clip-path="url(#clip0_646_12410)">
<g filter="url(#filter0_ii_646_12410)">
<path d="M4.20001 4.90058C4.20001 3.35421 5.45357 2.10062 6.99993 2.10058L20.9999 2.10018C22.5464 2.10013 23.8 3.35375 23.8 4.90018V23.1001C23.8 24.6465 22.5464 25.9001 21 25.9001H7.00001C5.45362 25.9001 4.20001 24.6465 4.20001 23.1001V4.90058Z" fill="#0C7889"/>
</g>
<path d="M20.9998 2.25732C22.4592 2.25728 23.6422 3.44059 23.6424 4.8999V23.1001C23.6424 24.5595 22.4592 25.7427 20.9998 25.7427H6.99982C5.5405 25.7426 4.35724 24.5594 4.35724 23.1001V4.90088C4.35724 3.44154 5.54049 2.25841 6.99982 2.2583L20.9998 2.25732Z" stroke="url(#paint0_linear_646_12410)" stroke-opacity="0.2" stroke-width="0.315"/>
<path d="M8.66229 3.54199H19.1623C19.719 3.54199 20.171 3.99308 20.1711 4.5498V6.25781H7.65448V4.5498C7.65458 3.99314 8.10563 3.5421 8.66229 3.54199Z" fill="#FFB81F" stroke="url(#paint1_linear_646_12410)" stroke-width="0.0835785"/>
<g filter="url(#filter1_i_646_12410)">
<path d="M5.51251 7.70029C5.51251 6.15392 6.76607 4.90033 8.31244 4.90029L19.5124 4.89998C21.0589 4.89994 22.3125 6.15355 22.3125 7.69998V19.5999L16.7125 24.4999H8.31251C6.76611 24.4999 5.51251 23.2463 5.51251 21.6999V7.70029Z" fill="#00A2B9"/>
</g>
<path d="M19.5125 5.03955C20.9815 5.03955 22.1725 6.23075 22.1727 7.69971V19.5356L16.66 24.3599H8.31232C6.84333 24.3598 5.65216 23.1687 5.65216 21.6997V7.70068C5.65216 6.23168 6.84332 5.04063 8.31232 5.04053L19.5125 5.03955Z" stroke="url(#paint2_linear_646_12410)" stroke-opacity="0.2" stroke-width="0.28"/>
<foreignObject x="-132.388" y="-114.1" width="289.8" height="281.75"><div xmlns="http://www.w3.org/1999/xhtml" style="backdrop-filter:blur(7px);clip-path:url(#bgblur_1_646_12410_clip_path);height:100%;width:100%"></div></foreignObject><g filter="url(#filter2_d_646_12410)" data-figma-bg-blur-radius="14">
<rect x="7.61249" y="9.1001" width="9.8" height="1.75" rx="0.875" fill="#E6F6F8"/>
<rect x="7.64749" y="9.1351" width="9.73" height="1.68" rx="0.84" stroke="url(#paint3_linear_646_12410)" stroke-width="0.07"/>
</g>
<foreignObject x="-132.388" y="-110.6" width="292.6" height="281.75"><div xmlns="http://www.w3.org/1999/xhtml" style="backdrop-filter:blur(7px);clip-path:url(#bgblur_2_646_12410_clip_path);height:100%;width:100%"></div></foreignObject><g filter="url(#filter3_d_646_12410)" data-figma-bg-blur-radius="14">
<rect x="7.61249" y="12.6001" width="12.6" height="1.75" rx="0.875" fill="#E6F6F8"/>
<rect x="7.64749" y="12.6351" width="12.53" height="1.68" rx="0.84" stroke="url(#paint4_linear_646_12410)" stroke-width="0.07"/>
</g>
<foreignObject x="-132.388" y="-107.1" width="288.4" height="281.75"><div xmlns="http://www.w3.org/1999/xhtml" style="backdrop-filter:blur(7px);clip-path:url(#bgblur_3_646_12410_clip_path);height:100%;width:100%"></div></foreignObject><g filter="url(#filter4_d_646_12410)" data-figma-bg-blur-radius="14">
<rect x="7.61249" y="16.1001" width="8.4" height="1.75" rx="0.875" fill="#E6F6F8"/>
<rect x="7.64749" y="16.1351" width="8.33" height="1.68" rx="0.84" stroke="url(#paint5_linear_646_12410)" stroke-width="0.07"/>
</g>
<foreignObject x="-132.388" y="-103.6" width="285.6" height="281.75"><div xmlns="http://www.w3.org/1999/xhtml" style="backdrop-filter:blur(7px);clip-path:url(#bgblur_4_646_12410_clip_path);height:100%;width:100%"></div></foreignObject><g filter="url(#filter5_d_646_12410)" data-figma-bg-blur-radius="14">
<rect x="7.61249" y="19.6001" width="5.6" height="1.75" rx="0.875" fill="#E6F6F8"/>
<rect x="7.64749" y="19.6351" width="5.53" height="1.68" rx="0.84" stroke="url(#paint6_linear_646_12410)" stroke-width="0.07"/>
</g>
<foreignObject x="-123.287" y="-103.6" width="285.6" height="284.9"><div xmlns="http://www.w3.org/1999/xhtml" style="backdrop-filter:blur(7px);clip-path:url(#bgblur_5_646_12410_clip_path);height:100%;width:100%"></div></foreignObject><g filter="url(#filter6_d_646_12410)" data-figma-bg-blur-radius="14">
<path d="M16.7125 21.0001C16.7125 20.2269 17.3393 19.6001 18.1125 19.6001H22.3125L19.5125 22.0501L16.7125 24.5001V21.0001Z" fill="url(#paint7_linear_646_12410)" fill-opacity="0.9"/>
<path d="M18.1129 19.6353H22.2194L19.4899 22.0239L16.7477 24.4224V21.0005C16.7477 20.2466 17.359 19.6353 18.1129 19.6353Z" stroke="url(#paint8_linear_646_12410)" stroke-width="0.07"/>
</g>
</g>
<defs>
<filter id="filter0_ii_646_12410" x="3.30751" y="0.315098" width="22.2775" height="26.4775" filterUnits="userSpaceOnUse" color-interpolation-filters="sRGB">
<feFlood flood-opacity="0" result="BackgroundImageFix"/>
<feBlend mode="normal" in="SourceGraphic" in2="BackgroundImageFix" result="shape"/>
<feColorMatrix in="SourceAlpha" type="matrix" values="0 0 0 0 0 0 0 0 0 0 0 0 0 0 0 0 0 0 127 0" result="hardAlpha"/>
<feOffset dx="1.785" dy="-1.785"/>
<feGaussianBlur stdDeviation="1.785"/>
<feComposite in2="hardAlpha" operator="arithmetic" k2="-1" k3="1"/>
<feColorMatrix type="matrix" values="0 0 0 0 0.101961 0 0 0 0 0.105882 0 0 0 0 0.117647 0 0 0 0.24 0"/>
<feBlend mode="normal" in2="shape" result="effect1_innerShadow_646_12410"/>
<feColorMatrix in="SourceAlpha" type="matrix" values="0 0 0 0 0 0 0 0 0 0 0 0 0 0 0 0 0 0 127 0" result="hardAlpha"/>
<feOffset dx="-0.8925" dy="0.8925"/>
<feGaussianBlur stdDeviation="0.8925"/>
<feComposite in2="hardAlpha" operator="arithmetic" k2="-1" k3="1"/>
<feColorMatrix type="matrix" values="0 0 0 0 0.901961 0 0 0 0 0.964706 0 0 0 0 0.972549 0 0 0 0.16 0"/>
<feBlend mode="normal" in2="effect1_innerShadow_646_12410" result="effect2_innerShadow_646_12410"/>
</filter>
<filter id="filter1_i_646_12410" x="4.71918" y="4.8999" width="17.5933" height="20.3934" filterUnits="userSpaceOnUse" color-interpolation-filters="sRGB">
<feFlood flood-opacity="0" result="BackgroundImageFix"/>
<feBlend mode="normal" in="SourceGraphic" in2="BackgroundImageFix" result="shape"/>
<feColorMatrix in="SourceAlpha" type="matrix" values="0 0 0 0 0 0 0 0 0 0 0 0 0 0 0 0 0 0 127 0" result="hardAlpha"/>
<feOffset dx="-0.793333" dy="0.793333"/>
<feGaussianBlur stdDeviation="0.793333"/>
<feComposite in2="hardAlpha" operator="arithmetic" k2="-1" k3="1"/>
<feColorMatrix type="matrix" values="0 0 0 0 0.901961 0 0 0 0 0.964706 0 0 0 0 0.972549 0 0 0 0.16 0"/>
<feBlend mode="normal" in2="shape" result="effect1_innerShadow_646_12410"/>
</filter>
<filter id="filter2_d_646_12410" x="-132.388" y="-114.1" width="289.8" height="281.75" filterUnits="userSpaceOnUse" color-interpolation-filters="sRGB">
<feFlood flood-opacity="0" result="BackgroundImageFix"/>
<feColorMatrix in="SourceAlpha" type="matrix" values="0 0 0 0 0 0 0 0 0 0 0 0 0 0 0 0 0 0 127 0" result="hardAlpha"/>
<feOffset dy="16.8"/>
<feGaussianBlur stdDeviation="70"/>
<feColorMatrix type="matrix" values="0 0 0 0 1 0 0 0 0 1 0 0 0 0 1 0 0 0 0.8 0"/>
<feBlend mode="normal" in2="BackgroundImageFix" result="effect1_dropShadow_646_12410"/>
<feBlend mode="normal" in="SourceGraphic" in2="effect1_dropShadow_646_12410" result="shape"/>
</filter>
<clipPath id="bgblur_1_646_12410_clip_path" transform="translate(132.388 114.1)"><rect x="7.61249" y="9.1001" width="9.8" height="1.75" rx="0.875"/>
</clipPath><filter id="filter3_d_646_12410" x="-132.388" y="-110.6" width="292.6" height="281.75" filterUnits="userSpaceOnUse" color-interpolation-filters="sRGB">
<feFlood flood-opacity="0" result="BackgroundImageFix"/>
<feColorMatrix in="SourceAlpha" type="matrix" values="0 0 0 0 0 0 0 0 0 0 0 0 0 0 0 0 0 0 127 0" result="hardAlpha"/>
<feOffset dy="16.8"/>
<feGaussianBlur stdDeviation="70"/>
<feColorMatrix type="matrix" values="0 0 0 0 1 0 0 0 0 1 0 0 0 0 1 0 0 0 0.8 0"/>
<feBlend mode="normal" in2="BackgroundImageFix" result="effect1_dropShadow_646_12410"/>
<feBlend mode="normal" in="SourceGraphic" in2="effect1_dropShadow_646_12410" result="shape"/>
</filter>
<clipPath id="bgblur_2_646_12410_clip_path" transform="translate(132.388 110.6)"><rect x="7.61249" y="12.6001" width="12.6" height="1.75" rx="0.875"/>
</clipPath><filter id="filter4_d_646_12410" x="-132.388" y="-107.1" width="288.4" height="281.75" filterUnits="userSpaceOnUse" color-interpolation-filters="sRGB">
<feFlood flood-opacity="0" result="BackgroundImageFix"/>
<feColorMatrix in="SourceAlpha" type="matrix" values="0 0 0 0 0 0 0 0 0 0 0 0 0 0 0 0 0 0 127 0" result="hardAlpha"/>
<feOffset dy="16.8"/>
<feGaussianBlur stdDeviation="70"/>
<feColorMatrix type="matrix" values="0 0 0 0 1 0 0 0 0 1 0 0 0 0 1 0 0 0 0.8 0"/>
<feBlend mode="normal" in2="BackgroundImageFix" result="effect1_dropShadow_646_12410"/>
<feBlend mode="normal" in="SourceGraphic" in2="effect1_dropShadow_646_12410" result="shape"/>
</filter>
<clipPath id="bgblur_3_646_12410_clip_path" transform="translate(132.388 107.1)"><rect x="7.61249" y="16.1001" width="8.4" height="1.75" rx="0.875"/>
</clipPath><filter id="filter5_d_646_12410" x="-132.388" y="-103.6" width="285.6" height="281.75" filterUnits="userSpaceOnUse" color-interpolation-filters="sRGB">
<feFlood flood-opacity="0" result="BackgroundImageFix"/>
<feColorMatrix in="SourceAlpha" type="matrix" values="0 0 0 0 0 0 0 0 0 0 0 0 0 0 0 0 0 0 127 0" result="hardAlpha"/>
<feOffset dy="16.8"/>
<feGaussianBlur stdDeviation="70"/>
<feColorMatrix type="matrix" values="0 0 0 0 1 0 0 0 0 1 0 0 0 0 1 0 0 0 0.8 0"/>
<feBlend mode="normal" in2="BackgroundImageFix" result="effect1_dropShadow_646_12410"/>
<feBlend mode="normal" in="SourceGraphic" in2="effect1_dropShadow_646_12410" result="shape"/>
</filter>
<clipPath id="bgblur_4_646_12410_clip_path" transform="translate(132.388 103.6)"><rect x="7.61249" y="19.6001" width="5.6" height="1.75" rx="0.875"/>
</clipPath><filter id="filter6_d_646_12410" x="-123.287" y="-103.6" width="285.6" height="284.9" filterUnits="userSpaceOnUse" color-interpolation-filters="sRGB">
<feFlood flood-opacity="0" result="BackgroundImageFix"/>
<feColorMatrix in="SourceAlpha" type="matrix" values="0 0 0 0 0 0 0 0 0 0 0 0 0 0 0 0 0 0 127 0" result="hardAlpha"/>
<feOffset dy="16.8"/>
<feGaussianBlur stdDeviation="70"/>
<feColorMatrix type="matrix" values="0 0 0 0 1 0 0 0 0 1 0 0 0 0 1 0 0 0 0.8 0"/>
<feBlend mode="normal" in2="BackgroundImageFix" result="effect1_dropShadow_646_12410"/>
<feBlend mode="normal" in="SourceGraphic" in2="effect1_dropShadow_646_12410" result="shape"/>
</filter>
<clipPath id="bgblur_5_646_12410_clip_path" transform="translate(123.287 103.6)"><path d="M16.7125 21.0001C16.7125 20.2269 17.3393 19.6001 18.1125 19.6001H22.3125L19.5125 22.0501L16.7125 24.5001V21.0001Z"/>
</clipPath><linearGradient id="paint0_linear_646_12410" x1="17.9618" y1="-0.534407" x2="-0.45299" y2="11.8489" gradientUnits="userSpaceOnUse">
<stop stop-color="#003138" stop-opacity="0.2"/>
<stop offset="0.161064" stop-color="#003138" stop-opacity="0"/>
<stop offset="1" stop-color="#003138"/>
</linearGradient>
<linearGradient id="paint1_linear_646_12410" x1="14.2146" y1="3.5" x2="14.2146" y2="5.19349" gradientUnits="userSpaceOnUse">
<stop stop-color="white"/>
<stop offset="1" stop-color="white" stop-opacity="0.12"/>
</linearGradient>
<linearGradient id="paint2_linear_646_12410" x1="21.2625" y1="5.55324" x2="2.58313" y2="20.3119" gradientUnits="userSpaceOnUse">
<stop stop-color="#003138" stop-opacity="0.2"/>
<stop offset="0.161064" stop-color="#003138" stop-opacity="0"/>
<stop offset="1" stop-color="#003138"/>
</linearGradient>
<linearGradient id="paint3_linear_646_12410" x1="12.5125" y1="9.1001" x2="12.5125" y2="10.8501" gradientUnits="userSpaceOnUse">
<stop stop-color="white"/>
<stop offset="1" stop-color="white" stop-opacity="0.12"/>
</linearGradient>
<linearGradient id="paint4_linear_646_12410" x1="13.9125" y1="12.6001" x2="13.9125" y2="14.3501" gradientUnits="userSpaceOnUse">
<stop stop-color="white"/>
<stop offset="1" stop-color="white" stop-opacity="0.12"/>
</linearGradient>
<linearGradient id="paint5_linear_646_12410" x1="11.8125" y1="16.1001" x2="11.8125" y2="17.8501" gradientUnits="userSpaceOnUse">
<stop stop-color="white"/>
<stop offset="1" stop-color="white" stop-opacity="0.12"/>
</linearGradient>
<linearGradient id="paint6_linear_646_12410" x1="10.4125" y1="19.6001" x2="10.4125" y2="21.3501" gradientUnits="userSpaceOnUse">
<stop stop-color="white"/>
<stop offset="1" stop-color="white" stop-opacity="0.12"/>
</linearGradient>
<linearGradient id="paint7_linear_646_12410" x1="16.7724" y1="21.1602" x2="19.12" y2="26.037" gradientUnits="userSpaceOnUse">
<stop stop-color="white"/>
<stop offset="1" stop-color="white" stop-opacity="0.19"/>
</linearGradient>
<linearGradient id="paint8_linear_646_12410" x1="19.5125" y1="19.6001" x2="19.5125" y2="24.5001" gradientUnits="userSpaceOnUse">
<stop stop-color="white"/>
<stop offset="1" stop-color="white" stop-opacity="0.12"/>
</linearGradient>
<clipPath id="clip0_646_12410">
<rect width="28" height="28" fill="white"/>
</clipPath>
</defs>
</svg>
