<svg width="24" height="24" viewBox="0 0 24 24" fill="none" xmlns="http://www.w3.org/2000/svg">
<path d="M16.0825 15.554L17.2254 14.4292C17.404 14.2534 17.7147 14.3764 17.7147 14.6295V19.7405C17.7147 20.672 16.9468 21.4277 16.0004 21.4277H3.42868C2.48223 21.4277 1.71436 20.672 1.71436 19.7405V7.36729C1.71436 6.43579 2.48223 5.68004 3.42868 5.68004H13.1967C13.4503 5.68004 13.5789 5.98234 13.4003 6.16161L12.2574 7.28645C12.2039 7.33917 12.1324 7.36729 12.0539 7.36729H3.42868V19.7405H16.0004V15.7508C16.0004 15.677 16.0289 15.6067 16.0825 15.554ZM21.6755 8.46049L12.2967 17.6912L9.06809 18.0427C8.13235 18.1446 7.33591 17.3678 7.43948 16.4398L7.79663 13.2621L17.1754 4.03145C17.9933 3.22649 19.3147 3.22649 20.129 4.03145L21.6719 5.54998C22.4898 6.35494 22.4898 7.65905 21.6755 8.46049ZM18.1469 9.54666L16.0718 7.50438L9.43595 14.039L9.17523 16.3343L11.5074 16.0777L18.1469 9.54666ZM20.4612 6.74512L18.9183 5.22659C18.7719 5.08247 18.5326 5.08247 18.3897 5.22659L17.2861 6.31276L19.3612 8.35504L20.4648 7.26887C20.6076 7.12124 20.6076 6.88924 20.4612 6.74512Z" fill="#00A2B9"/>
</svg>
