<svg width="42" height="52" viewBox="0 0 42 52" fill="none" xmlns="http://www.w3.org/2000/svg">
<path d="M7.00065 2.66666H26.834L39.6673 15.5V29L33.5 23L26.834 29L21 23L15 29L9 23L2.33398 28.25V7.33332C2.33398 6.09565 2.82565 4.90866 3.70082 4.03349C4.57599 3.15832 5.76297 2.66666 7.00065 2.66666Z" stroke="#BDBDBD" stroke-width="4" stroke-linecap="round" stroke-linejoin="round"/>
<path d="M3.70082 47.9665C2.82565 47.0913 2.33398 45.9043 2.33398 44.6667V40.5L9 34.5L15 40.5L21 34.5L26.834 40.5L33.5 34.5L39.6673 40.5V44.6667C39.6673 45.9043 39.1756 47.0913 38.3005 47.9665C37.4253 48.8417 36.2383 49.3333 35.0006 49.3333H7.00065C5.76297 49.3333 4.57599 48.8417 3.70082 47.9665Z" stroke="#BDBDBD" stroke-width="4" stroke-linecap="round" stroke-linejoin="round"/>
<path d="M25.668 2.66666V16.6667H39.668" stroke="#BDBDBD" stroke-width="4" stroke-linecap="round" stroke-linejoin="round"/>
</svg>
