<svg width="24" height="24" viewBox="0 0 24 24" fill="none" xmlns="http://www.w3.org/2000/svg">
<path d="M19.2222 3H6.77778C5.79594 3 5 3.6467 5 4.44444V14.5556C5 15.3533 5.79594 16 6.77778 16H19.2222C20.2041 16 21 15.3533 21 14.5556V4.44444C21 3.6467 20.2041 3 19.2222 3Z" stroke="#25262B" stroke-width="1.5" stroke-linecap="round" stroke-linejoin="round"/>
<path d="M17.2222 3H4.77778C3.79594 3 3 3.89543 3 5V19C3 20.1046 3.79594 21 4.77778 21H17.2222C18.2041 21 19 20.1046 19 19V5C19 3.89543 18.2041 3 17.2222 3Z" fill="white" stroke="#25262B" stroke-width="1.5" stroke-linecap="round" stroke-linejoin="round"/>
<path d="M7 11H15" stroke="#25262B" stroke-width="1.5" stroke-linecap="round" stroke-linejoin="round"/>
<path d="M7 7H15" stroke="#25262B" stroke-width="1.5" stroke-linecap="round" stroke-linejoin="round"/>
<path d="M7 15H15" stroke="#25262B" stroke-width="1.5" stroke-linecap="round" stroke-linejoin="round"/>
</svg>
