<svg width="31" height="25" viewBox="0 0 31 25" fill="none" xmlns="http://www.w3.org/2000/svg">
<path d="M6.02539 2.67703C6.02539 2.26813 6.27434 1.90042 6.654 1.74856L10.4521 0.229333C10.8035 0.0887644 11.2041 0.158777 11.504 0.389657C12.2599 0.971568 13.773 2 15.0254 2C16.2778 2 17.7909 0.971568 18.5468 0.389658C18.8467 0.158777 19.2473 0.0887643 19.5987 0.229333L23.3968 1.74856C23.7764 1.90042 24.0254 2.26813 24.0254 2.67703V24C24.0254 24.5523 23.5777 25 23.0254 25H7.02539C6.47311 25 6.02539 24.5523 6.02539 24V2.67703Z" fill="#00A2B9"/>
<path d="M6.02539 2.67703C6.02539 2.26813 6.27434 1.90042 6.654 1.74856L10.4521 0.229333C10.8035 0.0887644 11.2041 0.158777 11.504 0.389657C12.2599 0.971568 13.773 2 15.0254 2C16.2778 2 17.7909 0.971568 18.5468 0.389658C18.8467 0.158777 19.2473 0.0887643 19.5987 0.229333L23.3968 1.74856C23.7764 1.90042 24.0254 2.26813 24.0254 2.67703V24C24.0254 24.5523 23.5777 25 23.0254 25H7.02539C6.47311 25 6.02539 24.5523 6.02539 24V2.67703Z" fill="black" fill-opacity="0.2"/>
<path d="M7.10547 1.59766C7.10547 1.59766 6.36507 1.67658 6.08434 2.00058C2.79552 5.79621 1.07374 7.95485 0.148607 9.08557C-1.11417 10.629 6.08434 13.0006 6.08434 13.0006L7.10547 1.59766Z" fill="#F3AF00"/>
<path d="M23.0098 1.59766C23.0098 1.59766 23.7502 1.67658 24.0309 2.00058C27.3197 5.79621 29.0415 7.95485 29.9666 9.08557C31.2294 10.629 24.0309 13.0006 24.0309 13.0006L23.0098 1.59766Z" fill="#F3AF00"/>
<path fill-rule="evenodd" clip-rule="evenodd" d="M10.1523 0.348633L6.654 1.74796C6.27434 1.89982 6.02539 2.26753 6.02539 2.67643V23.9994C6.02539 24.5517 6.47311 24.9994 7.02539 24.9994H23.0254C23.5777 24.9994 24.0254 24.5517 24.0254 23.9994V2.67643C24.0254 2.26753 23.7764 1.89982 23.3968 1.74796L19.8985 0.348633C19.3883 3.01263 17.4002 4.9994 15.0254 4.9994C12.6506 4.9994 10.6624 3.01263 10.1523 0.348633Z" fill="#00A2B9"/>
</svg>
