<svg width="36" height="36" viewBox="0 0 36 36" fill="none" xmlns="http://www.w3.org/2000/svg">
<path d="M30 15.2727C30 24.8182 18 33 18 33C18 33 6 24.8182 6 15.2727C6 12.0178 7.26428 8.89618 9.51472 6.5946C11.7652 4.29302 14.8174 3 18 3C21.1826 3 24.2348 4.29302 26.4853 6.5946C28.7357 8.89618 30 12.0178 30 15.2727Z" fill="white" stroke="#00A2B9" stroke-width="2" stroke-linecap="round" stroke-linejoin="round"/>
<path d="M18 19.5C20.4853 19.5 22.5 17.4853 22.5 15C22.5 12.5147 20.4853 10.5 18 10.5C15.5147 10.5 13.5 12.5147 13.5 15C13.5 17.4853 15.5147 19.5 18 19.5Z" stroke="#00A2B9" stroke-width="2" stroke-linecap="round" stroke-linejoin="round"/>
</svg>
