<svg width="22" height="19" viewBox="0 0 22 19" fill="none" xmlns="http://www.w3.org/2000/svg">
<path d="M15.082 12.5548L16.2249 11.43C16.4035 11.2542 16.7142 11.3773 16.7142 11.6304V16.7413C16.7142 17.6728 15.9463 18.4286 14.9999 18.4286H2.42819C1.48174 18.4286 0.713867 17.6728 0.713867 16.7413V4.36813C0.713867 3.43663 1.48174 2.68088 2.42819 2.68088H12.1963C12.4498 2.68088 12.5784 2.98318 12.3998 3.16245L11.257 4.28729C11.2034 4.34001 11.1319 4.36813 11.0534 4.36813H2.42819V16.7413H14.9999V12.7517C14.9999 12.6779 15.0285 12.6076 15.082 12.5548ZM20.675 5.46133L11.2962 14.692L8.0676 15.0435C7.13186 15.1455 6.33542 14.3686 6.43899 13.4406L6.79614 10.263L16.1749 1.03229C16.9928 0.227334 18.3142 0.227334 19.1285 1.03229L20.6714 2.55082C21.4893 3.35578 21.4893 4.65989 20.675 5.46133ZM17.1464 6.5475L15.0713 4.50522L8.43546 11.0398L8.17474 13.3352L10.5069 13.0786L17.1464 6.5475ZM19.4607 3.74596L17.9178 2.22743C17.7714 2.08331 17.5321 2.08331 17.3892 2.22743L16.2856 3.3136L18.3607 5.35588L19.4643 4.26971C19.6071 4.12208 19.6071 3.89008 19.4607 3.74596Z" fill="#25262B"/>
</svg>
