<svg width="48" height="48" viewBox="0 0 48 48" fill="none" xmlns="http://www.w3.org/2000/svg">
<g clip-path="url(#clip0_538_7)">
<path d="M24 48C37.2548 48 48 37.2548 48 24C48 10.7452 37.2548 0 24 0C10.7452 0 0 10.7452 0 24C0 37.2548 10.7452 48 24 48Z" fill="#00A2B9" fill-opacity="0.14"/>
<path d="M24.0013 37.3307C31.3651 37.3307 37.3347 31.3612 37.3347 23.9974C37.3347 16.6336 31.3651 10.6641 24.0013 10.6641C16.6375 10.6641 10.668 16.6336 10.668 23.9974C10.668 31.3612 16.6375 37.3307 24.0013 37.3307Z" stroke="#00A2B9" stroke-width="2.3" stroke-linecap="round" stroke-linejoin="round"/>
<path d="M22.1009 32V21.0909H25.5739V32H22.1009ZM23.8409 19.8196C23.3532 19.8196 22.9342 19.6586 22.5838 19.3366C22.2334 19.0099 22.0582 18.617 22.0582 18.1577C22.0582 17.7031 22.2334 17.3149 22.5838 16.9929C22.9342 16.6662 23.3532 16.5028 23.8409 16.5028C24.3333 16.5028 24.7524 16.6662 25.098 16.9929C25.4484 17.3149 25.6236 17.7031 25.6236 18.1577C25.6236 18.617 25.4484 19.0099 25.098 19.3366C24.7524 19.6586 24.3333 19.8196 23.8409 19.8196Z" fill="#00A2B9"/>
</g>
<defs>
<clipPath id="clip0_538_7">
<rect width="48" height="48" fill="white"/>
</clipPath>
</defs>
</svg>
