<svg width="120" height="120" viewBox="0 0 120 120" fill="none" xmlns="http://www.w3.org/2000/svg">
<circle cx="60" cy="60" r="60" fill="#EFEFEF"/>
<g clip-path="url(#clip0_329_17543)">
<path d="M86.316 54.468L82.212 42.153C81.6167 40.3604 80.4715 38.8011 78.9393 37.6965C77.4072 36.5919 75.5658 35.9983 73.677 36H46.323C44.4342 35.9983 42.5928 36.5919 41.0607 37.6965C39.5285 38.8011 38.3833 40.3604 37.788 42.153L33.684 54.468C32.5938 54.9254 31.6628 55.6943 31.0075 56.6783C30.3522 57.6623 30.0018 58.8178 30 60V75C30 77.259 31.269 79.206 33.117 80.229C33.078 80.427 33 80.607 33 80.814V87C33 87.7957 33.3161 88.5587 33.8787 89.1213C34.4413 89.6839 35.2044 90 36 90H39C39.7956 90 40.5587 89.6839 41.1213 89.1213C41.6839 88.5587 42 87.7957 42 87V81H78V87C78 87.7957 78.3161 88.5587 78.8787 89.1213C79.4413 89.6839 80.2043 90 81 90H84C84.7957 90 85.5587 89.6839 86.1213 89.1213C86.6839 88.5587 87 87.7957 87 87V80.814C87 80.607 86.922 80.424 86.883 80.229C87.8232 79.7164 88.6085 78.9607 89.1568 78.0409C89.7051 77.1211 89.9963 76.0709 90 75V60C90 57.513 88.476 55.377 86.316 54.468ZM36 75V60H84L84.006 75H36ZM46.323 42H73.674C74.967 42 76.113 42.822 76.521 44.052L79.839 54H40.161L43.476 44.052C43.675 43.4544 44.0572 42.9346 44.5681 42.5663C45.0791 42.198 45.6931 41.9999 46.323 42Z" fill="#BDBDBD"/>
<path d="M43.5 72C45.9853 72 48 69.9853 48 67.5C48 65.0147 45.9853 63 43.5 63C41.0147 63 39 65.0147 39 67.5C39 69.9853 41.0147 72 43.5 72Z" fill="#BDBDBD"/>
<path d="M76.5 72C78.9853 72 81 69.9853 81 67.5C81 65.0147 78.9853 63 76.5 63C74.0147 63 72 65.0147 72 67.5C72 69.9853 74.0147 72 76.5 72Z" fill="#BDBDBD"/>
<circle cx="80" cy="74.2857" r="18.1429" fill="#BDBDBD" stroke="#EFEFEF" stroke-width="3.71429"/>
<path d="M75 69.285L85 79.285" stroke="#EFEFEF" stroke-width="3.71429" stroke-linecap="round" stroke-linejoin="round"/>
<path d="M75 79.285L85 69.285" stroke="#EFEFEF" stroke-width="3.71429" stroke-linecap="round" stroke-linejoin="round"/>
</g>
<defs>
<clipPath id="clip0_329_17543">
<rect width="80" height="80" fill="white" transform="translate(20 20)"/>
</clipPath>
</defs>
</svg>
