<svg width="48" height="48" viewBox="0 0 48 48" fill="none" xmlns="http://www.w3.org/2000/svg">
<g clip-path="url(#clip0_525_2)">
<path d="M24 48C37.2548 48 48 37.2548 48 24C48 10.7452 37.2548 0 24 0C10.7452 0 0 10.7452 0 24C0 37.2548 10.7452 48 24 48Z" fill="#00A2B9" fill-opacity="0.14"/>
<path d="M22.6472 17.9329C22.8439 17.7361 22.9544 17.4693 22.9544 17.1911C22.9544 16.9129 22.8439 16.6461 22.6472 16.4494C22.4504 16.2527 22.1836 16.1422 21.9054 16.1422C21.6272 16.1422 21.3604 16.2527 21.1637 16.4494L18.2052 19.4079L17.3734 18.6494C17.1668 18.4728 16.8995 18.3834 16.6281 18.4002C16.3568 18.4169 16.1026 18.5385 15.9192 18.7393C15.7359 18.9401 15.6377 19.2042 15.6456 19.476C15.6534 19.7478 15.7666 20.0059 15.9612 20.1957L17.5327 21.631C17.7318 21.8122 17.993 21.9099 18.2622 21.9036C18.5314 21.8974 18.7879 21.7877 18.9784 21.5974L22.6451 17.9308L22.6472 17.9329ZM22.6472 26.9256C22.7447 27.0229 22.8221 27.1385 22.8749 27.2658C22.9277 27.3931 22.9549 27.5295 22.9549 27.6673C22.9549 27.8051 22.9277 27.9416 22.8749 28.0688C22.8221 28.1961 22.7447 28.3117 22.6472 28.409L18.9805 32.0757C18.7896 32.2663 18.5326 32.376 18.2629 32.3819C17.9932 32.3877 17.7316 32.2893 17.5327 32.1071L15.9612 30.6719C15.7666 30.4821 15.6534 30.224 15.6456 29.9522C15.6377 29.6804 15.7359 29.4163 15.9192 29.2155C16.1026 29.0147 16.3568 28.8931 16.6281 28.8764C16.8995 28.8596 17.1668 28.949 17.3734 29.1256L18.2052 29.8862L21.1637 26.9256C21.261 26.8281 21.3766 26.7507 21.5039 26.6978C21.6312 26.645 21.7676 26.6178 21.9054 26.6178C22.0432 26.6178 22.1797 26.645 22.307 26.6978C22.4342 26.7507 22.5498 26.8281 22.6472 26.9256ZM26.0959 28.1911C25.8181 28.1911 25.5516 28.3015 25.3551 28.498C25.1587 28.6944 25.0483 28.9609 25.0483 29.2388C25.0483 29.5166 25.1587 29.7831 25.3551 29.9795C25.5516 30.176 25.8181 30.2864 26.0959 30.2864H31.334C31.6119 30.2864 31.8783 30.176 32.0748 29.9795C32.2713 29.7831 32.3816 29.5166 32.3816 29.2388C32.3816 28.9609 32.2713 28.6944 32.0748 28.498C31.8783 28.3015 31.6119 28.1911 31.334 28.1911H26.0959ZM25.0483 18.7626C25.0483 18.4847 25.1587 18.2183 25.3551 18.0218C25.5516 17.8253 25.8181 17.7149 26.0959 17.7149H31.334C31.6119 17.7149 31.8783 17.8253 32.0748 18.0218C32.2713 18.2183 32.3816 18.4847 32.3816 18.7626C32.3816 19.0404 32.2713 19.3069 32.0748 19.5033C31.8783 19.6998 31.6119 19.8102 31.334 19.8102H26.0959C25.8181 19.8102 25.5516 19.6998 25.3551 19.5033C25.1587 19.3069 25.0483 19.0404 25.0483 18.7626ZM15.6197 9.33398C13.9526 9.33398 12.3539 9.99622 11.1751 11.175C9.99622 12.3538 9.33398 13.9526 9.33398 15.6197V32.3816C9.33398 34.0487 9.99622 35.6475 11.1751 36.8263C12.3539 38.0051 13.9526 38.6673 15.6197 38.6673H32.3816C34.0487 38.6673 35.6475 38.0051 36.8263 36.8263C38.0051 35.6475 38.6673 34.0487 38.6673 32.3816V15.6197C38.6673 13.9526 38.0051 12.3538 36.8263 11.175C35.6475 9.99622 34.0487 9.33398 32.3816 9.33398H15.6197ZM11.4292 15.6197C11.4292 14.5083 11.8707 13.4425 12.6566 12.6566C13.4425 11.8707 14.5083 11.4292 15.6197 11.4292H32.3816C33.493 11.4292 34.5589 11.8707 35.3447 12.6566C36.1306 13.4425 36.5721 14.5083 36.5721 15.6197V32.3816C36.5721 33.493 36.1306 34.5589 35.3447 35.3447C34.5589 36.1306 33.493 36.5721 32.3816 36.5721H15.6197C14.5083 36.5721 13.4425 36.1306 12.6566 35.3447C11.8707 34.5589 11.4292 33.493 11.4292 32.3816V15.6197Z" fill="#00A2B9" fill-opacity="0.607843"/>
</g>
<defs>
<clipPath id="clip0_525_2">
<rect width="48" height="48" fill="white"/>
</clipPath>
</defs>
</svg>
