<svg width="28" height="29" viewBox="0 0 28 29" fill="none" xmlns="http://www.w3.org/2000/svg">
<path d="M24.2339 12.3487L22.6379 7.55952C22.4064 6.86242 21.9611 6.256 21.3652 5.82645C20.7694 5.39689 20.0533 5.16604 19.3188 5.16669H8.68109C7.94654 5.16604 7.23047 5.39689 6.63462 5.82645C6.03877 6.256 5.59344 6.86242 5.36192 7.55952L3.76592 12.3487C3.34197 12.5266 2.97991 12.8256 2.72507 13.2082C2.47023 13.5909 2.33394 14.0403 2.33325 14.5V20.3334C2.33325 21.2119 2.82675 21.969 3.54542 22.3669C3.53025 22.4439 3.49992 22.5139 3.49992 22.5944V25C3.49992 25.3094 3.62283 25.6062 3.84163 25.825C4.06042 26.0438 4.35717 26.1667 4.66659 26.1667H5.83325C6.14267 26.1667 6.43942 26.0438 6.65821 25.825C6.877 25.6062 6.99992 25.3094 6.99992 25V22.6667H20.9999V25C20.9999 25.3094 21.1228 25.6062 21.3416 25.825C21.5604 26.0438 21.8572 26.1667 22.1666 26.1667H23.3333C23.6427 26.1667 23.9394 26.0438 24.1582 25.825C24.377 25.6062 24.4999 25.3094 24.4999 25V22.5944C24.4999 22.5139 24.4696 22.4427 24.4544 22.3669C24.8201 22.1675 25.1254 21.8736 25.3387 21.5159C25.5519 21.1582 25.6652 20.7498 25.6666 20.3334V14.5C25.6666 13.5329 25.0739 12.7022 24.2339 12.3487ZM4.66659 20.3334V14.5H23.3333L23.3356 20.3334H4.66659ZM8.68109 7.50002H19.3176C19.8204 7.50002 20.2661 7.81969 20.4248 8.29802L21.7151 12.1667H6.28475L7.57392 8.29802C7.65133 8.06561 7.79992 7.86347 7.99864 7.72024C8.19736 7.57701 8.43613 7.49996 8.68109 7.50002Z" fill="#00A2B9"/>
<path d="M7.58325 19.1667C8.54975 19.1667 9.33325 18.3832 9.33325 17.4167C9.33325 16.4502 8.54975 15.6667 7.58325 15.6667C6.61675 15.6667 5.83325 16.4502 5.83325 17.4167C5.83325 18.3832 6.61675 19.1667 7.58325 19.1667Z" fill="#00A2B9"/>
<path d="M20.4167 19.1667C21.3832 19.1667 22.1667 18.3832 22.1667 17.4167C22.1667 16.4502 21.3832 15.6667 20.4167 15.6667C19.4502 15.6667 18.6667 16.4502 18.6667 17.4167C18.6667 18.3832 19.4502 19.1667 20.4167 19.1667Z" fill="#00A2B9"/>
</svg>
