<svg width="24" height="24" viewBox="0 0 24 24" fill="none" xmlns="http://www.w3.org/2000/svg">
<path fill-rule="evenodd" clip-rule="evenodd" d="M2.08579 3.58579C2.46086 3.21071 2.96957 3 3.5 3H20.5C21.0304 3 21.5391 3.21071 21.9142 3.58579C22.2893 3.96086 22.5 4.46957 22.5 5V19C22.5 19.5304 22.2893 20.0391 21.9142 20.4142C21.5391 20.7893 21.0304 21 20.5 21H3.5C2.96957 21 2.46086 20.7893 2.08579 20.4142C1.71071 20.0391 1.5 19.5304 1.5 19V5C1.5 4.46957 1.71071 3.96086 2.08579 3.58579ZM3.5 17.4142V19H20.5V17.4942L13.1438 11.8688L10.7593 14.6508C10.4084 15.0601 9.79627 15.1176 9.37531 14.7809L7.57422 13.34L3.5 17.4142ZM20.5 14.9764V5H3.5V14.5858L6.79289 11.2929C7.1532 10.9326 7.7268 10.9008 8.12469 11.2191L9.86985 12.6153L12.2407 9.84921C12.5861 9.44633 13.1859 9.38331 13.6075 9.70564L20.5 14.9764ZM7.25 8.5C7.38807 8.5 7.5 8.38807 7.5 8.25C7.5 8.11193 7.38807 8 7.25 8C7.11193 8 7 8.11193 7 8.25C7 8.38807 7.11193 8.5 7.25 8.5ZM5.5 8.25C5.5 7.2835 6.2835 6.5 7.25 6.5C8.2165 6.5 9 7.2835 9 8.25C9 9.2165 8.2165 10 7.25 10C6.2835 10 5.5 9.2165 5.5 8.25Z" fill="#666666"/>
</svg>
