<svg width="10" height="12" viewBox="0 0 10 12" fill="none" xmlns="http://www.w3.org/2000/svg">
<path d="M8.33325 4.66667C9.06659 4.66667 9.66659 4.06667 9.66659 3.33333V1.33333C9.66659 0.6 9.06659 0 8.33325 0H1.66659C0.933252 0 0.333252 0.6 0.333252 1.33333V3.33333C0.333252 4.06667 0.933252 4.66667 1.66659 4.66667H2.33325V6H1.66659C0.933252 6 0.333252 6.6 0.333252 7.33333V12H1.66659V10H8.33325V12H9.66659V7.33333C9.66659 6.6 9.06659 6 8.33325 6H7.66659V4.66667H8.33325ZM1.66659 3.33333V1.33333H8.33325V3.33333H1.66659ZM8.33325 8.66667H1.66659V7.33333H8.33325V8.66667ZM6.33325 6H3.66659V4.66667H6.33325V6Z" fill="#00A2B9"/>
</svg>
