<svg width="20" height="32" viewBox="0 0 20 32" fill="none" xmlns="http://www.w3.org/2000/svg">
<path d="M16 2C16.5 2 17 2.2 17.4 2.6C17.8 3 18 3.5 18 4V28C18 28.5 17.8 29 17.4 29.4C17 29.8 16.5 30 16 30H4C3.5 30 3 29.8 2.6 29.4C2.2 29 2 28.5 2 28V4C2 3.5 2.2 3 2.6 2.6C3 2.2 3.5 2 4 2H16Z" fill="#00A2B9"/>
<path d="M14.5 4C14.875 4 15.25 4.12857 15.55 4.38571C15.85 4.64286 16 4.96429 16 5.28571V20.7143C16 21.0357 15.85 21.3571 15.55 21.6143C15.25 21.8714 14.875 22 14.5 22H5.5C5.125 22 4.75 21.8714 4.45 21.6143C4.15 21.3571 4 21.0357 4 20.7143V5.28571C4 4.96429 4.15 4.64286 4.45 4.38571C4.75 4.12857 5.125 4 5.5 4H14.5Z" fill="white"/>
<path d="M10 28C10.5 28 11 27.8 11.4 27.4C11.8 27 12 26.5 12 26C12 25.5 11.8 25 11.4 24.6C11 24.2 10.5 24 10 24C9.5 24 9 24.2 8.6 24.6C8.2 25 8 25.5 8 26C8 26.5 8.2 27 8.6 27.4C9 27.8 9.5 28 10 28Z" fill="#F3AF00"/>
</svg>
