<svg width="24" height="24" viewBox="0 0 24 24" fill="none" xmlns="http://www.w3.org/2000/svg">
<path d="M6.44434 7.55554H15.3332" stroke="#666666" stroke-width="1.5" stroke-linecap="round"/>
<path fill-rule="evenodd" clip-rule="evenodd" d="M12.2652 11.25C11.7355 11.6767 11.2725 12.1827 10.8941 12.75H6.44434C6.03012 12.75 5.69434 12.4142 5.69434 12C5.69434 11.5858 6.03012 11.25 6.44434 11.25H12.2652Z" fill="#666666"/>
<path fill-rule="evenodd" clip-rule="evenodd" d="M5 3.5H16.7778C17.6062 3.5 18.2778 4.17157 18.2778 5V10.033C18.8077 10.1843 19.3107 10.3994 19.7778 10.6697V5C19.7778 3.34315 18.4346 2 16.7778 2H5C3.34315 2 2 3.34315 2 5V16.7778C2 18.4346 3.34315 19.7778 5 19.7778H10.6697C10.3994 19.3107 10.1843 18.8077 10.033 18.2778H5C4.17157 18.2778 3.5 17.6062 3.5 16.7778V5C3.5 4.17157 4.17157 3.5 5 3.5Z" fill="#666666"/>
<path d="M16.4441 21.0741C19.001 21.0741 21.0737 19.0013 21.0737 16.4444C21.0737 13.8876 19.001 11.8148 16.4441 11.8148C13.8872 11.8148 11.8145 13.8876 11.8145 16.4444C11.8145 19.0013 13.8872 21.0741 16.4441 21.0741Z" stroke="#666666" stroke-width="1.5" stroke-linecap="round" stroke-linejoin="round"/>
<path d="M17.648 18.111L16.7156 17.1787C16.542 17.0051 16.4444 16.7696 16.4443 16.524V14.7777" stroke="#666666" stroke-width="1.5" stroke-linecap="round" stroke-linejoin="round"/>
</svg>
