<svg width="28" height="29" viewBox="0 0 28 29" fill="none" xmlns="http://www.w3.org/2000/svg">
<path d="M14.1826 5.38408L13.7633 4.48515L14.1826 5.38408L16.9997 4.06994V24.5V24.754L17.121 24.9773L17.4049 25.5H6.08594C4.42908 25.5 3.08594 24.1569 3.08594 22.5V4.00152L6.44181 5.4035C6.76045 5.53661 7.1231 5.51237 7.42119 5.33803L10.2928 3.65848L13.1623 5.33673L13.6608 4.48436L13.1623 5.33673C13.474 5.51905 13.8554 5.53675 14.1826 5.38408Z" stroke="#00A2B9" stroke-width="2"/>
<path d="M17 23.5V14.5H21.382L21.1056 15.0528L21 15.2639V15.5V19V23.5C21 24.6046 20.1046 25.5 19 25.5C17.8954 25.5 17 24.6046 17 23.5Z" stroke="#00A2B9" stroke-width="2"/>
<path d="M21 16.5C21 15.3954 21.8954 14.5 23 14.5C24.1046 14.5 25 15.3954 25 16.5V21.5H21V16.5Z" stroke="#00A2B9" stroke-width="2"/>
<rect x="6" y="19" width="8" height="2" rx="1" fill="#00A2B9"/>
<rect x="6" y="14" width="8" height="2" rx="1" fill="#00A2B9"/>
<rect x="6" y="9" width="6" height="2" rx="1" fill="#00A2B9"/>
</svg>
