<svg width="28" height="29" viewBox="0 0 28 29" fill="none" xmlns="http://www.w3.org/2000/svg">
<path d="M22.8142 11.9085L23.1071 11.6156C23.4219 11.3008 23.6709 10.9198 23.851 10.4596C23.9811 10.1259 24.0045 9.71685 23.8399 9.18164L22.6987 5.4864C22.6007 5.19675 22.4615 4.98385 22.2891 4.82226L22.4783 5.42593L23.6191 9.06571C23.8557 9.76 23.7134 10.4458 23.3761 11.0427C22.9423 11.8102 22.2052 12.1777 21.3605 12.1777C20.763 12.1777 20.2311 11.951 19.808 11.5431M22.8142 11.9085L22.2237 4.76473C22.2068 4.75085 22.1898 4.73761 22.1725 4.72501M22.8142 11.9085V12.3227V20.9925C22.8142 21.325 22.7076 21.585 22.4669 21.8263C22.2256 22.067 21.9656 22.1735 21.6331 22.1735H6.36563C6.0329 22.1735 5.77344 22.0668 5.5329 21.8263C5.29127 21.5847 5.18456 21.3247 5.18456 20.9925V12.3227V11.8817L4.85883 11.5843C4.57144 11.3219 4.33129 10.9693 4.1526 10.4968L4.15223 10.4958C4.01557 10.1356 3.9955 9.71286 4.15871 9.18214L4.15855 9.18263L3.2031 8.88756L4.15886 9.18164L5.30361 5.47482L5.30392 5.47383C5.372 5.25255 5.47571 5.06988 5.61836 4.91497M22.8142 11.9085L22.2555 4.72501H22.1725M19.808 11.5431L20.5022 10.8233L19.8091 11.5441C19.8087 11.5437 19.8084 11.5434 19.808 11.5431ZM19.808 11.5431C19.3911 11.1417 19.1473 10.635 19.0629 10.0719L19.0618 10.065L19.0619 10.065L18.4621 5.86643L18.299 4.72501H19.452H21.524H22.1725M22.1725 4.72501C22.0085 4.60574 21.8219 4.54395 21.5786 4.54395H6.42015C6.1895 4.54395 6.00289 4.60266 5.83159 4.72501M5.83159 4.72501H5.72135H5.72018H5.67506L5.61836 4.91497M5.83159 4.72501C5.80894 4.74118 5.78657 4.75847 5.76439 4.77687L5.76366 4.77749C5.71135 4.82082 5.66295 4.86654 5.61836 4.91497M5.83159 4.72501H6.42015H8.54669H9.6997L9.53664 5.86643L8.93685 10.065L8.93586 10.0719L8.93584 10.0719C8.85134 10.6352 8.6074 11.1421 8.19015 11.5436M5.61836 4.91497L5.46193 5.43898L4.37179 9.09095L5.32962 9.3783M5.12569 4.00742C5.49793 3.69844 5.92941 3.54395 6.42015 3.54395H21.5786C22.0693 3.54395 22.4964 3.69371 22.8599 3.99325C23.2235 4.29351 23.487 4.68901 23.6506 5.17975L5.12569 4.00742ZM5.12569 4.00742C4.75273 4.31641 4.49354 4.70718 4.34814 5.17975L3.20308 8.88756C2.98497 9.59641 2.9897 10.2507 3.21726 10.8505L5.12569 4.00742ZM8.19015 11.5436C8.19033 11.5434 8.19051 11.5432 8.19069 11.5431L7.49651 10.8233M8.19015 11.5436C8.18997 11.5437 8.1898 11.5439 8.18962 11.5441L7.49651 10.8233M8.19015 11.5436C7.7672 11.9512 7.23549 12.1777 6.63826 12.1777C6.24251 12.1777 5.84188 12.0987 5.47538 11.8957C5.10349 11.6897 4.82291 11.3868 4.62798 11.0287L4.62734 11.0275C4.30758 10.4382 4.16801 9.771 4.37158 9.09166L4.3714 9.09226L5.32962 9.3783M7.49651 10.8233C7.74224 10.587 7.89237 10.2871 7.9469 9.92357L8.40384 6.72501H8.54669V5.72501L7.55674 5.58359L7.53654 5.72501H6.42015L5.32962 9.3783M7.49651 10.8233C7.2515 11.0595 6.96542 11.1777 6.63826 11.1777C6.11117 11.1777 5.73384 10.9687 5.50629 10.5506C5.27946 10.1326 5.22057 9.74181 5.32962 9.3783M19.452 5.72501L20.442 5.58359L20.4622 5.72501H19.452ZM19.452 5.72501V6.72501H19.5949L19.452 5.72501ZM18.8061 9.39957L18.8078 9.41254C18.8963 10.0907 18.7267 10.7309 18.3137 11.2762L18.8061 9.39957ZM18.8061 9.39957L18.8041 9.38664M18.8061 9.39957L18.8041 9.38664M18.8041 9.38664L18.2043 5.56977L18.0716 4.72501M18.8041 9.38664L18.0716 4.72501M18.0716 4.72501H17.2164M18.0716 4.72501H17.2164M17.2164 4.72501H15.0899H14.0899M17.2164 4.72501H14.0899M14.0899 4.72501V5.72501M14.0899 4.72501V5.72501M14.0899 5.72501V9.75999C14.0899 10.3878 14.308 10.9587 14.729 11.4255L14.7299 11.4264M14.0899 5.72501L14.7299 11.4264M14.7299 11.4264C15.1646 11.907 15.7387 12.1777 16.3985 12.1777C17.1445 12.1777 17.8376 11.9055 18.3134 11.2766L14.7299 11.4264ZM13.2434 11.4398L13.2452 11.4378C13.6791 10.9728 13.9088 10.3979 13.9088 9.75999V5.72501V4.72501H12.9088H10.7823H9.92716L9.79441 5.56977L9.19527 9.38251C9.08002 10.0817 9.23844 10.7535 9.69055 11.3143C10.1425 11.8758 10.7689 12.1777 11.4911 12.1777C12.1597 12.1777 12.7735 11.9407 13.2434 11.4398Z" stroke="#00A2B9" stroke-width="2"/>
<path d="M12 16H16C16.5523 16 17 16.4477 17 17V22H11V17C11 16.4477 11.4477 16 12 16Z" stroke="#00A2B9" stroke-width="2"/>
</svg>
