<svg width="24" height="24" viewBox="0 0 24 24" fill="none" xmlns="http://www.w3.org/2000/svg">
<line x1="7.64987" y1="4.41666" x2="7.64987" y2="20.4167" stroke="#666666" stroke-width="1.5" stroke-linecap="round" stroke-linejoin="round"/>
<path d="M10.3498 10.0029C10.3498 11.4257 9.20412 12.5718 7.79991 12.5718C6.3957 12.5718 5.25 11.4257 5.25 10.0029C5.25 8.57998 6.3957 7.4339 7.79991 7.4339C9.20412 7.4339 10.3498 8.57998 10.3498 10.0029Z" fill="white" stroke="#666666" stroke-width="1.5"/>
<line x1="16.3498" y1="20.4167" x2="16.3498" y2="4.41666" stroke="#666666" stroke-width="1.5" stroke-linecap="round" stroke-linejoin="round"/>
<path d="M13.6502 14.8305C13.6502 13.4076 14.7959 12.2615 16.2001 12.2615C17.6043 12.2615 18.75 13.4076 18.75 14.8305C18.75 16.2533 17.6043 17.3994 16.2001 17.3994C14.7959 17.3994 13.6502 16.2533 13.6502 14.8305Z" fill="white" stroke="#666666" stroke-width="1.5"/>
</svg>
