<svg width="149" height="130" viewBox="0 0 149 130" fill="none" xmlns="http://www.w3.org/2000/svg">
<g clip-path="url(#clip0_8114_29358)">
<g opacity="0.1">
<path fill-rule="evenodd" clip-rule="evenodd" d="M149.795 3V254.585L51.9077 257.371L93.1599 139.473C85.5752 138.251 78.5715 135.293 72.5698 131.021C69.2827 147.579 54.6654 160.062 37.1306 160.062C17.1762 160.062 1 143.897 1 123.956C1 104.015 17.1762 87.8497 37.1306 87.8497C42.3952 87.8497 47.3968 88.9749 51.9077 90.9978C51.9077 63.8782 73.9076 41.8934 101.046 41.8934C104.285 41.8934 107.451 42.2066 110.516 42.8045C115.337 23.4041 130.487 8.08064 149.795 3Z" fill="white"/>
</g>
<g opacity="0.1">
<path fill-rule="evenodd" clip-rule="evenodd" d="M149.795 53.7891V276.643L57.9193 279.245L94.485 175.235C87.7619 174.157 81.554 171.548 76.234 167.779C73.3204 182.387 60.3637 193.399 44.8209 193.399C27.1334 193.399 12.7949 179.138 12.7949 161.546C12.7949 143.954 27.1334 129.693 44.8209 129.693C49.4874 129.693 53.9208 130.685 57.9193 132.47C57.9193 108.545 77.4199 89.1497 101.475 89.1497C104.346 89.1497 107.153 89.4261 109.869 89.9536C114.559 71.1688 130.278 56.7167 149.795 53.7891Z" fill="white"/>
</g>
</g>
<defs>
<clipPath id="clip0_8114_29358">
<rect width="149" height="130" fill="white"/>
</clipPath>
</defs>
</svg>
