<svg width="32" height="32" viewBox="0 0 32 32" fill="none" xmlns="http://www.w3.org/2000/svg">
<g clip-path="url(#clip0_17689_163706)">
<path fill-rule="evenodd" clip-rule="evenodd" d="M20.526 10.9297L20.349 12.7626H15.0365L15.1862 14.0026C15.1244 14.0009 15.0623 14 15 14C14.8281 14 14.6579 14.0066 14.4897 14.0196C14.1506 13.6374 13.7634 13.2988 13.3377 13.0133L13.0885 10.9297H20.526ZM14.7705 24.996C14.8466 24.9987 14.9231 25 15 25C15.137 25 15.273 24.9958 15.4078 24.9875L14.9209 26.2538L14.7705 24.996ZM20.8239 18.1719H23.0082C23.0082 24.4656 19.8339 26.7654 18.2219 27.9333L18.2219 27.9333C17.9129 28.1571 17.6614 28.3394 17.5005 28.5002C16.725 29.2757 16.9899 30.9354 17.0002 30.9984C17.0244 30.9995 17.0487 31 17.0729 31H25.2188C25.6615 31 26.0156 30.8167 26.3698 30.5418C26.724 30.2668 26.901 29.9003 26.9896 29.442L29.2031 10.9297H24.0677L23.8906 12.7626H27.1667L26.724 16.4284H19.9779C20.3634 16.9524 20.6531 17.5406 20.8239 18.1719Z" fill="#00A2B9"/>
<path d="M21.7762 16.4045L22.2083 12.2982L22.3854 10.4737L22.9167 6.00351L23.0052 5H30V6.82456H24.599L23.4917 16.4045H21.7762Z" fill="#F3AF00"/>
</g>
<g clip-path="url(#clip1_17689_163706)">
<path d="M15.4757 15C16.0118 15 16.548 15.09 17.0842 15.36C17.531 15.63 17.9778 15.99 18.3352 16.35C18.6927 16.8 18.8714 17.25 19.0501 17.79C19.1395 18.33 19.1395 18.87 19.0501 19.41H17.1735C17.3523 19.14 17.4416 18.78 17.4416 18.42C17.4416 18.06 17.2629 17.7 17.0842 17.43C16.9055 17.16 16.548 16.89 16.2799 16.8C15.7438 16.8 15.3863 16.8 15.0289 16.89C14.8501 16.35 14.5821 15.72 14.2246 15.27C14.6714 15.09 15.0289 15 15.4757 15Z" fill="#F3AF00"/>
<path d="M5.37903 14.8C6.54073 13.63 8.14924 13 9.84712 13C11.545 13 13.0641 13.63 14.3152 14.8C15.4769 15.97 16.1024 17.59 16.1024 19.3H14.3152C14.3152 18.13 13.8684 16.96 12.9748 16.15C12.1705 15.25 11.0088 14.8 9.84712 14.8C8.68541 14.8 7.52371 15.25 6.71946 16.15C5.82584 16.96 5.37903 18.13 5.37903 19.3H3.5918C3.5918 17.59 4.21733 16.06 5.37903 14.8Z" fill="#F3AF00"/>
<path d="M12.5277 19.2996H7.16602C7.16602 18.5796 7.4341 17.8596 7.97027 17.4096C8.41708 16.8696 9.13197 16.5996 9.84687 16.5996C10.5618 16.5996 11.2767 16.8696 11.7235 17.4096C12.2596 17.8596 12.5277 18.5796 12.5277 19.2996Z" fill="#F3AF00"/>
<path d="M1 19.2998C1.71489 23.8898 3.50213 26.4998 6.3617 27.3998L6.98723 29.1998V30.0998C6.98723 30.3698 7.0766 30.5498 7.25532 30.7298C7.43404 30.9098 7.70213 30.9998 7.88085 30.9998H15.0298C15.2979 30.9998 15.4766 30.9098 15.6553 30.7298C15.834 30.5498 15.9234 30.3698 15.9234 30.0998V29.1998L16.5489 27.3998C19.4085 26.4998 21.1957 23.8898 21.9106 19.2998H1Z" fill="#00A2B9"/>
</g>
<defs>
<clipPath id="clip0_17689_163706">
<rect width="17" height="26" fill="white" transform="matrix(-1 0 0 1 30 5)"/>
</clipPath>
<clipPath id="clip1_17689_163706">
<rect width="21" height="18" fill="white" transform="translate(1 13)"/>
</clipPath>
</defs>
</svg>
