<svg width="25" height="24" viewBox="0 0 25 24" fill="none" xmlns="http://www.w3.org/2000/svg">
<path d="M20.8423 12.6614C20.682 12.4789 20.5935 12.2443 20.5935 12.0014C20.5935 11.7585 20.682 11.5238 20.8423 11.3414L22.1223 9.90136C22.2633 9.74403 22.3509 9.54606 22.3725 9.33587C22.394 9.12567 22.3485 8.91405 22.2423 8.73136L20.2423 5.27136C20.1372 5.08888 19.9772 4.94424 19.785 4.85805C19.5929 4.77186 19.3785 4.74852 19.1723 4.79136L17.2923 5.17136C17.0531 5.22079 16.804 5.18095 16.5922 5.05936C16.3803 4.93777 16.2203 4.74284 16.1423 4.51136L15.5323 2.68136C15.4652 2.48274 15.3374 2.31022 15.1669 2.1882C14.9964 2.06618 14.7919 2.00082 14.5823 2.00136H10.5823C10.3642 1.98998 10.1484 2.05029 9.96784 2.17307C9.78727 2.29586 9.65186 2.47438 9.58228 2.68136L9.02228 4.51136C8.94428 4.74284 8.78425 4.93777 8.57239 5.05936C8.36053 5.18095 8.1115 5.22079 7.87228 5.17136L5.94228 4.79136C5.74683 4.76374 5.54758 4.79458 5.36963 4.88C5.19167 4.96542 5.04298 5.10159 4.94228 5.27136L2.94228 8.73136C2.83344 8.91201 2.7845 9.12245 2.80246 9.33258C2.82042 9.54272 2.90436 9.7418 3.04228 9.90136L4.31228 11.3414C4.4726 11.5238 4.56101 11.7585 4.56101 12.0014C4.56101 12.2443 4.4726 12.4789 4.31228 12.6614L3.04228 14.1014C2.90436 14.2609 2.82042 14.46 2.80246 14.6701C2.7845 14.8803 2.83344 15.0907 2.94228 15.2714L4.94228 18.7314C5.04738 18.9138 5.2074 19.0585 5.39953 19.1447C5.59166 19.2309 5.8061 19.2542 6.01228 19.2114L7.89228 18.8314C8.1315 18.7819 8.38053 18.8218 8.59239 18.9434C8.80425 19.0649 8.96428 19.2599 9.04228 19.4914L9.65228 21.3214C9.72186 21.5283 9.85727 21.7069 10.0378 21.8296C10.2184 21.9524 10.4342 22.0127 10.6523 22.0014H14.6523C14.8619 22.0019 15.0664 21.9365 15.2369 21.8145C15.4074 21.6925 15.5352 21.52 15.6023 21.3214L16.2123 19.4914C16.2903 19.2599 16.4503 19.0649 16.6622 18.9434C16.874 18.8218 17.1231 18.7819 17.3623 18.8314L19.2423 19.2114C19.4485 19.2542 19.6629 19.2309 19.855 19.1447C20.0472 19.0585 20.2072 18.9138 20.3123 18.7314L22.3123 15.2714C22.4185 15.0887 22.464 14.877 22.4425 14.6669C22.4209 14.4567 22.3333 14.2587 22.1923 14.1014L20.8423 12.6614ZM19.3523 14.0014L20.1523 14.9014L18.8723 17.1214L17.6923 16.8814C16.9721 16.7341 16.2229 16.8565 15.5869 17.2252C14.9509 17.5938 14.4724 18.1832 14.2423 18.8814L13.8623 20.0014H11.3023L10.9423 18.8614C10.7121 18.1632 10.2337 17.5738 9.59768 17.2052C8.96171 16.8365 8.2125 16.7141 7.49228 16.8614L6.31228 17.1014L5.01228 14.8914L5.81228 13.9914C6.30423 13.4413 6.57621 12.7293 6.57621 11.9914C6.57621 11.2534 6.30423 10.5414 5.81228 9.99136L5.01228 9.09136L6.29228 6.89136L7.47228 7.13136C8.1925 7.27858 8.94171 7.15624 9.57768 6.78756C10.2137 6.41888 10.6921 5.82952 10.9223 5.13136L11.3023 4.00136H13.8623L14.2423 5.14136C14.4724 5.83952 14.9509 6.42888 15.5869 6.79756C16.2229 7.16624 16.9721 7.28858 17.6923 7.14136L18.8723 6.90136L20.1523 9.12136L19.3523 10.0214C18.8658 10.5701 18.5973 11.278 18.5973 12.0114C18.5973 12.7447 18.8658 13.4526 19.3523 14.0014ZM12.5823 8.00136C11.7912 8.00136 11.0178 8.23596 10.36 8.67548C9.7022 9.11501 9.18951 9.73972 8.88676 10.4706C8.58401 11.2015 8.5048 12.0058 8.65914 12.7817C8.81348 13.5576 9.19444 14.2704 9.75385 14.8298C10.3133 15.3892 11.026 15.7702 11.8019 15.9245C12.5778 16.0788 13.3821 15.9996 14.113 15.6969C14.8439 15.3941 15.4686 14.8814 15.9082 14.2236C16.3477 13.5658 16.5823 12.7925 16.5823 12.0014C16.5823 10.9405 16.1609 9.92308 15.4107 9.17293C14.6606 8.42279 13.6431 8.00136 12.5823 8.00136ZM12.5823 14.0014C12.1867 14.0014 11.8 13.8841 11.4711 13.6643C11.1422 13.4445 10.8859 13.1322 10.7345 12.7667C10.5831 12.4013 10.5435 11.9991 10.6207 11.6112C10.6979 11.2232 10.8884 10.8669 11.1681 10.5871C11.4478 10.3074 11.8041 10.117 12.1921 10.0398C12.5801 9.96262 12.9822 10.0022 13.3476 10.1536C13.7131 10.305 14.0255 10.5613 14.2452 10.8902C14.465 11.2191 14.5823 11.6058 14.5823 12.0014C14.5823 12.5318 14.3716 13.0405 13.9965 13.4156C13.6214 13.7906 13.1127 14.0014 12.5823 14.0014Z" fill="#666666"/>
</svg>
