<svg width="28" height="28" viewBox="0 0 28 28" fill="none" xmlns="http://www.w3.org/2000/svg">
<path d="M6.36759 10.0707C4.83211 11.7416 6.32243 13.6836 6.68372 13.9997C7.28502 14.5258 12.645 19.69 12.645 19.69C13.4128 20.4126 14.9934 20.3674 15.6708 19.69C15.6708 19.69 21.9031 13.5481 22.2192 13.2319C22.3095 13.1416 23.2579 11.1997 21.9031 9.84485C20.4579 8.39968 18.5611 9.34807 18.3353 9.57388C17.9775 9.93174 14.4966 13.8727 13.3676 14.2255C11.9224 14.6771 11.0192 13.0513 11.0192 13.0513C11.0192 13.0513 11.2857 11.3556 10.7482 10.5223C9.94365 9.27473 7.75219 8.56388 6.36759 10.0707Z" fill="#AFB3BB" stroke="#AFB3BB" stroke-width="0.0903226"/>
<path d="M23.2546 7.13086C24.6132 8.92547 25.4092 11.0827 25.5418 13.3296C25.6744 15.5766 25.1378 17.8124 23.9997 19.7544C22.8616 21.6964 21.1732 23.2573 19.148 24.2396C17.1229 25.222 14.8518 25.5819 12.6222 25.2736" stroke="#47494D" stroke-width="0.270968" stroke-linecap="round"/>
<path d="M5.22872 21.0269C3.66839 19.0392 2.81403 16.5885 2.80034 14.0616C2.78664 11.5345 3.61438 9.07487 5.15307 7.07031" stroke="#47494D" stroke-width="0.270968" stroke-linecap="round"/>
<path d="M9.7865 3.50175C11.7031 2.69951 13.8026 2.43723 15.8576 2.74335" stroke="#47494D" stroke-width="0.270968" stroke-linecap="round"/>
<path d="M20.3726 3.49512C23.0974 5.10132 25.0914 7.7035 25.9338 10.7523" stroke="#AFB3BB" stroke-width="0.451613" stroke-linecap="round"/>
<path d="M17.1657 25.8231C14.0301 26.6146 10.7086 26.1283 7.93162 24.4709C5.15467 22.8135 3.14987 20.1209 2.35822 16.9854" stroke="#AFB3BB" stroke-width="0.451613" stroke-linecap="round"/>
<path d="M3.69824 7.77088C4.77006 5.96714 6.28918 4.47049 8.10869 3.42566C9.92819 2.38083 11.9865 1.82318 14.0847 1.80664" stroke="#AFB3BB" stroke-width="0.451613" stroke-linecap="round"/>
<path d="M26.2388 14.2709C26.3635 14.2709 26.4646 14.1699 26.4646 14.0451C26.4646 13.9204 26.3635 13.8193 26.2388 13.8193C26.1141 13.8193 26.013 13.9204 26.013 14.0451C26.013 14.1699 26.1141 14.2709 26.2388 14.2709Z" fill="#AFB3BB"/>
<path d="M25.8775 17.4321C26.0022 17.4321 26.1033 17.331 26.1033 17.2063C26.1033 17.0816 26.0022 16.9805 25.8775 16.9805C25.7528 16.9805 25.6517 17.0816 25.6517 17.2063C25.6517 17.331 25.7528 17.4321 25.8775 17.4321Z" fill="#AFB3BB"/>
<path d="M24.613 20.3227C24.7377 20.3227 24.8388 20.2216 24.8388 20.0969C24.8388 19.9722 24.7377 19.8711 24.613 19.8711C24.4883 19.8711 24.3872 19.9722 24.3872 20.0969C24.3872 20.2216 24.4883 20.3227 24.613 20.3227Z" fill="#AFB3BB"/>
<path d="M22.6258 22.7612C22.7505 22.7612 22.8516 22.6601 22.8516 22.5354C22.8516 22.4107 22.7505 22.3096 22.6258 22.3096C22.5011 22.3096 22.4 22.4107 22.4 22.5354C22.4 22.6601 22.5011 22.7612 22.6258 22.7612Z" fill="#AFB3BB"/>
<path d="M20.0967 24.6577C20.2214 24.6577 20.3225 24.5566 20.3225 24.4319C20.3225 24.3072 20.2214 24.2061 20.0967 24.2061C19.972 24.2061 19.8709 24.3072 19.8709 24.4319C19.8709 24.5566 19.972 24.6577 20.0967 24.6577Z" fill="#AFB3BB"/>
<path d="M2.03202 14.0903C2.15673 14.0903 2.25783 13.9892 2.25783 13.8645C2.25783 13.7398 2.15673 13.6387 2.03202 13.6387C1.90731 13.6387 1.80621 13.7398 1.80621 13.8645C1.80621 13.9892 1.90731 14.0903 2.03202 14.0903Z" fill="#AFB3BB"/>
<path d="M2.48389 10.9292C2.6086 10.9292 2.7097 10.8281 2.7097 10.7033C2.7097 10.5786 2.6086 10.4775 2.48389 10.4775C2.35918 10.4775 2.25809 10.5786 2.25809 10.7033C2.25809 10.8281 2.35918 10.9292 2.48389 10.9292Z" fill="#AFB3BB"/>
<path d="M17.3872 2.52974C17.512 2.52974 17.6131 2.42864 17.6131 2.30393C17.6131 2.17922 17.512 2.07812 17.3872 2.07812C17.2625 2.07812 17.1614 2.17922 17.1614 2.30393C17.1614 2.42864 17.2625 2.52974 17.3872 2.52974Z" fill="#AFB3BB"/>
<path d="M7.27101 5.1489C7.34584 5.1489 7.4065 5.08824 7.4065 5.01341C7.4065 4.93859 7.34584 4.87793 7.27101 4.87793C7.19619 4.87793 7.13553 4.93859 7.13553 5.01341C7.13553 5.08824 7.19619 5.1489 7.27101 5.1489Z" fill="#47494D"/>
<path d="M7.27101 23.0327C7.34584 23.0327 7.4065 22.972 7.4065 22.8972C7.4065 22.8224 7.34584 22.7617 7.27101 22.7617C7.19619 22.7617 7.13553 22.8224 7.13553 22.8972C7.13553 22.972 7.19619 23.0327 7.27101 23.0327Z" fill="#47494D"/>
<path d="M9.80013 24.477C9.87495 24.477 9.93561 24.4164 9.93561 24.3415C9.93561 24.2667 9.87495 24.2061 9.80013 24.2061C9.7253 24.2061 9.66464 24.2667 9.66464 24.3415C9.66464 24.4164 9.7253 24.477 9.80013 24.477Z" fill="#47494D"/>
<path d="M18.4708 3.70261C18.5457 3.70261 18.6063 3.64195 18.6063 3.56712C18.6063 3.4923 18.5457 3.43164 18.4708 3.43164C18.396 3.43164 18.3354 3.4923 18.3354 3.56712C18.3354 3.64195 18.396 3.70261 18.4708 3.70261Z" fill="#47494D"/>
<path d="M21.0902 5.1489C21.165 5.1489 21.2257 5.08824 21.2257 5.01341C21.2257 4.93859 21.165 4.87793 21.0902 4.87793C21.0154 4.87793 20.9547 4.93859 20.9547 5.01341C20.9547 5.08824 21.0154 5.1489 21.0902 5.1489Z" fill="#47494D"/>
</svg>
