<svg width="24" height="24" viewBox="0 0 24 24" fill="none" xmlns="http://www.w3.org/2000/svg">
<g clip-path="url(#clip0_39_1033)">
<path d="M12.0001 3C14.9716 3 17.5066 4.488 19.3996 6.117C21.3046 7.7535 22.6801 9.6345 23.3551 10.6515C23.6214 11.0508 23.7636 11.52 23.7636 12C23.7636 12.48 23.6214 12.9492 23.3551 13.3485C22.6801 14.3655 21.3046 16.2465 19.3996 17.883C17.5051 19.512 14.9716 21 12.0001 21C9.02858 21 6.49358 19.512 4.60058 17.883C2.69558 16.245 1.32008 14.364 0.645076 13.347C0.378717 12.9477 0.236572 12.4785 0.236572 11.9985C0.236572 11.5185 0.378717 11.0493 0.645076 10.65C1.32008 9.6345 2.69558 7.7535 4.60058 6.117C6.49508 4.488 9.02858 3 12.0001 3ZM2.51858 11.898C2.49794 11.928 2.48689 11.9636 2.48689 12C2.48689 12.0364 2.49794 12.072 2.51858 12.102C3.13508 13.035 4.38008 14.727 6.06758 16.1775C7.76408 17.637 9.79058 18.75 12.0001 18.75C14.2096 18.75 16.2376 17.637 17.9326 16.1775C19.6186 14.727 20.8636 13.0335 21.4816 12.102C21.5022 12.072 21.5133 12.0364 21.5133 12C21.5133 11.9636 21.5022 11.928 21.4816 11.898C20.8636 10.9665 19.6186 9.273 17.9326 7.8225C16.2361 6.363 14.2096 5.25 12.0001 5.25C9.79058 5.25 7.76258 6.363 6.06758 7.8225C4.38158 9.273 3.13658 10.9665 2.51858 11.898ZM12.0001 15C11.6006 15.009 11.2033 14.9382 10.8315 14.7915C10.4598 14.6449 10.1211 14.4255 9.83532 14.1462C9.54954 13.8669 9.32244 13.5333 9.16737 13.165C9.01229 12.7967 8.93235 12.4011 8.93225 12.0015C8.93215 11.6019 9.01189 11.2063 9.16678 10.8379C9.32168 10.4696 9.54861 10.1358 9.83424 9.85639C10.1199 9.57693 10.4585 9.35735 10.8301 9.21054C11.2018 9.06374 11.5991 8.99267 11.9986 9.0015C12.7824 9.01883 13.5283 9.34234 14.0766 9.90276C14.6249 10.4632 14.9321 11.216 14.9323 12C14.9324 12.7841 14.6257 13.537 14.0777 14.0977C13.5297 14.6584 12.7839 14.9823 12.0001 15Z" fill="#47494D"/>
</g>
<defs>
<clipPath id="clip0_39_1033">
<rect width="24" height="24" fill="white"/>
</clipPath>
</defs>
</svg>
