<svg width="16" height="16" viewBox="0 0 16 16" fill="none" xmlns="http://www.w3.org/2000/svg">
<path d="M10.2127 5.83273L9.43941 5.07221L5.57273 8.87778C5.42045 9.02774 5.29966 9.20575 5.21726 9.40166C5.13486 9.59757 5.09247 9.80753 5.09251 10.0196C5.09254 10.2316 5.13501 10.4416 5.21747 10.6374C5.29993 10.8333 5.42078 11.0113 5.57311 11.1612C5.72544 11.3111 5.90628 11.43 6.10529 11.5111C6.30431 11.5922 6.5176 11.634 6.733 11.6339C6.9484 11.6339 7.16168 11.5921 7.36067 11.5109C7.55965 11.4297 7.74045 11.3108 7.89274 11.1608L12.5327 6.59399C13.0454 6.08924 13.3334 5.4047 13.3333 4.69094C13.3332 3.97719 13.0451 3.2927 12.5324 2.78805C12.0196 2.2834 11.3242 1.99993 10.5991 2C9.87407 2.00007 9.17872 2.28367 8.66607 2.78842L3.79444 7.58326L3.78377 7.59301C2.29424 9.05929 2.29424 11.4353 3.78377 12.9009C5.2733 14.3664 7.68702 14.3664 9.17655 12.9009L9.18645 12.8904L9.18721 12.8911L12.5129 9.61805L11.7396 8.85753L8.41388 12.1298L8.40397 12.1396C7.8936 12.641 7.20199 12.9226 6.48092 12.9226C5.75985 12.9226 5.06824 12.641 4.55787 12.1396C4.30489 11.89 4.10444 11.5937 3.96801 11.2677C3.83159 10.9417 3.76187 10.5924 3.76286 10.2399C3.76385 9.88731 3.83553 9.5384 3.97379 9.21315C4.11204 8.8879 4.31415 8.59272 4.56854 8.34452L4.56777 8.34377L9.44017 3.54894C10.0794 2.91893 11.1202 2.91893 11.7602 3.54894C12.4002 4.17895 12.3994 5.20272 11.7602 5.83198L7.12016 10.3988C7.01632 10.4928 6.87959 10.5437 6.73854 10.5409C6.59748 10.538 6.463 10.4816 6.36318 10.3834C6.26337 10.2853 6.20594 10.153 6.20289 10.0141C6.19985 9.87525 6.25141 9.74061 6.34683 9.6383L10.2135 5.83198L10.2127 5.83273Z" fill="#00A2B9"/>
</svg>
