<svg width="24" height="24" viewBox="0 0 24 24" fill="none" xmlns="http://www.w3.org/2000/svg">
<path d="M2.66667 2.66667V21.3333H21.3333V2.66667H2.66667ZM2.66667 0H21.3333C22.0406 0 22.7189 0.280951 23.219 0.781048C23.719 1.28115 24 1.95942 24 2.66667V21.3333C24 22.0406 23.719 22.7189 23.219 23.219C22.7189 23.719 22.0406 24 21.3333 24H2.66667C1.95942 24 1.28115 23.719 0.781048 23.219C0.280951 22.7189 0 22.0406 0 21.3333V2.66667C0 1.95942 0.280951 1.28115 0.781048 0.781048C1.28115 0.280951 1.95942 0 2.66667 0ZM7.33333 9.33333C7.86377 9.33333 8.37247 9.12262 8.74755 8.74755C9.12262 8.37247 9.33333 7.86377 9.33333 7.33333C9.33333 6.8029 9.12262 6.29419 8.74755 5.91912C8.37247 5.54405 7.86377 5.33333 7.33333 5.33333C6.8029 5.33333 6.29419 5.54405 5.91912 5.91912C5.54405 6.29419 5.33333 6.8029 5.33333 7.33333C5.33333 7.86377 5.54405 8.37247 5.91912 8.74755C6.29419 9.12262 6.8029 9.33333 7.33333 9.33333ZM5.33333 14.6667L8 12L10.6667 14.6667L14.6667 10.6667L18.6667 14.6667V18.6667H5.33333V14.6667Z" fill="#FF5E5E"/>
</svg>
