<svg width="25" height="24" viewBox="0 0 25 24" fill="none" xmlns="http://www.w3.org/2000/svg">
<path fill-rule="evenodd" clip-rule="evenodd" d="M7.9499 2.3999C7.63164 2.3999 7.32642 2.52633 7.10137 2.75137C6.87633 2.97642 6.7499 3.28164 6.7499 3.5999V4.7999H5.5499C4.91338 4.7999 4.30293 5.05276 3.85285 5.50285C3.40276 5.95293 3.1499 6.56338 3.1499 7.1999V19.1999C3.1499 19.8364 3.40276 20.4469 3.85285 20.897C4.30293 21.347 4.91338 21.5999 5.5499 21.5999H19.9499C20.5864 21.5999 21.1969 21.347 21.647 20.897C22.097 20.4469 22.3499 19.8364 22.3499 19.1999V7.1999C22.3499 6.56338 22.097 5.95293 21.647 5.50285C21.1969 5.05276 20.5864 4.7999 19.9499 4.7999H18.7499V3.5999C18.7499 3.28164 18.6235 2.97642 18.3984 2.75137C18.1734 2.52633 17.8682 2.3999 17.5499 2.3999C17.2316 2.3999 16.9264 2.52633 16.7014 2.75137C16.4763 2.97642 16.3499 3.28164 16.3499 3.5999V4.7999H9.1499V3.5999C9.1499 3.28164 9.02347 2.97642 8.79843 2.75137C8.57339 2.52633 8.26816 2.3999 7.9499 2.3999ZM7.9499 8.3999C7.63164 8.3999 7.32642 8.52633 7.10137 8.75137C6.87633 8.97642 6.7499 9.28164 6.7499 9.5999C6.7499 9.91816 6.87633 10.2234 7.10137 10.4484C7.32642 10.6735 7.63164 10.7999 7.9499 10.7999H17.5499C17.8682 10.7999 18.1734 10.6735 18.3984 10.4484C18.6235 10.2234 18.7499 9.91816 18.7499 9.5999C18.7499 9.28164 18.6235 8.97642 18.3984 8.75137C18.1734 8.52633 17.8682 8.3999 17.5499 8.3999H7.9499Z" fill="#00A2B9"/>
</svg>
