<svg width="28" height="29" viewBox="0 0 28 29" fill="none" xmlns="http://www.w3.org/2000/svg">
<path d="M12.25 13.625C12.25 13.3929 12.3422 13.1704 12.5063 13.0063C12.6704 12.8422 12.8929 12.75 13.125 12.75H18.375C18.6071 12.75 18.8296 12.8422 18.9937 13.0063C19.1578 13.1704 19.25 13.3929 19.25 13.625C19.25 13.8571 19.1578 14.0796 18.9937 14.2437C18.8296 14.4078 18.6071 14.5 18.375 14.5H13.125C12.8929 14.5 12.6704 14.4078 12.5063 14.2437C12.3422 14.0796 12.25 13.8571 12.25 13.625ZM12.25 18.875C12.25 18.6429 12.3422 18.4204 12.5063 18.2563C12.6704 18.0922 12.8929 18 13.125 18H18.375C18.6071 18 18.8296 18.0922 18.9937 18.2563C19.1578 18.4204 19.25 18.6429 19.25 18.875C19.25 19.1071 19.1578 19.3296 18.9937 19.4937C18.8296 19.6578 18.6071 19.75 18.375 19.75H13.125C12.8929 19.75 12.6704 19.6578 12.5063 19.4937C12.3422 19.3296 12.25 19.1071 12.25 18.875ZM9.625 14.5C9.85706 14.5 10.0796 14.4078 10.2437 14.2437C10.4078 14.0796 10.5 13.8571 10.5 13.625C10.5 13.3929 10.4078 13.1704 10.2437 13.0063C10.0796 12.8422 9.85706 12.75 9.625 12.75C9.39294 12.75 9.17038 12.8422 9.00628 13.0063C8.84219 13.1704 8.75 13.3929 8.75 13.625C8.75 13.8571 8.84219 14.0796 9.00628 14.2437C9.17038 14.4078 9.39294 14.5 9.625 14.5ZM9.625 19.75C9.85706 19.75 10.0796 19.6578 10.2437 19.4937C10.4078 19.3296 10.5 19.1071 10.5 18.875C10.5 18.6429 10.4078 18.4204 10.2437 18.2563C10.0796 18.0922 9.85706 18 9.625 18C9.39294 18 9.17038 18.0922 9.00628 18.2563C8.84219 18.4204 8.75 18.6429 8.75 18.875C8.75 19.1071 8.84219 19.3296 9.00628 19.4937C9.17038 19.6578 9.39294 19.75 9.625 19.75ZM8.89875 4C9.07977 3.48799 9.41514 3.04473 9.85864 2.7313C10.3021 2.41787 10.8319 2.24972 11.375 2.25H16.625C17.1681 2.24972 17.6979 2.41787 18.1414 2.7313C18.5849 3.04473 18.9202 3.48799 19.1012 4H20.125C20.8212 4 21.4889 4.27656 21.9812 4.76885C22.4734 5.26113 22.75 5.92881 22.75 6.625V24.125C22.75 24.8212 22.4734 25.4889 21.9812 25.9812C21.4889 26.4734 20.8212 26.75 20.125 26.75H7.875C7.17881 26.75 6.51113 26.4734 6.01884 25.9812C5.52656 25.4889 5.25 24.8212 5.25 24.125V6.625C5.25 5.92881 5.52656 5.26113 6.01884 4.76885C6.51113 4.27656 7.17881 4 7.875 4H8.89875ZM11.375 4C11.1429 4 10.9204 4.09219 10.7563 4.25628C10.5922 4.42038 10.5 4.64294 10.5 4.875C10.5 5.10706 10.5922 5.32962 10.7563 5.49372C10.9204 5.65781 11.1429 5.75 11.375 5.75H16.625C16.8571 5.75 17.0796 5.65781 17.2437 5.49372C17.4078 5.32962 17.5 5.10706 17.5 4.875C17.5 4.64294 17.4078 4.42038 17.2437 4.25628C17.0796 4.09219 16.8571 4 16.625 4H11.375ZM8.89875 5.75H7.875C7.64294 5.75 7.42038 5.84219 7.25628 6.00628C7.09219 6.17038 7 6.39294 7 6.625V24.125C7 24.3571 7.09219 24.5796 7.25628 24.7437C7.42038 24.9078 7.64294 25 7.875 25H20.125C20.3571 25 20.5796 24.9078 20.7437 24.7437C20.9078 24.5796 21 24.3571 21 24.125V6.625C21 6.39294 20.9078 6.17038 20.7437 6.00628C20.5796 5.84219 20.3571 5.75 20.125 5.75H19.1012C18.9202 6.26201 18.5849 6.70528 18.1414 7.0187C17.6979 7.33213 17.1681 7.50029 16.625 7.5H11.375C10.8319 7.50029 10.3021 7.33213 9.85864 7.0187C9.41514 6.70528 9.07977 6.26201 8.89875 5.75Z" fill="#00A2B9"/>
</svg>
