<svg width="92" height="34" viewBox="0 0 92 34" fill="none" xmlns="http://www.w3.org/2000/svg">
<rect width="92" height="34" rx="17" fill="#00A2B9"/>
<path d="M67.5264 20.6396V22H62.2422V20.6396H67.5264ZM62.7275 12.0469V22H61.0117V12.0469H62.7275ZM66.8359 16.2031V17.543H62.2422V16.2031H66.8359ZM67.4922 12.0469V13.4141H62.2422V12.0469H67.4922ZM76.8232 12.0469V22H75.1074L70.6436 14.8701V22H68.9277V12.0469H70.6436L75.1211 19.1904V12.0469H76.8232Z" fill="white"/>
<path d="M17.8438 12.0469V22H16.1279V12.0469H17.8438ZM22.8682 22H20.7422L20.7559 20.6396H22.8682C23.4834 20.6396 23.9984 20.5052 24.4131 20.2363C24.8324 19.9674 25.1468 19.5824 25.3564 19.0811C25.5706 18.5798 25.6777 17.9827 25.6777 17.29V16.75C25.6777 16.2122 25.6162 15.736 25.4932 15.3213C25.3747 14.9066 25.1969 14.5579 24.96 14.2754C24.7275 13.9928 24.4404 13.7786 24.0986 13.6328C23.7614 13.487 23.3717 13.4141 22.9297 13.4141H20.7012V12.0469H22.9297C23.5905 12.0469 24.1943 12.1585 24.7412 12.3818C25.2881 12.6006 25.7598 12.9173 26.1562 13.332C26.5573 13.7467 26.8649 14.2435 27.0791 14.8223C27.2933 15.401 27.4004 16.0482 27.4004 16.7637V17.29C27.4004 18.0055 27.2933 18.6527 27.0791 19.2314C26.8649 19.8102 26.5573 20.307 26.1562 20.7217C25.7552 21.1318 25.2767 21.4486 24.7207 21.6719C24.1693 21.8906 23.5518 22 22.8682 22ZM21.6924 12.0469V22H19.9766V12.0469H21.6924Z" fill="white"/>
</svg>
