<svg width="65" height="18" viewBox="0 0 65 18" fill="none" xmlns="http://www.w3.org/2000/svg">
<path fill-rule="evenodd" clip-rule="evenodd" d="M7.95816 0.263672C7.2372 0.263672 6.65275 0.874565 6.65275 1.62814C6.65275 2.38171 7.2372 2.99261 7.95816 2.99261H12.0001C12.7211 2.99261 13.3055 2.38171 13.3055 1.62814C13.3055 0.874565 12.7211 0.263672 12.0001 0.263672H7.95816ZM3.32638 6.67511C3.32638 5.92154 3.91083 5.31065 4.63178 5.31065H10.8913C11.6123 5.31065 12.1967 5.92154 12.1967 6.67511C12.1967 7.42869 11.6123 8.03958 10.8913 8.03958H4.63178C3.91083 8.03958 3.32638 7.42869 3.32638 6.67511ZM0 11.7221C0 10.9685 0.584448 10.3576 1.3054 10.3576H9.78255C10.5035 10.3576 11.0879 10.9685 11.0879 11.7221C11.0879 12.4757 10.5035 13.0866 9.78255 13.0866H1.3054C0.584447 13.0866 0 12.4757 0 11.7221Z" fill="#F39E00"/>
<path d="M41.6447 6.74054C41.1835 6.74054 40.7311 6.67873 40.2876 6.55511C39.844 6.4253 39.4508 6.23059 39.1078 5.97099L39.64 4.69149C40.0007 4.92637 40.3703 5.09326 40.7488 5.19216C41.1273 5.29106 41.4791 5.34051 41.8044 5.34051C42.1415 5.34051 42.3987 5.28488 42.5761 5.17362C42.7594 5.06236 42.8511 4.9171 42.8511 4.73785C42.8511 4.59568 42.7949 4.47515 42.6826 4.37625C42.5761 4.27735 42.4046 4.20318 42.1681 4.15373L41.148 3.89412C40.6985 3.78904 40.3408 3.58816 40.0747 3.29146C39.8145 2.99477 39.6844 2.62699 39.6844 2.18813C39.6844 1.71836 39.8056 1.32276 40.0481 1.00135C40.2964 0.673745 40.6217 0.426499 41.0238 0.259608C41.4318 0.086536 41.8694 0 42.3366 0C42.7269 0 43.1231 0.0587209 43.5252 0.176163C43.9333 0.293604 44.3029 0.479039 44.634 0.732466L44.0752 1.94706C43.8091 1.74926 43.5164 1.61019 43.197 1.52983C42.8836 1.4433 42.5938 1.40003 42.3277 1.40003C42.0025 1.40003 41.7452 1.45875 41.556 1.57619C41.3727 1.68745 41.281 1.83271 41.281 2.01196C41.281 2.29011 41.488 2.48173 41.902 2.58681L42.922 2.83715C43.407 2.95459 43.7825 3.16475 44.0486 3.46762C44.3147 3.76432 44.4478 4.12282 44.4478 4.54314C44.4478 4.91401 44.3709 5.23852 44.2171 5.51667C44.0634 5.78864 43.8564 6.01735 43.5962 6.20278C43.336 6.38203 43.0374 6.51802 42.7003 6.61074C42.3632 6.69727 42.0114 6.74054 41.6447 6.74054Z" fill="#00A2B9"/>
<path fill-rule="evenodd" clip-rule="evenodd" d="M14.6034 6.63855L15.5968 0.101989H18.4176C18.9084 0.101989 19.3046 0.173072 19.6062 0.315238C19.9078 0.451224 20.1266 0.639749 20.2627 0.880813C20.3987 1.1157 20.4667 1.38149 20.4667 1.67818C20.4667 2.07996 20.3543 2.41992 20.1296 2.69807C19.9108 2.97622 19.6181 3.17093 19.2514 3.28219C19.5471 3.39963 19.7748 3.58197 19.9344 3.82922C20.1 4.07028 20.1828 4.35462 20.1828 4.68222C20.1828 5.3127 19.9699 5.79791 19.5442 6.13788C19.1184 6.47166 18.5448 6.63855 17.8233 6.63855H14.6034ZM16.7589 2.69807H17.9564C18.595 2.69807 18.9144 2.42919 18.9144 1.89143C18.9144 1.71836 18.8523 1.58546 18.7281 1.49275C18.6039 1.40003 18.4087 1.35367 18.1426 1.35367H16.9629L16.7589 2.69807ZM16.3508 5.38687H17.7257C18.0332 5.38687 18.2609 5.31579 18.4087 5.17362C18.5566 5.03145 18.6305 4.83057 18.6305 4.57096C18.6305 4.15682 18.3673 3.94975 17.841 3.94975H16.5726L16.3508 5.38687Z" fill="#00A2B9"/>
<path d="M21.8251 0.101989L20.8405 6.63855H25.2491L25.4443 5.32197H22.588L22.792 3.97757H25.4531L25.6571 2.66098H22.996L23.1823 1.41857H26.0474L26.2426 0.101989H21.8251Z" fill="#00A2B9"/>
<path fill-rule="evenodd" clip-rule="evenodd" d="M27.2738 0.101989L26.2804 6.63855H29.5003C30.2218 6.63855 30.7954 6.47166 31.2211 6.13788C31.6469 5.79791 31.8598 5.3127 31.8598 4.68222C31.8598 4.35462 31.777 4.07028 31.6114 3.82922C31.4518 3.58197 31.2241 3.39963 30.9284 3.28219C31.2951 3.17093 31.5878 2.97622 31.8066 2.69807C32.0313 2.41992 32.1437 2.07996 32.1437 1.67818C32.1437 1.38149 32.0757 1.1157 31.9396 0.880813C31.8036 0.639749 31.5848 0.451224 31.2832 0.315238C30.9816 0.173072 30.5854 0.101989 30.0946 0.101989H27.2738ZM29.6334 2.69807H28.4359L28.6399 1.35367H29.8196C30.0857 1.35367 30.2809 1.40003 30.4051 1.49275C30.5293 1.58546 30.5914 1.71836 30.5914 1.89143C30.5914 2.42919 30.272 2.69807 29.6334 2.69807ZM29.4027 5.38687H28.0278L28.2496 3.94975H29.518C30.0443 3.94975 30.3075 4.15682 30.3075 4.57096C30.3075 4.83057 30.2336 5.03145 30.0857 5.17362C29.9379 5.31579 29.7102 5.38687 29.4027 5.38687Z" fill="#00A2B9"/>
<path fill-rule="evenodd" clip-rule="evenodd" d="M35.6581 0.101989L31.7374 6.63855H33.4316L34.1767 5.3127H36.9886L37.3168 6.63855H38.878L36.9531 0.101989H35.6581ZM34.9129 4.00538L36.1104 1.88216H36.1282L36.6604 4.00538H34.9129Z" fill="#00A2B9"/>
<path fill-rule="evenodd" clip-rule="evenodd" d="M15.6756 14.2529C15.1892 14.2529 14.7649 14.1556 14.4027 13.9609C14.0405 13.7662 13.7585 13.4822 13.5567 13.1091C13.36 12.7305 13.2617 12.2761 13.2617 11.7461C13.2617 11.0917 13.3756 10.513 13.6032 10.01C13.8361 9.50158 14.1672 9.10135 14.5967 8.80929C15.0262 8.51723 15.5359 8.3712 16.1257 8.3712C16.6173 8.3712 17.0416 8.46856 17.3986 8.66326C17.7608 8.85797 18.0403 9.14191 18.2369 9.5151C18.4387 9.88829 18.5396 10.3399 18.5396 10.8699C18.5396 11.5244 18.4232 12.1058 18.1903 12.6142C17.9626 13.1226 17.6341 13.5228 17.2046 13.8149C16.7803 14.1069 16.2706 14.2529 15.6756 14.2529ZM15.6911 13.3605C16.0792 13.3605 16.4077 13.2551 16.6768 13.0442C16.9459 12.8278 17.1503 12.533 17.29 12.1599C17.4297 11.7867 17.4995 11.3621 17.4995 10.8862C17.4995 10.3399 17.3753 9.93426 17.127 9.66924C16.8786 9.39882 16.5371 9.26361 16.1025 9.26361C15.7195 9.26361 15.3936 9.36907 15.1245 9.58C14.8554 9.79094 14.651 10.083 14.5113 10.4562C14.3716 10.824 14.3018 11.2485 14.3018 11.7299C14.3018 12.2816 14.426 12.6926 14.6743 12.963C14.9227 13.228 15.2616 13.3605 15.6911 13.3605Z" fill="#00A2B9"/>
<path d="M19.1074 14.1718L19.9767 8.45233H20.7218L23.0347 12.5574L23.6557 8.45233H24.5793L23.71 14.1718H22.9726L20.6519 10.0668L20.031 14.1718H19.1074Z" fill="#00A2B9"/>
<path d="M27.7 14.2529C27.1929 14.2529 26.7479 14.1556 26.365 13.9609C25.9821 13.7662 25.6846 13.4795 25.4724 13.1009C25.2603 12.7223 25.1542 12.2599 25.1542 11.7137C25.1542 11.0646 25.2732 10.4886 25.5112 9.98564C25.7492 9.48265 26.0933 9.08783 26.5435 8.80118C26.9989 8.51453 27.5448 8.3712 28.1812 8.3712C28.59 8.3712 28.9548 8.4334 29.2756 8.5578C29.5964 8.67678 29.8499 8.83363 30.0362 9.02834L29.6326 9.84772C29.2083 9.46913 28.7064 9.27983 28.1269 9.27983C27.7181 9.27983 27.3688 9.3853 27.0791 9.59623C26.7945 9.80175 26.5746 10.0857 26.4193 10.4481C26.2693 10.805 26.1942 11.2134 26.1942 11.6731C26.1942 12.2464 26.3365 12.671 26.6211 12.9468C26.9057 13.2226 27.3119 13.3605 27.8397 13.3605C28.0104 13.3605 28.1734 13.347 28.3287 13.32C28.4891 13.2929 28.6469 13.2551 28.8021 13.2064L29.0117 11.8516H27.7543L27.863 11.0809H29.9508L29.5317 13.8798C29.2833 13.9987 28.9936 14.0907 28.6624 14.1556C28.3364 14.2205 28.0156 14.2529 27.7 14.2529Z" fill="#00A2B9"/>
<path d="M30.6209 14.1718L31.4902 8.45233H32.4837L32.0956 10.9835H32.1111L34.8665 8.45233H36.1316L33.058 11.2756L35.3942 14.1718H34.2455L32.0335 11.5027H32.018L31.6144 14.1718H30.6209Z" fill="#00A2B9"/>
<path d="M35.775 14.1718L36.6443 8.45233H37.6378L36.7685 14.1718H35.775Z" fill="#00A2B9"/>
<path fill-rule="evenodd" clip-rule="evenodd" d="M37.9656 14.1718L38.8349 8.45233H40.9693C41.5747 8.45233 42.0326 8.59295 42.3431 8.87419C42.6587 9.15544 42.8165 9.54214 42.8165 10.0343C42.8165 10.5535 42.6794 10.9592 42.4052 11.2512C42.1309 11.5433 41.7713 11.7299 41.3263 11.811C41.4609 11.8705 41.5747 11.9652 41.6678 12.095C41.7661 12.2194 41.8489 12.3708 41.9162 12.5493L42.5138 14.1718H41.4971L40.8606 12.4195C40.7934 12.2248 40.7028 12.0868 40.589 12.0057C40.4751 11.9246 40.3147 11.884 40.1078 11.884H39.3083L38.9668 14.1718H37.9656ZM39.4247 11.1133H40.7442C41.0961 11.1133 41.3677 11.0295 41.5592 10.8618C41.7558 10.6887 41.8541 10.44 41.8541 10.1154C41.8541 9.8342 41.7713 9.62327 41.6057 9.48265C41.4402 9.34203 41.1789 9.27172 40.8218 9.27172H39.7042L39.4247 11.1133Z" fill="#00A2B9"/>
<path fill-rule="evenodd" clip-rule="evenodd" d="M45.8955 16.8359C45.5088 16.422 45.2285 15.9289 45.0702 15.398L47.3452 0H56.4309C56.7084 0 56.9745 0.1092 57.1707 0.303566C57.3669 0.497932 57.4771 0.761536 57.4771 1.03642V3.10925H60.0193C60.3844 3.11142 60.7427 3.20824 61.0583 3.39006C61.374 3.57186 61.6362 3.83238 61.8187 4.14565L64.6539 8.78877C64.7483 8.9531 64.7987 9.13864 64.8004 9.32771V12.437C64.8004 12.9867 64.5799 13.5139 64.1875 13.9027C63.7951 14.2914 63.2629 14.5098 62.708 14.5098C62.5923 15.3769 62.1625 16.1729 61.4985 16.7495C60.8345 17.3261 59.9816 17.6439 59.0987 17.6439C58.2157 17.6439 57.3629 17.3261 56.6989 16.7495C56.0349 16.1729 55.605 15.3769 55.4893 14.5098H52.2462C52.2087 15.4718 51.787 16.3797 51.0739 17.0338C50.3607 17.6878 49.4145 18.0344 48.4433 17.9973C47.4722 17.9602 46.5557 17.5424 45.8955 16.8359ZM57.4771 5.18207H60.0193L61.9024 8.29129H57.4771V5.18207ZM48.5846 15.5462C48.2742 15.5462 47.9708 15.455 47.7127 15.2842C47.4547 15.1134 47.2535 14.8706 47.1348 14.5865C47.016 14.3024 46.9849 13.9899 47.0454 13.6883C47.106 13.3867 47.2555 13.1097 47.4749 12.8923C47.6944 12.6749 47.974 12.5268 48.2784 12.4668C48.5828 12.4068 48.8984 12.4376 49.1851 12.5553C49.4718 12.673 49.7169 12.8722 49.8894 13.1279C50.0618 13.3835 50.1538 13.6841 50.1538 13.9916C50.1538 14.4039 49.9885 14.7993 49.6942 15.0908C49.3999 15.3824 49.0008 15.5462 48.5846 15.5462ZM59.0464 15.5462C58.736 15.5462 58.4326 15.455 58.1745 15.2842C57.9165 15.1134 57.7153 14.8706 57.5965 14.5865C57.4778 14.3024 57.4467 13.9899 57.5072 13.6883C57.5678 13.3867 57.7173 13.1097 57.9367 12.8923C58.1562 12.6749 58.4358 12.5268 58.7402 12.4668C59.0446 12.4068 59.3601 12.4376 59.6469 12.5553C59.9336 12.673 60.1787 12.8722 60.3512 13.1279C60.5236 13.3835 60.6156 13.6841 60.6156 13.9916C60.6156 14.4039 60.4503 14.7993 60.156 15.0908C59.8617 15.3824 59.4626 15.5462 59.0464 15.5462Z" fill="#00A2B9"/>
</svg>
