<svg width="28" height="29" viewBox="0 0 28 29" fill="none" xmlns="http://www.w3.org/2000/svg">
<g clip-path="url(#clip0_19879_171792)">
<path fill-rule="evenodd" clip-rule="evenodd" d="M15 7.5C15 6.94772 14.5523 6.5 14 6.5C13.4477 6.5 13 6.94772 13 7.5V14.5C13 14.8788 13.214 15.225 13.5528 15.3944L15.2787 16.2574C15.773 15.7347 16.3136 15.2564 16.8942 14.8291L15 13.882V7.5Z" fill="#00A2B9"/>
<path fill-rule="evenodd" clip-rule="evenodd" d="M3.33337 14.5C3.33337 8.609 8.109 3.83337 14 3.83337C19.2108 3.83337 23.5489 7.56974 24.4813 12.5095C25.1882 12.5374 25.8794 12.6264 26.5497 12.7714C25.7067 6.5936 20.4093 1.83337 14 1.83337C7.00443 1.83337 1.33337 7.50443 1.33337 14.5C1.33337 20.9093 6.0936 26.2067 12.2714 27.0497C12.1264 26.3794 12.0374 25.6882 12.0095 24.9813C7.06974 24.0489 3.33337 19.7108 3.33337 14.5Z" fill="#00A2B9"/>
<path d="M15.6655 21.7277C16.0218 21.6393 16.3564 21.4828 16.6494 21.2674C16.9425 21.052 17.1882 20.782 17.372 20.4732C17.5559 20.1645 17.6742 19.8232 17.72 19.4695C17.7658 19.1158 17.7383 18.7568 17.6389 18.4136L17.4236 17.6687C17.7755 17.4052 18.155 17.1819 18.5579 17L19.023 17.4788C19.281 17.7439 19.5922 17.9551 19.9375 18.0995C20.2828 18.2439 20.6549 18.3184 21.0309 18.3184C21.4069 18.3184 21.779 18.2439 22.1243 18.0995C22.4696 17.9551 22.7808 17.7439 23.0388 17.4788L23.4832 17.0201C23.8944 17.2073 24.2808 17.4387 24.6355 17.7128L24.4616 18.2772C24.3541 18.6263 24.3214 18.993 24.3653 19.3548C24.4092 19.7166 24.5289 20.0659 24.717 20.3813C24.9051 20.6967 25.1577 20.9716 25.4593 21.1891C25.7609 21.4065 26.1051 21.5621 26.4708 21.6461L26.9538 21.7557C27.0104 22.2072 27.015 22.6634 26.9676 23.1159L26.3328 23.2737C25.976 23.3614 25.641 23.5175 25.3474 23.7327C25.0538 23.9479 24.8077 24.2179 24.6235 24.5268C24.4393 24.8356 24.3208 25.1771 24.275 25.5311C24.2292 25.8851 24.257 26.2443 24.3567 26.5877L24.572 27.3313C24.2214 27.5948 23.8406 27.8195 23.4376 28L22.9726 27.5212C22.7147 27.2561 22.4036 27.0449 22.0584 26.9006C21.7133 26.7562 21.3413 26.6817 20.9653 26.6817C20.5894 26.6817 20.2174 26.7562 19.8723 26.9006C19.5271 27.0449 19.216 27.2561 18.9581 27.5212L18.5165 27.9866C18.1062 27.7987 17.7192 27.5663 17.3629 27.2939L17.5367 26.7281C17.6446 26.379 17.6777 26.0121 17.634 25.6501C17.5903 25.288 17.4706 24.9385 17.2825 24.6229C17.0943 24.3073 16.8416 24.0323 16.5398 23.8147C16.238 23.5972 15.8935 23.4418 15.5275 23.3579L15.0459 23.2483C14.9897 22.7972 14.9851 22.3415 15.0321 21.8895L15.6669 21.7277H15.6655ZM22.3792 22.5033C22.3792 22.1486 22.2338 21.8085 21.975 21.5577C21.7162 21.3069 21.3652 21.166 20.9992 21.166C20.6332 21.166 20.2822 21.3069 20.0234 21.5577C19.7646 21.8085 19.6192 22.1486 19.6192 22.5033C19.6192 22.858 19.7646 23.1982 20.0234 23.449C20.2822 23.6998 20.6332 23.8407 20.9992 23.8407C21.3652 23.8407 21.7162 23.6998 21.975 23.449C22.2338 23.1982 22.3792 22.858 22.3792 22.5033Z" fill="#00A2B9"/>
</g>
<defs>
<clipPath id="clip0_19879_171792">
<rect width="28" height="28" fill="white" transform="translate(0 0.5)"/>
</clipPath>
</defs>
</svg>
