<svg width="48" height="48" viewBox="0 0 48 48" fill="none" xmlns="http://www.w3.org/2000/svg">
<circle cx="24" cy="24" r="24" fill="#EFE6F8"/>
<path opacity="0.6" fill-rule="evenodd" clip-rule="evenodd" d="M33.3336 14.3212V18.6666C33.8589 18.6666 34.379 18.77 34.8643 18.971C35.3496 19.1721 35.7906 19.4667 36.162 19.8381C36.5334 20.2096 36.8281 20.6505 37.0291 21.1358C37.2301 21.6211 37.3336 22.1413 37.3336 22.6666C37.3336 23.1918 37.2301 23.712 37.0291 24.1973C36.8281 24.6826 36.5334 25.1236 36.162 25.495C35.7906 25.8664 35.3496 26.1611 34.8643 26.3621C34.379 26.5631 33.8589 26.6666 33.3336 26.6666V30.6666C33.3336 32.8639 30.8256 34.1186 29.0669 32.7999L26.3202 30.7386C24.852 29.6378 23.1425 28.9028 21.3336 28.5946V32.3866C21.3337 33.2582 21.0188 34.1005 20.4468 34.7583C19.8748 35.416 19.0843 35.8448 18.2211 35.9656C17.3578 36.0864 16.48 35.8911 15.7494 35.4157C15.0188 34.9403 14.4847 34.2168 14.2456 33.3786L12.1522 26.0506C11.3989 25.1609 10.9087 24.0788 10.7366 22.9259C10.5645 21.773 10.7175 20.5949 11.1782 19.5241C11.6389 18.4533 12.3892 17.5322 13.3447 16.8644C14.3002 16.1966 15.423 15.8086 16.5869 15.7439L20.6109 15.5199C22.5798 15.4105 24.4945 14.8352 26.1976 13.8412L29.3229 12.0172C31.1016 10.9812 33.3336 12.2626 33.3336 14.3212ZM15.5122 28.1039L16.8096 32.6466C16.872 32.8664 17.0119 33.0563 17.2034 33.1811C17.3949 33.3059 17.6251 33.3572 17.8515 33.3255C18.0778 33.2938 18.2851 33.1813 18.435 33.0087C18.5849 32.8361 18.6672 32.6151 18.6669 32.3866V28.3732L16.5869 28.2572C16.2251 28.2354 15.8657 28.1841 15.5122 28.1039ZM30.6669 14.3212L27.5402 16.1466C25.6415 17.2555 23.523 17.9354 21.3336 18.1386V25.8972C23.7162 26.2252 25.9842 27.1546 27.9202 28.6052L30.6669 30.6666V14.3212ZM18.6669 18.2986L16.7336 18.4052C15.8342 18.4549 14.9861 18.8399 14.3567 19.4843C13.7273 20.1287 13.3623 20.9857 13.3338 21.886C13.3054 22.7863 13.6155 23.6646 14.2029 24.3475C14.7903 25.0303 15.6124 25.4682 16.5069 25.5746L16.7336 25.5946L18.6669 25.7012V18.2986ZM33.3336 21.3332V23.9999C33.6734 23.9995 34.0003 23.8694 34.2474 23.6361C34.4945 23.4028 34.6432 23.084 34.6631 22.7447C34.683 22.4054 34.5727 22.0714 34.3545 21.8108C34.1364 21.5502 33.827 21.3827 33.4896 21.3426L33.3336 21.3332Z" fill="#5C00B9"/>
</svg>
