<svg width="28" height="29" viewBox="0 0 28 29" fill="none" xmlns="http://www.w3.org/2000/svg">
<path d="M14 11.125C14.8178 11.125 15.602 11.4499 16.1802 12.0281C16.7585 12.6063 17.0833 13.3906 17.0833 14.2083C17.0833 15.0261 16.7585 15.8103 16.1802 16.3886C15.602 16.9668 14.8178 17.2917 14 17.2917C13.1822 17.2917 12.398 16.9668 11.8198 16.3886C11.2415 15.8103 10.9167 15.0261 10.9167 14.2083C10.9167 13.3906 11.2415 12.6063 11.8198 12.0281C12.398 11.4499 13.1822 11.125 14 11.125ZM5.83333 14.0417C6.09752 14.0417 6.34857 14.0811 6.58356 14.1549C6.57503 15.5846 6.98095 16.9769 7.7282 18.1662C7.26908 18.7033 6.59081 19.0417 5.83333 19.0417C5.17029 19.0417 4.53441 18.7783 4.06557 18.3094C3.59673 17.8406 3.33333 17.2047 3.33333 16.5417C3.33333 15.8786 3.59673 15.2427 4.06557 14.7739C4.53441 14.3051 5.17029 14.0417 5.83333 14.0417ZM22.1667 14.0417C22.8297 14.0417 23.4656 14.3051 23.9344 14.7739C24.4033 15.2427 24.6667 15.8786 24.6667 16.5417C24.6667 17.2047 24.4033 17.8406 23.9344 18.3094C23.4656 18.7783 22.8297 19.0417 22.1667 19.0417C21.4092 19.0417 20.731 18.7033 20.2719 18.1662C21.0268 16.9654 21.4238 15.5735 21.4159 14.1551C21.651 14.0811 21.9023 14.0417 22.1667 14.0417ZM7.41667 25C7.41667 24.3015 7.91604 23.4779 9.13751 22.773C10.3323 22.0835 12.0493 21.625 14 21.625C15.9507 21.625 17.6677 22.0835 18.8625 22.773C20.084 23.4779 20.5833 24.3015 20.5833 25V26.0417H7.41667V25ZM1 26.0417V25.2917C1 24.9718 1.22293 24.4913 2.01605 23.9821C2.3706 23.7545 2.80539 23.5461 3.30719 23.3694C3.16095 23.8873 3.08333 24.4359 3.08333 25V26.0417H1ZM27 26.0417H24.9167V25C24.9167 24.4359 24.8391 23.8873 24.6928 23.3694C25.1946 23.5461 25.6294 23.7545 25.9839 23.9822C26.7771 24.4913 27 24.9718 27 25.2917V26.0417Z" stroke="#00A2B9" stroke-width="2"/>
<path d="M17.0626 2.39459C16.4898 2.96739 16.168 3.74427 16.168 4.55433C16.168 8.346 21.418 9.08333 21.418 9.08333V7.33333H22.5846C23.3582 7.33333 24.1 7.02604 24.647 6.47906C25.194 5.93208 25.5013 5.19021 25.5013 4.41667C25.5013 3.64312 25.194 2.90125 24.647 2.35427C24.1 1.80729 23.3582 1.5 22.5846 1.5H19.2223C18.4122 1.5 17.6354 1.82179 17.0626 2.39459Z" fill="#00A2B9"/>
<path d="M11.1373 3.49176C11.666 4.02047 11.963 4.73756 11.963 5.48527C11.963 8.98527 7.29636 9.66602 7.29636 9.66602V8.49935L7.18961 8.49527C6.42516 8.4688 5.70173 8.14297 5.17531 7.58803C4.64888 7.03309 4.36163 6.2935 4.37548 5.52872C4.38933 4.76394 4.70318 4.03523 5.24936 3.49972C5.79553 2.96421 6.53029 2.66479 7.29519 2.66602H9.14378C9.89149 2.66602 10.6086 2.96305 11.1373 3.49176Z" fill="#00A2B9"/>
</svg>
