<svg width="25" height="24" viewBox="0 0 25 24" fill="none" xmlns="http://www.w3.org/2000/svg">
<path d="M15 1.5C15.3975 1.50119 15.7785 1.65938 16.0596 1.94043C16.3406 2.22148 16.4988 2.60254 16.5 3V3.75H18.75C19.1475 3.75119 19.5285 3.90938 19.8096 4.19043C20.0906 4.47148 20.2488 4.85254 20.25 5.25V13H20C14.6448 13 10.2732 17.2095 10.0127 22.5H5.25C4.85254 22.4988 4.47148 22.3406 4.19043 22.0596C3.90938 21.7785 3.75119 21.3975 3.75 21V5.25C3.75119 4.85254 3.90938 4.47148 4.19043 4.19043C4.47148 3.90938 4.85254 3.75119 5.25 3.75H7.5V3C7.50119 2.60254 7.65938 2.22148 7.94043 1.94043C8.22148 1.65938 8.60254 1.50119 9 1.5H15ZM9 3V6H15V3H9Z" fill="#47494D"/>
<path d="M16.5 20.3849L14.5575 18.4424L13.5 19.4999L16.5 22.4999L22.5 16.4999L21.4425 15.4424L16.5 20.3849Z" fill="#47494D"/>
</svg>
