<svg width="24" height="24" viewBox="0 0 24 24" fill="none" xmlns="http://www.w3.org/2000/svg">
<path d="M4 5C4 3.89543 4.89543 3 6 3H18C19.1046 3 20 3.89543 20 5V16C20 17.1046 19.1046 18 18 18H4V5Z" stroke="#00A2B9" stroke-width="2"/>
<path d="M19 22.5C19.5523 22.5 20 22.0523 20 21.5C20 20.9477 19.5523 20.5 19 20.5V22.5ZM3 18V19.5H5V18H3ZM6 22.5H19V20.5H6V22.5ZM3 19.5C3 21.1569 4.34315 22.5 6 22.5V20.5C5.44772 20.5 5 20.0523 5 19.5H3Z" fill="#00A2B9"/>
<circle cx="12.025" cy="6.82519" r="1.125" fill="#00A2B9"/>
<path d="M12 10.2502V14.2502" stroke="#00A2B9" stroke-width="2" stroke-linecap="round"/>
</svg>
