<svg width="32" height="32" viewBox="0 0 32 32" fill="none" xmlns="http://www.w3.org/2000/svg">
<path d="M26.9 12.1L26.7 11.2H27.4H27.6C27.9 11.2 28.2 11 28.4 10.8C28.6 10.6 28.7 10.3 28.7 10V9.8C28.7 9.5 28.5 9.2 28.3 9.1C28.1 8.9 27.8 8.8 27.5 8.8H26.3L26 7.2C25.8 6.3 25.3 5.5 24.6 4.9C23.8 4.3 22.9 4 22 4H9.6C8.7 4 7.8 4.3 7.1 4.9C6.4 5.5 5.9 6.3 5.7 7.2L5.4 8.8H4.2C3.9 8.8 3.6 8.9 3.4 9.2C3.1 9.4 3 9.7 3 10C3 10.3 3.1 10.6 3.4 10.8C3.6 11 3.9 11.2 4.2 11.2H4.9L4.7 12.1C4.2 12.2 3.8 12.5 3.5 13C3.2 13.4 3 13.9 3 14.4V20.8C3 21.4 3.2 22 3.7 22.5C4.2 23 4.8 23.2 5.4 23.2H26.2C26.8 23.2 27.4 23 27.9 22.5C28.4 22 28.6 21.4 28.6 20.8V14.4C28.6 13.9 28.4 13.4 28.1 13C27.8 12.5 27.4 12.2 26.9 12.1ZM10.5 18.7C10.2 19 9.8 19.2 9.4 19.2C9 19.2 8.6 19 8.3 18.7C8 18.4 7.8 18 7.8 17.6C7.8 17.2 8 16.8 8.3 16.5C8.6 16.2 9 16 9.4 16C9.8 16 10.2 16.2 10.5 16.5C10.8 16.8 11 17.2 11 17.6C11 18 10.8 18.4 10.5 18.7ZM23.3 18.7C23 19 22.6 19.2 22.2 19.2C21.8 19.2 21.4 19 21.1 18.7C20.8 18.4 20.6 18 20.6 17.6C20.6 17.2 20.8 16.8 21.1 16.5C21.4 16.2 21.8 16 22.2 16C22.6 16 23 16.2 23.3 16.5C23.6 16.8 23.8 17.2 23.8 17.6C23.8 18 23.6 18.4 23.3 18.7ZM6.4 12L7.3 7.5C7.4 7 7.7 6.5 8.1 6.1C8.5 5.7 9.1 5.5 9.6 5.5H22C22.5 5.5 23.1 5.7 23.5 6.1C23.9 6.4 24.2 6.9 24.3 7.5L25.2 12H6.4ZM22.2 24.8V26.4C22.2 26.8 22.4 27.2 22.7 27.5C23 27.8 23.4 28 23.8 28C24.2 28 24.6 27.8 24.9 27.5C25.2 27.2 25.4 26.8 25.4 26.4V24.8H22.2ZM6.2 24.8V26.4C6.2 26.8 6.4 27.2 6.7 27.5C7 27.8 7.4 28 7.8 28C8.2 28 8.6 27.8 8.9 27.5C9.2 27.2 9.4 26.8 9.4 26.4V24.8H6.2Z" fill="#00A2B9"/>
<path d="M23.7996 17.6C23.7996 18 23.5996 18.4 23.2996 18.7C22.9996 19 22.5996 19.2 22.1996 19.2C21.7996 19.2 21.3996 19 21.0996 18.7C20.7996 18.4 20.5996 18 20.5996 17.6C20.5996 17.2 20.7996 16.8 21.0996 16.5C21.3996 16.2 21.7996 16 22.1996 16C22.5996 16 22.9996 16.2 23.2996 16.5C23.5996 16.8 23.7996 17.2 23.7996 17.6Z" fill="white"/>
<path d="M25.2004 12H6.40039L7.30039 7.5C7.40039 7 7.70039 6.5 8.10039 6.1C8.50039 5.7 9.10039 5.5 9.60039 5.5H22.0004C22.5004 5.5 23.1004 5.7 23.5004 6.1C23.9004 6.4 24.2004 6.9 24.3004 7.5L25.2004 12Z" fill="white"/>
<path d="M11.0008 17.6C11.0008 18 10.8008 18.4 10.5008 18.7C10.2008 19 9.80078 19.2 9.40078 19.2C9.00078 19.2 8.60078 19 8.30078 18.7C8.00078 18.4 7.80078 18 7.80078 17.6C7.80078 17.2 8.00078 16.8 8.30078 16.5C8.60078 16.2 9.00078 16 9.40078 16C9.80078 16 10.2008 16.2 10.5008 16.5C10.8008 16.8 11.0008 17.2 11.0008 17.6Z" fill="white"/>
<path d="M20.4706 11.8H17.0053L17.7754 7L12 14.2H15.4652L14.6952 19L20.4706 11.8Z" fill="#F3AF00"/>
</svg>
