<svg width="16" height="16" viewBox="0 0 16 16" fill="none" xmlns="http://www.w3.org/2000/svg">
<g clip-path="url(#clip0_13939_8207)">
<path d="M3.33333 6.184V0.571429C3.33333 0.419876 3.39479 0.274531 3.50419 0.167368C3.61358 0.0602039 3.76196 0 3.91667 0C4.07138 0 4.21975 0.0602039 4.32915 0.167368C4.43854 0.274531 4.5 0.419876 4.5 0.571429V6.184C4.84134 6.06578 5.13685 5.84676 5.3458 5.55713C5.55475 5.2675 5.66686 4.92152 5.66667 4.56686V0.571429C5.66667 0.419876 5.72812 0.274531 5.83752 0.167368C5.94692 0.0602039 6.09529 0 6.25 0C6.40471 0 6.55308 0.0602039 6.66248 0.167368C6.77187 0.274531 6.83333 0.419876 6.83333 0.571429V4.56686C6.83347 5.22552 6.60129 5.86399 6.1761 6.37423C5.7509 6.88447 5.1588 7.23513 4.5 7.36686V15.4286C4.5 15.5801 4.43854 15.7255 4.32915 15.8326C4.21975 15.9398 4.07138 16 3.91667 16C3.76196 16 3.61358 15.9398 3.50419 15.8326C3.39479 15.7255 3.33333 15.5801 3.33333 15.4286V7.36686C2.67454 7.23513 2.08244 6.88447 1.65724 6.37423C1.23204 5.86399 0.999863 5.22552 1 4.56686V0.571429C1 0.419876 1.06146 0.274531 1.17085 0.167368C1.28025 0.0602039 1.42862 0 1.58333 0C1.73804 0 1.88642 0.0602039 1.99581 0.167368C2.10521 0.274531 2.16667 0.419876 2.16667 0.571429V4.56686C2.16648 4.92152 2.27858 5.2675 2.48753 5.55713C2.69648 5.84676 2.99199 6.06578 3.33333 6.184ZM10.9167 9.08C9.26117 8.71657 8 6.83657 8 4.57143C8 2.04571 9.56683 0 11.5 0C13.4332 0 15 2.04571 15 4.57143C15 6.83657 13.7388 8.71657 12.0833 9.08V15.4286C12.0833 15.5801 12.0219 15.7255 11.9125 15.8326C11.8031 15.9398 11.6547 16 11.5 16C11.3453 16 11.1969 15.9398 11.0875 15.8326C10.9781 15.7255 10.9167 15.5801 10.9167 15.4286V9.08ZM11.5 8C12.704 8 13.8333 6.52571 13.8333 4.57143C13.8333 2.61714 12.704 1.14286 11.5 1.14286C10.296 1.14286 9.16667 2.61714 9.16667 4.57143C9.16667 6.52571 10.296 8 11.5 8Z" fill="#666666"/>
<path d="M15 1L1 15" stroke="#666666" stroke-width="1.3" stroke-linecap="round"/>
</g>
<defs>
<clipPath id="clip0_13939_8207">
<rect width="16" height="16" fill="white"/>
</clipPath>
</defs>
</svg>
