<svg width="32" height="32" viewBox="0 0 32 32" fill="none" xmlns="http://www.w3.org/2000/svg">
<rect x="8" y="4.80005" width="16.8" height="23.2" fill="#00A2B9"/>
<path d="M7.99992 2.66663H23.9999C24.7072 2.66663 25.3854 2.94758 25.8855 3.44767C26.3856 3.94777 26.6666 4.62605 26.6666 5.33329V29.3333H5.33325V5.33329C5.33325 4.62605 5.6142 3.94777 6.1143 3.44767C6.6144 2.94758 7.29267 2.66663 7.99992 2.66663ZM7.99992 26.6666H13.3333V21.3333H18.6666V26.6666H23.9999V5.33329H7.99992V26.6666Z" fill="#00A2B9"/>
<path d="M21.3333 8H17.3333V12H21.3333V8Z" fill="#F3AF00"/>
<path d="M14.6667 14.6667H10.6667V18.6667H14.6667V14.6667Z" fill="white"/>
<path d="M21.3334 14.6667H17.3334V18.6667H21.3334V14.6667Z" fill="white"/>
<path d="M14.6667 8H10.6667V12H14.6667V8Z" fill="white"/>
</svg>
