<svg width="28" height="28" viewBox="0 0 28 28" fill="none" xmlns="http://www.w3.org/2000/svg">
<path d="M3.79 2.77304L24.86 12.85C25.073 12.9517 25.2528 13.1116 25.3787 13.3112C25.5046 13.5109 25.5714 13.742 25.5714 13.978C25.5714 14.214 25.5046 14.4452 25.3787 14.6448C25.2528 14.8444 25.073 15.0043 24.86 15.106L3.79 25.183C3.574 25.2865 3.33283 25.3257 3.09518 25.2961C2.85753 25.2664 2.6334 25.1691 2.44947 25.0157C2.26553 24.8623 2.12954 24.6593 2.05765 24.4309C1.98577 24.2024 1.98103 23.9581 2.044 23.727L4.704 13.978L2.044 4.22904C1.98103 3.99797 1.98577 3.75367 2.05765 3.52522C2.12954 3.29676 2.26553 3.09377 2.44947 2.94039C2.6334 2.787 2.85753 2.68969 3.09518 2.66002C3.33283 2.63035 3.574 2.66958 3.79 2.77304ZM3.635 4.36204L6.058 13.249L17 13.25C17.1814 13.2501 17.3566 13.3159 17.4932 13.4352C17.6298 13.5545 17.7186 13.7193 17.743 13.899L17.75 14C17.75 14.1813 17.6844 14.3564 17.5652 14.493C17.4461 14.6296 17.2816 14.7184 17.102 14.743L17 14.75H6.046L3.636 23.594L23.742 13.978L3.635 4.36204V4.36204Z" fill="#00A2B9"/>
</svg>
