<svg width="28" height="28" viewBox="0 0 28 28" fill="none" xmlns="http://www.w3.org/2000/svg">
<path d="M7.875 3.5C6.71468 3.5 5.60188 3.96094 4.78141 4.78141C3.96094 5.60188 3.5 6.71468 3.5 7.875V20.125C3.5 21.2853 3.96094 22.3981 4.78141 23.2186C5.60188 24.0391 6.71468 24.5 7.875 24.5H20.125C21.2853 24.5 22.3981 24.0391 23.2186 23.2186C24.0391 22.3981 24.5 21.2853 24.5 20.125V7.875C24.5 6.71468 24.0391 5.60188 23.2186 4.78141C22.3981 3.96094 21.2853 3.5 20.125 3.5H7.875ZM22.75 14H18.375L18.2175 14.014C18.0161 14.0509 17.8339 14.1572 17.7028 14.3145C17.5717 14.4719 17.4999 14.6702 17.5 14.875C17.5 14.966 17.486 15.1585 17.444 15.414C17.374 15.8503 17.2395 16.2738 17.045 16.6705C16.506 17.752 15.5697 18.375 14 18.375C12.4303 18.375 11.494 17.752 10.955 16.6705C10.7605 16.2738 10.626 15.8503 10.556 15.414C10.5241 15.236 10.5054 15.0558 10.5 14.875C10.5 14.6429 10.4078 14.4204 10.2437 14.2563C10.0796 14.0922 9.85706 14 9.625 14H5.25V7.875C5.25 7.17881 5.52656 6.51113 6.01884 6.01884C6.51113 5.52656 7.17881 5.25 7.875 5.25H20.125C20.8212 5.25 21.4889 5.52656 21.9812 6.01884C22.4734 6.51113 22.75 7.17881 22.75 7.875V14ZM5.25 15.75H8.827L8.88825 16.0545C8.988 16.4955 9.149 16.9715 9.38875 17.4545C10.2165 19.1082 11.7425 20.125 14 20.125C16.2575 20.125 17.7835 19.1082 18.6112 17.4545L18.7775 17.094C18.928 16.7352 19.0365 16.3853 19.11 16.0545L19.173 15.75H22.75V20.125C22.75 20.8212 22.4734 21.4889 21.9812 21.9812C21.4889 22.4734 20.8212 22.75 20.125 22.75H7.875C7.17881 22.75 6.51113 22.4734 6.01884 21.9812C5.52656 21.4889 5.25 20.8212 5.25 20.125V15.75Z" fill="#00A2B9"/>
</svg>
