<svg width="32" height="28" viewBox="0 0 32 28" fill="none" xmlns="http://www.w3.org/2000/svg">
<rect width="32" height="28" rx="8" fill="#E6F6F8"/>
<path d="M14.5 16.5L11.5209 7.78825C11.4773 7.65334 11.4021 7.52688 11.2996 7.41607C11.1971 7.30526 11.0692 7.21229 10.9234 7.14246C10.7775 7.07262 10.6164 7.0273 10.4494 7.00909C10.2824 6.99087 10.1127 7.00011 9.95001 7.03628C9.78736 7.07246 9.6349 7.13484 9.50134 7.21987C9.36777 7.3049 9.25572 7.41091 9.17157 7.53184C9.08742 7.65277 9.03283 7.78625 9.01091 7.92468C8.98899 8.0631 9.00017 8.20374 9.04381 8.33858L11.647 16.393M14.5 16.5L21.7177 16.393C22.0578 16.393 22.3839 16.505 22.6244 16.7044C22.8649 16.9038 23 17.1742 23 17.4561C23 17.7381 22.8649 18.363 22.6244 18.5624C22.3839 18.7618 22.0578 18.8738 21.7177 18.8738H11.8863L11.647 16.393M14.5 16.5L11.647 16.393M18.2981 21H14.8785" stroke="#00A2B9" stroke-width="1.3" stroke-linecap="round" stroke-linejoin="round"/>
</svg>
