<svg width="24" height="25" viewBox="0 0 24 25" fill="none" xmlns="http://www.w3.org/2000/svg">
<g clip-path="url(#clip0_12089_130212)">
<path d="M9 22.5H5C3.89543 22.5 3 21.6046 3 20.5V6.5C3 5.39543 3.89543 4.5 5 4.5H19C20.1046 4.5 21 5.39543 21 6.5V10.5" stroke="#00A2B9" stroke-width="1.5" stroke-linecap="round" stroke-linejoin="round"/>
<path d="M16 2.5V6.5" stroke="#00A2B9" stroke-width="1.5" stroke-linecap="round" stroke-linejoin="round"/>
<path d="M8 2.5V6.5" stroke="#00A2B9" stroke-width="1.5" stroke-linecap="round" stroke-linejoin="round"/>
<path d="M3 10.5H21" stroke="#00A2B9" stroke-width="1.5" stroke-linecap="round" stroke-linejoin="round"/>
<path d="M17.434 19C17.7821 19 18.1159 19.1383 18.3621 19.3844C18.6082 19.6306 18.7465 19.9644 18.7465 20.3125L18.7456 20.967C18.8358 22.5744 17.5976 23.3759 15.3025 23.3759C13.0152 23.375 11.75 22.5849 11.75 20.9906V20.3125C11.75 19.9644 11.8883 19.6306 12.1344 19.3844C12.3806 19.1383 12.7144 19 13.0625 19H17.434ZM21.1562 19C21.5043 19 21.8382 19.1383 22.0843 19.3844C22.3305 19.6306 22.4688 19.9644 22.4688 20.3125V20.7736C22.5475 22.2147 21.4537 22.9375 19.4552 22.9375C19.184 22.9375 18.9285 22.9244 18.6905 22.8981C19.1595 22.4641 19.4106 21.8761 19.4097 21.1324L19.4045 20.9425L19.4062 20.3125C19.4062 19.7893 19.177 19.3202 18.813 19H21.1562Z" fill="#00A2B9"/>
<path d="M20.8624 15.1376C20.5342 14.8094 20.0891 14.625 19.625 14.625C19.1609 14.625 18.7158 14.8094 18.3876 15.1376C18.0594 15.4658 17.875 15.9109 17.875 16.375C17.875 16.8391 18.0594 17.2842 18.3876 17.6124C18.7158 17.9406 19.1609 18.125 19.625 18.125C20.0891 18.125 20.5342 17.9406 20.8624 17.6124C21.1906 17.2842 21.375 16.8391 21.375 16.375C21.375 15.9109 21.1906 15.4658 20.8624 15.1376Z" fill="#00A2B9"/>
<path d="M16.7968 14.3907C16.3866 13.9805 15.8302 13.75 15.25 13.75C14.6698 13.75 14.1134 13.9805 13.7032 14.3907C13.293 14.8009 13.0625 15.3573 13.0625 15.9375C13.0625 16.5177 13.293 17.0741 13.7032 17.4843C14.1134 17.8945 14.6698 18.125 15.25 18.125C15.8302 18.125 16.3866 17.8945 16.7968 17.4843C17.207 17.0741 17.4375 16.5177 17.4375 15.9375C17.4375 15.3573 17.207 14.8009 16.7968 14.3907Z" fill="#00A2B9"/>
</g>
<defs>
<clipPath id="clip0_12089_130212">
<rect width="24" height="24" fill="white" transform="translate(0 0.5)"/>
</clipPath>
</defs>
</svg>
