<svg width="16" height="16" viewBox="0 0 16 16" fill="none" xmlns="http://www.w3.org/2000/svg">
<path d="M4.50016 2.66699H11.5002C11.967 2.66697 12.4163 2.84505 12.7564 3.16492C13.0964 3.48479 13.3016 3.92234 13.3302 4.38833L13.3335 4.50033V6.73633C13.6969 6.83948 14.0196 7.0523 14.2575 7.3457C14.4954 7.63911 14.637 7.9988 14.6628 8.37566L14.6668 8.50033V13.5003C14.6668 13.627 14.6187 13.749 14.5322 13.8415C14.4457 13.9341 14.3273 13.9904 14.2009 13.999C14.0745 14.0076 13.9496 13.968 13.8513 13.888C13.753 13.8081 13.6888 13.6938 13.6715 13.5683L13.6668 13.5003V12.0003H2.3335V13.5003C2.33349 13.6212 2.28973 13.7379 2.21032 13.8289C2.1309 13.92 2.0212 13.9792 1.9015 13.9957L1.8335 14.0003C1.71267 14.0003 1.59593 13.9566 1.50488 13.8771C1.41382 13.7977 1.35459 13.688 1.33816 13.5683L1.3335 13.5003V8.50033C1.3335 7.66099 1.8975 6.95366 2.66683 6.73566V4.50033C2.66681 4.03347 2.84489 3.58419 3.16476 3.24413C3.48463 2.90407 3.92218 2.69885 4.38816 2.67033L4.50016 2.66699ZM12.8335 7.66699H3.16683C2.96052 7.6669 2.76152 7.74333 2.60832 7.88151C2.45512 8.01968 2.35862 8.20977 2.3375 8.41499L2.3335 8.50033V11.0003H13.6668V8.50033C13.6668 8.29413 13.5902 8.09529 13.4521 7.94223C13.3139 7.78918 13.1239 7.69277 12.9188 7.67166L12.8335 7.66699ZM11.5002 3.66699H4.50016C4.29386 3.6669 4.09485 3.74333 3.94165 3.88151C3.78845 4.01968 3.69195 4.20977 3.67083 4.41499L3.66683 4.50033V6.66699H4.66683C4.66683 6.49018 4.73707 6.32061 4.86209 6.19559C4.98712 6.07056 5.15668 6.00033 5.3335 6.00033H6.66683C6.83012 6.00035 6.98772 6.0603 7.10974 6.1688C7.23177 6.27731 7.30972 6.42682 7.32883 6.58899L7.3335 6.66699H8.66683C8.66683 6.49018 8.73707 6.32061 8.86209 6.19559C8.98712 6.07056 9.15668 6.00033 9.3335 6.00033H10.6668C10.8301 6.00035 10.9877 6.0603 11.1097 6.1688C11.2318 6.27731 11.3097 6.42682 11.3288 6.58899L11.3335 6.66699H12.3335V4.50033C12.3336 4.29402 12.2572 4.09501 12.119 3.94182C11.9808 3.78862 11.7907 3.69212 11.5855 3.67099L11.5002 3.66699Z" fill="#00A2B9"/>
</svg>
