<svg width="36" height="36" viewBox="0 0 36 36" fill="none" xmlns="http://www.w3.org/2000/svg">
<path fill-rule="evenodd" clip-rule="evenodd" d="M20.5059 2C23.961 2 27.2699 3.40401 29.7061 5.89551C32.1414 8.3862 33.5058 11.7596 33.5059 15.2725C33.5059 20.4388 30.2807 25.1121 27.2393 28.3955C25.6996 30.0576 24.1633 31.4106 23.0127 32.3477C22.4366 32.8168 21.9545 33.184 21.6152 33.4346C21.4458 33.5597 21.3117 33.6559 21.2188 33.7217C21.1722 33.7546 21.1355 33.7804 21.1104 33.7979C21.098 33.8064 21.0879 33.8126 21.0811 33.8174C21.0777 33.8197 21.0753 33.8219 21.0732 33.8232C21.0722 33.8239 21.071 33.8247 21.0703 33.8252L21.0693 33.8262C20.7719 34.029 20.3921 34.0545 20.0742 33.9023L19.9424 33.8262L19.9414 33.8252C19.9407 33.8247 19.9395 33.8239 19.9385 33.8232C19.9365 33.8219 19.934 33.8197 19.9307 33.8174C19.9238 33.8126 19.9137 33.8064 19.9014 33.7979C19.8762 33.7804 19.8395 33.7546 19.793 33.7217C19.7001 33.6559 19.5659 33.5597 19.3965 33.4346C19.3051 33.3671 19.2049 33.2892 19.0938 33.2051C22.2272 30.8346 30.998 23.4538 30.998 15.0908C30.998 11.6189 29.6284 8.28899 27.1904 5.83398C25.051 3.67964 22.2425 2.35392 19.2568 2.06152C19.6702 2.02081 20.0869 2 20.5059 2Z" fill="#00A2B9"/>
<path d="M26.5 15.2727C26.5 24.8182 14.5 33 14.5 33C14.5 33 2.5 24.8182 2.5 15.2727C2.5 12.0178 3.76428 8.89618 6.01472 6.5946C8.26516 4.29302 11.3174 3 14.5 3C17.6826 3 20.7348 4.29302 22.9853 6.5946C25.2357 8.89618 26.5 12.0178 26.5 15.2727Z" stroke="#00A2B9" stroke-width="2" stroke-linecap="round" stroke-linejoin="round"/>
<path d="M14.5 19.5C16.9853 19.5 19 17.4853 19 15C19 12.5147 16.9853 10.5 14.5 10.5C12.0147 10.5 10 12.5147 10 15C10 17.4853 12.0147 19.5 14.5 19.5Z" stroke="#00A2B9" stroke-width="2" stroke-linecap="round" stroke-linejoin="round"/>
</svg>
