<svg width="24" height="24" viewBox="0 0 24 24" fill="none" xmlns="http://www.w3.org/2000/svg">
<path fill-rule="evenodd" clip-rule="evenodd" d="M10.3094 1.5H13.6544C14.1584 1.4925 14.6519 1.6575 15.0494 1.968C15.4499 2.283 15.7274 2.7255 15.8294 3.2235L16.1219 4.626C16.2489 4.694 16.3739 4.764 16.4969 4.836L17.9144 4.371C18.206 4.27688 18.514 4.24416 18.8189 4.27488C19.1237 4.3056 19.4189 4.3991 19.6859 4.5495C20.0159 4.7355 20.2934 5.0025 20.4869 5.3295L22.1744 8.1135C22.4472 8.54489 22.5548 9.06038 22.4773 9.56487C22.3999 10.0694 22.1426 10.5288 21.7529 10.8585H21.7499L20.6369 11.808V12.195L21.7364 13.1745C22.1185 13.4988 22.3731 13.9482 22.4547 14.4427C22.5363 14.9372 22.4396 15.4446 22.1819 15.8745L20.5469 18.6645V18.6675C20.3524 18.9931 20.0766 19.2625 19.7466 19.4495C19.4166 19.6364 19.0437 19.7345 18.6644 19.734C18.4299 19.7353 18.1965 19.6998 17.9729 19.629L17.9654 19.626L16.5599 19.1625C16.4349 19.2365 16.3079 19.307 16.1789 19.374L15.8879 20.775C15.7852 21.2732 15.5088 21.7188 15.1079 22.032C14.7094 22.3438 14.2158 22.509 13.7099 22.5H10.3379C9.83306 22.5083 9.34062 22.3431 8.94292 22.032C8.54239 21.7191 8.26597 21.2742 8.16292 20.7765L7.87042 19.3725C7.74377 19.3055 7.61874 19.2355 7.49542 19.1625L6.07792 19.6275C5.78631 19.7216 5.47838 19.7543 5.1735 19.7236C4.86862 19.6929 4.5734 19.5994 4.30642 19.449C3.97597 19.2646 3.69976 18.9967 3.50542 18.672L1.81642 15.882C1.55453 15.4593 1.44993 14.9579 1.52097 14.4658C1.59202 13.9737 1.83418 13.5223 2.20492 13.191L3.32542 11.778L2.25592 10.8255C1.8733 10.5009 1.61856 10.0507 1.53722 9.55559C1.45589 9.06043 1.55325 8.55248 1.81192 8.1225L1.81492 8.1195L3.50542 5.3295C3.69716 5.00698 3.96908 4.73955 4.29473 4.5532C4.62039 4.36685 4.98872 4.26791 5.36392 4.266C5.58992 4.254 5.81292 4.2755 6.03292 4.3305L6.06592 4.3395L7.46842 4.833C7.59142 4.761 7.71642 4.692 7.84342 4.626L8.13442 3.225C8.23714 2.72676 8.51359 2.28125 8.91442 1.968C9.31042 1.6575 9.80542 1.4925 10.3094 1.5ZM11.9999 9C11.2043 9 10.4412 9.31607 9.8786 9.87868C9.31599 10.4413 8.99992 11.2044 8.99992 12C8.99992 12.7956 9.31599 13.5587 9.8786 14.1213C10.4412 14.6839 11.2043 15 11.9999 15C12.7956 15 13.5586 14.6839 14.1212 14.1213C14.6839 13.5587 14.9999 12.7956 14.9999 12C14.9999 11.2044 14.6839 10.4413 14.1212 9.87868C13.5586 9.31607 12.7956 9 11.9999 9ZM7.49992 12C7.49992 10.8065 7.97403 9.66193 8.81794 8.81802C9.66186 7.97411 10.8064 7.5 11.9999 7.5C13.1934 7.5 14.338 7.97411 15.1819 8.81802C16.0258 9.66193 16.4999 10.8065 16.4999 12C16.4999 13.1935 16.0258 14.3381 15.1819 15.182C14.338 16.0259 13.1934 16.5 11.9999 16.5C10.8064 16.5 9.66186 16.0259 8.81794 15.182C7.97403 14.3381 7.49992 13.1935 7.49992 12Z" fill="#47494D"/>
</svg>
