<svg width="28" height="28" viewBox="0 0 28 28" fill="none" xmlns="http://www.w3.org/2000/svg">
<path d="M18.7629 18.1473L20.0962 16.835C20.3046 16.6299 20.6671 16.7735 20.6671 17.0687V23.0315C20.6671 24.1183 19.7712 25 18.667 25H4.00004C2.89585 25 2 24.1183 2 23.0315V8.59615C2 7.5094 2.89585 6.62769 4.00004 6.62769H15.3961C15.692 6.62769 15.842 6.98037 15.6336 7.18952L14.3003 8.50183C14.2378 8.56334 14.1544 8.59615 14.0628 8.59615H4.00004V23.0315H18.667V18.3769C18.667 18.2908 18.7004 18.2088 18.7629 18.1473ZM25.288 9.87155L14.3461 20.6407L10.5794 21.0508C9.48766 21.1697 8.55848 20.2634 8.67931 19.1807L9.09599 15.4735L20.0379 4.70434C20.9921 3.76522 22.5338 3.76522 23.4838 4.70434L25.2838 6.47596C26.238 7.41508 26.238 8.93653 25.288 9.87155ZM21.1712 11.1387L18.7504 8.75609L11.0085 16.3798L10.7044 19.0577L13.4252 18.7583L21.1712 11.1387ZM23.8713 7.87028L22.0713 6.09867C21.9004 5.93053 21.6213 5.93053 21.4546 6.09867L20.1671 7.36586L22.5879 9.74852L23.8755 8.48133C24.0421 8.30909 24.0421 8.03842 23.8713 7.87028Z" fill="#00A2B9"/>
</svg>
