<svg width="32" height="32" viewBox="0 0 32 32" fill="none" xmlns="http://www.w3.org/2000/svg">
<path fill-rule="evenodd" clip-rule="evenodd" d="M28 2C29.1046 2 30 2.89543 30 4V16C30 17.1046 29.1046 18 28 18H21.885L24.9432 9.62522C25.5458 7.97482 24.8179 6.13457 23.2494 5.34298C22.8606 5.14682 22.3867 5.26965 22.1422 5.62993L17.7721 12.0697C16.8369 10.4494 14.3265 7.11896 13.3915 5.93898C13.1964 5.69276 12.8788 5.59521 12.5748 5.67436C11.1738 6.03907 10.3631 7.50194 10.7965 8.88322L13.6571 18H4.00008C2.89552 18 2.00009 17.1046 2.00008 16L2 8L8 2H28Z" fill="#00A2B9"/>
<path opacity="0.3" d="M8 2L2 8H7C7.55228 8 8 7.55228 8 7V2Z" fill="white"/>
<path d="M17.5 2V11.5" stroke="#FFFAF4" stroke-width="1.5" stroke-dasharray="2 2"/>
<g clip-path="url(#clip0_17689_163685)">
<path d="M23.1347 6.76223L14.0297 19.7616L15.5278 22.6885C16.7822 21.8204 19.5047 19.936 19.9172 19.6754C20.0278 19.606 20.1122 19.5066 20.1609 19.3866C20.1609 19.3866 23.2509 11.3297 23.7534 10.0247C24.2991 8.60535 24.3084 8.02973 24.1678 7.60598C24.0459 7.23285 23.1347 6.76223 23.1347 6.76223Z" fill="#F3AF00"/>
<path d="M8.86272 28.9337C10.7846 29.8056 13.1527 28.7294 14.1521 26.5281C14.5515 25.6487 14.559 24.6325 14.5552 24.2519C14.5496 23.7269 15.3596 22.9637 15.6165 22.7369C15.6615 22.6975 15.6708 22.6319 15.6408 22.5812L14.0658 19.8362C14.0246 19.765 13.929 19.7519 13.869 19.8081L13.554 20.1081C12.6821 20.7812 11.874 20.74 11.5608 20.695C9.85835 20.4531 8.03772 21.5106 7.19397 23.3687C6.19272 25.57 6.94085 28.0619 8.86272 28.9337ZM11.7577 22.5587C12.9108 23.0819 13.359 24.5762 12.7608 25.8962C12.1608 27.2162 10.7415 27.8631 9.58835 27.34C8.43522 26.8169 7.9871 25.3225 8.58522 24.0025C9.18335 22.6806 10.6046 22.0337 11.7577 22.5587Z" fill="#00A2B9"/>
<path d="M17.9984 17.3572C17.5273 17.3572 17.1453 17.7392 17.1453 18.2104C17.1453 18.6815 17.5273 19.0635 17.9984 19.0635C18.4696 19.0635 18.8516 18.6815 18.8516 18.2104C18.8516 17.7392 18.4696 17.3572 17.9984 17.3572Z" fill="#F3AF00"/>
<path d="M20.7793 17.7756L18.6268 13.1968L17.9105 14.2206L20.6424 18.1318L20.7793 17.7756Z" fill="#25262B" fill-opacity="0.2"/>
<path d="M15.4087 17.794L14.9194 18.4915L15.2737 19.4628C15.4012 19.8378 15.4556 20.0271 15.6994 20.1434L17.8613 21.0771L18.0938 20.9159L15.4087 17.794Z" fill="#25262B" fill-opacity="0.2"/>
<path d="M12.9028 6.82816L22.0078 19.8275L20.5603 22.79C19.3303 21.9388 16.5384 20.0057 16.1203 19.7432C16.0097 19.6738 15.9253 19.5744 15.8766 19.4544C15.8766 19.4544 12.7866 11.3975 12.2841 10.0925C11.7384 8.67316 11.7291 8.09754 11.8697 7.67379C11.9916 7.29879 12.9028 6.82816 12.9028 6.82816Z" fill="#F3AF00"/>
<path d="M18.7404 15.721L19.3066 15.9629L12.8641 6.76414C12.8641 6.76414 12.1704 7.50476 13.0554 8.86976L16.9854 14.2566C17.4145 14.906 18.0247 15.4151 18.7404 15.721Z" fill="#F3AF00"/>
<path d="M17.9984 17.3572C17.5273 17.3572 17.1453 17.7392 17.1453 18.2104C17.1453 18.6815 17.5273 19.0635 17.9984 19.0635C18.4696 19.0635 18.8516 18.6815 18.8516 18.2104C18.8516 17.7392 18.4696 17.3572 17.9984 17.3572Z" fill="#F3AF00"/>
<path d="M28.8069 23.3687C27.9631 21.5087 26.1425 20.4531 24.44 20.695C24.1269 20.74 23.3206 20.7812 22.4469 20.1081L22.1319 19.8081C22.0719 19.7519 21.9763 19.765 21.935 19.8362L20.36 22.5812C20.33 22.6337 20.3394 22.6975 20.3844 22.7369C20.6394 22.9637 21.4513 23.7269 21.4456 24.2519C21.4419 24.6325 21.4494 25.6487 21.8488 26.5281C22.8463 28.7294 25.2144 29.8056 27.1363 28.9337C29.0581 28.0619 29.8063 25.57 28.8069 23.3687ZM27.4138 24.0006C28.0138 25.3206 27.5638 26.815 26.4106 27.3381C25.2575 27.8612 23.8381 27.2162 23.2381 25.8944C22.6381 24.5744 23.0881 23.08 24.2413 22.5569C25.3944 22.0337 26.8156 22.6806 27.4138 24.0006Z" fill="#00A2B9"/>
<path d="M12.6245 27.9827C12.737 27.8496 12.8027 27.6527 12.6958 27.4858C12.5777 27.3002 12.0489 27.2796 10.9389 28.0521C10.6295 28.2677 10.7083 28.5827 11.0889 28.6333C11.6383 28.7177 12.287 28.414 12.6245 27.9827Z" fill="#00A2B9"/>
<path d="M26.6787 27.805C27.1475 27.5369 27.3462 27.3794 27.725 26.7513C27.8431 26.5563 28.1112 26.0519 28.3793 26.2806C28.5556 26.4306 28.5425 26.7775 28.4318 27.0925C28.205 27.7319 27.815 28.2006 27.2675 28.4781C27.0706 28.5775 26.5868 28.7331 26.3187 28.6281C25.7937 28.4238 26.2662 28.0394 26.6787 27.805Z" fill="#00A2B9"/>
</g>
<defs>
<clipPath id="clip0_17689_163685">
<rect width="24" height="24" fill="white" transform="translate(6 6)"/>
</clipPath>
</defs>
</svg>
