<svg width="28" height="28" viewBox="0 0 28 28" fill="none" xmlns="http://www.w3.org/2000/svg">
<path d="M8.75 15.1667V8.75C8.75 8.28587 8.93437 7.84075 9.26256 7.51256C9.59075 7.18437 10.0359 7 10.5 7C10.9641 7 11.4092 7.18437 11.7374 7.51256C12.0656 7.84075 12.25 8.28587 12.25 8.75V15.1667" stroke="#00A2B9" stroke-width="2" stroke-linecap="round" stroke-linejoin="round"/>
<path d="M22.75 14.5834V18.375C22.75 22.0798 19.7464 25.0834 16.0417 25.0834H15.4583C11.7536 25.0834 8.75 22.0798 8.75 18.375V14.5834" stroke="#00A2B9" stroke-width="2" stroke-linecap="round" stroke-linejoin="round"/>
<path d="M12.25 16.9167V14C12.25 13.5359 12.4344 13.0908 12.7626 12.7626C13.0908 12.4344 13.5359 12.25 14 12.25C14.4641 12.25 14.9092 12.4344 15.2374 12.7626C15.5656 13.0908 15.75 13.5359 15.75 14V16.9167" stroke="#00A2B9" stroke-width="2" stroke-linecap="round" stroke-linejoin="round"/>
<path d="M15.75 16.9167V14C15.75 13.5359 15.9344 13.0908 16.2626 12.7626C16.5908 12.4344 17.0359 12.25 17.5 12.25C17.9641 12.25 18.4092 12.4344 18.7374 12.7626C19.0656 13.0908 19.25 13.5359 19.25 14V16.9167" stroke="#00A2B9" stroke-width="2" stroke-linecap="round" stroke-linejoin="round"/>
<path d="M19.25 16.9167V14C19.25 13.5359 19.4344 13.0908 19.7626 12.7626C20.0908 12.4344 20.5359 12.25 21 12.25C21.4641 12.25 21.9092 12.4344 22.2374 12.7626C22.5656 13.0908 22.75 13.5359 22.75 14V16.9167" stroke="#00A2B9" stroke-width="2" stroke-linecap="round" stroke-linejoin="round"/>
<path d="M16.3334 8.74996C16.3349 7.50134 15.9344 6.2854 15.1912 5.28204C14.6492 4.54787 13.9423 3.9513 13.1274 3.54043C12.3126 3.12956 11.4126 2.91589 10.5 2.91663C9.58745 2.91589 8.68747 3.12956 7.87263 3.54043C7.05778 3.9513 6.35086 4.54787 5.80886 5.28204C5.06567 6.2854 4.66519 7.50134 4.66669 8.74996" stroke="#00A2B9" stroke-width="2" stroke-linecap="round"/>
</svg>
