<svg width="24" height="24" viewBox="0 0 24 24" fill="none" xmlns="http://www.w3.org/2000/svg">
<path d="M5.57143 13.5H18.4286C19.1106 13.5 19.7646 13.7709 20.2468 14.2532C20.7291 14.7354 21 15.3894 21 16.0714V19.9286C21 20.6106 20.7291 21.2646 20.2468 21.7468C19.7646 22.2291 19.1106 22.5 18.4286 22.5H5.57143C4.88944 22.5 4.23539 22.2291 3.75315 21.7468C3.27092 21.2646 3 20.6106 3 19.9286V16.0714C3 15.3894 3.27092 14.7354 3.75315 14.2532C4.23539 13.7709 4.88944 13.5 5.57143 13.5ZM5.57143 14.7857C5.23044 14.7857 4.90341 14.9212 4.66229 15.1623C4.42117 15.4034 4.28571 15.7304 4.28571 16.0714V19.9286C4.28571 20.2696 4.42117 20.5966 4.66229 20.8377C4.90341 21.0788 5.23044 21.2143 5.57143 21.2143H18.4286C18.7696 21.2143 19.0966 21.0788 19.3377 20.8377C19.5788 20.5966 19.7143 20.2696 19.7143 19.9286V16.0714C19.7143 15.7304 19.5788 15.4034 19.3377 15.1623C19.0966 14.9212 18.7696 14.7857 18.4286 14.7857H5.57143Z" fill="black"/>
<path d="M5.57143 1.5H18.4286C19.1106 1.5 19.7646 1.77092 20.2468 2.25315C20.7291 2.73539 21 3.38944 21 4.07143V7.92857C21 8.61056 20.7291 9.26461 20.2468 9.74685C19.7646 10.2291 19.1106 10.5 18.4286 10.5H5.57143C4.88944 10.5 4.23539 10.2291 3.75315 9.74685C3.27092 9.26461 3 8.61056 3 7.92857V4.07143C3 3.38944 3.27092 2.73539 3.75315 2.25315C4.23539 1.77092 4.88944 1.5 5.57143 1.5ZM5.57143 2.78571C5.23044 2.78571 4.90341 2.92117 4.66229 3.16229C4.42117 3.40341 4.28571 3.73044 4.28571 4.07143V7.92857C4.28571 8.26956 4.42117 8.59659 4.66229 8.83771C4.90341 9.07883 5.23044 9.21429 5.57143 9.21429H18.4286C18.7696 9.21429 19.0966 9.07883 19.3377 8.83771C19.5788 8.59659 19.7143 8.26956 19.7143 7.92857V4.07143C19.7143 3.73044 19.5788 3.40341 19.3377 3.16229C19.0966 2.92117 18.7696 2.78571 18.4286 2.78571H5.57143Z" fill="black"/>
</svg>
