<svg width="28" height="28" viewBox="0 0 28 28" fill="none" xmlns="http://www.w3.org/2000/svg">
<path d="M13.0956 8.95441C13.1607 9.01944 13.2125 9.09668 13.2477 9.18173C13.283 9.26677 13.3012 9.35794 13.3012 9.45001C13.3012 9.54209 13.283 9.63326 13.2477 9.7183C13.2125 9.80334 13.1607 9.88059 13.0956 9.94561L10.6456 12.3956C10.518 12.523 10.3463 12.5963 10.1661 12.6002C9.98586 12.6041 9.81109 12.5383 9.67815 12.4166L8.62815 11.4576C8.5568 11.3966 8.49845 11.3219 8.45655 11.2379C8.41466 11.1539 8.39009 11.0624 8.3843 10.9687C8.37851 10.875 8.39162 10.7811 8.42285 10.6926C8.45408 10.6041 8.50279 10.5228 8.56609 10.4534C8.62938 10.3841 8.70597 10.3283 8.7913 10.2892C8.87662 10.25 8.96894 10.2285 9.06277 10.2258C9.15659 10.2231 9.25 10.2393 9.33744 10.2734C9.42488 10.3075 9.50456 10.3589 9.57175 10.4244L10.1276 10.9312L12.1044 8.95441C12.1694 8.88922 12.2466 8.8375 12.3317 8.80221C12.4167 8.76693 12.5079 8.74876 12.6 8.74876C12.692 8.74876 12.7832 8.76693 12.8682 8.80221C12.9533 8.8375 13.0305 8.88922 13.0956 8.95441ZM13.0956 16.9456C13.227 16.8142 13.3008 16.6359 13.3008 16.45C13.3008 16.2641 13.227 16.0859 13.0956 15.9544C12.9641 15.823 12.7858 15.7491 12.6 15.7491C12.4141 15.7491 12.2358 15.823 12.1044 15.9544L10.1276 17.9312L9.57175 17.4244C9.43365 17.3064 9.25508 17.2467 9.07375 17.2579C8.89243 17.2691 8.72257 17.3503 8.60006 17.4845C8.47755 17.6186 8.41199 17.7951 8.41723 17.9767C8.42247 18.1583 8.49811 18.3308 8.62815 18.4576L9.67815 19.4166C9.81101 19.5379 9.98548 19.6034 10.1654 19.5995C10.3452 19.5956 10.5167 19.5226 10.6442 19.3956L13.0942 16.9456H13.0956ZM15.4 9.80001C15.2143 9.80001 15.0363 9.87376 14.905 10.005C14.7737 10.1363 14.7 10.3144 14.7 10.5C14.7 10.6857 14.7737 10.8637 14.905 10.995C15.0363 11.1263 15.2143 11.2 15.4 11.2H18.9C19.0856 11.2 19.2637 11.1263 19.3949 10.995C19.5262 10.8637 19.6 10.6857 19.6 10.5C19.6 10.3144 19.5262 10.1363 19.3949 10.005C19.2637 9.87376 19.0856 9.80001 18.9 9.80001H15.4ZM4.19995 8.40001C4.19995 7.2861 4.64245 6.21782 5.4301 5.43016C6.21776 4.64251 7.28604 4.20001 8.39995 4.20001H19.6C20.7139 4.20001 21.7821 4.64251 22.5698 5.43016C23.3575 6.21782 23.8 7.2861 23.8 8.40001V13.4414C23.3524 13.2128 22.8835 13.0285 22.4 12.8912V8.40001C22.4 7.65741 22.105 6.94521 21.5799 6.42011C21.0547 5.89501 20.3426 5.60001 19.6 5.60001H8.39995C7.65735 5.60001 6.94515 5.89501 6.42005 6.42011C5.89495 6.94521 5.59995 7.65741 5.59995 8.40001V19.6C5.59995 20.3426 5.89495 21.0548 6.42005 21.5799C6.94515 22.105 7.65735 22.4 8.39995 22.4H12.8912C13.0284 22.8844 13.2132 23.352 13.4414 23.8H8.39995C7.28604 23.8 6.21776 23.3575 5.4301 22.5699C4.64245 21.7822 4.19995 20.7139 4.19995 19.6V8.40001ZM14.8876 19.488C15.2491 19.3955 15.5885 19.2317 15.8858 19.0062C16.1831 18.7807 16.4323 18.4981 16.6188 18.1749C16.8054 17.8516 16.9254 17.4944 16.9719 17.1242C17.0184 16.7539 16.9904 16.3781 16.8896 16.0188L16.6712 15.239C17.0282 14.9632 17.4132 14.7294 17.822 14.539L18.2938 15.0402C18.5555 15.3178 18.8712 15.5389 19.2215 15.69C19.5718 15.8411 19.9493 15.9191 20.3308 15.9191C20.7123 15.9191 21.0897 15.8411 21.44 15.69C21.7903 15.5389 22.106 15.3178 22.3678 15.0402L22.8186 14.56C23.2358 14.756 23.6278 14.9982 23.9876 15.2852L23.8112 15.876C23.7021 16.2415 23.6689 16.6253 23.7135 17.0041C23.758 17.3828 23.8794 17.7485 24.0703 18.0786C24.2611 18.4088 24.5174 18.6965 24.8233 18.9242C25.1293 19.1519 25.4785 19.3147 25.8496 19.4026L26.3396 19.5174C26.3969 19.99 26.4016 20.4676 26.3536 20.9412L25.7096 21.1064C25.3476 21.1982 25.0077 21.3616 24.7098 21.5869C24.412 21.8122 24.1623 22.0948 23.9754 22.4182C23.7886 22.7415 23.6684 23.099 23.6219 23.4695C23.5754 23.84 23.6036 24.2161 23.7048 24.5756L23.9232 25.354C23.5676 25.6298 23.1812 25.865 22.7724 26.054L22.3006 25.5528C22.0389 25.2753 21.7233 25.0542 21.3732 24.9031C21.023 24.752 20.6456 24.674 20.2643 24.674C19.8829 24.674 19.5055 24.752 19.1553 24.9031C18.8052 25.0542 18.4896 25.2753 18.228 25.5528L17.78 26.04C17.3637 25.8432 16.9711 25.6 16.6096 25.3148L16.786 24.7226C16.8954 24.3571 16.929 23.973 16.8846 23.5941C16.8402 23.2151 16.7189 22.8492 16.528 22.5188C16.3371 22.1884 16.0807 21.9005 15.7745 21.6728C15.4684 21.4451 15.1189 21.2824 14.7476 21.1946L14.259 21.0798C14.202 20.6076 14.1973 20.1306 14.245 19.6574L14.889 19.488H14.8876ZM21.6986 20.3C21.6986 19.9287 21.5511 19.5726 21.2885 19.3101C21.026 19.0475 20.6699 18.9 20.2986 18.9C19.9272 18.9 19.5712 19.0475 19.3086 19.3101C19.0461 19.5726 18.8986 19.9287 18.8986 20.3C18.8986 20.6713 19.0461 21.0274 19.3086 21.29C19.5712 21.5525 19.9272 21.7 20.2986 21.7C20.6699 21.7 21.026 21.5525 21.2885 21.29C21.5511 21.0274 21.6986 20.6713 21.6986 20.3Z" fill="#00A2B9"/>
</svg>
