<svg width="28" height="28" viewBox="0 0 28 28" fill="none" xmlns="http://www.w3.org/2000/svg">
<g clip-path="url(#clip0_962_2988)">
<g filter="url(#filter0_i_962_2988)">
<path d="M20.186 21.3379C21.9112 21.1227 23.8076 21.2984 25.0845 21.4795V23.9238C25.0844 24.539 24.5838 24.9824 24.0112 24.9824C23.8981 24.9824 23.7819 24.9643 23.6665 24.9277C22.639 24.6018 21.612 24.4717 20.5845 24.4717C16.4865 24.4717 12.3885 26.5459 8.29053 26.5459C6.99968 26.5459 5.70799 26.3404 4.41748 25.7988C4.0312 25.6371 3.79053 25.2386 3.79053 24.8184V23.8008C4.91646 24.1154 6.24202 24.4266 7.31104 24.4951C9.62006 24.6431 10.9575 24.3204 13.23 23.8223C16.0476 23.2047 17.6634 21.6527 20.186 21.3379Z" fill="#AFB3BB"/>
</g>
<circle cx="14.4375" cy="6.9999" r="5.55821" fill="#AFB3BB" stroke="url(#paint0_linear_962_2988)" stroke-width="0.0835785"/>
<g filter="url(#filter1_i_962_2988)">
<path d="M21.4127 7.56152C22.8944 7.57591 24.3767 7.82306 25.858 8.44434C26.3151 8.63606 26.5997 9.1069 26.6002 9.60449V22.0967C26.6001 22.8246 26.0082 23.3486 25.3307 23.3486C25.1969 23.3486 25.0599 23.3284 24.9234 23.2852C23.7072 22.8993 22.4913 22.7451 21.275 22.7451C16.4252 22.7451 11.575 25.2002 6.72519 25.2002C5.19765 25.2002 3.66933 24.9563 2.14218 24.3154C1.68504 24.1241 1.39999 23.6526 1.39999 23.1553V10.6631C1.40004 9.93519 1.99203 9.41128 2.66953 9.41113C2.8034 9.41113 2.9411 9.4313 3.07773 9.47461C4.29381 9.86037 5.50911 10.0146 6.72519 10.0146C7.18021 10.0146 7.63541 9.99229 8.09042 9.95312C8.85358 11.5906 10.2313 12.8822 11.9273 13.5342C11.2673 14.227 10.8502 15.2449 10.8502 16.3799C10.8502 18.467 12.2598 20.1599 13.9996 20.1602C15.7388 20.1602 17.15 18.4679 17.15 16.3799C17.15 15.3607 16.8127 14.4366 16.2662 13.7568C19.0709 12.9996 21.1758 10.5447 21.4127 7.56152ZM3.28964 22.7285C4.08184 23.0163 4.91135 23.1934 5.79843 23.2646C5.73819 21.9208 4.64296 20.8467 3.28964 20.8467V22.7285ZM24.7096 18.9814C23.6537 19.1155 22.802 19.8951 22.5709 20.9219C23.3035 20.9845 24.0198 21.0811 24.7096 21.2539V18.9814ZM3.28964 13.8867C4.51027 13.8867 5.52784 13.0147 5.75937 11.8574C4.90895 11.8039 4.0818 11.7043 3.28964 11.5059V13.8867ZM22.5123 9.5332C22.5497 10.7872 23.4935 11.8029 24.7096 11.957V10.0322C24.0119 9.77911 23.2816 9.61864 22.5123 9.5332Z" fill="#AFB3BB"/>
</g>
<g clip-path="url(#clip1_962_2988)">
<path d="M12.9792 6.41659H11.2292V4.66659M11.2292 6.41659L12.5796 5.14492C12.9819 4.74235 13.5042 4.48144 14.0677 4.40151C14.6312 4.32158 15.2054 4.42696 15.7038 4.70178C16.2022 4.97659 16.5978 5.40595 16.831 5.92515C17.0641 6.44435 17.1222 7.02527 16.9965 7.58036C16.8708 8.13544 16.568 8.63463 16.1339 9.0027C15.6998 9.37077 15.1578 9.58777 14.5896 9.62101C14.0215 9.65425 13.4579 9.50192 12.9838 9.18699C12.5097 8.87205 12.1509 8.41157 11.9613 7.87492" stroke="white" stroke-width="0.583333" stroke-linecap="round" stroke-linejoin="round"/>
</g>
<foreignObject x="-129.763" y="-109.7" width="288.4" height="287.5"><div xmlns="http://www.w3.org/1999/xhtml" style="backdrop-filter:blur(7px);clip-path:url(#bgblur_2_962_2988_clip_path);height:100%;width:100%"></div></foreignObject><g filter="url(#filter2_d_962_2988)" data-figma-bg-blur-radius="14">
<mask id="path-5-inside-1_962_2988" fill="white">
<path d="M17.0334 13.5005C18.0096 14.2696 18.6379 15.4611 18.6379 16.8003C18.6379 19.1198 16.7572 21.0004 14.4377 21.0005C12.1181 21.0005 10.2375 19.1199 10.2375 16.8003C10.2375 15.4612 10.865 14.2696 11.841 13.5005C12.6441 13.8216 13.52 14.0005 14.4377 14.0005C15.3551 14.0005 16.2305 13.8214 17.0334 13.5005Z"/>
</mask>
<path d="M17.0334 13.5005C18.0096 14.2696 18.6379 15.4611 18.6379 16.8003C18.6379 19.1198 16.7572 21.0004 14.4377 21.0005C12.1181 21.0005 10.2375 19.1199 10.2375 16.8003C10.2375 15.4612 10.865 14.2696 11.841 13.5005C12.6441 13.8216 13.52 14.0005 14.4377 14.0005C15.3551 14.0005 16.2305 13.8214 17.0334 13.5005Z" fill="white"/>
<path d="M17.0334 13.5005L17.0767 13.4455L17.0449 13.4205L17.0074 13.4355L17.0334 13.5005ZM18.6379 16.8003L18.7079 16.8003V16.8003H18.6379ZM14.4377 21.0005V21.0705H14.4377L14.4377 21.0005ZM10.2375 16.8003H10.1675V16.8003L10.2375 16.8003ZM11.841 13.5005L11.867 13.4355L11.8294 13.4205L11.7977 13.4455L11.841 13.5005ZM14.4377 14.0005V14.0705H14.4377L14.4377 14.0005ZM17.0334 13.5005L16.9901 13.5555C17.9502 14.3119 18.5679 15.4835 18.5679 16.8003H18.6379H18.7079C18.7079 15.4387 18.069 14.2272 17.0767 13.4455L17.0334 13.5005ZM18.6379 16.8003L18.5679 16.8003C18.5679 19.0811 16.7185 20.9304 14.4377 20.9305L14.4377 21.0005L14.4377 21.0705C16.7958 21.0704 18.7079 19.1584 18.7079 16.8003L18.6379 16.8003ZM14.4377 21.0005V20.9305C12.1568 20.9305 10.3075 19.0812 10.3075 16.8003L10.2375 16.8003L10.1675 16.8003C10.1675 19.1585 12.0794 21.0705 14.4377 21.0705V21.0005ZM10.2375 16.8003H10.3075C10.3075 15.4836 10.9244 14.3119 11.8843 13.5555L11.841 13.5005L11.7977 13.4455C10.8055 14.2272 10.1675 15.4388 10.1675 16.8003H10.2375ZM11.841 13.5005L11.815 13.5655C12.6261 13.8898 13.5108 14.0705 14.4377 14.0705V14.0005V13.9305C13.5291 13.9305 12.6621 13.7534 11.867 13.4355L11.841 13.5005ZM14.4377 14.0005L14.4377 14.0705C15.3643 14.0705 16.2485 13.8896 17.0594 13.5655L17.0334 13.5005L17.0074 13.4355C16.2125 13.7532 15.346 13.9305 14.4377 13.9305L14.4377 14.0005Z" fill="url(#paint1_linear_962_2988)" mask="url(#path-5-inside-1_962_2988)"/>
</g>
</g>
<defs>
<filter id="filter0_i_962_2988" x="3.79053" y="19.4538" width="23.0789" height="7.09213" filterUnits="userSpaceOnUse" color-interpolation-filters="sRGB">
<feFlood flood-opacity="0" result="BackgroundImageFix"/>
<feBlend mode="normal" in="SourceGraphic" in2="BackgroundImageFix" result="shape"/>
<feColorMatrix in="SourceAlpha" type="matrix" values="0 0 0 0 0 0 0 0 0 0 0 0 0 0 0 0 0 0 127 0" result="hardAlpha"/>
<feOffset dx="1.785" dy="-1.785"/>
<feGaussianBlur stdDeviation="1.785"/>
<feComposite in2="hardAlpha" operator="arithmetic" k2="-1" k3="1"/>
<feColorMatrix type="matrix" values="0 0 0 0 0.101961 0 0 0 0 0.105882 0 0 0 0 0.117647 0 0 0 0.24 0"/>
<feBlend mode="normal" in2="shape" result="effect1_innerShadow_962_2988"/>
</filter>
<filter id="filter1_i_962_2988" x="0.507494" y="7.56152" width="26.0927" height="18.5312" filterUnits="userSpaceOnUse" color-interpolation-filters="sRGB">
<feFlood flood-opacity="0" result="BackgroundImageFix"/>
<feBlend mode="normal" in="SourceGraphic" in2="BackgroundImageFix" result="shape"/>
<feColorMatrix in="SourceAlpha" type="matrix" values="0 0 0 0 0 0 0 0 0 0 0 0 0 0 0 0 0 0 127 0" result="hardAlpha"/>
<feOffset dx="-0.8925" dy="0.8925"/>
<feGaussianBlur stdDeviation="0.8925"/>
<feComposite in2="hardAlpha" operator="arithmetic" k2="-1" k3="1"/>
<feColorMatrix type="matrix" values="0 0 0 0 0.901961 0 0 0 0 0.964706 0 0 0 0 0.972549 0 0 0 0.16 0"/>
<feBlend mode="normal" in2="shape" result="effect1_innerShadow_962_2988"/>
</filter>
<filter id="filter2_d_962_2988" x="-129.763" y="-109.7" width="288.4" height="287.5" filterUnits="userSpaceOnUse" color-interpolation-filters="sRGB">
<feFlood flood-opacity="0" result="BackgroundImageFix"/>
<feColorMatrix in="SourceAlpha" type="matrix" values="0 0 0 0 0 0 0 0 0 0 0 0 0 0 0 0 0 0 127 0" result="hardAlpha"/>
<feOffset dy="16.8"/>
<feGaussianBlur stdDeviation="70"/>
<feColorMatrix type="matrix" values="0 0 0 0 1 0 0 0 0 1 0 0 0 0 1 0 0 0 0.8 0"/>
<feBlend mode="normal" in2="BackgroundImageFix" result="effect1_dropShadow_962_2988"/>
<feBlend mode="normal" in="SourceGraphic" in2="effect1_dropShadow_962_2988" result="shape"/>
</filter>
<clipPath id="bgblur_2_962_2988_clip_path" transform="translate(129.763 109.7)"><path d="M17.0334 13.5005C18.0096 14.2696 18.6379 15.4611 18.6379 16.8003C18.6379 19.1198 16.7572 21.0004 14.4377 21.0005C12.1181 21.0005 10.2375 19.1199 10.2375 16.8003C10.2375 15.4612 10.865 14.2696 11.841 13.5005C12.6441 13.8216 13.52 14.0005 14.4377 14.0005C15.3551 14.0005 16.2305 13.8214 17.0334 13.5005Z"/>
</clipPath><linearGradient id="paint0_linear_962_2988" x1="14.4375" y1="1.3999" x2="14.4375" y2="12.5999" gradientUnits="userSpaceOnUse">
<stop stop-color="white"/>
<stop offset="1" stop-color="white" stop-opacity="0.12"/>
</linearGradient>
<linearGradient id="paint1_linear_962_2988" x1="14.4377" y1="13.5005" x2="14.4377" y2="21.0005" gradientUnits="userSpaceOnUse">
<stop stop-color="white"/>
<stop offset="1" stop-color="white" stop-opacity="0.12"/>
</linearGradient>
<clipPath id="clip0_962_2988">
<rect width="28" height="28" fill="white"/>
</clipPath>
<clipPath id="clip1_962_2988">
<rect width="7" height="7" fill="white" transform="matrix(-1 0 0 1 17.9375 3.5)"/>
</clipPath>
</defs>
</svg>
