<svg width="16" height="16" viewBox="0 0 16 16" fill="none" xmlns="http://www.w3.org/2000/svg">
<path d="M7.33594 14C7.33594 13.7348 7.23058 13.4804 7.04304 13.2929C6.85551 13.1054 6.60115 13 6.33594 13C6.07072 13 5.81637 13.1054 5.62883 13.2929C5.44129 13.4804 5.33594 13.7348 5.33594 14H2.0026C1.82579 14 1.65622 13.9298 1.5312 13.8047C1.40618 13.6797 1.33594 13.5101 1.33594 13.3333V2.66667C1.33594 2.48986 1.40618 2.32029 1.5312 2.19526C1.65622 2.07024 1.82579 2 2.0026 2H5.33594C5.33594 2.26522 5.44129 2.51957 5.62883 2.70711C5.81637 2.89464 6.07072 3 6.33594 3C6.60115 3 6.85551 2.89464 7.04304 2.70711C7.23058 2.51957 7.33594 2.26522 7.33594 2H14.0026C14.1794 2 14.349 2.07024 14.474 2.19526C14.599 2.32029 14.6693 2.48986 14.6693 2.66667V6.33333C14.2272 6.33333 13.8033 6.50893 13.4908 6.82149C13.1782 7.13405 13.0026 7.55797 13.0026 8C13.0026 8.44203 13.1782 8.86595 13.4908 9.17851C13.8033 9.49107 14.2272 9.66667 14.6693 9.66667V13.3333C14.6693 13.5101 14.599 13.6797 14.474 13.8047C14.349 13.9298 14.1794 14 14.0026 14H7.33594ZM6.33594 7C6.60115 7 6.85551 6.89464 7.04304 6.70711C7.23058 6.51957 7.33594 6.26522 7.33594 6C7.33594 5.73478 7.23058 5.48043 7.04304 5.29289C6.85551 5.10536 6.60115 5 6.33594 5C6.07072 5 5.81637 5.10536 5.62883 5.29289C5.44129 5.48043 5.33594 5.73478 5.33594 6C5.33594 6.26522 5.44129 6.51957 5.62883 6.70711C5.81637 6.89464 6.07072 7 6.33594 7ZM6.33594 11C6.60115 11 6.85551 10.8946 7.04304 10.7071C7.23058 10.5196 7.33594 10.2652 7.33594 10C7.33594 9.73478 7.23058 9.48043 7.04304 9.29289C6.85551 9.10536 6.60115 9 6.33594 9C6.07072 9 5.81637 9.10536 5.62883 9.29289C5.44129 9.48043 5.33594 9.73478 5.33594 10C5.33594 10.2652 5.44129 10.5196 5.62883 10.7071C5.81637 10.8946 6.07072 11 6.33594 11Z" fill="#00A2B9"/>
</svg>
