<svg width="120" height="120" viewBox="0 0 120 120" fill="none" xmlns="http://www.w3.org/2000/svg">
<circle cx="60" cy="60" r="60" fill="#EFEFEF"/>
<path d="M39.8662 76.9336C38.2931 78.7469 37.333 81.2535 37.333 84V88.667H28V84.667C28 80.9604 33.0398 77.8403 39.8662 76.9336ZM60 74C69.5733 74 77.333 78.48 77.333 84V88.667H42.667V84C42.667 78.48 50.4267 74 60 74ZM80.1338 76.9336C86.9602 77.8403 92 80.9604 92 84.667V88.667H82.667V84C82.667 81.2535 81.7069 78.7469 80.1338 76.9336ZM41.333 56.667C42.8263 56.667 44.2131 57.0671 45.4131 57.7871C45.0132 61.6003 46.1335 65.3868 48.4268 68.3467C47.0934 70.9067 44.4263 72.667 41.333 72.667C39.2114 72.6669 37.177 71.8235 35.6768 70.3232C34.1765 68.823 33.3331 66.7886 33.333 64.667C33.333 62.5453 34.1765 60.5101 35.6768 59.0098C37.177 57.5097 39.2115 56.6671 41.333 56.667ZM78.667 56.667C80.7885 56.6671 82.823 57.5097 84.3232 59.0098C85.8235 60.5101 86.667 62.5453 86.667 64.667C86.6669 66.7886 85.8235 68.823 84.3232 70.3232C82.823 71.8235 80.7886 72.6669 78.667 72.667C75.5737 72.667 72.9066 70.9067 71.5732 68.3467C73.8981 65.3453 74.9776 61.5635 74.5869 57.7871C75.7869 57.0671 77.1737 56.667 78.667 56.667ZM60 50C62.4753 50 64.8493 50.9832 66.5996 52.7334C68.3499 54.4837 69.3329 56.8578 69.333 59.333C69.333 61.8083 68.3498 64.1823 66.5996 65.9326C64.8493 67.683 62.4754 68.667 60 68.667C57.5246 68.667 55.1507 67.683 53.4004 65.9326C51.6502 64.1823 50.667 61.8083 50.667 59.333C50.6671 56.8578 51.6501 54.4837 53.4004 52.7334C55.1507 50.9832 57.5247 50 60 50ZM48.9004 34.667C50.6093 34.6671 52.2486 35.3453 53.457 36.5537C54.6654 37.7621 55.3437 39.4014 55.3438 41.1104C55.3438 49.0863 44.7415 50.6576 44.6777 50.667V48L44.4336 47.9902C42.6863 47.9297 41.0324 47.1854 39.8291 45.917C38.6259 44.6486 37.9693 42.958 38.001 41.21C38.0326 39.462 38.7498 37.7963 39.998 36.5723C41.2465 35.3482 42.9264 34.6642 44.6748 34.667H48.9004ZM74.0107 32C75.7787 32 77.4744 32.7021 78.7246 33.9521C79.9749 35.2024 80.6777 36.8989 80.6777 38.667C80.6776 40.435 79.9748 42.1307 78.7246 43.3809C77.4744 44.631 75.7788 45.333 74.0107 45.333H71.3438V49.333C71.2695 49.3225 59.3439 47.621 59.3438 38.9814C59.3438 37.13 60.0795 35.3542 61.3887 34.0449C62.6979 32.7357 64.4737 32.0001 66.3252 32H74.0107Z" fill="#BDBDBD"/>
<circle cx="80" cy="75" r="18.1429" fill="#BDBDBD" stroke="#EFEFEF" stroke-width="3.71429"/>
<path d="M75 69.999L85 79.999" stroke="#EFEFEF" stroke-width="3.71429" stroke-linecap="round" stroke-linejoin="round"/>
<path d="M75 79.999L85 69.999" stroke="#EFEFEF" stroke-width="3.71429" stroke-linecap="round" stroke-linejoin="round"/>
</svg>
