<svg width="120" height="120" viewBox="0 0 120 120" fill="none" xmlns="http://www.w3.org/2000/svg">
<circle opacity="0.5" cx="60" cy="60" r="60" fill="#FEEDEC"/>
<circle cx="60" cy="60" r="48" fill="#FEEDEC"/>
<path d="M53.1768 56.3227L66.4565 62.32L60.3725 70.8375L59.7081 71.7677L60.1724 72.8123L66.9225 88H49C45.6863 88 43 85.3137 43 82V38C43 34.6863 45.6863 32 49 32H52.7876L57.7723 41.554L52.1841 53.6619L51.3391 55.4928L53.1768 56.3227Z" stroke="#DE350B" stroke-width="4"/>
<path d="M77 57.219L64.4179 50.3192L70.1385 42.1469L70.9043 41.0529L70.1873 39.9263L65.1433 32H71C74.3137 32 77 34.6863 77 38V57.219ZM60.0231 72.2957L77 61.8484V82C77 85.3137 74.3137 88 71 88H66.8141L63.3357 79.9562L60.0231 72.2957Z" stroke="#DE350B" stroke-width="4"/>
<path d="M51 69.5L62.5 73L71 71V86H51V69.5Z" fill="#FEEDEC"/>
<path d="M60 82.5C60.9946 82.5 61.9484 82.1049 62.6516 81.4016C63.3549 80.6984 63.75 79.7446 63.75 78.75C63.75 77.7554 63.3549 76.8016 62.6516 76.0984C61.9484 75.3951 60.9946 75 60 75C59.0054 75 58.0516 75.3951 57.3484 76.0984C56.6451 76.8016 56.25 77.7554 56.25 78.75C56.25 79.7446 56.6451 80.6984 57.3484 81.4016C58.0516 82.1049 59.0054 82.5 60 82.5Z" fill="#DE350B"/>
</svg>
