<svg width="22" height="22" viewBox="0 0 22 22" fill="none" xmlns="http://www.w3.org/2000/svg">
<path d="M20.6059 8.6375C20.2496 8.27188 19.884 7.8875 19.7434 7.55938C19.6027 7.23125 19.6121 6.74375 19.6027 6.24688C19.5934 5.3375 19.5746 4.29687 18.8527 3.575C18.1309 2.85312 17.0902 2.83437 16.1809 2.825C15.684 2.81562 15.1777 2.80625 14.8684 2.68437C14.559 2.5625 14.1559 2.17813 13.7902 1.82188C13.1434 1.20313 12.4027 0.5 11.4277 0.5C10.4527 0.5 9.71211 1.20313 9.06524 1.82188C8.69961 2.17813 8.31523 2.54375 7.98711 2.68437C7.65898 2.825 7.17148 2.81562 6.67461 2.825C5.76523 2.83437 4.72461 2.85312 4.00273 3.575C3.28086 4.29687 3.26211 5.3375 3.25273 6.24688C3.24336 6.74375 3.23398 7.25 3.11211 7.55938C2.99023 7.86875 2.60586 8.27188 2.24961 8.6375C1.63086 9.28438 0.927734 10.025 0.927734 11C0.927734 11.975 1.63086 12.7156 2.24961 13.3625C2.60586 13.7281 2.97148 14.1125 3.11211 14.4406C3.25273 14.7687 3.24336 15.2562 3.25273 15.7531C3.26211 16.6625 3.28086 17.7031 4.00273 18.425C4.72461 19.1469 5.76523 19.1656 6.67461 19.175C7.17148 19.1844 7.67773 19.1937 7.98711 19.3156C8.29648 19.4375 8.69961 19.8219 9.06524 20.1781C9.71211 20.7969 10.4527 21.5 11.4277 21.5C12.4027 21.5 13.1434 20.7969 13.7902 20.1781C14.1559 19.8219 14.5402 19.4562 14.8684 19.3156C15.1965 19.175 15.684 19.1844 16.1809 19.175C17.0902 19.1656 18.1309 19.1469 18.8527 18.425C19.5746 17.7031 19.5934 16.6625 19.6027 15.7531C19.6121 15.2562 19.6215 14.75 19.7434 14.4406C19.8652 14.1312 20.2496 13.7281 20.6059 13.3625C21.2246 12.7156 21.9277 11.975 21.9277 11C21.9277 10.025 21.2246 9.28438 20.6059 8.6375ZM19.5184 12.3219C19.0684 12.7906 18.609 13.2781 18.3559 13.8688C18.1027 14.4594 18.1121 15.0969 18.1027 15.725C18.0934 16.3531 18.084 17.075 17.7934 17.3656C17.5027 17.6562 16.8184 17.6656 16.1527 17.675C15.4871 17.6844 14.8684 17.6937 14.2965 17.9281C13.7246 18.1625 13.2184 18.6406 12.7496 19.0906C12.2809 19.5406 11.8027 20 11.4277 20C11.0527 20 10.5746 19.5406 10.1059 19.0906C9.63711 18.6406 9.14961 18.1812 8.55898 17.9281C7.96836 17.675 7.33086 17.6844 6.70273 17.675C6.07461 17.6656 5.35273 17.6562 5.06211 17.3656C4.77148 17.075 4.76211 16.3906 4.75273 15.725C4.74336 15.0594 4.73398 14.4406 4.49961 13.8688C4.26523 13.2969 3.78711 12.7906 3.33711 12.3219C2.88711 11.8531 2.42773 11.375 2.42773 11C2.42773 10.625 2.88711 10.1469 3.33711 9.67813C3.78711 9.20938 4.24648 8.72188 4.49961 8.13125C4.75273 7.54063 4.74336 6.90312 4.75273 6.275C4.76211 5.64687 4.77148 4.925 5.06211 4.63437C5.35273 4.34375 6.03711 4.33437 6.70273 4.325C7.36836 4.31562 7.98711 4.30625 8.55898 4.07187C9.13086 3.8375 9.63711 3.35938 10.1059 2.90938C10.5746 2.45938 11.0527 2 11.4277 2C11.8027 2 12.2809 2.45938 12.7496 2.90938C13.2184 3.35938 13.7059 3.81875 14.2965 4.07187C14.8871 4.325 15.5246 4.31562 16.1527 4.325C16.7809 4.33437 17.5027 4.34375 17.7934 4.63437C18.084 4.925 18.0934 5.60937 18.1027 6.275C18.1121 6.94062 18.1215 7.55938 18.3559 8.13125C18.5902 8.70312 19.0684 9.20938 19.5184 9.67813C19.9684 10.1469 20.4277 10.625 20.4277 11C20.4277 11.375 19.9684 11.8531 19.5184 12.3219ZM10.6777 11.75V6.5C10.6777 6.30109 10.7568 6.11032 10.8974 5.96967C11.0381 5.82902 11.2288 5.75 11.4277 5.75C11.6266 5.75 11.8174 5.82902 11.9581 5.96967C12.0987 6.11032 12.1777 6.30109 12.1777 6.5V11.75C12.1777 11.9489 12.0987 12.1397 11.9581 12.2803C11.8174 12.421 11.6266 12.5 11.4277 12.5C11.2288 12.5 11.0381 12.421 10.8974 12.2803C10.7568 12.1397 10.6777 11.9489 10.6777 11.75ZM12.5527 15.125C12.5527 15.3475 12.4868 15.565 12.3631 15.75C12.2395 15.935 12.0638 16.0792 11.8583 16.1644C11.6527 16.2495 11.4265 16.2718 11.2083 16.2284C10.99 16.185 10.7896 16.0778 10.6322 15.9205C10.4749 15.7632 10.3678 15.5627 10.3244 15.3445C10.2809 15.1262 10.3032 14.9 10.3884 14.6945C10.4735 14.4889 10.6177 14.3132 10.8027 14.1896C10.9877 14.066 11.2052 14 11.4277 14C11.7261 14 12.0122 14.1185 12.2232 14.3295C12.4342 14.5405 12.5527 14.8266 12.5527 15.125Z" fill="#DE350B"/>
</svg>
