<svg width="96" height="96" viewBox="0 0 96 96" fill="none" xmlns="http://www.w3.org/2000/svg">
<circle opacity="0.1" cx="48" cy="48" r="48" fill="#F3AF00"/>
<circle opacity="0.2" cx="48" cy="48" r="40" fill="#F3AF00"/>
<circle cx="48" cy="48" r="32" fill="#F3AF00"/>
<path d="M48.0003 24.6665C43.3854 24.6665 38.8742 26.035 35.037 28.5989C31.1999 31.1628 28.2092 34.8069 26.4431 39.0706C24.6771 43.3342 24.215 48.0257 25.1153 52.5519C26.0157 57.0782 28.238 61.2358 31.5012 64.499C34.7644 67.7622 38.922 69.9845 43.4482 70.8848C47.9745 71.7851 52.666 71.3231 56.9296 69.557C61.1932 67.791 64.8374 64.8003 67.4013 60.9631C69.9652 57.126 71.3337 52.6147 71.3337 47.9998C71.3337 44.9357 70.7301 41.9015 69.5575 39.0706C68.3849 36.2396 66.6662 33.6674 64.4995 31.5007C62.3328 29.334 59.7605 27.6153 56.9296 26.4426C54.0987 25.27 51.0645 24.6665 48.0003 24.6665ZM50.3337 57.3332C50.3337 57.952 50.0878 58.5455 49.6503 58.9831C49.2127 59.4207 48.6192 59.6665 48.0003 59.6665C47.3815 59.6665 46.788 59.4207 46.3504 58.9831C45.9128 58.5455 45.667 57.952 45.667 57.3332V45.6665C45.667 45.0477 45.9128 44.4542 46.3504 44.0166C46.788 43.579 47.3815 43.3332 48.0003 43.3332C48.6192 43.3332 49.2127 43.579 49.6503 44.0166C50.0878 44.4542 50.3337 45.0477 50.3337 45.6665V57.3332ZM48.0003 40.9998C47.5388 40.9998 47.0877 40.863 46.704 40.6066C46.3203 40.3502 46.0212 39.9858 45.8446 39.5594C45.668 39.1331 45.6218 38.6639 45.7118 38.2113C45.8019 37.7587 46.0241 37.3429 46.3504 37.0166C46.6767 36.6903 47.0925 36.468 47.5451 36.378C47.9977 36.288 48.4669 36.3342 48.8933 36.5108C49.3196 36.6874 49.684 36.9865 49.9404 37.3702C50.1968 37.7539 50.3337 38.205 50.3337 38.6665C50.3337 39.2853 50.0878 39.8788 49.6503 40.3164C49.2127 40.754 48.6192 40.9998 48.0003 40.9998Z" fill="white"/>
</svg>
