<svg width="120" height="120" viewBox="0 0 120 120" fill="none" xmlns="http://www.w3.org/2000/svg">
<defs>
<linearGradient id="paint0_linear_30975_17376" x1="60.0039" y1="35.9961" x2="60.0039" y2="83.9961" gradientUnits="userSpaceOnUse">
<stop stop-color="#01C6E2"/>
<stop offset="1" stop-color="#007CA4"/>
</linearGradient>
</defs>
<mask id="mask0_30975_17376" style="mask-type:alpha" maskUnits="userSpaceOnUse" x="0" y="0" width="120" height="120">
<circle cx="60" cy="60" r="60" fill="#00A2B9"/>
</mask>
<g mask="url(#mask0_30975_17376)">
<path opacity="0.1" d="M-134.158 79.0382L-137.648 67.7068V137.647H176.469V-15.8828L172.979 -8.85403C169.489 -1.82525 162.508 12.2323 155.528 14.1788C148.548 16.1253 141.567 5.96074 134.587 15.3122C127.606 24.6638 120.626 53.5313 113.646 62.5374C106.665 71.5434 99.6849 60.6879 92.7045 60.799C85.7241 60.91 78.7437 71.9878 71.7633 72.8951C64.7829 73.8025 57.8025 64.5395 50.8221 66.6727C43.8418 68.8059 36.8614 82.3352 29.881 82.6419C22.9006 82.9486 15.9202 70.0327 8.93979 65.9689C1.9594 61.9051 -5.021 66.6934 -12.0014 77.6771C-18.9818 88.6608 -25.9622 105.84 -32.9426 109.089C-39.923 112.338 -46.9033 101.658 -53.8837 92.0704C-60.8641 82.4827 -67.8445 73.9877 -74.8249 71.9373C-81.8053 69.887 -88.7857 74.2813 -95.7661 85.9817C-102.746 97.6822 -109.727 116.689 -116.707 114.861C-123.688 113.033 -130.668 90.3697 -134.158 79.0382Z" fill="#229BD8"/>
<path d="M84.5739 35.9961H36.0039C32.7039 35.9961 30.0339 38.6961 30.0339 41.9961V53.9961C33.3339 53.9961 36.0039 56.6961 36.0039 59.9961C36.0039 63.2961 33.3339 65.9961 30.0039 65.9961V77.9961C30.0039 81.2961 32.7039 83.9961 36.0039 83.9961H84.0039C87.3039 83.9961 90.0039 81.2961 90.0039 77.9961V41.9961C90.0039 38.6961 87.5739 35.9961 84.5739 35.9961ZM77.1939 63.8961L51.7239 70.6761C51.407 70.7611 51.0709 70.7396 50.7673 70.615C50.4638 70.4903 50.2096 70.2693 50.0439 69.9861L46.6839 64.1361C46.1439 63.2361 46.6539 62.0661 47.6439 61.7961C48.1239 61.6761 48.6639 61.7661 49.0539 62.0961L52.2039 64.5561L59.3739 62.6361L53.7039 52.7961C53.5254 52.4843 53.4202 52.1359 53.3965 51.7774C53.3728 51.4189 53.4312 51.0596 53.5671 50.727C53.703 50.3945 53.913 50.0972 54.181 49.8579C54.449 49.6186 54.7681 49.4436 55.1139 49.3461C55.4997 49.2445 55.9047 49.2407 56.2923 49.335C56.6799 49.4293 57.0379 49.6187 57.3339 49.8861L68.4039 60.2061L75.7239 58.2561C76.4637 58.0605 77.2509 58.1651 77.9139 58.5472C78.577 58.9293 79.0622 59.5579 79.2639 60.2961C79.4545 61.0475 79.345 61.8436 78.9585 62.5156C78.5721 63.1877 77.9392 63.6828 77.1939 63.8961Z" fill="url(#paint0_linear_30975_17376)"/>
<circle opacity="0.1" cx="60" cy="60" r="60" fill="#00A2B9"/>
</g>
<path d="M115.314 27.3137C118.314 24.3131 120 20.2435 120 16C120 11.7565 118.314 7.68687 115.314 4.68629C112.313 1.68571 108.243 0 104 0C99.7565 0 95.6869 1.68571 92.6863 4.68629C89.6857 7.68687 88 11.7565 88 16C88 20.2435 89.6857 24.3131 92.6863 27.3137C95.6869 30.3143 99.7565 32 104 32C108.243 32 112.313 30.3143 115.314 27.3137Z" fill="#5AA200"/>
<path d="M111.793 9.02247C112.009 9.1121 112.205 9.24345 112.37 9.40901C112.536 9.57415 112.667 9.77033 112.757 9.98631C112.846 10.2023 112.893 10.4338 112.893 10.6677C112.893 10.9015 112.846 11.1331 112.757 11.349C112.667 11.565 112.536 11.7612 112.37 11.9263L101.704 22.593C101.538 22.7586 101.342 22.8899 101.126 22.9795C100.91 23.0692 100.679 23.1153 100.445 23.1153C100.211 23.1153 99.9796 23.0692 99.7636 22.9795C99.5476 22.8899 99.3514 22.7586 99.1863 22.593L95.6307 19.0375C95.2969 18.7036 95.1094 18.2509 95.1094 17.7788C95.1094 17.3067 95.2969 16.8539 95.6307 16.5201C95.9645 16.1863 96.4173 15.9988 96.8894 15.9988C97.3615 15.9988 97.8142 16.1863 98.1481 16.5201L100.445 18.8206L109.853 9.40901C110.018 9.24345 110.214 9.1121 110.43 9.02247C110.646 8.93285 110.878 8.88672 111.112 8.88672C111.345 8.88672 111.577 8.93285 111.793 9.02247Z" fill="white"/>
</svg>
