<svg width="108" height="96" viewBox="0 0 108 96" fill="none" xmlns="http://www.w3.org/2000/svg">
<g clip-path="url(#clip0_21323_174810)">
<g filter="url(#filter0_f_21323_174810)">
<rect x="-8" y="15" width="52" height="52" fill="#F3AF00" fill-opacity="0.2"/>
</g>
<g filter="url(#filter1_f_21323_174810)">
<path d="M39 24L46.3086 56.3555L74.3553 38.6447L56.6445 66.6914L89 74L56.6445 81.3086L74.3553 109.355L46.3086 91.6445L39 124L31.6914 91.6445L3.64466 109.355L21.3555 81.3086L-11 74L21.3555 66.6914L3.64466 38.6447L31.6914 56.3555L39 24Z" fill="#F3AF00" fill-opacity="0.2"/>
</g>
<rect width="29.4879" height="18.5751" rx="8" transform="matrix(1 0 0 -1 69.376 47.2057)" fill="#F3AF00"/>
<circle cx="2.32849" cy="2.32849" r="2.32849" transform="matrix(1 0 0 -1 74.5733 40.2466)" fill="white"/>
<circle cx="2.32849" cy="2.32849" r="2.32849" transform="matrix(1 0 0 -1 81.7914 40.2466)" fill="white"/>
<circle cx="2.32849" cy="2.32849" r="2.32849" transform="matrix(1 0 0 -1 89.0096 40.2466)" fill="white"/>
<path d="M71.8213 49.3818C71.5877 50.1698 72.3516 50.8875 73.1235 50.6053L87.5724 45.3229L73.2267 44.6418L71.8213 49.3818Z" fill="#F3AF00"/>
<path d="M48.9239 0.742177C48.987 0.848091 49.0486 1.0518 48.9665 1.44989C48.8829 1.85534 48.6634 2.38507 48.2658 3.03831C47.4716 4.343 46.0817 5.95544 44.161 7.77177C40.3316 11.393 34.5546 15.6737 27.7369 19.7354C20.9192 23.7971 14.4044 26.8394 9.39678 28.4828C6.88508 29.3071 4.80538 29.7618 3.27993 29.839C2.51616 29.8777 1.94583 29.8185 1.54947 29.699C1.16031 29.5816 1.01049 29.4305 0.947391 29.3246C0.884291 29.2187 0.822706 29.015 0.9048 28.6169C0.988411 28.2114 1.20787 27.6817 1.60552 27.0285C2.39972 25.7238 3.78962 24.1113 5.71032 22.295C9.53966 18.6738 15.3167 14.3931 22.1344 10.3314C28.9521 6.26972 35.4669 3.22738 40.4745 1.58393C42.9862 0.759621 45.0659 0.305016 46.5914 0.227756C47.3551 0.189074 47.9255 0.248279 48.3218 0.367786C48.711 0.485123 48.8608 0.636263 48.9239 0.742177Z" stroke="#F3AF00" stroke-width="2"/>
<path d="M-2.98438 14.651C-2.98607 14.7742 -2.93755 14.9815 -2.66741 15.2852C-2.39228 15.5945 -1.93735 15.9435 -1.26636 16.3104C0.0737818 17.0432 2.0837 17.7447 4.65523 18.3573C9.78216 19.5787 16.9256 20.3974 24.8607 20.506C32.7958 20.6147 39.959 19.9921 45.1175 18.9115C47.7048 18.3695 49.7332 17.7234 51.0929 17.0276C51.7737 16.6792 52.238 16.3428 52.5215 16.0411C52.7999 15.7449 52.854 15.5391 52.8557 15.4158C52.8574 15.2925 52.8089 15.0853 52.5387 14.7816C52.2636 14.4723 51.8087 14.1233 51.1377 13.7564C49.7976 13.0236 47.7876 12.3221 45.2161 11.7095C40.0892 10.488 32.9458 9.66942 25.0106 9.56073C17.0755 9.45205 9.91234 10.0747 4.75388 11.1553C2.16653 11.6972 0.138155 12.3434 -1.22155 13.0392C-1.90234 13.3876 -2.36666 13.724 -2.65016 14.0257C-2.92852 14.3219 -2.98269 14.5277 -2.98438 14.651Z" stroke="#F3AF00" stroke-width="2"/>
<path d="M-6.992 70.0421L22.6575 77.9867C43.9962 83.7043 56.6595 105.638 50.9418 126.976L47.9795 138.032L-20.3071 119.735L-6.992 70.0421Z" fill="#1A4E66"/>
<path fill-rule="evenodd" clip-rule="evenodd" d="M24.4583 39.7144C26.7685 31.0927 35.6305 25.9762 44.2522 28.2864C53.0538 30.6448 58.1667 39.8092 55.5504 48.5376L50.6467 64.8976C48.4768 72.1369 41.5374 76.8707 34.0055 76.2496L33.8652 76.238L33.14 81.9433C32.3912 87.8336 26.6995 91.7737 20.9227 90.4006C12.9787 88.5124 7.73601 80.9389 8.76566 72.8388L9.01207 70.9003L11.1405 54.156C9.96418 53.2003 9.06743 51.8783 8.64516 50.3024C7.57941 46.3249 9.93981 42.2366 13.9173 41.1708C17.6656 40.1664 21.5125 42.2049 22.8352 45.7721L24.4583 39.7144Z" fill="#FF9BA5"/>
<path d="M13.0694 44.3729C14.7508 43.3373 18.0371 42.6759 19.6875 47.2403" stroke="#D4737C" stroke-width="1.5" stroke-linecap="round"/>
<ellipse cx="47.5419" cy="51.7038" rx="2.10002" ry="3.22003" transform="rotate(9.7725 47.5419 51.7038)" fill="white"/>
<ellipse cx="34.5029" cy="50.2018" rx="2.10002" ry="3.22003" transform="rotate(9.7725 34.5029 50.2018)" fill="white"/>
<ellipse cx="1.79245" cy="2.10252" rx="1.79245" ry="2.10252" transform="matrix(0.987497 0.157637 -0.182706 0.983168 45.0192 47.5553)" fill="#25262B"/>
<ellipse cx="1.79245" cy="2.10252" rx="1.79245" ry="2.10252" transform="matrix(0.987497 0.157637 -0.182706 0.983168 31.9608 46.198)" fill="#25262B"/>
<path d="M39.8759 54.9954C42.8504 55.6986 47.4288 57.6523 41.946 59.8415" stroke="#D4737C" stroke-width="1.5" stroke-linecap="round"/>
<path d="M10.5456 59.1093L11.1549 54.1466C12.6214 54.8253 14.2567 55.0521 15.8526 54.7981L16.1176 54.7559L10.5456 59.1093Z" fill="#D5737C"/>
<path fill-rule="evenodd" clip-rule="evenodd" d="M32.9922 82.8069C32.7643 83.8627 32.3743 84.8456 31.8534 85.734L20.3285 72.0798L25.7166 74.6115C27.5793 75.4867 29.5934 75.9944 31.6483 76.1066L33.8691 76.2279L33.8677 76.2382L33.8652 76.238L33.812 76.6566L32.9922 82.8069Z" fill="#D5737C"/>
<path d="M17.6197 24.741C19.2629 18.3308 25.8233 14.4954 32.2153 16.2082L49.9599 20.9628C57.1239 22.8824 61.8497 29.7003 61.1332 37.0823C60.9854 38.6042 60.5515 40.0845 59.8541 41.4452L57.2672 46.4926C56.5934 47.8073 55.0584 48.4302 53.6589 47.9568C52.7858 47.6614 52.0984 46.9788 51.797 46.1077L50.3197 41.838C49.3622 39.0706 47.6281 36.6375 45.3246 34.8294L42.9881 32.9954C42.0491 38.154 38.3637 42.3857 33.3829 44.0244L28.2833 45.7023C27.1188 46.0854 26.1228 46.8597 25.4643 47.8937L24.5125 49.3885C24.1125 50.0165 23.1419 49.7593 23.1056 49.0156L23.0569 48.0209C22.7083 40.892 13.405 38.4263 9.57146 44.4469L7.57675 36.7155C5.93077 30.3358 11.0509 24.2309 17.6197 24.741Z" fill="#25262B"/>
<path d="M28.7999 62.1495C30.8094 63.8507 34.1762 63.0534 38.1727 66.5235" stroke="#D4737C" stroke-width="2" stroke-linecap="round"/>
<path d="M45.8571 44.3105C49.9339 45.4028 52.6402 44.5751 53.4838 44.0247" stroke="#25262B" stroke-width="3" stroke-linecap="round"/>
<path d="M31.86 41.8468C35.9367 40.7544 38.6431 41.5821 39.4867 42.1325" stroke="#25262B" stroke-width="3" stroke-linecap="round"/>
<path d="M29.8848 59.8266C28.6977 60.5541 28.7799 63.1016 26.0217 63.7912" stroke="#D4737C" stroke-width="1.5" stroke-linecap="round"/>
<path d="M29.423 67.2238C30.9343 67.2238 32.9208 68.8399 33.4863 69.7969" stroke="#D4737C" stroke-width="1.5" stroke-linecap="round"/>
<path d="M58.6088 80.569C57.3718 79.8548 56.9272 78.2572 57.7482 77.0883C58.4217 76.1295 59.0371 75.4318 59.5944 74.9955C60.5104 74.2774 61.8982 73.7171 63.7579 73.3148C65.3705 72.9806 66.6575 72.625 67.6189 72.2481C68.5807 71.8728 69.3204 71.237 69.8378 70.3408C70.4617 69.2602 70.6223 68.158 70.3195 67.0343C70.0158 65.91 69.2276 64.9805 67.9551 64.2458C66.6307 63.4812 65.3882 63.3086 64.2278 63.728C64.0354 63.7978 63.8483 63.871 63.6665 63.9479C62.3024 64.5245 60.5734 64.3562 59.6913 63.1666C58.9145 62.1191 59.0474 60.6198 60.1806 59.9744C61.2794 59.3487 62.5042 58.9115 63.8551 58.6629C66.0246 58.2637 68.213 58.7013 70.4204 59.9758C73.1472 61.5501 74.7992 63.5322 75.3764 65.9221C75.9532 68.3104 75.6177 70.5852 74.3698 72.7466C73.6089 74.0645 72.6793 75.0305 71.5809 75.6447C70.4821 76.2573 68.993 76.8117 67.1136 77.3082C65.1259 77.8123 63.8097 78.3085 63.165 78.7966C62.8907 79.0039 62.5938 79.3072 62.2743 79.7066C61.3819 80.8219 59.8459 81.2832 58.6088 80.569ZM53.0719 90.0242C52.2149 89.5295 51.6602 88.7966 51.4078 87.8257C51.1549 86.8531 51.2796 85.9319 51.7818 85.062C52.284 84.1922 53.0194 83.6236 53.9882 83.3563C54.9552 83.0895 55.8673 83.2035 56.7242 83.6982C57.5812 84.193 58.1365 84.9262 58.3899 85.8977C58.6418 86.8697 58.5166 87.7906 58.0144 88.6604C57.5122 89.5303 56.7773 90.0991 55.8096 90.367C54.8415 90.6333 53.9289 90.519 53.0719 90.0242Z" fill="#F3AF00"/>
</g>
<defs>
<filter id="filter0_f_21323_174810" x="-48" y="-25" width="132" height="132" filterUnits="userSpaceOnUse" color-interpolation-filters="sRGB">
<feFlood flood-opacity="0" result="BackgroundImageFix"/>
<feBlend mode="normal" in="SourceGraphic" in2="BackgroundImageFix" result="shape"/>
<feGaussianBlur stdDeviation="20" result="effect1_foregroundBlur_21323_174810"/>
</filter>
<filter id="filter1_f_21323_174810" x="-51" y="-16" width="180" height="180" filterUnits="userSpaceOnUse" color-interpolation-filters="sRGB">
<feFlood flood-opacity="0" result="BackgroundImageFix"/>
<feBlend mode="normal" in="SourceGraphic" in2="BackgroundImageFix" result="shape"/>
<feGaussianBlur stdDeviation="20" result="effect1_foregroundBlur_21323_174810"/>
</filter>
<clipPath id="clip0_21323_174810">
<path d="M0 12C0 5.37258 5.37258 0 12 0H108V96H12C5.37258 96 0 90.6274 0 84V12Z" fill="white"/>
</clipPath>
</defs>
</svg>
