<svg width="80" height="80" viewBox="0 0 80 80" fill="none" xmlns="http://www.w3.org/2000/svg">
<path d="M0 20C0 8.95431 8.95431 0 20 0H60C71.0457 0 80 8.95431 80 20V60C80 71.0457 71.0457 80 60 80H20C8.95431 80 0 71.0457 0 60V20Z" fill="#00A2B9" fill-opacity="0.1"/>
<path d="M30.9668 60.8438C30.9668 60.6445 30.9355 60.4688 30.873 60.3164C30.8145 60.1602 30.709 60.0195 30.5566 59.8945C30.4082 59.7695 30.2012 59.6504 29.9355 59.5371C29.6738 59.4238 29.3418 59.3086 28.9395 59.1914C28.5176 59.0664 28.1367 58.9277 27.7969 58.7754C27.457 58.6191 27.166 58.4414 26.9238 58.2422C26.6816 58.043 26.4961 57.8145 26.3672 57.5566C26.2383 57.2988 26.1738 57.0039 26.1738 56.6719C26.1738 56.3398 26.2422 56.0332 26.3789 55.752C26.5156 55.4707 26.7109 55.2266 26.9648 55.0195C27.2227 54.8086 27.5293 54.6445 27.8848 54.5273C28.2402 54.4102 28.6367 54.3516 29.0742 54.3516C29.7148 54.3516 30.2578 54.4746 30.7031 54.7207C31.1523 54.9629 31.4941 55.2812 31.7285 55.6758C31.9629 56.0664 32.0801 56.4844 32.0801 56.9297H30.9551C30.9551 56.6094 30.8867 56.3262 30.75 56.0801C30.6133 55.8301 30.4062 55.6348 30.1289 55.4941C29.8516 55.3496 29.5 55.2773 29.0742 55.2773C28.6719 55.2773 28.3398 55.3379 28.0781 55.459C27.8164 55.5801 27.6211 55.7441 27.4922 55.9512C27.3672 56.1582 27.3047 56.3945 27.3047 56.6602C27.3047 56.8398 27.3418 57.0039 27.416 57.1523C27.4941 57.2969 27.6133 57.4316 27.7734 57.5566C27.9375 57.6816 28.1445 57.7969 28.3945 57.9023C28.6484 58.0078 28.9512 58.1094 29.3027 58.207C29.7871 58.3438 30.2051 58.4961 30.5566 58.6641C30.9082 58.832 31.1973 59.0215 31.4238 59.2324C31.6543 59.4395 31.8242 59.6758 31.9336 59.9414C32.0469 60.2031 32.1035 60.5 32.1035 60.832C32.1035 61.1797 32.0332 61.4941 31.8926 61.7754C31.752 62.0566 31.5508 62.2969 31.2891 62.4961C31.0273 62.6953 30.7129 62.8496 30.3457 62.959C29.9824 63.0645 29.5762 63.1172 29.127 63.1172C28.7324 63.1172 28.3438 63.0625 27.9609 62.9531C27.582 62.8438 27.2363 62.6797 26.9238 62.4609C26.6152 62.2422 26.3672 61.9727 26.1797 61.6523C25.9961 61.3281 25.9043 60.9531 25.9043 60.5273H27.0293C27.0293 60.8203 27.0859 61.0723 27.1992 61.2832C27.3125 61.4902 27.4668 61.6621 27.6621 61.7988C27.8613 61.9355 28.0859 62.0371 28.3359 62.1035C28.5898 62.166 28.8535 62.1973 29.127 62.1973C29.5215 62.1973 29.8555 62.1426 30.1289 62.0332C30.4023 61.9238 30.6094 61.7676 30.75 61.5645C30.8945 61.3613 30.9668 61.1211 30.9668 60.8438ZM36.6914 59.6543H34.4121V58.7344H36.6914C37.1328 58.7344 37.4902 58.6641 37.7637 58.5234C38.0371 58.3828 38.2363 58.1875 38.3613 57.9375C38.4902 57.6875 38.5547 57.4023 38.5547 57.082C38.5547 56.7891 38.4902 56.5137 38.3613 56.2559C38.2363 55.998 38.0371 55.791 37.7637 55.6348C37.4902 55.4746 37.1328 55.3945 36.6914 55.3945H34.6758V63H33.5449V54.4688H36.6914C37.3359 54.4688 37.8809 54.5801 38.3262 54.8027C38.7715 55.0254 39.1094 55.334 39.3398 55.7285C39.5703 56.1191 39.6855 56.5664 39.6855 57.0703C39.6855 57.6172 39.5703 58.084 39.3398 58.4707C39.1094 58.8574 38.7715 59.1523 38.3262 59.3555C37.8809 59.5547 37.3359 59.6543 36.6914 59.6543ZM44.2617 59.6543H41.9824V58.7344H44.2617C44.7031 58.7344 45.0605 58.6641 45.334 58.5234C45.6074 58.3828 45.8066 58.1875 45.9316 57.9375C46.0605 57.6875 46.125 57.4023 46.125 57.082C46.125 56.7891 46.0605 56.5137 45.9316 56.2559C45.8066 55.998 45.6074 55.791 45.334 55.6348C45.0605 55.4746 44.7031 55.3945 44.2617 55.3945H42.2461V63H41.1152V54.4688H44.2617C44.9062 54.4688 45.4512 54.5801 45.8965 54.8027C46.3418 55.0254 46.6797 55.334 46.9102 55.7285C47.1406 56.1191 47.2559 56.5664 47.2559 57.0703C47.2559 57.6172 47.1406 58.084 46.9102 58.4707C46.6797 58.8574 46.3418 59.1523 45.8965 59.3555C45.4512 59.5547 44.9062 59.6543 44.2617 59.6543ZM50.9941 63H49.2129L49.2246 62.0801H50.9941C51.6035 62.0801 52.1113 61.9531 52.5176 61.6992C52.9238 61.4414 53.2285 61.082 53.4316 60.6211C53.6387 60.1562 53.7422 59.6133 53.7422 58.9922V58.4707C53.7422 57.9824 53.6836 57.5488 53.5664 57.1699C53.4492 56.7871 53.2773 56.4648 53.0508 56.2031C52.8242 55.9375 52.5469 55.7363 52.2188 55.5996C51.8945 55.4629 51.5215 55.3945 51.0996 55.3945H49.1777V54.4688H51.0996C51.6582 54.4688 52.168 54.5625 52.6289 54.75C53.0898 54.9336 53.4863 55.2012 53.8184 55.5527C54.1543 55.9004 54.4121 56.3223 54.5918 56.8184C54.7715 57.3105 54.8613 57.8652 54.8613 58.4824V58.9922C54.8613 59.6094 54.7715 60.166 54.5918 60.6621C54.4121 61.1543 54.1523 61.5742 53.8125 61.9219C53.4766 62.2695 53.0703 62.5371 52.5938 62.7246C52.1211 62.9082 51.5879 63 50.9941 63ZM49.8164 54.4688V63H48.6855V54.4688H49.8164Z" fill="#666666"/>
<path fill-rule="evenodd" clip-rule="evenodd" d="M45.9733 34.6667H51.3333C52.2174 34.6667 53.0652 34.3155 53.6904 33.6904C54.3155 33.0653 54.6667 32.2174 54.6667 31.3334C54.6667 30.4493 54.3155 29.6015 53.6904 28.9764C53.0652 28.3512 52.2174 28 51.3333 28H32.824C32.5765 27.9999 32.3338 27.9309 32.1233 27.8006C31.9128 27.6704 31.7427 27.4841 31.632 27.2627L31.0347 26.0707C30.924 25.8493 30.7539 25.663 30.5434 25.5328C30.3328 25.4026 30.0902 25.3335 29.8427 25.3334H27.356C27.1353 25.3332 26.9179 25.3878 26.7235 25.4923C26.529 25.5969 26.3636 25.748 26.242 25.9323C26.1204 26.1165 26.0464 26.3281 26.0268 26.5479C26.0071 26.7678 26.0424 26.9891 26.1293 27.192L28.9867 33.8587C29.0896 34.0987 29.2606 34.3032 29.4787 34.4469C29.6968 34.5905 29.9522 34.6669 30.2133 34.6667H35.364C35.5818 34.6668 35.7962 34.7203 35.9885 34.8225C36.1809 34.9246 36.3453 35.0723 36.4673 35.2527C36.5894 35.433 36.6654 35.6405 36.6888 35.857C36.7122 36.0735 36.6821 36.2925 36.6013 36.4947L35.4 39.5067C35.3195 39.7088 35.2897 39.9274 35.3131 40.1437C35.3366 40.3599 35.4125 40.5671 35.5344 40.7473C35.6563 40.9274 35.8204 41.075 36.0124 41.1771C36.2044 41.2793 36.4185 41.3329 36.636 41.3334H39.3587C39.5586 41.3335 39.756 41.2886 39.9363 41.202C40.1166 41.1155 40.275 40.9895 40.4 40.8334L44.9333 35.1667C45.0582 35.0108 45.2164 34.8849 45.3964 34.7984C45.5765 34.7118 45.7736 34.6668 45.9733 34.6667Z" fill="#00A2B9"/>
<path d="M40.5999 26.4H34.2666L33.2319 24.3294C33.1304 24.1261 33.0824 23.9003 33.0927 23.6734C33.1029 23.4464 33.1709 23.2258 33.2903 23.0326C33.4097 22.8393 33.5766 22.6797 33.775 22.569C33.9734 22.4583 34.1967 22.4001 34.4239 22.4H36.9333C37.1403 22.4 37.3444 22.4482 37.5295 22.5408C37.7147 22.6334 37.8757 22.7678 37.9999 22.9334L40.5999 26.4Z" fill="#F3AF00"/>
</svg>
