<svg width="80" height="80" viewBox="0 0 80 80" fill="none" xmlns="http://www.w3.org/2000/svg">
<rect width="80" height="80" rx="20" fill="#00A2B9"/>
<path d="M23.209 55.2246L20.3848 63H19.2305L22.4824 54.4688H23.2266L23.209 55.2246ZM25.5762 63L22.7461 55.2246L22.7285 54.4688H23.4727L26.7363 63H25.5762ZM25.4297 59.8418V60.7676H20.6367V59.8418H25.4297ZM27.709 54H28.7988V61.7695L28.7051 63H27.709V54ZM33.082 59.7773V59.9004C33.082 60.3613 33.0273 60.7891 32.918 61.1836C32.8086 61.5742 32.6484 61.9141 32.4375 62.2031C32.2266 62.4922 31.9688 62.7168 31.6641 62.877C31.3594 63.0371 31.0098 63.1172 30.6152 63.1172C30.2129 63.1172 29.8594 63.0488 29.5547 62.9121C29.2539 62.7715 29 62.5703 28.793 62.3086C28.5859 62.0469 28.4199 61.7305 28.2949 61.3594C28.1738 60.9883 28.0898 60.5703 28.043 60.1055V59.5664C28.0898 59.0977 28.1738 58.6777 28.2949 58.3066C28.4199 57.9355 28.5859 57.6191 28.793 57.3574C29 57.0918 29.2539 56.8906 29.5547 56.7539C29.8555 56.6133 30.2051 56.543 30.6035 56.543C31.002 56.543 31.3555 56.6211 31.6641 56.7773C31.9727 56.9297 32.2305 57.1484 32.4375 57.4336C32.6484 57.7188 32.8086 58.0605 32.918 58.459C33.0273 58.8535 33.082 59.293 33.082 59.7773ZM31.9922 59.9004V59.7773C31.9922 59.4609 31.9629 59.1641 31.9043 58.8867C31.8457 58.6055 31.752 58.3594 31.623 58.1484C31.4941 57.9336 31.3242 57.7656 31.1133 57.6445C30.9023 57.5195 30.6426 57.457 30.334 57.457C30.0605 57.457 29.8223 57.5039 29.6191 57.5977C29.4199 57.6914 29.25 57.8184 29.1094 57.9785C28.9688 58.1348 28.8535 58.3145 28.7637 58.5176C28.6777 58.7168 28.6133 58.9238 28.5703 59.1387V60.5508C28.6328 60.8242 28.7344 61.0879 28.875 61.3418C29.0195 61.5918 29.2109 61.7969 29.4492 61.957C29.6914 62.1172 29.9902 62.1973 30.3457 62.1973C30.6387 62.1973 30.8887 62.1387 31.0957 62.0215C31.3066 61.9004 31.4766 61.7344 31.6055 61.5234C31.7383 61.3125 31.8359 61.0684 31.8984 60.791C31.9609 60.5137 31.9922 60.2168 31.9922 59.9004ZM38.1445 61.3184C38.1445 61.1621 38.1094 61.0176 38.0391 60.8848C37.9727 60.748 37.834 60.625 37.623 60.5156C37.416 60.4023 37.1035 60.3047 36.6855 60.2227C36.334 60.1484 36.0156 60.0605 35.7305 59.959C35.4492 59.8574 35.209 59.7344 35.0098 59.5898C34.8145 59.4453 34.6641 59.2754 34.5586 59.0801C34.4531 58.8848 34.4004 58.6562 34.4004 58.3945C34.4004 58.1445 34.4551 57.9082 34.5645 57.6855C34.6777 57.4629 34.8359 57.2656 35.0391 57.0938C35.2461 56.9219 35.4941 56.7871 35.7832 56.6895C36.0723 56.5918 36.3945 56.543 36.75 56.543C37.2578 56.543 37.6914 56.6328 38.0508 56.8125C38.4102 56.9922 38.6855 57.2324 38.877 57.5332C39.0684 57.8301 39.1641 58.1602 39.1641 58.5234H38.0801C38.0801 58.3477 38.0273 58.1777 37.9219 58.0137C37.8203 57.8457 37.6699 57.707 37.4707 57.5977C37.2754 57.4883 37.0352 57.4336 36.75 57.4336C36.4492 57.4336 36.2051 57.4805 36.0176 57.5742C35.834 57.6641 35.6992 57.7793 35.6133 57.9199C35.5312 58.0605 35.4902 58.209 35.4902 58.3652C35.4902 58.4824 35.5098 58.5879 35.5488 58.6816C35.5918 58.7715 35.666 58.8555 35.7715 58.9336C35.877 59.0078 36.0254 59.0781 36.2168 59.1445C36.4082 59.2109 36.6523 59.2773 36.9492 59.3438C37.4688 59.4609 37.8965 59.6016 38.2324 59.7656C38.5684 59.9297 38.8184 60.1309 38.9824 60.3691C39.1465 60.6074 39.2285 60.8965 39.2285 61.2363C39.2285 61.5137 39.1699 61.7676 39.0527 61.998C38.9395 62.2285 38.7734 62.4277 38.5547 62.5957C38.3398 62.7598 38.082 62.8887 37.7812 62.9824C37.4844 63.0723 37.1504 63.1172 36.7793 63.1172C36.2207 63.1172 35.748 63.0176 35.3613 62.8184C34.9746 62.6191 34.6816 62.3613 34.4824 62.0449C34.2832 61.7285 34.1836 61.3945 34.1836 61.043H35.2734C35.2891 61.3398 35.375 61.5762 35.5312 61.752C35.6875 61.9238 35.8789 62.0469 36.1055 62.1211C36.332 62.1914 36.5566 62.2266 36.7793 62.2266C37.0762 62.2266 37.3242 62.1875 37.5234 62.1094C37.7266 62.0312 37.8809 61.9238 37.9863 61.7871C38.0918 61.6504 38.1445 61.4941 38.1445 61.3184ZM43.2832 63.1172C42.8418 63.1172 42.4414 63.043 42.082 62.8945C41.7266 62.7422 41.4199 62.5293 41.1621 62.2559C40.9082 61.9824 40.7129 61.6582 40.5762 61.2832C40.4395 60.9082 40.3711 60.498 40.3711 60.0527V59.8066C40.3711 59.291 40.4473 58.832 40.5996 58.4297C40.752 58.0234 40.959 57.6797 41.2207 57.3984C41.4824 57.1172 41.7793 56.9043 42.1113 56.7598C42.4434 56.6152 42.7871 56.543 43.1426 56.543C43.5957 56.543 43.9863 56.6211 44.3145 56.7773C44.6465 56.9336 44.918 57.1523 45.1289 57.4336C45.3398 57.7109 45.4961 58.0391 45.5977 58.418C45.6992 58.793 45.75 59.2031 45.75 59.6484V60.1348H41.0156V59.25H44.666V59.168C44.6504 58.8867 44.5918 58.6133 44.4902 58.3477C44.3926 58.082 44.2363 57.8633 44.0215 57.6914C43.8066 57.5195 43.5137 57.4336 43.1426 57.4336C42.8965 57.4336 42.6699 57.4863 42.4629 57.5918C42.2559 57.6934 42.0781 57.8457 41.9297 58.0488C41.7812 58.252 41.666 58.5 41.584 58.793C41.502 59.0859 41.4609 59.4238 41.4609 59.8066V60.0527C41.4609 60.3535 41.502 60.6367 41.584 60.9023C41.6699 61.1641 41.793 61.3945 41.9531 61.5938C42.1172 61.793 42.3145 61.9492 42.5449 62.0625C42.7793 62.1758 43.0449 62.2324 43.3418 62.2324C43.7246 62.2324 44.0488 62.1543 44.3145 61.998C44.5801 61.8418 44.8125 61.6328 45.0117 61.3711L45.668 61.8926C45.5312 62.0996 45.3574 62.2969 45.1465 62.4844C44.9355 62.6719 44.6758 62.8242 44.3672 62.9414C44.0625 63.0586 43.7012 63.1172 43.2832 63.1172ZM48.0996 58.0137V63H47.0156V56.6602H48.041L48.0996 58.0137ZM47.8418 59.5898L47.3906 59.5723C47.3945 59.1387 47.459 58.7383 47.584 58.3711C47.709 58 47.8848 57.6777 48.1113 57.4043C48.3379 57.1309 48.6074 56.9199 48.9199 56.7715C49.2363 56.6191 49.5859 56.543 49.9688 56.543C50.2812 56.543 50.5625 56.5859 50.8125 56.6719C51.0625 56.7539 51.2754 56.8867 51.4512 57.0703C51.6309 57.2539 51.7676 57.4922 51.8613 57.7852C51.9551 58.0742 52.002 58.4277 52.002 58.8457V63H50.9121V58.834C50.9121 58.502 50.8633 58.2363 50.7656 58.0371C50.668 57.834 50.5254 57.6875 50.3379 57.5977C50.1504 57.5039 49.9199 57.457 49.6465 57.457C49.377 57.457 49.1309 57.5137 48.9082 57.627C48.6895 57.7402 48.5 57.8965 48.3398 58.0957C48.1836 58.2949 48.0605 58.5234 47.9707 58.7812C47.8848 59.0352 47.8418 59.3047 47.8418 59.5898ZM57.3398 61.3184C57.3398 61.1621 57.3047 61.0176 57.2344 60.8848C57.168 60.748 57.0293 60.625 56.8184 60.5156C56.6113 60.4023 56.2988 60.3047 55.8809 60.2227C55.5293 60.1484 55.2109 60.0605 54.9258 59.959C54.6445 59.8574 54.4043 59.7344 54.2051 59.5898C54.0098 59.4453 53.8594 59.2754 53.7539 59.0801C53.6484 58.8848 53.5957 58.6562 53.5957 58.3945C53.5957 58.1445 53.6504 57.9082 53.7598 57.6855C53.873 57.4629 54.0312 57.2656 54.2344 57.0938C54.4414 56.9219 54.6895 56.7871 54.9785 56.6895C55.2676 56.5918 55.5898 56.543 55.9453 56.543C56.4531 56.543 56.8867 56.6328 57.2461 56.8125C57.6055 56.9922 57.8809 57.2324 58.0723 57.5332C58.2637 57.8301 58.3594 58.1602 58.3594 58.5234H57.2754C57.2754 58.3477 57.2227 58.1777 57.1172 58.0137C57.0156 57.8457 56.8652 57.707 56.666 57.5977C56.4707 57.4883 56.2305 57.4336 55.9453 57.4336C55.6445 57.4336 55.4004 57.4805 55.2129 57.5742C55.0293 57.6641 54.8945 57.7793 54.8086 57.9199C54.7266 58.0605 54.6855 58.209 54.6855 58.3652C54.6855 58.4824 54.7051 58.5879 54.7441 58.6816C54.7871 58.7715 54.8613 58.8555 54.9668 58.9336C55.0723 59.0078 55.2207 59.0781 55.4121 59.1445C55.6035 59.2109 55.8477 59.2773 56.1445 59.3438C56.6641 59.4609 57.0918 59.6016 57.4277 59.7656C57.7637 59.9297 58.0137 60.1309 58.1777 60.3691C58.3418 60.6074 58.4238 60.8965 58.4238 61.2363C58.4238 61.5137 58.3652 61.7676 58.248 61.998C58.1348 62.2285 57.9688 62.4277 57.75 62.5957C57.5352 62.7598 57.2773 62.8887 56.9766 62.9824C56.6797 63.0723 56.3457 63.1172 55.9746 63.1172C55.416 63.1172 54.9434 63.0176 54.5566 62.8184C54.1699 62.6191 53.877 62.3613 53.6777 62.0449C53.4785 61.7285 53.3789 61.3945 53.3789 61.043H54.4688C54.4844 61.3398 54.5703 61.5762 54.7266 61.752C54.8828 61.9238 55.0742 62.0469 55.3008 62.1211C55.5273 62.1914 55.752 62.2266 55.9746 62.2266C56.2715 62.2266 56.5195 62.1875 56.7188 62.1094C56.9219 62.0312 57.0762 61.9238 57.1816 61.7871C57.2871 61.6504 57.3398 61.4941 57.3398 61.3184ZM61.0254 56.6602V63H59.9355V56.6602H61.0254ZM59.8535 54.9785C59.8535 54.8027 59.9062 54.6543 60.0117 54.5332C60.1211 54.4121 60.2812 54.3516 60.4922 54.3516C60.6992 54.3516 60.8574 54.4121 60.9668 54.5332C61.0801 54.6543 61.1367 54.8027 61.1367 54.9785C61.1367 55.1465 61.0801 55.291 60.9668 55.4121C60.8574 55.5293 60.6992 55.5879 60.4922 55.5879C60.2812 55.5879 60.1211 55.5293 60.0117 55.4121C59.9062 55.291 59.8535 55.1465 59.8535 54.9785Z" fill="white"/>
<path d="M38.6667 38.6667C38.6667 39.4 39.2667 40 40 40C40.7333 40 41.3333 39.4 41.3333 38.6667C41.3333 37.9333 40.7333 37.3333 40 37.3333C39.2667 37.3333 38.6667 37.9333 38.6667 38.6667ZM38.6667 20V25.3333H41.3333V22.7733C45.8533 23.4267 49.3333 27.2933 49.3333 32C49.3333 37.16 45.16 41.3333 40 41.3333C34.84 41.3333 30.6667 37.16 30.6667 32C30.6667 29.76 31.4533 27.7067 32.7733 26.1067L40 33.3333L41.88 31.4533L32.8133 22.3867V22.4133C29.8933 24.6 28 28.0667 28 32C28 38.6267 33.36 44 40 44C43.1826 44 46.2348 42.7357 48.4853 40.4853C50.7357 38.2348 52 35.1826 52 32C52 28.8174 50.7357 25.7652 48.4853 23.5147C46.2348 21.2643 43.1826 20 40 20H38.6667ZM48 32C48 31.2667 47.4 30.6667 46.6667 30.6667C45.9333 30.6667 45.3333 31.2667 45.3333 32C45.3333 32.7333 45.9333 33.3333 46.6667 33.3333C47.4 33.3333 48 32.7333 48 32ZM32 32C32 32.7333 32.6 33.3333 33.3333 33.3333C34.0667 33.3333 34.6667 32.7333 34.6667 32C34.6667 31.2667 34.0667 30.6667 33.3333 30.6667C32.6 30.6667 32 31.2667 32 32Z" fill="white"/>
</svg>
