<svg width="80" height="80" viewBox="0 0 80 80" fill="none" xmlns="http://www.w3.org/2000/svg">
<rect width="80" height="80" rx="20" fill="#00A2B9"/>
<path d="M28.8 25.6C28.8 24.327 29.3058 23.1061 30.2059 22.2059C31.1061 21.3058 32.327 20.8 33.6 20.8H46.4C47.6731 20.8 48.894 21.3058 49.7942 22.2059C50.6943 23.1061 51.2 24.327 51.2 25.6V38.4C51.2 39.6731 50.6943 40.894 49.7942 41.7942C48.894 42.6943 47.6731 43.2 46.4 43.2H33.6C32.327 43.2 31.1061 42.6943 30.2059 41.7942C29.3058 40.894 28.8 39.6731 28.8 38.4V25.6ZM38.9664 27.3664C39.1167 27.2162 39.2011 27.0125 39.2011 26.8C39.2011 26.5876 39.1167 26.3839 38.9664 26.2336C38.8162 26.0834 38.6125 25.999 38.4 25.999C38.1876 25.999 37.9839 26.0834 37.8336 26.2336L35.5744 28.4928L34.9392 27.9136C34.7814 27.7788 34.5773 27.7105 34.3701 27.7233C34.1629 27.7361 33.9688 27.829 33.8287 27.9823C33.6887 28.1356 33.6138 28.3373 33.6198 28.5449C33.6258 28.7524 33.7122 28.9495 33.8608 29.0944L35.0608 30.1904C35.2129 30.3289 35.4124 30.4035 35.618 30.3987C35.8235 30.3939 36.0194 30.3102 36.1648 30.1648L38.9648 27.3648L38.9664 27.3664ZM38.9664 34.2336C38.8921 34.1591 38.8039 34.1 38.7067 34.0597C38.6095 34.0194 38.5053 33.9986 38.4 33.9986C38.2948 33.9986 38.1906 34.0194 38.0934 34.0597C37.9962 34.1 37.908 34.1591 37.8336 34.2336L35.5744 36.4928L34.9392 35.9136C34.7814 35.7788 34.5773 35.7105 34.3701 35.7233C34.1629 35.7361 33.9688 35.829 33.8287 35.9823C33.6887 36.1356 33.6138 36.3373 33.6198 36.5449C33.6258 36.7524 33.7122 36.9495 33.8608 37.0944L35.0608 38.1904C35.2127 38.3291 35.4121 38.4039 35.6177 38.3995C35.8232 38.395 36.0192 38.3116 36.1648 38.1664L38.9648 35.3664C39.1148 35.2164 39.1991 35.013 39.1991 34.8008C39.1991 34.5887 39.1148 34.3853 38.9648 34.2352L38.9664 34.2336ZM41.6 35.2C41.3879 35.2 41.1844 35.2843 41.0344 35.4344C40.8843 35.5844 40.8 35.7879 40.8 36C40.8 36.2122 40.8843 36.4157 41.0344 36.5657C41.1844 36.7158 41.3879 36.8 41.6 36.8H45.6C45.8122 36.8 46.0157 36.7158 46.1657 36.5657C46.3158 36.4157 46.4 36.2122 46.4 36C46.4 35.7879 46.3158 35.5844 46.1657 35.4344C46.0157 35.2843 45.8122 35.2 45.6 35.2H41.6ZM40.8 28C40.8 28.2122 40.8843 28.4157 41.0344 28.5657C41.1844 28.7158 41.3879 28.8 41.6 28.8H45.6C45.8122 28.8 46.0157 28.7158 46.1657 28.5657C46.3158 28.4157 46.4 28.2122 46.4 28C46.4 27.7879 46.3158 27.5844 46.1657 27.4344C46.0157 27.2843 45.8122 27.2 45.6 27.2H41.6C41.3879 27.2 41.1844 27.2843 41.0344 27.4344C40.8843 27.5844 40.8 27.7879 40.8 28Z" fill="white"/>
<path d="M10.3887 47.4688H11.4844L14.2793 54.4238L17.0684 47.4688H18.1699L14.7012 56H13.8457L10.3887 47.4688ZM10.0312 47.4688H10.998L11.1562 52.6719V56H10.0312V47.4688ZM17.5547 47.4688H18.5215V56H17.3965V52.6719L17.5547 47.4688ZM24.082 54.916V51.6523C24.082 51.4023 24.0312 51.1855 23.9297 51.002C23.832 50.8145 23.6836 50.6699 23.4844 50.5684C23.2852 50.4668 23.0391 50.416 22.7461 50.416C22.4727 50.416 22.2324 50.4629 22.0254 50.5566C21.8223 50.6504 21.6621 50.7734 21.5449 50.9258C21.4316 51.0781 21.375 51.2422 21.375 51.418H20.291C20.291 51.1914 20.3496 50.9668 20.4668 50.7441C20.584 50.5215 20.752 50.3203 20.9707 50.1406C21.1934 49.957 21.459 49.8125 21.7676 49.707C22.0801 49.5977 22.4277 49.543 22.8105 49.543C23.2715 49.543 23.6777 49.6211 24.0293 49.7773C24.3848 49.9336 24.6621 50.1699 24.8613 50.4863C25.0645 50.7988 25.166 51.1914 25.166 51.6641V54.6172C25.166 54.8281 25.1836 55.0527 25.2188 55.291C25.2578 55.5293 25.3145 55.7344 25.3887 55.9062V56H24.2578C24.2031 55.875 24.1602 55.709 24.1289 55.502C24.0977 55.291 24.082 55.0957 24.082 54.916ZM24.2695 52.1562L24.2812 52.918H23.1855C22.877 52.918 22.6016 52.9434 22.3594 52.9941C22.1172 53.041 21.9141 53.1133 21.75 53.2109C21.5859 53.3086 21.4609 53.4316 21.375 53.5801C21.2891 53.7246 21.2461 53.8945 21.2461 54.0898C21.2461 54.2891 21.291 54.4707 21.3809 54.6348C21.4707 54.7988 21.6055 54.9297 21.7852 55.0273C21.9688 55.1211 22.1934 55.168 22.459 55.168C22.791 55.168 23.084 55.0977 23.3379 54.957C23.5918 54.8164 23.793 54.6445 23.9414 54.4414C24.0938 54.2383 24.1758 54.041 24.1875 53.8496L24.6504 54.3711C24.623 54.5352 24.5488 54.7168 24.4277 54.916C24.3066 55.1152 24.1445 55.3066 23.9414 55.4902C23.7422 55.6699 23.5039 55.8203 23.2266 55.9414C22.9531 56.0586 22.6445 56.1172 22.3008 56.1172C21.8711 56.1172 21.4941 56.0332 21.1699 55.8652C20.8496 55.6973 20.5996 55.4727 20.4199 55.1914C20.2441 54.9062 20.1562 54.5879 20.1562 54.2363C20.1562 53.8965 20.2227 53.5977 20.3555 53.3398C20.4883 53.0781 20.6797 52.8613 20.9297 52.6895C21.1797 52.5137 21.4805 52.3809 21.832 52.291C22.1836 52.2012 22.5762 52.1562 23.0098 52.1562H24.2695ZM27.9551 51.0137V56H26.8711V49.6602H27.8965L27.9551 51.0137ZM27.6973 52.5898L27.2461 52.5723C27.25 52.1387 27.3145 51.7383 27.4395 51.3711C27.5645 51 27.7402 50.6777 27.9668 50.4043C28.1934 50.1309 28.4629 49.9199 28.7754 49.7715C29.0918 49.6191 29.4414 49.543 29.8242 49.543C30.1367 49.543 30.418 49.5859 30.668 49.6719C30.918 49.7539 31.1309 49.8867 31.3066 50.0703C31.4863 50.2539 31.623 50.4922 31.7168 50.7852C31.8105 51.0742 31.8574 51.4277 31.8574 51.8457V56H30.7676V51.834C30.7676 51.502 30.7188 51.2363 30.6211 51.0371C30.5234 50.834 30.3809 50.6875 30.1934 50.5977C30.0059 50.5039 29.7754 50.457 29.502 50.457C29.2324 50.457 28.9863 50.5137 28.7637 50.627C28.5449 50.7402 28.3555 50.8965 28.1953 51.0957C28.0391 51.2949 27.916 51.5234 27.8262 51.7812C27.7402 52.0352 27.6973 52.3047 27.6973 52.5898ZM37.2422 54.916V51.6523C37.2422 51.4023 37.1914 51.1855 37.0898 51.002C36.9922 50.8145 36.8438 50.6699 36.6445 50.5684C36.4453 50.4668 36.1992 50.416 35.9062 50.416C35.6328 50.416 35.3926 50.4629 35.1855 50.5566C34.9824 50.6504 34.8223 50.7734 34.7051 50.9258C34.5918 51.0781 34.5352 51.2422 34.5352 51.418H33.4512C33.4512 51.1914 33.5098 50.9668 33.627 50.7441C33.7441 50.5215 33.9121 50.3203 34.1309 50.1406C34.3535 49.957 34.6191 49.8125 34.9277 49.707C35.2402 49.5977 35.5879 49.543 35.9707 49.543C36.4316 49.543 36.8379 49.6211 37.1895 49.7773C37.5449 49.9336 37.8223 50.1699 38.0215 50.4863C38.2246 50.7988 38.3262 51.1914 38.3262 51.6641V54.6172C38.3262 54.8281 38.3438 55.0527 38.3789 55.291C38.418 55.5293 38.4746 55.7344 38.5488 55.9062V56H37.418C37.3633 55.875 37.3203 55.709 37.2891 55.502C37.2578 55.291 37.2422 55.0957 37.2422 54.916ZM37.4297 52.1562L37.4414 52.918H36.3457C36.0371 52.918 35.7617 52.9434 35.5195 52.9941C35.2773 53.041 35.0742 53.1133 34.9102 53.2109C34.7461 53.3086 34.6211 53.4316 34.5352 53.5801C34.4492 53.7246 34.4062 53.8945 34.4062 54.0898C34.4062 54.2891 34.4512 54.4707 34.541 54.6348C34.6309 54.7988 34.7656 54.9297 34.9453 55.0273C35.1289 55.1211 35.3535 55.168 35.6191 55.168C35.9512 55.168 36.2441 55.0977 36.498 54.957C36.752 54.8164 36.9531 54.6445 37.1016 54.4414C37.2539 54.2383 37.3359 54.041 37.3477 53.8496L37.8105 54.3711C37.7832 54.5352 37.709 54.7168 37.5879 54.916C37.4668 55.1152 37.3047 55.3066 37.1016 55.4902C36.9023 55.6699 36.6641 55.8203 36.3867 55.9414C36.1133 56.0586 35.8047 56.1172 35.4609 56.1172C35.0312 56.1172 34.6543 56.0332 34.3301 55.8652C34.0098 55.6973 33.7598 55.4727 33.5801 55.1914C33.4043 54.9062 33.3164 54.5879 33.3164 54.2363C33.3164 53.8965 33.3828 53.5977 33.5156 53.3398C33.6484 53.0781 33.8398 52.8613 34.0898 52.6895C34.3398 52.5137 34.6406 52.3809 34.9922 52.291C35.3438 52.2012 35.7363 52.1562 36.1699 52.1562H37.4297ZM40.0605 49.6602H41.1504V56.7559C41.1504 57.1426 41.0879 57.4707 40.9629 57.7402C40.8418 58.0098 40.6582 58.2129 40.4121 58.3496C40.1699 58.4902 39.8633 58.5605 39.4922 58.5605C39.3945 58.5605 39.2812 58.5508 39.1523 58.5312C39.0195 58.5117 38.9082 58.4883 38.8184 58.4609L38.8242 57.5879C38.8984 57.6035 38.9824 57.6152 39.0762 57.623C39.1699 57.6348 39.252 57.6406 39.3223 57.6406C39.4824 57.6406 39.6172 57.6113 39.7266 57.5527C39.8359 57.4941 39.918 57.4004 39.9727 57.2715C40.0312 57.1426 40.0605 56.9707 40.0605 56.7559V49.6602ZM39.9492 47.9785C39.9492 47.8027 40.0039 47.6543 40.1133 47.5332C40.2227 47.4121 40.3809 47.3516 40.5879 47.3516C40.7988 47.3516 40.959 47.4121 41.0684 47.5332C41.1777 47.6543 41.2324 47.8027 41.2324 47.9785C41.2324 48.1465 41.1777 48.291 41.0684 48.4121C40.959 48.5293 40.7988 48.5879 40.5879 48.5879C40.3809 48.5879 40.2227 48.5293 40.1133 48.4121C40.0039 48.291 39.9492 48.1465 39.9492 47.9785ZM45.5332 56.1172C45.0918 56.1172 44.6914 56.043 44.332 55.8945C43.9766 55.7422 43.6699 55.5293 43.4121 55.2559C43.1582 54.9824 42.9629 54.6582 42.8262 54.2832C42.6895 53.9082 42.6211 53.498 42.6211 53.0527V52.8066C42.6211 52.291 42.6973 51.832 42.8496 51.4297C43.002 51.0234 43.209 50.6797 43.4707 50.3984C43.7324 50.1172 44.0293 49.9043 44.3613 49.7598C44.6934 49.6152 45.0371 49.543 45.3926 49.543C45.8457 49.543 46.2363 49.6211 46.5645 49.7773C46.8965 49.9336 47.168 50.1523 47.3789 50.4336C47.5898 50.7109 47.7461 51.0391 47.8477 51.418C47.9492 51.793 48 52.2031 48 52.6484V53.1348H43.2656V52.25H46.916V52.168C46.9004 51.8867 46.8418 51.6133 46.7402 51.3477C46.6426 51.082 46.4863 50.8633 46.2715 50.6914C46.0566 50.5195 45.7637 50.4336 45.3926 50.4336C45.1465 50.4336 44.9199 50.4863 44.7129 50.5918C44.5059 50.6934 44.3281 50.8457 44.1797 51.0488C44.0312 51.252 43.916 51.5 43.834 51.793C43.752 52.0859 43.7109 52.4238 43.7109 52.8066V53.0527C43.7109 53.3535 43.752 53.6367 43.834 53.9023C43.9199 54.1641 44.043 54.3945 44.2031 54.5938C44.3672 54.793 44.5645 54.9492 44.7949 55.0625C45.0293 55.1758 45.2949 55.2324 45.5918 55.2324C45.9746 55.2324 46.2988 55.1543 46.5645 54.998C46.8301 54.8418 47.0625 54.6328 47.2617 54.3711L47.918 54.8926C47.7812 55.0996 47.6074 55.2969 47.3965 55.4844C47.1855 55.6719 46.9258 55.8242 46.6172 55.9414C46.3125 56.0586 45.9512 56.1172 45.5332 56.1172ZM50.3438 50.9199V56H49.2539V49.6602H50.2852L50.3438 50.9199ZM50.1211 52.5898L49.6172 52.5723C49.6211 52.1387 49.6777 51.7383 49.7871 51.3711C49.8965 51 50.0586 50.6777 50.2734 50.4043C50.4883 50.1309 50.7559 49.9199 51.0762 49.7715C51.3965 49.6191 51.7676 49.543 52.1895 49.543C52.4863 49.543 52.7598 49.5859 53.0098 49.6719C53.2598 49.7539 53.4766 49.8848 53.6602 50.0645C53.8438 50.2441 53.9863 50.4746 54.0879 50.7559C54.1895 51.0371 54.2402 51.377 54.2402 51.7754V56H53.1562V51.8281C53.1562 51.4961 53.0996 51.2305 52.9863 51.0312C52.877 50.832 52.7207 50.6875 52.5176 50.5977C52.3145 50.5039 52.0762 50.457 51.8027 50.457C51.4824 50.457 51.2148 50.5137 51 50.627C50.7852 50.7402 50.6133 50.8965 50.4844 51.0957C50.3555 51.2949 50.2617 51.5234 50.2031 51.7812C50.1484 52.0352 50.1211 52.3047 50.1211 52.5898ZM54.2285 51.9922L53.502 52.2148C53.5059 51.8672 53.5625 51.5332 53.6719 51.2129C53.7852 50.8926 53.9473 50.6074 54.1582 50.3574C54.373 50.1074 54.6367 49.9102 54.9492 49.7656C55.2617 49.6172 55.6191 49.543 56.0215 49.543C56.3613 49.543 56.6621 49.5879 56.9238 49.6777C57.1895 49.7676 57.4121 49.9062 57.5918 50.0938C57.7754 50.2773 57.9141 50.5137 58.0078 50.8027C58.1016 51.0918 58.1484 51.4355 58.1484 51.834V56H57.0586V51.8223C57.0586 51.4668 57.002 51.1914 56.8887 50.9961C56.7793 50.7969 56.623 50.6582 56.4199 50.5801C56.2207 50.498 55.9824 50.457 55.7051 50.457C55.4668 50.457 55.2559 50.498 55.0723 50.5801C54.8887 50.6621 54.7344 50.7754 54.6094 50.9199C54.4844 51.0605 54.3887 51.2227 54.3223 51.4062C54.2598 51.5898 54.2285 51.7852 54.2285 51.9922ZM62.4199 56.1172C61.9785 56.1172 61.5781 56.043 61.2188 55.8945C60.8633 55.7422 60.5566 55.5293 60.2988 55.2559C60.0449 54.9824 59.8496 54.6582 59.7129 54.2832C59.5762 53.9082 59.5078 53.498 59.5078 53.0527V52.8066C59.5078 52.291 59.584 51.832 59.7363 51.4297C59.8887 51.0234 60.0957 50.6797 60.3574 50.3984C60.6191 50.1172 60.916 49.9043 61.248 49.7598C61.5801 49.6152 61.9238 49.543 62.2793 49.543C62.7324 49.543 63.123 49.6211 63.4512 49.7773C63.7832 49.9336 64.0547 50.1523 64.2656 50.4336C64.4766 50.7109 64.6328 51.0391 64.7344 51.418C64.8359 51.793 64.8867 52.2031 64.8867 52.6484V53.1348H60.1523V52.25H63.8027V52.168C63.7871 51.8867 63.7285 51.6133 63.627 51.3477C63.5293 51.082 63.373 50.8633 63.1582 50.6914C62.9434 50.5195 62.6504 50.4336 62.2793 50.4336C62.0332 50.4336 61.8066 50.4863 61.5996 50.5918C61.3926 50.6934 61.2148 50.8457 61.0664 51.0488C60.918 51.252 60.8027 51.5 60.7207 51.793C60.6387 52.0859 60.5977 52.4238 60.5977 52.8066V53.0527C60.5977 53.3535 60.6387 53.6367 60.7207 53.9023C60.8066 54.1641 60.9297 54.3945 61.0898 54.5938C61.2539 54.793 61.4512 54.9492 61.6816 55.0625C61.916 55.1758 62.1816 55.2324 62.4785 55.2324C62.8613 55.2324 63.1855 55.1543 63.4512 54.998C63.7168 54.8418 63.9492 54.6328 64.1484 54.3711L64.8047 54.8926C64.668 55.0996 64.4941 55.2969 64.2832 55.4844C64.0723 55.6719 63.8125 55.8242 63.5039 55.9414C63.1992 56.0586 62.8379 56.1172 62.4199 56.1172ZM67.2363 51.0137V56H66.1523V49.6602H67.1777L67.2363 51.0137ZM66.9785 52.5898L66.5273 52.5723C66.5312 52.1387 66.5957 51.7383 66.7207 51.3711C66.8457 51 67.0215 50.6777 67.248 50.4043C67.4746 50.1309 67.7441 49.9199 68.0566 49.7715C68.373 49.6191 68.7227 49.543 69.1055 49.543C69.418 49.543 69.6992 49.5859 69.9492 49.6719C70.1992 49.7539 70.4121 49.8867 70.5879 50.0703C70.7676 50.2539 70.9043 50.4922 70.998 50.7852C71.0918 51.0742 71.1387 51.4277 71.1387 51.8457V56H70.0488V51.834C70.0488 51.502 70 51.2363 69.9023 51.0371C69.8047 50.834 69.6621 50.6875 69.4746 50.5977C69.2871 50.5039 69.0566 50.457 68.7832 50.457C68.5137 50.457 68.2676 50.5137 68.0449 50.627C67.8262 50.7402 67.6367 50.8965 67.4766 51.0957C67.3203 51.2949 67.1973 51.5234 67.1074 51.7812C67.0215 52.0352 66.9785 52.3047 66.9785 52.5898ZM31.9922 61.4688V70H30.8789V61.4688H31.9922ZM34.7344 61.4688V62.3945H28.1426V61.4688H34.7344ZM38.9062 68.916V65.6523C38.9062 65.4023 38.8555 65.1855 38.7539 65.002C38.6562 64.8145 38.5078 64.6699 38.3086 64.5684C38.1094 64.4668 37.8633 64.416 37.5703 64.416C37.2969 64.416 37.0566 64.4629 36.8496 64.5566C36.6465 64.6504 36.4863 64.7734 36.3691 64.9258C36.2559 65.0781 36.1992 65.2422 36.1992 65.418H35.1152C35.1152 65.1914 35.1738 64.9668 35.291 64.7441C35.4082 64.5215 35.5762 64.3203 35.7949 64.1406C36.0176 63.957 36.2832 63.8125 36.5918 63.707C36.9043 63.5977 37.252 63.543 37.6348 63.543C38.0957 63.543 38.502 63.6211 38.8535 63.7773C39.209 63.9336 39.4863 64.1699 39.6855 64.4863C39.8887 64.7988 39.9902 65.1914 39.9902 65.6641V68.6172C39.9902 68.8281 40.0078 69.0527 40.043 69.291C40.082 69.5293 40.1387 69.7344 40.2129 69.9062V70H39.082C39.0273 69.875 38.9844 69.709 38.9531 69.502C38.9219 69.291 38.9062 69.0957 38.9062 68.916ZM39.0938 66.1562L39.1055 66.918H38.0098C37.7012 66.918 37.4258 66.9434 37.1836 66.9941C36.9414 67.041 36.7383 67.1133 36.5742 67.2109C36.4102 67.3086 36.2852 67.4316 36.1992 67.5801C36.1133 67.7246 36.0703 67.8945 36.0703 68.0898C36.0703 68.2891 36.1152 68.4707 36.2051 68.6348C36.2949 68.7988 36.4297 68.9297 36.6094 69.0273C36.793 69.1211 37.0176 69.168 37.2832 69.168C37.6152 69.168 37.9082 69.0977 38.1621 68.957C38.416 68.8164 38.6172 68.6445 38.7656 68.4414C38.918 68.2383 39 68.041 39.0117 67.8496L39.4746 68.3711C39.4473 68.5352 39.373 68.7168 39.252 68.916C39.1309 69.1152 38.9688 69.3066 38.7656 69.4902C38.5664 69.6699 38.3281 69.8203 38.0508 69.9414C37.7773 70.0586 37.4688 70.1172 37.125 70.1172C36.6953 70.1172 36.3184 70.0332 35.9941 69.8652C35.6738 69.6973 35.4238 69.4727 35.2441 69.1914C35.0684 68.9062 34.9805 68.5879 34.9805 68.2363C34.9805 67.8965 35.0469 67.5977 35.1797 67.3398C35.3125 67.0781 35.5039 66.8613 35.7539 66.6895C36.0039 66.5137 36.3047 66.3809 36.6562 66.291C37.0078 66.2012 37.4004 66.1562 37.834 66.1562H39.0938ZM45.3867 68.3184C45.3867 68.1621 45.3516 68.0176 45.2812 67.8848C45.2148 67.748 45.0762 67.625 44.8652 67.5156C44.6582 67.4023 44.3457 67.3047 43.9277 67.2227C43.5762 67.1484 43.2578 67.0605 42.9727 66.959C42.6914 66.8574 42.4512 66.7344 42.252 66.5898C42.0566 66.4453 41.9062 66.2754 41.8008 66.0801C41.6953 65.8848 41.6426 65.6562 41.6426 65.3945C41.6426 65.1445 41.6973 64.9082 41.8066 64.6855C41.9199 64.4629 42.0781 64.2656 42.2812 64.0938C42.4883 63.9219 42.7363 63.7871 43.0254 63.6895C43.3145 63.5918 43.6367 63.543 43.9922 63.543C44.5 63.543 44.9336 63.6328 45.293 63.8125C45.6523 63.9922 45.9277 64.2324 46.1191 64.5332C46.3105 64.8301 46.4062 65.1602 46.4062 65.5234H45.3223C45.3223 65.3477 45.2695 65.1777 45.1641 65.0137C45.0625 64.8457 44.9121 64.707 44.7129 64.5977C44.5176 64.4883 44.2773 64.4336 43.9922 64.4336C43.6914 64.4336 43.4473 64.4805 43.2598 64.5742C43.0762 64.6641 42.9414 64.7793 42.8555 64.9199C42.7734 65.0605 42.7324 65.209 42.7324 65.3652C42.7324 65.4824 42.752 65.5879 42.791 65.6816C42.834 65.7715 42.9082 65.8555 43.0137 65.9336C43.1191 66.0078 43.2676 66.0781 43.459 66.1445C43.6504 66.2109 43.8945 66.2773 44.1914 66.3438C44.7109 66.4609 45.1387 66.6016 45.4746 66.7656C45.8105 66.9297 46.0605 67.1309 46.2246 67.3691C46.3887 67.6074 46.4707 67.8965 46.4707 68.2363C46.4707 68.5137 46.4121 68.7676 46.2949 68.998C46.1816 69.2285 46.0156 69.4277 45.7969 69.5957C45.582 69.7598 45.3242 69.8887 45.0234 69.9824C44.7266 70.0723 44.3926 70.1172 44.0215 70.1172C43.4629 70.1172 42.9902 70.0176 42.6035 69.8184C42.2168 69.6191 41.9238 69.3613 41.7246 69.0449C41.5254 68.7285 41.4258 68.3945 41.4258 68.043H42.5156C42.5312 68.3398 42.6172 68.5762 42.7734 68.752C42.9297 68.9238 43.1211 69.0469 43.3477 69.1211C43.5742 69.1914 43.7988 69.2266 44.0215 69.2266C44.3184 69.2266 44.5664 69.1875 44.7656 69.1094C44.9688 69.0312 45.123 68.9238 45.2285 68.7871C45.334 68.6504 45.3867 68.4941 45.3867 68.3184ZM48.9844 61V70H47.8945V61H48.9844ZM52.8574 63.6602L50.0918 66.6191L48.5449 68.2246L48.457 67.0703L49.5645 65.7461L51.5332 63.6602H52.8574ZM51.8672 70L49.6055 66.9766L50.168 66.0098L53.1445 70H51.8672Z" fill="white"/>
</svg>
