<svg width="158" height="150" viewBox="0 0 158 150" fill="none" xmlns="http://www.w3.org/2000/svg">
<path d="M95.632 8.4158L13.3157 26.0287L37.719 139.446L120.035 121.833L95.632 8.4158Z" fill="#E0E0E0"/>
<path d="M93.8147 11.6543L16.3052 28.2386L39.3627 135.401L116.872 118.817L93.8147 11.6543Z" fill="#FAFAFA"/>
<path d="M72.897 10.8537L35.2554 18.9077L37.1659 27.7866L74.8074 19.7326L72.897 10.8537Z" fill="#E0E0E0"/>
<path d="M52.2088 6.207C51.1683 6.4297 50.2175 6.95505 49.4764 7.71664C48.7354 8.47823 48.2374 9.44185 48.0456 10.4856C47.8537 11.5294 47.9765 12.6065 48.3984 13.5807C48.8204 14.5549 49.5226 15.3824 50.4162 15.9587C51.3098 16.5349 52.3546 16.834 53.4187 16.8181C54.4827 16.8022 55.5181 16.472 56.394 15.8692C57.2698 15.2665 57.9468 14.4183 58.3392 13.432C58.7317 12.4456 58.8221 11.3653 58.5989 10.3277C58.4507 9.63873 58.1678 8.98559 57.7664 8.40561C57.3651 7.82563 56.8531 7.33017 56.2597 6.94752C55.6663 6.56487 55.0032 6.30253 54.3081 6.17547C53.6131 6.04841 52.8997 6.05912 52.2088 6.207V6.207ZM53.9889 14.4869C53.3883 14.6154 52.763 14.5634 52.1921 14.3375C51.6212 14.1116 51.1302 13.722 50.7814 13.2178C50.4325 12.7137 50.2414 12.1177 50.2322 11.5053C50.2231 10.8928 50.3962 10.2914 50.7298 9.77712C51.0634 9.26281 51.5424 8.85871 52.1063 8.61591C52.6703 8.37311 53.2937 8.30252 53.8978 8.41307C54.502 8.52363 55.0597 8.81035 55.5004 9.23699C55.9411 9.66362 56.2451 10.211 56.3738 10.8099C56.5464 11.6129 56.3921 12.4513 55.9449 13.1409C55.4976 13.8304 54.794 14.3146 53.9889 14.4869V14.4869Z" fill="#E0E0E0"/>
<path d="M133.871 22.4594H49.6813V138.458H133.871V22.4594Z" fill="#E0E0E0"/>
<path d="M131.413 25.2468H52.1394V134.848H131.413V25.2468Z" fill="white"/>
<path d="M111.129 20.0868H72.6311V29.1677H111.129V20.0868Z" fill="#E0E0E0"/>
<path d="M91.8802 11.2211C90.8161 11.2211 89.7758 11.5358 88.8909 12.1253C88.0061 12.7149 87.3165 13.5529 86.9092 14.5333C86.502 15.5138 86.3954 16.5926 86.603 17.6334C86.8107 18.6742 87.3231 19.6303 88.0756 20.3807C88.8281 21.1311 89.7868 21.6421 90.8305 21.8491C91.8743 22.0562 92.9561 21.9499 93.9393 21.5438C94.9225 21.1377 95.7628 20.45 96.354 19.5676C96.9453 18.6852 97.2608 17.6479 97.2608 16.5866C97.2608 15.1636 96.694 13.7989 95.6849 12.7926C94.6758 11.7864 93.3073 11.2211 91.8802 11.2211ZM91.8802 19.6834C91.2665 19.6827 90.6668 19.5006 90.1568 19.1602C89.6468 18.8198 89.2494 18.3363 89.0147 17.7708C88.78 17.2054 88.7186 16.5832 88.8382 15.983C88.9579 15.3827 89.2532 14.8313 89.6869 14.3983C90.1206 13.9652 90.6732 13.6701 91.275 13.55C91.8767 13.43 92.5007 13.4904 93.0681 13.7238C93.6354 13.9571 94.1207 14.3528 94.4627 14.861C94.8047 15.3692 94.988 15.967 94.9895 16.579C94.9893 16.9858 94.9086 17.3886 94.7522 17.7644C94.5958 18.1401 94.3667 18.4814 94.0779 18.7688C93.7892 19.0562 93.4465 19.2841 93.0694 19.4394C92.6923 19.5947 92.2882 19.6743 91.8802 19.6738V19.6834Z" fill="#E0E0E0"/>
</svg>
