<svg width="342" height="184" viewBox="0 0 342 184" fill="none" xmlns="http://www.w3.org/2000/svg">
<g filter="url(#filter0_f_7008_126676)">
<path d="M37.5758 144.655C36.3634 144.529 36.3889 142.755 37.6044 142.663L245.404 127.007C245.468 127.002 245.532 127.004 245.595 127.011L295.939 132.885C297.133 133.024 297.111 134.765 295.914 134.874L108.097 151.991C108.033 151.997 107.967 151.997 107.903 151.99L37.5758 144.655Z" fill="url(#paint0_radial_7008_126676)"/>
</g>
<path d="M85.9997 65.1001C44.1903 67.1332 31.034 74.8259 15.4997 93.6001C14.006 98.7615 14.0939 104.583 14.3199 109.826C14.4789 113.514 17.5 115.6 14.4997 119.6C11.9437 125.516 17.9962 131.596 35.4831 131.6L35.4997 131.1C52.1081 146.733 67.9997 143.6 77.9997 130.1H87.4997C101.194 135.976 109.571 137.848 126 137.6C145 157.1 167 149.1 175 133.6L197 129.6C204.11 131.402 207.688 130.749 213 125.6L247 123.1L273 125.6C278.802 139.702 298.5 140.1 305 122.6C315.86 116.616 319.926 113.525 327.5 103.6L328.5 95.0996L326 91.5996V81.5996L328 80.0996V77.5997L325.5 76.6001C304.5 61.5998 275.303 44.8615 250.5 37.6001C208.5 29.1001 174 31.0997 136 38.1C113.673 43.603 102.377 52.6431 85.9997 65.1001Z" fill="#D9D9D9"/>
<path d="M85.9997 65.1001C44.1903 67.1332 31.034 74.8259 15.4997 93.6001C14.006 98.7615 14.0939 104.583 14.3199 109.826C14.4789 113.514 17.5 115.6 14.4997 119.6C11.9437 125.516 17.9962 131.596 35.4831 131.6L35.4997 131.1C52.1081 146.733 67.9997 143.6 77.9997 130.1H87.4997C101.194 135.976 109.571 137.848 126 137.6C145 157.1 167 149.1 175 133.6L197 129.6C204.11 131.402 207.688 130.749 213 125.6L247 123.1L273 125.6C278.802 139.702 298.5 140.1 305 122.6C315.86 116.616 319.926 113.525 327.5 103.6L328.5 95.0996L326 91.5996V81.5996L328 80.0996V77.5997L325.5 76.6001C304.5 61.5998 275.303 44.8615 250.5 37.6001C208.5 29.1001 174 31.0997 136 38.1C113.673 43.603 102.377 52.6431 85.9997 65.1001Z" fill="url(#paint1_linear_7008_126676)"/>
<path d="M146 45.0342L140 62.0341H117H103.5C119.513 50.1747 128.696 44.5009 146 45.0342Z" fill="#4B9995"/>
<path d="M165 46.0643L163.729 61.0342H158.859H156C159.391 50.591 161.336 45.5947 165 46.0643Z" fill="#4B9995"/>
<path d="M175.828 48.863L182.521 50.6561L177.622 55.5551L175.828 48.863Z" fill="#4B9995"/>
<defs>
<filter id="filter0_f_7008_126676" x="31.6797" y="122.004" width="270.143" height="34.9912" filterUnits="userSpaceOnUse" color-interpolation-filters="sRGB">
<feFlood flood-opacity="0" result="BackgroundImageFix"/>
<feBlend mode="normal" in="SourceGraphic" in2="BackgroundImageFix" result="shape"/>
<feGaussianBlur stdDeviation="2.5" result="effect1_foregroundBlur_7008_126676"/>
</filter>
<radialGradient id="paint0_radial_7008_126676" cx="0" cy="0" r="1" gradientUnits="userSpaceOnUse" gradientTransform="translate(166 139.5) scale(139.5 12.5)">
<stop offset="0.677885" stop-color="#050C0F"/>
<stop offset="1" stop-color="#132C30"/>
</radialGradient>
<linearGradient id="paint1_linear_7008_126676" x1="76.9435" y1="-56.465" x2="253.527" y2="181.398" gradientUnits="userSpaceOnUse">
<stop stop-color="#F4F07A"/>
<stop offset="0.502878" stop-color="#36AEB4"/>
<stop offset="1" stop-color="#1C6EA4"/>
</linearGradient>
</defs>
</svg>
