<svg width="16" height="16" viewBox="0 0 16 16" fill="none" xmlns="http://www.w3.org/2000/svg">
<path d="M9.9987 1.33325H3.9987C3.26536 1.33325 2.66537 1.93325 2.66537 2.66659V13.3333C2.66537 14.0666 3.26536 14.6666 3.9987 14.6666H9.9987C10.732 14.6666 11.332 14.0666 11.332 13.3333V12.6666C11.332 12.4898 11.2618 12.3202 11.1368 12.1952C11.0117 12.0702 10.8422 11.9999 10.6654 11.9999C10.4886 11.9999 10.319 12.0702 10.194 12.1952C10.0689 12.3202 9.9987 12.4898 9.9987 12.6666V13.3333H3.9987V2.66659H9.9987V3.33325C9.9987 3.51006 10.0689 3.67963 10.194 3.80466C10.319 3.92968 10.4886 3.99992 10.6654 3.99992C10.8422 3.99992 11.0117 3.92968 11.1368 3.80466C11.2618 3.67963 11.332 3.51006 11.332 3.33325V2.66659C11.332 1.93325 10.732 1.33325 9.9987 1.33325Z" fill="#DE350B"/>
<path d="M8.80333 10.8634C8.54333 11.1234 8.12333 11.1234 7.86333 10.8634L5.47133 8.47142C5.34635 8.3464 5.27614 8.17686 5.27614 8.00008C5.27614 7.82331 5.34635 7.65377 5.47133 7.52875L7.86333 5.13675C7.99006 5.02221 8.15595 4.96075 8.32671 4.96506C8.49747 4.96937 8.66005 5.03912 8.78084 5.15991C8.90162 5.2807 8.97138 5.44327 8.97569 5.61404C8.98 5.7848 8.91854 5.95069 8.804 6.07742L7.55333 7.33342H13.3333C13.5101 7.33342 13.6797 7.40366 13.8047 7.52868C13.9298 7.6537 14 7.82327 14 8.00008C14 8.17689 13.9298 8.34646 13.8047 8.47149C13.6797 8.59651 13.5101 8.66675 13.3333 8.66675H7.55333L8.804 9.92275C8.92844 10.0477 8.99826 10.2169 8.99813 10.3932C8.99801 10.5696 8.92795 10.7387 8.80333 10.8634Z" fill="#DE350B"/>
</svg>
