<svg width="16" height="16" viewBox="0 0 16 16" fill="none" xmlns="http://www.w3.org/2000/svg">
<path d="M6.0013 1.33325H12.0013C12.7346 1.33325 13.3346 1.93325 13.3346 2.66659V13.3333C13.3346 14.0666 12.7346 14.6666 12.0013 14.6666H6.0013C5.26797 14.6666 4.66797 14.0666 4.66797 13.3333V12.6666C4.66797 12.4898 4.73821 12.3202 4.86323 12.1952C4.98826 12.0702 5.15782 11.9999 5.33464 11.9999C5.51145 11.9999 5.68102 12.0702 5.80604 12.1952C5.93106 12.3202 6.0013 12.4898 6.0013 12.6666V13.3333H12.0013V2.66659H6.0013V3.33325C6.0013 3.51006 5.93106 3.67963 5.80604 3.80466C5.68102 3.92968 5.51145 3.99992 5.33464 3.99992C5.15782 3.99992 4.98826 3.92968 4.86323 3.80466C4.73821 3.67963 4.66797 3.51006 4.66797 3.33325V2.66659C4.66797 1.93325 5.26797 1.33325 6.0013 1.33325Z" fill="#00A92F"/>
<path d="M7.19667 10.8634C7.45667 11.1234 7.87667 11.1234 8.13667 10.8634L10.5287 8.47142C10.6536 8.3464 10.7239 8.17686 10.7239 8.00008C10.7239 7.82331 10.6536 7.65377 10.5287 7.52875L8.13667 5.13675C8.00994 5.02221 7.84405 4.96075 7.67329 4.96506C7.50253 4.96937 7.33995 5.03912 7.21916 5.15991C7.09838 5.2807 7.02862 5.44327 7.02431 5.61404C7.02 5.7848 7.08146 5.95069 7.196 6.07742L8.44667 7.33342H2.66667C2.48986 7.33342 2.32029 7.40366 2.19526 7.52868C2.07024 7.6537 2 7.82327 2 8.00008C2 8.17689 2.07024 8.34646 2.19526 8.47149C2.32029 8.59651 2.48986 8.66675 2.66667 8.66675H8.44667L7.196 9.92275C7.07156 10.0477 7.00174 10.2169 7.00187 10.3932C7.00199 10.5696 7.07205 10.7387 7.19667 10.8634Z" fill="#00A92F"/>
</svg>
