<svg width="24" height="24" viewBox="0 0 24 24" fill="none" xmlns="http://www.w3.org/2000/svg">
<path d="M8.78571 4.50024H6.64286C6.07454 4.50024 5.52949 4.72601 5.12763 5.12789C4.72576 5.52976 4.5 6.07482 4.5 6.64315V19.5006C4.5 20.0689 4.72576 20.614 5.12763 21.0158C5.52949 21.4177 6.07454 21.6435 6.64286 21.6435H17.3571C17.9255 21.6435 18.4705 21.4177 18.8724 21.0158C19.2742 20.614 19.5 20.0689 19.5 19.5006V6.64315C19.5 6.07482 19.2742 5.52976 18.8724 5.12789C18.4705 4.72601 17.9255 4.50024 17.3571 4.50024H15.2143" stroke="#00A2B9" stroke-width="1.87497" stroke-linecap="round" stroke-linejoin="round"/>
<path d="M8.78564 12.001H8.79636M13.0714 12.001H15.2142M8.78564 16.2868H8.79636M13.0714 16.2868H15.2142M8.78564 4.50081C8.78564 3.93248 9.01141 3.38742 9.41327 2.98555C9.81514 2.58368 10.3602 2.35791 10.9285 2.35791H13.0714C13.6397 2.35791 14.1847 2.58368 14.5866 2.98555C14.9885 3.38742 15.2142 3.93248 15.2142 4.50081C15.2142 5.06915 14.9885 5.6142 14.5866 6.01608C14.1847 6.41795 13.6397 6.64372 13.0714 6.64372H10.9285C10.3602 6.64372 9.81514 6.41795 9.41327 6.01608C9.01141 5.6142 8.78564 5.06915 8.78564 4.50081Z" stroke="#00A2B9" stroke-width="1.87497" stroke-linecap="round" stroke-linejoin="round"/>
</svg>
