<svg width="24" height="24" viewBox="0 0 24 24" fill="none" xmlns="http://www.w3.org/2000/svg">
<path d="M12 21.0001C11.3 21.0001 10.7083 20.7541 10.225 20.2621C9.74167 19.7708 9.5 19.1834 9.5 18.5001C9.5 17.8001 9.74167 17.2084 10.225 16.7251C10.7083 16.2418 11.3 16.0001 12 16.0001C12.7 16.0001 13.2917 16.2418 13.775 16.7251C14.2583 17.2084 14.5 17.8001 14.5 18.5001C14.5 19.1834 14.2583 19.7708 13.775 20.2621C13.2917 20.7541 12.7 21.0001 12 21.0001ZM20.8 10.1001C19.5833 9.11677 18.2293 8.3541 16.738 7.8121C15.246 7.27076 13.6667 7.0001 12 7.0001C11.65 7.0001 11.3127 7.01243 10.988 7.0371C10.6627 7.06243 10.3333 7.1001 10 7.1501L7.45 4.6001C8.18333 4.4001 8.92933 4.2501 9.688 4.1501C10.446 4.0501 11.2167 4.0001 12 4.0001C14.0833 4.0001 16.0543 4.3501 17.913 5.0501C19.771 5.7501 21.4333 6.71676 22.9 7.9501C23.2167 8.21676 23.3793 8.5501 23.388 8.9501C23.396 9.3501 23.25 9.70843 22.95 10.0251C22.6667 10.3084 22.321 10.4584 21.913 10.4751C21.5043 10.4918 21.1333 10.3668 20.8 10.1001ZM17.575 14.7251L17.013 14.1621L16.45 13.6001L12.85 10.0001C13.95 10.1001 14.996 10.3501 15.988 10.7501C16.9793 11.1501 17.8667 11.6584 18.65 12.2751C18.9833 12.5251 19.15 12.8501 19.15 13.2501C19.15 13.6501 19 14.0001 18.7 14.3001C18.55 14.4501 18.375 14.5624 18.175 14.6371C17.975 14.7124 17.775 14.7418 17.575 14.7251ZM19.05 21.9001L10.35 13.1501C9.81667 13.2668 9.31267 13.4291 8.838 13.6371C8.36267 13.8458 7.90833 14.0918 7.475 14.3751C7.10833 14.6251 6.725 14.7418 6.325 14.7251C5.925 14.7084 5.58333 14.5584 5.3 14.2751C5 13.9751 4.85833 13.6168 4.875 13.2001C4.89167 12.7834 5.05833 12.4584 5.375 12.2251C5.75833 11.9251 6.16667 11.6541 6.6 11.4121C7.03333 11.1708 7.48333 10.9501 7.95 10.7501L5.7 8.5001C5.25 8.73343 4.81667 8.98343 4.4 9.2501C3.98333 9.51676 3.58333 9.8001 3.2 10.1001C2.86667 10.3668 2.496 10.4961 2.088 10.4881C1.67933 10.4794 1.33333 10.3251 1.05 10.0251C0.766667 9.7251 0.625 9.36676 0.625 8.9501C0.625 8.53343 0.783333 8.2001 1.1 7.9501C1.48333 7.63343 1.871 7.34176 2.263 7.0751C2.65433 6.80843 3.06667 6.5501 3.5 6.3001L2.1 4.9001C1.91667 4.71676 1.825 4.48343 1.825 4.2001C1.825 3.91676 1.91667 3.68343 2.1 3.5001C2.28333 3.31676 2.51667 3.2251 2.8 3.2251C3.08333 3.2251 3.31667 3.31676 3.5 3.5001L20.475 20.4751C20.6583 20.6584 20.75 20.8961 20.75 21.1881C20.75 21.4794 20.6583 21.7168 20.475 21.9001C20.275 22.1001 20.0333 22.1961 19.75 22.1881C19.4667 22.1794 19.2333 22.0834 19.05 21.9001Z" fill="#DE350B"/>
</svg>
