<svg width="24" height="24" viewBox="0 0 24 24" fill="none" xmlns="http://www.w3.org/2000/svg">
<path d="M9.2913 10.4835L14.6587 12.9075L12.1897 16.3641L11.9405 16.7129L12.1146 17.1046L14.8459 23.25H6.39999C5.70964 23.25 5.14999 22.6904 5.14999 22V2C5.14999 1.30964 5.70964 0.75 6.39999 0.75H9.14536L11.1646 4.62025L8.91902 9.48571L8.60214 10.1723L9.2913 10.4835Z" stroke="#DE350B" stroke-width="1.5"/>
<path d="M18.85 10.972L13.6942 8.14468L16.0144 4.8301L16.3016 4.41984L16.0328 3.99734L13.9663 0.75H17.6C18.2904 0.75 18.85 1.30964 18.85 2V10.972ZM11.9462 16.8984L18.85 12.6499V22C18.85 22.6904 18.2904 23.25 17.6 23.25H14.6928L13.2884 20.0023L11.9462 16.8984Z" stroke="#DE350B" stroke-width="1.5"/>
<path d="M8.39999 15.7998L13 17.1998L16.4 16.3998V22.3998H8.39999V15.7998Z" fill="#FEEDEC"/>
<path d="M12 21C12.3978 21 12.7794 20.842 13.0607 20.5607C13.342 20.2794 13.5 19.8978 13.5 19.5C13.5 19.1022 13.342 18.7206 13.0607 18.4393C12.7794 18.158 12.3978 18 12 18C11.6022 18 11.2206 18.158 10.9393 18.4393C10.658 18.7206 10.5 19.1022 10.5 19.5C10.5 19.8978 10.658 20.2794 10.9393 20.5607C11.2206 20.842 11.6022 21 12 21Z" fill="#DE350B"/>
</svg>
