<svg width="16" height="17" viewBox="0 0 16 17" fill="none" xmlns="http://www.w3.org/2000/svg">
<path d="M3.33333 13.8334C3.33333 14.187 3.47381 14.5261 3.72386 14.7762C3.97391 15.0262 4.31304 15.1667 4.66667 15.1667H11.3333C11.687 15.1667 12.0261 15.0262 12.2761 14.7762C12.5262 14.5261 12.6667 14.187 12.6667 13.8334V5.83337H14V4.50004H11.3333V3.16671C11.3333 2.81309 11.1929 2.47395 10.9428 2.2239C10.6928 1.97385 10.3536 1.83337 10 1.83337H6C5.64638 1.83337 5.30724 1.97385 5.05719 2.2239C4.80714 2.47395 4.66667 2.81309 4.66667 3.16671V4.50004H2V5.83337H3.33333V13.8334ZM6 3.16671H10V4.50004H6V3.16671ZM5.33333 5.83337H11.3333V13.8334H4.66667V5.83337H5.33333Z" fill="#DE350B"/>
<path d="M6 7.16663H7.33333V12.5H6V7.16663ZM8.66667 7.16663H10V12.5H8.66667V7.16663Z" fill="#DE350B"/>
</svg>
