<svg width="28" height="28" viewBox="0 0 28 28" fill="none" xmlns="http://www.w3.org/2000/svg">
<g clip-path="url(#clip0_4605_43059)">
<path d="M16.4851 9.79061L22.6832 8.12986C23.4304 7.92965 24.2265 8.03446 24.8964 8.42123C25.5663 8.80801 26.0551 9.44506 26.2553 10.1923V10.1923C26.4555 10.9394 26.3507 11.7356 25.964 12.4055C25.5772 13.0754 24.9401 13.5642 24.1929 13.7644L19.6627 14.9783C19.494 15.0236 19.3375 15.1063 19.205 15.2202C19.0724 15.3341 18.9672 15.4764 18.897 15.6364L16.3488 21.4524C16.2786 21.6125 16.1733 21.7547 16.0408 21.8686C15.9083 21.9825 15.7518 22.0652 15.583 22.1106L13.2796 22.7277C13.0955 22.777 12.9022 22.7803 12.7165 22.7375C12.5308 22.6948 12.3584 22.6072 12.2144 22.4824C12.0704 22.3576 11.9591 22.1994 11.8904 22.0217C11.8216 21.844 11.7974 21.6522 11.8199 21.463L12.1545 18.646C12.177 18.4569 12.1528 18.2652 12.0841 18.0875C12.0154 17.9099 11.9043 17.7518 11.7604 17.627C11.6165 17.5022 11.4443 17.4145 11.2587 17.3717C11.0732 17.3288 10.8799 17.332 10.6959 17.3809L6.3415 18.5477C6.12099 18.6068 5.888 18.5998 5.67139 18.5278C5.45478 18.4557 5.26407 18.3217 5.12288 18.1423L1.19813 13.1548C1.07867 13.003 0.998766 12.8239 0.965589 12.6337C0.932413 12.4434 0.947002 12.2478 1.00805 12.0646C1.06909 11.8813 1.17469 11.7161 1.31535 11.5837C1.45601 11.4513 1.62734 11.3559 1.81397 11.3061L3.91566 10.7429C4.12491 10.687 4.34561 10.6904 4.55304 10.7528C4.76047 10.8152 4.94643 10.9341 5.0901 11.0962L5.86491 11.9684C6.00858 12.1305 6.19454 12.2494 6.40197 12.3118C6.60939 12.3741 6.83009 12.3776 7.03935 12.3216L10.8506 11.3004M16.4851 9.79061L12.3554 6.549C12.213 6.43717 12.0464 6.36005 11.869 6.32373C11.6915 6.28742 11.5081 6.29292 11.3331 6.3398L9.21227 6.90808C9.02028 6.95963 8.84465 7.05939 8.70204 7.19788C8.55943 7.33637 8.45457 7.50901 8.39742 7.6994C8.34026 7.8898 8.33271 8.09164 8.37547 8.28578C8.41822 8.47992 8.50988 8.65991 8.64174 8.80867L10.8506 11.3004M16.4851 9.79061L10.8506 11.3004" stroke="#00A2B9" stroke-width="2" stroke-linecap="round" stroke-linejoin="round"/>
</g>
<defs>
<clipPath id="clip0_4605_43059">
<rect width="28" height="28" fill="white"/>
</clipPath>
</defs>
</svg>
