<svg width="40" height="40" viewBox="0 0 40 40" fill="none" xmlns="http://www.w3.org/2000/svg">
<circle cx="19.9989" cy="19.9999" r="10" stroke="#00A2B9" stroke-width="1.81818"/>
<path d="M19.0488 14.5308C19.3295 13.667 20.4929 13.6128 20.8838 14.3687L20.9512 14.5308L21.8652 17.3423C21.8774 17.3797 21.9118 17.4057 21.9512 17.4058H24.9082C25.8766 17.406 26.2793 18.6449 25.4961 19.2144L23.1035 20.9526C23.0719 20.9758 23.0582 21.0169 23.0703 21.0542L23.9844 23.8657C24.2837 24.787 23.229 25.5533 22.4453 24.9839L20.0537 23.2456C20.0219 23.2225 19.9781 23.2225 19.9463 23.2456L17.5547 24.9839C16.771 25.5532 15.7163 24.787 16.0156 23.8657L16.9297 21.0542C16.9418 21.0168 16.9282 20.9758 16.8965 20.9526L14.5049 19.2144C13.7212 18.645 14.124 17.4058 15.0928 17.4058H18.0488C18.0882 17.4058 18.1236 17.3797 18.1357 17.3423L19.0488 14.5308Z" stroke="#00A2B9" stroke-width="1.81818"/>
</svg>
