<svg width="28" height="29" viewBox="0 0 28 29" fill="none" xmlns="http://www.w3.org/2000/svg">
<g clip-path="url(#clip0_33047_12814)">
<path d="M16.485 10.2916L22.6831 8.63083C23.4302 8.43062 24.2264 8.53543 24.8963 8.92221C25.5662 9.30898 26.055 9.94604 26.2552 10.6932C26.4554 11.4404 26.3506 12.2365 25.9639 12.9064C25.5771 13.5764 24.94 14.0652 24.1928 14.2654L19.6626 15.4793C19.4939 15.5246 19.3374 15.6073 19.2049 15.7212C19.0723 15.8351 18.9671 15.9773 18.8969 16.1374L16.3487 21.9534C16.2785 22.1135 16.1732 22.2557 16.0407 22.3696C15.9081 22.4835 15.7517 22.5662 15.5829 22.6115L13.2795 23.2287C13.0954 23.2779 12.9021 23.2813 12.7164 23.2385C12.5307 23.1957 12.3583 23.1081 12.2143 22.9834C12.0703 22.8586 11.959 22.7004 11.8903 22.5227C11.8215 22.345 11.7973 22.1532 11.8198 21.9639L12.1544 19.147C12.1769 18.9579 12.1527 18.7661 12.084 18.5885C12.0153 18.4109 11.9042 18.2528 11.7603 18.128C11.6164 18.0032 11.4442 17.9155 11.2586 17.8726C11.0731 17.8297 10.8798 17.8329 10.6958 17.8819L6.3414 19.0487C6.12089 19.1077 5.88789 19.1008 5.67128 19.0287C5.45467 18.9567 5.26396 18.8227 5.12278 18.6433L1.19802 13.6558C1.07856 13.504 0.998659 13.3249 0.965482 13.1346C0.932306 12.9443 0.946895 12.7488 1.00794 12.5655C1.06899 12.3823 1.17458 12.217 1.31524 12.0847C1.45591 11.9523 1.62724 11.8569 1.81386 11.8071L3.91555 11.2439C4.12481 11.188 4.34551 11.1914 4.55293 11.2538C4.76036 11.3162 4.94632 11.4351 5.08999 11.5972L5.8648 12.4693C6.00847 12.6314 6.19443 12.7503 6.40186 12.8127C6.60929 12.8751 6.82999 12.8785 7.03924 12.8226L10.8505 11.8014M16.485 10.2916L12.3553 7.04998C12.2129 6.93815 12.0463 6.86102 11.8689 6.82471C11.6914 6.7884 11.508 6.7939 11.333 6.84078L9.21216 7.40906C9.02017 7.46061 8.84454 7.56037 8.70193 7.69886C8.55932 7.83735 8.45446 8.00998 8.39731 8.20038C8.34016 8.39078 8.3326 8.59262 8.37536 8.78676C8.41812 8.98089 8.50977 9.16088 8.64163 9.30965L10.8505 11.8014M16.485 10.2916L10.8505 11.8014L16.485 10.2916Z" fill="white"/>
<path d="M16.485 10.2916L22.6831 8.63083C23.4302 8.43062 24.2264 8.53543 24.8963 8.92221C25.5662 9.30898 26.055 9.94604 26.2552 10.6932V10.6932C26.4554 11.4404 26.3506 12.2365 25.9639 12.9064C25.5771 13.5764 24.94 14.0652 24.1928 14.2654L19.6626 15.4793C19.4939 15.5246 19.3374 15.6073 19.2049 15.7212C19.0723 15.8351 18.9671 15.9773 18.8969 16.1374L16.3487 21.9534C16.2785 22.1135 16.1732 22.2557 16.0407 22.3696C15.9081 22.4835 15.7517 22.5662 15.5829 22.6115L13.2795 23.2287C13.0954 23.2779 12.9021 23.2813 12.7164 23.2385C12.5307 23.1957 12.3583 23.1081 12.2143 22.9834C12.0703 22.8586 11.959 22.7004 11.8903 22.5227C11.8215 22.345 11.7973 22.1532 11.8198 21.9639L12.1544 19.147C12.1769 18.9579 12.1527 18.7661 12.084 18.5885C12.0153 18.4109 11.9042 18.2528 11.7603 18.128C11.6164 18.0032 11.4442 17.9155 11.2586 17.8726C11.0731 17.8297 10.8798 17.8329 10.6958 17.8819L6.3414 19.0487C6.12089 19.1077 5.88789 19.1008 5.67128 19.0287C5.45467 18.9567 5.26396 18.8227 5.12278 18.6433L1.19802 13.6558C1.07856 13.504 0.998659 13.3249 0.965482 13.1346C0.932306 12.9443 0.946895 12.7488 1.00794 12.5655C1.06899 12.3823 1.17458 12.217 1.31524 12.0847C1.45591 11.9523 1.62724 11.8569 1.81386 11.8071L3.91555 11.2439C4.12481 11.188 4.34551 11.1914 4.55293 11.2538C4.76036 11.3162 4.94632 11.4351 5.08999 11.5972L5.8648 12.4693C6.00847 12.6314 6.19443 12.7503 6.40186 12.8127C6.60929 12.8751 6.82999 12.8785 7.03924 12.8226L10.8505 11.8014M16.485 10.2916L12.3553 7.04998C12.2129 6.93815 12.0463 6.86102 11.8689 6.82471C11.6914 6.7884 11.508 6.7939 11.333 6.84078L9.21216 7.40906C9.02017 7.46061 8.84454 7.56037 8.70193 7.69886C8.55932 7.83735 8.45446 8.00998 8.39731 8.20038C8.34016 8.39078 8.3326 8.59262 8.37536 8.78676C8.41812 8.98089 8.50977 9.16088 8.64163 9.30965L10.8505 11.8014M16.485 10.2916L10.8505 11.8014" stroke="#00A2B9" stroke-width="2" stroke-linecap="round" stroke-linejoin="round"/>
<circle cx="21" cy="19.5" r="6.35" fill="#00A2B9" stroke="white" stroke-width="1.3"/>
<g clip-path="url(#clip1_33047_12814)">
<path d="M18.5251 19.4997H23.4749" stroke="white" stroke-width="1.3" stroke-linecap="round" stroke-linejoin="round"/>
<path d="M21 21.9746V17.0249" stroke="white" stroke-width="1.3" stroke-linecap="round" stroke-linejoin="round"/>
</g>
</g>
<defs>
<clipPath id="clip0_33047_12814">
<rect width="28" height="28" fill="white" transform="translate(0 0.5)"/>
</clipPath>
<clipPath id="clip1_33047_12814">
<rect width="7" height="7" fill="white" transform="translate(17.5 16)"/>
</clipPath>
</defs>
</svg>
