<svg width="29" height="28" viewBox="0 0 29 28" fill="none" xmlns="http://www.w3.org/2000/svg">
<path d="M9.2535 15.169C9.09879 15.169 8.95042 15.2305 8.84102 15.3399C8.73162 15.4493 8.67017 15.5977 8.67017 15.7524V19.2524C8.67017 19.4071 8.73162 19.5555 8.84102 19.6649C8.95042 19.7742 9.09879 19.8357 9.2535 19.8357C9.40821 19.8357 9.55658 19.7742 9.66598 19.6649C9.77538 19.5555 9.83683 19.4071 9.83683 19.2524V18.669H10.4167C10.8808 18.669 11.3259 18.4847 11.6541 18.1565C11.9823 17.8283 12.1667 17.3832 12.1667 16.919C12.1667 16.4549 11.9823 16.0098 11.6541 15.6816C11.3259 15.3534 10.8808 15.169 10.4167 15.169H9.2535ZM10.4167 17.5024H9.83683V16.3357H10.4167C10.5714 16.3357 10.7197 16.3972 10.8291 16.5066C10.9385 16.616 11 16.7643 11 16.919C11 17.0737 10.9385 17.2221 10.8291 17.3315C10.7197 17.4409 10.5714 17.5024 10.4167 17.5024ZM17.9977 15.7524C17.9977 15.5977 18.0591 15.4493 18.1685 15.3399C18.2779 15.2305 18.4263 15.169 18.581 15.169H20.3368C20.4915 15.169 20.6399 15.2305 20.7493 15.3399C20.8587 15.4493 20.9202 15.5977 20.9202 15.7524C20.9202 15.9071 20.8587 16.0555 20.7493 16.1649C20.6399 16.2742 20.4915 16.3357 20.3368 16.3357H19.1632L19.162 17.5047H20.3368C20.4915 17.5047 20.6399 17.5662 20.7493 17.6756C20.8587 17.785 20.9202 17.9333 20.9202 18.088C20.9202 18.2427 20.8587 18.3911 20.7493 18.5005C20.6399 18.6099 20.4915 18.6714 20.3368 18.6714H19.162L19.1643 19.2512C19.1645 19.3278 19.1495 19.4037 19.1204 19.4745C19.0912 19.5454 19.0484 19.6098 18.9943 19.664C18.8851 19.7736 18.7369 19.8354 18.5822 19.8357C18.4275 19.836 18.279 19.7749 18.1693 19.6657C18.0597 19.5565 17.998 19.4083 17.9977 19.2535L17.9942 18.0892V18.0869L17.9977 15.7524ZM13.9167 15.169H14.4977C15.1165 15.169 15.71 15.4149 16.1476 15.8525C16.5852 16.29 16.831 16.8835 16.831 17.5024C16.831 18.1212 16.5852 18.7147 16.1476 19.1523C15.71 19.5899 15.1165 19.8357 14.4977 19.8357H13.9167C13.762 19.8357 13.6136 19.7742 13.5042 19.6649C13.3948 19.5555 13.3333 19.4071 13.3333 19.2524V15.7524C13.3333 15.5977 13.3948 15.4493 13.5042 15.3399C13.6136 15.2305 13.762 15.169 13.9167 15.169ZM14.5 18.669C14.8094 18.669 15.1062 18.5461 15.325 18.3273C15.5437 18.1085 15.6667 17.8118 15.6667 17.5024C15.6667 17.193 15.5437 16.8962 15.325 16.6774C15.1062 16.4586 14.8094 16.3357 14.5 16.3357V18.669ZM14.5 9.33337V2.33337H7.5C6.88116 2.33337 6.28767 2.57921 5.85008 3.01679C5.4125 3.45438 5.16667 4.04787 5.16667 4.66671V12.446C4.47717 12.7739 4 13.4774 4 14.2917V20.7084C4 21.5227 4.47717 22.225 5.16667 22.554V23.3334C5.16667 23.9522 5.4125 24.5457 5.85008 24.9833C6.28767 25.4209 6.88116 25.6667 7.5 25.6667H21.5C22.1188 25.6667 22.7123 25.4209 23.1499 24.9833C23.5875 24.5457 23.8333 23.9522 23.8333 23.3334V22.554C24.5228 22.2262 25 21.5227 25 20.7084V14.2917C25 13.4774 24.5228 12.775 23.8333 12.446V11.6667H16.8333C16.2145 11.6667 15.621 11.4209 15.1834 10.9833C14.7458 10.5457 14.5 9.95221 14.5 9.33337ZM6.04167 14H22.9583C23.0357 14 23.1099 14.0308 23.1646 14.0855C23.2193 14.1402 23.25 14.2144 23.25 14.2917V20.7084C23.25 20.7857 23.2193 20.8599 23.1646 20.9146C23.1099 20.9693 23.0357 21 22.9583 21H6.04167C5.96431 21 5.89013 20.9693 5.83543 20.9146C5.78073 20.8599 5.75 20.7857 5.75 20.7084V14.2917C5.75 14.2144 5.78073 14.1402 5.83543 14.0855C5.89013 14.0308 5.96431 14 6.04167 14ZM16.25 9.33337V2.91671L23.25 9.91671H16.8333C16.6786 9.91671 16.5302 9.85525 16.4209 9.74585C16.3115 9.63646 16.25 9.48808 16.25 9.33337Z" fill="#666666"/>
</svg>
