<svg width="36" height="36" viewBox="0 0 36 36" fill="none" xmlns="http://www.w3.org/2000/svg">
<rect width="36" height="36" rx="9.6" fill="#E6F6F8"/>
<path d="M17.986 7.68555L18.1077 7.69277L18.1685 7.70102L18.2314 7.71442L18.3459 7.74948C18.4249 7.7787 18.5001 7.81749 18.5697 7.86498L18.6769 7.94955L18.9399 8.17436C21.0202 9.90229 23.6495 10.8301 26.3535 10.7906L26.7062 10.7803C26.9368 10.7698 27.1642 10.837 27.3521 10.971C27.5401 11.1051 27.6775 11.2983 27.7426 11.5197C28.2494 13.2435 28.4044 15.0516 28.1986 16.8366C27.9928 18.6215 27.4303 20.3468 26.5445 21.9101C25.6587 23.4733 24.4677 24.8425 23.0422 25.9364C21.6168 27.0302 19.9861 27.8264 18.2469 28.2775C18.0771 28.3216 17.8989 28.3216 17.7292 28.2775C15.9899 27.8265 14.359 27.0304 12.9335 25.9366C11.508 24.8428 10.3169 23.4736 9.43095 21.9104C8.54505 20.3471 7.98244 18.6217 7.77654 16.8368C7.57064 15.0518 7.72567 13.2436 8.23241 11.5197C8.29749 11.2983 8.43499 11.1051 8.62289 10.971C8.81079 10.837 9.03824 10.7698 9.26882 10.7803C12.0918 10.9094 14.8614 9.98007 17.0352 8.17436L17.3064 7.94233L17.4054 7.86498C17.475 7.81749 17.5501 7.7787 17.6292 7.74948L17.7447 7.71442C17.7851 7.70474 17.8261 7.6975 17.8674 7.69277L17.986 7.68555ZM17.988 14.9043C17.4677 14.9041 16.9665 15.1007 16.585 15.4545C16.2034 15.8083 15.9697 16.2932 15.9307 16.8121L15.9255 16.9668L15.9307 17.1215C15.9561 17.4562 16.0629 17.7797 16.2417 18.0638C16.4205 18.348 16.666 18.5842 16.9568 18.7519V20.5762L16.964 20.6968C16.995 20.9578 17.1246 21.1971 17.3261 21.3658C17.5277 21.5345 17.7861 21.6199 18.0485 21.6045C18.3109 21.5891 18.5575 21.4741 18.7379 21.283C18.9183 21.0918 19.019 20.839 19.0193 20.5762L19.0203 18.7529C19.4136 18.5259 19.7209 18.1754 19.8946 17.7558C20.0683 17.3362 20.0987 16.8711 19.9811 16.4325C19.8634 15.9939 19.6043 15.6064 19.244 15.3301C18.8836 15.0538 18.4421 14.9041 17.988 14.9043Z" fill="url(#paint0_linear_10279_2145)" fill-opacity="0.95"/>
<defs>
<linearGradient id="paint0_linear_10279_2145" x1="17.9876" y1="7.68555" x2="17.9876" y2="28.3106" gradientUnits="userSpaceOnUse">
<stop stop-color="#00A2B9" stop-opacity="0.3"/>
<stop offset="0.333333" stop-color="#00A2B9" stop-opacity="0.81"/>
<stop offset="1" stop-color="#00A2B9"/>
</linearGradient>
</defs>
</svg>
