<svg width="120" height="120" viewBox="0 0 120 120" fill="none" xmlns="http://www.w3.org/2000/svg">
<circle opacity="0.5" cx="60" cy="60" r="60" fill="#FEEDEC"/>
<circle cx="60" cy="60" r="48" fill="#FEEDEC"/>
<path d="M78.0682 55.9091C78.0682 70.2273 59.6591 82.5 59.6591 82.5C59.6591 82.5 41.25 70.2273 41.25 55.9091C41.25 51.0267 43.1895 46.3443 46.6419 42.8919C50.0943 39.4395 54.7767 37.5 59.6591 37.5C64.5415 37.5 69.2239 39.4395 72.6763 42.8919C76.1286 46.3443 78.0682 51.0267 78.0682 55.9091Z" stroke="#DE350B" stroke-width="4" stroke-linecap="round" stroke-linejoin="round"/>
<path d="M59.6588 62.0457C63.0478 62.0457 65.7952 59.2983 65.7952 55.9093C65.7952 52.5203 63.0478 49.7729 59.6588 49.7729C56.2698 49.7729 53.5225 52.5203 53.5225 55.9093C53.5225 59.2983 56.2698 62.0457 59.6588 62.0457Z" stroke="#DE350B" stroke-width="4" stroke-linecap="round" stroke-linejoin="round"/>
</svg>
