<svg width="45" height="44" viewBox="0 0 45 44" fill="none" xmlns="http://www.w3.org/2000/svg">
<rect x="0.5" width="44" height="44" rx="8" fill="#EBF5FB"/>
<path d="M31.272 20.156L29.904 16.051C29.7055 15.4535 29.3238 14.9337 28.8131 14.5655C28.3024 14.1973 27.6886 13.9994 27.059 14H17.941C17.3114 13.9994 16.6976 14.1973 16.1869 14.5655C15.6762 14.9337 15.2944 15.4535 15.096 16.051L13.728 20.156C13.3646 20.3085 13.0543 20.5648 12.8358 20.8928C12.6174 21.2208 12.5006 21.6059 12.5 22V27C12.5 27.753 12.923 28.402 13.539 28.743C13.526 28.809 13.5 28.869 13.5 28.938V31C13.5 31.2652 13.6054 31.5196 13.7929 31.7071C13.9804 31.8946 14.2348 32 14.5 32H15.5C15.7652 32 16.0196 31.8946 16.2071 31.7071C16.3946 31.5196 16.5 31.2652 16.5 31V29H28.5V31C28.5 31.2652 28.6054 31.5196 28.7929 31.7071C28.9804 31.8946 29.2348 32 29.5 32H30.5C30.7652 32 31.0196 31.8946 31.2071 31.7071C31.3946 31.5196 31.5 31.2652 31.5 31V28.938C31.5 28.869 31.474 28.808 31.461 28.743C31.7744 28.5721 32.0362 28.3202 32.2189 28.0136C32.4017 27.707 32.4988 27.357 32.5 27V22C32.5 21.171 31.992 20.459 31.272 20.156ZM14.5 27V22H30.5L30.502 27H14.5ZM17.941 16H27.058C27.489 16 27.871 16.274 28.007 16.684L29.113 20H15.887L16.992 16.684C17.0583 16.4848 17.1857 16.3115 17.356 16.1888C17.5264 16.066 17.731 16 17.941 16Z" fill="#00A2B9"/>
<path d="M17 26C17.8284 26 18.5 25.3284 18.5 24.5C18.5 23.6716 17.8284 23 17 23C16.1716 23 15.5 23.6716 15.5 24.5C15.5 25.3284 16.1716 26 17 26Z" fill="#00A2B9"/>
<path d="M28 26C28.8284 26 29.5 25.3284 29.5 24.5C29.5 23.6716 28.8284 23 28 23C27.1716 23 26.5 23.6716 26.5 24.5C26.5 25.3284 27.1716 26 28 26Z" fill="#00A2B9"/>
<path d="M25.5 15C25.5 14.606 25.4224 14.2159 25.2716 13.8519C25.1209 13.488 24.8999 13.1573 24.6213 12.8787C24.3427 12.6001 24.012 12.3791 23.6481 12.2284C23.2841 12.0776 22.894 12 22.5 12C22.106 12 21.7159 12.0776 21.3519 12.2284C20.988 12.3791 20.6573 12.6001 20.3787 12.8787C20.1001 13.1573 19.8791 13.488 19.7284 13.8519C19.5776 14.2159 19.5 14.606 19.5 15L22.5 15H25.5Z" fill="#00A2B9"/>
</svg>
