<svg width="32" height="32" viewBox="0 0 32 32" fill="none" xmlns="http://www.w3.org/2000/svg">
<path d="M15.6001 11.4H11.6001V15.4H15.6001V11.4Z" fill="white"/>
<path d="M20.8999 11.4H16.8999V15.4H20.8999V11.4Z" fill="white"/>
<path d="M15.6001 16.6H11.6001V20.6H15.6001V16.6Z" fill="white"/>
<rect x="17" y="17" width="4" height="4" fill="#F2AF1D"/>
<path d="M16 6C16.5523 6 17 5.55228 17 5C17 4.44772 16.5523 4 16 4C15.4477 4 15 4.44772 15 5C15 5.55228 15.4477 6 16 6Z" fill="#F2AF1D"/>
<path d="M22 4H10C8.9 4 8 4.9 8 6V26C8 27.1 8.9 28 10 28H22C23.1 28 24 27.1 24 26V6C24 4.9 23.1 4 22 4ZM15.6 20.6H11.6V16.6H15.6V20.6ZM15.6 15.4H11.6V11.4H15.6V15.4ZM16 5.7C15.7 5.7 15.5 5.5 15.5 5.2C15.5 4.9 15.7 4.7 16 4.7C16.3 4.7 16.5 4.9 16.5 5.2C16.5 5.5 16.3 5.7 16 5.7ZM20 19.1H19.4V19.6C19.4 19.9 19.2 20.1 18.9 20.1C18.6 20.1 18.4 19.9 18.4 19.6V19.1H17.9C17.6 19.1 17.4 18.9 17.4 18.6C17.4 18.3 17.6 18.1 17.9 18.1H18.5V17.5C18.5 17.2 18.7 17 19 17C19.3 17 19.5 17.2 19.5 17.5V18.1H20C20.3 18.1 20.5 18.3 20.5 18.6C20.5 18.8 20.2 19.1 20 19.1ZM20.9 15.4H16.9V11.4H20.9V15.4Z" fill="#00A2B9"/>
</svg>
