<svg width="16" height="16" viewBox="0 0 16 16" fill="none" xmlns="http://www.w3.org/2000/svg">
<path d="M2.27598 9.18513L1.33331 10.1278L4.63265 11.5418L6.04731 14.8418L6.98998 13.8991L6.51865 11.5418L8.72731 9.33313L11.134 14.4691L12.0266 13.5765L11.2333 6.8278L13.1186 4.9418C13.246 4.8188 13.3476 4.67168 13.4174 4.509C13.4873 4.34633 13.5241 4.17137 13.5256 3.99433C13.5272 3.81729 13.4934 3.64172 13.4264 3.47786C13.3594 3.314 13.2604 3.16513 13.1352 3.03994C13.01 2.91475 12.8611 2.81574 12.6973 2.7487C12.5334 2.68166 12.3578 2.64793 12.1808 2.64946C12.0037 2.651 11.8288 2.68778 11.6661 2.75766C11.5034 2.82754 11.3563 2.92912 11.2333 3.05647L9.29798 4.9918L2.54931 4.1978L1.70598 5.0418L6.80198 7.48846L4.63331 9.65713L2.27598 9.18513Z" fill="#29CC6A"/>
</svg>
