<svg width="32" height="32" viewBox="0 0 32 32" fill="none" xmlns="http://www.w3.org/2000/svg">
<path d="M25.6296 4H9.037C7.72788 4 6.66663 4.86227 6.66663 5.92593V19.4074C6.66663 20.4711 7.72788 21.3333 9.037 21.3333H25.6296C26.9387 21.3333 28 20.4711 28 19.4074V5.92593C28 4.86227 26.9387 4 25.6296 4Z" stroke="#25262B" stroke-width="2" stroke-linecap="round" stroke-linejoin="round"/>
<path d="M22.963 4H6.37037C5.06125 4 4 5.19391 4 6.66667V25.3333C4 26.8061 5.06125 28 6.37037 28H22.963C24.2721 28 25.3333 26.8061 25.3333 25.3333V6.66667C25.3333 5.19391 24.2721 4 22.963 4Z" fill="white" stroke="#25262B" stroke-width="2" stroke-linecap="round" stroke-linejoin="round"/>
<path d="M9.33337 14.6667H20" stroke="#25262B" stroke-width="2" stroke-linecap="round" stroke-linejoin="round"/>
<path d="M9.33337 9.33334H20" stroke="#25262B" stroke-width="2" stroke-linecap="round" stroke-linejoin="round"/>
<path d="M9.33337 20H20" stroke="#25262B" stroke-width="2" stroke-linecap="round" stroke-linejoin="round"/>
</svg>
