<svg width="28" height="28" viewBox="0 0 28 28" fill="none" xmlns="http://www.w3.org/2000/svg">
<path d="M13.0948 8.9544C13.16 9.01942 13.2117 9.09667 13.247 9.18171C13.2823 9.26675 13.3005 9.35792 13.3005 9.45C13.3005 9.54207 13.2823 9.63324 13.247 9.71828C13.2117 9.80333 13.16 9.88057 13.0948 9.9456L10.6448 12.3956C10.5173 12.523 10.3455 12.5963 10.1653 12.6002C9.98513 12.6041 9.81036 12.5383 9.67742 12.4166L8.62742 11.4576C8.55607 11.3966 8.49771 11.3219 8.45582 11.2379C8.41393 11.1539 8.38936 11.0623 8.38357 10.9687C8.37778 10.875 8.39089 10.7811 8.42211 10.6926C8.45334 10.6041 8.50206 10.5227 8.56535 10.4534C8.62865 10.3841 8.70524 10.3283 8.79057 10.2891C8.87589 10.25 8.96821 10.2285 9.06203 10.2258C9.15586 10.2231 9.24927 10.2393 9.33671 10.2734C9.42415 10.3075 9.50383 10.3589 9.57102 10.4244L10.1268 10.9312L12.1036 8.9544C12.1686 8.88921 12.2459 8.83749 12.3309 8.8022C12.416 8.76691 12.5071 8.74875 12.5992 8.74875C12.6913 8.74875 12.7825 8.76691 12.8675 8.8022C12.9525 8.83749 13.0298 8.88921 13.0948 8.9544ZM13.0948 16.9456C13.2263 16.8142 13.3001 16.6359 13.3001 16.45C13.3001 16.2641 13.2263 16.0858 13.0948 15.9544C12.9634 15.823 12.7851 15.7491 12.5992 15.7491C12.4133 15.7491 12.2351 15.823 12.1036 15.9544L10.1268 17.9312L9.57102 17.4244C9.43292 17.3064 9.25434 17.2466 9.07302 17.2578C8.8917 17.2691 8.72184 17.3503 8.59933 17.4845C8.47682 17.6186 8.41125 17.7951 8.4165 17.9767C8.42174 18.1583 8.49737 18.3307 8.62742 18.4576L9.67742 19.4166C9.81028 19.5379 9.98475 19.6034 10.1646 19.5995C10.3445 19.5956 10.516 19.5226 10.6434 19.3956L13.0934 16.9456H13.0948ZM15.3992 9.8C15.2136 9.8 15.0355 9.87375 14.9042 10.005C14.773 10.1363 14.6992 10.3143 14.6992 10.5C14.6992 10.6856 14.773 10.8637 14.9042 10.995C15.0355 11.1262 15.2136 11.2 15.3992 11.2H18.8992C19.0849 11.2 19.2629 11.1262 19.3942 10.995C19.5255 10.8637 19.5992 10.6856 19.5992 10.5C19.5992 10.3143 19.5255 10.1363 19.3942 10.005C19.2629 9.87375 19.0849 9.8 18.8992 9.8H15.3992ZM4.19922 8.4C4.19922 7.28609 4.64172 6.2178 5.42937 5.43015C6.21702 4.6425 7.28531 4.2 8.39922 4.2H19.5992C20.7131 4.2 21.7814 4.6425 22.5691 5.43015C23.3567 6.2178 23.7992 7.28609 23.7992 8.4V13.4414C23.3516 13.2127 22.8827 13.0285 22.3992 12.8912V8.4C22.3992 7.65739 22.1042 6.9452 21.5791 6.4201C21.054 5.895 20.3418 5.6 19.5992 5.6H8.39922C7.65661 5.6 6.94442 5.895 6.41932 6.4201C5.89422 6.9452 5.59922 7.65739 5.59922 8.4V19.6C5.59922 20.3426 5.89422 21.0548 6.41932 21.5799C6.94442 22.105 7.65661 22.4 8.39922 22.4H12.8904C13.0276 22.8844 13.2124 23.352 13.4406 23.8H8.39922C7.28531 23.8 6.21702 23.3575 5.42937 22.5698C4.64172 21.7822 4.19922 20.7139 4.19922 19.6V8.4Z" fill="#00A2B9"/>
<path d="M21.434 21C21.7821 21 22.1159 21.1383 22.3621 21.3844C22.6082 21.6306 22.7465 21.9644 22.7465 22.3125L22.7456 22.967C22.8357 24.5744 21.5976 25.3759 19.3025 25.3759C17.0152 25.375 15.75 24.5849 15.75 22.9906V22.3125C15.75 21.9644 15.8883 21.6306 16.1344 21.3844C16.3806 21.1383 16.7144 21 17.0625 21H21.434ZM25.1562 21C25.5043 21 25.8382 21.1383 26.0843 21.3844C26.3305 21.6306 26.4688 21.9644 26.4688 22.3125V22.7736C26.5475 24.2147 25.4537 24.9375 23.4552 24.9375C23.184 24.9375 22.9285 24.9244 22.6905 24.8981C23.1595 24.4641 23.4106 23.8761 23.4097 23.1324L23.4045 22.9425L23.4062 22.3125C23.4062 21.7893 23.177 21.3202 22.813 21H25.1562Z" fill="#00A2B9"/>
<path d="M24.8624 17.1376C24.5342 16.8094 24.0891 16.625 23.625 16.625C23.1609 16.625 22.7158 16.8094 22.3876 17.1376C22.0594 17.4658 21.875 17.9109 21.875 18.375C21.875 18.8391 22.0594 19.2842 22.3876 19.6124C22.7158 19.9406 23.1609 20.125 23.625 20.125C24.0891 20.125 24.5342 19.9406 24.8624 19.6124C25.1906 19.2842 25.375 18.8391 25.375 18.375C25.375 17.9109 25.1906 17.4658 24.8624 17.1376Z" fill="#00A2B9"/>
<path d="M20.7968 16.3907C20.3866 15.9805 19.8302 15.75 19.25 15.75C18.6698 15.75 18.1134 15.9805 17.7032 16.3907C17.293 16.8009 17.0625 17.3573 17.0625 17.9375C17.0625 18.5177 17.293 19.0741 17.7032 19.4843C18.1134 19.8945 18.6698 20.125 19.25 20.125C19.8302 20.125 20.3866 19.8945 20.7968 19.4843C21.207 19.0741 21.4375 18.5177 21.4375 17.9375C21.4375 17.3573 21.207 16.8009 20.7968 16.3907Z" fill="#00A2B9"/>
</svg>
