<svg width="36" height="36" viewBox="0 0 36 36" fill="none" xmlns="http://www.w3.org/2000/svg">
<path d="M24.1607 16.9286H19.0714V11.8393C19.0714 11.692 18.9509 11.5714 18.8036 11.5714H17.1964C17.0491 11.5714 16.9286 11.692 16.9286 11.8393V16.9286H11.8393C11.692 16.9286 11.5714 17.0491 11.5714 17.1964V18.8036C11.5714 18.9509 11.692 19.0714 11.8393 19.0714H16.9286V24.1607C16.9286 24.308 17.0491 24.4286 17.1964 24.4286H18.8036C18.9509 24.4286 19.0714 24.308 19.0714 24.1607V19.0714H24.1607C24.308 19.0714 24.4286 18.9509 24.4286 18.8036V17.1964C24.4286 17.0491 24.308 16.9286 24.1607 16.9286Z" fill="#00A2B9"/>
<path d="M18 3C9.71652 3 3 9.71652 3 18C3 26.2835 9.71652 33 18 33C26.2835 33 33 26.2835 33 18C33 9.71652 26.2835 3 18 3ZM18 30.4554C11.1228 30.4554 5.54464 24.8772 5.54464 18C5.54464 11.1228 11.1228 5.54464 18 5.54464C24.8772 5.54464 30.4554 11.1228 30.4554 18C30.4554 24.8772 24.8772 30.4554 18 30.4554Z" fill="#00A2B9"/>
</svg>
