<svg width="36" height="36" viewBox="0 0 36 36" fill="none" xmlns="http://www.w3.org/2000/svg">
<rect width="36" height="36" rx="18" fill="#F2F8FD"/>
<path d="M19.2695 17.6191C20.7173 17.6204 22.1057 18.196 23.1294 19.2197C24.1531 20.2435 24.7288 21.6319 24.73 23.0796L24.7261 23.2241C24.6894 23.9457 24.3868 24.6303 23.8735 25.1436L23.7686 25.2432C23.233 25.7282 22.5351 25.9991 21.8091 26H14.1899C13.4641 25.999 12.7664 25.7281 12.231 25.2432L12.126 25.1436C11.6127 24.6303 11.3101 23.9457 11.2734 23.2241L11.2695 23.0796C11.2707 21.7223 11.7768 20.4174 12.6836 19.416L12.8701 19.2197C13.8939 18.196 15.2822 17.6204 16.73 17.6191H19.2695ZM16.5098 18.6245C15.4074 18.68 14.3613 19.1426 13.5771 19.9268C12.7408 20.7631 12.2706 21.8973 12.2695 23.0801C12.2707 23.5889 12.4732 24.0767 12.833 24.4365C13.1933 24.7968 13.6819 24.9994 14.1914 25H21.8081C22.3175 24.9993 22.8058 24.7967 23.166 24.4365C23.5258 24.0767 23.7288 23.5889 23.73 23.0801L23.7241 22.8589C23.6685 21.7566 23.206 20.7109 22.4219 19.9268C21.6377 19.1427 20.592 18.68 19.4897 18.6245L19.2686 18.6191H16.7305L16.5098 18.6245ZM20.4282 13.4287C20.4282 12.0874 19.3408 11 17.9995 11C16.6583 11.0001 15.5713 12.0875 15.5713 13.4287C15.5714 14.7699 16.6584 15.8568 17.9995 15.8569C19.3407 15.8569 20.4281 14.7699 20.4282 13.4287ZM21.4238 13.605C21.332 15.4165 19.8339 16.8569 17.9995 16.8569C16.1652 16.8568 14.6675 15.4165 14.5757 13.605L14.5713 13.4287C14.5713 11.5352 16.106 10.0001 17.9995 10C19.8931 10 21.4282 11.5352 21.4282 13.4287L21.4238 13.605Z" fill="#1C6EA4"/>
</svg>
