<svg width="32" height="32" viewBox="0 0 32 32" fill="none" xmlns="http://www.w3.org/2000/svg">
<path d="M28 30H4C3.46973 29.9995 2.96133 29.7886 2.58637 29.4136C2.21141 29.0387 2.00053 28.5303 2 28V22C2.00053 21.4697 2.21141 20.9613 2.58637 20.5864C2.96133 20.2114 3.46973 20.0005 4 20H28C28.5303 20.0005 29.0387 20.2114 29.4136 20.5864C29.7886 20.9613 29.9995 21.4697 30 22V28C29.9995 28.5303 29.7886 29.0387 29.4136 29.4136C29.0387 29.7886 28.5303 29.9995 28 30ZM5 22C4.44772 22 4 22.4477 4 23V27C4 27.5523 4.44772 28 5 28H27C27.5523 28 28 27.5523 28 27V23C28 22.4477 27.5523 22 27 22H5Z" fill="#00A2B9"/>
<path d="M7 26C7.55228 26 8 25.5523 8 25C8 24.4477 7.55228 24 7 24C6.44772 24 6 24.4477 6 25C6 25.5523 6.44772 26 7 26Z" fill="#00A2B9"/>
<path d="M18.293 12.293C18.6835 11.9025 18.6835 11.2695 18.293 10.879L17.3431 9.92915C17.1234 9.70943 17 9.41144 17 9.10072V7C17 6.44772 16.5523 6 16 6C15.4477 6 15 6.44772 15 7V9.78653C15 10.1883 15.1596 10.5736 15.4437 10.8577L16.879 12.293C17.2695 12.6835 17.9025 12.6835 18.293 12.293Z" fill="#00A2B9"/>
<path d="M16 18C14.4178 18 12.871 17.5308 11.5554 16.6518C10.2398 15.7727 9.21447 14.5233 8.60897 13.0615C8.00347 11.5997 7.84504 9.99113 8.15372 8.43928C8.4624 6.88743 9.22433 5.46197 10.3431 4.34315C11.462 3.22433 12.8874 2.4624 14.4393 2.15372C15.9911 1.84504 17.5997 2.00347 19.0615 2.60897C20.5233 3.21447 21.7727 4.23985 22.6518 5.55544C23.5308 6.87103 24 8.41775 24 10C23.9974 12.1209 23.1537 14.1542 21.6539 15.6539C20.1542 17.1537 18.1209 17.9974 16 18ZM16 4C14.8133 4 13.6533 4.3519 12.6666 5.01119C11.6799 5.67047 10.9109 6.60755 10.4567 7.7039C10.0026 8.80026 9.88378 10.0067 10.1153 11.1705C10.3468 12.3344 10.9182 13.4035 11.7574 14.2426C12.5965 15.0818 13.6656 15.6532 14.8295 15.8847C15.9933 16.1162 17.1997 15.9974 18.2961 15.5433C19.3925 15.0892 20.3295 14.3201 20.9888 13.3334C21.6481 12.3467 22 11.1867 22 10C21.9982 8.40927 21.3654 6.88423 20.2406 5.75941C19.1158 4.63459 17.5907 4.00186 16 4Z" fill="#00A2B9"/>
</svg>
