<svg width="42" height="42" viewBox="0 0 42 42" fill="none" xmlns="http://www.w3.org/2000/svg">
<path d="M29.3718 19.24L28.066 15.3215C27.8766 14.7512 27.5122 14.255 27.0247 13.9036C26.5372 13.5521 25.9513 13.3632 25.3504 13.3638H16.6468C16.0458 13.3632 15.4599 13.5521 14.9724 13.9036C14.4849 14.255 14.1206 14.7512 13.9311 15.3215L12.6253 19.24C12.2784 19.3855 11.9822 19.6301 11.7737 19.9432C11.5652 20.2563 11.4537 20.624 11.4531 21.0001V25.7729C11.4531 26.4916 11.8569 27.1111 12.4449 27.4366C12.4325 27.4996 12.4077 27.5569 12.4077 27.6228V29.591C12.4077 29.8442 12.5082 30.087 12.6873 30.266C12.8663 30.445 13.1091 30.5456 13.3622 30.5456H14.3168C14.5699 30.5456 14.8127 30.445 14.9917 30.266C15.1707 30.087 15.2713 29.8442 15.2713 29.591V27.682H26.7259V29.591C26.7259 29.8442 26.8264 30.087 27.0054 30.266C27.1844 30.445 27.4272 30.5456 27.6804 30.5456H28.6349C28.8881 30.5456 29.1309 30.445 29.3099 30.266C29.4889 30.087 29.5895 29.8442 29.5895 29.591V27.6228C29.5895 27.5569 29.5647 27.4987 29.5523 27.4366C29.8514 27.2735 30.1013 27.0331 30.2757 26.7404C30.4502 26.4477 30.5429 26.1136 30.544 25.7729V21.0001C30.544 20.2088 30.0591 19.5292 29.3718 19.24ZM13.3622 25.7729V21.0001H28.6349L28.6369 25.7729H13.3622ZM16.6468 15.2729H25.3494C25.7608 15.2729 26.1254 15.5344 26.2553 15.9258L27.311 19.091H14.6862L15.7409 15.9258C15.8043 15.7356 15.9259 15.5702 16.0884 15.453C16.251 15.3359 16.4464 15.2728 16.6468 15.2729V15.2729Z" fill="#00A2B9"/>
<path d="M15.7482 24.8182C16.539 24.8182 17.18 24.1772 17.18 23.3864C17.18 22.5956 16.539 21.9546 15.7482 21.9546C14.9575 21.9546 14.3164 22.5956 14.3164 23.3864C14.3164 24.1772 14.9575 24.8182 15.7482 24.8182Z" fill="#00A2B9"/>
<path d="M26.2482 24.8182C27.039 24.8182 27.68 24.1772 27.68 23.3864C27.68 22.5956 27.039 21.9546 26.2482 21.9546C25.4575 21.9546 24.8164 22.5956 24.8164 23.3864C24.8164 24.1772 25.4575 24.8182 26.2482 24.8182Z" fill="#00A2B9"/>
<path d="M23.864 14.3182C23.864 13.9422 23.7899 13.5698 23.646 13.2224C23.5021 12.8749 23.2912 12.5592 23.0253 12.2933C22.7593 12.0274 22.4437 11.8165 22.0962 11.6726C21.7488 11.5287 21.3764 11.4546 21.0004 11.4546C20.6243 11.4546 20.2519 11.5287 19.9045 11.6726C19.5571 11.8165 19.2414 12.0274 18.9755 12.2933C18.7095 12.5592 18.4986 12.8749 18.3547 13.2224C18.2108 13.5698 18.1367 13.9422 18.1367 14.3182L21.0004 14.3182H23.864Z" fill="#00A2B9"/>
</svg>
