<svg width="74" height="74" viewBox="0 0 74 74" fill="none" xmlns="http://www.w3.org/2000/svg">
<g filter="url(#filter0_d_2005_21426)">
<rect x="27.5088" y="22.0068" width="20.1733" height="29.343" fill="white"/>
<mask id="path-2-outside-1_2005_21426" maskUnits="userSpaceOnUse" x="8.15039" y="3.33594" width="57" height="67" fill="black">
<rect fill="white" x="8.15039" y="3.33594" width="57" height="67"/>
<path fill-rule="evenodd" clip-rule="evenodd" d="M36.6903 7.33594C43.1761 7.34566 49.4056 9.88617 54.0067 14.418C58.6097 18.9519 61.2069 25.1102 61.2069 31.5439H61.2059C61.2728 38.8808 59.0991 46.064 54.9715 52.1621C50.8376 58.2696 44.9379 63.004 38.0467 65.7598L36.6854 66.3037L35.3241 65.7598C28.4307 63.0058 22.5286 58.2726 18.3924 52.165C14.2557 46.0564 12.0785 38.858 12.1522 31.5068C12.1622 25.0842 14.7592 18.9387 19.3563 14.4131C23.9601 9.88097 30.1925 7.3424 36.6805 7.33594H36.6903ZM35.1454 61.6924C35.2186 61.726 35.2916 61.7599 35.3651 61.793C35.2916 61.7599 35.2186 61.726 35.1454 61.6924ZM33.4745 23.8418C33.1318 23.8416 32.7974 23.9413 32.5194 24.1279C32.2415 24.3145 32.0338 24.5781 31.9256 24.8809L27.1346 38.2656C27.0526 38.4943 27.0302 38.7382 27.0692 38.9766C27.1082 39.2149 27.2079 39.4411 27.3592 39.6367C27.5106 39.8323 27.7099 39.9918 27.9403 40.1016C28.1706 40.2113 28.4257 40.2687 28.6844 40.2686H34.3954L32.6317 47.6602C32.5476 47.993 32.5883 48.343 32.7469 48.6514C32.9057 48.9598 33.1733 49.209 33.5047 49.3564C33.7322 49.4612 33.9825 49.5158 34.2362 49.5166C34.4743 49.5158 34.7097 49.4663 34.9247 49.3711C35.1397 49.2758 35.3295 49.1365 35.4803 48.9648L45.9295 37.2871C46.1281 37.065 46.2542 36.7945 46.2938 36.5078C46.3334 36.2212 46.2848 35.9297 46.1532 35.668C46.0215 35.4064 45.8123 35.1853 45.5506 35.0303C45.2889 34.8752 44.9849 34.7931 44.6747 34.793H39.7381L43.9432 25.9805C44.0538 25.7489 44.1004 25.4949 44.079 25.2422C44.0575 24.9896 43.9685 24.7457 43.8202 24.5332C43.6719 24.3208 43.4685 24.1462 43.2293 24.0254C42.9902 23.9047 42.7221 23.8417 42.4501 23.8418H33.4745ZM20.8944 49.291C20.9334 49.3525 20.9721 49.4143 21.0116 49.4756C20.9721 49.4143 20.9334 49.3525 20.8944 49.291ZM20.4979 48.6514C20.5526 48.742 20.6073 48.8327 20.6629 48.9229C20.6074 48.8327 20.5526 48.742 20.4979 48.6514ZM20.1376 48.0391C20.1858 48.1231 20.2351 48.2064 20.284 48.29C20.2351 48.2064 20.1857 48.1231 20.1376 48.0391ZM19.5233 46.9209C19.6185 47.103 19.7155 47.2844 19.8143 47.4648C19.8502 47.5304 19.8883 47.5948 19.9247 47.6602C19.6882 47.235 19.4597 46.8062 19.243 46.3721C19.3346 46.5558 19.428 46.7388 19.5233 46.9209ZM57.5243 30.7852C57.5337 31.0375 57.5379 31.2905 57.5379 31.5439C57.54 31.7501 57.5414 31.9562 57.5399 32.1621C57.5417 31.9562 57.541 31.7501 57.5389 31.5439C57.5389 31.2905 57.5339 31.0375 57.5243 30.7852Z"/>
</mask>
<path fill-rule="evenodd" clip-rule="evenodd" d="M36.6903 7.33594C43.1761 7.34566 49.4056 9.88617 54.0067 14.418C58.6097 18.9519 61.2069 25.1102 61.2069 31.5439H61.2059C61.2728 38.8808 59.0991 46.064 54.9715 52.1621C50.8376 58.2696 44.9379 63.004 38.0467 65.7598L36.6854 66.3037L35.3241 65.7598C28.4307 63.0058 22.5286 58.2726 18.3924 52.165C14.2557 46.0564 12.0785 38.858 12.1522 31.5068C12.1622 25.0842 14.7592 18.9387 19.3563 14.4131C23.9601 9.88097 30.1925 7.3424 36.6805 7.33594H36.6903ZM35.1454 61.6924C35.2186 61.726 35.2916 61.7599 35.3651 61.793C35.2916 61.7599 35.2186 61.726 35.1454 61.6924ZM33.4745 23.8418C33.1318 23.8416 32.7974 23.9413 32.5194 24.1279C32.2415 24.3145 32.0338 24.5781 31.9256 24.8809L27.1346 38.2656C27.0526 38.4943 27.0302 38.7382 27.0692 38.9766C27.1082 39.2149 27.2079 39.4411 27.3592 39.6367C27.5106 39.8323 27.7099 39.9918 27.9403 40.1016C28.1706 40.2113 28.4257 40.2687 28.6844 40.2686H34.3954L32.6317 47.6602C32.5476 47.993 32.5883 48.343 32.7469 48.6514C32.9057 48.9598 33.1733 49.209 33.5047 49.3564C33.7322 49.4612 33.9825 49.5158 34.2362 49.5166C34.4743 49.5158 34.7097 49.4663 34.9247 49.3711C35.1397 49.2758 35.3295 49.1365 35.4803 48.9648L45.9295 37.2871C46.1281 37.065 46.2542 36.7945 46.2938 36.5078C46.3334 36.2212 46.2848 35.9297 46.1532 35.668C46.0215 35.4064 45.8123 35.1853 45.5506 35.0303C45.2889 34.8752 44.9849 34.7931 44.6747 34.793H39.7381L43.9432 25.9805C44.0538 25.7489 44.1004 25.4949 44.079 25.2422C44.0575 24.9896 43.9685 24.7457 43.8202 24.5332C43.6719 24.3208 43.4685 24.1462 43.2293 24.0254C42.9902 23.9047 42.7221 23.8417 42.4501 23.8418H33.4745ZM20.8944 49.291C20.9334 49.3525 20.9721 49.4143 21.0116 49.4756C20.9721 49.4143 20.9334 49.3525 20.8944 49.291ZM20.4979 48.6514C20.5526 48.742 20.6073 48.8327 20.6629 48.9229C20.6074 48.8327 20.5526 48.742 20.4979 48.6514ZM20.1376 48.0391C20.1858 48.1231 20.2351 48.2064 20.284 48.29C20.2351 48.2064 20.1857 48.1231 20.1376 48.0391ZM19.5233 46.9209C19.6185 47.103 19.7155 47.2844 19.8143 47.4648C19.8502 47.5304 19.8883 47.5948 19.9247 47.6602C19.6882 47.235 19.4597 46.8062 19.243 46.3721C19.3346 46.5558 19.428 46.7388 19.5233 46.9209ZM57.5243 30.7852C57.5337 31.0375 57.5379 31.2905 57.5379 31.5439C57.54 31.7501 57.5414 31.9562 57.5399 32.1621C57.5417 31.9562 57.541 31.7501 57.5389 31.5439C57.5389 31.2905 57.5339 31.0375 57.5243 30.7852Z" fill="#2D848D"/>
<path d="M36.6903 7.33594L36.6958 3.66807H36.6903V7.33594ZM54.0067 14.418L56.5806 11.8049L56.5805 11.8048L54.0067 14.418ZM61.2069 31.5439V35.2118H64.8748V31.5439L61.2069 31.5439ZM61.2059 31.5439V27.8761H57.5044L57.5382 31.5774L61.2059 31.5439ZM54.9715 52.1621L58.009 54.2181L58.009 54.2181L54.9715 52.1621ZM38.0467 65.7598L39.4077 69.1658L39.4087 69.1654L38.0467 65.7598ZM36.6854 66.3037L35.3245 69.7097L36.6854 70.2535L38.0464 69.7097L36.6854 66.3037ZM35.3241 65.7598L36.685 62.3537L36.6848 62.3537L35.3241 65.7598ZM18.3924 52.165L15.3554 54.2217L15.3555 54.2217L18.3924 52.165ZM12.1522 31.5068L15.8199 31.5436L15.82 31.5281L15.8201 31.5125L12.1522 31.5068ZM19.3563 14.4131L16.7832 11.7992L16.7831 11.7993L19.3563 14.4131ZM36.6805 7.33594V3.66806L36.6769 3.66807L36.6805 7.33594ZM35.1454 61.6924L36.6742 58.3583L33.6156 65.026L35.1454 61.6924ZM35.3651 61.793L33.8605 65.1381L36.8709 58.4484L35.3651 61.793ZM33.4745 23.8418L33.4724 27.5097H33.4745V23.8418ZM32.5194 24.1279L30.4751 21.0826L30.4746 21.0829L32.5194 24.1279ZM31.9256 24.8809L35.3789 26.117L35.3798 26.1145L31.9256 24.8809ZM27.1346 38.2656L30.5873 39.5035L30.5879 39.5017L27.1346 38.2656ZM27.0692 38.9766L23.4494 39.5685L23.4494 39.5685L27.0692 38.9766ZM27.3592 39.6367L24.4586 41.8816L24.4587 41.8817L27.3592 39.6367ZM27.9403 40.1016L26.3626 43.4128L26.3633 43.4131L27.9403 40.1016ZM28.6844 40.2686V36.6007H28.6828L28.6844 40.2686ZM34.3954 40.2686L37.9631 41.1198L39.0414 36.6007H34.3954V40.2686ZM32.6317 47.6602L36.1877 48.5591L36.1937 48.5353L36.1994 48.5114L32.6317 47.6602ZM32.7469 48.6514L29.4852 50.3289L29.4857 50.3299L32.7469 48.6514ZM33.5047 49.3564L35.0391 46.0249L35.0174 46.0149L34.9955 46.0052L33.5047 49.3564ZM34.2362 49.5166L34.225 53.1845L34.2366 53.1845L34.2481 53.1845L34.2362 49.5166ZM34.9247 49.3711L36.4103 52.7246L36.4109 52.7243L34.9247 49.3711ZM35.4803 48.9648L32.747 46.519L32.736 46.5312L32.7252 46.5436L35.4803 48.9648ZM45.9295 37.2871L48.6629 39.7329L48.6641 39.7316L45.9295 37.2871ZM46.2938 36.5078L49.9271 37.0101L49.9271 37.0101L46.2938 36.5078ZM46.1532 35.668L49.4298 34.0195L49.4296 34.0192L46.1532 35.668ZM45.5506 35.0303L47.4202 31.8746L47.4197 31.8743L45.5506 35.0303ZM44.6747 34.793L44.6759 31.1251H44.6747V34.793ZM39.7381 34.793L36.4278 33.2134L33.9239 38.4608H39.7381V34.793ZM43.9432 25.9805L40.6335 24.3996L40.6329 24.4009L43.9432 25.9805ZM44.079 25.2422L47.7337 24.9319L47.7336 24.9314L44.079 25.2422ZM43.8202 24.5332L46.8279 22.434L46.8275 22.4334L43.8202 24.5332ZM43.2293 24.0254L44.8831 20.7515L44.8823 20.7511L43.2293 24.0254ZM42.4501 23.8418V27.5097H42.4518L42.4501 23.8418ZM20.8944 49.291L23.9908 47.3249L17.7975 51.2564L20.8944 49.291ZM21.0116 49.4756L17.9283 51.4622L24.0953 47.4896L21.0116 49.4756ZM20.4979 48.6514L23.6385 46.7567L17.3567 50.5451L20.4979 48.6514ZM20.6629 48.9229L17.5408 50.8478L23.7856 46.9988L20.6629 48.9229ZM20.1376 48.0391L23.3187 46.2132L16.956 49.8642L20.1376 48.0391ZM20.284 48.29L17.1193 50.1442L23.4492 46.4367L20.284 48.29ZM19.5233 46.9209L16.2731 48.6208L16.2732 48.6209L19.5233 46.9209ZM19.8143 47.4648L23.0318 45.7039L23.0318 45.7038L19.8143 47.4648ZM19.9247 47.6602L16.7194 49.4433L23.1301 45.8774L19.9247 47.6602ZM19.243 46.3721L22.5246 44.7337L15.9603 48.0081L19.243 46.3721ZM57.5243 30.7852L61.1894 30.6446L53.859 30.9222L57.5243 30.7852ZM57.5379 31.5439L53.8701 31.5439V31.5626L53.8703 31.5812L57.5379 31.5439ZM57.5399 32.1621L53.8721 32.135L61.2076 32.1936L57.5399 32.1621ZM57.5389 31.5439L53.871 31.5439V31.5626L53.8712 31.5812L57.5389 31.5439ZM36.6903 7.33594L36.6848 11.0038C42.2184 11.0121 47.523 13.1801 51.4329 17.0311L54.0067 14.418L56.5805 11.8048C51.2882 6.5922 44.1339 3.67922 36.6958 3.66807L36.6903 7.33594ZM54.0067 14.418L51.4328 17.0311C55.3427 20.8823 57.539 26.1021 57.539 31.5439L61.2069 31.5439L64.8748 31.5439C64.8748 24.1183 61.8767 17.0214 56.5806 11.8049L54.0067 14.418ZM61.2069 31.5439V27.8761H61.2059V31.5439V35.2118H61.2069V31.5439ZM61.2059 31.5439L57.5382 31.5774C57.5983 38.1662 55.6465 44.6213 51.934 50.1062L54.9715 52.1621L58.009 54.2181C62.5517 47.5066 64.9473 39.5954 64.8736 31.5105L61.2059 31.5439ZM54.9715 52.1621L51.934 50.1062C48.2152 55.6004 42.9018 59.8679 36.6848 62.3541L38.0467 65.7598L39.4087 69.1654C46.9739 66.14 53.4599 60.9389 58.009 54.2181L54.9715 52.1621ZM38.0467 65.7598L36.6858 62.3537L35.3245 62.8977L36.6854 66.3037L38.0464 69.7097L39.4077 69.1658L38.0467 65.7598ZM36.6854 66.3037L38.0464 62.8977L36.685 62.3537L35.3241 65.7598L33.9631 69.1658L35.3245 69.7097L36.6854 66.3037ZM35.3241 65.7598L36.6848 62.3537C30.4657 59.8691 25.1502 55.6026 21.4294 50.1083L18.3924 52.165L15.3555 54.2217C19.907 60.9427 26.3957 66.1426 33.9633 69.1659L35.3241 65.7598ZM18.3924 52.165L21.4294 50.1084C17.7085 44.6137 15.7537 38.1448 15.8199 31.5436L12.1522 31.5068L8.48451 31.4701C8.40334 39.5711 10.8029 47.4991 15.3554 54.2217L18.3924 52.165ZM12.1522 31.5068L15.8201 31.5125C15.8285 26.0798 18.0248 20.8708 21.9295 17.0269L19.3563 14.4131L16.7831 11.7993C11.4936 17.0065 8.49585 24.0887 8.48433 31.5011L12.1522 31.5068ZM19.3563 14.4131L21.9295 17.0269C25.8415 13.1757 31.1486 11.0093 36.6842 11.0038L36.6805 7.33594L36.6769 3.66807C29.2365 3.67548 22.0786 6.58619 16.7832 11.7992L19.3563 14.4131ZM36.6805 7.33594V11.0038H36.6903V7.33594V3.66807H36.6805V7.33594ZM35.1454 61.6924L33.6156 65.026C33.6689 65.0505 33.77 65.0973 33.8593 65.1375L35.3651 61.793L36.8709 58.4484C36.8133 58.4225 36.7682 58.4014 36.6751 58.3587L35.1454 61.6924ZM35.3651 61.793L36.8697 58.4479C36.8119 58.4219 36.7716 58.403 36.6742 58.3583L35.1454 61.6924L33.6165 65.0264C33.6655 65.0489 33.7713 65.0979 33.8605 65.1381L35.3651 61.793ZM33.4745 23.8418L33.4766 20.1739C32.4286 20.1733 31.3774 20.4769 30.4751 21.0826L32.5194 24.1279L34.5637 27.1733C34.2173 27.4058 33.8351 27.5099 33.4724 27.5097L33.4745 23.8418ZM32.5194 24.1279L30.4746 21.0829C29.5731 21.6883 28.8546 22.5746 28.4715 23.6472L31.9256 24.8809L35.3798 26.1145C35.213 26.5817 34.91 26.9407 34.5642 27.173L32.5194 24.1279ZM31.9256 24.8809L28.4723 23.6448L23.6813 37.0295L27.1346 38.2656L30.5879 39.5017L35.3789 26.117L31.9256 24.8809ZM27.1346 38.2656L23.6819 37.0278C23.3911 37.8391 23.3094 38.7126 23.4494 39.5685L27.0692 38.9766L30.689 38.3846C30.751 38.7639 30.7142 39.1495 30.5873 39.5035L27.1346 38.2656ZM27.0692 38.9766L23.4494 39.5685C23.59 40.4283 23.9458 41.2191 24.4586 41.8816L27.3592 39.6367L30.2599 37.3919C30.4699 37.6632 30.6263 38.0015 30.689 38.3846L27.0692 38.9766ZM27.3592 39.6367L24.4587 41.8817C24.9723 42.5454 25.6302 43.0638 26.3626 43.4128L27.9403 40.1016L29.5179 36.7903C29.7896 36.9197 30.0488 37.1191 30.2598 37.3917L27.3592 39.6367ZM27.9403 40.1016L26.3633 43.4131C27.0916 43.76 27.8866 43.9368 28.6861 43.9364L28.6844 40.2686L28.6828 36.6007C28.9648 36.6006 29.2496 36.6626 29.5173 36.79L27.9403 40.1016ZM28.6844 40.2686V43.9364H34.3954V40.2686V36.6007H28.6844V40.2686ZM34.3954 40.2686L30.8276 39.4173L29.064 46.8089L32.6317 47.6602L36.1994 48.5114L37.9631 41.1198L34.3954 40.2686ZM32.6317 47.6602L29.0757 46.7612C28.77 47.9706 28.923 49.2359 29.4852 50.3289L32.7469 48.6514L36.0087 46.9738C36.2536 47.4501 36.3252 48.0154 36.1877 48.5591L32.6317 47.6602ZM32.7469 48.6514L29.4857 50.3299C30.0445 51.4157 30.9552 52.2367 32.014 52.7077L33.5047 49.3564L34.9955 46.0052C35.3914 46.1813 35.7668 46.5039 36.0082 46.9728L32.7469 48.6514ZM33.5047 49.3564L31.9704 52.688C32.6843 53.0168 33.455 53.1821 34.225 53.1845L34.2362 49.5166L34.2474 45.8487C34.5099 45.8495 34.7801 45.9056 35.0391 46.0249L33.5047 49.3564ZM34.2362 49.5166L34.2481 53.1845C34.9832 53.1821 35.7214 53.0298 36.4103 52.7246L34.9247 49.3711L33.439 46.0176C33.6979 45.9029 33.9653 45.8496 34.2243 45.8488L34.2362 49.5166ZM34.9247 49.3711L36.4109 52.7243C37.1035 52.4174 37.7284 51.9631 38.2354 51.3861L35.4803 48.9648L32.7252 46.5436C32.9305 46.3099 33.176 46.1342 33.4384 46.0178L34.9247 49.3711ZM35.4803 48.9648L38.2137 51.4107L48.6629 39.7329L45.9295 37.2871L43.1962 34.8413L32.747 46.519L35.4803 48.9648ZM45.9295 37.2871L48.6641 39.7316C49.3365 38.9794 49.7852 38.0369 49.9271 37.0101L46.2938 36.5078L42.6605 36.0055C42.7232 35.552 42.9197 35.1506 43.195 34.8426L45.9295 37.2871ZM46.2938 36.5078L49.9271 37.0101C50.0695 35.9802 49.8925 34.9393 49.4298 34.0195L46.1532 35.668L42.8766 37.3164C42.6772 36.92 42.5974 36.4622 42.6605 36.0056L46.2938 36.5078ZM46.1532 35.668L49.4296 34.0192C48.9687 33.1034 48.258 32.371 47.4202 31.8746L45.5506 35.0303L43.6811 38.1859C43.3667 37.9997 43.0744 37.7094 42.8768 37.3168L46.1532 35.668ZM45.5506 35.0303L47.4197 31.8743C46.579 31.3765 45.6275 31.1254 44.6759 31.1251L44.6747 34.793L44.6735 38.4608C44.3422 38.4607 43.9988 38.374 43.6816 38.1862L45.5506 35.0303ZM44.6747 34.793V31.1251H39.7381V34.793V38.4608H44.6747V34.793ZM39.7381 34.793L43.0485 36.3726L47.2535 27.5601L43.9432 25.9805L40.6329 24.4009L36.4278 33.2134L39.7381 34.793ZM43.9432 25.9805L47.2529 27.5613C47.6419 26.747 47.8109 25.8408 47.7337 24.9319L44.079 25.2422L40.4242 25.5525C40.39 25.149 40.4658 24.7507 40.6335 24.3996L43.9432 25.9805ZM44.079 25.2422L47.7336 24.9314C47.6563 24.0216 47.3369 23.1633 46.8279 22.434L43.8202 24.5332L40.8124 26.6324C40.6 26.3281 40.4587 25.9575 40.4243 25.553L44.079 25.2422ZM43.8202 24.5332L46.8275 22.4334C46.3187 21.7047 45.6424 21.1351 44.8831 20.7515L43.2293 24.0254L41.5756 27.2993C41.2946 27.1573 41.025 26.9369 40.8128 26.633L43.8202 24.5332ZM43.2293 24.0254L44.8823 20.7511C44.1198 20.3662 43.2835 20.1735 42.4483 20.1739L42.4501 23.8418L42.4518 27.5097C42.1606 27.5098 41.8606 27.4432 41.5764 27.2997L43.2293 24.0254ZM42.4501 23.8418V20.1739H33.4745V23.8418V27.5097H42.4501V23.8418ZM20.8944 49.291L17.798 51.2571C17.8183 51.2891 17.8812 51.3891 17.9283 51.4622L21.0116 49.4756L24.0949 47.489C24.063 47.4395 24.0486 47.416 23.9908 47.3249L20.8944 49.291ZM21.0116 49.4756L24.0953 47.4896C24.0639 47.4409 24.0468 47.4132 23.9913 47.3257L20.8944 49.291L17.7975 51.2564C17.82 51.2918 17.8803 51.3877 17.9279 51.4615L21.0116 49.4756ZM20.4979 48.6514L17.3573 50.546C17.4114 50.6357 17.4747 50.7406 17.5408 50.8478L20.6629 48.9229L23.7851 46.9979C23.74 46.9248 23.6938 46.8483 23.6385 46.7567L20.4979 48.6514ZM20.6629 48.9229L23.7856 46.9988C23.7399 46.9246 23.6928 46.8467 23.6391 46.7576L20.4979 48.6514L17.3567 50.5451C17.4123 50.6373 17.4748 50.7407 17.5403 50.847L20.6629 48.9229ZM20.1376 48.0391L16.9564 49.8649C17.0155 49.9678 17.0801 50.0773 17.1193 50.1442L20.284 48.29L23.4488 46.4359C23.39 46.3356 23.356 46.2783 23.3187 46.2132L20.1376 48.0391ZM20.284 48.29L23.4492 46.4367C23.3887 46.3334 23.3565 46.2791 23.3191 46.2139L20.1376 48.0391L16.956 49.8642C17.015 49.967 17.0814 50.0795 17.1188 50.1434L20.284 48.29ZM19.5233 46.9209L16.2732 48.6209C16.3788 48.8228 16.4866 49.0245 16.5968 49.2259L19.8143 47.4648L23.0318 45.7038C22.9444 45.5442 22.8583 45.3832 22.7734 45.2209L19.5233 46.9209ZM19.8143 47.4648L16.5968 49.2258C16.6327 49.2914 16.6662 49.35 16.685 49.3829C16.7086 49.4242 16.7142 49.434 16.7194 49.4433L19.9247 47.6602L23.1299 45.877C23.0988 45.821 23.0671 45.7659 23.0536 45.7423C23.0353 45.7102 23.0318 45.7039 23.0318 45.7039L19.8143 47.4648ZM19.9247 47.6602L23.1301 45.8774C22.9149 45.4903 22.7127 45.1103 22.5246 44.7337L19.243 46.3721L15.9614 48.0104C16.2068 48.502 16.4615 48.9796 16.7192 49.443L19.9247 47.6602ZM19.243 46.3721L15.9603 48.0081C16.0626 48.2135 16.1669 48.4177 16.2731 48.6208L19.5233 46.9209L22.7735 45.221C22.6892 45.0599 22.6066 44.8982 22.5258 44.736L19.243 46.3721ZM57.5243 30.7852L53.859 30.9222C53.8665 31.1242 53.8701 31.3313 53.8701 31.5439L57.5379 31.5439L61.2058 31.5439C61.2058 31.2497 61.2009 30.9508 61.1896 30.6482L57.5243 30.7852ZM57.5379 31.5439L53.8703 31.5812C53.8723 31.781 53.8734 31.9616 53.8721 32.135L57.5399 32.1621L61.2077 32.1893C61.2094 31.9508 61.2078 31.7193 61.2056 31.5067L57.5379 31.5439ZM57.5399 32.1621L61.2076 32.1936C61.2096 31.9593 61.2089 31.7296 61.2066 31.5067L57.5389 31.5439L53.8712 31.5812C53.8732 31.7707 53.8737 31.9531 53.8722 32.1306L57.5399 32.1621ZM57.5389 31.5439L61.2068 31.5439C61.2068 31.2425 61.2009 30.9427 61.1894 30.6446L57.5243 30.7852L53.8591 30.9257C53.867 31.1324 53.871 31.3385 53.871 31.5439L57.5389 31.5439Z" fill="white" mask="url(#path-2-outside-1_2005_21426)"/>
</g>
<defs>
<filter id="filter0_d_2005_21426" x="-1.83394" y="0" width="77.0253" height="77.0253" filterUnits="userSpaceOnUse" color-interpolation-filters="sRGB">
<feFlood flood-opacity="0" result="BackgroundImageFix"/>
<feColorMatrix in="SourceAlpha" type="matrix" values="0 0 0 0 0 0 0 0 0 0 0 0 0 0 0 0 0 0 127 0" result="hardAlpha"/>
<feOffset dy="1.83394"/>
<feGaussianBlur stdDeviation="0.916968"/>
<feColorMatrix type="matrix" values="0 0 0 0 0 0 0 0 0 0 0 0 0 0 0 0 0 0 0.25 0"/>
<feBlend mode="normal" in2="BackgroundImageFix" result="effect1_dropShadow_2005_21426"/>
<feBlend mode="normal" in="SourceGraphic" in2="effect1_dropShadow_2005_21426" result="shape"/>
</filter>
</defs>
</svg>
