<svg width="24" height="24" viewBox="0 0 24 24" fill="none" xmlns="http://www.w3.org/2000/svg">
<path d="M3.00024 21.0027L4.65024 17.2027C3.38791 15.4107 2.82291 13.2197 3.06129 11.0408C3.29967 8.86183 4.32503 6.84479 5.94495 5.36818C7.56487 3.89156 9.66799 3.05687 11.8596 3.02075C14.0513 2.98464 16.1807 3.74958 17.8484 5.17203C19.5161 6.59447 20.6074 8.57663 20.9174 10.7465C21.2275 12.9164 20.735 15.1249 19.5323 16.9574C18.3297 18.79 16.4997 20.1207 14.3856 20.6998C12.2716 21.2789 10.0189 21.0665 8.05024 20.1027L3.00024 21.0027Z" stroke="#00A2B9" stroke-width="2" stroke-linecap="round" stroke-linejoin="round"/>
<path d="M9.00024 10.002C9.00024 10.1346 9.05292 10.2617 9.14669 10.3555C9.24046 10.4493 9.36764 10.502 9.50024 10.502C9.63285 10.502 9.76003 10.4493 9.8538 10.3555C9.94757 10.2617 10.0002 10.1346 10.0002 10.002V9.00195C10.0002 8.86934 9.94757 8.74217 9.8538 8.6484C9.76003 8.55463 9.63285 8.50195 9.50024 8.50195C9.36764 8.50195 9.24046 8.55463 9.14669 8.6484C9.05292 8.74217 9.00024 8.86934 9.00024 9.00195V10.002ZM9.00024 10.002C9.00024 11.328 9.52703 12.5998 10.4647 13.5375C11.4024 14.4752 12.6742 15.002 14.0002 15.002M14.0002 15.002H15.0002C15.1329 15.002 15.26 14.9493 15.3538 14.8555C15.4476 14.7617 15.5002 14.6346 15.5002 14.502C15.5002 14.3693 15.4476 14.2422 15.3538 14.1484C15.26 14.0546 15.1329 14.002 15.0002 14.002H14.0002C13.8676 14.002 13.7405 14.0546 13.6467 14.1484C13.5529 14.2422 13.5002 14.3693 13.5002 14.502C13.5002 14.6346 13.5529 14.7617 13.6467 14.8555C13.7405 14.9493 13.8676 15.002 14.0002 15.002Z" stroke="#00A2B9" stroke-width="2" stroke-linecap="round" stroke-linejoin="round"/>
</svg>
