<svg width="31" height="26" viewBox="0 0 31 26" fill="none" xmlns="http://www.w3.org/2000/svg">
<path fill-rule="evenodd" clip-rule="evenodd" d="M8.76333 11.2085C9.59176 11.2085 10.2633 11.8801 10.2633 12.7085C10.2633 13.5369 9.59176 14.2085 8.76333 14.2085H7.91792H6.88167V23.9807C6.88167 24.8091 6.21009 25.4807 5.38167 25.4807C4.55324 25.4807 3.88167 24.8091 3.88167 23.9807V14.2085H2C1.17157 14.2085 0.5 13.5369 0.5 12.7085C0.5 11.8801 1.17157 11.2085 2 11.2085H5.38167H7.91792H8.76333ZM22.2902 11.2085C21.4617 11.2085 20.7902 11.8801 20.7902 12.7085C20.7902 13.5369 21.4617 14.2085 22.2902 14.2085H24.1718V23.9807C24.1718 24.8091 24.8434 25.4807 25.6718 25.4807C26.5002 25.4807 27.1718 24.8091 27.1718 23.9807V14.2085H29.0535C29.8819 14.2085 30.5535 13.5369 30.5535 12.7085C30.5535 11.8801 29.8819 11.2085 29.0535 11.2085H25.6718H22.2902Z" fill="#F3AF00"/>
<path d="M10.7221 13.1556L13.8024 4.87722L10.9908 3.83101L7.91046 12.1094L10.7221 13.1556ZM17.7991 4.97212L20.4238 13.2017L23.2819 12.2902L20.6572 4.06055L17.7991 4.97212ZM9.45801 16.2558C14.339 18.7176 19.0428 17.5737 21.7414 16.1993L20.3799 13.526C18.2432 14.6142 14.5828 15.4806 10.809 13.5772L9.45801 16.2558ZM15.7844 3.5C16.7047 3.5 17.5194 4.09527 17.7991 4.97212L20.6572 4.06055C19.9808 1.93976 18.0104 0.5 15.7844 0.5V3.5ZM20.4238 13.2017C20.4589 13.3117 20.4492 13.4056 20.4294 13.4609C20.4131 13.5066 20.3958 13.5179 20.3799 13.526L21.7414 16.1993C23.2818 15.4148 23.7233 13.674 23.2819 12.2902L20.4238 13.2017ZM13.8024 4.87722C14.1105 4.04921 14.9009 3.5 15.7844 3.5V0.5C13.6476 0.5 11.736 1.82836 10.9908 3.83101L13.8024 4.87722ZM7.91046 12.1094C7.36056 13.5872 7.8482 15.4439 9.45801 16.2558L10.809 13.5772C10.7693 13.5572 10.7345 13.5242 10.7109 13.4557C10.6847 13.3794 10.6794 13.2704 10.7221 13.1556L7.91046 12.1094Z" fill="#00A2B9"/>
<path d="M15.5273 16.3721V23.9809" stroke="#00A2B9" stroke-width="3" stroke-linecap="round"/>
<path d="M12.1455 20.881H18.9088" stroke="#00A2B9" stroke-width="3" stroke-linecap="round"/>
<path d="M12.1458 20.881L11.0186 24.2626" stroke="#00A2B9" stroke-width="3" stroke-linecap="round"/>
<path d="M18.9092 20.881L20.0364 24.2626" stroke="#00A2B9" stroke-width="3" stroke-linecap="round"/>
</svg>
