<svg width="28" height="28" viewBox="0 0 28 28" fill="none" xmlns="http://www.w3.org/2000/svg">
<path d="M26.25 17.5001C26.2518 16.6239 26.0342 15.7612 25.6172 14.9907C25.2002 14.2201 24.5969 13.5662 23.8624 13.0885C23.1279 12.6107 22.2855 12.3245 21.412 12.2557C20.5386 12.1869 19.6618 12.3379 18.8616 12.6948C18.0614 13.0517 17.3632 13.6031 16.8307 14.299C16.2982 14.9948 15.9484 15.8128 15.813 16.6785C15.6777 17.5441 15.7611 18.4299 16.0558 19.2551C16.3504 20.0802 16.8469 20.8185 17.5 21.4026V28.0001L21 26.3429L24.5 28.0001V21.4026C25.0501 20.9121 25.4903 20.3108 25.7919 19.6383C26.0935 18.9658 26.2496 18.2372 26.25 17.5001ZM22.75 25.2351L21 24.4065L19.25 25.2351V22.4439C20.3809 22.8523 21.6191 22.8523 22.75 22.4439V25.2351ZM21 21.0001C20.3078 21.0001 19.6311 20.7948 19.0555 20.4103C18.4799 20.0257 18.0313 19.479 17.7664 18.8395C17.5015 18.2 17.4322 17.4962 17.5672 16.8173C17.7023 16.1384 18.0356 15.5147 18.5251 15.0252C19.0146 14.5358 19.6382 14.2024 20.3172 14.0674C20.9961 13.9323 21.6998 14.0016 22.3394 14.2665C22.9789 14.5314 23.5256 14.98 23.9101 15.5556C24.2947 16.1312 24.5 16.8079 24.5 17.5001C24.4988 18.428 24.1297 19.3176 23.4736 19.9737C22.8175 20.6298 21.9279 20.999 21 21.0001Z" fill="#00A2B9"/>
<path d="M21.875 4.375H19.25V3.5C19.2486 3.0363 19.0638 2.59198 18.7359 2.26409C18.408 1.9362 17.9637 1.75138 17.5 1.75H10.5C10.0363 1.75138 9.59198 1.9362 9.26409 2.26409C8.9362 2.59198 8.75138 3.0363 8.75 3.5V4.375H6.125C5.6613 4.37638 5.21698 4.5612 4.88909 4.88909C4.5612 5.21698 4.37638 5.6613 4.375 6.125V24.5C4.37638 24.9637 4.5612 25.408 4.88909 25.7359C5.21698 26.0638 5.6613 26.2486 6.125 26.25H14V24.5H6.125V6.125H8.75V8.75H19.25V6.125H21.875V10.5H23.625V6.125C23.6236 5.6613 23.4388 5.21698 23.1109 4.88909C22.783 4.5612 22.3387 4.37638 21.875 4.375ZM17.5 7H10.5V3.5H17.5V7Z" fill="#00A2B9"/>
</svg>
