<svg width="42" height="42" viewBox="0 0 42 42" fill="none" xmlns="http://www.w3.org/2000/svg">
<path d="M29.3718 19.24L28.066 15.3215C27.8766 14.7512 27.5122 14.255 27.0247 13.9036C26.5372 13.5521 25.9513 13.3632 25.3504 13.3638H16.6468C16.0458 13.3632 15.4599 13.5521 14.9724 13.9036C14.4849 14.255 14.1206 14.7512 13.9311 15.3215L12.6253 19.24C12.2784 19.3855 11.9822 19.6301 11.7737 19.9432C11.5652 20.2563 11.4537 20.624 11.4531 21.0001V25.7729C11.4531 26.4916 11.8569 27.1111 12.4449 27.4366C12.4325 27.4996 12.4077 27.5569 12.4077 27.6228V29.591C12.4077 29.8442 12.5082 30.087 12.6873 30.266C12.8663 30.445 13.1091 30.5456 13.3622 30.5456H14.3168C14.5699 30.5456 14.8127 30.445 14.9917 30.266C15.1707 30.087 15.2713 29.8442 15.2713 29.591V27.682H26.7259V29.591C26.7259 29.8442 26.8264 30.087 27.0054 30.266C27.1844 30.445 27.4272 30.5456 27.6804 30.5456H28.6349C28.8881 30.5456 29.1309 30.445 29.3099 30.266C29.4889 30.087 29.5895 29.8442 29.5895 29.591V27.6228C29.5895 27.5569 29.5647 27.4987 29.5523 27.4366C29.8514 27.2735 30.1013 27.0331 30.2757 26.7404C30.4502 26.4477 30.5429 26.1136 30.544 25.7729V21.0001C30.544 20.2088 30.0591 19.5292 29.3718 19.24ZM13.3622 25.7729V21.0001H28.6349L28.6369 25.7729H13.3622ZM16.6468 15.2729H25.3494C25.7608 15.2729 26.1254 15.5344 26.2553 15.9258L27.311 19.091H14.6862L15.7409 15.9258C15.8043 15.7356 15.9259 15.5702 16.0884 15.453C16.251 15.3359 16.4464 15.2728 16.6468 15.2729Z" fill="#00A2B9"/>
<path d="M15.7482 24.8182C16.539 24.8182 17.18 24.1772 17.18 23.3864C17.18 22.5956 16.539 21.9546 15.7482 21.9546C14.9575 21.9546 14.3164 22.5956 14.3164 23.3864C14.3164 24.1772 14.9575 24.8182 15.7482 24.8182Z" fill="#00A2B9"/>
<path d="M26.2482 24.8182C27.039 24.8182 27.68 24.1772 27.68 23.3864C27.68 22.5956 27.039 21.9546 26.2482 21.9546C25.4575 21.9546 24.8164 22.5956 24.8164 23.3864C24.8164 24.1772 25.4575 24.8182 26.2482 24.8182Z" fill="#00A2B9"/>
<path d="M23.864 14.3182C23.864 13.9422 23.7899 13.5698 23.646 13.2224C23.5021 12.8749 23.2912 12.5592 23.0253 12.2933C22.7593 12.0274 22.4437 11.8165 22.0962 11.6726C21.7488 11.5287 21.3764 11.4546 21.0004 11.4546C20.6243 11.4546 20.2519 11.5287 19.9045 11.6726C19.5571 11.8165 19.2414 12.0274 18.9755 12.2933C18.7095 12.5592 18.4986 12.8749 18.3547 13.2224C18.2108 13.5698 18.1367 13.9422 18.1367 14.3182L21.0004 14.3182H23.864Z" fill="#00A2B9"/>
<path d="M5.89506 34.6821H4.71307L4.72053 33.8096H5.89506C6.18839 33.8096 6.43572 33.7437 6.63707 33.612C6.83842 33.4778 6.99006 33.2826 7.09197 33.0266C7.19638 32.7706 7.24858 32.4611 7.24858 32.0981V31.8334C7.24858 31.555 7.21875 31.3101 7.15909 31.0989C7.10192 30.8876 7.01616 30.7098 6.90181 30.5657C6.78746 30.4215 6.64702 30.3133 6.48047 30.2413C6.31392 30.1667 6.12251 30.1294 5.90625 30.1294H4.6907V29.2532H5.90625C6.26918 29.2532 6.60103 29.3153 6.90181 29.4396C7.20508 29.5614 7.46733 29.7366 7.68857 29.9653C7.9098 30.194 8.08008 30.4675 8.1994 30.7856C8.3212 31.1013 8.3821 31.4531 8.3821 31.8409V32.0981C8.3821 32.4834 8.3212 32.8352 8.1994 33.1534C8.08008 33.4715 7.9098 33.745 7.68857 33.9737C7.46982 34.1999 7.20756 34.3751 6.90181 34.4994C6.59854 34.6212 6.26296 34.6821 5.89506 34.6821ZM5.34695 29.2532V34.6821H4.22834V29.2532H5.34695ZM10.2017 31.5277V34.6821H9.12784V30.6477H10.1383L10.2017 31.5277ZM11.4173 30.6216L11.3986 31.6171C11.3464 31.6097 11.283 31.6035 11.2085 31.5985C11.1364 31.591 11.0705 31.5873 11.0108 31.5873C10.8592 31.5873 10.7275 31.6072 10.6156 31.647C10.5062 31.6843 10.4142 31.7402 10.3397 31.8148C10.2676 31.8893 10.2129 31.9801 10.1756 32.087C10.1408 32.1938 10.1209 32.3157 10.1159 32.4524L9.89968 32.3853C9.89968 32.1242 9.92578 31.8844 9.97798 31.6656C10.0302 31.4444 10.106 31.2517 10.2054 31.0877C10.3074 30.9236 10.4316 30.7968 10.5783 30.7073C10.725 30.6179 10.8928 30.5731 11.0817 30.5731C11.1413 30.5731 11.2022 30.5781 11.2644 30.588C11.3265 30.5955 11.3775 30.6067 11.4173 30.6216ZM13.0579 30.6477V34.6821H11.9803V30.6477H13.0579ZM11.9132 29.5962C11.9132 29.4396 11.9679 29.3103 12.0772 29.2084C12.1866 29.1065 12.3333 29.0555 12.5172 29.0555C12.6987 29.0555 12.8441 29.1065 12.9535 29.2084C13.0653 29.3103 13.1213 29.4396 13.1213 29.5962C13.1213 29.7528 13.0653 29.8821 12.9535 29.984C12.8441 30.0859 12.6987 30.1369 12.5172 30.1369C12.3333 30.1369 12.1866 30.0859 12.0772 29.984C11.9679 29.8821 11.9132 29.7528 11.9132 29.5962ZM15.3175 33.8991L16.2124 30.6477H17.3347L15.9737 34.6821H15.2951L15.3175 33.8991ZM14.7022 30.6477L15.6009 33.9028L15.6195 34.6821H14.9371L13.5762 30.6477H14.7022ZM19.6204 34.7567C19.3072 34.7567 19.0263 34.707 18.7777 34.6076C18.5291 34.5056 18.3178 34.3652 18.1438 34.1862C17.9723 34.0072 17.8406 33.7997 17.7486 33.5635C17.6566 33.3249 17.6106 33.0713 17.6106 32.8029V32.6537C17.6106 32.348 17.6541 32.0683 17.7411 31.8148C17.8281 31.5612 17.9524 31.3412 18.114 31.1548C18.2781 30.9684 18.4769 30.8254 18.7106 30.726C18.9442 30.6241 19.2077 30.5731 19.5011 30.5731C19.7869 30.5731 20.0405 30.6203 20.2617 30.7148C20.483 30.8093 20.6681 30.9435 20.8173 31.1175C20.9689 31.2915 21.0833 31.5003 21.1603 31.7439C21.2374 31.985 21.2759 32.2535 21.2759 32.5493V32.9968H18.0692V32.2809H20.2207V32.1988C20.2207 32.0497 20.1934 31.9167 20.1387 31.7998C20.0865 31.6805 20.0069 31.5861 19.9 31.5165C19.7931 31.4469 19.6564 31.4121 19.4899 31.4121C19.3482 31.4121 19.2264 31.4431 19.1245 31.5053C19.0225 31.5674 18.9393 31.6544 18.8746 31.7663C18.8125 31.8782 18.7653 32.0099 18.733 32.1615C18.7031 32.3107 18.6882 32.4747 18.6882 32.6537V32.8029C18.6882 32.9644 18.7106 33.1136 18.7553 33.2503C18.8026 33.387 18.8684 33.5051 18.9529 33.6045C19.0399 33.704 19.1444 33.781 19.2662 33.8357C19.3904 33.8904 19.5309 33.9177 19.6875 33.9177C19.8814 33.9177 20.0616 33.8805 20.2282 33.8059C20.3972 33.7288 20.5426 33.6132 20.6644 33.4591L21.1864 34.0259C21.1019 34.1477 20.9863 34.2645 20.8397 34.3764C20.6955 34.4882 20.5215 34.5802 20.3176 34.6523C20.1138 34.7219 19.8814 34.7567 19.6204 34.7567ZM22.9613 31.5277V34.6821H21.8874V30.6477H22.8979L22.9613 31.5277ZM24.1768 30.6216L24.1582 31.6171C24.106 31.6097 24.0426 31.6035 23.968 31.5985C23.896 31.591 23.8301 31.5873 23.7704 31.5873C23.6188 31.5873 23.487 31.6072 23.3752 31.647C23.2658 31.6843 23.1738 31.7402 23.0993 31.8148C23.0272 31.8893 22.9725 31.9801 22.9352 32.087C22.9004 32.1938 22.8805 32.3157 22.8755 32.4524L22.6593 32.3853C22.6593 32.1242 22.6854 31.8844 22.7376 31.6656C22.7898 31.4444 22.8656 31.2517 22.965 31.0877C23.0669 30.9236 23.1912 30.7968 23.3379 30.7073C23.4846 30.6179 23.6523 30.5731 23.8413 30.5731C23.9009 30.5731 23.9618 30.5781 24.024 30.588C24.0861 30.5955 24.1371 30.6067 24.1768 30.6216ZM25.8175 28.9549V34.6821H24.7399V28.9549H25.8175ZM28.5618 34.7567C28.2486 34.7567 27.9677 34.707 27.7191 34.6076C27.4705 34.5056 27.2592 34.3652 27.0852 34.1862C26.9137 34.0072 26.782 33.7997 26.69 33.5635C26.598 33.3249 26.552 33.0713 26.552 32.8029V32.6537C26.552 32.348 26.5955 32.0683 26.6825 31.8148C26.7695 31.5612 26.8938 31.3412 27.0554 31.1548C27.2195 30.9684 27.4183 30.8254 27.652 30.726C27.8857 30.6241 28.1491 30.5731 28.4425 30.5731C28.7283 30.5731 28.9819 30.6203 29.2031 30.7148C29.4244 30.8093 29.6096 30.9435 29.7587 31.1175C29.9103 31.2915 30.0247 31.5003 30.1017 31.7439C30.1788 31.985 30.2173 32.2535 30.2173 32.5493V32.9968H27.0107V32.2809H29.1621V32.1988C29.1621 32.0497 29.1348 31.9167 29.0801 31.7998C29.0279 31.6805 28.9483 31.5861 28.8414 31.5165C28.7346 31.4469 28.5978 31.4121 28.4313 31.4121C28.2896 31.4121 28.1678 31.4431 28.0659 31.5053C27.964 31.5674 27.8807 31.6544 27.8161 31.7663C27.7539 31.8782 27.7067 32.0099 27.6744 32.1615C27.6445 32.3107 27.6296 32.4747 27.6296 32.6537V32.8029C27.6296 32.9644 27.652 33.1136 27.6967 33.2503C27.744 33.387 27.8098 33.5051 27.8944 33.6045C27.9814 33.704 28.0858 33.781 28.2076 33.8357C28.3319 33.8904 28.4723 33.9177 28.6289 33.9177C28.8228 33.9177 29.003 33.8805 29.1696 33.8059C29.3386 33.7288 29.484 33.6132 29.6058 33.4591L30.1278 34.0259C30.0433 34.1477 29.9277 34.2645 29.7811 34.3764C29.6369 34.4882 29.4629 34.5802 29.2591 34.6523C29.0552 34.7219 28.8228 34.7567 28.5618 34.7567ZM33.0101 33.5672C33.0101 33.4902 32.9877 33.4206 32.943 33.3584C32.8983 33.2963 32.815 33.2391 32.6932 33.1869C32.5739 33.1322 32.4011 33.0825 32.1749 33.0378C31.9711 32.993 31.7809 32.9371 31.6044 32.87C31.4304 32.8004 31.2788 32.7171 31.1495 32.6202C31.0227 32.5232 30.9233 32.4089 30.8512 32.2771C30.7791 32.1429 30.7431 31.99 30.7431 31.8185C30.7431 31.6495 30.7791 31.4904 30.8512 31.3412C30.9258 31.1921 31.0314 31.0603 31.1681 30.946C31.3073 30.8291 31.4764 30.7384 31.6752 30.6738C31.8766 30.6067 32.1028 30.5731 32.3539 30.5731C32.7044 30.5731 33.0051 30.629 33.2562 30.7409C33.5098 30.8528 33.7037 31.0069 33.8379 31.2033C33.9746 31.3972 34.043 31.6184 34.043 31.867H32.9691C32.9691 31.7626 32.9467 31.6693 32.902 31.5873C32.8597 31.5028 32.7926 31.4369 32.7006 31.3897C32.6111 31.34 32.4943 31.3151 32.3501 31.3151C32.2308 31.3151 32.1277 31.3362 32.0407 31.3785C31.9537 31.4183 31.8865 31.473 31.8393 31.5426C31.7946 31.6097 31.7722 31.6843 31.7722 31.7663C31.7722 31.8284 31.7846 31.8844 31.8095 31.9341C31.8368 31.9813 31.8803 32.0248 31.94 32.0646C31.9996 32.1044 32.0767 32.1416 32.1712 32.1764C32.2681 32.2088 32.3874 32.2386 32.5291 32.2659C32.82 32.3256 33.0797 32.4039 33.3084 32.5008C33.5371 32.5953 33.7186 32.7246 33.8528 32.8886C33.987 33.0502 34.0542 33.2627 34.0542 33.5262C34.0542 33.7052 34.0144 33.8693 33.9348 34.0184C33.8553 34.1676 33.7409 34.2981 33.5918 34.4099C33.4426 34.5193 33.2637 34.6051 33.0549 34.6672C32.8485 34.7269 32.6161 34.7567 32.3576 34.7567C31.9822 34.7567 31.6641 34.6896 31.4031 34.5554C31.1445 34.4211 30.9482 34.2508 30.8139 34.0445C30.6822 33.8357 30.6163 33.6219 30.6163 33.4032H31.6342C31.6392 33.5498 31.6765 33.6679 31.7461 33.7574C31.8182 33.8469 31.9089 33.9115 32.0183 33.9513C32.1301 33.9911 32.2507 34.011 32.38 34.011C32.5192 34.011 32.6348 33.9923 32.7267 33.955C32.8187 33.9153 32.8883 33.8631 32.9355 33.7984C32.9853 33.7313 33.0101 33.6543 33.0101 33.5672ZM36.9327 33.5672C36.9327 33.4902 36.9103 33.4206 36.8656 33.3584C36.8208 33.2963 36.7376 33.2391 36.6158 33.1869C36.4964 33.1322 36.3237 33.0825 36.0975 33.0378C35.8936 32.993 35.7035 32.9371 35.527 32.87C35.353 32.8004 35.2013 32.7171 35.0721 32.6202C34.9453 32.5232 34.8459 32.4089 34.7738 32.2771C34.7017 32.1429 34.6657 31.99 34.6657 31.8185C34.6657 31.6495 34.7017 31.4904 34.7738 31.3412C34.8484 31.1921 34.954 31.0603 35.0907 30.946C35.2299 30.8291 35.399 30.7384 35.5978 30.6738C35.7992 30.6067 36.0254 30.5731 36.2765 30.5731C36.627 30.5731 36.9277 30.629 37.1788 30.7409C37.4323 30.8528 37.6262 31.0069 37.7605 31.2033C37.8972 31.3972 37.9656 31.6184 37.9656 31.867H36.8917C36.8917 31.7626 36.8693 31.6693 36.8246 31.5873C36.7823 31.5028 36.7152 31.4369 36.6232 31.3897C36.5337 31.34 36.4169 31.3151 36.2727 31.3151C36.1534 31.3151 36.0502 31.3362 35.9632 31.3785C35.8762 31.4183 35.8091 31.473 35.7619 31.5426C35.7172 31.6097 35.6948 31.6843 35.6948 31.7663C35.6948 31.8284 35.7072 31.8844 35.7321 31.9341C35.7594 31.9813 35.8029 32.0248 35.8626 32.0646C35.9222 32.1044 35.9993 32.1416 36.0937 32.1764C36.1907 32.2088 36.31 32.2386 36.4517 32.2659C36.7425 32.3256 37.0023 32.4039 37.231 32.5008C37.4597 32.5953 37.6412 32.7246 37.7754 32.8886C37.9096 33.0502 37.9767 33.2627 37.9767 33.5262C37.9767 33.7052 37.937 33.8693 37.8574 34.0184C37.7779 34.1676 37.6635 34.2981 37.5144 34.4099C37.3652 34.5193 37.1863 34.6051 36.9774 34.6672C36.7711 34.7269 36.5387 34.7567 36.2802 34.7567C35.9048 34.7567 35.5866 34.6896 35.3256 34.5554C35.0671 34.4211 34.8707 34.2508 34.7365 34.0445C34.6048 33.8357 34.5389 33.6219 34.5389 33.4032H35.5568C35.5618 33.5498 35.5991 33.6679 35.6687 33.7574C35.7408 33.8469 35.8315 33.9115 35.9409 33.9513C36.0527 33.9911 36.1733 34.011 36.3026 34.011C36.4418 34.011 36.5573 33.9923 36.6493 33.955C36.7413 33.9153 36.8109 33.8631 36.8581 33.7984C36.9078 33.7313 36.9327 33.6543 36.9327 33.5672Z" fill="#00A2B9"/>
</svg>
