<svg width="24" height="24" viewBox="0 0 24 24" fill="none" xmlns="http://www.w3.org/2000/svg">
<path d="M12 16.9999C12.2833 16.9999 12.521 16.9039 12.713 16.7119C12.9043 16.5206 13 16.2832 13 15.9999V11.9999C13 11.7166 12.9043 11.4789 12.713 11.2869C12.521 11.0956 12.2833 10.9999 12 10.9999C11.7167 10.9999 11.4793 11.0956 11.288 11.2869C11.096 11.4789 11 11.7166 11 11.9999V15.9999C11 16.2832 11.096 16.5206 11.288 16.7119C11.4793 16.9039 11.7167 16.9999 12 16.9999ZM12 8.9999C12.2833 8.9999 12.521 8.9039 12.713 8.7119C12.9043 8.52057 13 8.28324 13 7.9999C13 7.71657 12.9043 7.4789 12.713 7.2869C12.521 7.09557 12.2833 6.9999 12 6.9999C11.7167 6.9999 11.4793 7.09557 11.288 7.2869C11.096 7.4789 11 7.71657 11 7.9999C11 8.28324 11.096 8.52057 11.288 8.7119C11.4793 8.9039 11.7167 8.9999 12 8.9999ZM12 21.9249H11.75C11.6667 21.9249 11.5917 21.9082 11.525 21.8749C9.34167 21.1916 7.54167 19.8372 6.125 17.8119C4.70833 15.7872 4 13.5499 4 11.0999V6.3749C4 5.95824 4.121 5.58324 4.363 5.2499C4.60433 4.91657 4.91667 4.6749 5.3 4.5249L11.3 2.2749C11.5333 2.19157 11.7667 2.1499 12 2.1499C12.2333 2.1499 12.4667 2.19157 12.7 2.2749L18.7 4.5249C19.0833 4.6749 19.396 4.91657 19.638 5.2499C19.8793 5.58324 20 5.95824 20 6.3749V11.0999C20 13.5499 19.2917 15.7872 17.875 17.8119C16.4583 19.8372 14.6583 21.1916 12.475 21.8749C12.3917 21.9082 12.2333 21.9249 12 21.9249ZM12 19.8999C13.7333 19.3499 15.1667 18.2499 16.3 16.5999C17.4333 14.9499 18 13.1166 18 11.0999V6.3749L12 4.1249L6 6.3749V11.0999C6 13.1166 6.56667 14.9499 7.7 16.5999C8.83333 18.2499 10.2667 19.3499 12 19.8999Z" fill="#00A2B9"/>
</svg>
