<svg width="48" height="48" viewBox="0 0 48 48" fill="none" xmlns="http://www.w3.org/2000/svg">
<g clip-path="url(#clip0_44226_166513)">
<path d="M40.1891 22.5237C39.7939 22.1229 39.3231 21.8044 38.8041 21.5867C38.285 21.369 37.7279 21.2563 37.1651 21.2553C36.336 21.2553 35.5054 21.5637 35.0487 21.8677C34.1018 22.499 33.3236 23.1826 31.9229 24.992V26.2924C33.1112 24.7448 34.2356 23.5244 35.0894 22.8539C35.6509 22.403 36.4465 22.1251 37.1651 22.1251C39.0196 22.1251 40.5862 23.6917 40.5862 25.5462V26.3288C40.5862 27.2451 40.2269 28.1077 39.5709 28.755C38.9326 29.3927 38.0673 29.7511 37.1651 29.7513C35.6407 29.7513 34.2996 28.7055 33.936 27.2771L33.3221 28.019C33.7687 29.5171 35.3832 30.6211 37.1651 30.6211C37.7279 30.6199 38.2849 30.5071 38.8039 30.2894C39.323 30.0717 39.7937 29.7534 40.1891 29.3528C41.0065 28.5353 41.456 27.4619 41.456 26.3288V25.5462C41.456 24.4146 41.0051 23.3397 40.1891 22.5237ZM21.5709 22.1251C22.1614 22.1251 22.672 22.2517 23.1331 22.512C23.3199 22.2833 23.5195 22.0652 23.7309 21.859C23.2436 21.4866 22.4174 21.2553 21.5709 21.2553C20.3636 21.2553 19.2669 21.6917 18.4843 22.4815C17.7076 23.267 17.2771 24.3535 17.2771 25.5462V30.6211H18.1469V25.5448C18.1469 23.5302 19.5549 22.1237 21.5709 22.1237V22.1251ZM29.8298 30.6182V25.5448C29.8298 23.9855 28.608 22.7622 27.0472 22.7622C26.32 22.7622 25.6276 23.0575 25.0938 23.5913C24.8334 23.846 24.626 24.1498 24.4837 24.4851C24.3414 24.8204 24.267 25.1805 24.2647 25.5448V26.3273C24.2647 27.8357 25.5403 29.1099 27.0472 29.1099C27.4618 29.1099 28.0232 29.008 28.368 28.7259V27.808C28.0305 28.08 27.5389 28.2415 27.0472 28.2415C26.7952 28.244 26.5452 28.1962 26.3119 28.1009C26.0786 28.0056 25.8667 27.8647 25.6886 27.6864C25.5104 27.5081 25.3697 27.2961 25.2745 27.0627C25.1794 26.8293 25.1318 26.5793 25.1345 26.3273V25.5448C25.1318 25.2929 25.1794 25.043 25.2746 24.8098C25.3698 24.5766 25.5106 24.3647 25.6887 24.1867C25.8669 24.0087 26.0789 23.868 26.3122 23.773C26.5455 23.678 26.7954 23.6306 27.0472 23.6335C27.2992 23.6304 27.5493 23.6777 27.7828 23.7726C28.0162 23.8675 28.2283 24.0081 28.4067 24.1862C28.585 24.3642 28.726 24.5762 28.8212 24.8095C28.9165 25.0428 28.9642 25.2928 28.9614 25.5448V30.6197L29.8298 30.6182ZM6.54688 25.0444V25.3251C6.54688 26.832 7.11851 28.2386 8.15706 29.2844C8.66879 29.8004 9.27826 30.2092 9.94984 30.487C10.6214 30.7647 11.3416 30.9057 12.0683 30.9019C13.2611 30.9019 14.32 30.6313 15.2131 30.1004C15.9491 29.6611 16.2749 29.2175 16.304 29.1768V24.4975H11.856V25.3659H15.4341V28.9062L15.4312 28.9091C15.0123 29.328 14.0174 30.0291 12.0683 30.0291C11.4526 30.035 10.842 29.9172 10.2726 29.6829C9.70323 29.4485 9.18664 29.1023 8.75342 28.6648C7.88386 27.7714 7.40283 26.5703 7.41524 25.3237V25.043C7.41524 23.8357 7.96069 22.6342 8.9076 21.7426C9.86889 20.8379 11.1395 20.3347 12.4596 20.336C13.6916 20.336 14.5512 20.5237 15.2421 20.9411V19.9666C14.5236 19.6611 13.664 19.523 12.4596 19.523C9.25524 19.523 6.54688 22.051 6.54688 25.043V25.0444ZM21.5709 23.635C21.8996 23.635 22.1803 23.6888 22.4014 23.7979C22.5105 23.5273 22.6211 23.3048 22.7825 23.0342C22.5469 22.8655 21.984 22.7637 21.5709 22.7637C19.9854 22.7637 18.7883 23.9608 18.7883 25.5462V30.6211H19.6581V25.5448C19.6581 24.419 20.4436 23.6335 21.5709 23.6335V23.635ZM15.2421 22.6124V21.584C14.4552 21.1622 13.5971 20.9746 12.4596 20.9746C11.2974 20.9746 10.1978 21.4008 9.35851 22.1731C8.51924 22.947 8.05669 23.9666 8.05669 25.0415V25.3222C8.05669 27.5651 9.85597 29.3891 12.0683 29.3891C13.8676 29.3891 14.6065 28.8 14.7941 28.6139V26.0044H11.856V26.8742H13.9796V28.1819L13.9723 28.1833C13.7003 28.2924 13.1316 28.5193 12.0669 28.5193C11.6534 28.5212 11.2438 28.4404 10.8621 28.2815C10.4804 28.1226 10.1343 27.8889 9.84433 27.5942C9.24894 26.9886 8.9183 26.1715 8.92506 25.3222V25.0415C8.92506 23.3077 10.544 21.8444 12.4596 21.8444C13.7832 21.8444 14.5687 22.0582 15.2421 22.6124ZM35.7585 24.2502C36.1512 23.8575 36.6647 23.6335 37.1651 23.6335C37.4169 23.6306 37.6668 23.678 37.9001 23.773C38.1334 23.868 38.3454 24.0087 38.5236 24.1867C38.7017 24.3647 38.8425 24.5766 38.9377 24.8098C39.0329 25.043 39.0805 25.2929 39.0778 25.5448V26.3273C39.0778 27.4008 38.2371 28.2415 37.1651 28.2415C36.6458 28.2415 36.144 27.9564 35.7512 27.4415C35.3987 26.9668 35.1879 26.402 35.1432 25.8124L34.4392 26.672C34.5774 27.3295 34.9192 27.9593 35.4065 28.403C35.9069 28.8582 36.5323 29.1099 37.1651 29.1099C37.9028 29.1091 38.6101 28.8157 39.1318 28.294C39.6534 27.7724 39.9468 27.0651 39.9476 26.3273V25.5448C39.9476 24.819 39.6538 24.1237 39.1185 23.5913C38.8638 23.331 38.56 23.1237 38.2247 22.9814C37.8894 22.8391 37.5293 22.7646 37.1651 22.7622C36.7054 22.7622 35.9752 22.928 35.104 23.7106L35.1011 23.7135C34.8683 23.9462 34.3214 24.4931 33.9883 24.883C33.4298 25.4939 32.6167 26.416 31.9229 27.3382V28.6953C32.6923 27.7062 33.1345 27.1535 33.8574 26.3186C34.5047 25.5637 35.3061 24.6459 35.7585 24.2502ZM22.7563 26.3273C22.7563 27.4604 23.2072 28.5339 24.0247 29.3528C24.4201 29.7527 24.8907 30.0704 25.4095 30.2876C25.9282 30.5048 26.4849 30.6172 27.0472 30.6182C27.5272 30.6182 28.0203 30.5164 28.368 30.3448V29.4764C27.9488 29.6498 27.5008 29.7426 27.0472 29.7499C25.1941 29.7499 23.6261 28.1833 23.6261 26.3273V25.5448C23.6261 23.6902 25.1941 22.1237 27.0472 22.1237C27.4974 22.1212 27.9436 22.208 28.36 22.3791C28.7763 22.5502 29.1546 22.8022 29.4729 23.1205C29.7912 23.4388 30.0433 23.8171 30.2144 24.2335C30.3855 24.6499 30.4723 25.0961 30.4698 25.5462V30.6197H31.3396V25.3775C31.2855 24.2705 30.8092 23.2263 30.0087 22.4597C29.2165 21.6868 28.154 21.2536 27.0472 21.2524C25.9156 21.2524 24.8421 21.7033 24.0247 22.5222C23.624 22.9172 23.3056 23.3877 23.0879 23.9065C22.8701 24.4253 22.7575 24.9821 22.7563 25.5448V26.3273ZM32.8189 22.963C33.0799 22.6318 33.37 22.3246 33.6858 22.0451V17.4546H32.8189V22.963ZM34.3272 21.6888V17.4546H35.1956V21.0939C34.8868 21.263 34.5959 21.4628 34.3272 21.6902" fill="#00A92F"/>
</g>
<defs>
<clipPath id="clip0_44226_166513">
<rect width="48" height="48" fill="white"/>
</clipPath>
</defs>
</svg>
