<svg width="29" height="28" viewBox="0 0 29 28" fill="none" xmlns="http://www.w3.org/2000/svg">
<path d="M6.80005 4.20001C5.87179 4.20001 4.98155 4.56876 4.32518 5.22514C3.6688 5.88152 3.30005 6.77175 3.30005 7.70001V20.3C3.30005 21.2283 3.6688 22.1185 4.32518 22.7749C4.98155 23.4313 5.87179 23.8 6.80005 23.8H22.2C23.1283 23.8 24.0185 23.4313 24.6749 22.7749C25.3313 22.1185 25.7 21.2283 25.7 20.3V7.70001C25.7 6.77175 25.3313 5.88152 24.6749 5.22514C24.0185 4.56876 23.1283 4.20001 22.2 4.20001H6.80005ZM12.771 9.90641L18.371 13.4092C18.4701 13.4714 18.5521 13.5574 18.6094 13.6594C18.6666 13.7613 18.6975 13.8761 18.699 13.993C18.7005 14.11 18.6727 14.2255 18.6181 14.3289C18.5635 14.4324 18.4839 14.5205 18.3864 14.5852L12.7864 18.2938C12.681 18.3636 12.5585 18.4036 12.4321 18.4094C12.3057 18.4152 12.1801 18.3866 12.0687 18.3267C11.9573 18.2668 11.8641 18.1779 11.7992 18.0693C11.7343 17.9607 11.7 17.8365 11.7 17.71V10.5C11.7 10.3751 11.7335 10.2524 11.7969 10.1447C11.8603 10.0371 11.9514 9.94833 12.0607 9.88776C12.17 9.82719 12.2935 9.79697 12.4184 9.80025C12.5433 9.80353 12.6651 9.84019 12.771 9.90641Z" fill="#666666"/>
</svg>
