<svg width="48" height="48" viewBox="0 0 48 48" fill="none" xmlns="http://www.w3.org/2000/svg">
<circle cx="24" cy="24" r="24" fill="#EFEFEF"/>
<path d="M17.3333 30.6667V28C17.3333 27.2928 17.6143 26.6145 18.1144 26.1144C18.6145 25.6143 19.2928 25.3333 20 25.3333H28C28.7072 25.3333 29.3855 25.6143 29.8856 26.1144C30.3857 26.6145 30.6667 27.2928 30.6667 28V30.6667M17.3333 30.6667V33.3333C17.3333 34.0406 17.6143 34.7189 18.1144 35.219C18.6145 35.719 19.2928 36 20 36H28C28.7072 36 29.3855 35.719 29.8856 35.219C30.3857 34.7189 30.6667 34.0406 30.6667 33.3333V30.6667M17.3333 30.6667H14.6667C13.9594 30.6667 13.2811 30.3857 12.781 29.8856C12.281 29.3855 12 28.7072 12 28V20C12 19.2928 12.281 18.6145 12.781 18.1144C13.2811 17.6143 13.9594 17.3333 14.6667 17.3333H16M16 17.3333V14.6667C16 13.9594 16.281 13.2811 16.781 12.781C17.2811 12.281 17.9594 12 18.6667 12H29.3333C30.0406 12 30.7189 12.281 31.219 12.781C31.719 13.2811 32 13.9594 32 14.6667V17.3333M16 17.3333H32M32 17.3333H33.3333C34.0406 17.3333 34.7189 17.6143 35.219 18.1144C35.719 18.6145 36 19.2928 36 20V28C36 28.7072 35.719 29.3855 35.219 29.8856C34.7189 30.3857 34.0406 30.6667 33.3333 30.6667H30.6667M17.3333 21.3333H18.6667" stroke="#BDBDBD" stroke-width="2.33333" stroke-linecap="round" stroke-linejoin="round"/>
</svg>
