<svg width="24" height="24" viewBox="0 0 24 24" fill="none" xmlns="http://www.w3.org/2000/svg">
<g clip-path="url(#clip0_31552_7983)">
<path d="M20.25 9.59961C21.0068 10.0354 21.6205 10.682 22.0162 11.4606C22.4118 12.2392 22.5723 13.1161 22.4782 13.9843C22.3841 14.8526 22.0393 15.6747 21.486 16.3504C20.9326 17.0261 20.1947 17.5261 19.362 17.7896C19.0677 19.1251 18.3262 20.32 17.2601 21.1765C16.1941 22.0331 14.8675 22.4999 13.5 22.4996H11.25C11.0511 22.4996 10.8603 22.4206 10.7197 22.2799C10.579 22.1393 10.5 21.9485 10.5 21.7496C10.5 21.5507 10.579 21.3599 10.7197 21.2193C10.8603 21.0786 11.0511 20.9996 11.25 20.9996H13.5C14.4309 20.9999 15.339 20.7115 16.0993 20.1743C16.8595 19.637 17.4345 18.8772 17.745 17.9996H17.25C17.0511 17.9996 16.8603 17.9206 16.7197 17.7799C16.579 17.6393 16.5 17.4485 16.5 17.2496V9.74961C16.5 9.5507 16.579 9.35993 16.7197 9.21928C16.8603 9.07863 17.0511 8.99961 17.25 8.99961H18C18.243 8.99961 18.4815 9.01911 18.7155 9.05661C18.5467 7.39295 17.7663 5.85118 16.5256 4.73004C15.2849 3.6089 13.6722 2.9882 12 2.9882C10.3278 2.9882 8.71512 3.6089 7.47442 4.73004C6.23373 5.85118 5.45336 7.39295 5.28451 9.05661C5.52112 9.01871 5.76038 8.99965 6.00001 8.99961H6.75001C6.94892 8.99961 7.13969 9.07863 7.28034 9.21928C7.42099 9.35993 7.50001 9.5507 7.50001 9.74961V17.2496C7.50001 17.4485 7.42099 17.6393 7.28034 17.7799C7.13969 17.9206 6.94892 17.9996 6.75001 17.9996H6.00001C5.00848 18.0007 4.04435 17.6743 3.2574 17.0711C2.47046 16.4679 1.90477 15.6217 1.64823 14.6639C1.39169 13.7062 1.45865 12.6905 1.83872 11.7747C2.21879 10.8589 2.89068 10.0943 3.75001 9.59961C3.75001 7.41157 4.6192 5.31315 6.16638 3.76598C7.71355 2.2188 9.81197 1.34961 12 1.34961C14.188 1.34961 16.2865 2.2188 17.8336 3.76598C19.3808 5.31315 20.25 7.41157 20.25 9.59961ZM6.00001 10.4996C5.20436 10.4996 4.4413 10.8157 3.87869 11.3783C3.31608 11.9409 3.00001 12.704 3.00001 13.4996C3.00001 14.2953 3.31608 15.0583 3.87869 15.6209C4.4413 16.1835 5.20436 16.4996 6.00001 16.4996V10.4996ZM21 13.4996C21 12.704 20.6839 11.9409 20.1213 11.3783C19.5587 10.8157 18.7957 10.4996 18 10.4996V16.4996C18.7957 16.4996 19.5587 16.1835 20.1213 15.6209C20.6839 15.0583 21 14.2953 21 13.4996Z" fill="#00A2B9" stroke="#00A2B9" stroke-width="0.4"/>
</g>
<defs>
<clipPath id="clip0_31552_7983">
<rect width="24" height="24" fill="white"/>
</clipPath>
</defs>
</svg>
