<svg width="28" height="28" viewBox="0 0 28 28" fill="none" xmlns="http://www.w3.org/2000/svg">
<path d="M3.5 10.5001H24.5M3.5 10.5001V22.1667C3.5 22.7856 3.74583 23.3791 4.18342 23.8166C4.621 24.2542 5.21449 24.5001 5.83333 24.5001H11.5M3.5 10.5001L6.35833 4.78339C6.55313 4.39682 6.85161 4.07206 7.22041 3.84542C7.58922 3.61878 8.01379 3.4992 8.44667 3.50006H19.5533C19.9882 3.49703 20.4152 3.61558 20.7863 3.84234C21.1573 4.0691 21.4577 4.39504 21.6533 4.78339L24.5 10.5001M24.5 10.5001V13.4167M14 3.50006V10.5001" stroke="#00A2B9" stroke-width="2" stroke-linecap="round" stroke-linejoin="round"/>
<path d="M18.8125 15.0718C19.1973 14.1881 20.4698 14.188 20.8545 15.0718L20.8896 15.1636L21.8584 17.9858L21.9004 18.064C21.9529 18.1338 22.0362 18.1772 22.127 18.1772H25.291C26.3533 18.1772 26.7995 19.5059 26.0049 20.1538L25.9238 20.2144L23.4316 21.9272C23.3268 21.9993 23.2829 22.1331 23.3242 22.2534L24.2695 25.0073L24.2979 25.1021C24.5397 26.0469 23.5105 26.8289 22.665 26.3433L22.5811 26.2905L19.9941 24.5112C19.9216 24.4614 19.8312 24.4492 19.75 24.4741L19.6729 24.5112L17.0859 26.2905C16.199 26.9003 15.0479 26.0254 15.3975 25.0073L16.3428 22.2534L16.3545 22.2075C16.3698 22.1157 16.3384 22.0221 16.2715 21.9575L16.2354 21.9272L13.7432 20.2144C12.8395 19.5931 13.2794 18.1772 14.376 18.1772H17.54C17.661 18.1772 17.7683 18.1002 17.8076 17.9858L18.7773 15.1636L18.8125 15.0718Z" stroke="#00A2B9" stroke-width="2"/>
</svg>
