<svg width="24" height="24" viewBox="0 0 24 24" fill="none" xmlns="http://www.w3.org/2000/svg">
<g clip-path="url(#clip0_12522_141255)">
<path d="M11.9996 14.2132C12.2294 14.2132 12.4499 14.1219 12.6124 13.9594C12.7749 13.7968 12.8662 13.5764 12.8662 13.3466V9.33322C12.8662 9.10337 12.7749 8.88293 12.6124 8.72039C12.4499 8.55786 12.2294 8.46655 11.9996 8.46655C11.7697 8.46655 11.5493 8.55786 11.3868 8.72039C11.2242 8.88293 11.1329 9.10337 11.1329 9.33322V13.3332C11.1311 13.4481 11.1523 13.5623 11.195 13.669C11.2378 13.7757 11.3013 13.8728 11.382 13.9547C11.4626 14.0366 11.5588 14.1016 11.6648 14.146C11.7708 14.1904 11.8846 14.2132 11.9996 14.2132Z" fill="#FF991F"/>
<path d="M11.9668 17.1799C12.5191 17.1799 12.9668 16.7322 12.9668 16.1799C12.9668 15.6276 12.5191 15.1799 11.9668 15.1799C11.4145 15.1799 10.9668 15.6276 10.9668 16.1799C10.9668 16.7322 11.4145 17.1799 11.9668 17.1799Z" fill="#FF991F"/>
<path d="M20.2205 17.0266L13.7271 5.06661C13.5552 4.75075 13.3013 4.48708 12.9922 4.30337C12.683 4.11966 12.3301 4.02271 11.9705 4.02271C11.6108 4.02271 11.2579 4.11966 10.9487 4.30337C10.6396 4.48708 10.3857 4.75075 10.2138 5.06661L3.71379 17.0266C3.54365 17.332 3.45653 17.6766 3.46111 18.0262C3.46568 18.3757 3.56179 18.7179 3.73985 19.0187C3.91792 19.3196 4.17171 19.5685 4.47595 19.7406C4.78018 19.9128 5.12422 20.0022 5.47378 19.9999H18.4605C18.8071 20.0003 19.148 19.9104 19.4495 19.7393C19.751 19.5682 20.0029 19.3216 20.1803 19.0238C20.3578 18.726 20.4548 18.3871 20.4619 18.0405C20.4689 17.6939 20.3857 17.3514 20.2205 17.0466V17.0266ZM19.0338 18.3199C18.9748 18.4195 18.8909 18.5019 18.7904 18.5592C18.6898 18.6165 18.5761 18.6466 18.4605 18.6466H5.47378C5.3579 18.6469 5.24394 18.617 5.14313 18.5599C5.04233 18.5027 4.95816 18.4203 4.89894 18.3207C4.83971 18.2211 4.80748 18.1077 4.8054 17.9919C4.80333 17.876 4.83149 17.7616 4.88712 17.6599L11.3805 5.69994C11.4376 5.59411 11.5223 5.5057 11.6255 5.44408C11.7288 5.38246 11.8469 5.34992 11.9671 5.34992C12.0874 5.34992 12.2054 5.38246 12.3087 5.44408C12.412 5.5057 12.4967 5.59411 12.5538 5.69994L19.0471 17.6599C19.1024 17.7616 19.1302 17.876 19.1279 17.9917C19.1255 18.1074 19.0931 18.2206 19.0338 18.3199Z" fill="#FF991F"/>
</g>
<defs>
<clipPath id="clip0_12522_141255">
<rect width="24" height="24" fill="white"/>
</clipPath>
</defs>
</svg>
