<svg width="24" height="24" viewBox="0 0 24 24" fill="none" xmlns="http://www.w3.org/2000/svg">
<path d="M20 21.5V4C20 3.46957 19.7893 2.96086 19.4142 2.58579C19.0391 2.21071 18.5304 2 18 2H6C5.46957 2 4.96086 2.21071 4.58579 2.58579C4.21071 2.96086 4 3.46957 4 4V21.5M20 21.5H4M20 21.5H22M20 21.5H14M4 21.5H2M4 21.5H10M14 21.5V16.5C14 16.2348 13.8946 15.9804 13.7071 15.7929C13.5196 15.6054 13.2652 15.5 13 15.5H11C10.7348 15.5 10.4804 15.6054 10.2929 15.7929C10.1054 15.9804 10 16.2348 10 16.5V21.5M14 21.5H10M9 7.5H10M9 11.5H10M14 7.5H15M14 11.5H15" stroke="#00A2B9" stroke-width="2" stroke-linecap="round" stroke-linejoin="round"/>
</svg>
