<svg width="24" height="24" viewBox="0 0 24 24" fill="none" xmlns="http://www.w3.org/2000/svg">
<g clip-path="url(#clip0_2360_20160)">
<path d="M128 148V108C128 101.4 133.4 96 140 96H180C186.6 96 192 101.4 192 108V148C192 154.6 186.6 160 180 160H140C133.4 160 128 154.6 128 148ZM268 160H308C314.6 160 320 154.6 320 148V108C320 101.4 314.6 96 308 96H268C261.4 96 256 101.4 256 108V148C256 154.6 261.4 160 268 160ZM140 256H180C186.6 256 192 250.6 192 244V204C192 197.4 186.6 192 180 192H140C133.4 192 128 197.4 128 204V244C128 250.6 133.4 256 140 256ZM268 256H308C314.6 256 320 250.6 320 244V204C320 197.4 314.6 192 308 192H268C261.4 192 256 197.4 256 204V244C256 250.6 261.4 256 268 256ZM192 340V300C192 293.4 186.6 288 180 288H140C133.4 288 128 293.4 128 300V340C128 346.6 133.4 352 140 352H180C186.6 352 192 346.6 192 340ZM268 352H308C314.6 352 320 346.6 320 340V300C320 293.4 314.6 288 308 288H268C261.4 288 256 293.4 256 300V340C256 346.6 261.4 352 268 352ZM448 476V512H0V476C0 469.4 5.4 464 12 464H31.5V24C31.5 10.7 42.2 0 55.5 0H392.5C405.8 0 416.5 10.7 416.5 24V464H436C442.6 464 448 469.4 448 476ZM79.5 463H192V396C192 389.4 197.4 384 204 384H244C250.6 384 256 389.4 256 396V463H368.5V49L80 48L79.5 463Z" fill="#00A2B9"/>
<path d="M12 10C14.2091 10 16 8.20914 16 6C16 3.79086 14.2091 2 12 2C9.79086 2 8 3.79086 8 6C8 8.20914 9.79086 10 12 10Z" stroke="#00A2B9" stroke-width="2" stroke-linecap="round" stroke-linejoin="round"/>
<path d="M21 22C21 17.0295 16.9705 13 12 13C7.0295 13 3 17.0295 3 22" stroke="#00A2B9" stroke-width="2" stroke-linecap="round" stroke-linejoin="round"/>
<path d="M12 22L14 19.5L12 13L10 19.5L12 22Z" stroke="#00A2B9" stroke-width="2" stroke-linecap="round" stroke-linejoin="round"/>
</g>
<defs>
<clipPath id="clip0_2360_20160">
<rect width="24" height="24" fill="white"/>
</clipPath>
</defs>
</svg>
