<svg width="28" height="28" viewBox="0 0 28 28" fill="none" xmlns="http://www.w3.org/2000/svg">
<path d="M4.2002 8.4002C4.2002 7.28629 4.64269 6.218 5.43035 5.43035C6.218 4.64269 7.28629 4.2002 8.4002 4.2002H19.6002C20.7141 4.2002 21.7824 4.64269 22.57 5.43035C23.3577 6.218 23.8002 7.28629 23.8002 8.4002V13.4402C23.3526 13.2115 22.8837 13.0273 22.4002 12.89V8.4002C22.4002 7.65759 22.1052 6.9454 21.5801 6.4203C21.055 5.89519 20.3428 5.6002 19.6002 5.6002H8.4002C7.65759 5.6002 6.9454 5.89519 6.4203 6.4203C5.89519 6.9454 5.6002 7.65759 5.6002 8.4002V19.6002C5.6002 20.3428 5.89519 21.055 6.4203 21.5801C6.9454 22.1052 7.65759 22.4002 8.4002 22.4002H12.89C13.0291 22.8893 13.2125 23.3559 13.4402 23.8002H8.4002C7.28629 23.8002 6.218 23.3577 5.43035 22.57C4.64269 21.7824 4.2002 20.7141 4.2002 19.6002V8.4002ZM11.1638 17.5744C11.588 17.7858 12.1718 18.0042 12.9138 18.119C12.7817 18.5681 12.6908 19.0282 12.6422 19.4938C11.9109 19.3795 11.2014 19.1543 10.538 18.826C10.2229 18.6724 9.92292 18.4896 9.642 18.28C9.5368 18.2003 9.43543 18.1158 9.3382 18.0266L9.3172 18.007L9.3102 18L9.30739 17.9972L9.30459 17.9958C9.17278 17.8649 9.09836 17.687 9.09771 17.5013C9.09705 17.3155 9.17021 17.1371 9.3011 17.0053C9.43198 16.8735 9.60987 16.7991 9.79562 16.7984C9.98138 16.7977 10.1598 16.8709 10.2916 17.0018L10.2958 17.0046L10.3266 17.0326C10.3583 17.0606 10.4101 17.1026 10.482 17.1586C10.6276 17.2678 10.8544 17.4204 11.1638 17.5744ZM10.5002 12.6002C10.8715 12.6002 11.2276 12.4527 11.4901 12.1901C11.7527 11.9276 11.9002 11.5715 11.9002 11.2002C11.9002 10.8289 11.7527 10.4728 11.4901 10.2102C11.2276 9.9477 10.8715 9.8002 10.5002 9.8002C10.1289 9.8002 9.7728 9.9477 9.51025 10.2102C9.24769 10.4728 9.1002 10.8289 9.1002 11.2002C9.1002 11.5715 9.24769 11.9276 9.51025 12.1901C9.7728 12.4527 10.1289 12.6002 10.5002 12.6002ZM18.9002 11.2002C18.9002 11.5715 18.7527 11.9276 18.4901 12.1901C18.2276 12.4527 17.8715 12.6002 17.5002 12.6002C17.1289 12.6002 16.7728 12.4527 16.5102 12.1901C16.2477 11.9276 16.1002 11.5715 16.1002 11.2002C16.1002 10.8289 16.2477 10.4728 16.5102 10.2102C16.7728 9.9477 17.1289 9.8002 17.5002 9.8002C17.8715 9.8002 18.2276 9.9477 18.4901 10.2102C18.7527 10.4728 18.9002 10.8289 18.9002 11.2002ZM26.6002 20.3002C26.6002 21.9711 25.9364 23.5735 24.755 24.755C23.5735 25.9364 21.9711 26.6002 20.3002 26.6002C18.6293 26.6002 17.0269 25.9364 15.8454 24.755C14.6639 23.5735 14.0002 21.9711 14.0002 20.3002C14.0002 18.6293 14.6639 17.0269 15.8454 15.8454C17.0269 14.6639 18.6293 14.0002 20.3002 14.0002C21.9711 14.0002 23.5735 14.6639 24.755 15.8454C25.9364 17.0269 26.6002 18.6293 26.6002 20.3002ZM21.0002 17.5002C21.0002 17.3145 20.9264 17.1365 20.7952 17.0052C20.6639 16.8739 20.4858 16.8002 20.3002 16.8002C20.1145 16.8002 19.9365 16.8739 19.8052 17.0052C19.6739 17.1365 19.6002 17.3145 19.6002 17.5002V19.6002H17.5002C17.3145 19.6002 17.1365 19.6739 17.0052 19.8052C16.8739 19.9365 16.8002 20.1145 16.8002 20.3002C16.8002 20.4858 16.8739 20.6639 17.0052 20.7952C17.1365 20.9264 17.3145 21.0002 17.5002 21.0002H19.6002V23.1002C19.6002 23.2858 19.6739 23.4639 19.8052 23.5952C19.9365 23.7264 20.1145 23.8002 20.3002 23.8002C20.4858 23.8002 20.6639 23.7264 20.7952 23.5952C20.9264 23.4639 21.0002 23.2858 21.0002 23.1002V21.0002H23.1002C23.2858 21.0002 23.4639 20.9264 23.5952 20.7952C23.7264 20.6639 23.8002 20.4858 23.8002 20.3002C23.8002 20.1145 23.7264 19.9365 23.5952 19.8052C23.4639 19.6739 23.2858 19.6002 23.1002 19.6002H21.0002V17.5002Z" fill="#666666"/>
</svg>
