<svg width="25" height="24" viewBox="0 0 25 24" fill="none" xmlns="http://www.w3.org/2000/svg">
<path d="M19.545 7.40137C19.923 7.02337 20.131 6.52137 20.131 5.98737C20.131 5.45337 19.923 4.95137 19.545 4.57337L17.959 2.98737C17.581 2.60937 17.079 2.40137 16.545 2.40137C16.011 2.40137 15.509 2.60937 15.132 2.98637L4.5 13.5854V18.0004H8.913L19.545 7.40137ZM16.545 4.40137L18.132 5.98637L16.542 7.57037L14.956 5.98537L16.545 4.40137ZM6.5 16.0004V14.4154L13.54 7.39737L15.126 8.98337L8.087 16.0004H6.5ZM4.5 20.0004H20.5V22.0004H4.5V20.0004Z" fill="#00A2B9"/>
</svg>
