<svg width="80" height="80" viewBox="0 0 80 80" fill="none" xmlns="http://www.w3.org/2000/svg">
<rect width="80" height="80" rx="20" fill="#00A2B9" fill-opacity="0.1"/>
<path d="M22.4775 56.0098H20.3154L20.3037 55.1016H22.2666C22.5908 55.1016 22.874 55.0469 23.1162 54.9375C23.3584 54.8281 23.5459 54.6719 23.6787 54.4688C23.8154 54.2617 23.8838 54.0156 23.8838 53.7305C23.8838 53.418 23.8232 53.1641 23.7021 52.9688C23.585 52.7695 23.4033 52.625 23.1572 52.5352C22.915 52.4414 22.6064 52.3945 22.2314 52.3945H20.5674V60H19.4365V51.4688H22.2314C22.6689 51.4688 23.0596 51.5137 23.4033 51.6035C23.7471 51.6895 24.0381 51.8262 24.2764 52.0137C24.5186 52.1973 24.7021 52.4316 24.8271 52.7168C24.9521 53.002 25.0146 53.3438 25.0146 53.7422C25.0146 54.0938 24.9248 54.4121 24.7451 54.6973C24.5654 54.9785 24.3154 55.209 23.9951 55.3887C23.6787 55.5684 23.3076 55.6836 22.8818 55.7344L22.4775 56.0098ZM22.4248 60H19.8701L20.5088 59.0801H22.4248C22.7842 59.0801 23.0889 59.0176 23.3389 58.8926C23.5928 58.7676 23.7861 58.5918 23.9189 58.3652C24.0518 58.1348 24.1182 57.8633 24.1182 57.5508C24.1182 57.2344 24.0615 56.9609 23.9482 56.7305C23.835 56.5 23.6572 56.3223 23.415 56.1973C23.1729 56.0723 22.8604 56.0098 22.4775 56.0098H20.8662L20.8779 55.1016H23.0811L23.3213 55.4297C23.7314 55.4648 24.0791 55.582 24.3643 55.7812C24.6494 55.9766 24.8662 56.2266 25.0146 56.5312C25.167 56.8359 25.2432 57.1719 25.2432 57.5391C25.2432 58.0703 25.126 58.5195 24.8916 58.8867C24.6611 59.25 24.335 59.5273 23.9131 59.7188C23.4912 59.9062 22.9951 60 22.4248 60ZM30.6279 58.5352V53.6602H31.7178V60H30.6807L30.6279 58.5352ZM30.833 57.1992L31.2842 57.1875C31.2842 57.6094 31.2393 58 31.1494 58.3594C31.0635 58.7148 30.9229 59.0234 30.7275 59.2852C30.5322 59.5469 30.2764 59.752 29.96 59.9004C29.6436 60.0449 29.2588 60.1172 28.8057 60.1172C28.4971 60.1172 28.2139 60.0723 27.9561 59.9824C27.7021 59.8926 27.4834 59.7539 27.2998 59.5664C27.1162 59.3789 26.9736 59.1348 26.8721 58.834C26.7744 58.5332 26.7256 58.1719 26.7256 57.75V53.6602H27.8096V57.7617C27.8096 58.0469 27.8408 58.2832 27.9033 58.4707C27.9697 58.6543 28.0576 58.8008 28.167 58.9102C28.2803 59.0156 28.4053 59.0898 28.542 59.1328C28.6826 59.1758 28.8271 59.1973 28.9756 59.1973C29.4365 59.1973 29.8018 59.1094 30.0713 58.9336C30.3408 58.7539 30.5342 58.5137 30.6514 58.2129C30.7725 57.9082 30.833 57.5703 30.833 57.1992ZM34.5479 53.6602V60H33.458V53.6602H34.5479ZM33.376 51.9785C33.376 51.8027 33.4287 51.6543 33.5342 51.5332C33.6436 51.4121 33.8037 51.3516 34.0146 51.3516C34.2217 51.3516 34.3799 51.4121 34.4893 51.5332C34.6025 51.6543 34.6592 51.8027 34.6592 51.9785C34.6592 52.1465 34.6025 52.291 34.4893 52.4121C34.3799 52.5293 34.2217 52.5879 34.0146 52.5879C33.8037 52.5879 33.6436 52.5293 33.5342 52.4121C33.4287 52.291 33.376 52.1465 33.376 51.9785ZM37.4658 51V60H36.376V51H37.4658ZM43.2021 58.7695V51H44.292V60H43.2959L43.2021 58.7695ZM38.9365 56.9004V56.7773C38.9365 56.293 38.9951 55.8535 39.1123 55.459C39.2334 55.0605 39.4033 54.7188 39.6221 54.4336C39.8447 54.1484 40.1084 53.9297 40.4131 53.7773C40.7217 53.6211 41.0654 53.543 41.4443 53.543C41.8428 53.543 42.1904 53.6133 42.4873 53.7539C42.7881 53.8906 43.042 54.0918 43.249 54.3574C43.46 54.6191 43.626 54.9355 43.7471 55.3066C43.8682 55.6777 43.9521 56.0977 43.999 56.5664V57.1055C43.9561 57.5703 43.8721 57.9883 43.7471 58.3594C43.626 58.7305 43.46 59.0469 43.249 59.3086C43.042 59.5703 42.7881 59.7715 42.4873 59.9121C42.1865 60.0488 41.835 60.1172 41.4326 60.1172C41.0615 60.1172 40.7217 60.0371 40.4131 59.877C40.1084 59.7168 39.8447 59.4922 39.6221 59.2031C39.4033 58.9141 39.2334 58.5742 39.1123 58.1836C38.9951 57.7891 38.9365 57.3613 38.9365 56.9004ZM40.0264 56.7773V56.9004C40.0264 57.2168 40.0576 57.5137 40.1201 57.791C40.1865 58.0684 40.2881 58.3125 40.4248 58.5234C40.5615 58.7344 40.7354 58.9004 40.9463 59.0215C41.1572 59.1387 41.4092 59.1973 41.7021 59.1973C42.0615 59.1973 42.3564 59.1211 42.5869 58.9688C42.8213 58.8164 43.0088 58.6152 43.1494 58.3652C43.29 58.1152 43.3994 57.8438 43.4775 57.5508V56.1387C43.4307 55.9238 43.3623 55.7168 43.2725 55.5176C43.1865 55.3145 43.0732 55.1348 42.9326 54.9785C42.7959 54.8184 42.626 54.6914 42.4229 54.5977C42.2236 54.5039 41.9873 54.457 41.7139 54.457C41.417 54.457 41.1611 54.5195 40.9463 54.6445C40.7354 54.7656 40.5615 54.9336 40.4248 55.1484C40.2881 55.3594 40.1865 55.6055 40.1201 55.8867C40.0576 56.1641 40.0264 56.4609 40.0264 56.7773ZM47.1572 53.6602V60H46.0674V53.6602H47.1572ZM45.9854 51.9785C45.9854 51.8027 46.0381 51.6543 46.1436 51.5332C46.2529 51.4121 46.4131 51.3516 46.624 51.3516C46.8311 51.3516 46.9893 51.4121 47.0986 51.5332C47.2119 51.6543 47.2686 51.8027 47.2686 51.9785C47.2686 52.1465 47.2119 52.291 47.0986 52.4121C46.9893 52.5293 46.8311 52.5879 46.624 52.5879C46.4131 52.5879 46.2529 52.5293 46.1436 52.4121C46.0381 52.291 45.9854 52.1465 45.9854 51.9785ZM49.9814 55.0137V60H48.8975V53.6602H49.9229L49.9814 55.0137ZM49.7236 56.5898L49.2725 56.5723C49.2764 56.1387 49.3408 55.7383 49.4658 55.3711C49.5908 55 49.7666 54.6777 49.9932 54.4043C50.2197 54.1309 50.4893 53.9199 50.8018 53.7715C51.1182 53.6191 51.4678 53.543 51.8506 53.543C52.1631 53.543 52.4443 53.5859 52.6943 53.6719C52.9443 53.7539 53.1572 53.8867 53.333 54.0703C53.5127 54.2539 53.6494 54.4922 53.7432 54.7852C53.8369 55.0742 53.8838 55.4277 53.8838 55.8457V60H52.7939V55.834C52.7939 55.502 52.7451 55.2363 52.6475 55.0371C52.5498 54.834 52.4072 54.6875 52.2197 54.5977C52.0322 54.5039 51.8018 54.457 51.5283 54.457C51.2588 54.457 51.0127 54.5137 50.79 54.627C50.5713 54.7402 50.3818 54.8965 50.2217 55.0957C50.0654 55.2949 49.9424 55.5234 49.8525 55.7812C49.7666 56.0352 49.7236 56.3047 49.7236 56.5898ZM59.6377 53.6602H60.6221V59.8652C60.6221 60.4238 60.5088 60.9004 60.2822 61.2949C60.0557 61.6895 59.7393 61.9883 59.333 62.1914C58.9307 62.3984 58.4658 62.502 57.9385 62.502C57.7197 62.502 57.4619 62.4668 57.165 62.3965C56.8721 62.3301 56.583 62.2148 56.2979 62.0508C56.0166 61.8906 55.7803 61.6738 55.5889 61.4004L56.1572 60.7559C56.4229 61.0762 56.7002 61.2988 56.9893 61.4238C57.2822 61.5488 57.5713 61.6113 57.8564 61.6113C58.2002 61.6113 58.4971 61.5469 58.7471 61.418C58.9971 61.2891 59.1904 61.0977 59.3271 60.8438C59.4678 60.5938 59.5381 60.2852 59.5381 59.918V55.0547L59.6377 53.6602ZM55.2725 56.9004V56.7773C55.2725 56.293 55.3291 55.8535 55.4424 55.459C55.5596 55.0605 55.7256 54.7188 55.9404 54.4336C56.1592 54.1484 56.4229 53.9297 56.7314 53.7773C57.04 53.6211 57.3877 53.543 57.7744 53.543C58.1729 53.543 58.5205 53.6133 58.8174 53.7539C59.1182 53.8906 59.3721 54.0918 59.5791 54.3574C59.79 54.6191 59.9561 54.9355 60.0771 55.3066C60.1982 55.6777 60.2822 56.0977 60.3291 56.5664V57.1055C60.2861 57.5703 60.2021 57.9883 60.0771 58.3594C59.9561 58.7305 59.79 59.0469 59.5791 59.3086C59.3721 59.5703 59.1182 59.7715 58.8174 59.9121C58.5166 60.0488 58.165 60.1172 57.7627 60.1172C57.3838 60.1172 57.04 60.0371 56.7314 59.877C56.4268 59.7168 56.165 59.4922 55.9463 59.2031C55.7275 58.9141 55.5596 58.5742 55.4424 58.1836C55.3291 57.7891 55.2725 57.3613 55.2725 56.9004ZM56.3564 56.7773V56.9004C56.3564 57.2168 56.3877 57.5137 56.4502 57.791C56.5166 58.0684 56.6162 58.3125 56.749 58.5234C56.8857 58.7344 57.0596 58.9004 57.2705 59.0215C57.4814 59.1387 57.7334 59.1973 58.0264 59.1973C58.3857 59.1973 58.6826 59.1211 58.917 58.9688C59.1514 58.8164 59.3369 58.6152 59.4736 58.3652C59.6143 58.1152 59.7236 57.8438 59.8018 57.5508V56.1387C59.7588 55.9238 59.6924 55.7168 59.6025 55.5176C59.5166 55.3145 59.4033 55.1348 59.2627 54.9785C59.126 54.8184 58.9561 54.6914 58.7529 54.5977C58.5498 54.5039 58.3115 54.457 58.0381 54.457C57.7412 54.457 57.4854 54.5195 57.2705 54.6445C57.0596 54.7656 56.8857 54.9336 56.749 55.1484C56.6162 55.3594 56.5166 55.6055 56.4502 55.8867C56.3877 56.1641 56.3564 56.4609 56.3564 56.7773ZM32.7373 73.0801V74H28.2197V73.0801H32.7373ZM28.4482 65.4688V74H27.3174V65.4688H28.4482ZM32.1396 69.1367V70.0566H28.2197V69.1367H32.1396ZM32.6787 65.4688V66.3945H28.2197V65.4688H32.6787ZM35.0576 69.0137V74H33.9736V67.6602H34.999L35.0576 69.0137ZM34.7998 70.5898L34.3486 70.5723C34.3525 70.1387 34.417 69.7383 34.542 69.3711C34.667 69 34.8428 68.6777 35.0693 68.4043C35.2959 68.1309 35.5654 67.9199 35.8779 67.7715C36.1943 67.6191 36.5439 67.543 36.9268 67.543C37.2393 67.543 37.5205 67.5859 37.7705 67.6719C38.0205 67.7539 38.2334 67.8867 38.4092 68.0703C38.5889 68.2539 38.7256 68.4922 38.8193 68.7852C38.9131 69.0742 38.96 69.4277 38.96 69.8457V74H37.8701V69.834C37.8701 69.502 37.8213 69.2363 37.7236 69.0371C37.626 68.834 37.4834 68.6875 37.2959 68.5977C37.1084 68.5039 36.8779 68.457 36.6045 68.457C36.335 68.457 36.0889 68.5137 35.8662 68.627C35.6475 68.7402 35.458 68.8965 35.2979 69.0957C35.1416 69.2949 35.0186 69.5234 34.9287 69.7812C34.8428 70.0352 34.7998 70.3047 34.7998 70.5898ZM43.2607 67.6602V68.4922H39.833V67.6602H43.2607ZM40.9932 66.1191H42.0771V72.4297C42.0771 72.6445 42.1104 72.8066 42.1768 72.916C42.2432 73.0254 42.3291 73.0977 42.4346 73.1328C42.54 73.168 42.6533 73.1855 42.7744 73.1855C42.8643 73.1855 42.958 73.1777 43.0557 73.1621C43.1572 73.1426 43.2334 73.127 43.2842 73.1152L43.29 74C43.2041 74.0273 43.0908 74.0527 42.9502 74.0762C42.8135 74.1035 42.6475 74.1172 42.4521 74.1172C42.1865 74.1172 41.9424 74.0645 41.7197 73.959C41.4971 73.8535 41.3193 73.6777 41.1865 73.4316C41.0576 73.1816 40.9932 72.8457 40.9932 72.4238V66.1191ZM45.6162 68.6562V74H44.5322V67.6602H45.5869L45.6162 68.6562ZM47.5967 67.625L47.5908 68.6328C47.501 68.6133 47.415 68.6016 47.333 68.5977C47.2549 68.5898 47.165 68.5859 47.0635 68.5859C46.8135 68.5859 46.5928 68.625 46.4014 68.7031C46.21 68.7812 46.0479 68.8906 45.915 69.0312C45.7822 69.1719 45.6768 69.3398 45.5986 69.5352C45.5244 69.7266 45.4756 69.9375 45.4521 70.168L45.1475 70.3438C45.1475 69.9609 45.1846 69.6016 45.2588 69.2656C45.3369 68.9297 45.4561 68.6328 45.6162 68.375C45.7764 68.1133 45.9795 67.9102 46.2256 67.7656C46.4756 67.6172 46.7725 67.543 47.1162 67.543C47.1943 67.543 47.2842 67.5527 47.3857 67.5723C47.4873 67.5879 47.5576 67.6055 47.5967 67.625ZM50.4854 73.3438L52.249 67.6602H53.4092L50.8662 74.9785C50.8076 75.1348 50.7295 75.3027 50.6318 75.4824C50.5381 75.666 50.417 75.8398 50.2686 76.0039C50.1201 76.168 49.9404 76.3008 49.7295 76.4023C49.5225 76.5078 49.2744 76.5605 48.9854 76.5605C48.8994 76.5605 48.79 76.5488 48.6572 76.5254C48.5244 76.502 48.4307 76.4824 48.376 76.4668L48.3701 75.5879C48.4014 75.5918 48.4502 75.5957 48.5166 75.5996C48.5869 75.6074 48.6357 75.6113 48.6631 75.6113C48.9092 75.6113 49.1182 75.5781 49.29 75.5117C49.4619 75.4492 49.6064 75.3418 49.7236 75.1895C49.8447 75.041 49.9482 74.8359 50.0342 74.5742L50.4854 73.3438ZM49.1904 67.6602L50.8369 72.582L51.1182 73.7246L50.3389 74.123L48.0068 67.6602H49.1904Z" fill="#666666"/>
<path d="M26.6001 35.0556L36.8668 31.993V44.6806H26.6001V35.0556Z" fill="#00A2B9"/>
<path d="M37.8001 25.4305L51.8001 18.8679V44.2431H37.8L37.8001 25.4305Z" fill="#00A2B9"/>
<path d="M52.9733 18.119L52.9735 18.1191C53.0374 18.1562 53.0864 18.2057 53.1188 18.2602C53.1511 18.3144 53.1667 18.373 53.1667 18.4306V44.6805C53.1667 44.7692 53.1295 44.8613 53.0514 44.9345C52.9723 45.0087 52.8584 45.0555 52.7334 45.0555H47.1334C47.0084 45.0555 46.8946 45.0087 46.8154 44.9345C46.7374 44.8613 46.7001 44.7692 46.7001 44.6805V42.0555V41.5555H46.2001H44.3334H43.8334V42.0555V44.6805C43.8334 44.7692 43.7961 44.8613 43.7181 44.9345C43.6389 45.0087 43.525 45.0555 43.4001 45.0555H26.6001C26.4751 45.0555 26.3612 45.0087 26.2821 44.9345C26.204 44.8613 26.1667 44.7692 26.1667 44.6805V35.0557C26.1668 34.9851 26.1904 34.9128 26.2394 34.8491C26.2889 34.7848 26.3628 34.7318 26.4542 34.7032L26.4543 34.7032L37.0159 31.4027L37.3667 31.293V30.9254V25.4304C37.3667 25.4304 37.3667 25.4304 37.3667 25.4304C37.3668 25.3677 37.3852 25.3039 37.4235 25.2457C37.462 25.1872 37.5201 25.1357 37.5945 25.1007C37.5945 25.1007 37.5945 25.1007 37.5945 25.1007L52.5275 18.1008L52.5277 18.1007C52.5963 18.0685 52.6743 18.0526 52.754 18.056C52.8336 18.0594 52.9092 18.0818 52.9733 18.119ZM37.3667 32.7699V32.0899L36.7177 32.2927L27.3843 35.2082L27.0334 35.3178V35.6855V43.8055V44.3055H27.5334H36.8667H37.3667V43.8055V32.7699ZM38.2334 43.8055V44.3055H38.7334H42.4667H42.9667V43.8055V41.1805C42.9667 41.0918 43.004 40.9997 43.0821 40.9266C43.1612 40.8523 43.2751 40.8055 43.4001 40.8055H47.1334C47.2584 40.8055 47.3723 40.8523 47.4514 40.9266C47.5295 40.9997 47.5667 41.0918 47.5667 41.1805V43.8055V44.3055H48.0667H51.8001H52.3001V43.8055V19.8461V19.0595L51.5879 19.3934L38.5212 25.5184L38.2334 25.6533V25.9711V43.8055Z" fill="#F3AF00" stroke="#F3AF00"/>
<path d="M29.4001 36.8055H31.2668V38.5555H29.4001V36.8055ZM33.1335 36.8055H35.0001V38.5555H33.1335V36.8055ZM29.4001 40.3055H31.2668V42.0556H29.4001V40.3055ZM33.1335 40.3055H35.0001V42.0556H33.1335V40.3055ZM40.6001 33.3055H42.4668V35.0555H40.6001V33.3055ZM44.3335 33.3055H46.2001V35.0555H44.3335V33.3055ZM40.6001 36.8055H42.4668V38.5555H40.6001V36.8055ZM44.3335 36.8055H46.2001V38.5555H44.3335V36.8055ZM48.0668 33.3055H49.9335V35.0555H48.0668V33.3055ZM48.0668 36.8055H49.9335V38.5555H48.0668V36.8055ZM40.6001 29.8055H42.4668V31.5555H40.6001V29.8055ZM44.3335 29.8055H46.2001V31.5555H44.3335V29.8055ZM48.0668 29.8055H49.9335V31.5555H48.0668V29.8055ZM40.6001 26.3054H42.4668V28.0555H40.6001V26.3054ZM44.3335 26.3054H46.2001V28.0555H44.3335V26.3054ZM48.0668 26.3054H49.9335V28.0555H48.0668V26.3054ZM48.0668 22.8054H49.9335V24.5554H48.0668V22.8054Z" fill="white"/>
</svg>
