<svg width="80" height="80" viewBox="0 0 80 80" fill="none" xmlns="http://www.w3.org/2000/svg">
<rect width="80" height="80" rx="20" fill="#00A2B9" fill-opacity="0.1"/>
<path d="M17.7051 58.4648V59.0039C17.7051 59.6445 17.625 60.2188 17.4648 60.7266C17.3047 61.2344 17.0742 61.666 16.7734 62.0215C16.4727 62.377 16.1113 62.6484 15.6895 62.8359C15.2715 63.0234 14.8027 63.1172 14.2832 63.1172C13.7793 63.1172 13.3164 63.0234 12.8945 62.8359C12.4766 62.6484 12.1133 62.377 11.8047 62.0215C11.5 61.666 11.2637 61.2344 11.0957 60.7266C10.9277 60.2188 10.8438 59.6445 10.8438 59.0039V58.4648C10.8438 57.8242 10.9258 57.252 11.0898 56.748C11.2578 56.2402 11.4941 55.8086 11.7988 55.4531C12.1035 55.0938 12.4648 54.8203 12.8828 54.6328C13.3047 54.4453 13.7676 54.3516 14.2715 54.3516C14.791 54.3516 15.2598 54.4453 15.6777 54.6328C16.0996 54.8203 16.4609 55.0938 16.7617 55.4531C17.0664 55.8086 17.2988 56.2402 17.459 56.748C17.623 57.252 17.7051 57.8242 17.7051 58.4648ZM16.5859 59.0039V58.4531C16.5859 57.9453 16.5332 57.4961 16.4277 57.1055C16.3262 56.7148 16.1758 56.3867 15.9766 56.1211C15.7773 55.8555 15.5332 55.6543 15.2441 55.5176C14.959 55.3809 14.6348 55.3125 14.2715 55.3125C13.9199 55.3125 13.6016 55.3809 13.3164 55.5176C13.0352 55.6543 12.793 55.8555 12.5898 56.1211C12.3906 56.3867 12.2363 56.7148 12.127 57.1055C12.0176 57.4961 11.9629 57.9453 11.9629 58.4531V59.0039C11.9629 59.5156 12.0176 59.9688 12.127 60.3633C12.2363 60.7539 12.3926 61.084 12.5957 61.3535C12.8027 61.6191 13.0469 61.8203 13.3281 61.957C13.6133 62.0938 13.9316 62.1621 14.2832 62.1621C14.6504 62.1621 14.9766 62.0938 15.2617 61.957C15.5469 61.8203 15.7871 61.6191 15.9824 61.3535C16.1816 61.084 16.332 60.7539 16.4336 60.3633C16.5352 59.9688 16.5859 59.5156 16.5859 59.0039ZM21.8887 56.6602V57.4922H18.4609V56.6602H21.8887ZM19.6211 55.1191H20.7051V61.4297C20.7051 61.6445 20.7383 61.8066 20.8047 61.916C20.8711 62.0254 20.957 62.0977 21.0625 62.1328C21.168 62.168 21.2812 62.1855 21.4023 62.1855C21.4922 62.1855 21.5859 62.1777 21.6836 62.1621C21.7852 62.1426 21.8613 62.127 21.9121 62.1152L21.918 63C21.832 63.0273 21.7188 63.0527 21.5781 63.0762C21.4414 63.1035 21.2754 63.1172 21.0801 63.1172C20.8145 63.1172 20.5703 63.0645 20.3477 62.959C20.125 62.8535 19.9473 62.6777 19.8145 62.4316C19.6855 62.1816 19.6211 61.8457 19.6211 61.4238V55.1191ZM24.2441 54V63H23.1602V54H24.2441ZM23.9863 59.5898L23.5352 59.5723C23.5391 59.1387 23.6035 58.7383 23.7285 58.3711C23.8535 58 24.0293 57.6777 24.2559 57.4043C24.4824 57.1309 24.752 56.9199 25.0645 56.7715C25.3809 56.6191 25.7305 56.543 26.1133 56.543C26.4258 56.543 26.707 56.5859 26.957 56.6719C27.207 56.7539 27.4199 56.8867 27.5957 57.0703C27.7754 57.2539 27.9121 57.4922 28.0059 57.7852C28.0996 58.0742 28.1465 58.4277 28.1465 58.8457V63H27.0566V58.834C27.0566 58.502 27.0078 58.2363 26.9102 58.0371C26.8125 57.834 26.6699 57.6875 26.4824 57.5977C26.2949 57.5039 26.0645 57.457 25.791 57.457C25.5215 57.457 25.2754 57.5137 25.0527 57.627C24.834 57.7402 24.6445 57.8965 24.4844 58.0957C24.3281 58.2949 24.2051 58.5234 24.1152 58.7812C24.0293 59.0352 23.9863 59.3047 23.9863 59.5898ZM32.4004 63.1172C31.959 63.1172 31.5586 63.043 31.1992 62.8945C30.8438 62.7422 30.5371 62.5293 30.2793 62.2559C30.0254 61.9824 29.8301 61.6582 29.6934 61.2832C29.5566 60.9082 29.4883 60.498 29.4883 60.0527V59.8066C29.4883 59.291 29.5645 58.832 29.7168 58.4297C29.8691 58.0234 30.0762 57.6797 30.3379 57.3984C30.5996 57.1172 30.8965 56.9043 31.2285 56.7598C31.5605 56.6152 31.9043 56.543 32.2598 56.543C32.7129 56.543 33.1035 56.6211 33.4316 56.7773C33.7637 56.9336 34.0352 57.1523 34.2461 57.4336C34.457 57.7109 34.6133 58.0391 34.7148 58.418C34.8164 58.793 34.8672 59.2031 34.8672 59.6484V60.1348H30.1328V59.25H33.7832V59.168C33.7676 58.8867 33.709 58.6133 33.6074 58.3477C33.5098 58.082 33.3535 57.8633 33.1387 57.6914C32.9238 57.5195 32.6309 57.4336 32.2598 57.4336C32.0137 57.4336 31.7871 57.4863 31.5801 57.5918C31.373 57.6934 31.1953 57.8457 31.0469 58.0488C30.8984 58.252 30.7832 58.5 30.7012 58.793C30.6191 59.0859 30.5781 59.4238 30.5781 59.8066V60.0527C30.5781 60.3535 30.6191 60.6367 30.7012 60.9023C30.7871 61.1641 30.9102 61.3945 31.0703 61.5938C31.2344 61.793 31.4316 61.9492 31.6621 62.0625C31.8965 62.1758 32.1621 62.2324 32.459 62.2324C32.8418 62.2324 33.166 62.1543 33.4316 61.998C33.6973 61.8418 33.9297 61.6328 34.1289 61.3711L34.7852 61.8926C34.6484 62.0996 34.4746 62.2969 34.2637 62.4844C34.0527 62.6719 33.793 62.8242 33.4844 62.9414C33.1797 63.0586 32.8184 63.1172 32.4004 63.1172ZM37.2168 57.6562V63H36.1328V56.6602H37.1875L37.2168 57.6562ZM39.1973 56.625L39.1914 57.6328C39.1016 57.6133 39.0156 57.6016 38.9336 57.5977C38.8555 57.5898 38.7656 57.5859 38.6641 57.5859C38.4141 57.5859 38.1934 57.625 38.002 57.7031C37.8105 57.7812 37.6484 57.8906 37.5156 58.0312C37.3828 58.1719 37.2773 58.3398 37.1992 58.5352C37.125 58.7266 37.0762 58.9375 37.0527 59.168L36.748 59.3438C36.748 58.9609 36.7852 58.6016 36.8594 58.2656C36.9375 57.9297 37.0566 57.6328 37.2168 57.375C37.377 57.1133 37.5801 56.9102 37.8262 56.7656C38.0762 56.6172 38.373 56.543 38.7168 56.543C38.7949 56.543 38.8848 56.5527 38.9863 56.5723C39.0879 56.5879 39.1582 56.6055 39.1973 56.625ZM46.498 55.2246L43.6738 63H42.5195L45.7715 54.4688H46.5156L46.498 55.2246ZM48.8652 63L46.0352 55.2246L46.0176 54.4688H46.7617L50.0254 63H48.8652ZM48.7188 59.8418V60.7676H43.9258V59.8418H48.7188ZM52.0879 57.8789V65.4375H50.998V56.6602H51.9941L52.0879 57.8789ZM56.3594 59.7773V59.9004C56.3594 60.3613 56.3047 60.7891 56.1953 61.1836C56.0859 61.5742 55.9258 61.9141 55.7148 62.2031C55.5078 62.4922 55.252 62.7168 54.9473 62.877C54.6426 63.0371 54.293 63.1172 53.8984 63.1172C53.4961 63.1172 53.1406 63.0508 52.832 62.918C52.5234 62.7852 52.2617 62.5918 52.0469 62.3379C51.832 62.084 51.6602 61.7793 51.5312 61.4238C51.4062 61.0684 51.3203 60.668 51.2734 60.2227V59.5664C51.3203 59.0977 51.4082 58.6777 51.5371 58.3066C51.666 57.9355 51.8359 57.6191 52.0469 57.3574C52.2617 57.0918 52.5215 56.8906 52.8262 56.7539C53.1309 56.6133 53.4824 56.543 53.8809 56.543C54.2793 56.543 54.6328 56.6211 54.9414 56.7773C55.25 56.9297 55.5098 57.1484 55.7207 57.4336C55.9316 57.7188 56.0898 58.0605 56.1953 58.459C56.3047 58.8535 56.3594 59.293 56.3594 59.7773ZM55.2695 59.9004V59.7773C55.2695 59.4609 55.2363 59.1641 55.1699 58.8867C55.1035 58.6055 55 58.3594 54.8594 58.1484C54.7227 57.9336 54.5469 57.7656 54.332 57.6445C54.1172 57.5195 53.8613 57.457 53.5645 57.457C53.291 57.457 53.0527 57.5039 52.8496 57.5977C52.6504 57.6914 52.4805 57.8184 52.3398 57.9785C52.1992 58.1348 52.084 58.3145 51.9941 58.5176C51.9082 58.7168 51.8438 58.9238 51.8008 59.1387V60.6562C51.8789 60.9297 51.9883 61.1875 52.1289 61.4297C52.2695 61.668 52.457 61.8613 52.6914 62.0098C52.9258 62.1543 53.2207 62.2266 53.5762 62.2266C53.8691 62.2266 54.1211 62.166 54.332 62.0449C54.5469 61.9199 54.7227 61.75 54.8594 61.5352C55 61.3203 55.1035 61.0742 55.1699 60.7969C55.2363 60.5156 55.2695 60.2168 55.2695 59.9004ZM58.8262 57.8789V65.4375H57.7363V56.6602H58.7324L58.8262 57.8789ZM63.0977 59.7773V59.9004C63.0977 60.3613 63.043 60.7891 62.9336 61.1836C62.8242 61.5742 62.6641 61.9141 62.4531 62.2031C62.2461 62.4922 61.9902 62.7168 61.6855 62.877C61.3809 63.0371 61.0312 63.1172 60.6367 63.1172C60.2344 63.1172 59.8789 63.0508 59.5703 62.918C59.2617 62.7852 59 62.5918 58.7852 62.3379C58.5703 62.084 58.3984 61.7793 58.2695 61.4238C58.1445 61.0684 58.0586 60.668 58.0117 60.2227V59.5664C58.0586 59.0977 58.1465 58.6777 58.2754 58.3066C58.4043 57.9355 58.5742 57.6191 58.7852 57.3574C59 57.0918 59.2598 56.8906 59.5645 56.7539C59.8691 56.6133 60.2207 56.543 60.6191 56.543C61.0176 56.543 61.3711 56.6211 61.6797 56.7773C61.9883 56.9297 62.248 57.1484 62.459 57.4336C62.6699 57.7188 62.8281 58.0605 62.9336 58.459C63.043 58.8535 63.0977 59.293 63.0977 59.7773ZM62.0078 59.9004V59.7773C62.0078 59.4609 61.9746 59.1641 61.9082 58.8867C61.8418 58.6055 61.7383 58.3594 61.5977 58.1484C61.4609 57.9336 61.2852 57.7656 61.0703 57.6445C60.8555 57.5195 60.5996 57.457 60.3027 57.457C60.0293 57.457 59.791 57.5039 59.5879 57.5977C59.3887 57.6914 59.2188 57.8184 59.0781 57.9785C58.9375 58.1348 58.8223 58.3145 58.7324 58.5176C58.6465 58.7168 58.582 58.9238 58.5391 59.1387V60.6562C58.6172 60.9297 58.7266 61.1875 58.8672 61.4297C59.0078 61.668 59.1953 61.8613 59.4297 62.0098C59.6641 62.1543 59.959 62.2266 60.3145 62.2266C60.6074 62.2266 60.8594 62.166 61.0703 62.0449C61.2852 61.9199 61.4609 61.75 61.5977 61.5352C61.7383 61.3203 61.8418 61.0742 61.9082 60.7969C61.9746 60.5156 62.0078 60.2168 62.0078 59.9004ZM68.1719 61.3184C68.1719 61.1621 68.1367 61.0176 68.0664 60.8848C68 60.748 67.8613 60.625 67.6504 60.5156C67.4434 60.4023 67.1309 60.3047 66.7129 60.2227C66.3613 60.1484 66.043 60.0605 65.7578 59.959C65.4766 59.8574 65.2363 59.7344 65.0371 59.5898C64.8418 59.4453 64.6914 59.2754 64.5859 59.0801C64.4805 58.8848 64.4277 58.6562 64.4277 58.3945C64.4277 58.1445 64.4824 57.9082 64.5918 57.6855C64.7051 57.4629 64.8633 57.2656 65.0664 57.0938C65.2734 56.9219 65.5215 56.7871 65.8105 56.6895C66.0996 56.5918 66.4219 56.543 66.7773 56.543C67.2852 56.543 67.7188 56.6328 68.0781 56.8125C68.4375 56.9922 68.7129 57.2324 68.9043 57.5332C69.0957 57.8301 69.1914 58.1602 69.1914 58.5234H68.1074C68.1074 58.3477 68.0547 58.1777 67.9492 58.0137C67.8477 57.8457 67.6973 57.707 67.498 57.5977C67.3027 57.4883 67.0625 57.4336 66.7773 57.4336C66.4766 57.4336 66.2324 57.4805 66.0449 57.5742C65.8613 57.6641 65.7266 57.7793 65.6406 57.9199C65.5586 58.0605 65.5176 58.209 65.5176 58.3652C65.5176 58.4824 65.5371 58.5879 65.5762 58.6816C65.6191 58.7715 65.6934 58.8555 65.7988 58.9336C65.9043 59.0078 66.0527 59.0781 66.2441 59.1445C66.4355 59.2109 66.6797 59.2773 66.9766 59.3438C67.4961 59.4609 67.9238 59.6016 68.2598 59.7656C68.5957 59.9297 68.8457 60.1309 69.0098 60.3691C69.1738 60.6074 69.2559 60.8965 69.2559 61.2363C69.2559 61.5137 69.1973 61.7676 69.0801 61.998C68.9668 62.2285 68.8008 62.4277 68.582 62.5957C68.3672 62.7598 68.1094 62.8887 67.8086 62.9824C67.5117 63.0723 67.1777 63.1172 66.8066 63.1172C66.248 63.1172 65.7754 63.0176 65.3887 62.8184C65.002 62.6191 64.709 62.3613 64.5098 62.0449C64.3105 61.7285 64.2109 61.3945 64.2109 61.043H65.3008C65.3164 61.3398 65.4023 61.5762 65.5586 61.752C65.7148 61.9238 65.9062 62.0469 66.1328 62.1211C66.3594 62.1914 66.584 62.2266 66.8066 62.2266C67.1035 62.2266 67.3516 62.1875 67.5508 62.1094C67.7539 62.0312 67.9082 61.9238 68.0137 61.7871C68.1191 61.6504 68.1719 61.4941 68.1719 61.3184Z" fill="#666666"/>
<path d="M39.6001 28.4H35.6001V32.4H39.6001V28.4Z" fill="white"/>
<path d="M44.8999 28.4H40.8999V32.4H44.8999V28.4Z" fill="white"/>
<path d="M39.6001 33.6H35.6001V37.6H39.6001V33.6Z" fill="white"/>
<rect x="41" y="34" width="4" height="4" fill="#F2AF1D"/>
<path d="M40 23C40.5523 23 41 22.5523 41 22C41 21.4477 40.5523 21 40 21C39.4477 21 39 21.4477 39 22C39 22.5523 39.4477 23 40 23Z" fill="#F2AF1D"/>
<path d="M46 21H34C32.9 21 32 21.9 32 23V43C32 44.1 32.9 45 34 45H46C47.1 45 48 44.1 48 43V23C48 21.9 47.1 21 46 21ZM39.6 37.6H35.6V33.6H39.6V37.6ZM39.6 32.4H35.6V28.4H39.6V32.4ZM40 22.7C39.7 22.7 39.5 22.5 39.5 22.2C39.5 21.9 39.7 21.7 40 21.7C40.3 21.7 40.5 21.9 40.5 22.2C40.5 22.5 40.3 22.7 40 22.7ZM44 36.1H43.4V36.6C43.4 36.9 43.2 37.1 42.9 37.1C42.6 37.1 42.4 36.9 42.4 36.6V36.1H41.9C41.6 36.1 41.4 35.9 41.4 35.6C41.4 35.3 41.6 35.1 41.9 35.1H42.5V34.5C42.5 34.2 42.7 34 43 34C43.3 34 43.5 34.2 43.5 34.5V35.1H44C44.3 35.1 44.5 35.3 44.5 35.6C44.5 35.8 44.2 36.1 44 36.1ZM44.9 32.4H40.9V28.4H44.9V32.4Z" fill="#00A2B9"/>
</svg>
