<svg width="80" height="80" viewBox="0 0 80 80" fill="none" xmlns="http://www.w3.org/2000/svg">
<rect width="80" height="80" rx="20" fill="#00A2B9"/>
<path d="M31.9999 18.6666H47.9999C48.7072 18.6666 49.3854 18.9476 49.8855 19.4477C50.3856 19.9478 50.6666 20.626 50.6666 21.3333V45.3333H29.3333V21.3333C29.3333 20.626 29.6142 19.9478 30.1143 19.4477C30.6144 18.9476 31.2927 18.6666 31.9999 18.6666ZM31.9999 42.6666H37.3333V37.3333H42.6666V42.6666H47.9999V21.3333H31.9999V42.6666Z" fill="white"/>
<path d="M45.3333 24H41.3333V28H45.3333V24Z" fill="white"/>
<path d="M38.6667 30.6667H34.6667V34.6667H38.6667V30.6667Z" fill="white"/>
<path d="M45.3334 30.6667H41.3334V34.6667H45.3334V30.6667Z" fill="white"/>
<path d="M38.6667 24H34.6667V28H38.6667V24Z" fill="white"/>
<path d="M17.4531 54.4688H20.2773C20.918 54.4688 21.459 54.5664 21.9004 54.7617C22.3457 54.957 22.6836 55.2461 22.9141 55.6289C23.1484 56.0078 23.2656 56.4746 23.2656 57.0293C23.2656 57.4199 23.1855 57.7773 23.0254 58.1016C22.8691 58.4219 22.6426 58.6953 22.3457 58.9219C22.0527 59.1445 21.7012 59.3105 21.291 59.4199L20.9746 59.543H18.3203L18.3086 58.623H20.3125C20.7188 58.623 21.0566 58.5527 21.3262 58.4121C21.5957 58.2676 21.7988 58.0742 21.9355 57.832C22.0723 57.5898 22.1406 57.3223 22.1406 57.0293C22.1406 56.7012 22.0762 56.4141 21.9473 56.168C21.8184 55.9219 21.6152 55.7324 21.3379 55.5996C21.0645 55.4629 20.7109 55.3945 20.2773 55.3945H18.584V63H17.4531V54.4688ZM22.4395 63L20.3652 59.1328L21.543 59.127L23.6465 62.9297V63H22.4395ZM28.5625 61.5352V56.6602H29.6523V63H28.6152L28.5625 61.5352ZM28.7676 60.1992L29.2188 60.1875C29.2188 60.6094 29.1738 61 29.084 61.3594C28.998 61.7148 28.8574 62.0234 28.6621 62.2852C28.4668 62.5469 28.2109 62.752 27.8945 62.9004C27.5781 63.0449 27.1934 63.1172 26.7402 63.1172C26.4316 63.1172 26.1484 63.0723 25.8906 62.9824C25.6367 62.8926 25.418 62.7539 25.2344 62.5664C25.0508 62.3789 24.9082 62.1348 24.8066 61.834C24.709 61.5332 24.6602 61.1719 24.6602 60.75V56.6602H25.7441V60.7617C25.7441 61.0469 25.7754 61.2832 25.8379 61.4707C25.9043 61.6543 25.9922 61.8008 26.1016 61.9102C26.2148 62.0156 26.3398 62.0898 26.4766 62.1328C26.6172 62.1758 26.7617 62.1973 26.9102 62.1973C27.3711 62.1973 27.7363 62.1094 28.0059 61.9336C28.2754 61.7539 28.4688 61.5137 28.5859 61.2129C28.707 60.9082 28.7676 60.5703 28.7676 60.1992ZM35.043 61.916V58.6523C35.043 58.4023 34.9922 58.1855 34.8906 58.002C34.793 57.8145 34.6445 57.6699 34.4453 57.5684C34.2461 57.4668 34 57.416 33.707 57.416C33.4336 57.416 33.1934 57.4629 32.9863 57.5566C32.7832 57.6504 32.623 57.7734 32.5059 57.9258C32.3926 58.0781 32.3359 58.2422 32.3359 58.418H31.252C31.252 58.1914 31.3105 57.9668 31.4277 57.7441C31.5449 57.5215 31.7129 57.3203 31.9316 57.1406C32.1543 56.957 32.4199 56.8125 32.7285 56.707C33.041 56.5977 33.3887 56.543 33.7715 56.543C34.2324 56.543 34.6387 56.6211 34.9902 56.7773C35.3457 56.9336 35.623 57.1699 35.8223 57.4863C36.0254 57.7988 36.127 58.1914 36.127 58.6641V61.6172C36.127 61.8281 36.1445 62.0527 36.1797 62.291C36.2188 62.5293 36.2754 62.7344 36.3496 62.9062V63H35.2188C35.1641 62.875 35.1211 62.709 35.0898 62.502C35.0586 62.291 35.043 62.0957 35.043 61.916ZM35.2305 59.1562L35.2422 59.918H34.1465C33.8379 59.918 33.5625 59.9434 33.3203 59.9941C33.0781 60.041 32.875 60.1133 32.7109 60.2109C32.5469 60.3086 32.4219 60.4316 32.3359 60.5801C32.25 60.7246 32.207 60.8945 32.207 61.0898C32.207 61.2891 32.252 61.4707 32.3418 61.6348C32.4316 61.7988 32.5664 61.9297 32.7461 62.0273C32.9297 62.1211 33.1543 62.168 33.4199 62.168C33.752 62.168 34.0449 62.0977 34.2988 61.957C34.5527 61.8164 34.7539 61.6445 34.9023 61.4414C35.0547 61.2383 35.1367 61.041 35.1484 60.8496L35.6113 61.3711C35.584 61.5352 35.5098 61.7168 35.3887 61.916C35.2676 62.1152 35.1055 62.3066 34.9023 62.4902C34.7031 62.6699 34.4648 62.8203 34.1875 62.9414C33.9141 63.0586 33.6055 63.1172 33.2617 63.1172C32.832 63.1172 32.4551 63.0332 32.1309 62.8652C31.8105 62.6973 31.5605 62.4727 31.3809 62.1914C31.2051 61.9062 31.1172 61.5879 31.1172 61.2363C31.1172 60.8965 31.1836 60.5977 31.3164 60.3398C31.4492 60.0781 31.6406 59.8613 31.8906 59.6895C32.1406 59.5137 32.4414 59.3809 32.793 59.291C33.1445 59.2012 33.5371 59.1562 33.9707 59.1562H35.2305ZM38.916 58.0137V63H37.832V56.6602H38.8574L38.916 58.0137ZM38.6582 59.5898L38.207 59.5723C38.2109 59.1387 38.2754 58.7383 38.4004 58.3711C38.5254 58 38.7012 57.6777 38.9277 57.4043C39.1543 57.1309 39.4238 56.9199 39.7363 56.7715C40.0527 56.6191 40.4023 56.543 40.7852 56.543C41.0977 56.543 41.3789 56.5859 41.6289 56.6719C41.8789 56.7539 42.0918 56.8867 42.2676 57.0703C42.4473 57.2539 42.584 57.4922 42.6777 57.7852C42.7715 58.0742 42.8184 58.4277 42.8184 58.8457V63H41.7285V58.834C41.7285 58.502 41.6797 58.2363 41.582 58.0371C41.4844 57.834 41.3418 57.6875 41.1543 57.5977C40.9668 57.5039 40.7363 57.457 40.4629 57.457C40.1934 57.457 39.9473 57.5137 39.7246 57.627C39.5059 57.7402 39.3164 57.8965 39.1562 58.0957C39 58.2949 38.877 58.5234 38.7871 58.7812C38.7012 59.0352 38.6582 59.3047 38.6582 59.5898ZM48.5723 56.6602H49.5566V62.8652C49.5566 63.4238 49.4434 63.9004 49.2168 64.2949C48.9902 64.6895 48.6738 64.9883 48.2676 65.1914C47.8652 65.3984 47.4004 65.502 46.873 65.502C46.6543 65.502 46.3965 65.4668 46.0996 65.3965C45.8066 65.3301 45.5176 65.2148 45.2324 65.0508C44.9512 64.8906 44.7148 64.6738 44.5234 64.4004L45.0918 63.7559C45.3574 64.0762 45.6348 64.2988 45.9238 64.4238C46.2168 64.5488 46.5059 64.6113 46.791 64.6113C47.1348 64.6113 47.4316 64.5469 47.6816 64.418C47.9316 64.2891 48.125 64.0977 48.2617 63.8438C48.4023 63.5938 48.4727 63.2852 48.4727 62.918V58.0547L48.5723 56.6602ZM44.207 59.9004V59.7773C44.207 59.293 44.2637 58.8535 44.377 58.459C44.4941 58.0605 44.6602 57.7188 44.875 57.4336C45.0938 57.1484 45.3574 56.9297 45.666 56.7773C45.9746 56.6211 46.3223 56.543 46.709 56.543C47.1074 56.543 47.4551 56.6133 47.752 56.7539C48.0527 56.8906 48.3066 57.0918 48.5137 57.3574C48.7246 57.6191 48.8906 57.9355 49.0117 58.3066C49.1328 58.6777 49.2168 59.0977 49.2637 59.5664V60.1055C49.2207 60.5703 49.1367 60.9883 49.0117 61.3594C48.8906 61.7305 48.7246 62.0469 48.5137 62.3086C48.3066 62.5703 48.0527 62.7715 47.752 62.9121C47.4512 63.0488 47.0996 63.1172 46.6973 63.1172C46.3184 63.1172 45.9746 63.0371 45.666 62.877C45.3613 62.7168 45.0996 62.4922 44.8809 62.2031C44.6621 61.9141 44.4941 61.5742 44.377 61.1836C44.2637 60.7891 44.207 60.3613 44.207 59.9004ZM45.291 59.7773V59.9004C45.291 60.2168 45.3223 60.5137 45.3848 60.791C45.4512 61.0684 45.5508 61.3125 45.6836 61.5234C45.8203 61.7344 45.9941 61.9004 46.2051 62.0215C46.416 62.1387 46.668 62.1973 46.9609 62.1973C47.3203 62.1973 47.6172 62.1211 47.8516 61.9688C48.0859 61.8164 48.2715 61.6152 48.4082 61.3652C48.5488 61.1152 48.6582 60.8438 48.7363 60.5508V59.1387C48.6934 58.9238 48.627 58.7168 48.5371 58.5176C48.4512 58.3145 48.3379 58.1348 48.1973 57.9785C48.0605 57.8184 47.8906 57.6914 47.6875 57.5977C47.4844 57.5039 47.2461 57.457 46.9727 57.457C46.6758 57.457 46.4199 57.5195 46.2051 57.6445C45.9941 57.7656 45.8203 57.9336 45.6836 58.1484C45.5508 58.3594 45.4512 58.6055 45.3848 58.8867C45.3223 59.1641 45.291 59.4609 45.291 59.7773ZM54.9414 61.916V58.6523C54.9414 58.4023 54.8906 58.1855 54.7891 58.002C54.6914 57.8145 54.543 57.6699 54.3438 57.5684C54.1445 57.4668 53.8984 57.416 53.6055 57.416C53.332 57.416 53.0918 57.4629 52.8848 57.5566C52.6816 57.6504 52.5215 57.7734 52.4043 57.9258C52.291 58.0781 52.2344 58.2422 52.2344 58.418H51.1504C51.1504 58.1914 51.209 57.9668 51.3262 57.7441C51.4434 57.5215 51.6113 57.3203 51.8301 57.1406C52.0527 56.957 52.3184 56.8125 52.627 56.707C52.9395 56.5977 53.2871 56.543 53.6699 56.543C54.1309 56.543 54.5371 56.6211 54.8887 56.7773C55.2441 56.9336 55.5215 57.1699 55.7207 57.4863C55.9238 57.7988 56.0254 58.1914 56.0254 58.6641V61.6172C56.0254 61.8281 56.043 62.0527 56.0781 62.291C56.1172 62.5293 56.1738 62.7344 56.248 62.9062V63H55.1172C55.0625 62.875 55.0195 62.709 54.9883 62.502C54.957 62.291 54.9414 62.0957 54.9414 61.916ZM55.1289 59.1562L55.1406 59.918H54.0449C53.7363 59.918 53.4609 59.9434 53.2188 59.9941C52.9766 60.041 52.7734 60.1133 52.6094 60.2109C52.4453 60.3086 52.3203 60.4316 52.2344 60.5801C52.1484 60.7246 52.1055 60.8945 52.1055 61.0898C52.1055 61.2891 52.1504 61.4707 52.2402 61.6348C52.3301 61.7988 52.4648 61.9297 52.6445 62.0273C52.8281 62.1211 53.0527 62.168 53.3184 62.168C53.6504 62.168 53.9434 62.0977 54.1973 61.957C54.4512 61.8164 54.6523 61.6445 54.8008 61.4414C54.9531 61.2383 55.0352 61.041 55.0469 60.8496L55.5098 61.3711C55.4824 61.5352 55.4082 61.7168 55.2871 61.916C55.166 62.1152 55.0039 62.3066 54.8008 62.4902C54.6016 62.6699 54.3633 62.8203 54.0859 62.9414C53.8125 63.0586 53.5039 63.1172 53.1602 63.1172C52.7305 63.1172 52.3535 63.0332 52.0293 62.8652C51.709 62.6973 51.459 62.4727 51.2793 62.1914C51.1035 61.9062 51.0156 61.5879 51.0156 61.2363C51.0156 60.8965 51.082 60.5977 51.2148 60.3398C51.3477 60.0781 51.5391 59.8613 51.7891 59.6895C52.0391 59.5137 52.3398 59.3809 52.6914 59.291C53.043 59.2012 53.4355 59.1562 53.8691 59.1562H55.1289ZM58.8145 58.0137V63H57.7305V56.6602H58.7559L58.8145 58.0137ZM58.5566 59.5898L58.1055 59.5723C58.1094 59.1387 58.1738 58.7383 58.2988 58.3711C58.4238 58 58.5996 57.6777 58.8262 57.4043C59.0527 57.1309 59.3223 56.9199 59.6348 56.7715C59.9512 56.6191 60.3008 56.543 60.6836 56.543C60.9961 56.543 61.2773 56.5859 61.5273 56.6719C61.7773 56.7539 61.9902 56.8867 62.166 57.0703C62.3457 57.2539 62.4824 57.4922 62.5762 57.7852C62.6699 58.0742 62.7168 58.4277 62.7168 58.8457V63H61.627V58.834C61.627 58.502 61.5781 58.2363 61.4805 58.0371C61.3828 57.834 61.2402 57.6875 61.0527 57.5977C60.8652 57.5039 60.6348 57.457 60.3613 57.457C60.0918 57.457 59.8457 57.5137 59.623 57.627C59.4043 57.7402 59.2148 57.8965 59.0547 58.0957C58.8984 58.2949 58.7754 58.5234 58.6855 58.7812C58.5996 59.0352 58.5566 59.3047 58.5566 59.5898Z" fill="white"/>
</svg>
