<svg width="80" height="80" viewBox="0 0 80 80" fill="none" xmlns="http://www.w3.org/2000/svg">
<rect width="80" height="80" rx="20" fill="#00A2B9"/>
<path d="M49.3333 21.333H30.6667C29.1939 21.333 28 22.5269 28 23.9997V42.6663C28 44.1391 29.1939 45.333 30.6667 45.333H49.3333C50.8061 45.333 52 44.1391 52 42.6663V23.9997C52 22.5269 50.8061 21.333 49.3333 21.333Z" stroke="#00A2B9" stroke-width="2" stroke-linecap="round" stroke-linejoin="round"/>
<path d="M45.3333 18.6665V23.9998" stroke="#F3AF00" stroke-width="2" stroke-linecap="round" stroke-linejoin="round"/>
<path d="M34.6667 18.6665V23.9998" stroke="#F3AF00" stroke-width="2" stroke-linecap="round" stroke-linejoin="round"/>
<path d="M28 29.333H52" stroke="#00A2B9" stroke-width="2" stroke-linecap="round" stroke-linejoin="round"/>
<path d="M18.5312 54.4688V63H17.4004V54.4688H18.5312ZM23.6816 54.4688L20.1367 58.4473L18.1445 60.5156L17.957 59.3086L19.457 57.6562L22.3223 54.4688H23.6816ZM22.5918 63L19.4336 58.8398L20.1074 57.9434L23.9395 63H22.5918ZM28.5098 61.916V58.6523C28.5098 58.4023 28.459 58.1855 28.3574 58.002C28.2598 57.8145 28.1113 57.6699 27.9121 57.5684C27.7129 57.4668 27.4668 57.416 27.1738 57.416C26.9004 57.416 26.6602 57.4629 26.4531 57.5566C26.25 57.6504 26.0898 57.7734 25.9727 57.9258C25.8594 58.0781 25.8027 58.2422 25.8027 58.418H24.7188C24.7188 58.1914 24.7773 57.9668 24.8945 57.7441C25.0117 57.5215 25.1797 57.3203 25.3984 57.1406C25.6211 56.957 25.8867 56.8125 26.1953 56.707C26.5078 56.5977 26.8555 56.543 27.2383 56.543C27.6992 56.543 28.1055 56.6211 28.457 56.7773C28.8125 56.9336 29.0898 57.1699 29.2891 57.4863C29.4922 57.7988 29.5938 58.1914 29.5938 58.6641V61.6172C29.5938 61.8281 29.6113 62.0527 29.6465 62.291C29.6855 62.5293 29.7422 62.7344 29.8164 62.9062V63H28.6855C28.6309 62.875 28.5879 62.709 28.5566 62.502C28.5254 62.291 28.5098 62.0957 28.5098 61.916ZM28.6973 59.1562L28.709 59.918H27.6133C27.3047 59.918 27.0293 59.9434 26.7871 59.9941C26.5449 60.041 26.3418 60.1133 26.1777 60.2109C26.0137 60.3086 25.8887 60.4316 25.8027 60.5801C25.7168 60.7246 25.6738 60.8945 25.6738 61.0898C25.6738 61.2891 25.7188 61.4707 25.8086 61.6348C25.8984 61.7988 26.0332 61.9297 26.2129 62.0273C26.3965 62.1211 26.6211 62.168 26.8867 62.168C27.2188 62.168 27.5117 62.0977 27.7656 61.957C28.0195 61.8164 28.2207 61.6445 28.3691 61.4414C28.5215 61.2383 28.6035 61.041 28.6152 60.8496L29.0781 61.3711C29.0508 61.5352 28.9766 61.7168 28.8555 61.916C28.7344 62.1152 28.5723 62.3066 28.3691 62.4902C28.1699 62.6699 27.9316 62.8203 27.6543 62.9414C27.3809 63.0586 27.0723 63.1172 26.7285 63.1172C26.2988 63.1172 25.9219 63.0332 25.5977 62.8652C25.2773 62.6973 25.0273 62.4727 24.8477 62.1914C24.6719 61.9062 24.584 61.5879 24.584 61.2363C24.584 60.8965 24.6504 60.5977 24.7832 60.3398C24.916 60.0781 25.1074 59.8613 25.3574 59.6895C25.6074 59.5137 25.9082 59.3809 26.2598 59.291C26.6113 59.2012 27.0039 59.1562 27.4375 59.1562H28.6973ZM32.4766 54V63H31.3867V54H32.4766ZM36.8477 63.1172C36.4062 63.1172 36.0059 63.043 35.6465 62.8945C35.291 62.7422 34.9844 62.5293 34.7266 62.2559C34.4727 61.9824 34.2773 61.6582 34.1406 61.2832C34.0039 60.9082 33.9355 60.498 33.9355 60.0527V59.8066C33.9355 59.291 34.0117 58.832 34.1641 58.4297C34.3164 58.0234 34.5234 57.6797 34.7852 57.3984C35.0469 57.1172 35.3438 56.9043 35.6758 56.7598C36.0078 56.6152 36.3516 56.543 36.707 56.543C37.1602 56.543 37.5508 56.6211 37.8789 56.7773C38.2109 56.9336 38.4824 57.1523 38.6934 57.4336C38.9043 57.7109 39.0605 58.0391 39.1621 58.418C39.2637 58.793 39.3145 59.2031 39.3145 59.6484V60.1348H34.5801V59.25H38.2305V59.168C38.2148 58.8867 38.1562 58.6133 38.0547 58.3477C37.957 58.082 37.8008 57.8633 37.5859 57.6914C37.3711 57.5195 37.0781 57.4336 36.707 57.4336C36.4609 57.4336 36.2344 57.4863 36.0273 57.5918C35.8203 57.6934 35.6426 57.8457 35.4941 58.0488C35.3457 58.252 35.2305 58.5 35.1484 58.793C35.0664 59.0859 35.0254 59.4238 35.0254 59.8066V60.0527C35.0254 60.3535 35.0664 60.6367 35.1484 60.9023C35.2344 61.1641 35.3574 61.3945 35.5176 61.5938C35.6816 61.793 35.8789 61.9492 36.1094 62.0625C36.3438 62.1758 36.6094 62.2324 36.9062 62.2324C37.2891 62.2324 37.6133 62.1543 37.8789 61.998C38.1445 61.8418 38.377 61.6328 38.5762 61.3711L39.2324 61.8926C39.0957 62.0996 38.9219 62.2969 38.7109 62.4844C38.5 62.6719 38.2402 62.8242 37.9316 62.9414C37.627 63.0586 37.2656 63.1172 36.8477 63.1172ZM41.6641 58.0137V63H40.5801V56.6602H41.6055L41.6641 58.0137ZM41.4062 59.5898L40.9551 59.5723C40.959 59.1387 41.0234 58.7383 41.1484 58.3711C41.2734 58 41.4492 57.6777 41.6758 57.4043C41.9023 57.1309 42.1719 56.9199 42.4844 56.7715C42.8008 56.6191 43.1504 56.543 43.5332 56.543C43.8457 56.543 44.127 56.5859 44.377 56.6719C44.627 56.7539 44.8398 56.8867 45.0156 57.0703C45.1953 57.2539 45.332 57.4922 45.4258 57.7852C45.5195 58.0742 45.5664 58.4277 45.5664 58.8457V63H44.4766V58.834C44.4766 58.502 44.4277 58.2363 44.3301 58.0371C44.2324 57.834 44.0898 57.6875 43.9023 57.5977C43.7148 57.5039 43.4844 57.457 43.2109 57.457C42.9414 57.457 42.6953 57.5137 42.4727 57.627C42.2539 57.7402 42.0645 57.8965 41.9043 58.0957C41.748 58.2949 41.625 58.5234 41.5352 58.7812C41.4492 59.0352 41.4062 59.3047 41.4062 59.5898ZM51.209 61.7695V54H52.2988V63H51.3027L51.209 61.7695ZM46.9434 59.9004V59.7773C46.9434 59.293 47.002 58.8535 47.1191 58.459C47.2402 58.0605 47.4102 57.7188 47.6289 57.4336C47.8516 57.1484 48.1152 56.9297 48.4199 56.7773C48.7285 56.6211 49.0723 56.543 49.4512 56.543C49.8496 56.543 50.1973 56.6133 50.4941 56.7539C50.7949 56.8906 51.0488 57.0918 51.2559 57.3574C51.4668 57.6191 51.6328 57.9355 51.7539 58.3066C51.875 58.6777 51.959 59.0977 52.0059 59.5664V60.1055C51.9629 60.5703 51.8789 60.9883 51.7539 61.3594C51.6328 61.7305 51.4668 62.0469 51.2559 62.3086C51.0488 62.5703 50.7949 62.7715 50.4941 62.9121C50.1934 63.0488 49.8418 63.1172 49.4395 63.1172C49.0684 63.1172 48.7285 63.0371 48.4199 62.877C48.1152 62.7168 47.8516 62.4922 47.6289 62.2031C47.4102 61.9141 47.2402 61.5742 47.1191 61.1836C47.002 60.7891 46.9434 60.3613 46.9434 59.9004ZM48.0332 59.7773V59.9004C48.0332 60.2168 48.0645 60.5137 48.127 60.791C48.1934 61.0684 48.2949 61.3125 48.4316 61.5234C48.5684 61.7344 48.7422 61.9004 48.9531 62.0215C49.1641 62.1387 49.416 62.1973 49.709 62.1973C50.0684 62.1973 50.3633 62.1211 50.5938 61.9688C50.8281 61.8164 51.0156 61.6152 51.1562 61.3652C51.2969 61.1152 51.4062 60.8438 51.4844 60.5508V59.1387C51.4375 58.9238 51.3691 58.7168 51.2793 58.5176C51.1934 58.3145 51.0801 58.1348 50.9395 57.9785C50.8027 57.8184 50.6328 57.6914 50.4297 57.5977C50.2305 57.5039 49.9941 57.457 49.7207 57.457C49.4238 57.457 49.168 57.5195 48.9531 57.6445C48.7422 57.7656 48.5684 57.9336 48.4316 58.1484C48.2949 58.3594 48.1934 58.6055 48.127 58.8867C48.0645 59.1641 48.0332 59.4609 48.0332 59.7773ZM56.6172 63.1172C56.1758 63.1172 55.7754 63.043 55.416 62.8945C55.0605 62.7422 54.7539 62.5293 54.4961 62.2559C54.2422 61.9824 54.0469 61.6582 53.9102 61.2832C53.7734 60.9082 53.7051 60.498 53.7051 60.0527V59.8066C53.7051 59.291 53.7812 58.832 53.9336 58.4297C54.0859 58.0234 54.293 57.6797 54.5547 57.3984C54.8164 57.1172 55.1133 56.9043 55.4453 56.7598C55.7773 56.6152 56.1211 56.543 56.4766 56.543C56.9297 56.543 57.3203 56.6211 57.6484 56.7773C57.9805 56.9336 58.252 57.1523 58.4629 57.4336C58.6738 57.7109 58.8301 58.0391 58.9316 58.418C59.0332 58.793 59.084 59.2031 59.084 59.6484V60.1348H54.3496V59.25H58V59.168C57.9844 58.8867 57.9258 58.6133 57.8242 58.3477C57.7266 58.082 57.5703 57.8633 57.3555 57.6914C57.1406 57.5195 56.8477 57.4336 56.4766 57.4336C56.2305 57.4336 56.0039 57.4863 55.7969 57.5918C55.5898 57.6934 55.4121 57.8457 55.2637 58.0488C55.1152 58.252 55 58.5 54.918 58.793C54.8359 59.0859 54.7949 59.4238 54.7949 59.8066V60.0527C54.7949 60.3535 54.8359 60.6367 54.918 60.9023C55.0039 61.1641 55.127 61.3945 55.2871 61.5938C55.4512 61.793 55.6484 61.9492 55.8789 62.0625C56.1133 62.1758 56.3789 62.2324 56.6758 62.2324C57.0586 62.2324 57.3828 62.1543 57.6484 61.998C57.9141 61.8418 58.1465 61.6328 58.3457 61.3711L59.002 61.8926C58.8652 62.0996 58.6914 62.2969 58.4805 62.4844C58.2695 62.6719 58.0098 62.8242 57.7012 62.9414C57.3965 63.0586 57.0352 63.1172 56.6172 63.1172ZM61.4336 57.6562V63H60.3496V56.6602H61.4043L61.4336 57.6562ZM63.4141 56.625L63.4082 57.6328C63.3184 57.6133 63.2324 57.6016 63.1504 57.5977C63.0723 57.5898 62.9824 57.5859 62.8809 57.5859C62.6309 57.5859 62.4102 57.625 62.2188 57.7031C62.0273 57.7812 61.8652 57.8906 61.7324 58.0312C61.5996 58.1719 61.4941 58.3398 61.416 58.5352C61.3418 58.7266 61.293 58.9375 61.2695 59.168L60.9648 59.3438C60.9648 58.9609 61.002 58.6016 61.0762 58.2656C61.1543 57.9297 61.2734 57.6328 61.4336 57.375C61.5938 57.1133 61.7969 56.9102 62.043 56.7656C62.293 56.6172 62.5898 56.543 62.9336 56.543C63.0117 56.543 63.1016 56.5527 63.2031 56.5723C63.3047 56.5879 63.375 56.6055 63.4141 56.625Z" fill="white"/>
<rect width="22.4" height="8" transform="matrix(1 0 0 -1 28.8 29.5996)" fill="white"/>
<path d="M49.3333 21.333H30.6667C29.1939 21.333 28 22.5269 28 23.9997V42.6663C28 44.1391 29.1939 45.333 30.6667 45.333H49.3333C50.8061 45.333 52 44.1391 52 42.6663V23.9997C52 22.5269 50.8061 21.333 49.3333 21.333Z" stroke="white" stroke-width="2" stroke-linecap="round" stroke-linejoin="round"/>
<path d="M45.3333 18.6665V23.9998" stroke="white" stroke-width="2" stroke-linecap="round" stroke-linejoin="round"/>
<path d="M34.6667 18.6665V23.9998" stroke="white" stroke-width="2" stroke-linecap="round" stroke-linejoin="round"/>
<path d="M28 29.333H52" stroke="white" stroke-width="2" stroke-linecap="round" stroke-linejoin="round"/>
</svg>
