<svg width="69" height="100" viewBox="0 0 69 100" fill="none" xmlns="http://www.w3.org/2000/svg">
<rect width="68.75" height="100" rx="8" fill="white"/>
<rect width="68.75" height="100" rx="8" fill="#E6F6F8" fill-opacity="0.5"/>
<g filter="url(#filter0_i_625_5794)">
<path d="M29.7452 14.0769H20.5144C18.8151 14.0769 17.4375 15.4545 17.4375 17.1538V26.3846C17.4375 28.0839 18.8151 29.4615 20.5144 29.4615H29.7452C31.4445 29.4615 32.8221 28.0839 32.8221 26.3846V17.1538C32.8221 15.4545 31.4445 14.0769 29.7452 14.0769Z" fill="#00A2B9"/>
<path d="M29.7452 32.5384H20.5144C18.8151 32.5384 17.4375 33.916 17.4375 35.6154V44.8461C17.4375 46.5455 18.8151 47.9231 20.5144 47.9231H29.7452C31.4445 47.9231 32.8221 46.5455 32.8221 44.8461V35.6154C32.8221 33.916 31.4445 32.5384 29.7452 32.5384Z" fill="#00A2B9"/>
<path d="M48.3606 32.5384H39.1298C37.4305 32.5384 36.0529 33.916 36.0529 35.6154V44.8461C36.0529 46.5455 37.4305 47.9231 39.1298 47.9231H48.3606C50.0599 47.9231 51.4375 46.5455 51.4375 44.8461V35.6154C51.4375 33.916 50.0599 32.5384 48.3606 32.5384Z" fill="#00A2B9"/>
</g>
<path d="M38.9762 14.1365H48.2067C49.873 14.1365 51.2242 15.4877 51.2242 17.1541V26.3845C51.2242 28.0509 49.873 29.4021 48.2067 29.4021H38.9762C37.3098 29.4021 35.9586 28.0509 35.9586 26.3845V17.1541C35.9586 15.4877 37.3098 14.1365 38.9762 14.1365Z" fill="#FFB81F" stroke="url(#paint0_linear_625_5794)" stroke-width="0.119398"/>
<path d="M19.5925 68.144C19.1445 68.144 18.7365 68.092 18.3685 67.988C18.0085 67.884 17.6925 67.744 17.4205 67.568C17.1565 67.384 16.9365 67.18 16.7605 66.956C16.5845 66.732 16.4605 66.496 16.3885 66.248L17.5285 65.876C17.6485 66.204 17.8765 66.488 18.2125 66.728C18.5485 66.968 18.9605 67.092 19.4485 67.1C20.0405 67.1 20.5045 66.984 20.8405 66.752C21.1845 66.512 21.3565 66.196 21.3565 65.804C21.3565 65.444 21.2085 65.152 20.9125 64.928C20.6165 64.696 20.2245 64.52 19.7365 64.4L18.7645 64.148C18.3805 64.044 18.0285 63.896 17.7085 63.704C17.3965 63.512 17.1485 63.268 16.9645 62.972C16.7805 62.676 16.6885 62.32 16.6885 61.904C16.6885 61.136 16.9365 60.536 17.4325 60.104C17.9365 59.672 18.6605 59.456 19.6045 59.456C20.1485 59.456 20.6205 59.544 21.0205 59.72C21.4205 59.888 21.7485 60.112 22.0045 60.392C22.2685 60.672 22.4565 60.98 22.5685 61.316L21.4285 61.7C21.2925 61.34 21.0605 61.052 20.7325 60.836C20.4045 60.612 20.0005 60.5 19.5205 60.5C19.0165 60.5 18.6165 60.62 18.3205 60.86C18.0325 61.1 17.8885 61.428 17.8885 61.844C17.8885 62.196 18.0005 62.468 18.2245 62.66C18.4565 62.844 18.7645 62.984 19.1485 63.08L20.1205 63.32C20.9045 63.512 21.5085 63.832 21.9325 64.28C22.3645 64.72 22.5805 65.204 22.5805 65.732C22.5805 66.188 22.4645 66.6 22.2325 66.968C22.0085 67.328 21.6725 67.616 21.2245 67.832C20.7845 68.04 20.2405 68.144 19.5925 68.144ZM26.6042 68.144C26.0202 68.144 25.5042 68.012 25.0562 67.748C24.6082 67.476 24.2562 67.104 24.0002 66.632C23.7442 66.16 23.6162 65.616 23.6162 65C23.6162 64.384 23.7442 63.84 24.0002 63.368C24.2562 62.896 24.6082 62.528 25.0562 62.264C25.5122 61.992 26.0322 61.856 26.6162 61.856C27.1682 61.856 27.6522 61.996 28.0682 62.276C28.4842 62.548 28.8082 62.94 29.0402 63.452C29.2802 63.956 29.4002 64.552 29.4002 65.24H24.5522L24.7682 65.06C24.7682 65.484 24.8522 65.852 25.0202 66.164C25.1882 66.476 25.4162 66.716 25.7042 66.884C25.9922 67.044 26.3202 67.124 26.6882 67.124C27.0882 67.124 27.4202 67.032 27.6842 66.848C27.9562 66.656 28.1682 66.416 28.3202 66.128L29.3042 66.584C29.1442 66.896 28.9362 67.172 28.6802 67.412C28.4242 67.644 28.1202 67.824 27.7682 67.952C27.4242 68.08 27.0362 68.144 26.6042 68.144ZM24.8402 64.52L24.6122 64.34H28.4042L28.1882 64.52C28.1882 64.168 28.1162 63.868 27.9722 63.62C27.8282 63.364 27.6362 63.172 27.3962 63.044C27.1562 62.908 26.8882 62.84 26.5922 62.84C26.3042 62.84 26.0242 62.908 25.7522 63.044C25.4882 63.172 25.2682 63.36 25.0922 63.608C24.9242 63.856 24.8402 64.16 24.8402 64.52ZM30.5264 68V62H31.5944L31.6424 62.828C31.8344 62.508 32.0744 62.268 32.3624 62.108C32.6504 61.94 32.9824 61.856 33.3584 61.856C33.8384 61.856 34.2464 61.968 34.5824 62.192C34.9184 62.408 35.1624 62.74 35.3144 63.188C35.4904 62.756 35.7384 62.428 36.0584 62.204C36.3784 61.972 36.7584 61.856 37.1984 61.856C37.8784 61.856 38.4104 62.08 38.7944 62.528C39.1784 62.968 39.3664 63.648 39.3584 64.568V68H38.2304V64.928C38.2304 64.384 38.1704 63.972 38.0504 63.692C37.9384 63.404 37.7864 63.204 37.5944 63.092C37.4024 62.98 37.1784 62.92 36.9224 62.912C36.4744 62.912 36.1264 63.084 35.8784 63.428C35.6384 63.772 35.5184 64.256 35.5184 64.88V68H34.3784V64.928C34.3784 64.384 34.3224 63.972 34.2104 63.692C34.0984 63.404 33.9424 63.204 33.7424 63.092C33.5504 62.98 33.3264 62.92 33.0704 62.912C32.6224 62.912 32.2744 63.084 32.0264 63.428C31.7864 63.772 31.6664 64.256 31.6664 64.88V68H30.5264ZM44.8954 68L44.8234 66.896V62H45.9514V68H44.8954ZM40.6714 65.072V62H41.8114V65.072H40.6714ZM41.8114 65.072C41.8114 65.608 41.8714 66.02 41.9914 66.308C42.1194 66.596 42.2954 66.796 42.5194 66.908C42.7434 67.02 42.9954 67.08 43.2754 67.088C43.7634 67.088 44.1434 66.916 44.4154 66.572C44.6874 66.228 44.8234 65.744 44.8234 65.12H45.3154C45.3154 65.752 45.2194 66.296 45.0274 66.752C44.8434 67.2 44.5794 67.544 44.2354 67.784C43.8914 68.024 43.4714 68.144 42.9754 68.144C42.5114 68.144 42.1034 68.048 41.7514 67.856C41.4074 67.664 41.1394 67.364 40.9474 66.956C40.7634 66.548 40.6714 66.02 40.6714 65.372V65.072H41.8114ZM51.226 68L51.178 66.956V64.868C51.178 64.428 51.126 64.06 51.022 63.764C50.926 63.468 50.774 63.244 50.566 63.092C50.366 62.94 50.098 62.864 49.762 62.864C49.45 62.864 49.178 62.928 48.946 63.056C48.722 63.184 48.534 63.384 48.382 63.656L47.374 63.272C47.518 63 47.698 62.76 47.914 62.552C48.13 62.336 48.39 62.168 48.694 62.048C48.998 61.92 49.354 61.856 49.762 61.856C50.33 61.856 50.802 61.968 51.178 62.192C51.554 62.416 51.834 62.74 52.018 63.164C52.21 63.588 52.302 64.112 52.294 64.736L52.282 68H51.226ZM49.462 68.144C48.75 68.144 48.194 67.984 47.794 67.664C47.402 67.336 47.206 66.884 47.206 66.308C47.206 65.692 47.41 65.224 47.818 64.904C48.234 64.576 48.81 64.412 49.546 64.412H51.214V65.312H49.858C49.306 65.312 48.918 65.4 48.694 65.576C48.47 65.744 48.358 65.98 48.358 66.284C48.358 66.564 48.462 66.784 48.67 66.944C48.886 67.096 49.182 67.172 49.558 67.172C49.886 67.172 50.17 67.104 50.41 66.968C50.65 66.824 50.838 66.624 50.974 66.368C51.11 66.112 51.178 65.82 51.178 65.492H51.574C51.574 66.308 51.398 66.956 51.046 67.436C50.702 67.908 50.174 68.144 49.462 68.144Z" fill="#1A1B1E"/>
<defs>
<filter id="filter0_i_625_5794" x="16.0426" y="14.0769" width="35.3949" height="35.2411" filterUnits="userSpaceOnUse" color-interpolation-filters="sRGB">
<feFlood flood-opacity="0" result="BackgroundImageFix"/>
<feBlend mode="normal" in="SourceGraphic" in2="BackgroundImageFix" result="shape"/>
<feColorMatrix in="SourceAlpha" type="matrix" values="0 0 0 0 0 0 0 0 0 0 0 0 0 0 0 0 0 0 127 0" result="hardAlpha"/>
<feOffset dx="-1.39487" dy="1.39487"/>
<feGaussianBlur stdDeviation="1.39487"/>
<feComposite in2="hardAlpha" operator="arithmetic" k2="-1" k3="1"/>
<feColorMatrix type="matrix" values="0 0 0 0 0.901961 0 0 0 0 0.964706 0 0 0 0 0.972549 0 0 0 0.16 0"/>
<feBlend mode="normal" in2="shape" result="effect1_innerShadow_625_5794"/>
</filter>
<linearGradient id="paint0_linear_625_5794" x1="43.5914" y1="14.0769" x2="43.5914" y2="29.4615" gradientUnits="userSpaceOnUse">
<stop stop-color="white"/>
<stop offset="1" stop-color="white" stop-opacity="0.12"/>
</linearGradient>
</defs>
</svg>
