<svg width="120" height="120" viewBox="0 0 120 120" fill="none" xmlns="http://www.w3.org/2000/svg">
<circle cx="60" cy="60" r="60" fill="#EFEFEF"/>
<path d="M43.1697 29.4643C43.7576 28.7039 44.6787 28.2143 45.7142 28.2143H75.0106C76.0461 28.2143 76.9672 28.7039 77.555 29.4643H43.1697Z" fill="#EFEFEF" stroke="#BDBDBD" stroke-width="3.125"/>
<path d="M25.7142 71.4285C25.7142 66.6947 29.5518 62.8571 34.2857 62.8571H42.8571C44.435 62.8571 45.7142 64.1363 45.7142 65.7143V68.5714C45.7142 70.1494 46.9934 71.4285 48.5714 71.4285H71.4285C73.0065 71.4285 74.2857 70.1494 74.2857 68.5714V65.7143C74.2857 64.1363 75.5648 62.8571 77.1428 62.8571H85.7142C90.4481 62.8571 94.2857 66.6947 94.2857 71.4285V80C94.2857 84.7338 90.4481 88.5714 85.7142 88.5714H34.2856C29.5518 88.5714 25.7142 84.7338 25.7142 80V71.4285Z" fill="#EFEFEF"/>
<path d="M37.5 42.8572C37.5 41.082 38.9391 39.6429 40.7143 39.6429H79.2857C81.0609 39.6429 82.5 41.082 82.5 42.8572V64.1429V70.5715V86.0715H37.5V70.5715V64.1429V42.8572Z" fill="#BDBDBD" stroke="#BDBDBD" stroke-width="5"/>
<path d="M48.5715 49.2859H71.4287" stroke="#EFEFEF" stroke-width="5" stroke-linecap="round" stroke-linejoin="round"/>
<path d="M54.2856 60.7141H65.7142" stroke="#EFEFEF" stroke-width="5" stroke-linecap="round" stroke-linejoin="round"/>
<path d="M25.7142 70.7143C25.7142 67.9529 27.9528 65.7143 30.7142 65.7143H37.5105C40.6664 65.7143 43.2248 68.2727 43.2248 71.4286V72.1429C43.2248 74.9043 45.4634 77.1429 48.2248 77.1429H71.7748C74.5362 77.1429 76.7748 74.9043 76.7748 72.1429V71.4286C76.7748 68.2727 79.3332 65.7143 82.4891 65.7143H89.2857C92.0471 65.7143 94.2857 67.9529 94.2857 70.7143V84.2857C94.2857 89.8086 89.8085 94.2857 84.2857 94.2857H35.7142C30.1914 94.2857 25.7142 89.8086 25.7142 84.2857V70.7143Z" fill="#BDBDBD" stroke="#EFEFEF" stroke-width="5" stroke-linejoin="round"/>
<circle cx="60" cy="75" r="16" fill="#BDBDBD" stroke="#EFEFEF" stroke-width="4"/>
<path d="M64.6666 70.3334L55.3333 79.6667" stroke="#EFEFEF" stroke-width="4" stroke-linecap="round" stroke-linejoin="round"/>
<path d="M55.3333 70.3334L64.6666 79.6667" stroke="#EFEFEF" stroke-width="4" stroke-linecap="round" stroke-linejoin="round"/>
</svg>
