<svg width="76" height="100" viewBox="0 0 76 100" fill="none" xmlns="http://www.w3.org/2000/svg">
<path d="M8 0.5H68C72.1421 0.5 75.5 3.85786 75.5 8V92C75.5 96.1421 72.1421 99.5 68 99.5H8C3.85786 99.5 0.5 96.1421 0.5 92V8C0.5 3.85786 3.85786 0.5 8 0.5Z" fill="white"/>
<path d="M8 0.5H68C72.1421 0.5 75.5 3.85786 75.5 8V92C75.5 96.1421 72.1421 99.5 68 99.5H8C3.85786 99.5 0.5 96.1421 0.5 92V8C0.5 3.85786 3.85786 0.5 8 0.5Z" stroke="#DFE1E4"/>
<g clip-path="url(#clip0_906_6165)">
<g filter="url(#filter0_ii_906_6165)">
<path d="M38.667 14C41.1705 14.0002 43.2001 16.0297 43.2002 18.5332V25.4668C43.2002 25.6472 43.1885 25.8251 43.168 26H35.6582C33.1546 26.0001 31.1251 28.0296 31.125 30.5332V31.4336L29.2002 34L26.2002 30H25.7334C23.2298 29.9999 21.2003 27.9704 21.2002 25.4668V18.5332C21.2003 16.0296 23.2298 14.0001 25.7334 14H38.667Z" fill="#00A2B9"/>
</g>
<foreignObject x="-223.667" y="-198.102" width="502.733" height="502.733"><div xmlns="http://www.w3.org/1999/xhtml" style="backdrop-filter:blur(12.51px);clip-path:url(#bgblur_1_906_6165_clip_path);height:100%;width:100%"></div></foreignObject><g filter="url(#filter1_d_906_6165)" data-figma-bg-blur-radius="25.0116">
<circle cx="27.6991" cy="23.2506" r="1.25058" fill="#E6F6F8"/>
<circle cx="27.6991" cy="23.2506" r="1.18805" stroke="url(#paint0_linear_906_6165)" stroke-width="0.125058"/>
</g>
<foreignObject x="-219.166" y="-198.102" width="502.733" height="502.733"><div xmlns="http://www.w3.org/1999/xhtml" style="backdrop-filter:blur(12.51px);clip-path:url(#bgblur_2_906_6165_clip_path);height:100%;width:100%"></div></foreignObject><g filter="url(#filter2_d_906_6165)" data-figma-bg-blur-radius="25.0116">
<circle cx="32.2003" cy="23.2506" r="1.25058" fill="#E6F6F8"/>
<circle cx="32.2003" cy="23.2506" r="1.18805" stroke="url(#paint1_linear_906_6165)" stroke-width="0.125058"/>
</g>
<foreignObject x="-214.665" y="-198.102" width="502.733" height="502.733"><div xmlns="http://www.w3.org/1999/xhtml" style="backdrop-filter:blur(12.51px);clip-path:url(#bgblur_3_906_6165_clip_path);height:100%;width:100%"></div></foreignObject><g filter="url(#filter3_d_906_6165)" data-figma-bg-blur-radius="25.0116">
<circle cx="36.7015" cy="23.2506" r="1.25058" fill="#E6F6F8"/>
<circle cx="36.7015" cy="23.2506" r="1.18805" stroke="url(#paint2_linear_906_6165)" stroke-width="0.125058"/>
</g>
<g filter="url(#filter4_ii_906_6165)">
<path d="M46.8 48L43.8 44H37.3333C34.8297 43.9999 32.8001 41.9704 32.8 39.4668V32.5332C32.8001 30.0296 34.8297 28.0001 37.3333 28H50.2668C52.7704 28.0001 54.8 30.0296 54.8 32.5332V39.4668C54.8 41.9704 52.7704 43.9999 50.2668 44H49.8L46.8 48Z" fill="#00A2B9"/>
</g>
<path d="M37.3333 28.2002H50.2668C52.66 28.2003 54.5998 30.1401 54.5999 32.5332V39.4668L54.594 39.6895C54.478 41.9791 52.5853 43.7997 50.2668 43.7998H49.7004L49.6399 43.8799L46.8 47.666L43.9602 43.8799L43.8997 43.7998H37.3333C34.9401 43.7997 33.0003 41.8599 33.0002 39.4668V32.5332C33.0003 30.1401 34.9401 28.2003 37.3333 28.2002Z" stroke="url(#paint3_linear_906_6165)" stroke-opacity="0.2" stroke-width="0.4"/>
<foreignObject x="-212.068" y="-184.102" width="502.733" height="502.733"><div xmlns="http://www.w3.org/1999/xhtml" style="backdrop-filter:blur(12.51px);clip-path:url(#bgblur_4_906_6165_clip_path);height:100%;width:100%"></div></foreignObject><g filter="url(#filter5_d_906_6165)" data-figma-bg-blur-radius="25.0116">
<circle cx="39.2989" cy="37.2506" r="1.25058" fill="#E6F6F8"/>
<circle cx="39.2989" cy="37.2506" r="1.18805" stroke="url(#paint4_linear_906_6165)" stroke-width="0.125058"/>
</g>
<foreignObject x="-207.566" y="-184.102" width="502.733" height="502.733"><div xmlns="http://www.w3.org/1999/xhtml" style="backdrop-filter:blur(12.51px);clip-path:url(#bgblur_5_906_6165_clip_path);height:100%;width:100%"></div></foreignObject><g filter="url(#filter6_d_906_6165)" data-figma-bg-blur-radius="25.0116">
<circle cx="43.8001" cy="37.2506" r="1.25058" fill="#E6F6F8"/>
<circle cx="43.8001" cy="37.2506" r="1.18805" stroke="url(#paint5_linear_906_6165)" stroke-width="0.125058"/>
</g>
<foreignObject x="-203.065" y="-184.102" width="502.733" height="502.733"><div xmlns="http://www.w3.org/1999/xhtml" style="backdrop-filter:blur(12.51px);clip-path:url(#bgblur_6_906_6165_clip_path);height:100%;width:100%"></div></foreignObject><g filter="url(#filter7_d_906_6165)" data-figma-bg-blur-radius="25.0116">
<circle cx="48.3014" cy="37.2506" r="1.25058" fill="#E6F6F8"/>
<circle cx="48.3014" cy="37.2506" r="1.18805" stroke="url(#paint6_linear_906_6165)" stroke-width="0.125058"/>
</g>
<mask id="path-17-inside-1_906_6165" fill="white">
<path d="M44.1251 26.0885C44.1251 26.0885 44.0157 21.2142 50.1246 21.2142C56.2335 21.2142 56.1249 26.0885 56.1249 26.0885"/>
<path d="M50.1248 19.6574C50.7424 19.6574 51.3347 19.412 51.7714 18.9753C52.2081 18.5386 52.4535 17.9463 52.4535 17.3287C52.4535 16.7111 52.2081 16.1188 51.7714 15.6821C51.3347 15.2453 50.7424 15 50.1248 15C49.5072 15 48.9149 15.2453 48.4782 15.6821C48.0414 16.1188 47.7961 16.7111 47.7961 17.3287C47.7961 17.9463 48.0414 18.5386 48.4782 18.9753C48.9149 19.412 49.5072 19.6574 50.1248 19.6574Z"/>
</mask>
<path d="M44.1251 26.0885C44.1251 26.0885 44.0157 21.2142 50.1246 21.2142C56.2335 21.2142 56.1249 26.0885 56.1249 26.0885" fill="#FFB81F"/>
<path d="M50.1248 19.6574C50.7424 19.6574 51.3347 19.412 51.7714 18.9753C52.2081 18.5386 52.4535 17.9463 52.4535 17.3287C52.4535 16.7111 52.2081 16.1188 51.7714 15.6821C51.3347 15.2453 50.7424 15 50.1248 15C49.5072 15 48.9149 15.2453 48.4782 15.6821C48.0414 16.1188 47.7961 16.7111 47.7961 17.3287C47.7961 17.9463 48.0414 18.5386 48.4782 18.9753C48.9149 19.412 49.5072 19.6574 50.1248 19.6574Z" fill="#FFB81F"/>
<path d="M44.1251 26.0885V26.1603H56.1249V26.0885V26.0166H44.1251V26.0885ZM50.1248 19.6574V19.8011V19.6574ZM44.1251 26.0885C44.2688 26.0852 44.2688 26.0853 44.2688 26.0853C44.2688 26.0853 44.2688 26.0854 44.2688 26.0854C44.2688 26.0853 44.2688 26.0852 44.2688 26.085C44.2688 26.0847 44.2688 26.0841 44.2688 26.0831C44.2687 26.0813 44.2687 26.0783 44.2687 26.0741C44.2687 26.0659 44.2687 26.0533 44.2691 26.0365C44.2697 26.0029 44.2714 25.9528 44.2757 25.8886C44.2844 25.7602 44.3033 25.5754 44.3448 25.3532C44.4277 24.9083 44.6001 24.3164 44.957 23.7257C45.665 22.5538 47.116 21.3579 50.1246 21.3579V21.2142V21.0705C47.0243 21.0705 45.4755 22.3117 44.711 23.577C44.3317 24.2048 44.1496 24.8315 44.0622 25.3005C44.0184 25.5353 43.9982 25.7313 43.989 25.8694C43.9843 25.9385 43.9824 25.9931 43.9817 26.0309C43.9813 26.0499 43.9813 26.0646 43.9813 26.0748C43.9813 26.0799 43.9813 26.0839 43.9814 26.0867C43.9814 26.0881 43.9814 26.0893 43.9814 26.0901C43.9814 26.0905 43.9814 26.0908 43.9814 26.0911C43.9815 26.0912 43.9815 26.0914 43.9815 26.0914C43.9815 26.0916 43.9815 26.0917 44.1251 26.0885ZM50.1246 21.2142V21.3579C53.1332 21.3579 54.5844 22.5538 55.2926 23.7257C55.6496 24.3164 55.8221 24.9083 55.9051 25.3532C55.9466 25.5754 55.9656 25.7602 55.9742 25.8887C55.9785 25.9529 55.9803 26.0029 55.9809 26.0365C55.9812 26.0533 55.9813 26.0659 55.9813 26.0742C55.9813 26.0783 55.9813 26.0813 55.9812 26.0831C55.9812 26.0841 55.9812 26.0847 55.9812 26.0851C55.9812 26.0852 55.9812 26.0854 55.9812 26.0854C55.9812 26.0854 55.9812 26.0854 55.9812 26.0854C55.9812 26.0853 55.9812 26.0853 56.1249 26.0885C56.2685 26.0917 56.2685 26.0915 56.2685 26.0914C56.2685 26.0914 56.2686 26.0912 56.2686 26.0911C56.2686 26.0908 56.2686 26.0905 56.2686 26.0901C56.2686 26.0892 56.2686 26.0881 56.2686 26.0867C56.2687 26.0839 56.2687 26.0799 56.2687 26.0748C56.2687 26.0645 56.2686 26.0498 56.2683 26.0309C56.2675 25.9931 56.2656 25.9384 56.261 25.8694C56.2517 25.7313 56.2315 25.5352 56.1877 25.3005C56.1002 24.8315 55.918 24.2048 55.5386 23.577C54.7739 22.3117 53.225 21.0705 50.1246 21.0705V21.2142ZM50.1248 19.6574V19.8011C50.7805 19.8011 51.4094 19.5406 51.873 19.0769L51.7714 18.9753L51.6698 18.8737C51.26 19.2835 50.7043 19.5137 50.1248 19.5137V19.6574ZM51.7714 18.9753L51.873 19.0769C52.3367 18.6133 52.5972 17.9844 52.5972 17.3287H52.4535H52.3098C52.3098 17.9082 52.0796 18.4639 51.6698 18.8737L51.7714 18.9753ZM52.4535 17.3287H52.5972C52.5972 16.673 52.3367 16.0441 51.873 15.5804L51.7714 15.6821L51.6698 15.7837C52.0796 16.1934 52.3098 16.7492 52.3098 17.3287H52.4535ZM51.7714 15.6821L51.873 15.5804C51.4094 15.1168 50.7805 14.8563 50.1248 14.8563V15V15.1437C50.7043 15.1437 51.26 15.3739 51.6698 15.7837L51.7714 15.6821ZM50.1248 15V14.8563C49.4691 14.8563 48.8402 15.1168 48.3765 15.5804L48.4782 15.6821L48.5798 15.7837C48.9895 15.3739 49.5453 15.1437 50.1248 15.1437V15ZM48.4782 15.6821L48.3765 15.5804C47.9129 16.0441 47.6524 16.673 47.6524 17.3287H47.7961H47.9398C47.9398 16.7492 48.17 16.1934 48.5798 15.7837L48.4782 15.6821ZM47.7961 17.3287H47.6524C47.6524 17.9844 47.9129 18.6133 48.3765 19.0769L48.4782 18.9753L48.5798 18.8737C48.17 18.4639 47.9398 17.9082 47.9398 17.3287H47.7961ZM48.4782 18.9753L48.3765 19.0769C48.8402 19.5406 49.4691 19.8011 50.1248 19.8011V19.6574V19.5137C49.5453 19.5137 48.9895 19.2835 48.5798 18.8737L48.4782 18.9753Z" fill="url(#paint7_linear_906_6165)" mask="url(#path-17-inside-1_906_6165)"/>
<mask id="path-19-inside-2_906_6165" fill="white">
<path d="M20.1251 47.0885C20.1251 47.0885 20.0157 42.2142 26.1246 42.2142C32.2335 42.2142 32.1249 47.0885 32.1249 47.0885"/>
<path d="M26.1248 40.6574C26.7424 40.6574 27.3347 40.412 27.7714 39.9753C28.2081 39.5386 28.4535 38.9463 28.4535 38.3287C28.4535 37.7111 28.2081 37.1188 27.7714 36.6821C27.3347 36.2453 26.7424 36 26.1248 36C25.5072 36 24.9149 36.2453 24.4782 36.6821C24.0414 37.1188 23.7961 37.7111 23.7961 38.3287C23.7961 38.9463 24.0414 39.5386 24.4782 39.9753C24.9149 40.412 25.5072 40.6574 26.1248 40.6574Z"/>
</mask>
<path d="M20.1251 47.0885C20.1251 47.0885 20.0157 42.2142 26.1246 42.2142C32.2335 42.2142 32.1249 47.0885 32.1249 47.0885" fill="#FFB81F"/>
<path d="M26.1248 40.6574C26.7424 40.6574 27.3347 40.412 27.7714 39.9753C28.2081 39.5386 28.4535 38.9463 28.4535 38.3287C28.4535 37.7111 28.2081 37.1188 27.7714 36.6821C27.3347 36.2453 26.7424 36 26.1248 36C25.5072 36 24.9149 36.2453 24.4782 36.6821C24.0414 37.1188 23.7961 37.7111 23.7961 38.3287C23.7961 38.9463 24.0414 39.5386 24.4782 39.9753C24.9149 40.412 25.5072 40.6574 26.1248 40.6574Z" fill="#FFB81F"/>
<path d="M20.1251 47.0885V47.1603H32.1249V47.0885V47.0166H20.1251V47.0885ZM26.1248 40.6574V40.8011V40.6574ZM20.1251 47.0885C20.2688 47.0852 20.2688 47.0853 20.2688 47.0853C20.2688 47.0853 20.2688 47.0854 20.2688 47.0854C20.2688 47.0853 20.2688 47.0852 20.2688 47.085C20.2688 47.0847 20.2688 47.0841 20.2688 47.0831C20.2687 47.0813 20.2687 47.0783 20.2687 47.0741C20.2687 47.0659 20.2687 47.0533 20.2691 47.0365C20.2697 47.0029 20.2714 46.9528 20.2757 46.8886C20.2844 46.7602 20.3033 46.5754 20.3448 46.3532C20.4277 45.9083 20.6001 45.3164 20.957 44.7257C21.665 43.5538 23.116 42.3579 26.1246 42.3579V42.2142V42.0705C23.0243 42.0705 21.4755 43.3117 20.711 44.577C20.3317 45.2048 20.1496 45.8315 20.0622 46.3005C20.0184 46.5353 19.9982 46.7313 19.989 46.8694C19.9843 46.9385 19.9824 46.9931 19.9817 47.0309C19.9813 47.0499 19.9813 47.0646 19.9813 47.0748C19.9813 47.0799 19.9813 47.0839 19.9814 47.0867C19.9814 47.0881 19.9814 47.0893 19.9814 47.0901C19.9814 47.0905 19.9814 47.0908 19.9814 47.0911C19.9815 47.0912 19.9815 47.0914 19.9815 47.0914C19.9815 47.0916 19.9815 47.0917 20.1251 47.0885ZM26.1246 42.2142V42.3579C29.1332 42.3579 30.5844 43.5538 31.2926 44.7257C31.6496 45.3164 31.8221 45.9083 31.9051 46.3532C31.9466 46.5754 31.9656 46.7602 31.9742 46.8887C31.9785 46.9529 31.9803 47.0029 31.9809 47.0365C31.9812 47.0533 31.9813 47.0659 31.9813 47.0742C31.9813 47.0783 31.9813 47.0813 31.9812 47.0831C31.9812 47.0841 31.9812 47.0847 31.9812 47.0851C31.9812 47.0852 31.9812 47.0854 31.9812 47.0854C31.9812 47.0854 31.9812 47.0854 31.9812 47.0854C31.9812 47.0853 31.9812 47.0853 32.1249 47.0885C32.2685 47.0917 32.2685 47.0915 32.2685 47.0914C32.2685 47.0914 32.2686 47.0912 32.2686 47.0911C32.2686 47.0908 32.2686 47.0905 32.2686 47.0901C32.2686 47.0892 32.2686 47.0881 32.2686 47.0867C32.2687 47.0839 32.2687 47.0799 32.2687 47.0748C32.2687 47.0645 32.2686 47.0498 32.2683 47.0309C32.2675 46.9931 32.2656 46.9384 32.261 46.8694C32.2517 46.7313 32.2315 46.5352 32.1877 46.3005C32.1002 45.8315 31.918 45.2048 31.5386 44.577C30.7739 43.3117 29.225 42.0705 26.1246 42.0705V42.2142ZM26.1248 40.6574V40.8011C26.7805 40.8011 27.4094 40.5406 27.873 40.0769L27.7714 39.9753L27.6698 39.8737C27.26 40.2835 26.7043 40.5137 26.1248 40.5137V40.6574ZM27.7714 39.9753L27.873 40.0769C28.3367 39.6133 28.5972 38.9844 28.5972 38.3287H28.4535H28.3098C28.3098 38.9082 28.0796 39.4639 27.6698 39.8737L27.7714 39.9753ZM28.4535 38.3287H28.5972C28.5972 37.673 28.3367 37.0441 27.873 36.5804L27.7714 36.6821L27.6698 36.7837C28.0796 37.1934 28.3098 37.7492 28.3098 38.3287H28.4535ZM27.7714 36.6821L27.873 36.5804C27.4094 36.1168 26.7805 35.8563 26.1248 35.8563V36V36.1437C26.7043 36.1437 27.26 36.3739 27.6698 36.7837L27.7714 36.6821ZM26.1248 36V35.8563C25.4691 35.8563 24.8402 36.1168 24.3765 36.5804L24.4782 36.6821L24.5798 36.7837C24.9895 36.3739 25.5453 36.1437 26.1248 36.1437V36ZM24.4782 36.6821L24.3765 36.5804C23.9129 37.0441 23.6524 37.673 23.6524 38.3287H23.7961H23.9398C23.9398 37.7492 24.17 37.1934 24.5798 36.7837L24.4782 36.6821ZM23.7961 38.3287H23.6524C23.6524 38.9844 23.9129 39.6133 24.3765 40.0769L24.4782 39.9753L24.5798 39.8737C24.17 39.4639 23.9398 38.9082 23.9398 38.3287H23.7961ZM24.4782 39.9753L24.3765 40.0769C24.8402 40.5406 25.4691 40.8011 26.1248 40.8011V40.6574V40.5137C25.5453 40.5137 24.9895 40.2835 24.5798 39.8737L24.4782 39.9753Z" fill="url(#paint8_linear_906_6165)" mask="url(#path-19-inside-2_906_6165)"/>
</g>
<path d="M8.79261 68V59.6H11.6246C12.1846 59.6 12.6766 59.712 13.1006 59.936C13.5326 60.152 13.8686 60.456 14.1086 60.848C14.3566 61.232 14.4806 61.68 14.4806 62.192C14.4806 62.744 14.3246 63.228 14.0126 63.644C13.7006 64.06 13.2926 64.364 12.7886 64.556L14.8166 68H13.4846L11.6126 64.784C11.5646 64.784 11.5126 64.784 11.4566 64.784C11.4006 64.784 11.3446 64.784 11.2886 64.784H9.96861V68H8.79261ZM9.96861 63.704H11.7326C12.0206 63.704 12.2766 63.64 12.5006 63.512C12.7326 63.376 12.9166 63.196 13.0526 62.972C13.1966 62.74 13.2686 62.48 13.2686 62.192C13.2686 61.744 13.1126 61.38 12.8006 61.1C12.4886 60.82 12.0846 60.68 11.5886 60.68H9.96861V63.704ZM18.0069 68.144C17.2949 68.144 16.7389 67.984 16.3389 67.664C15.9469 67.336 15.7509 66.884 15.7509 66.308C15.7509 65.692 15.9549 65.224 16.3629 64.904C16.7789 64.576 17.3549 64.412 18.0909 64.412H19.6989C19.6509 63.9 19.5149 63.516 19.2909 63.26C19.0749 62.996 18.7469 62.864 18.3069 62.864C17.9949 62.864 17.7229 62.928 17.4909 63.056C17.2669 63.184 17.0789 63.384 16.9269 63.656L15.9189 63.272C16.0629 63 16.2429 62.76 16.4589 62.552C16.6749 62.336 16.9349 62.168 17.2389 62.048C17.5429 61.92 17.8989 61.856 18.3069 61.856C18.8749 61.856 19.3469 61.968 19.7229 62.192C20.0989 62.416 20.3789 62.74 20.5629 63.164C20.7549 63.588 20.8469 64.112 20.8389 64.736L20.8269 68H19.7709L19.7349 67.232C19.5589 67.52 19.3269 67.744 19.0389 67.904C18.7509 68.064 18.4069 68.144 18.0069 68.144ZM18.1029 67.172C18.4309 67.172 18.7149 67.104 18.9549 66.968C19.1949 66.824 19.3829 66.628 19.5189 66.38C19.6549 66.124 19.7229 65.832 19.7229 65.504V65.312H18.4029C17.8509 65.312 17.4629 65.4 17.2389 65.576C17.0149 65.744 16.9029 65.98 16.9029 66.284C16.9029 66.564 17.0069 66.784 17.2149 66.944C17.4309 67.096 17.7269 67.172 18.1029 67.172ZM22.3344 70.4V62H23.4024L23.4624 62.972C23.6784 62.62 23.9544 62.348 24.2904 62.156C24.6264 61.956 25.0104 61.856 25.4424 61.856C25.9784 61.856 26.4504 61.988 26.8584 62.252C27.2664 62.516 27.5824 62.884 27.8064 63.356C28.0384 63.82 28.1544 64.368 28.1544 65C28.1544 65.624 28.0384 66.172 27.8064 66.644C27.5824 67.116 27.2664 67.484 26.8584 67.748C26.4504 68.012 25.9784 68.144 25.4424 68.144C25.0104 68.144 24.6264 68.048 24.2904 67.856C23.9624 67.656 23.6904 67.384 23.4744 67.04V70.4H22.3344ZM25.1664 67.112C25.5264 67.112 25.8424 67.024 26.1144 66.848C26.3864 66.664 26.5984 66.416 26.7504 66.104C26.9104 65.784 26.9904 65.416 26.9904 65C26.9904 64.584 26.9144 64.22 26.7624 63.908C26.6104 63.588 26.3984 63.34 26.1264 63.164C25.8544 62.98 25.5384 62.888 25.1784 62.888C24.8504 62.888 24.5544 62.98 24.2904 63.164C24.0344 63.34 23.8344 63.588 23.6904 63.908C23.5464 64.228 23.4744 64.592 23.4744 65C23.4744 65.416 23.5464 65.784 23.6904 66.104C23.8344 66.416 24.0344 66.664 24.2904 66.848C24.5464 67.024 24.8384 67.112 25.1664 67.112ZM31.3194 68.144C30.6074 68.144 30.0514 67.984 29.6514 67.664C29.2594 67.336 29.0634 66.884 29.0634 66.308C29.0634 65.692 29.2674 65.224 29.6754 64.904C30.0914 64.576 30.6674 64.412 31.4034 64.412H33.0114C32.9634 63.9 32.8274 63.516 32.6034 63.26C32.3874 62.996 32.0594 62.864 31.6194 62.864C31.3074 62.864 31.0354 62.928 30.8034 63.056C30.5794 63.184 30.3914 63.384 30.2394 63.656L29.2314 63.272C29.3754 63 29.5554 62.76 29.7714 62.552C29.9874 62.336 30.2474 62.168 30.5514 62.048C30.8554 61.92 31.2114 61.856 31.6194 61.856C32.1874 61.856 32.6594 61.968 33.0354 62.192C33.4114 62.416 33.6914 62.74 33.8754 63.164C34.0674 63.588 34.1594 64.112 34.1514 64.736L34.1394 68H33.0834L33.0474 67.232C32.8714 67.52 32.6394 67.744 32.3514 67.904C32.0634 68.064 31.7194 68.144 31.3194 68.144ZM31.4154 67.172C31.7434 67.172 32.0274 67.104 32.2674 66.968C32.5074 66.824 32.6954 66.628 32.8314 66.38C32.9674 66.124 33.0354 65.832 33.0354 65.504V65.312H31.7154C31.1634 65.312 30.7754 65.4 30.5514 65.576C30.3274 65.744 30.2154 65.98 30.2154 66.284C30.2154 66.564 30.3194 66.784 30.5274 66.944C30.7434 67.096 31.0394 67.172 31.4154 67.172ZM37.9029 68.144C37.3029 68.144 36.8389 67.992 36.5109 67.688C36.1829 67.376 36.0189 66.932 36.0189 66.356V62.984H34.9989V62H36.0189V60.128H37.1589V62H38.8629V62.984H37.1589V66.188C37.1589 66.484 37.2309 66.712 37.3749 66.872C37.5269 67.024 37.7429 67.1 38.0229 67.1C38.1029 67.1 38.1909 67.084 38.2869 67.052C38.3829 67.02 38.4989 66.956 38.6349 66.86L39.0669 67.748C38.8589 67.884 38.6589 67.984 38.4669 68.048C38.2829 68.112 38.0949 68.144 37.9029 68.144ZM46.1101 68.144C45.6621 68.144 45.2541 68.092 44.8861 67.988C44.5261 67.884 44.2101 67.744 43.9381 67.568C43.6741 67.384 43.4541 67.18 43.2781 66.956C43.1021 66.732 42.9781 66.496 42.9061 66.248L44.0461 65.876C44.1661 66.204 44.3941 66.488 44.7301 66.728C45.0661 66.968 45.4781 67.092 45.9661 67.1C46.5581 67.1 47.0221 66.984 47.3581 66.752C47.7021 66.512 47.8741 66.196 47.8741 65.804C47.8741 65.444 47.7261 65.152 47.4301 64.928C47.1341 64.696 46.7421 64.52 46.2541 64.4L45.2821 64.148C44.8981 64.044 44.5461 63.896 44.2261 63.704C43.9141 63.512 43.6661 63.268 43.4821 62.972C43.2981 62.676 43.2061 62.32 43.2061 61.904C43.2061 61.136 43.4541 60.536 43.9501 60.104C44.4541 59.672 45.1781 59.456 46.1221 59.456C46.6661 59.456 47.1381 59.544 47.5381 59.72C47.9381 59.888 48.2661 60.112 48.5221 60.392C48.7861 60.672 48.9741 60.98 49.0861 61.316L47.9461 61.7C47.8101 61.34 47.5781 61.052 47.2501 60.836C46.9221 60.612 46.5181 60.5 46.0381 60.5C45.5341 60.5 45.1341 60.62 44.8381 60.86C44.5501 61.1 44.4061 61.428 44.4061 61.844C44.4061 62.196 44.5181 62.468 44.7421 62.66C44.9741 62.844 45.2821 62.984 45.6661 63.08L46.6381 63.32C47.4221 63.512 48.0261 63.832 48.4501 64.28C48.8821 64.72 49.0981 65.204 49.0981 65.732C49.0981 66.188 48.9821 66.6 48.7501 66.968C48.5261 67.328 48.1901 67.616 47.7421 67.832C47.3021 68.04 46.7581 68.144 46.1101 68.144ZM52.3897 68.144C51.6777 68.144 51.1217 67.984 50.7217 67.664C50.3297 67.336 50.1337 66.884 50.1337 66.308C50.1337 65.692 50.3377 65.224 50.7457 64.904C51.1617 64.576 51.7377 64.412 52.4737 64.412H54.0817C54.0337 63.9 53.8977 63.516 53.6737 63.26C53.4577 62.996 53.1297 62.864 52.6897 62.864C52.3777 62.864 52.1057 62.928 51.8737 63.056C51.6497 63.184 51.4617 63.384 51.3097 63.656L50.3017 63.272C50.4457 63 50.6257 62.76 50.8417 62.552C51.0577 62.336 51.3177 62.168 51.6217 62.048C51.9257 61.92 52.2817 61.856 52.6897 61.856C53.2577 61.856 53.7297 61.968 54.1057 62.192C54.4817 62.416 54.7617 62.74 54.9457 63.164C55.1377 63.588 55.2297 64.112 55.2217 64.736L55.2097 68H54.1537L54.1177 67.232C53.9417 67.52 53.7097 67.744 53.4217 67.904C53.1337 68.064 52.7897 68.144 52.3897 68.144ZM52.4857 67.172C52.8137 67.172 53.0977 67.104 53.3377 66.968C53.5777 66.824 53.7657 66.628 53.9017 66.38C54.0377 66.124 54.1057 65.832 54.1057 65.504V65.312H52.7857C52.2337 65.312 51.8457 65.4 51.6217 65.576C51.3977 65.744 51.2857 65.98 51.2857 66.284C51.2857 66.564 51.3897 66.784 51.5977 66.944C51.8137 67.096 52.1097 67.172 52.4857 67.172ZM57.2838 70.544C57.1078 70.544 56.9118 70.512 56.6958 70.448C56.4878 70.384 56.2718 70.3 56.0478 70.196L56.4678 69.26C56.6438 69.34 56.7958 69.4 56.9238 69.44C57.0598 69.48 57.1678 69.5 57.2478 69.5C57.4478 69.5 57.6158 69.444 57.7518 69.332C57.8958 69.22 58.0118 69.064 58.0998 68.864L58.4718 67.964L55.8558 62H57.0678L59.0118 66.656L60.9318 62H62.1558L59.3118 68.744C59.1598 69.112 58.9998 69.432 58.8318 69.704C58.6638 69.976 58.4558 70.184 58.2078 70.328C57.9678 70.472 57.6598 70.544 57.2838 70.544ZM64.7999 68.144C64.0879 68.144 63.5319 67.984 63.1319 67.664C62.7399 67.336 62.5439 66.884 62.5439 66.308C62.5439 65.692 62.7479 65.224 63.1559 64.904C63.5719 64.576 64.1479 64.412 64.8839 64.412H66.4919C66.4439 63.9 66.3079 63.516 66.0839 63.26C65.8679 62.996 65.5399 62.864 65.0999 62.864C64.7879 62.864 64.5159 62.928 64.2839 63.056C64.0599 63.184 63.8719 63.384 63.7199 63.656L62.7119 63.272C62.8559 63 63.0359 62.76 63.2519 62.552C63.4679 62.336 63.7279 62.168 64.0319 62.048C64.3359 61.92 64.6919 61.856 65.0999 61.856C65.6679 61.856 66.1399 61.968 66.5159 62.192C66.8919 62.416 67.1719 62.74 67.3559 63.164C67.5479 63.588 67.6399 64.112 67.6319 64.736L67.6199 68H66.5639L66.5279 67.232C66.3519 67.52 66.1199 67.744 65.8319 67.904C65.5439 68.064 65.1999 68.144 64.7999 68.144ZM64.8959 67.172C65.2239 67.172 65.5079 67.104 65.7479 66.968C65.9879 66.824 66.1759 66.628 66.3119 66.38C66.4479 66.124 66.5159 65.832 66.5159 65.504V65.312H65.1959C64.6439 65.312 64.2559 65.4 64.0319 65.576C63.8079 65.744 63.6959 65.98 63.6959 66.284C63.6959 66.564 63.7999 66.784 64.0079 66.944C64.2239 67.096 64.5199 67.172 64.8959 67.172Z" fill="#25262B"/>
<defs>
<filter id="filter0_ii_906_6165" x="20.0669" y="11.7333" width="25.4" height="23.4" filterUnits="userSpaceOnUse" color-interpolation-filters="sRGB">
<feFlood flood-opacity="0" result="BackgroundImageFix"/>
<feBlend mode="normal" in="SourceGraphic" in2="BackgroundImageFix" result="shape"/>
<feColorMatrix in="SourceAlpha" type="matrix" values="0 0 0 0 0 0 0 0 0 0 0 0 0 0 0 0 0 0 127 0" result="hardAlpha"/>
<feOffset dx="2.26667" dy="-2.26667"/>
<feGaussianBlur stdDeviation="2.26667"/>
<feComposite in2="hardAlpha" operator="arithmetic" k2="-1" k3="1"/>
<feColorMatrix type="matrix" values="0 0 0 0 0.101961 0 0 0 0 0.105882 0 0 0 0 0.117647 0 0 0 0.24 0"/>
<feBlend mode="normal" in2="shape" result="effect1_innerShadow_906_6165"/>
<feColorMatrix in="SourceAlpha" type="matrix" values="0 0 0 0 0 0 0 0 0 0 0 0 0 0 0 0 0 0 127 0" result="hardAlpha"/>
<feOffset dx="-1.13333" dy="1.13333"/>
<feGaussianBlur stdDeviation="1.13333"/>
<feComposite in2="hardAlpha" operator="arithmetic" k2="-1" k3="1"/>
<feColorMatrix type="matrix" values="0 0 0 0 0.901961 0 0 0 0 0.964706 0 0 0 0 0.972549 0 0 0 0.16 0"/>
<feBlend mode="normal" in2="effect1_innerShadow_906_6165" result="effect2_innerShadow_906_6165"/>
</filter>
<filter id="filter1_d_906_6165" x="-223.667" y="-198.102" width="502.733" height="502.733" filterUnits="userSpaceOnUse" color-interpolation-filters="sRGB">
<feFlood flood-opacity="0" result="BackgroundImageFix"/>
<feColorMatrix in="SourceAlpha" type="matrix" values="0 0 0 0 0 0 0 0 0 0 0 0 0 0 0 0 0 0 127 0" result="hardAlpha"/>
<feOffset dy="30.0139"/>
<feGaussianBlur stdDeviation="125.058"/>
<feColorMatrix type="matrix" values="0 0 0 0 1 0 0 0 0 1 0 0 0 0 1 0 0 0 0.8 0"/>
<feBlend mode="normal" in2="BackgroundImageFix" result="effect1_dropShadow_906_6165"/>
<feBlend mode="normal" in="SourceGraphic" in2="effect1_dropShadow_906_6165" result="shape"/>
</filter>
<clipPath id="bgblur_1_906_6165_clip_path" transform="translate(223.667 198.102)"><circle cx="27.6991" cy="23.2506" r="1.25058"/>
</clipPath><filter id="filter2_d_906_6165" x="-219.166" y="-198.102" width="502.733" height="502.733" filterUnits="userSpaceOnUse" color-interpolation-filters="sRGB">
<feFlood flood-opacity="0" result="BackgroundImageFix"/>
<feColorMatrix in="SourceAlpha" type="matrix" values="0 0 0 0 0 0 0 0 0 0 0 0 0 0 0 0 0 0 127 0" result="hardAlpha"/>
<feOffset dy="30.0139"/>
<feGaussianBlur stdDeviation="125.058"/>
<feColorMatrix type="matrix" values="0 0 0 0 1 0 0 0 0 1 0 0 0 0 1 0 0 0 0.8 0"/>
<feBlend mode="normal" in2="BackgroundImageFix" result="effect1_dropShadow_906_6165"/>
<feBlend mode="normal" in="SourceGraphic" in2="effect1_dropShadow_906_6165" result="shape"/>
</filter>
<clipPath id="bgblur_2_906_6165_clip_path" transform="translate(219.166 198.102)"><circle cx="32.2003" cy="23.2506" r="1.25058"/>
</clipPath><filter id="filter3_d_906_6165" x="-214.665" y="-198.102" width="502.733" height="502.733" filterUnits="userSpaceOnUse" color-interpolation-filters="sRGB">
<feFlood flood-opacity="0" result="BackgroundImageFix"/>
<feColorMatrix in="SourceAlpha" type="matrix" values="0 0 0 0 0 0 0 0 0 0 0 0 0 0 0 0 0 0 127 0" result="hardAlpha"/>
<feOffset dy="30.0139"/>
<feGaussianBlur stdDeviation="125.058"/>
<feColorMatrix type="matrix" values="0 0 0 0 1 0 0 0 0 1 0 0 0 0 1 0 0 0 0.8 0"/>
<feBlend mode="normal" in2="BackgroundImageFix" result="effect1_dropShadow_906_6165"/>
<feBlend mode="normal" in="SourceGraphic" in2="effect1_dropShadow_906_6165" result="shape"/>
</filter>
<clipPath id="bgblur_3_906_6165_clip_path" transform="translate(214.665 198.102)"><circle cx="36.7015" cy="23.2506" r="1.25058"/>
</clipPath><filter id="filter4_ii_906_6165" x="31.6667" y="25.7333" width="25.4" height="23.4" filterUnits="userSpaceOnUse" color-interpolation-filters="sRGB">
<feFlood flood-opacity="0" result="BackgroundImageFix"/>
<feBlend mode="normal" in="SourceGraphic" in2="BackgroundImageFix" result="shape"/>
<feColorMatrix in="SourceAlpha" type="matrix" values="0 0 0 0 0 0 0 0 0 0 0 0 0 0 0 0 0 0 127 0" result="hardAlpha"/>
<feOffset dx="2.26667" dy="-2.26667"/>
<feGaussianBlur stdDeviation="2.26667"/>
<feComposite in2="hardAlpha" operator="arithmetic" k2="-1" k3="1"/>
<feColorMatrix type="matrix" values="0 0 0 0 0.101961 0 0 0 0 0.105882 0 0 0 0 0.117647 0 0 0 0.24 0"/>
<feBlend mode="normal" in2="shape" result="effect1_innerShadow_906_6165"/>
<feColorMatrix in="SourceAlpha" type="matrix" values="0 0 0 0 0 0 0 0 0 0 0 0 0 0 0 0 0 0 127 0" result="hardAlpha"/>
<feOffset dx="-1.13333" dy="1.13333"/>
<feGaussianBlur stdDeviation="1.13333"/>
<feComposite in2="hardAlpha" operator="arithmetic" k2="-1" k3="1"/>
<feColorMatrix type="matrix" values="0 0 0 0 0.901961 0 0 0 0 0.964706 0 0 0 0 0.972549 0 0 0 0.16 0"/>
<feBlend mode="normal" in2="effect1_innerShadow_906_6165" result="effect2_innerShadow_906_6165"/>
</filter>
<filter id="filter5_d_906_6165" x="-212.068" y="-184.102" width="502.733" height="502.733" filterUnits="userSpaceOnUse" color-interpolation-filters="sRGB">
<feFlood flood-opacity="0" result="BackgroundImageFix"/>
<feColorMatrix in="SourceAlpha" type="matrix" values="0 0 0 0 0 0 0 0 0 0 0 0 0 0 0 0 0 0 127 0" result="hardAlpha"/>
<feOffset dy="30.0139"/>
<feGaussianBlur stdDeviation="125.058"/>
<feColorMatrix type="matrix" values="0 0 0 0 1 0 0 0 0 1 0 0 0 0 1 0 0 0 0.8 0"/>
<feBlend mode="normal" in2="BackgroundImageFix" result="effect1_dropShadow_906_6165"/>
<feBlend mode="normal" in="SourceGraphic" in2="effect1_dropShadow_906_6165" result="shape"/>
</filter>
<clipPath id="bgblur_4_906_6165_clip_path" transform="translate(212.068 184.102)"><circle cx="39.2989" cy="37.2506" r="1.25058"/>
</clipPath><filter id="filter6_d_906_6165" x="-207.566" y="-184.102" width="502.733" height="502.733" filterUnits="userSpaceOnUse" color-interpolation-filters="sRGB">
<feFlood flood-opacity="0" result="BackgroundImageFix"/>
<feColorMatrix in="SourceAlpha" type="matrix" values="0 0 0 0 0 0 0 0 0 0 0 0 0 0 0 0 0 0 127 0" result="hardAlpha"/>
<feOffset dy="30.0139"/>
<feGaussianBlur stdDeviation="125.058"/>
<feColorMatrix type="matrix" values="0 0 0 0 1 0 0 0 0 1 0 0 0 0 1 0 0 0 0.8 0"/>
<feBlend mode="normal" in2="BackgroundImageFix" result="effect1_dropShadow_906_6165"/>
<feBlend mode="normal" in="SourceGraphic" in2="effect1_dropShadow_906_6165" result="shape"/>
</filter>
<clipPath id="bgblur_5_906_6165_clip_path" transform="translate(207.566 184.102)"><circle cx="43.8001" cy="37.2506" r="1.25058"/>
</clipPath><filter id="filter7_d_906_6165" x="-203.065" y="-184.102" width="502.733" height="502.733" filterUnits="userSpaceOnUse" color-interpolation-filters="sRGB">
<feFlood flood-opacity="0" result="BackgroundImageFix"/>
<feColorMatrix in="SourceAlpha" type="matrix" values="0 0 0 0 0 0 0 0 0 0 0 0 0 0 0 0 0 0 127 0" result="hardAlpha"/>
<feOffset dy="30.0139"/>
<feGaussianBlur stdDeviation="125.058"/>
<feColorMatrix type="matrix" values="0 0 0 0 1 0 0 0 0 1 0 0 0 0 1 0 0 0 0.8 0"/>
<feBlend mode="normal" in2="BackgroundImageFix" result="effect1_dropShadow_906_6165"/>
<feBlend mode="normal" in="SourceGraphic" in2="effect1_dropShadow_906_6165" result="shape"/>
</filter>
<clipPath id="bgblur_6_906_6165_clip_path" transform="translate(203.065 184.102)"><circle cx="48.3014" cy="37.2506" r="1.25058"/>
</clipPath><linearGradient id="paint0_linear_906_6165" x1="27.6991" y1="22" x2="27.6991" y2="24.5012" gradientUnits="userSpaceOnUse">
<stop stop-color="white"/>
<stop offset="1" stop-color="white" stop-opacity="0.12"/>
</linearGradient>
<linearGradient id="paint1_linear_906_6165" x1="32.2003" y1="22" x2="32.2003" y2="24.5012" gradientUnits="userSpaceOnUse">
<stop stop-color="white"/>
<stop offset="1" stop-color="white" stop-opacity="0.12"/>
</linearGradient>
<linearGradient id="paint2_linear_906_6165" x1="36.7015" y1="22" x2="36.7015" y2="24.5012" gradientUnits="userSpaceOnUse">
<stop stop-color="white"/>
<stop offset="1" stop-color="white" stop-opacity="0.12"/>
</linearGradient>
<linearGradient id="paint3_linear_906_6165" x1="53.425" y1="28.6667" x2="33.8349" y2="48.5304" gradientUnits="userSpaceOnUse">
<stop stop-color="#003138" stop-opacity="0.2"/>
<stop offset="0.161064" stop-color="#003138" stop-opacity="0"/>
<stop offset="1" stop-color="#003138"/>
</linearGradient>
<linearGradient id="paint4_linear_906_6165" x1="39.2989" y1="36" x2="39.2989" y2="38.5012" gradientUnits="userSpaceOnUse">
<stop stop-color="white"/>
<stop offset="1" stop-color="white" stop-opacity="0.12"/>
</linearGradient>
<linearGradient id="paint5_linear_906_6165" x1="43.8001" y1="36" x2="43.8001" y2="38.5012" gradientUnits="userSpaceOnUse">
<stop stop-color="white"/>
<stop offset="1" stop-color="white" stop-opacity="0.12"/>
</linearGradient>
<linearGradient id="paint6_linear_906_6165" x1="48.3014" y1="36" x2="48.3014" y2="38.5012" gradientUnits="userSpaceOnUse">
<stop stop-color="white"/>
<stop offset="1" stop-color="white" stop-opacity="0.12"/>
</linearGradient>
<linearGradient id="paint7_linear_906_6165" x1="50.125" y1="15" x2="50.125" y2="26.0885" gradientUnits="userSpaceOnUse">
<stop stop-color="white"/>
<stop offset="1" stop-color="white" stop-opacity="0.12"/>
</linearGradient>
<linearGradient id="paint8_linear_906_6165" x1="26.125" y1="36" x2="26.125" y2="47.0885" gradientUnits="userSpaceOnUse">
<stop stop-color="white"/>
<stop offset="1" stop-color="white" stop-opacity="0.12"/>
</linearGradient>
<clipPath id="clip0_906_6165">
<rect width="40" height="40" fill="white" transform="translate(18 11)"/>
</clipPath>
</defs>
</svg>
