<svg width="80" height="80" viewBox="0 0 80 80" fill="none" xmlns="http://www.w3.org/2000/svg">
<path d="M0 20C0 8.95431 8.95431 0 20 0H60C71.0457 0 80 8.95431 80 20V60C80 71.0457 71.0457 80 60 80H20C8.95431 80 0 71.0457 0 60V20Z" fill="#00A2B9"/>
<path d="M30.3691 60.7676C30.3691 60.6152 30.3457 60.4785 30.2988 60.3574C30.2559 60.2324 30.1738 60.1191 30.0527 60.0176C29.9316 59.9121 29.7617 59.8086 29.543 59.707C29.3242 59.6055 29.041 59.5 28.6934 59.3906C28.3066 59.2656 27.9395 59.125 27.5918 58.9688C27.248 58.8125 26.9434 58.6309 26.6777 58.4238C26.416 58.2129 26.209 57.9688 26.0566 57.6914C25.9082 57.4141 25.834 57.0918 25.834 56.7246C25.834 56.3691 25.9121 56.0469 26.0684 55.7578C26.2246 55.4648 26.4434 55.2148 26.7246 55.0078C27.0059 54.7969 27.3379 54.6348 27.7207 54.5215C28.1074 54.4082 28.5312 54.3516 28.9922 54.3516C29.6211 54.3516 30.1699 54.4648 30.6387 54.6914C31.1074 54.918 31.4707 55.2285 31.7285 55.623C31.9902 56.0176 32.1211 56.4688 32.1211 56.9766H30.375C30.375 56.7266 30.3223 56.5078 30.2168 56.3203C30.1152 56.1289 29.959 55.9785 29.748 55.8691C29.541 55.7598 29.2793 55.7051 28.9629 55.7051C28.6582 55.7051 28.4043 55.752 28.2012 55.8457C27.998 55.9355 27.8457 56.0586 27.7441 56.2148C27.6426 56.3672 27.5918 56.5391 27.5918 56.7305C27.5918 56.875 27.627 57.0059 27.6973 57.123C27.7715 57.2402 27.8809 57.3496 28.0254 57.4512C28.1699 57.5527 28.3477 57.6484 28.5586 57.7383C28.7695 57.8281 29.0137 57.916 29.291 58.002C29.7559 58.1426 30.1641 58.3008 30.5156 58.4766C30.8711 58.6523 31.168 58.8496 31.4062 59.0684C31.6445 59.2871 31.8242 59.5352 31.9453 59.8125C32.0664 60.0898 32.127 60.4043 32.127 60.7559C32.127 61.127 32.0547 61.459 31.9102 61.752C31.7656 62.0449 31.5566 62.293 31.2832 62.4961C31.0098 62.6992 30.6836 62.8535 30.3047 62.959C29.9258 63.0645 29.502 63.1172 29.0332 63.1172C28.6113 63.1172 28.1953 63.0625 27.7852 62.9531C27.375 62.8398 27.002 62.6699 26.666 62.4434C26.334 62.2168 26.0684 61.9277 25.8691 61.5762C25.6699 61.2246 25.5703 60.8086 25.5703 60.3281H27.334C27.334 60.5938 27.375 60.8184 27.457 61.002C27.5391 61.1855 27.6543 61.334 27.8027 61.4473C27.9551 61.5605 28.1348 61.6426 28.3418 61.6934C28.5527 61.7441 28.7832 61.7695 29.0332 61.7695C29.3379 61.7695 29.5879 61.7266 29.7832 61.6406C29.9824 61.5547 30.1289 61.4355 30.2227 61.2832C30.3203 61.1309 30.3691 60.959 30.3691 60.7676ZM36.6445 59.959H34.4707V58.5879H36.6445C36.9805 58.5879 37.2539 58.5332 37.4648 58.4238C37.6758 58.3105 37.8301 58.1543 37.9277 57.9551C38.0254 57.7559 38.0742 57.5312 38.0742 57.2812C38.0742 57.0273 38.0254 56.791 37.9277 56.5723C37.8301 56.3535 37.6758 56.1777 37.4648 56.0449C37.2539 55.9121 36.9805 55.8457 36.6445 55.8457H35.0801V63H33.3223V54.4688H36.6445C37.3125 54.4688 37.8848 54.5898 38.3613 54.832C38.8418 55.0703 39.209 55.4004 39.4629 55.8223C39.7168 56.2441 39.8438 56.7266 39.8438 57.2695C39.8438 57.8203 39.7168 58.2969 39.4629 58.6992C39.209 59.1016 38.8418 59.4121 38.3613 59.6309C37.8848 59.8496 37.3125 59.959 36.6445 59.959ZM44.3789 59.959H42.2051V58.5879H44.3789C44.7148 58.5879 44.9883 58.5332 45.1992 58.4238C45.4102 58.3105 45.5645 58.1543 45.6621 57.9551C45.7598 57.7559 45.8086 57.5312 45.8086 57.2812C45.8086 57.0273 45.7598 56.791 45.6621 56.5723C45.5645 56.3535 45.4102 56.1777 45.1992 56.0449C44.9883 55.9121 44.7148 55.8457 44.3789 55.8457H42.8145V63H41.0566V54.4688H44.3789C45.0469 54.4688 45.6191 54.5898 46.0957 54.832C46.5762 55.0703 46.9434 55.4004 47.1973 55.8223C47.4512 56.2441 47.5781 56.7266 47.5781 57.2695C47.5781 57.8203 47.4512 58.2969 47.1973 58.6992C46.9434 59.1016 46.5762 59.4121 46.0957 59.6309C45.6191 59.8496 45.0469 59.959 44.3789 59.959ZM51.4102 63H49.5527L49.5645 61.6289H51.4102C51.8711 61.6289 52.2598 61.5254 52.5762 61.3184C52.8926 61.1074 53.1309 60.8008 53.291 60.3984C53.4551 59.9961 53.5371 59.5098 53.5371 58.9395V58.5234C53.5371 58.0859 53.4902 57.7012 53.3965 57.3691C53.3066 57.0371 53.1719 56.7578 52.9922 56.5312C52.8125 56.3047 52.5918 56.1348 52.3301 56.0215C52.0684 55.9043 51.7676 55.8457 51.4277 55.8457H49.5176V54.4688H51.4277C51.998 54.4688 52.5195 54.5664 52.9922 54.7617C53.4688 54.9531 53.8809 55.2285 54.2285 55.5879C54.5762 55.9473 54.8438 56.377 55.0312 56.877C55.2227 57.373 55.3184 57.9258 55.3184 58.5352V58.9395C55.3184 59.5449 55.2227 60.0977 55.0312 60.5977C54.8438 61.0977 54.5762 61.5273 54.2285 61.8867C53.8848 62.2422 53.4727 62.5176 52.9922 62.7129C52.5156 62.9043 51.9883 63 51.4102 63ZM50.5488 54.4688V63H48.791V54.4688H50.5488Z" fill="white"/>
<path fill-rule="evenodd" clip-rule="evenodd" d="M45.9733 34.6663H51.3333C52.2174 34.6663 53.0652 34.3152 53.6904 33.69C54.3155 33.0649 54.6667 32.2171 54.6667 31.333C54.6667 30.449 54.3155 29.6011 53.6904 28.976C53.0652 28.3509 52.2174 27.9997 51.3333 27.9997H32.824C32.5765 27.9995 32.3338 27.9305 32.1233 27.8003C31.9128 27.67 31.7427 27.4838 31.632 27.2623L31.0347 26.0703C30.924 25.8489 30.7539 25.6626 30.5434 25.5324C30.3328 25.4022 30.0902 25.3331 29.8427 25.333H27.356C27.1353 25.3328 26.9179 25.3874 26.7235 25.492C26.529 25.5965 26.3636 25.7477 26.242 25.9319C26.1204 26.1162 26.0464 26.3277 26.0268 26.5476C26.0071 26.7675 26.0424 26.9888 26.1293 27.1917L28.9867 33.8583C29.0896 34.0983 29.2606 34.3029 29.4787 34.4465C29.6968 34.5901 29.9522 34.6666 30.2133 34.6663H35.364C35.5818 34.6665 35.7962 34.72 35.9885 34.8221C36.1809 34.9242 36.3453 35.0719 36.4673 35.2523C36.5894 35.4326 36.6654 35.6401 36.6888 35.8566C36.7122 36.0732 36.6821 36.2921 36.6013 36.4943L35.4 39.5063C35.3195 39.7084 35.2897 39.9271 35.3131 40.1433C35.3366 40.3595 35.4125 40.5668 35.5344 40.7469C35.6563 40.927 35.8204 41.0746 36.0124 41.1768C36.2044 41.2789 36.4185 41.3326 36.636 41.333H39.3587C39.5586 41.3331 39.756 41.2882 39.9363 41.2016C40.1166 41.1151 40.275 40.9891 40.4 40.833L44.9333 35.1663C45.0582 35.0104 45.2164 34.8845 45.3964 34.798C45.5765 34.7115 45.7736 34.6665 45.9733 34.6663Z" fill="#FAFAFA"/>
<path d="M40.6 26.4004H34.2667L33.232 24.3297C33.1304 24.1265 33.0825 23.9007 33.0927 23.6737C33.1029 23.4468 33.171 23.2262 33.2904 23.0329C33.4098 22.8396 33.5766 22.6801 33.775 22.5694C33.9734 22.4587 34.1968 22.4005 34.424 22.4004H36.9333C37.1403 22.4004 37.3445 22.4486 37.5296 22.5412C37.7147 22.6337 37.8758 22.7681 38 22.9337L40.6 26.4004Z" fill="#FAFAFA"/>
</svg>
