<svg width="80" height="80" viewBox="0 0 80 80" fill="none" xmlns="http://www.w3.org/2000/svg">
<rect width="80" height="80" rx="20" fill="#00A2B9"/>
<path d="M30.6667 31.3857C30.6667 26.551 34.8654 22.6667 40 22.6667C45.1346 22.6667 49.3333 26.551 49.3333 31.3857C49.3333 34.2105 48.1225 36.7592 45.8551 38.366C45.7164 38.4576 45.6159 38.5937 45.5714 38.75C45.4979 39.05 45.4171 39.3956 45.3349 39.7676C45.3232 39.8218 45.2923 39.8704 45.2476 39.9052C45.203 39.9399 45.1472 39.9587 45.0898 39.9584H41.1822C41.1162 39.9584 41.0529 39.9331 41.0062 39.8881C40.9595 39.8431 40.9333 39.782 40.9333 39.7184V38.9216L42.24 36.944C42.3644 36.7555 42.4117 36.5291 42.3726 36.3089C42.3335 36.0886 42.2108 35.8903 42.0284 35.7525L39.7884 34.0569L40.7877 32.5449C40.9206 32.3435 40.965 32.0994 40.9112 31.8663C40.8574 31.6333 40.7098 31.4304 40.5009 31.3023C40.292 31.1742 40.0388 31.1314 39.7972 31.1833C39.5555 31.2352 39.3451 31.3775 39.2123 31.5789L37.7612 33.7773C37.6368 33.9658 37.5895 34.1922 37.6286 34.4124C37.6677 34.6327 37.7904 34.831 37.9728 34.9689L40.2103 36.6644L39.2123 38.1764C39.1172 38.3206 39.0667 38.4879 39.0667 38.6588V39.7172C39.0667 39.7808 39.0404 39.8419 38.9938 39.8869C38.9471 39.9319 38.8838 39.9572 38.8178 39.9572H34.9102C34.8532 39.9573 34.7978 39.9385 34.7534 39.904C34.709 39.8695 34.6783 39.8214 34.6663 39.7676C34.5829 39.3956 34.502 39.0488 34.4299 38.75C34.3848 38.5933 34.2834 38.4571 34.1436 38.366C31.88 36.758 30.6667 34.2105 30.6667 31.3857ZM35.3719 41.7584C35.3355 41.7584 35.2995 41.7661 35.2665 41.7809C35.2335 41.7957 35.2042 41.8173 35.1807 41.8441C35.1573 41.871 35.1402 41.9025 35.1306 41.9364C35.1211 41.9702 35.1193 42.0057 35.1255 42.0404C35.2562 42.7651 35.352 43.4167 35.3794 43.8583C35.4578 45.1075 36.4123 46.1371 37.6878 46.4023L37.9317 46.4539C39.2949 46.7376 40.7051 46.7376 42.0683 46.4539L42.3122 46.4023C43.5877 46.1371 44.5422 45.1075 44.6206 43.8583C44.648 43.4167 44.7451 42.7663 44.8745 42.0404C44.8806 42.0057 44.8789 41.9702 44.8693 41.9364C44.8598 41.9025 44.8427 41.871 44.8192 41.8441C44.7958 41.8173 44.7665 41.7957 44.7335 41.7809C44.7005 41.7661 44.6645 41.7584 44.6281 41.7584H35.3719Z" fill="white"/>
<path d="M40.943 20.9427C40.6929 21.1927 40.3538 21.3332 40.0002 21.3332C39.6466 21.3332 39.3074 21.1927 39.0574 20.9427C38.8073 20.6926 38.6669 20.3535 38.6669 19.9999V18.6665C38.6669 18.3129 38.8073 17.9738 39.0574 17.7237C39.3074 17.4737 39.6466 17.3332 40.0002 17.3332C40.3538 17.3332 40.6929 17.4737 40.943 17.7237C41.193 17.9738 41.3335 18.3129 41.3335 18.6665V19.9999C41.3335 20.3535 41.193 20.6926 40.943 20.9427Z" fill="white"/>
<path d="M47.4593 24.4544C47.1352 24.434 46.8298 24.2961 46.6002 24.0665C46.3502 23.8165 46.2098 23.4774 46.2098 23.1239C46.2098 22.7703 46.3502 22.4313 46.6002 22.1812L47.5429 21.2386L47.6682 21.1279C47.9362 20.9207 48.273 20.8232 48.6102 20.8554C48.9475 20.8875 49.2598 21.0468 49.4839 21.3008C49.7079 21.5549 49.8268 21.8848 49.8165 22.2234C49.8062 22.562 49.6673 22.8839 49.4282 23.1239L48.4855 24.0665L48.3602 24.1772C48.1037 24.3762 47.7833 24.4748 47.4593 24.4544Z" fill="white"/>
<path d="M33.7906 23.1239C33.7906 23.4774 33.6502 23.8165 33.4002 24.0665C33.1502 24.3165 32.8111 24.4569 32.4575 24.4569C32.104 24.4569 31.7649 24.3165 31.5149 24.0665L30.5722 23.1239C30.3293 22.8724 30.1949 22.5356 30.198 22.186C30.201 21.8364 30.3412 21.502 30.5884 21.2548C30.8356 21.0076 31.1701 20.8674 31.5197 20.8643C31.8692 20.8613 32.2061 20.9957 32.4575 21.2386L33.4002 22.1812C33.6502 22.4313 33.7906 22.7703 33.7906 23.1239Z" fill="white"/>
<path d="M32.1797 62.0801V63H27.9141V62.0801H32.1797ZM28.1367 54.4688V63H27.0059V54.4688H28.1367ZM38.0391 54.4688H39.1641V60.2402C39.1641 60.8809 39.0215 61.4141 38.7363 61.8398C38.4512 62.2656 38.0723 62.5859 37.5996 62.8008C37.1309 63.0117 36.6211 63.1172 36.0703 63.1172C35.4922 63.1172 34.9688 63.0117 34.5 62.8008C34.0352 62.5859 33.666 62.2656 33.3926 61.8398C33.123 61.4141 32.9883 60.8809 32.9883 60.2402V54.4688H34.1074V60.2402C34.1074 60.6855 34.1895 61.0527 34.3535 61.3418C34.5176 61.6309 34.7461 61.8457 35.0391 61.9863C35.3359 62.127 35.6797 62.1973 36.0703 62.1973C36.4648 62.1973 36.8086 62.127 37.1016 61.9863C37.3984 61.8457 37.6289 61.6309 37.793 61.3418C37.957 61.0527 38.0391 60.6855 38.0391 60.2402V54.4688ZM44.0918 54.4688V63H42.9785V54.4688H44.0918ZM46.834 54.4688V55.3945H40.2422V54.4688H46.834ZM50.4082 63H48.627L48.6387 62.0801H50.4082C51.0176 62.0801 51.5254 61.9531 51.9316 61.6992C52.3379 61.4414 52.6426 61.082 52.8457 60.6211C53.0527 60.1562 53.1562 59.6133 53.1562 58.9922V58.4707C53.1562 57.9824 53.0977 57.5488 52.9805 57.1699C52.8633 56.7871 52.6914 56.4648 52.4648 56.2031C52.2383 55.9375 51.9609 55.7363 51.6328 55.5996C51.3086 55.4629 50.9355 55.3945 50.5137 55.3945H48.5918V54.4688H50.5137C51.0723 54.4688 51.582 54.5625 52.043 54.75C52.5039 54.9336 52.9004 55.2012 53.2324 55.5527C53.5684 55.9004 53.8262 56.3223 54.0059 56.8184C54.1855 57.3105 54.2754 57.8652 54.2754 58.4824V58.9922C54.2754 59.6094 54.1855 60.166 54.0059 60.6621C53.8262 61.1543 53.5664 61.5742 53.2266 61.9219C52.8906 62.2695 52.4844 62.5371 52.0078 62.7246C51.5352 62.9082 51.002 63 50.4082 63ZM49.2305 54.4688V63H48.0996V54.4688H49.2305Z" fill="white"/>
</svg>
