<svg width="80" height="80" viewBox="0 0 80 80" fill="none" xmlns="http://www.w3.org/2000/svg">
<g opacity="0.4">
<rect opacity="0.1" width="80" height="80" rx="20" fill="#00A2B9"/>
<path d="M14.6172 53.8438C14.6172 53.6445 14.5859 53.4688 14.5234 53.3164C14.4648 53.1602 14.3594 53.0195 14.207 52.8945C14.0586 52.7695 13.8516 52.6504 13.5859 52.5371C13.3242 52.4238 12.9922 52.3086 12.5898 52.1914C12.168 52.0664 11.7871 51.9277 11.4473 51.7754C11.1074 51.6191 10.8164 51.4414 10.5742 51.2422C10.332 51.043 10.1465 50.8145 10.0176 50.5566C9.88867 50.2988 9.82422 50.0039 9.82422 49.6719C9.82422 49.3398 9.89258 49.0332 10.0293 48.752C10.166 48.4707 10.3613 48.2266 10.6152 48.0195C10.873 47.8086 11.1797 47.6445 11.5352 47.5273C11.8906 47.4102 12.2871 47.3516 12.7246 47.3516C13.3652 47.3516 13.9082 47.4746 14.3535 47.7207C14.8027 47.9629 15.1445 48.2812 15.3789 48.6758C15.6133 49.0664 15.7305 49.4844 15.7305 49.9297H14.6055C14.6055 49.6094 14.5371 49.3262 14.4004 49.0801C14.2637 48.8301 14.0566 48.6348 13.7793 48.4941C13.502 48.3496 13.1504 48.2773 12.7246 48.2773C12.3223 48.2773 11.9902 48.3379 11.7285 48.459C11.4668 48.5801 11.2715 48.7441 11.1426 48.9512C11.0176 49.1582 10.9551 49.3945 10.9551 49.6602C10.9551 49.8398 10.9922 50.0039 11.0664 50.1523C11.1445 50.2969 11.2637 50.4316 11.4238 50.5566C11.5879 50.6816 11.7949 50.7969 12.0449 50.9023C12.2988 51.0078 12.6016 51.1094 12.9531 51.207C13.4375 51.3438 13.8555 51.4961 14.207 51.6641C14.5586 51.832 14.8477 52.0215 15.0742 52.2324C15.3047 52.4395 15.4746 52.6758 15.584 52.9414C15.6973 53.2031 15.7539 53.5 15.7539 53.832C15.7539 54.1797 15.6836 54.4941 15.543 54.7754C15.4023 55.0566 15.2012 55.2969 14.9395 55.4961C14.6777 55.6953 14.3633 55.8496 13.9961 55.959C13.6328 56.0645 13.2266 56.1172 12.7773 56.1172C12.3828 56.1172 11.9941 56.0625 11.6113 55.9531C11.2324 55.8438 10.8867 55.6797 10.5742 55.4609C10.2656 55.2422 10.0176 54.9727 9.83008 54.6523C9.64648 54.3281 9.55469 53.9531 9.55469 53.5273H10.6797C10.6797 53.8203 10.7363 54.0723 10.8496 54.2832C10.9629 54.4902 11.1172 54.6621 11.3125 54.7988C11.5117 54.9355 11.7363 55.0371 11.9863 55.1035C12.2402 55.166 12.5039 55.1973 12.7773 55.1973C13.1719 55.1973 13.5059 55.1426 13.7793 55.0332C14.0527 54.9238 14.2598 54.7676 14.4004 54.5645C14.5449 54.3613 14.6172 54.1211 14.6172 53.8438ZM18.1152 47V56H17.0312V47H18.1152ZM17.8574 52.5898L17.4062 52.5723C17.4102 52.1387 17.4746 51.7383 17.5996 51.3711C17.7246 51 17.9004 50.6777 18.127 50.4043C18.3535 50.1309 18.623 49.9199 18.9355 49.7715C19.252 49.6191 19.6016 49.543 19.9844 49.543C20.2969 49.543 20.5781 49.5859 20.8281 49.6719C21.0781 49.7539 21.291 49.8867 21.4668 50.0703C21.6465 50.2539 21.7832 50.4922 21.877 50.7852C21.9707 51.0742 22.0176 51.4277 22.0176 51.8457V56H20.9277V51.834C20.9277 51.502 20.8789 51.2363 20.7812 51.0371C20.6836 50.834 20.541 50.6875 20.3535 50.5977C20.166 50.5039 19.9355 50.457 19.6621 50.457C19.3926 50.457 19.1465 50.5137 18.9238 50.627C18.7051 50.7402 18.5156 50.8965 18.3555 51.0957C18.1992 51.2949 18.0762 51.5234 17.9863 51.7812C17.9004 52.0352 17.8574 52.3047 17.8574 52.5898ZM24.8184 49.6602V56H23.7285V49.6602H24.8184ZM23.6465 47.9785C23.6465 47.8027 23.6992 47.6543 23.8047 47.5332C23.9141 47.4121 24.0742 47.3516 24.2852 47.3516C24.4922 47.3516 24.6504 47.4121 24.7598 47.5332C24.873 47.6543 24.9297 47.8027 24.9297 47.9785C24.9297 48.1465 24.873 48.291 24.7598 48.4121C24.6504 48.5293 24.4922 48.5879 24.2852 48.5879C24.0742 48.5879 23.9141 48.5293 23.8047 48.4121C23.6992 48.291 23.6465 48.1465 23.6465 47.9785ZM28.1758 56H27.0918V48.9922C27.0918 48.5352 27.1738 48.1504 27.3379 47.8379C27.5059 47.5215 27.7461 47.2832 28.0586 47.123C28.3711 46.959 28.7422 46.877 29.1719 46.877C29.2969 46.877 29.4219 46.8848 29.5469 46.9004C29.6758 46.916 29.8008 46.9395 29.9219 46.9707L29.8633 47.8555C29.7812 47.8359 29.6875 47.8223 29.582 47.8145C29.4805 47.8066 29.3789 47.8027 29.2773 47.8027C29.0469 47.8027 28.8477 47.8496 28.6797 47.9434C28.5156 48.0332 28.3906 48.166 28.3047 48.3418C28.2188 48.5176 28.1758 48.7344 28.1758 48.9922V56ZM29.5234 49.6602V50.4922H26.0898V49.6602H29.5234ZM33.3848 49.6602V50.4922H29.957V49.6602H33.3848ZM31.1172 48.1191H32.2012V54.4297C32.2012 54.6445 32.2344 54.8066 32.3008 54.916C32.3672 55.0254 32.4531 55.0977 32.5586 55.1328C32.6641 55.168 32.7773 55.1855 32.8984 55.1855C32.9883 55.1855 33.082 55.1777 33.1797 55.1621C33.2812 55.1426 33.3574 55.127 33.4082 55.1152L33.4141 56C33.3281 56.0273 33.2148 56.0527 33.0742 56.0762C32.9375 56.1035 32.7715 56.1172 32.5762 56.1172C32.3105 56.1172 32.0664 56.0645 31.8438 55.959C31.6211 55.8535 31.4434 55.6777 31.3105 55.4316C31.1816 55.1816 31.1172 54.8457 31.1172 54.4238V48.1191ZM36.9121 51.9277V52.8184H34.0527V51.9277H36.9121ZM41.2832 52.6543H39.0039V51.7344H41.2832C41.7246 51.7344 42.082 51.6641 42.3555 51.5234C42.6289 51.3828 42.8281 51.1875 42.9531 50.9375C43.082 50.6875 43.1465 50.4023 43.1465 50.082C43.1465 49.7891 43.082 49.5137 42.9531 49.2559C42.8281 48.998 42.6289 48.791 42.3555 48.6348C42.082 48.4746 41.7246 48.3945 41.2832 48.3945H39.2676V56H38.1367V47.4688H41.2832C41.9277 47.4688 42.4727 47.5801 42.918 47.8027C43.3633 48.0254 43.7012 48.334 43.9316 48.7285C44.1621 49.1191 44.2773 49.5664 44.2773 50.0703C44.2773 50.6172 44.1621 51.084 43.9316 51.4707C43.7012 51.8574 43.3633 52.1523 42.918 52.3555C42.4727 52.5547 41.9277 52.6543 41.2832 52.6543ZM48.0156 56H46.2344L46.2461 55.0801H48.0156C48.625 55.0801 49.1328 54.9531 49.5391 54.6992C49.9453 54.4414 50.25 54.082 50.4531 53.6211C50.6602 53.1562 50.7637 52.6133 50.7637 51.9922V51.4707C50.7637 50.9824 50.7051 50.5488 50.5879 50.1699C50.4707 49.7871 50.2988 49.4648 50.0723 49.2031C49.8457 48.9375 49.5684 48.7363 49.2402 48.5996C48.916 48.4629 48.543 48.3945 48.1211 48.3945H46.1992V47.4688H48.1211C48.6797 47.4688 49.1895 47.5625 49.6504 47.75C50.1113 47.9336 50.5078 48.2012 50.8398 48.5527C51.1758 48.9004 51.4336 49.3223 51.6133 49.8184C51.793 50.3105 51.8828 50.8652 51.8828 51.4824V51.9922C51.8828 52.6094 51.793 53.166 51.6133 53.6621C51.4336 54.1543 51.1738 54.5742 50.834 54.9219C50.498 55.2695 50.0918 55.5371 49.6152 55.7246C49.1426 55.9082 48.6094 56 48.0156 56ZM46.8379 47.4688V56H45.707V47.4688H46.8379ZM54.7129 47.4688V56H53.582V47.4688H54.7129ZM59.8633 47.4688L56.3184 51.4473L54.3262 53.5156L54.1387 52.3086L55.6387 50.6562L58.5039 47.4688H59.8633ZM58.7734 56L55.6152 51.8398L56.2891 50.9434L60.1211 56H58.7734ZM64.1582 52.0098H61.9961L61.9844 51.1016H63.9473C64.2715 51.1016 64.5547 51.0469 64.7969 50.9375C65.0391 50.8281 65.2266 50.6719 65.3594 50.4688C65.4961 50.2617 65.5645 50.0156 65.5645 49.7305C65.5645 49.418 65.5039 49.1641 65.3828 48.9688C65.2656 48.7695 65.084 48.625 64.8379 48.5352C64.5957 48.4414 64.2871 48.3945 63.9121 48.3945H62.248V56H61.1172V47.4688H63.9121C64.3496 47.4688 64.7402 47.5137 65.084 47.6035C65.4277 47.6895 65.7188 47.8262 65.957 48.0137C66.1992 48.1973 66.3828 48.4316 66.5078 48.7168C66.6328 49.002 66.6953 49.3438 66.6953 49.7422C66.6953 50.0938 66.6055 50.4121 66.4258 50.6973C66.2461 50.9785 65.9961 51.209 65.6758 51.3887C65.3594 51.5684 64.9883 51.6836 64.5625 51.7344L64.1582 52.0098ZM64.1055 56H61.5508L62.1895 55.0801H64.1055C64.4648 55.0801 64.7695 55.0176 65.0195 54.8926C65.2734 54.7676 65.4668 54.5918 65.5996 54.3652C65.7324 54.1348 65.7988 53.8633 65.7988 53.5508C65.7988 53.2344 65.7422 52.9609 65.6289 52.7305C65.5156 52.5 65.3379 52.3223 65.0957 52.1973C64.8535 52.0723 64.541 52.0098 64.1582 52.0098H62.5469L62.5586 51.1016H64.7617L65.002 51.4297C65.4121 51.4648 65.7598 51.582 66.0449 51.7812C66.3301 51.9766 66.5469 52.2266 66.6953 52.5312C66.8477 52.8359 66.9238 53.1719 66.9238 53.5391C66.9238 54.0703 66.8066 54.5195 66.5723 54.8867C66.3418 55.25 66.0156 55.5273 65.5938 55.7188C65.1719 55.9062 64.6758 56 64.1055 56ZM70.6855 51.9277V52.8184H67.8262V51.9277H70.6855ZM30.7656 66.6543H28.4863V65.7344H30.7656C31.207 65.7344 31.5645 65.6641 31.8379 65.5234C32.1113 65.3828 32.3105 65.1875 32.4355 64.9375C32.5645 64.6875 32.6289 64.4023 32.6289 64.082C32.6289 63.7891 32.5645 63.5137 32.4355 63.2559C32.3105 62.998 32.1113 62.791 31.8379 62.6348C31.5645 62.4746 31.207 62.3945 30.7656 62.3945H28.75V70H27.6191V61.4688H30.7656C31.4102 61.4688 31.9551 61.5801 32.4004 61.8027C32.8457 62.0254 33.1836 62.334 33.4141 62.7285C33.6445 63.1191 33.7598 63.5664 33.7598 64.0703C33.7598 64.6172 33.6445 65.084 33.4141 65.4707C33.1836 65.8574 32.8457 66.1523 32.4004 66.3555C31.9551 66.5547 31.4102 66.6543 30.7656 66.6543ZM36.2031 63.6602V70H35.1133V63.6602H36.2031ZM35.0312 61.9785C35.0312 61.8027 35.084 61.6543 35.1895 61.5332C35.2988 61.4121 35.459 61.3516 35.6699 61.3516C35.877 61.3516 36.0352 61.4121 36.1445 61.5332C36.2578 61.6543 36.3145 61.8027 36.3145 61.9785C36.3145 62.1465 36.2578 62.291 36.1445 62.4121C36.0352 62.5293 35.877 62.5879 35.6699 62.5879C35.459 62.5879 35.2988 62.5293 35.1895 62.4121C35.084 62.291 35.0312 62.1465 35.0312 61.9785ZM39.0332 61V70H37.9434V61H39.0332ZM42.9062 63.6602L40.1406 66.6191L38.5938 68.2246L38.5059 67.0703L39.6133 65.7461L41.582 63.6602H42.9062ZM41.916 70L39.6543 66.9766L40.2168 66.0098L43.1934 70H41.916ZM46.5391 70.1172C46.0977 70.1172 45.6973 70.043 45.3379 69.8945C44.9824 69.7422 44.6758 69.5293 44.418 69.2559C44.1641 68.9824 43.9688 68.6582 43.832 68.2832C43.6953 67.9082 43.627 67.498 43.627 67.0527V66.8066C43.627 66.291 43.7031 65.832 43.8555 65.4297C44.0078 65.0234 44.2148 64.6797 44.4766 64.3984C44.7383 64.1172 45.0352 63.9043 45.3672 63.7598C45.6992 63.6152 46.043 63.543 46.3984 63.543C46.8516 63.543 47.2422 63.6211 47.5703 63.7773C47.9023 63.9336 48.1738 64.1523 48.3848 64.4336C48.5957 64.7109 48.752 65.0391 48.8535 65.418C48.9551 65.793 49.0059 66.2031 49.0059 66.6484V67.1348H44.2715V66.25H47.9219V66.168C47.9062 65.8867 47.8477 65.6133 47.7461 65.3477C47.6484 65.082 47.4922 64.8633 47.2773 64.6914C47.0625 64.5195 46.7695 64.4336 46.3984 64.4336C46.1523 64.4336 45.9258 64.4863 45.7188 64.5918C45.5117 64.6934 45.334 64.8457 45.1855 65.0488C45.0371 65.252 44.9219 65.5 44.8398 65.793C44.7578 66.0859 44.7168 66.4238 44.7168 66.8066V67.0527C44.7168 67.3535 44.7578 67.6367 44.8398 67.9023C44.9258 68.1641 45.0488 68.3945 45.209 68.5938C45.373 68.793 45.5703 68.9492 45.8008 69.0625C46.0352 69.1758 46.3008 69.2324 46.5977 69.2324C46.9805 69.2324 47.3047 69.1543 47.5703 68.998C47.8359 68.8418 48.0684 68.6328 48.2676 68.3711L48.9238 68.8926C48.7871 69.0996 48.6133 69.2969 48.4023 69.4844C48.1914 69.6719 47.9316 69.8242 47.623 69.9414C47.3184 70.0586 46.957 70.1172 46.5391 70.1172ZM52.9258 63.6602V64.4922H49.498V63.6602H52.9258ZM50.6582 62.1191H51.7422V68.4297C51.7422 68.6445 51.7754 68.8066 51.8418 68.916C51.9082 69.0254 51.9941 69.0977 52.0996 69.1328C52.2051 69.168 52.3184 69.1855 52.4395 69.1855C52.5293 69.1855 52.623 69.1777 52.7207 69.1621C52.8223 69.1426 52.8984 69.127 52.9492 69.1152L52.9551 70C52.8691 70.0273 52.7559 70.0527 52.6152 70.0762C52.4785 70.1035 52.3125 70.1172 52.1172 70.1172C51.8516 70.1172 51.6074 70.0645 51.3848 69.959C51.1621 69.8535 50.9844 69.6777 50.8516 69.4316C50.7227 69.1816 50.6582 68.8457 50.6582 68.4238V62.1191Z" fill="#666666"/>
<path d="M40 42C45.5228 42 50 37.5228 50 32C50 26.4772 45.5228 22 40 22C34.4772 22 30 26.4772 30 32C30 37.5228 34.4772 42 40 42Z" fill="#00A2B9" stroke="#00A2B9" stroke-width="2" stroke-linecap="round" stroke-linejoin="round"/>
<path d="M40 26V32L44 34" stroke="#F3AF00" stroke-width="2" stroke-linecap="round" stroke-linejoin="round"/>
</g>
</svg>
