<svg width="69" height="100" viewBox="0 0 69 100" fill="none" xmlns="http://www.w3.org/2000/svg">
<rect width="68.75" height="100" rx="8" fill="white"/>
<rect width="68.75" height="100" rx="8" fill="#E6F6F8" fill-opacity="0.5"/>
<g clip-path="url(#clip0_615_9250)">
<g filter="url(#filter0_ii_615_9250)">
<path d="M17.375 31.266C17.375 30.141 17.8487 29.0681 18.68 28.3102L31.68 16.4572C33.207 15.065 35.543 15.065 37.07 16.4572L50.07 28.3102C50.9013 29.0681 51.375 30.141 51.375 31.266V44C51.375 46.2091 49.5841 48 47.375 48H21.375C19.1659 48 17.375 46.2091 17.375 44V31.266Z" fill="#0E7889"/>
</g>
<foreignObject x="-176.75" y="-156" width="422" height="421"><div xmlns="http://www.w3.org/1999/xhtml" style="backdrop-filter:blur(10px);clip-path:url(#bgblur_1_615_9250_clip_path);height:100%;width:100%"></div></foreignObject><g filter="url(#filter1_d_615_9250)" data-figma-bg-blur-radius="20">
<path d="M23.25 21C23.25 20.4477 23.6977 20 24.25 20H44.25C44.8023 20 45.25 20.4477 45.25 21V37C45.25 39.2091 43.4591 41 41.25 41H25.25C24.1454 41 23.25 40.1046 23.25 39V21Z" fill="#E6F6F8"/>
<path d="M24.25 20.0498H44.25C44.7747 20.0498 45.2002 20.4753 45.2002 21V37C45.2002 39.1815 43.4315 40.9502 41.25 40.9502H25.25C24.173 40.9502 23.2998 40.077 23.2998 39V21C23.2998 20.4753 23.7253 20.0498 24.25 20.0498Z" stroke="url(#paint0_linear_615_9250)" stroke-width="0.1"/>
</g>
<g filter="url(#filter2_i_615_9250)">
<path d="M17.375 31.2426C17.375 28.5699 20.6064 27.2314 22.4963 29.1213L31.5466 38.1716C33.1087 39.7337 35.6413 39.7337 37.2034 38.1716L46.2537 29.1213C48.1436 27.2314 51.375 28.5699 51.375 31.2426V45C51.375 46.6569 50.0319 48 48.375 48H20.375C18.7181 48 17.375 46.6569 17.375 45V31.2426Z" fill="#00A2B9"/>
</g>
<path d="M46.3955 29.2627C48.1593 27.4992 51.1744 28.7481 51.1748 31.2422V45C51.1748 46.5464 49.9214 47.7998 48.375 47.7998H20.375C18.8286 47.7998 17.5752 46.5464 17.5752 45V31.2422C17.5756 28.7481 20.5907 27.4992 22.3545 29.2627L31.4053 38.3135C33.0454 39.9533 35.7046 39.9533 37.3447 38.3135L46.3955 29.2627Z" stroke="url(#paint1_linear_615_9250)" stroke-opacity="0.2" stroke-width="0.4"/>
<circle cx="34.25" cy="28" r="5.9403" fill="#FFB81F" stroke="url(#paint2_linear_615_9250)" stroke-width="0.119398"/>
<g clip-path="url(#clip2_615_9250)">
<path d="M37.25 31L35.8 29.55M36.5833 27.6667C36.5833 29.1394 35.3894 30.3333 33.9167 30.3333C32.4439 30.3333 31.25 29.1394 31.25 27.6667C31.25 26.1939 32.4439 25 33.9167 25C35.3894 25 36.5833 26.1939 36.5833 27.6667Z" stroke="white" stroke-width="0.96" stroke-linecap="round" stroke-linejoin="round"/>
</g>
<g filter="url(#filter3_i_615_9250)">
<path d="M17.375 45L32.5035 36.9908C33.6742 36.371 35.0758 36.371 36.2466 36.9908L51.375 45C51.375 46.6569 50.0318 48.0001 48.3749 48.0001H20.3751C18.7182 48.0001 17.375 46.6569 17.375 45Z" fill="#00A2B9"/>
</g>
<path d="M32.5967 37.168C33.7089 36.5792 35.0411 36.5792 36.1533 37.168L51.168 45.1172C51.1064 46.6092 49.8821 47.7998 48.375 47.7998H20.375C18.8679 47.7998 17.6426 46.6092 17.5811 45.1172L32.5967 37.168Z" stroke="url(#paint3_linear_615_9250)" stroke-opacity="0.2" stroke-width="0.4"/>
</g>
<path d="M19.8571 68V59.6H21.0331V66.92H24.9331V68H19.8571ZM29.558 68L29.51 66.956V64.868C29.51 64.428 29.458 64.06 29.354 63.764C29.258 63.468 29.106 63.244 28.898 63.092C28.698 62.94 28.43 62.864 28.094 62.864C27.782 62.864 27.51 62.928 27.278 63.056C27.054 63.184 26.866 63.384 26.714 63.656L25.706 63.272C25.85 63 26.03 62.76 26.246 62.552C26.462 62.336 26.722 62.168 27.026 62.048C27.33 61.92 27.686 61.856 28.094 61.856C28.662 61.856 29.134 61.968 29.51 62.192C29.886 62.416 30.166 62.74 30.35 63.164C30.542 63.588 30.634 64.112 30.626 64.736L30.614 68H29.558ZM27.794 68.144C27.082 68.144 26.526 67.984 26.126 67.664C25.734 67.336 25.538 66.884 25.538 66.308C25.538 65.692 25.742 65.224 26.15 64.904C26.566 64.576 27.142 64.412 27.878 64.412H29.546V65.312H28.19C27.638 65.312 27.25 65.4 27.026 65.576C26.802 65.744 26.69 65.98 26.69 66.284C26.69 66.564 26.794 66.784 27.002 66.944C27.218 67.096 27.514 67.172 27.89 67.172C28.218 67.172 28.502 67.104 28.742 66.968C28.982 66.824 29.17 66.624 29.306 66.368C29.442 66.112 29.51 65.82 29.51 65.492H29.906C29.906 66.308 29.73 66.956 29.378 67.436C29.034 67.908 28.506 68.144 27.794 68.144ZM34.7975 68.144C34.1975 68.144 33.6655 68.012 33.2015 67.748C32.7375 67.476 32.3735 67.104 32.1095 66.632C31.8535 66.16 31.7255 65.616 31.7255 65C31.7255 64.384 31.8535 63.84 32.1095 63.368C32.3735 62.896 32.7335 62.528 33.1895 62.264C33.6535 61.992 34.1815 61.856 34.7735 61.856C35.3575 61.856 35.8815 61.992 36.3455 62.264C36.8175 62.536 37.1695 62.924 37.4015 63.428L36.3695 63.86C36.2175 63.564 35.9975 63.332 35.7095 63.164C35.4295 62.996 35.1055 62.912 34.7375 62.912C34.3775 62.912 34.0575 63 33.7775 63.176C33.4975 63.352 33.2775 63.6 33.1175 63.92C32.9575 64.232 32.8775 64.592 32.8775 65C32.8775 65.408 32.9575 65.768 33.1175 66.08C33.2775 66.392 33.5015 66.64 33.7895 66.824C34.0775 67 34.4015 67.088 34.7615 67.088C35.1295 67.088 35.4575 66.996 35.7455 66.812C36.0335 66.62 36.2495 66.364 36.3935 66.044L37.4375 66.464C37.2055 66.992 36.8535 67.404 36.3815 67.7C35.9175 67.996 35.3895 68.144 34.7975 68.144ZM42.2494 68L42.2014 66.956V64.868C42.2014 64.428 42.1494 64.06 42.0454 63.764C41.9494 63.468 41.7974 63.244 41.5894 63.092C41.3894 62.94 41.1214 62.864 40.7854 62.864C40.4734 62.864 40.2014 62.928 39.9694 63.056C39.7454 63.184 39.5574 63.384 39.4054 63.656L38.3974 63.272C38.5414 63 38.7214 62.76 38.9374 62.552C39.1534 62.336 39.4134 62.168 39.7174 62.048C40.0214 61.92 40.3774 61.856 40.7854 61.856C41.3534 61.856 41.8254 61.968 42.2014 62.192C42.5774 62.416 42.8574 62.74 43.0414 63.164C43.2334 63.588 43.3254 64.112 43.3174 64.736L43.3054 68H42.2494ZM40.4854 68.144C39.7734 68.144 39.2174 67.984 38.8174 67.664C38.4254 67.336 38.2294 66.884 38.2294 66.308C38.2294 65.692 38.4334 65.224 38.8414 64.904C39.2574 64.576 39.8334 64.412 40.5694 64.412H42.2374V65.312H40.8814C40.3294 65.312 39.9414 65.4 39.7174 65.576C39.4934 65.744 39.3814 65.98 39.3814 66.284C39.3814 66.564 39.4854 66.784 39.6934 66.944C39.9094 67.096 40.2054 67.172 40.5814 67.172C40.9094 67.172 41.1934 67.104 41.4334 66.968C41.6734 66.824 41.8614 66.624 41.9974 66.368C42.1334 66.112 42.2014 65.82 42.2014 65.492H42.5974C42.5974 66.308 42.4214 66.956 42.0694 67.436C41.7254 67.908 41.1974 68.144 40.4854 68.144ZM45.8569 66.188L45.1489 65.408L48.3049 62H49.6969L45.8569 66.188ZM44.7529 68V59.6H45.8929V68H44.7529ZM48.5569 68L46.3489 64.712L47.0929 63.92L49.9249 68H48.5569ZM23.6296 85.144C23.1816 85.144 22.7736 85.092 22.4056 84.988C22.0456 84.884 21.7296 84.744 21.4576 84.568C21.1936 84.384 20.9736 84.18 20.7976 83.956C20.6216 83.732 20.4976 83.496 20.4256 83.248L21.5656 82.876C21.6856 83.204 21.9136 83.488 22.2496 83.728C22.5856 83.968 22.9976 84.092 23.4856 84.1C24.0776 84.1 24.5416 83.984 24.8776 83.752C25.2216 83.512 25.3936 83.196 25.3936 82.804C25.3936 82.444 25.2456 82.152 24.9496 81.928C24.6536 81.696 24.2616 81.52 23.7736 81.4L22.8016 81.148C22.4176 81.044 22.0656 80.896 21.7456 80.704C21.4336 80.512 21.1856 80.268 21.0016 79.972C20.8176 79.676 20.7256 79.32 20.7256 78.904C20.7256 78.136 20.9736 77.536 21.4696 77.104C21.9736 76.672 22.6976 76.456 23.6416 76.456C24.1856 76.456 24.6576 76.544 25.0576 76.72C25.4576 76.888 25.7856 77.112 26.0416 77.392C26.3056 77.672 26.4936 77.98 26.6056 78.316L25.4656 78.7C25.3296 78.34 25.0976 78.052 24.7696 77.836C24.4416 77.612 24.0376 77.5 23.5576 77.5C23.0536 77.5 22.6536 77.62 22.3576 77.86C22.0696 78.1 21.9256 78.428 21.9256 78.844C21.9256 79.196 22.0376 79.468 22.2616 79.66C22.4936 79.844 22.8016 79.984 23.1856 80.08L24.1576 80.32C24.9416 80.512 25.5456 80.832 25.9696 81.28C26.4016 81.72 26.6176 82.204 26.6176 82.732C26.6176 83.188 26.5016 83.6 26.2696 83.968C26.0456 84.328 25.7096 84.616 25.2616 84.832C24.8216 85.04 24.2776 85.144 23.6296 85.144ZM32.0693 85L31.9973 83.896V79H33.1253V85H32.0693ZM27.8453 82.072V79H28.9853V82.072H27.8453ZM28.9853 82.072C28.9853 82.608 29.0453 83.02 29.1653 83.308C29.2933 83.596 29.4693 83.796 29.6933 83.908C29.9173 84.02 30.1693 84.08 30.4493 84.088C30.9373 84.088 31.3173 83.916 31.5893 83.572C31.8613 83.228 31.9973 82.744 31.9973 82.12H32.4893C32.4893 82.752 32.3933 83.296 32.2013 83.752C32.0173 84.2 31.7533 84.544 31.4093 84.784C31.0653 85.024 30.6453 85.144 30.1493 85.144C29.6853 85.144 29.2773 85.048 28.9253 84.856C28.5813 84.664 28.3133 84.364 28.1213 83.956C27.9373 83.548 27.8453 83.02 27.8453 82.372V82.072H28.9853ZM35.4118 81.772C35.4118 81.124 35.5358 80.596 35.7838 80.188C36.0318 79.78 36.3518 79.476 36.7438 79.276C37.1358 79.076 37.5478 78.976 37.9798 78.976V80.056C37.6198 80.056 37.2758 80.112 36.9478 80.224C36.6278 80.328 36.3638 80.504 36.1558 80.752C35.9558 80.992 35.8558 81.32 35.8558 81.736L35.4118 81.772ZM34.7158 85V79H35.8558V85H34.7158ZM42.5834 85L42.5354 83.956V81.868C42.5354 81.428 42.4834 81.06 42.3794 80.764C42.2834 80.468 42.1314 80.244 41.9234 80.092C41.7234 79.94 41.4554 79.864 41.1194 79.864C40.8074 79.864 40.5354 79.928 40.3034 80.056C40.0794 80.184 39.8914 80.384 39.7394 80.656L38.7314 80.272C38.8754 80 39.0554 79.76 39.2714 79.552C39.4874 79.336 39.7474 79.168 40.0514 79.048C40.3554 78.92 40.7114 78.856 41.1194 78.856C41.6874 78.856 42.1594 78.968 42.5354 79.192C42.9114 79.416 43.1914 79.74 43.3754 80.164C43.5674 80.588 43.6594 81.112 43.6514 81.736L43.6394 85H42.5834ZM40.8194 85.144C40.1074 85.144 39.5514 84.984 39.1514 84.664C38.7594 84.336 38.5634 83.884 38.5634 83.308C38.5634 82.692 38.7674 82.224 39.1754 81.904C39.5914 81.576 40.1674 81.412 40.9034 81.412H42.5714V82.312H41.2154C40.6634 82.312 40.2754 82.4 40.0514 82.576C39.8274 82.744 39.7154 82.98 39.7154 83.284C39.7154 83.564 39.8194 83.784 40.0274 83.944C40.2434 84.096 40.5394 84.172 40.9154 84.172C41.2434 84.172 41.5274 84.104 41.7674 83.968C42.0074 83.824 42.1954 83.624 42.3314 83.368C42.4674 83.112 42.5354 82.82 42.5354 82.492H42.9314C42.9314 83.308 42.7554 83.956 42.4034 84.436C42.0594 84.908 41.5314 85.144 40.8194 85.144ZM47.4029 85.144C46.8029 85.144 46.3389 84.992 46.0109 84.688C45.6829 84.376 45.5189 83.932 45.5189 83.356V77.128H46.6589V83.188C46.6589 83.484 46.7309 83.712 46.8749 83.872C47.0269 84.024 47.2429 84.1 47.5229 84.1C47.6029 84.1 47.6909 84.084 47.7869 84.052C47.8829 84.02 47.9989 83.956 48.1349 83.86L48.5669 84.748C48.3589 84.884 48.1589 84.984 47.9669 85.048C47.7829 85.112 47.5949 85.144 47.4029 85.144ZM44.4989 79.984V79H48.3629V79.984H44.4989Z" fill="#25262B"/>
<defs>
<filter id="filter0_ii_615_9250" x="16.2417" y="13.1464" width="37.4" height="35.9869" filterUnits="userSpaceOnUse" color-interpolation-filters="sRGB">
<feFlood flood-opacity="0" result="BackgroundImageFix"/>
<feBlend mode="normal" in="SourceGraphic" in2="BackgroundImageFix" result="shape"/>
<feColorMatrix in="SourceAlpha" type="matrix" values="0 0 0 0 0 0 0 0 0 0 0 0 0 0 0 0 0 0 127 0" result="hardAlpha"/>
<feOffset dx="2.26667" dy="-2.26667"/>
<feGaussianBlur stdDeviation="2.26667"/>
<feComposite in2="hardAlpha" operator="arithmetic" k2="-1" k3="1"/>
<feColorMatrix type="matrix" values="0 0 0 0 0.101961 0 0 0 0 0.105882 0 0 0 0 0.117647 0 0 0 0.24 0"/>
<feBlend mode="normal" in2="shape" result="effect1_innerShadow_615_9250"/>
<feColorMatrix in="SourceAlpha" type="matrix" values="0 0 0 0 0 0 0 0 0 0 0 0 0 0 0 0 0 0 127 0" result="hardAlpha"/>
<feOffset dx="-1.13333" dy="1.13333"/>
<feGaussianBlur stdDeviation="1.13333"/>
<feComposite in2="hardAlpha" operator="arithmetic" k2="-1" k3="1"/>
<feColorMatrix type="matrix" values="0 0 0 0 0.901961 0 0 0 0 0.964706 0 0 0 0 0.972549 0 0 0 0.16 0"/>
<feBlend mode="normal" in2="effect1_innerShadow_615_9250" result="effect2_innerShadow_615_9250"/>
</filter>
<filter id="filter1_d_615_9250" x="-176.75" y="-156" width="422" height="421" filterUnits="userSpaceOnUse" color-interpolation-filters="sRGB">
<feFlood flood-opacity="0" result="BackgroundImageFix"/>
<feColorMatrix in="SourceAlpha" type="matrix" values="0 0 0 0 0 0 0 0 0 0 0 0 0 0 0 0 0 0 127 0" result="hardAlpha"/>
<feOffset dy="24"/>
<feGaussianBlur stdDeviation="100"/>
<feColorMatrix type="matrix" values="0 0 0 0 1 0 0 0 0 1 0 0 0 0 1 0 0 0 0.8 0"/>
<feBlend mode="normal" in2="BackgroundImageFix" result="effect1_dropShadow_615_9250"/>
<feBlend mode="normal" in="SourceGraphic" in2="effect1_dropShadow_615_9250" result="shape"/>
</filter>
<clipPath id="bgblur_1_615_9250_clip_path" transform="translate(176.75 156)"><path d="M23.25 21C23.25 20.4477 23.6977 20 24.25 20H44.25C44.8023 20 45.25 20.4477 45.25 21V37C45.25 39.2091 43.4591 41 41.25 41H25.25C24.1454 41 23.25 40.1046 23.25 39V21Z"/>
</clipPath><filter id="filter2_i_615_9250" x="16.2417" y="28.2366" width="35.1333" height="20.8968" filterUnits="userSpaceOnUse" color-interpolation-filters="sRGB">
<feFlood flood-opacity="0" result="BackgroundImageFix"/>
<feBlend mode="normal" in="SourceGraphic" in2="BackgroundImageFix" result="shape"/>
<feColorMatrix in="SourceAlpha" type="matrix" values="0 0 0 0 0 0 0 0 0 0 0 0 0 0 0 0 0 0 127 0" result="hardAlpha"/>
<feOffset dx="-1.13333" dy="1.13333"/>
<feGaussianBlur stdDeviation="1.13333"/>
<feComposite in2="hardAlpha" operator="arithmetic" k2="-1" k3="1"/>
<feColorMatrix type="matrix" values="0 0 0 0 0.901961 0 0 0 0 0.964706 0 0 0 0 0.972549 0 0 0 0.16 0"/>
<feBlend mode="normal" in2="shape" result="effect1_innerShadow_615_9250"/>
</filter>
<filter id="filter3_i_615_9250" x="17.375" y="34.2592" width="36.2667" height="13.7408" filterUnits="userSpaceOnUse" color-interpolation-filters="sRGB">
<feFlood flood-opacity="0" result="BackgroundImageFix"/>
<feBlend mode="normal" in="SourceGraphic" in2="BackgroundImageFix" result="shape"/>
<feColorMatrix in="SourceAlpha" type="matrix" values="0 0 0 0 0 0 0 0 0 0 0 0 0 0 0 0 0 0 127 0" result="hardAlpha"/>
<feOffset dx="2.26667" dy="-2.26667"/>
<feGaussianBlur stdDeviation="2.26667"/>
<feComposite in2="hardAlpha" operator="arithmetic" k2="-1" k3="1"/>
<feColorMatrix type="matrix" values="0 0 0 0 0.101961 0 0 0 0 0.105882 0 0 0 0 0.117647 0 0 0 0.24 0"/>
<feBlend mode="normal" in2="shape" result="effect1_innerShadow_615_9250"/>
</filter>
<linearGradient id="paint0_linear_615_9250" x1="34.25" y1="20" x2="34.25" y2="41.84" gradientUnits="userSpaceOnUse">
<stop stop-color="white"/>
<stop offset="1" stop-color="white" stop-opacity="0.12"/>
</linearGradient>
<linearGradient id="paint1_linear_615_9250" x1="49.25" y1="24.8" x2="26.5527" y2="54.4398" gradientUnits="userSpaceOnUse">
<stop stop-color="#003138" stop-opacity="0.2"/>
<stop offset="0.161064" stop-color="#003138" stop-opacity="0"/>
<stop offset="1" stop-color="#003138"/>
</linearGradient>
<linearGradient id="paint2_linear_615_9250" x1="34.25" y1="22" x2="34.25" y2="34" gradientUnits="userSpaceOnUse">
<stop stop-color="white"/>
<stop offset="1" stop-color="white" stop-opacity="0.12"/>
</linearGradient>
<linearGradient id="paint3_linear_615_9250" x1="49.25" y1="36.4" x2="41.399" y2="56.9045" gradientUnits="userSpaceOnUse">
<stop stop-color="#003138" stop-opacity="0.2"/>
<stop offset="0.161064" stop-color="#003138" stop-opacity="0"/>
<stop offset="1" stop-color="#003138"/>
</linearGradient>
<clipPath id="clip0_615_9250">
<rect width="40" height="40" fill="white" transform="translate(14.375 11)"/>
</clipPath>
<clipPath id="clip2_615_9250">
<rect width="8" height="8" fill="white" transform="translate(30.25 24)"/>
</clipPath>
</defs>
</svg>
