<svg width="80" height="80" viewBox="0 0 80 80" fill="none" xmlns="http://www.w3.org/2000/svg">
<rect width="80" height="80" rx="20" fill="#00A2B9" fill-opacity="0.1"/>
<path d="M26.957 60.8438C26.957 60.6445 26.9258 60.4688 26.8633 60.3164C26.8047 60.1602 26.6992 60.0195 26.5469 59.8945C26.3984 59.7695 26.1914 59.6504 25.9258 59.5371C25.6641 59.4238 25.332 59.3086 24.9297 59.1914C24.5078 59.0664 24.127 58.9277 23.7871 58.7754C23.4473 58.6191 23.1562 58.4414 22.9141 58.2422C22.6719 58.043 22.4863 57.8145 22.3574 57.5566C22.2285 57.2988 22.1641 57.0039 22.1641 56.6719C22.1641 56.3398 22.2324 56.0332 22.3691 55.752C22.5059 55.4707 22.7012 55.2266 22.9551 55.0195C23.2129 54.8086 23.5195 54.6445 23.875 54.5273C24.2305 54.4102 24.627 54.3516 25.0645 54.3516C25.7051 54.3516 26.248 54.4746 26.6934 54.7207C27.1426 54.9629 27.4844 55.2812 27.7188 55.6758C27.9531 56.0664 28.0703 56.4844 28.0703 56.9297H26.9453C26.9453 56.6094 26.877 56.3262 26.7402 56.0801C26.6035 55.8301 26.3965 55.6348 26.1191 55.4941C25.8418 55.3496 25.4902 55.2773 25.0645 55.2773C24.6621 55.2773 24.3301 55.3379 24.0684 55.459C23.8066 55.5801 23.6113 55.7441 23.4824 55.9512C23.3574 56.1582 23.2949 56.3945 23.2949 56.6602C23.2949 56.8398 23.332 57.0039 23.4062 57.1523C23.4844 57.2969 23.6035 57.4316 23.7637 57.5566C23.9277 57.6816 24.1348 57.7969 24.3848 57.9023C24.6387 58.0078 24.9414 58.1094 25.293 58.207C25.7773 58.3438 26.1953 58.4961 26.5469 58.6641C26.8984 58.832 27.1875 59.0215 27.4141 59.2324C27.6445 59.4395 27.8145 59.6758 27.9238 59.9414C28.0371 60.2031 28.0938 60.5 28.0938 60.832C28.0938 61.1797 28.0234 61.4941 27.8828 61.7754C27.7422 62.0566 27.541 62.2969 27.2793 62.4961C27.0176 62.6953 26.7031 62.8496 26.3359 62.959C25.9727 63.0645 25.5664 63.1172 25.1172 63.1172C24.7227 63.1172 24.334 63.0625 23.9512 62.9531C23.5723 62.8438 23.2266 62.6797 22.9141 62.4609C22.6055 62.2422 22.3574 61.9727 22.1699 61.6523C21.9863 61.3281 21.8945 60.9531 21.8945 60.5273H23.0195C23.0195 60.8203 23.0762 61.0723 23.1895 61.2832C23.3027 61.4902 23.457 61.6621 23.6523 61.7988C23.8516 61.9355 24.0762 62.0371 24.3262 62.1035C24.5801 62.166 24.8438 62.1973 25.1172 62.1973C25.5117 62.1973 25.8457 62.1426 26.1191 62.0332C26.3926 61.9238 26.5996 61.7676 26.7402 61.5645C26.8848 61.3613 26.957 61.1211 26.957 60.8438ZM32.002 63.1172C31.5605 63.1172 31.1602 63.043 30.8008 62.8945C30.4453 62.7422 30.1387 62.5293 29.8809 62.2559C29.627 61.9824 29.4316 61.6582 29.2949 61.2832C29.1582 60.9082 29.0898 60.498 29.0898 60.0527V59.8066C29.0898 59.291 29.166 58.832 29.3184 58.4297C29.4707 58.0234 29.6777 57.6797 29.9395 57.3984C30.2012 57.1172 30.498 56.9043 30.8301 56.7598C31.1621 56.6152 31.5059 56.543 31.8613 56.543C32.3145 56.543 32.7051 56.6211 33.0332 56.7773C33.3652 56.9336 33.6367 57.1523 33.8477 57.4336C34.0586 57.7109 34.2148 58.0391 34.3164 58.418C34.418 58.793 34.4688 59.2031 34.4688 59.6484V60.1348H29.7344V59.25H33.3848V59.168C33.3691 58.8867 33.3105 58.6133 33.209 58.3477C33.1113 58.082 32.9551 57.8633 32.7402 57.6914C32.5254 57.5195 32.2324 57.4336 31.8613 57.4336C31.6152 57.4336 31.3887 57.4863 31.1816 57.5918C30.9746 57.6934 30.7969 57.8457 30.6484 58.0488C30.5 58.252 30.3848 58.5 30.3027 58.793C30.2207 59.0859 30.1797 59.4238 30.1797 59.8066V60.0527C30.1797 60.3535 30.2207 60.6367 30.3027 60.9023C30.3887 61.1641 30.5117 61.3945 30.6719 61.5938C30.8359 61.793 31.0332 61.9492 31.2637 62.0625C31.498 62.1758 31.7637 62.2324 32.0605 62.2324C32.4434 62.2324 32.7676 62.1543 33.0332 61.998C33.2988 61.8418 33.5312 61.6328 33.7305 61.3711L34.3867 61.8926C34.25 62.0996 34.0762 62.2969 33.8652 62.4844C33.6543 62.6719 33.3945 62.8242 33.0859 62.9414C32.7812 63.0586 32.4199 63.1172 32.002 63.1172ZM36.8125 57.9199V63H35.7227V56.6602H36.7539L36.8125 57.9199ZM36.5898 59.5898L36.0859 59.5723C36.0898 59.1387 36.1465 58.7383 36.2559 58.3711C36.3652 58 36.5273 57.6777 36.7422 57.4043C36.957 57.1309 37.2246 56.9199 37.5449 56.7715C37.8652 56.6191 38.2363 56.543 38.6582 56.543C38.9551 56.543 39.2285 56.5859 39.4785 56.6719C39.7285 56.7539 39.9453 56.8848 40.1289 57.0645C40.3125 57.2441 40.4551 57.4746 40.5566 57.7559C40.6582 58.0371 40.709 58.377 40.709 58.7754V63H39.625V58.8281C39.625 58.4961 39.5684 58.2305 39.4551 58.0312C39.3457 57.832 39.1895 57.6875 38.9863 57.5977C38.7832 57.5039 38.5449 57.457 38.2715 57.457C37.9512 57.457 37.6836 57.5137 37.4688 57.627C37.2539 57.7402 37.082 57.8965 36.9531 58.0957C36.8242 58.2949 36.7305 58.5234 36.6719 58.7812C36.6172 59.0352 36.5898 59.3047 36.5898 59.5898ZM40.6973 58.9922L39.9707 59.2148C39.9746 58.8672 40.0312 58.5332 40.1406 58.2129C40.2539 57.8926 40.416 57.6074 40.627 57.3574C40.8418 57.1074 41.1055 56.9102 41.418 56.7656C41.7305 56.6172 42.0879 56.543 42.4902 56.543C42.8301 56.543 43.1309 56.5879 43.3926 56.6777C43.6582 56.7676 43.8809 56.9062 44.0605 57.0938C44.2441 57.2773 44.3828 57.5137 44.4766 57.8027C44.5703 58.0918 44.6172 58.4355 44.6172 58.834V63H43.5273V58.8223C43.5273 58.4668 43.4707 58.1914 43.3574 57.9961C43.248 57.7969 43.0918 57.6582 42.8887 57.5801C42.6895 57.498 42.4512 57.457 42.1738 57.457C41.9355 57.457 41.7246 57.498 41.541 57.5801C41.3574 57.6621 41.2031 57.7754 41.0781 57.9199C40.9531 58.0605 40.8574 58.2227 40.791 58.4062C40.7285 58.5898 40.6973 58.7852 40.6973 58.9922ZM50.1367 61.5352V56.6602H51.2266V63H50.1895L50.1367 61.5352ZM50.3418 60.1992L50.793 60.1875C50.793 60.6094 50.748 61 50.6582 61.3594C50.5723 61.7148 50.4316 62.0234 50.2363 62.2852C50.041 62.5469 49.7852 62.752 49.4688 62.9004C49.1523 63.0449 48.7676 63.1172 48.3145 63.1172C48.0059 63.1172 47.7227 63.0723 47.4648 62.9824C47.2109 62.8926 46.9922 62.7539 46.8086 62.5664C46.625 62.3789 46.4824 62.1348 46.3809 61.834C46.2832 61.5332 46.2344 61.1719 46.2344 60.75V56.6602H47.3184V60.7617C47.3184 61.0469 47.3496 61.2832 47.4121 61.4707C47.4785 61.6543 47.5664 61.8008 47.6758 61.9102C47.7891 62.0156 47.9141 62.0898 48.0508 62.1328C48.1914 62.1758 48.3359 62.1973 48.4844 62.1973C48.9453 62.1973 49.3105 62.1094 49.5801 61.9336C49.8496 61.7539 50.043 61.5137 50.1602 61.2129C50.2812 60.9082 50.3418 60.5703 50.3418 60.1992ZM56.6172 61.916V58.6523C56.6172 58.4023 56.5664 58.1855 56.4648 58.002C56.3672 57.8145 56.2188 57.6699 56.0195 57.5684C55.8203 57.4668 55.5742 57.416 55.2812 57.416C55.0078 57.416 54.7676 57.4629 54.5605 57.5566C54.3574 57.6504 54.1973 57.7734 54.0801 57.9258C53.9668 58.0781 53.9102 58.2422 53.9102 58.418H52.8262C52.8262 58.1914 52.8848 57.9668 53.002 57.7441C53.1191 57.5215 53.2871 57.3203 53.5059 57.1406C53.7285 56.957 53.9941 56.8125 54.3027 56.707C54.6152 56.5977 54.9629 56.543 55.3457 56.543C55.8066 56.543 56.2129 56.6211 56.5645 56.7773C56.9199 56.9336 57.1973 57.1699 57.3965 57.4863C57.5996 57.7988 57.7012 58.1914 57.7012 58.6641V61.6172C57.7012 61.8281 57.7188 62.0527 57.7539 62.291C57.793 62.5293 57.8496 62.7344 57.9238 62.9062V63H56.793C56.7383 62.875 56.6953 62.709 56.6641 62.502C56.6328 62.291 56.6172 62.0957 56.6172 61.916ZM56.8047 59.1562L56.8164 59.918H55.7207C55.4121 59.918 55.1367 59.9434 54.8945 59.9941C54.6523 60.041 54.4492 60.1133 54.2852 60.2109C54.1211 60.3086 53.9961 60.4316 53.9102 60.5801C53.8242 60.7246 53.7812 60.8945 53.7812 61.0898C53.7812 61.2891 53.8262 61.4707 53.916 61.6348C54.0059 61.7988 54.1406 61.9297 54.3203 62.0273C54.5039 62.1211 54.7285 62.168 54.9941 62.168C55.3262 62.168 55.6191 62.0977 55.873 61.957C56.127 61.8164 56.3281 61.6445 56.4766 61.4414C56.6289 61.2383 56.7109 61.041 56.7227 60.8496L57.1855 61.3711C57.1582 61.5352 57.084 61.7168 56.9629 61.916C56.8418 62.1152 56.6797 62.3066 56.4766 62.4902C56.2773 62.6699 56.0391 62.8203 55.7617 62.9414C55.4883 63.0586 55.1797 63.1172 54.8359 63.1172C54.4062 63.1172 54.0293 63.0332 53.7051 62.8652C53.3848 62.6973 53.1348 62.4727 52.9551 62.1914C52.7793 61.9062 52.6914 61.5879 52.6914 61.2363C52.6914 60.8965 52.7578 60.5977 52.8906 60.3398C53.0234 60.0781 53.2148 59.8613 53.4648 59.6895C53.7148 59.5137 54.0156 59.3809 54.3672 59.291C54.7188 59.2012 55.1113 59.1562 55.5449 59.1562H56.8047Z" fill="#666666"/>
<path d="M28 20H37.3333V29.3333H28V20Z" fill="#F3AF00" stroke="#F3AF00" stroke-linecap="round" stroke-linejoin="round"/>
<path d="M42.6667 20H52.0001V29.3333H42.6667V20Z" fill="#00A2B9" stroke="#00A2B9" stroke-width="2" stroke-linecap="round" stroke-linejoin="round"/>
<path d="M42.6667 34.6665H52.0001V43.9998H42.6667V34.6665Z" fill="#00A2B9" stroke="#00A2B9" stroke-width="2" stroke-linecap="round" stroke-linejoin="round"/>
<path d="M28 34.6665H37.3333V43.9998H28V34.6665Z" fill="#00A2B9" stroke="#00A2B9" stroke-width="2" stroke-linecap="round" stroke-linejoin="round"/>
</svg>
