<svg width="80" height="80" viewBox="0 0 80 80" fill="none" xmlns="http://www.w3.org/2000/svg">
<rect width="80" height="80" rx="20" fill="#00A2B9" fill-opacity="0.1"/>
<path d="M20.3379 54.4688V63H19.207V54.4688H20.3379ZM23.9121 58.3066V59.2324H20.0918V58.3066H23.9121ZM24.4922 54.4688V55.3945H20.0918V54.4688H24.4922ZM29.2148 61.916V58.6523C29.2148 58.4023 29.1641 58.1855 29.0625 58.002C28.9648 57.8145 28.8164 57.6699 28.6172 57.5684C28.418 57.4668 28.1719 57.416 27.8789 57.416C27.6055 57.416 27.3652 57.4629 27.1582 57.5566C26.9551 57.6504 26.7949 57.7734 26.6777 57.9258C26.5645 58.0781 26.5078 58.2422 26.5078 58.418H25.4238C25.4238 58.1914 25.4824 57.9668 25.5996 57.7441C25.7168 57.5215 25.8848 57.3203 26.1035 57.1406C26.3262 56.957 26.5918 56.8125 26.9004 56.707C27.2129 56.5977 27.5605 56.543 27.9434 56.543C28.4043 56.543 28.8105 56.6211 29.1621 56.7773C29.5176 56.9336 29.7949 57.1699 29.9941 57.4863C30.1973 57.7988 30.2988 58.1914 30.2988 58.6641V61.6172C30.2988 61.8281 30.3164 62.0527 30.3516 62.291C30.3906 62.5293 30.4473 62.7344 30.5215 62.9062V63H29.3906C29.3359 62.875 29.293 62.709 29.2617 62.502C29.2305 62.291 29.2148 62.0957 29.2148 61.916ZM29.4023 59.1562L29.4141 59.918H28.3184C28.0098 59.918 27.7344 59.9434 27.4922 59.9941C27.25 60.041 27.0469 60.1133 26.8828 60.2109C26.7188 60.3086 26.5938 60.4316 26.5078 60.5801C26.4219 60.7246 26.3789 60.8945 26.3789 61.0898C26.3789 61.2891 26.4238 61.4707 26.5137 61.6348C26.6035 61.7988 26.7383 61.9297 26.918 62.0273C27.1016 62.1211 27.3262 62.168 27.5918 62.168C27.9238 62.168 28.2168 62.0977 28.4707 61.957C28.7246 61.8164 28.9258 61.6445 29.0742 61.4414C29.2266 61.2383 29.3086 61.041 29.3203 60.8496L29.7832 61.3711C29.7559 61.5352 29.6816 61.7168 29.5605 61.916C29.4395 62.1152 29.2773 62.3066 29.0742 62.4902C28.875 62.6699 28.6367 62.8203 28.3594 62.9414C28.0859 63.0586 27.7773 63.1172 27.4336 63.1172C27.0039 63.1172 26.627 63.0332 26.3027 62.8652C25.9824 62.6973 25.7324 62.4727 25.5527 62.1914C25.377 61.9062 25.2891 61.5879 25.2891 61.2363C25.2891 60.8965 25.3555 60.5977 25.4883 60.3398C25.6211 60.0781 25.8125 59.8613 26.0625 59.6895C26.3125 59.5137 26.6133 59.3809 26.9648 59.291C27.3164 59.2012 27.709 59.1562 28.1426 59.1562H29.4023ZM35.6953 61.3184C35.6953 61.1621 35.6602 61.0176 35.5898 60.8848C35.5234 60.748 35.3848 60.625 35.1738 60.5156C34.9668 60.4023 34.6543 60.3047 34.2363 60.2227C33.8848 60.1484 33.5664 60.0605 33.2812 59.959C33 59.8574 32.7598 59.7344 32.5605 59.5898C32.3652 59.4453 32.2148 59.2754 32.1094 59.0801C32.0039 58.8848 31.9512 58.6562 31.9512 58.3945C31.9512 58.1445 32.0059 57.9082 32.1152 57.6855C32.2285 57.4629 32.3867 57.2656 32.5898 57.0938C32.7969 56.9219 33.0449 56.7871 33.334 56.6895C33.623 56.5918 33.9453 56.543 34.3008 56.543C34.8086 56.543 35.2422 56.6328 35.6016 56.8125C35.9609 56.9922 36.2363 57.2324 36.4277 57.5332C36.6191 57.8301 36.7148 58.1602 36.7148 58.5234H35.6309C35.6309 58.3477 35.5781 58.1777 35.4727 58.0137C35.3711 57.8457 35.2207 57.707 35.0215 57.5977C34.8262 57.4883 34.5859 57.4336 34.3008 57.4336C34 57.4336 33.7559 57.4805 33.5684 57.5742C33.3848 57.6641 33.25 57.7793 33.1641 57.9199C33.082 58.0605 33.041 58.209 33.041 58.3652C33.041 58.4824 33.0605 58.5879 33.0996 58.6816C33.1426 58.7715 33.2168 58.8555 33.3223 58.9336C33.4277 59.0078 33.5762 59.0781 33.7676 59.1445C33.959 59.2109 34.2031 59.2773 34.5 59.3438C35.0195 59.4609 35.4473 59.6016 35.7832 59.7656C36.1191 59.9297 36.3691 60.1309 36.5332 60.3691C36.6973 60.6074 36.7793 60.8965 36.7793 61.2363C36.7793 61.5137 36.7207 61.7676 36.6035 61.998C36.4902 62.2285 36.3242 62.4277 36.1055 62.5957C35.8906 62.7598 35.6328 62.8887 35.332 62.9824C35.0352 63.0723 34.7012 63.1172 34.3301 63.1172C33.7715 63.1172 33.2988 63.0176 32.9121 62.8184C32.5254 62.6191 32.2324 62.3613 32.0332 62.0449C31.834 61.7285 31.7344 61.3945 31.7344 61.043H32.8242C32.8398 61.3398 32.9258 61.5762 33.082 61.752C33.2383 61.9238 33.4297 62.0469 33.6562 62.1211C33.8828 62.1914 34.1074 62.2266 34.3301 62.2266C34.627 62.2266 34.875 62.1875 35.0742 62.1094C35.2773 62.0312 35.4316 61.9238 35.5371 61.7871C35.6426 61.6504 35.6953 61.4941 35.6953 61.3184ZM39.3809 56.6602V63H38.291V56.6602H39.3809ZM38.209 54.9785C38.209 54.8027 38.2617 54.6543 38.3672 54.5332C38.4766 54.4121 38.6367 54.3516 38.8477 54.3516C39.0547 54.3516 39.2129 54.4121 39.3223 54.5332C39.4355 54.6543 39.4922 54.8027 39.4922 54.9785C39.4922 55.1465 39.4355 55.291 39.3223 55.4121C39.2129 55.5293 39.0547 55.5879 38.8477 55.5879C38.6367 55.5879 38.4766 55.5293 38.3672 55.4121C38.2617 55.291 38.209 55.1465 38.209 54.9785ZM42.2988 54V63H41.209V54H42.2988ZM45.2168 56.6602V63H44.127V56.6602H45.2168ZM44.0449 54.9785C44.0449 54.8027 44.0977 54.6543 44.2031 54.5332C44.3125 54.4121 44.4727 54.3516 44.6836 54.3516C44.8906 54.3516 45.0488 54.4121 45.1582 54.5332C45.2715 54.6543 45.3281 54.8027 45.3281 54.9785C45.3281 55.1465 45.2715 55.291 45.1582 55.4121C45.0488 55.5293 44.8906 55.5879 44.6836 55.5879C44.4727 55.5879 44.3125 55.5293 44.2031 55.4121C44.0977 55.291 44.0449 55.1465 44.0449 54.9785ZM49.6113 56.6602V57.4922H46.1836V56.6602H49.6113ZM47.3438 55.1191H48.4277V61.4297C48.4277 61.6445 48.4609 61.8066 48.5273 61.916C48.5938 62.0254 48.6797 62.0977 48.7852 62.1328C48.8906 62.168 49.0039 62.1855 49.125 62.1855C49.2148 62.1855 49.3086 62.1777 49.4062 62.1621C49.5078 62.1426 49.584 62.127 49.6348 62.1152L49.6406 63C49.5547 63.0273 49.4414 63.0527 49.3008 63.0762C49.1641 63.1035 48.998 63.1172 48.8027 63.1172C48.5371 63.1172 48.293 63.0645 48.0703 62.959C47.8477 62.8535 47.6699 62.6777 47.5371 62.4316C47.4082 62.1816 47.3438 61.8457 47.3438 61.4238V55.1191ZM54.6211 61.916V58.6523C54.6211 58.4023 54.5703 58.1855 54.4688 58.002C54.3711 57.8145 54.2227 57.6699 54.0234 57.5684C53.8242 57.4668 53.5781 57.416 53.2852 57.416C53.0117 57.416 52.7715 57.4629 52.5645 57.5566C52.3613 57.6504 52.2012 57.7734 52.084 57.9258C51.9707 58.0781 51.9141 58.2422 51.9141 58.418H50.8301C50.8301 58.1914 50.8887 57.9668 51.0059 57.7441C51.123 57.5215 51.291 57.3203 51.5098 57.1406C51.7324 56.957 51.998 56.8125 52.3066 56.707C52.6191 56.5977 52.9668 56.543 53.3496 56.543C53.8105 56.543 54.2168 56.6211 54.5684 56.7773C54.9238 56.9336 55.2012 57.1699 55.4004 57.4863C55.6035 57.7988 55.7051 58.1914 55.7051 58.6641V61.6172C55.7051 61.8281 55.7227 62.0527 55.7578 62.291C55.7969 62.5293 55.8535 62.7344 55.9277 62.9062V63H54.7969C54.7422 62.875 54.6992 62.709 54.668 62.502C54.6367 62.291 54.6211 62.0957 54.6211 61.916ZM54.8086 59.1562L54.8203 59.918H53.7246C53.416 59.918 53.1406 59.9434 52.8984 59.9941C52.6562 60.041 52.4531 60.1133 52.2891 60.2109C52.125 60.3086 52 60.4316 51.9141 60.5801C51.8281 60.7246 51.7852 60.8945 51.7852 61.0898C51.7852 61.2891 51.8301 61.4707 51.9199 61.6348C52.0098 61.7988 52.1445 61.9297 52.3242 62.0273C52.5078 62.1211 52.7324 62.168 52.998 62.168C53.3301 62.168 53.623 62.0977 53.877 61.957C54.1309 61.8164 54.332 61.6445 54.4805 61.4414C54.6328 61.2383 54.7148 61.041 54.7266 60.8496L55.1895 61.3711C55.1621 61.5352 55.0879 61.7168 54.9668 61.916C54.8457 62.1152 54.6836 62.3066 54.4805 62.4902C54.2812 62.6699 54.043 62.8203 53.7656 62.9414C53.4922 63.0586 53.1836 63.1172 52.8398 63.1172C52.4102 63.1172 52.0332 63.0332 51.709 62.8652C51.3887 62.6973 51.1387 62.4727 50.959 62.1914C50.7832 61.9062 50.6953 61.5879 50.6953 61.2363C50.6953 60.8965 50.7617 60.5977 50.8945 60.3398C51.0273 60.0781 51.2188 59.8613 51.4688 59.6895C51.7188 59.5137 52.0195 59.3809 52.3711 59.291C52.7227 59.2012 53.1152 59.1562 53.5488 59.1562H54.8086ZM61.1016 61.3184C61.1016 61.1621 61.0664 61.0176 60.9961 60.8848C60.9297 60.748 60.791 60.625 60.5801 60.5156C60.373 60.4023 60.0605 60.3047 59.6426 60.2227C59.291 60.1484 58.9727 60.0605 58.6875 59.959C58.4062 59.8574 58.166 59.7344 57.9668 59.5898C57.7715 59.4453 57.6211 59.2754 57.5156 59.0801C57.4102 58.8848 57.3574 58.6562 57.3574 58.3945C57.3574 58.1445 57.4121 57.9082 57.5215 57.6855C57.6348 57.4629 57.793 57.2656 57.9961 57.0938C58.2031 56.9219 58.4512 56.7871 58.7402 56.6895C59.0293 56.5918 59.3516 56.543 59.707 56.543C60.2148 56.543 60.6484 56.6328 61.0078 56.8125C61.3672 56.9922 61.6426 57.2324 61.834 57.5332C62.0254 57.8301 62.1211 58.1602 62.1211 58.5234H61.0371C61.0371 58.3477 60.9844 58.1777 60.8789 58.0137C60.7773 57.8457 60.627 57.707 60.4277 57.5977C60.2324 57.4883 59.9922 57.4336 59.707 57.4336C59.4062 57.4336 59.1621 57.4805 58.9746 57.5742C58.791 57.6641 58.6562 57.7793 58.5703 57.9199C58.4883 58.0605 58.4473 58.209 58.4473 58.3652C58.4473 58.4824 58.4668 58.5879 58.5059 58.6816C58.5488 58.7715 58.623 58.8555 58.7285 58.9336C58.834 59.0078 58.9824 59.0781 59.1738 59.1445C59.3652 59.2109 59.6094 59.2773 59.9062 59.3438C60.4258 59.4609 60.8535 59.6016 61.1895 59.7656C61.5254 59.9297 61.7754 60.1309 61.9395 60.3691C62.1035 60.6074 62.1855 60.8965 62.1855 61.2363C62.1855 61.5137 62.127 61.7676 62.0098 61.998C61.8965 62.2285 61.7305 62.4277 61.5117 62.5957C61.2969 62.7598 61.0391 62.8887 60.7383 62.9824C60.4414 63.0723 60.1074 63.1172 59.7363 63.1172C59.1777 63.1172 58.7051 63.0176 58.3184 62.8184C57.9316 62.6191 57.6387 62.3613 57.4395 62.0449C57.2402 61.7285 57.1406 61.3945 57.1406 61.043H58.2305C58.2461 61.3398 58.332 61.5762 58.4883 61.752C58.6445 61.9238 58.8359 62.0469 59.0625 62.1211C59.2891 62.1914 59.5137 62.2266 59.7363 62.2266C60.0332 62.2266 60.2812 62.1875 60.4805 62.1094C60.6836 62.0312 60.8379 61.9238 60.9434 61.7871C61.0488 61.6504 61.1016 61.4941 61.1016 61.3184Z" fill="#666666"/>
<rect x="30.4" y="24" width="19.2" height="11.2" fill="white"/>
<path d="M30.6667 24.0002V34.6668H49.3333V24.0002H30.6667ZM30.6667 21.3335H49.3333C50.0406 21.3335 50.7189 21.6144 51.219 22.1145C51.719 22.6146 52 23.2929 52 24.0002V34.6668C52 35.3741 51.719 36.0524 51.219 36.5524C50.7189 37.0525 50.0406 37.3335 49.3333 37.3335H30.6667C29.9594 37.3335 29.2811 37.0525 28.781 36.5524C28.281 36.0524 28 35.3741 28 34.6668V24.0002C28 23.2929 28.281 22.6146 28.781 22.1145C29.2811 21.6144 29.9594 21.3335 30.6667 21.3335Z" fill="#00A2B9"/>
<path d="M28 42.6667H52C52.3536 42.6667 52.6927 42.5262 52.9428 42.2761C53.1928 42.0261 53.3333 41.687 53.3333 41.3333C53.3333 40.9797 53.1928 40.6406 52.9428 40.3905C52.6927 40.1405 52.3536 40 52 40H28C27.6463 40 27.3072 40.1405 27.0572 40.3905C26.8071 40.6406 26.6666 40.9797 26.6666 41.3333C26.6666 41.687 26.8071 42.0261 27.0572 42.2761C27.3072 42.5262 27.6463 42.6667 28 42.6667Z" fill="#F3AF00"/>
</svg>
