<svg width="80" height="80" viewBox="0 0 80 80" fill="none" xmlns="http://www.w3.org/2000/svg">
<rect width="80" height="80" rx="20" fill="#00A2B9"/>
<path d="M15.3379 54.4688V63H14.207V54.4688H15.3379ZM20.4883 54.4688L16.9434 58.4473L14.9512 60.5156L14.7637 59.3086L16.2637 57.6562L19.1289 54.4688H20.4883ZM19.3984 63L16.2402 58.8398L16.9141 57.9434L20.7461 63H19.3984ZM24.0566 63.1172C23.6152 63.1172 23.2148 63.043 22.8555 62.8945C22.5 62.7422 22.1934 62.5293 21.9355 62.2559C21.6816 61.9824 21.4863 61.6582 21.3496 61.2832C21.2129 60.9082 21.1445 60.498 21.1445 60.0527V59.8066C21.1445 59.291 21.2207 58.832 21.373 58.4297C21.5254 58.0234 21.7324 57.6797 21.9941 57.3984C22.2559 57.1172 22.5527 56.9043 22.8848 56.7598C23.2168 56.6152 23.5605 56.543 23.916 56.543C24.3691 56.543 24.7598 56.6211 25.0879 56.7773C25.4199 56.9336 25.6914 57.1523 25.9023 57.4336C26.1133 57.7109 26.2695 58.0391 26.3711 58.418C26.4727 58.793 26.5234 59.2031 26.5234 59.6484V60.1348H21.7891V59.25H25.4395V59.168C25.4238 58.8867 25.3652 58.6133 25.2637 58.3477C25.166 58.082 25.0098 57.8633 24.7949 57.6914C24.5801 57.5195 24.2871 57.4336 23.916 57.4336C23.6699 57.4336 23.4434 57.4863 23.2363 57.5918C23.0293 57.6934 22.8516 57.8457 22.7031 58.0488C22.5547 58.252 22.4395 58.5 22.3574 58.793C22.2754 59.0859 22.2344 59.4238 22.2344 59.8066V60.0527C22.2344 60.3535 22.2754 60.6367 22.3574 60.9023C22.4434 61.1641 22.5664 61.3945 22.7266 61.5938C22.8906 61.793 23.0879 61.9492 23.3184 62.0625C23.5527 62.1758 23.8184 62.2324 24.1152 62.2324C24.498 62.2324 24.8223 62.1543 25.0879 61.998C25.3535 61.8418 25.5859 61.6328 25.7852 61.3711L26.4414 61.8926C26.3047 62.0996 26.1309 62.2969 25.9199 62.4844C25.709 62.6719 25.4492 62.8242 25.1406 62.9414C24.8359 63.0586 24.4746 63.1172 24.0566 63.1172ZM28.873 54V63H27.7891V54H28.873ZM28.6152 59.5898L28.1641 59.5723C28.168 59.1387 28.2324 58.7383 28.3574 58.3711C28.4824 58 28.6582 57.6777 28.8848 57.4043C29.1113 57.1309 29.3809 56.9199 29.6934 56.7715C30.0098 56.6191 30.3594 56.543 30.7422 56.543C31.0547 56.543 31.3359 56.5859 31.5859 56.6719C31.8359 56.7539 32.0488 56.8867 32.2246 57.0703C32.4043 57.2539 32.541 57.4922 32.6348 57.7852C32.7285 58.0742 32.7754 58.4277 32.7754 58.8457V63H31.6855V58.834C31.6855 58.502 31.6367 58.2363 31.5391 58.0371C31.4414 57.834 31.2988 57.6875 31.1113 57.5977C30.9238 57.5039 30.6934 57.457 30.4199 57.457C30.1504 57.457 29.9043 57.5137 29.6816 57.627C29.4629 57.7402 29.2734 57.8965 29.1133 58.0957C28.957 58.2949 28.834 58.5234 28.7441 58.7812C28.6582 59.0352 28.6152 59.3047 28.6152 59.5898ZM38.1367 61.916V58.6523C38.1367 58.4023 38.0859 58.1855 37.9844 58.002C37.8867 57.8145 37.7383 57.6699 37.5391 57.5684C37.3398 57.4668 37.0938 57.416 36.8008 57.416C36.5273 57.416 36.2871 57.4629 36.0801 57.5566C35.877 57.6504 35.7168 57.7734 35.5996 57.9258C35.4863 58.0781 35.4297 58.2422 35.4297 58.418H34.3457C34.3457 58.1914 34.4043 57.9668 34.5215 57.7441C34.6387 57.5215 34.8066 57.3203 35.0254 57.1406C35.248 56.957 35.5137 56.8125 35.8223 56.707C36.1348 56.5977 36.4824 56.543 36.8652 56.543C37.3262 56.543 37.7324 56.6211 38.084 56.7773C38.4395 56.9336 38.7168 57.1699 38.916 57.4863C39.1191 57.7988 39.2207 58.1914 39.2207 58.6641V61.6172C39.2207 61.8281 39.2383 62.0527 39.2734 62.291C39.3125 62.5293 39.3691 62.7344 39.4434 62.9062V63H38.3125C38.2578 62.875 38.2148 62.709 38.1836 62.502C38.1523 62.291 38.1367 62.0957 38.1367 61.916ZM38.3242 59.1562L38.3359 59.918H37.2402C36.9316 59.918 36.6562 59.9434 36.4141 59.9941C36.1719 60.041 35.9688 60.1133 35.8047 60.2109C35.6406 60.3086 35.5156 60.4316 35.4297 60.5801C35.3438 60.7246 35.3008 60.8945 35.3008 61.0898C35.3008 61.2891 35.3457 61.4707 35.4355 61.6348C35.5254 61.7988 35.6602 61.9297 35.8398 62.0273C36.0234 62.1211 36.248 62.168 36.5137 62.168C36.8457 62.168 37.1387 62.0977 37.3926 61.957C37.6465 61.8164 37.8477 61.6445 37.9961 61.4414C38.1484 61.2383 38.2305 61.041 38.2422 60.8496L38.7051 61.3711C38.6777 61.5352 38.6035 61.7168 38.4824 61.916C38.3613 62.1152 38.1992 62.3066 37.9961 62.4902C37.7969 62.6699 37.5586 62.8203 37.2812 62.9414C37.0078 63.0586 36.6992 63.1172 36.3555 63.1172C35.9258 63.1172 35.5488 63.0332 35.2246 62.8652C34.9043 62.6973 34.6543 62.4727 34.4746 62.1914C34.2988 61.9062 34.2109 61.5879 34.2109 61.2363C34.2109 60.8965 34.2773 60.5977 34.4102 60.3398C34.543 60.0781 34.7344 59.8613 34.9844 59.6895C35.2344 59.5137 35.5352 59.3809 35.8867 59.291C36.2383 59.2012 36.6309 59.1562 37.0645 59.1562H38.3242ZM44.9219 61.7695V54H46.0117V63H45.0156L44.9219 61.7695ZM40.6562 59.9004V59.7773C40.6562 59.293 40.7148 58.8535 40.832 58.459C40.9531 58.0605 41.123 57.7188 41.3418 57.4336C41.5645 57.1484 41.8281 56.9297 42.1328 56.7773C42.4414 56.6211 42.7852 56.543 43.1641 56.543C43.5625 56.543 43.9102 56.6133 44.207 56.7539C44.5078 56.8906 44.7617 57.0918 44.9688 57.3574C45.1797 57.6191 45.3457 57.9355 45.4668 58.3066C45.5879 58.6777 45.6719 59.0977 45.7188 59.5664V60.1055C45.6758 60.5703 45.5918 60.9883 45.4668 61.3594C45.3457 61.7305 45.1797 62.0469 44.9688 62.3086C44.7617 62.5703 44.5078 62.7715 44.207 62.9121C43.9062 63.0488 43.5547 63.1172 43.1523 63.1172C42.7812 63.1172 42.4414 63.0371 42.1328 62.877C41.8281 62.7168 41.5645 62.4922 41.3418 62.2031C41.123 61.9141 40.9531 61.5742 40.832 61.1836C40.7148 60.7891 40.6562 60.3613 40.6562 59.9004ZM41.7461 59.7773V59.9004C41.7461 60.2168 41.7773 60.5137 41.8398 60.791C41.9062 61.0684 42.0078 61.3125 42.1445 61.5234C42.2812 61.7344 42.4551 61.9004 42.666 62.0215C42.877 62.1387 43.1289 62.1973 43.4219 62.1973C43.7812 62.1973 44.0762 62.1211 44.3066 61.9688C44.541 61.8164 44.7285 61.6152 44.8691 61.3652C45.0098 61.1152 45.1191 60.8438 45.1973 60.5508V59.1387C45.1504 58.9238 45.082 58.7168 44.9922 58.5176C44.9062 58.3145 44.793 58.1348 44.6523 57.9785C44.5156 57.8184 44.3457 57.6914 44.1426 57.5977C43.9434 57.5039 43.707 57.457 43.4336 57.457C43.1367 57.457 42.8809 57.5195 42.666 57.6445C42.4551 57.7656 42.2812 57.9336 42.1445 58.1484C42.0078 58.3594 41.9062 58.6055 41.8398 58.8867C41.7773 59.1641 41.7461 59.4609 41.7461 59.7773ZM48.877 56.6602V63H47.7871V56.6602H48.877ZM47.7051 54.9785C47.7051 54.8027 47.7578 54.6543 47.8633 54.5332C47.9727 54.4121 48.1328 54.3516 48.3438 54.3516C48.5508 54.3516 48.709 54.4121 48.8184 54.5332C48.9316 54.6543 48.9883 54.8027 48.9883 54.9785C48.9883 55.1465 48.9316 55.291 48.8184 55.4121C48.709 55.5293 48.5508 55.5879 48.3438 55.5879C48.1328 55.5879 47.9727 55.5293 47.8633 55.4121C47.7578 55.291 47.7051 55.1465 47.7051 54.9785ZM51.7012 57.6562V63H50.6172V56.6602H51.6719L51.7012 57.6562ZM53.6816 56.625L53.6758 57.6328C53.5859 57.6133 53.5 57.6016 53.418 57.5977C53.3398 57.5898 53.25 57.5859 53.1484 57.5859C52.8984 57.5859 52.6777 57.625 52.4863 57.7031C52.2949 57.7812 52.1328 57.8906 52 58.0312C51.8672 58.1719 51.7617 58.3398 51.6836 58.5352C51.6094 58.7266 51.5605 58.9375 51.5371 59.168L51.2324 59.3438C51.2324 58.9609 51.2695 58.6016 51.3438 58.2656C51.4219 57.9297 51.541 57.6328 51.7012 57.375C51.8613 57.1133 52.0645 56.9102 52.3105 56.7656C52.5605 56.6172 52.8574 56.543 53.2012 56.543C53.2793 56.543 53.3691 56.5527 53.4707 56.5723C53.5723 56.5879 53.6426 56.6055 53.6816 56.625ZM58.1875 61.916V58.6523C58.1875 58.4023 58.1367 58.1855 58.0352 58.002C57.9375 57.8145 57.7891 57.6699 57.5898 57.5684C57.3906 57.4668 57.1445 57.416 56.8516 57.416C56.5781 57.416 56.3379 57.4629 56.1309 57.5566C55.9277 57.6504 55.7676 57.7734 55.6504 57.9258C55.5371 58.0781 55.4805 58.2422 55.4805 58.418H54.3965C54.3965 58.1914 54.4551 57.9668 54.5723 57.7441C54.6895 57.5215 54.8574 57.3203 55.0762 57.1406C55.2988 56.957 55.5645 56.8125 55.873 56.707C56.1855 56.5977 56.5332 56.543 56.916 56.543C57.377 56.543 57.7832 56.6211 58.1348 56.7773C58.4902 56.9336 58.7676 57.1699 58.9668 57.4863C59.1699 57.7988 59.2715 58.1914 59.2715 58.6641V61.6172C59.2715 61.8281 59.2891 62.0527 59.3242 62.291C59.3633 62.5293 59.4199 62.7344 59.4941 62.9062V63H58.3633C58.3086 62.875 58.2656 62.709 58.2344 62.502C58.2031 62.291 58.1875 62.0957 58.1875 61.916ZM58.375 59.1562L58.3867 59.918H57.291C56.9824 59.918 56.707 59.9434 56.4648 59.9941C56.2227 60.041 56.0195 60.1133 55.8555 60.2109C55.6914 60.3086 55.5664 60.4316 55.4805 60.5801C55.3945 60.7246 55.3516 60.8945 55.3516 61.0898C55.3516 61.2891 55.3965 61.4707 55.4863 61.6348C55.5762 61.7988 55.7109 61.9297 55.8906 62.0273C56.0742 62.1211 56.2988 62.168 56.5645 62.168C56.8965 62.168 57.1895 62.0977 57.4434 61.957C57.6973 61.8164 57.8984 61.6445 58.0469 61.4414C58.1992 61.2383 58.2812 61.041 58.293 60.8496L58.7559 61.3711C58.7285 61.5352 58.6543 61.7168 58.5332 61.916C58.4121 62.1152 58.25 62.3066 58.0469 62.4902C57.8477 62.6699 57.6094 62.8203 57.332 62.9414C57.0586 63.0586 56.75 63.1172 56.4062 63.1172C55.9766 63.1172 55.5996 63.0332 55.2754 62.8652C54.9551 62.6973 54.7051 62.4727 54.5254 62.1914C54.3496 61.9062 54.2617 61.5879 54.2617 61.2363C54.2617 60.8965 54.3281 60.5977 54.4609 60.3398C54.5938 60.0781 54.7852 59.8613 55.0352 59.6895C55.2852 59.5137 55.5859 59.3809 55.9375 59.291C56.2891 59.2012 56.6816 59.1562 57.1152 59.1562H58.375ZM62.0605 58.0137V63H60.9766V56.6602H62.002L62.0605 58.0137ZM61.8027 59.5898L61.3516 59.5723C61.3555 59.1387 61.4199 58.7383 61.5449 58.3711C61.6699 58 61.8457 57.6777 62.0723 57.4043C62.2988 57.1309 62.5684 56.9199 62.8809 56.7715C63.1973 56.6191 63.5469 56.543 63.9297 56.543C64.2422 56.543 64.5234 56.5859 64.7734 56.6719C65.0234 56.7539 65.2363 56.8867 65.4121 57.0703C65.5918 57.2539 65.7285 57.4922 65.8223 57.7852C65.916 58.0742 65.9629 58.4277 65.9629 58.8457V63H64.873V58.834C64.873 58.502 64.8242 58.2363 64.7266 58.0371C64.6289 57.834 64.4863 57.6875 64.2988 57.5977C64.1113 57.5039 63.8809 57.457 63.6074 57.457C63.3379 57.457 63.0918 57.5137 62.8691 57.627C62.6504 57.7402 62.4609 57.8965 62.3008 58.0957C62.1445 58.2949 62.0215 58.5234 61.9316 58.7812C61.8457 59.0352 61.8027 59.3047 61.8027 59.5898Z" fill="white"/>
<path d="M34 33.3333V26C34 25.4696 34.2107 24.9609 34.5858 24.5858C34.9609 24.2107 35.4696 24 36 24C36.5304 24 37.0391 24.2107 37.4142 24.5858C37.7893 24.9609 38 25.4696 38 26V33.3333" stroke="white" stroke-width="2" stroke-linecap="round" stroke-linejoin="round"/>
<path d="M50 32.6666V37C50 41.234 46.5673 44.6666 42.3333 44.6666H41.6667C37.4327 44.6666 34 41.234 34 37V32.6666" stroke="white" stroke-width="2" stroke-linecap="round" stroke-linejoin="round"/>
<path d="M38 35.3333V32C38 31.4696 38.2107 30.9609 38.5858 30.5858C38.9609 30.2107 39.4696 30 40 30C40.5304 30 41.0391 30.2107 41.4142 30.5858C41.7893 30.9609 42 31.4696 42 32V35.3333" stroke="white" stroke-width="2" stroke-linecap="round" stroke-linejoin="round"/>
<path d="M42 35.3333V32C42 31.4696 42.2107 30.9609 42.5858 30.5858C42.9609 30.2107 43.4696 30 44 30C44.5304 30 45.0391 30.2107 45.4142 30.5858C45.7893 30.9609 46 31.4696 46 32V35.3333" stroke="white" stroke-width="2" stroke-linecap="round" stroke-linejoin="round"/>
<path d="M46 35.3333V32C46 31.4696 46.2107 30.9609 46.5858 30.5858C46.9609 30.2107 47.4696 30 48 30C48.5304 30 49.0391 30.2107 49.4142 30.5858C49.7893 30.9609 50 31.4696 50 32V35.3333" stroke="white" stroke-width="2" stroke-linecap="round" stroke-linejoin="round"/>
<path d="M42.6666 26C42.6683 24.573 42.2106 23.1834 41.3613 22.0367C40.7418 21.1976 39.9339 20.5159 39.0027 20.0463C38.0714 19.5767 37.0429 19.3325 35.9999 19.3334C34.957 19.3325 33.9284 19.5767 32.9972 20.0463C32.0659 20.5159 31.258 21.1976 30.6386 22.0367C29.7892 23.1834 29.3315 24.573 29.3333 26" stroke="white" stroke-width="2" stroke-linecap="round"/>
</svg>
