<svg width="80" height="80" viewBox="0 0 80 80" fill="none" xmlns="http://www.w3.org/2000/svg">
<rect width="80" height="80" rx="20" fill="#00A2B9"/>
<path d="M29.6074 58.1367V59.0566H24.9902V58.1367H29.6074ZM25.166 54.4688V63H24.0352V54.4688H25.166ZM30.5918 54.4688V63H29.4668V54.4688H30.5918ZM35.0684 63.1172C34.627 63.1172 34.2266 63.043 33.8672 62.8945C33.5117 62.7422 33.2051 62.5293 32.9473 62.2559C32.6934 61.9824 32.498 61.6582 32.3613 61.2832C32.2246 60.9082 32.1562 60.498 32.1562 60.0527V59.8066C32.1562 59.291 32.2324 58.832 32.3848 58.4297C32.5371 58.0234 32.7441 57.6797 33.0059 57.3984C33.2676 57.1172 33.5645 56.9043 33.8965 56.7598C34.2285 56.6152 34.5723 56.543 34.9277 56.543C35.3809 56.543 35.7715 56.6211 36.0996 56.7773C36.4316 56.9336 36.7031 57.1523 36.9141 57.4336C37.125 57.7109 37.2812 58.0391 37.3828 58.418C37.4844 58.793 37.5352 59.2031 37.5352 59.6484V60.1348H32.8008V59.25H36.4512V59.168C36.4355 58.8867 36.377 58.6133 36.2754 58.3477C36.1777 58.082 36.0215 57.8633 35.8066 57.6914C35.5918 57.5195 35.2988 57.4336 34.9277 57.4336C34.6816 57.4336 34.4551 57.4863 34.248 57.5918C34.041 57.6934 33.8633 57.8457 33.7148 58.0488C33.5664 58.252 33.4512 58.5 33.3691 58.793C33.2871 59.0859 33.2461 59.4238 33.2461 59.8066V60.0527C33.2461 60.3535 33.2871 60.6367 33.3691 60.9023C33.4551 61.1641 33.5781 61.3945 33.7383 61.5938C33.9023 61.793 34.0996 61.9492 34.3301 62.0625C34.5645 62.1758 34.8301 62.2324 35.127 62.2324C35.5098 62.2324 35.834 62.1543 36.0996 61.998C36.3652 61.8418 36.5977 61.6328 36.7969 61.3711L37.4531 61.8926C37.3164 62.0996 37.1426 62.2969 36.9316 62.4844C36.7207 62.6719 36.4609 62.8242 36.1523 62.9414C35.8477 63.0586 35.4863 63.1172 35.0684 63.1172ZM42.5391 61.916V58.6523C42.5391 58.4023 42.4883 58.1855 42.3867 58.002C42.2891 57.8145 42.1406 57.6699 41.9414 57.5684C41.7422 57.4668 41.4961 57.416 41.2031 57.416C40.9297 57.416 40.6895 57.4629 40.4824 57.5566C40.2793 57.6504 40.1191 57.7734 40.002 57.9258C39.8887 58.0781 39.832 58.2422 39.832 58.418H38.748C38.748 58.1914 38.8066 57.9668 38.9238 57.7441C39.041 57.5215 39.209 57.3203 39.4277 57.1406C39.6504 56.957 39.916 56.8125 40.2246 56.707C40.5371 56.5977 40.8848 56.543 41.2676 56.543C41.7285 56.543 42.1348 56.6211 42.4863 56.7773C42.8418 56.9336 43.1191 57.1699 43.3184 57.4863C43.5215 57.7988 43.623 58.1914 43.623 58.6641V61.6172C43.623 61.8281 43.6406 62.0527 43.6758 62.291C43.7148 62.5293 43.7715 62.7344 43.8457 62.9062V63H42.7148C42.6602 62.875 42.6172 62.709 42.5859 62.502C42.5547 62.291 42.5391 62.0957 42.5391 61.916ZM42.7266 59.1562L42.7383 59.918H41.6426C41.334 59.918 41.0586 59.9434 40.8164 59.9941C40.5742 60.041 40.3711 60.1133 40.207 60.2109C40.043 60.3086 39.918 60.4316 39.832 60.5801C39.7461 60.7246 39.7031 60.8945 39.7031 61.0898C39.7031 61.2891 39.748 61.4707 39.8379 61.6348C39.9277 61.7988 40.0625 61.9297 40.2422 62.0273C40.4258 62.1211 40.6504 62.168 40.916 62.168C41.248 62.168 41.541 62.0977 41.7949 61.957C42.0488 61.8164 42.25 61.6445 42.3984 61.4414C42.5508 61.2383 42.6328 61.041 42.6445 60.8496L43.1074 61.3711C43.0801 61.5352 43.0059 61.7168 42.8848 61.916C42.7637 62.1152 42.6016 62.3066 42.3984 62.4902C42.1992 62.6699 41.9609 62.8203 41.6836 62.9414C41.4102 63.0586 41.1016 63.1172 40.7578 63.1172C40.3281 63.1172 39.9512 63.0332 39.627 62.8652C39.3066 62.6973 39.0566 62.4727 38.877 62.1914C38.7012 61.9062 38.6133 61.5879 38.6133 61.2363C38.6133 60.8965 38.6797 60.5977 38.8125 60.3398C38.9453 60.0781 39.1367 59.8613 39.3867 59.6895C39.6367 59.5137 39.9375 59.3809 40.2891 59.291C40.6406 59.2012 41.0332 59.1562 41.4668 59.1562H42.7266ZM46.5059 54V63H45.416V54H46.5059ZM50.9004 56.6602V57.4922H47.4727V56.6602H50.9004ZM48.6328 55.1191H49.7168V61.4297C49.7168 61.6445 49.75 61.8066 49.8164 61.916C49.8828 62.0254 49.9688 62.0977 50.0742 62.1328C50.1797 62.168 50.293 62.1855 50.4141 62.1855C50.5039 62.1855 50.5977 62.1777 50.6953 62.1621C50.7969 62.1426 50.873 62.127 50.9238 62.1152L50.9297 63C50.8438 63.0273 50.7305 63.0527 50.5898 63.0762C50.4531 63.1035 50.2871 63.1172 50.0918 63.1172C49.8262 63.1172 49.582 63.0645 49.3594 62.959C49.1367 62.8535 48.959 62.6777 48.8262 62.4316C48.6973 62.1816 48.6328 61.8457 48.6328 61.4238V55.1191ZM53.2559 54V63H52.1719V54H53.2559ZM52.998 59.5898L52.5469 59.5723C52.5508 59.1387 52.6152 58.7383 52.7402 58.3711C52.8652 58 53.041 57.6777 53.2676 57.4043C53.4941 57.1309 53.7637 56.9199 54.0762 56.7715C54.3926 56.6191 54.7422 56.543 55.125 56.543C55.4375 56.543 55.7188 56.5859 55.9688 56.6719C56.2188 56.7539 56.4316 56.8867 56.6074 57.0703C56.7871 57.2539 56.9238 57.4922 57.0176 57.7852C57.1113 58.0742 57.1582 58.4277 57.1582 58.8457V63H56.0684V58.834C56.0684 58.502 56.0195 58.2363 55.9219 58.0371C55.8242 57.834 55.6816 57.6875 55.4941 57.5977C55.3066 57.5039 55.0762 57.457 54.8027 57.457C54.5332 57.457 54.2871 57.5137 54.0645 57.627C53.8457 57.7402 53.6562 57.8965 53.4961 58.0957C53.3398 58.2949 53.2168 58.5234 53.127 58.7812C53.041 59.0352 52.998 59.3047 52.998 59.5898Z" fill="white"/>
<path d="M40 45.3334C40 45.3334 50.6667 40.0001 50.6667 32.0001V22.6667L40 18.6667L29.3333 22.6667V32.0001C29.3333 40.0001 40 45.3334 40 45.3334Z" fill="#00A2B9" stroke="#FAFAFA" stroke-width="2" stroke-linecap="round" stroke-linejoin="round"/>
<path d="M40 26.3333V35.6666" stroke="white" stroke-width="2" stroke-linecap="round" stroke-linejoin="round"/>
<path d="M35.3333 31H44.6667" stroke="white" stroke-width="2" stroke-linecap="round" stroke-linejoin="round"/>
</svg>
