<svg width="120" height="120" viewBox="0 0 120 120" fill="none" xmlns="http://www.w3.org/2000/svg">
<defs>
<linearGradient id="paint0_linear_24720_173528" x1="59.9993" y1="33.3331" x2="59.9993" y2="86.6665" gradientUnits="userSpaceOnUse">
<stop stop-color="#01C6E2"/>
<stop offset="1" stop-color="#007CA4"/>
</linearGradient>
</defs>
<mask id="mask0_24720_173528" style="mask-type:alpha" maskUnits="userSpaceOnUse" x="0" y="0" width="120" height="120">
<circle cx="60" cy="60" r="60" fill="#00A2B9"/>
</mask>
<g mask="url(#mask0_24720_173528)">
<path opacity="0.1" d="M-134.157 79.0387L-137.647 67.7073V137.647H176.47V-15.8823L172.98 -8.85354C169.49 -1.82476 162.509 12.2328 155.529 14.1793C148.549 16.1258 141.568 5.96122 134.588 15.3127C127.607 24.6642 120.627 53.5318 113.647 62.5378C106.666 71.5439 99.6859 60.6883 92.7055 60.7994C85.7251 60.9105 78.7447 71.9883 71.7643 72.8956C64.7839 73.803 57.8035 64.54 50.8231 66.6732C43.8427 68.8063 36.8623 82.3357 29.8819 82.6424C22.9016 82.9491 15.9212 70.0332 8.94077 65.9694C1.96037 61.9056 -5.02002 66.6939 -12.0004 77.6776C-18.9808 88.6613 -25.9612 105.84 -32.9416 109.09C-39.922 112.339 -46.9024 101.659 -53.8828 92.0708C-60.8632 82.4831 -67.8435 73.9882 -74.8239 71.9378C-81.8043 69.8875 -88.7847 74.2818 -95.7651 85.9822C-102.746 97.6827 -109.726 116.689 -116.706 114.861C-123.687 113.033 -130.667 90.3702 -134.157 79.0387Z" fill="#229BD8"/>
<path fill-rule="evenodd" clip-rule="evenodd" d="M43.9993 33.3331H75.9993C77.4138 33.3331 78.7704 33.895 79.7706 34.8952C80.7708 35.8954 81.3327 37.252 81.3327 38.6665V86.6665H65.9995V74.9999H53.9995V86.6665H38.666V38.6665C38.666 37.252 39.2279 35.8954 40.2281 34.8952C41.2283 33.895 42.5849 33.3331 43.9993 33.3331ZM43.9993 81.3331H43.9995V38.6665H43.9993V81.3331Z" fill="url(#paint0_linear_24720_173528)"/>
<path fill-rule="evenodd" clip-rule="evenodd" d="M49.333 43.9999H57.333V51.9999H49.333V43.9999ZM57.333 57.3332H49.333V65.3332H57.333V57.3332ZM70.6663 57.3332H62.6663V65.3332H70.6663V57.3332ZM62.666 43.9999H70.666V51.9999H62.666V43.9999Z" fill="white"/>
<circle opacity="0.1" cx="60" cy="60" r="60" fill="#00A2B9"/>
</g>
<path d="M115.314 27.3137C118.314 24.3131 120 20.2435 120 16C120 11.7565 118.314 7.68687 115.314 4.68629C112.313 1.68571 108.243 0 104 0C99.7565 0 95.6869 1.68571 92.6863 4.68629C89.6857 7.68687 88 11.7565 88 16C88 20.2435 89.6857 24.3131 92.6863 27.3137C95.6869 30.3143 99.7565 32 104 32C108.243 32 112.313 30.3143 115.314 27.3137Z" fill="#5AA200"/>
<path d="M111.793 9.02125C112.009 9.11088 112.205 9.24223 112.37 9.40779C112.536 9.57293 112.667 9.76911 112.757 9.98509C112.846 10.2011 112.893 10.4326 112.893 10.6665C112.893 10.9003 112.846 11.1318 112.757 11.3478C112.667 11.5638 112.536 11.76 112.37 11.9251L101.704 22.5918C101.538 22.7573 101.342 22.8887 101.126 22.9783C100.91 23.0679 100.679 23.1141 100.445 23.1141C100.211 23.1141 99.9796 23.0679 99.7636 22.9783C99.5476 22.8887 99.3514 22.7573 99.1863 22.5918L95.6307 19.0362C95.2969 18.7024 95.1094 18.2497 95.1094 17.7776C95.1094 17.3055 95.2969 16.8527 95.6307 16.5189C95.9645 16.1851 96.4173 15.9975 96.8894 15.9975C97.3615 15.9975 97.8142 16.1851 98.1481 16.5189L100.445 18.8193L109.853 9.40779C110.018 9.24223 110.214 9.11088 110.43 9.02125C110.646 8.93163 110.878 8.8855 111.112 8.8855C111.345 8.8855 111.577 8.93163 111.793 9.02125Z" fill="#F1F1F1"/>

</svg>
