<svg width="80" height="80" viewBox="0 0 80 80" fill="none" xmlns="http://www.w3.org/2000/svg">
<rect width="80" height="80" rx="20" fill="#00A2B9"/>
<path d="M17.4023 54.4688H18.498L21.293 61.4238L24.082 54.4688H25.1836L21.7148 63H20.8594L17.4023 54.4688ZM17.0449 54.4688H18.0117L18.1699 59.6719V63H17.0449V54.4688ZM24.5684 54.4688H25.5352V63H24.4102V59.6719L24.5684 54.4688ZM29.1387 62.3438L30.9023 56.6602H32.0625L29.5195 63.9785C29.4609 64.1348 29.3828 64.3027 29.2852 64.4824C29.1914 64.666 29.0703 64.8398 28.9219 65.0039C28.7734 65.168 28.5938 65.3008 28.3828 65.4023C28.1758 65.5078 27.9277 65.5605 27.6387 65.5605C27.5527 65.5605 27.4434 65.5488 27.3105 65.5254C27.1777 65.502 27.084 65.4824 27.0293 65.4668L27.0234 64.5879C27.0547 64.5918 27.1035 64.5957 27.1699 64.5996C27.2402 64.6074 27.2891 64.6113 27.3164 64.6113C27.5625 64.6113 27.7715 64.5781 27.9434 64.5117C28.1152 64.4492 28.2598 64.3418 28.377 64.1895C28.498 64.041 28.6016 63.8359 28.6875 63.5742L29.1387 62.3438ZM27.8438 56.6602L29.4902 61.582L29.7715 62.7246L28.9922 63.123L26.6602 56.6602H27.8438ZM39.0996 54.4688V63H37.9863V54.4688H39.0996ZM41.8418 54.4688V55.3945H35.25V54.4688H41.8418ZM44.9883 63.1172C44.5469 63.1172 44.1465 63.043 43.7871 62.8945C43.4316 62.7422 43.125 62.5293 42.8672 62.2559C42.6133 61.9824 42.418 61.6582 42.2812 61.2832C42.1445 60.9082 42.0762 60.498 42.0762 60.0527V59.8066C42.0762 59.291 42.1523 58.832 42.3047 58.4297C42.457 58.0234 42.6641 57.6797 42.9258 57.3984C43.1875 57.1172 43.4844 56.9043 43.8164 56.7598C44.1484 56.6152 44.4922 56.543 44.8477 56.543C45.3008 56.543 45.6914 56.6211 46.0195 56.7773C46.3516 56.9336 46.623 57.1523 46.834 57.4336C47.0449 57.7109 47.2012 58.0391 47.3027 58.418C47.4043 58.793 47.4551 59.2031 47.4551 59.6484V60.1348H42.7207V59.25H46.3711V59.168C46.3555 58.8867 46.2969 58.6133 46.1953 58.3477C46.0977 58.082 45.9414 57.8633 45.7266 57.6914C45.5117 57.5195 45.2188 57.4336 44.8477 57.4336C44.6016 57.4336 44.375 57.4863 44.168 57.5918C43.9609 57.6934 43.7832 57.8457 43.6348 58.0488C43.4863 58.252 43.3711 58.5 43.2891 58.793C43.207 59.0859 43.166 59.4238 43.166 59.8066V60.0527C43.166 60.3535 43.207 60.6367 43.2891 60.9023C43.375 61.1641 43.498 61.3945 43.6582 61.5938C43.8223 61.793 44.0195 61.9492 44.25 62.0625C44.4844 62.1758 44.75 62.2324 45.0469 62.2324C45.4297 62.2324 45.7539 62.1543 46.0195 61.998C46.2852 61.8418 46.5176 61.6328 46.7168 61.3711L47.373 61.8926C47.2363 62.0996 47.0625 62.2969 46.8516 62.4844C46.6406 62.6719 46.3809 62.8242 46.0723 62.9414C45.7676 63.0586 45.4062 63.1172 44.9883 63.1172ZM52.459 61.916V58.6523C52.459 58.4023 52.4082 58.1855 52.3066 58.002C52.209 57.8145 52.0605 57.6699 51.8613 57.5684C51.6621 57.4668 51.416 57.416 51.123 57.416C50.8496 57.416 50.6094 57.4629 50.4023 57.5566C50.1992 57.6504 50.0391 57.7734 49.9219 57.9258C49.8086 58.0781 49.752 58.2422 49.752 58.418H48.668C48.668 58.1914 48.7266 57.9668 48.8438 57.7441C48.9609 57.5215 49.1289 57.3203 49.3477 57.1406C49.5703 56.957 49.8359 56.8125 50.1445 56.707C50.457 56.5977 50.8047 56.543 51.1875 56.543C51.6484 56.543 52.0547 56.6211 52.4062 56.7773C52.7617 56.9336 53.0391 57.1699 53.2383 57.4863C53.4414 57.7988 53.543 58.1914 53.543 58.6641V61.6172C53.543 61.8281 53.5605 62.0527 53.5957 62.291C53.6348 62.5293 53.6914 62.7344 53.7656 62.9062V63H52.6348C52.5801 62.875 52.5371 62.709 52.5059 62.502C52.4746 62.291 52.459 62.0957 52.459 61.916ZM52.6465 59.1562L52.6582 59.918H51.5625C51.2539 59.918 50.9785 59.9434 50.7363 59.9941C50.4941 60.041 50.291 60.1133 50.127 60.2109C49.9629 60.3086 49.8379 60.4316 49.752 60.5801C49.666 60.7246 49.623 60.8945 49.623 61.0898C49.623 61.2891 49.668 61.4707 49.7578 61.6348C49.8477 61.7988 49.9824 61.9297 50.1621 62.0273C50.3457 62.1211 50.5703 62.168 50.8359 62.168C51.168 62.168 51.4609 62.0977 51.7148 61.957C51.9688 61.8164 52.1699 61.6445 52.3184 61.4414C52.4707 61.2383 52.5527 61.041 52.5645 60.8496L53.0273 61.3711C53 61.5352 52.9258 61.7168 52.8047 61.916C52.6836 62.1152 52.5215 62.3066 52.3184 62.4902C52.1191 62.6699 51.8809 62.8203 51.6035 62.9414C51.3301 63.0586 51.0215 63.1172 50.6777 63.1172C50.248 63.1172 49.8711 63.0332 49.5469 62.8652C49.2266 62.6973 48.9766 62.4727 48.7969 62.1914C48.6211 61.9062 48.5332 61.5879 48.5332 61.2363C48.5332 60.8965 48.5996 60.5977 48.7324 60.3398C48.8652 60.0781 49.0566 59.8613 49.3066 59.6895C49.5566 59.5137 49.8574 59.3809 50.209 59.291C50.5605 59.2012 50.9531 59.1562 51.3867 59.1562H52.6465ZM56.3262 57.9199V63H55.2363V56.6602H56.2676L56.3262 57.9199ZM56.1035 59.5898L55.5996 59.5723C55.6035 59.1387 55.6602 58.7383 55.7695 58.3711C55.8789 58 56.041 57.6777 56.2559 57.4043C56.4707 57.1309 56.7383 56.9199 57.0586 56.7715C57.3789 56.6191 57.75 56.543 58.1719 56.543C58.4688 56.543 58.7422 56.5859 58.9922 56.6719C59.2422 56.7539 59.459 56.8848 59.6426 57.0645C59.8262 57.2441 59.9688 57.4746 60.0703 57.7559C60.1719 58.0371 60.2227 58.377 60.2227 58.7754V63H59.1387V58.8281C59.1387 58.4961 59.082 58.2305 58.9688 58.0312C58.8594 57.832 58.7031 57.6875 58.5 57.5977C58.2969 57.5039 58.0586 57.457 57.7852 57.457C57.4648 57.457 57.1973 57.5137 56.9824 57.627C56.7676 57.7402 56.5957 57.8965 56.4668 58.0957C56.3379 58.2949 56.2441 58.5234 56.1855 58.7812C56.1309 59.0352 56.1035 59.3047 56.1035 59.5898ZM60.2109 58.9922L59.4844 59.2148C59.4883 58.8672 59.5449 58.5332 59.6543 58.2129C59.7676 57.8926 59.9297 57.6074 60.1406 57.3574C60.3555 57.1074 60.6191 56.9102 60.9316 56.7656C61.2441 56.6172 61.6016 56.543 62.0039 56.543C62.3438 56.543 62.6445 56.5879 62.9062 56.6777C63.1719 56.7676 63.3945 56.9062 63.5742 57.0938C63.7578 57.2773 63.8965 57.5137 63.9902 57.8027C64.084 58.0918 64.1309 58.4355 64.1309 58.834V63H63.041V58.8223C63.041 58.4668 62.9844 58.1914 62.8711 57.9961C62.7617 57.7969 62.6055 57.6582 62.4023 57.5801C62.2031 57.498 61.9648 57.457 61.6875 57.457C61.4492 57.457 61.2383 57.498 61.0547 57.5801C60.8711 57.6621 60.7168 57.7754 60.5918 57.9199C60.4668 58.0605 60.3711 58.2227 60.3047 58.4062C60.2422 58.5898 60.2109 58.7852 60.2109 58.9922Z" fill="white"/>
<path d="M41.992 32C42.7877 32 43.5507 32.3161 44.1133 32.8787C44.6759 33.4413 44.992 34.2044 44.992 35L44.99 36.496C45.196 40.17 42.366 42.002 37.12 42.002C31.892 42 29 40.194 29 36.55V35C29 34.2044 29.3161 33.4413 29.8787 32.8787C30.4413 32.3161 31.2044 32 32 32H41.992ZM50.5 32C51.2956 32 52.0587 32.3161 52.6213 32.8787C53.1839 33.4413 53.5 34.2044 53.5 35V36.054C53.68 39.348 51.18 41 46.612 41C45.992 41 45.408 40.97 44.864 40.91C45.936 39.918 46.51 38.574 46.508 36.874L46.496 36.44L46.5 35C46.5 33.804 45.976 32.732 45.144 32H50.5Z" fill="white"/>
<path d="M49.8284 23.1716C49.0783 22.4214 48.0609 22 47 22C45.9391 22 44.9217 22.4214 44.1716 23.1716C43.4214 23.9217 43 24.9391 43 26C43 27.0609 43.4214 28.0783 44.1716 28.8284C44.9217 29.5786 45.9391 30 47 30C48.0609 30 49.0783 29.5786 49.8284 28.8284C50.5786 28.0783 51 27.0609 51 26C51 24.9391 50.5786 23.9217 49.8284 23.1716Z" fill="white"/>
<path d="M40.5355 21.4645C39.5979 20.5268 38.3261 20 37 20C35.6739 20 34.4021 20.5268 33.4645 21.4645C32.5268 22.4021 32 23.6739 32 25C32 26.3261 32.5268 27.5979 33.4645 28.5355C34.4021 29.4732 35.6739 30 37 30C38.3261 30 39.5979 29.4732 40.5355 28.5355C41.4732 27.5979 42 26.3261 42 25C42 23.6739 41.4732 22.4021 40.5355 21.4645Z" fill="white"/>
</svg>
