<svg width="80" height="80" viewBox="0 0 80 80" fill="none" xmlns="http://www.w3.org/2000/svg">
<rect opacity="0.1" width="80" height="80" rx="20" fill="#00A2B9"/>
<path d="M31.8572 20.5714C31.8572 19.8613 32.4328 19.2856 33.1429 19.2856H46.8572C47.5673 19.2856 48.1429 19.8613 48.1429 20.5714V23.6856H31.8572V20.5714Z" fill="white" stroke="#00A2B9" stroke-width="2"/>
<path d="M26.2858 36.5714C26.2858 34.6778 27.8208 33.1428 29.7143 33.1428H33.1429C33.7741 33.1428 34.2858 33.6545 34.2858 34.2857V35.4285C34.2858 36.0597 34.7974 36.5714 35.4286 36.5714H44.5715C45.2027 36.5714 45.7143 36.0597 45.7143 35.4285V34.2857C45.7143 33.6545 46.226 33.1428 46.8572 33.1428H50.2858C52.1793 33.1428 53.7143 34.6778 53.7143 36.5714V40C53.7143 41.8935 52.1793 43.4285 50.2858 43.4285H29.7143C27.8208 43.4285 26.2858 41.8935 26.2858 40V36.5714Z" fill="#00A2B9"/>
<path d="M29.5714 25.1429C29.5714 24.4328 30.147 23.8572 30.8571 23.8572H49.1428C49.8529 23.8572 50.4286 24.4328 50.4286 25.1429V33.6572V36.2286V42.4286H29.5714V36.2286V33.6572V25.1429Z" fill="white" stroke="#00A2B9" stroke-width="2"/>
<path d="M35.4286 28.7144H44.5714" stroke="#FF991F" stroke-width="2" stroke-linecap="round" stroke-linejoin="round"/>
<path d="M37.7142 33.2856H42.2857" stroke="#FF991F" stroke-width="2" stroke-linecap="round" stroke-linejoin="round"/>
<path d="M27.2858 37.7142C27.2858 36.373 28.3731 35.2856 29.7143 35.2856H32.0001C32.7101 35.2856 33.2858 35.8613 33.2858 36.5714V37.7142C33.2858 38.8977 34.2452 39.8571 35.4286 39.8571H44.5715C45.7549 39.8571 46.7143 38.8977 46.7143 37.7142V36.5714C46.7143 35.8613 47.29 35.2856 48.0001 35.2856H50.2858C51.627 35.2856 52.7143 36.373 52.7143 37.7142V42.2856C52.7143 43.6269 51.627 44.7142 50.2858 44.7142H29.7143C28.3731 44.7142 27.2858 43.6269 27.2858 42.2856V37.7142Z" fill="#00A2B9" stroke="#00A2B9" stroke-width="2" stroke-linejoin="round"/>
<path d="M27.4668 62.0801V63H22.9492V62.0801H27.4668ZM23.1777 54.4688V63H22.0469V54.4688H23.1777ZM26.8691 58.1367V59.0566H22.9492V58.1367H26.8691ZM27.4082 54.4688V55.3945H22.9492V54.4688H27.4082ZM30.959 58.9277V59.8184H28.0996V58.9277H30.959ZM35.3418 55.2246L32.5176 63H31.3633L34.6152 54.4688H35.3594L35.3418 55.2246ZM37.709 63L34.8789 55.2246L34.8613 54.4688H35.6055L38.8691 63H37.709ZM37.5625 59.8418V60.7676H32.7695V59.8418H37.5625ZM40.9316 57.6562V63H39.8477V56.6602H40.9023L40.9316 57.6562ZM42.9121 56.625L42.9062 57.6328C42.8164 57.6133 42.7305 57.6016 42.6484 57.5977C42.5703 57.5898 42.4805 57.5859 42.3789 57.5859C42.1289 57.5859 41.9082 57.625 41.7168 57.7031C41.5254 57.7812 41.3633 57.8906 41.2305 58.0312C41.0977 58.1719 40.9922 58.3398 40.9141 58.5352C40.8398 58.7266 40.791 58.9375 40.7676 59.168L40.4629 59.3438C40.4629 58.9609 40.5 58.6016 40.5742 58.2656C40.6523 57.9297 40.7715 57.6328 40.9316 57.375C41.0918 57.1133 41.2949 56.9102 41.541 56.7656C41.791 56.6172 42.0879 56.543 42.4316 56.543C42.5098 56.543 42.5996 56.5527 42.7012 56.5723C42.8027 56.5879 42.873 56.6055 42.9121 56.625ZM47.6055 61.3184C47.6055 61.1621 47.5703 61.0176 47.5 60.8848C47.4336 60.748 47.2949 60.625 47.084 60.5156C46.877 60.4023 46.5645 60.3047 46.1465 60.2227C45.7949 60.1484 45.4766 60.0605 45.1914 59.959C44.9102 59.8574 44.6699 59.7344 44.4707 59.5898C44.2754 59.4453 44.125 59.2754 44.0195 59.0801C43.9141 58.8848 43.8613 58.6562 43.8613 58.3945C43.8613 58.1445 43.916 57.9082 44.0254 57.6855C44.1387 57.4629 44.2969 57.2656 44.5 57.0938C44.707 56.9219 44.9551 56.7871 45.2441 56.6895C45.5332 56.5918 45.8555 56.543 46.2109 56.543C46.7188 56.543 47.1523 56.6328 47.5117 56.8125C47.8711 56.9922 48.1465 57.2324 48.3379 57.5332C48.5293 57.8301 48.625 58.1602 48.625 58.5234H47.541C47.541 58.3477 47.4883 58.1777 47.3828 58.0137C47.2812 57.8457 47.1309 57.707 46.9316 57.5977C46.7363 57.4883 46.4961 57.4336 46.2109 57.4336C45.9102 57.4336 45.666 57.4805 45.4785 57.5742C45.2949 57.6641 45.1602 57.7793 45.0742 57.9199C44.9922 58.0605 44.9512 58.209 44.9512 58.3652C44.9512 58.4824 44.9707 58.5879 45.0098 58.6816C45.0527 58.7715 45.127 58.8555 45.2324 58.9336C45.3379 59.0078 45.4863 59.0781 45.6777 59.1445C45.8691 59.2109 46.1133 59.2773 46.4102 59.3438C46.9297 59.4609 47.3574 59.6016 47.6934 59.7656C48.0293 59.9297 48.2793 60.1309 48.4434 60.3691C48.6074 60.6074 48.6895 60.8965 48.6895 61.2363C48.6895 61.5137 48.6309 61.7676 48.5137 61.998C48.4004 62.2285 48.2344 62.4277 48.0156 62.5957C47.8008 62.7598 47.543 62.8887 47.2422 62.9824C46.9453 63.0723 46.6113 63.1172 46.2402 63.1172C45.6816 63.1172 45.209 63.0176 44.8223 62.8184C44.4355 62.6191 44.1426 62.3613 43.9434 62.0449C43.7441 61.7285 43.6445 61.3945 43.6445 61.043H44.7344C44.75 61.3398 44.8359 61.5762 44.9922 61.752C45.1484 61.9238 45.3398 62.0469 45.5664 62.1211C45.793 62.1914 46.0176 62.2266 46.2402 62.2266C46.5371 62.2266 46.7852 62.1875 46.9844 62.1094C47.1875 62.0312 47.3418 61.9238 47.4473 61.7871C47.5527 61.6504 47.6055 61.4941 47.6055 61.3184ZM51.291 56.6602V63H50.2012V56.6602H51.291ZM50.1191 54.9785C50.1191 54.8027 50.1719 54.6543 50.2773 54.5332C50.3867 54.4121 50.5469 54.3516 50.7578 54.3516C50.9648 54.3516 51.123 54.4121 51.2324 54.5332C51.3457 54.6543 51.4023 54.8027 51.4023 54.9785C51.4023 55.1465 51.3457 55.291 51.2324 55.4121C51.123 55.5293 50.9648 55.5879 50.7578 55.5879C50.5469 55.5879 50.3867 55.5293 50.2773 55.4121C50.1719 55.291 50.1191 55.1465 50.1191 54.9785ZM54.1152 57.8789V65.4375H53.0254V56.6602H54.0215L54.1152 57.8789ZM58.3867 59.7773V59.9004C58.3867 60.3613 58.332 60.7891 58.2227 61.1836C58.1133 61.5742 57.9531 61.9141 57.7422 62.2031C57.5352 62.4922 57.2793 62.7168 56.9746 62.877C56.6699 63.0371 56.3203 63.1172 55.9258 63.1172C55.5234 63.1172 55.168 63.0508 54.8594 62.918C54.5508 62.7852 54.2891 62.5918 54.0742 62.3379C53.8594 62.084 53.6875 61.7793 53.5586 61.4238C53.4336 61.0684 53.3477 60.668 53.3008 60.2227V59.5664C53.3477 59.0977 53.4355 58.6777 53.5645 58.3066C53.6934 57.9355 53.8633 57.6191 54.0742 57.3574C54.2891 57.0918 54.5488 56.8906 54.8535 56.7539C55.1582 56.6133 55.5098 56.543 55.9082 56.543C56.3066 56.543 56.6602 56.6211 56.9688 56.7773C57.2773 56.9297 57.5371 57.1484 57.748 57.4336C57.959 57.7188 58.1172 58.0605 58.2227 58.459C58.332 58.8535 58.3867 59.293 58.3867 59.7773ZM57.2969 59.9004V59.7773C57.2969 59.4609 57.2637 59.1641 57.1973 58.8867C57.1309 58.6055 57.0273 58.3594 56.8867 58.1484C56.75 57.9336 56.5742 57.7656 56.3594 57.6445C56.1445 57.5195 55.8887 57.457 55.5918 57.457C55.3184 57.457 55.0801 57.5039 54.877 57.5977C54.6777 57.6914 54.5078 57.8184 54.3672 57.9785C54.2266 58.1348 54.1113 58.3145 54.0215 58.5176C53.9355 58.7168 53.8711 58.9238 53.8281 59.1387V60.6562C53.9062 60.9297 54.0156 61.1875 54.1562 61.4297C54.2969 61.668 54.4844 61.8613 54.7188 62.0098C54.9531 62.1543 55.248 62.2266 55.6035 62.2266C55.8965 62.2266 56.1484 62.166 56.3594 62.0449C56.5742 61.9199 56.75 61.75 56.8867 61.5352C57.0273 61.3203 57.1309 61.0742 57.1973 60.7969C57.2637 60.5156 57.2969 60.2168 57.2969 59.9004Z" fill="#666666"/>
</svg>
