<svg width="76" height="100" viewBox="0 0 76 100" fill="none" xmlns="http://www.w3.org/2000/svg">
<path d="M8 0.5H68C72.1421 0.5 75.5 3.85786 75.5 8V92C75.5 96.1421 72.1421 99.5 68 99.5H8C3.85786 99.5 0.5 96.1421 0.5 92V8C0.5 3.85786 3.85786 0.5 8 0.5Z" fill="white"/>
<path d="M8 0.5H68C72.1421 0.5 75.5 3.85786 75.5 8V92C75.5 96.1421 72.1421 99.5 68 99.5H8C3.85786 99.5 0.5 96.1421 0.5 92V8C0.5 3.85786 3.85786 0.5 8 0.5Z" stroke="#DFE1E4"/>
<g clip-path="url(#clip0_906_4888)">
<g filter="url(#filter0_i_906_4888)">
<path d="M31.633 27.5962L31.6311 27.5991H39.7053V27.5962H42.2512V27.5991H48.7805L48.7795 27.5962H52.3899L52.426 27.7007H52.4211C53.1622 27.8813 53.8076 28.3065 54.2678 28.8862C54.4405 29.1037 54.5875 29.3428 54.7033 29.5991C54.742 29.6848 54.7772 29.7725 54.8088 29.8618C54.935 30.2177 55.0031 30.601 55.0031 31.0005V35.2505C55.0031 35.3089 55.0012 35.3676 54.9983 35.4253C54.9953 35.4832 54.9914 35.541 54.9856 35.5981C54.9723 35.7284 54.9507 35.8564 54.9231 35.9819C54.9032 36.0722 54.8796 36.1611 54.8528 36.2485L54.8 36.4067C54.7706 36.4881 54.7377 36.5677 54.7024 36.646C54.6947 36.663 54.6869 36.6799 54.6789 36.6968C54.6386 36.7823 54.5942 36.8653 54.5471 36.9468C54.5402 36.9588 54.5337 36.971 54.5266 36.9829C54.4785 37.0638 54.4277 37.1428 54.3733 37.2192C54.3672 37.2278 54.3609 37.2361 54.3547 37.2446C54.2982 37.3224 54.2387 37.3976 54.176 37.4702C54.1701 37.477 54.1644 37.484 54.1584 37.4907C54.0944 37.5637 54.0272 37.6335 53.9572 37.7007C53.9499 37.7077 53.9422 37.7142 53.9348 37.7212C53.8672 37.7851 53.7975 37.8466 53.7248 37.9048C53.712 37.9151 53.6988 37.9249 53.6858 37.9351C53.614 37.9909 53.5403 38.0442 53.4641 38.0942C53.4538 38.101 53.4432 38.1071 53.4328 38.1138C53.3081 38.1938 53.1783 38.2661 53.0432 38.3296C53.0296 38.336 53.0158 38.3419 53.0022 38.3481C52.9685 38.3634 52.9349 38.3789 52.9006 38.3931C52.8816 38.401 52.8622 38.408 52.843 38.4155C52.7586 38.4487 52.6727 38.4789 52.5852 38.5054C52.5784 38.5074 52.5715 38.5092 52.5647 38.5112C52.2594 38.6014 51.9369 38.6518 51.6028 38.6519H51.5813C51.5521 38.9786 51.4886 39.2953 51.3957 39.5991C51.3616 39.7109 51.3246 39.8212 51.2824 39.9292C51.2562 39.9964 51.2286 40.0628 51.1994 40.1284C50.472 41.764 48.8323 42.9018 46.927 42.9019H46.926C46.6975 42.9018 46.4729 42.8857 46.2531 42.854C45.7401 42.78 45.2538 42.6233 44.8088 42.397C44.3638 42.1706 43.9602 41.8745 43.6115 41.5239C43.1637 41.0735 42.8066 40.5325 42.5715 39.9302C42.4146 39.5283 42.3116 39.0992 42.2717 38.6519H34.5842C34.3715 41.0373 32.3685 42.9017 29.9299 42.9019L29.9289 42.9009V42.9019C29.1669 42.9018 28.4473 42.7202 27.8117 42.397C27.3035 42.1385 26.8488 41.7896 26.469 41.3716C26.3493 41.2399 26.2382 41.1004 26.134 40.9556C26.0889 40.8929 26.0452 40.8291 26.0031 40.7642C25.603 40.1454 25.3437 39.4264 25.2746 38.6519H24.4035C24.3449 38.6519 24.2866 38.6499 24.2287 38.647C24.1733 38.6442 24.1184 38.6397 24.0637 38.6343C24.0316 38.6311 23.9998 38.6266 23.968 38.6226C23.9465 38.6198 23.9249 38.6179 23.9035 38.6147C23.8104 38.601 23.7187 38.5822 23.6281 38.561C23.6106 38.5569 23.5929 38.5537 23.5754 38.5493C23.492 38.5284 23.4102 38.5031 23.3293 38.4761C23.3085 38.4691 23.2875 38.4629 23.2668 38.4556C23.1865 38.427 23.1079 38.3951 23.0305 38.3608C23.0134 38.3533 22.9966 38.3452 22.9797 38.3374C22.8986 38.2998 22.8189 38.2599 22.7414 38.2163C22.7315 38.2107 22.722 38.2044 22.7121 38.1987C22.6341 38.1538 22.5576 38.1069 22.4836 38.0562C22.47 38.0468 22.4571 38.0364 22.4436 38.0269C22.3718 37.976 22.3011 37.9238 22.2336 37.8677C22.2237 37.8594 22.2142 37.8507 22.2043 37.8423C22.0671 37.7257 21.9397 37.5981 21.8225 37.4614C21.8085 37.4451 21.7942 37.4292 21.7805 37.4126C21.7258 37.3463 21.6739 37.2778 21.6242 37.2075C21.616 37.1959 21.6079 37.1841 21.5998 37.1724C21.5511 37.1014 21.5055 37.0283 21.4621 36.9536C21.4517 36.9357 21.441 36.918 21.4309 36.8999C21.3887 36.8241 21.3491 36.7467 21.3127 36.6675C21.3071 36.6552 21.3016 36.6428 21.2961 36.6304C21.2606 36.5505 21.2279 36.4692 21.1985 36.3862C21.1912 36.3659 21.1848 36.3452 21.1779 36.3247C21.151 36.2438 21.1256 36.162 21.1047 36.0786C21.1003 36.0612 21.0971 36.0434 21.093 36.0259C21.0348 35.7769 21.0031 35.517 21.0031 35.2505V34.4009C21.0031 30.7932 19.7437 27.6158 27.3684 27.6157L27.383 27.5962H31.633ZM46.425 19.0991H35.8488L35.8801 19.0981H46.3957C46.4055 19.0981 46.4153 19.0991 46.425 19.0991Z" fill="#00A2B9"/>
</g>
<foreignObject x="-164.36" y="-146.76" width="404.203" height="401.4"><div xmlns="http://www.w3.org/1999/xhtml" style="backdrop-filter:blur(10px);clip-path:url(#bgblur_1_906_4888_clip_path);height:100%;width:100%"></div></foreignObject><g filter="url(#filter1_d_906_4888)" data-figma-bg-blur-radius="20">
<rect x="35.6398" y="29.2402" width="4.20264" height="1.4" rx="0.7" fill="#E6F6F8"/>
<rect x="35.6898" y="29.2902" width="4.10264" height="1.3" rx="0.65" stroke="url(#paint0_linear_906_4888)" stroke-width="0.1"/>
</g>
<foreignObject x="-156.005" y="-140.716" width="406" height="406"><div xmlns="http://www.w3.org/1999/xhtml" style="backdrop-filter:blur(10px);clip-path:url(#bgblur_2_906_4888_clip_path);height:100%;width:100%"></div></foreignObject><g filter="url(#filter2_d_906_4888)" data-figma-bg-blur-radius="20">
<circle cx="46.9954" cy="38.2842" r="3" fill="#E6F6F8"/>
<circle cx="46.9954" cy="38.2842" r="2.95" stroke="url(#paint1_linear_906_4888)" stroke-width="0.1"/>
</g>
<foreignObject x="-172.894" y="-140.716" width="406" height="406"><div xmlns="http://www.w3.org/1999/xhtml" style="backdrop-filter:blur(10px);clip-path:url(#bgblur_3_906_4888_clip_path);height:100%;width:100%"></div></foreignObject><g filter="url(#filter3_d_906_4888)" data-figma-bg-blur-radius="20">
<circle cx="30.1064" cy="38.2842" r="3" fill="#E6F6F8"/>
<circle cx="30.1064" cy="38.2842" r="2.95" stroke="url(#paint2_linear_906_4888)" stroke-width="0.1"/>
</g>
<mask id="path-9-inside-1_906_4888" fill="white">
<path d="M46.3956 19.0986C48.089 19.0986 49.6098 20.1022 50.2881 21.6328C50.3334 21.7349 50.3746 21.8396 50.4122 21.9463L52.3887 27.5957H27.3839L32.4796 20.7988C32.5297 20.732 32.5821 20.6669 32.6358 20.6035C32.6893 20.5404 32.7441 20.4786 32.8008 20.4189C33.0285 20.1799 33.2818 19.9694 33.5547 19.791C33.8279 19.6125 34.1211 19.4662 34.4278 19.3545C34.6575 19.2709 34.895 19.2072 35.1378 19.1641C35.2997 19.1353 35.464 19.1153 35.6299 19.1055C35.7129 19.1006 35.7963 19.0986 35.8799 19.0986H46.3956Z"/>
</mask>
<g filter="url(#filter4_i_906_4888)">
<path d="M46.3956 19.0986C48.089 19.0986 49.6098 20.1022 50.2881 21.6328C50.3334 21.7349 50.3746 21.8396 50.4122 21.9463L52.3887 27.5957H27.3839L32.4796 20.7988C32.5297 20.732 32.5821 20.6669 32.6358 20.6035C32.6893 20.5404 32.7441 20.4786 32.8008 20.4189C33.0285 20.1799 33.2818 19.9694 33.5547 19.791C33.8279 19.6125 34.1211 19.4662 34.4278 19.3545C34.6575 19.2709 34.895 19.2072 35.1378 19.1641C35.2997 19.1353 35.464 19.1153 35.6299 19.1055C35.7129 19.1006 35.7963 19.0986 35.8799 19.0986H46.3956Z" fill="#00A2B9"/>
</g>
<path d="M50.2881 21.6328L50.6996 21.4505V21.4505L50.2881 21.6328ZM50.4122 21.9463L50.8369 21.7977L50.8366 21.7968L50.4122 21.9463ZM52.3887 27.5957V28.0457H53.0229L52.8135 27.4471L52.3887 27.5957ZM27.3839 27.5957L27.0238 27.3258L26.4841 28.0457H27.3839V27.5957ZM32.4796 20.7988L32.1198 20.5285L32.1195 20.5289L32.4796 20.7988ZM32.6358 20.6035L32.2925 20.3126L32.2925 20.3126L32.6358 20.6035ZM32.8008 20.4189L33.1267 20.7293L33.1267 20.7293L32.8008 20.4189ZM33.5547 19.791L33.3086 19.4143L33.3086 19.4143L33.5547 19.791ZM34.4278 19.3545L34.5817 19.7773L34.5818 19.7773L34.4278 19.3545ZM35.1378 19.1641L35.059 18.721L35.059 18.721L35.1378 19.1641ZM35.6299 19.1055L35.6565 19.5547L35.6565 19.5547L35.6299 19.1055ZM35.8799 19.0986V18.6486H35.8799L35.8799 19.0986ZM46.3956 19.0986V19.5486C47.9095 19.5486 49.2699 20.446 49.8767 21.8151L50.2881 21.6328L50.6996 21.4505C49.9497 19.7585 48.2685 18.6486 46.3956 18.6486V19.0986ZM50.2881 21.6328L49.8767 21.8151C49.9169 21.9057 49.9538 21.9993 49.9877 22.0957L50.4122 21.9463L50.8366 21.7968C50.7955 21.6799 50.75 21.5642 50.6996 21.4505L50.2881 21.6328ZM50.4122 21.9463L49.9874 22.0949L51.964 27.7443L52.3887 27.5957L52.8135 27.4471L50.8369 21.7977L50.4122 21.9463ZM52.3887 27.5957V27.1457H27.3839V27.5957V28.0457H52.3887V27.5957ZM27.3839 27.5957L27.7439 27.8656L32.8396 21.0688L32.4796 20.7988L32.1195 20.5289L27.0238 27.3258L27.3839 27.5957ZM32.4796 20.7988L32.8393 21.0691C32.8836 21.0102 32.9305 20.9519 32.9791 20.8944L32.6358 20.6035L32.2925 20.3126C32.2338 20.3818 32.1758 20.4539 32.1198 20.5285L32.4796 20.7988ZM32.6358 20.6035L32.9791 20.8944C33.0285 20.8362 33.0773 20.7811 33.1267 20.7293L32.8008 20.4189L32.475 20.1086C32.4108 20.176 32.3501 20.2446 32.2925 20.3126L32.6358 20.6035ZM32.8008 20.4189L33.1267 20.7293C33.3304 20.5154 33.5569 20.3272 33.8009 20.1677L33.5547 19.791L33.3086 19.4143C33.0066 19.6117 32.7266 19.8444 32.475 20.1086L32.8008 20.4189ZM33.5547 19.791L33.8009 20.1677C34.045 20.0082 34.3071 19.8773 34.5817 19.7773L34.4278 19.3545L34.2738 18.9316C33.935 19.055 33.6109 19.2168 33.3086 19.4143L33.5547 19.791ZM34.4278 19.3545L34.5818 19.7773C34.7867 19.7027 34.9991 19.6458 35.2165 19.6071L35.1378 19.1641L35.059 18.721C34.791 18.7686 34.5283 18.839 34.2738 18.9317L34.4278 19.3545ZM35.1378 19.1641L35.2165 19.6071C35.3622 19.5812 35.5091 19.5634 35.6565 19.5547L35.6299 19.1055L35.6034 18.6563C35.419 18.6671 35.2372 18.6893 35.059 18.721L35.1378 19.1641ZM35.6299 19.1055L35.6565 19.5547C35.7288 19.5504 35.8031 19.5486 35.88 19.5486L35.8799 19.0986L35.8799 18.6486C35.7895 18.6486 35.697 18.6507 35.6034 18.6563L35.6299 19.1055ZM35.8799 19.0986V19.5486H46.3956V19.0986V18.6486H35.8799V19.0986Z" fill="url(#paint3_linear_906_4888)" fill-opacity="0.2" mask="url(#path-9-inside-1_906_4888)"/>
<path d="M36.397 22.4175H39.8257V27.5356H31.5152L34.858 23.1772C35.2251 22.6986 35.7938 22.4176 36.397 22.4175Z" fill="#FFB81F" stroke="url(#paint4_linear_906_4888)" stroke-width="0.119398"/>
<path d="M45.6298 22.4175H42.2743V27.5356H48.7538L47.4667 23.7358C47.2 22.9481 46.4614 22.4177 45.6298 22.4175Z" fill="#FFB81F" stroke="url(#paint5_linear_906_4888)" stroke-width="0.119398"/>
</g>
<path d="M7.5845 68V60.68H4.9565V59.6H11.4005V60.68H8.7725V68H7.5845ZM11.8037 68V62H12.9437V63.08C13.1837 62.704 13.4917 62.428 13.8677 62.252C14.2517 62.068 14.6517 61.976 15.0677 61.976V63.056C14.7077 63.056 14.3637 63.112 14.0357 63.224C13.7157 63.328 13.4517 63.504 13.2437 63.752C13.0437 63.992 12.9437 64.32 12.9437 64.736V68H11.8037ZM17.9073 68.144C17.1953 68.144 16.6393 67.984 16.2393 67.664C15.8473 67.336 15.6513 66.884 15.6513 66.308C15.6513 65.692 15.8553 65.224 16.2633 64.904C16.6793 64.576 17.2553 64.412 17.9913 64.412H19.5993C19.5513 63.9 19.4153 63.516 19.1913 63.26C18.9753 62.996 18.6473 62.864 18.2073 62.864C17.8953 62.864 17.6233 62.928 17.3913 63.056C17.1673 63.184 16.9793 63.384 16.8273 63.656L15.8193 63.272C15.9633 63 16.1433 62.76 16.3593 62.552C16.5753 62.336 16.8353 62.168 17.1393 62.048C17.4433 61.92 17.7993 61.856 18.2073 61.856C18.7753 61.856 19.2473 61.968 19.6233 62.192C19.9993 62.416 20.2793 62.74 20.4633 63.164C20.6553 63.588 20.7473 64.112 20.7393 64.736L20.7273 68H19.6713L19.6353 67.232C19.4593 67.52 19.2273 67.744 18.9393 67.904C18.6513 68.064 18.3073 68.144 17.9073 68.144ZM18.0033 67.172C18.3313 67.172 18.6153 67.104 18.8553 66.968C19.0953 66.824 19.2833 66.628 19.4193 66.38C19.5553 66.124 19.6233 65.832 19.6233 65.504V65.312H18.3033C17.7513 65.312 17.3633 65.4 17.1393 65.576C16.9153 65.744 16.8033 65.98 16.8033 66.284C16.8033 66.564 16.9073 66.784 17.1153 66.944C17.3313 67.096 17.6273 67.172 18.0033 67.172ZM22.1748 68V62H23.2428L23.2908 62.876C23.4908 62.548 23.7468 62.296 24.0588 62.12C24.3788 61.944 24.7428 61.856 25.1508 61.856C25.6228 61.856 26.0308 61.952 26.3748 62.144C26.7268 62.336 26.9948 62.636 27.1788 63.044C27.3708 63.444 27.4668 63.972 27.4668 64.628V68H26.3268V64.928C26.3268 64.384 26.2628 63.972 26.1348 63.692C26.0148 63.404 25.8428 63.204 25.6188 63.092C25.4028 62.98 25.1508 62.92 24.8628 62.912C24.3748 62.912 23.9948 63.084 23.7228 63.428C23.4508 63.772 23.3148 64.256 23.3148 64.88V68H22.1748ZM31.0494 68.144C30.6254 68.144 30.2454 68.08 29.9094 67.952C29.5814 67.824 29.3014 67.652 29.0694 67.436C28.8454 67.22 28.6774 66.976 28.5654 66.704L29.5494 66.272C29.6774 66.52 29.8694 66.724 30.1254 66.884C30.3814 67.044 30.6654 67.124 30.9774 67.124C31.3214 67.124 31.6054 67.06 31.8294 66.932C32.0534 66.804 32.1654 66.624 32.1654 66.392C32.1654 66.168 32.0814 65.992 31.9134 65.864C31.7454 65.736 31.5014 65.632 31.1814 65.552L30.6174 65.408C30.0574 65.256 29.6214 65.028 29.3094 64.724C29.0054 64.42 28.8534 64.076 28.8534 63.692C28.8534 63.108 29.0414 62.656 29.4174 62.336C29.7934 62.016 30.3494 61.856 31.0854 61.856C31.4454 61.856 31.7734 61.908 32.0694 62.012C32.3734 62.116 32.6294 62.264 32.8374 62.456C33.0534 62.648 33.2054 62.876 33.2934 63.14L32.3334 63.572C32.2374 63.332 32.0734 63.156 31.8414 63.044C31.6094 62.924 31.3374 62.864 31.0254 62.864C30.7054 62.864 30.4534 62.936 30.2694 63.08C30.0854 63.216 29.9934 63.408 29.9934 63.656C29.9934 63.792 30.0694 63.924 30.2214 64.052C30.3814 64.172 30.6134 64.272 30.9174 64.352L31.5654 64.508C31.9574 64.604 32.2814 64.752 32.5374 64.952C32.7934 65.144 32.9854 65.364 33.1134 65.612C33.2414 65.852 33.3054 66.104 33.3054 66.368C33.3054 66.728 33.2054 67.044 33.0054 67.316C32.8134 67.58 32.5454 67.784 32.2014 67.928C31.8654 68.072 31.4814 68.144 31.0494 68.144ZM34.5512 70.4V62H35.6192L35.6792 62.972C35.8952 62.62 36.1712 62.348 36.5072 62.156C36.8432 61.956 37.2272 61.856 37.6592 61.856C38.1952 61.856 38.6672 61.988 39.0752 62.252C39.4832 62.516 39.7992 62.884 40.0232 63.356C40.2552 63.82 40.3712 64.368 40.3712 65C40.3712 65.624 40.2552 66.172 40.0232 66.644C39.7992 67.116 39.4832 67.484 39.0752 67.748C38.6672 68.012 38.1952 68.144 37.6592 68.144C37.2272 68.144 36.8432 68.048 36.5072 67.856C36.1792 67.656 35.9072 67.384 35.6912 67.04V70.4H34.5512ZM37.3832 67.112C37.7432 67.112 38.0592 67.024 38.3312 66.848C38.6032 66.664 38.8152 66.416 38.9672 66.104C39.1272 65.784 39.2072 65.416 39.2072 65C39.2072 64.584 39.1312 64.22 38.9792 63.908C38.8272 63.588 38.6152 63.34 38.3432 63.164C38.0712 62.98 37.7552 62.888 37.3952 62.888C37.0672 62.888 36.7712 62.98 36.5072 63.164C36.2512 63.34 36.0512 63.588 35.9072 63.908C35.7632 64.228 35.6912 64.592 35.6912 65C35.6912 65.416 35.7632 65.784 35.9072 66.104C36.0512 66.416 36.2512 66.664 36.5072 66.848C36.7632 67.024 37.0552 67.112 37.3832 67.112ZM44.3282 68.144C43.7282 68.144 43.2002 68.012 42.7442 67.748C42.2882 67.476 41.9282 67.104 41.6642 66.632C41.4082 66.16 41.2802 65.616 41.2802 65C41.2802 64.384 41.4082 63.84 41.6642 63.368C41.9202 62.896 42.2762 62.528 42.7322 62.264C43.1882 61.992 43.7122 61.856 44.3042 61.856C44.8962 61.856 45.4202 61.992 45.8762 62.264C46.3322 62.528 46.6882 62.896 46.9442 63.368C47.2002 63.84 47.3282 64.384 47.3282 65C47.3282 65.616 47.2002 66.16 46.9442 66.632C46.6882 67.104 46.3322 67.476 45.8762 67.748C45.4282 68.012 44.9122 68.144 44.3282 68.144ZM44.3282 67.1C44.6882 67.1 45.0082 67.012 45.2882 66.836C45.5682 66.652 45.7842 66.404 45.9362 66.092C46.0962 65.78 46.1762 65.416 46.1762 65C46.1762 64.584 46.0962 64.22 45.9362 63.908C45.7842 63.596 45.5642 63.352 45.2762 63.176C44.9882 62.992 44.6642 62.9 44.3042 62.9C43.9362 62.9 43.6122 62.992 43.3322 63.176C43.0522 63.352 42.8322 63.596 42.6722 63.908C42.5122 64.22 42.4322 64.584 42.4322 65C42.4322 65.416 42.5122 65.78 42.6722 66.092C42.8322 66.404 43.0562 66.652 43.3442 66.836C43.6322 67.012 43.9602 67.1 44.3282 67.1ZM48.5772 68V62H49.7172V63.08C49.9572 62.704 50.2652 62.428 50.6412 62.252C51.0252 62.068 51.4252 61.976 51.8412 61.976V63.056C51.4812 63.056 51.1372 63.112 50.8092 63.224C50.4892 63.328 50.2252 63.504 50.0172 63.752C49.8172 63.992 49.7172 64.32 49.7172 64.736V68H48.5772ZM55.0768 68.144C54.4768 68.144 54.0128 67.992 53.6848 67.688C53.3568 67.376 53.1928 66.932 53.1928 66.356V62.984H52.1728V62H53.1928V60.128H54.3328V62H56.0368V62.984H54.3328V66.188C54.3328 66.484 54.4048 66.712 54.5488 66.872C54.7008 67.024 54.9168 67.1 55.1968 67.1C55.2768 67.1 55.3648 67.084 55.4608 67.052C55.5568 67.02 55.6728 66.956 55.8088 66.86L56.2408 67.748C56.0328 67.884 55.8328 67.984 55.6408 68.048C55.4568 68.112 55.2688 68.144 55.0768 68.144ZM59.2393 68.144C58.5273 68.144 57.9713 67.984 57.5713 67.664C57.1793 67.336 56.9833 66.884 56.9833 66.308C56.9833 65.692 57.1873 65.224 57.5953 64.904C58.0113 64.576 58.5873 64.412 59.3233 64.412H60.9313C60.8833 63.9 60.7473 63.516 60.5233 63.26C60.3073 62.996 59.9793 62.864 59.5393 62.864C59.2273 62.864 58.9553 62.928 58.7233 63.056C58.4993 63.184 58.3113 63.384 58.1593 63.656L57.1513 63.272C57.2953 63 57.4753 62.76 57.6913 62.552C57.9073 62.336 58.1673 62.168 58.4713 62.048C58.7753 61.92 59.1313 61.856 59.5393 61.856C60.1073 61.856 60.5793 61.968 60.9553 62.192C61.3313 62.416 61.6113 62.74 61.7953 63.164C61.9873 63.588 62.0793 64.112 62.0713 64.736L62.0593 68H61.0033L60.9673 67.232C60.7913 67.52 60.5593 67.744 60.2713 67.904C59.9833 68.064 59.6393 68.144 59.2393 68.144ZM59.3353 67.172C59.6633 67.172 59.9473 67.104 60.1873 66.968C60.4273 66.824 60.6153 66.628 60.7513 66.38C60.8873 66.124 60.9553 65.832 60.9553 65.504V65.312H59.6353C59.0833 65.312 58.6953 65.4 58.4713 65.576C58.2473 65.744 58.1353 65.98 58.1353 66.284C58.1353 66.564 58.2393 66.784 58.4473 66.944C58.6633 67.096 58.9593 67.172 59.3353 67.172ZM65.6548 68.144C65.2308 68.144 64.8508 68.08 64.5148 67.952C64.1868 67.824 63.9068 67.652 63.6748 67.436C63.4508 67.22 63.2828 66.976 63.1708 66.704L64.1548 66.272C64.2828 66.52 64.4748 66.724 64.7308 66.884C64.9868 67.044 65.2708 67.124 65.5828 67.124C65.9268 67.124 66.2108 67.06 66.4348 66.932C66.6588 66.804 66.7708 66.624 66.7708 66.392C66.7708 66.168 66.6868 65.992 66.5188 65.864C66.3508 65.736 66.1068 65.632 65.7868 65.552L65.2228 65.408C64.6628 65.256 64.2268 65.028 63.9148 64.724C63.6108 64.42 63.4588 64.076 63.4588 63.692C63.4588 63.108 63.6468 62.656 64.0228 62.336C64.3988 62.016 64.9548 61.856 65.6908 61.856C66.0508 61.856 66.3788 61.908 66.6748 62.012C66.9788 62.116 67.2348 62.264 67.4428 62.456C67.6588 62.648 67.8108 62.876 67.8988 63.14L66.9388 63.572C66.8428 63.332 66.6788 63.156 66.4468 63.044C66.2148 62.924 65.9428 62.864 65.6308 62.864C65.3108 62.864 65.0588 62.936 64.8748 63.08C64.6908 63.216 64.5988 63.408 64.5988 63.656C64.5988 63.792 64.6748 63.924 64.8268 64.052C64.9868 64.172 65.2188 64.272 65.5228 64.352L66.1708 64.508C66.5628 64.604 66.8868 64.752 67.1428 64.952C67.3988 65.144 67.5908 65.364 67.7188 65.612C67.8468 65.852 67.9108 66.104 67.9108 66.368C67.9108 66.728 67.8108 67.044 67.6108 67.316C67.4188 67.58 67.1508 67.784 66.8068 67.928C66.4708 68.072 66.0868 68.144 65.6548 68.144ZM69.1687 68V62H70.3087V68H69.1687ZM69.7447 60.728C69.5607 60.728 69.4007 60.66 69.2647 60.524C69.1287 60.38 69.0607 60.216 69.0607 60.032C69.0607 59.84 69.1287 59.68 69.2647 59.552C69.4007 59.416 69.5607 59.348 69.7447 59.348C69.9367 59.348 70.0967 59.416 70.2247 59.552C70.3607 59.68 70.4287 59.84 70.4287 60.032C70.4287 60.216 70.3607 60.38 70.2247 60.524C70.0967 60.66 69.9367 60.728 69.7447 60.728Z" fill="#1A1B1E"/>
<defs>
<filter id="filter0_i_906_4888" x="19.7921" y="19.0981" width="35.211" height="24.937" filterUnits="userSpaceOnUse" color-interpolation-filters="sRGB">
<feFlood flood-opacity="0" result="BackgroundImageFix"/>
<feBlend mode="normal" in="SourceGraphic" in2="BackgroundImageFix" result="shape"/>
<feColorMatrix in="SourceAlpha" type="matrix" values="0 0 0 0 0 0 0 0 0 0 0 0 0 0 0 0 0 0 127 0" result="hardAlpha"/>
<feOffset dx="-1.13333" dy="1.13333"/>
<feGaussianBlur stdDeviation="1.13333"/>
<feComposite in2="hardAlpha" operator="arithmetic" k2="-1" k3="1"/>
<feColorMatrix type="matrix" values="0 0 0 0 0.901961 0 0 0 0 0.964706 0 0 0 0 0.972549 0 0 0 0.16 0"/>
<feBlend mode="normal" in2="shape" result="effect1_innerShadow_906_4888"/>
</filter>
<filter id="filter1_d_906_4888" x="-164.36" y="-146.76" width="404.203" height="401.4" filterUnits="userSpaceOnUse" color-interpolation-filters="sRGB">
<feFlood flood-opacity="0" result="BackgroundImageFix"/>
<feColorMatrix in="SourceAlpha" type="matrix" values="0 0 0 0 0 0 0 0 0 0 0 0 0 0 0 0 0 0 127 0" result="hardAlpha"/>
<feOffset dy="24"/>
<feGaussianBlur stdDeviation="100"/>
<feColorMatrix type="matrix" values="0 0 0 0 1 0 0 0 0 1 0 0 0 0 1 0 0 0 0.8 0"/>
<feBlend mode="normal" in2="BackgroundImageFix" result="effect1_dropShadow_906_4888"/>
<feBlend mode="normal" in="SourceGraphic" in2="effect1_dropShadow_906_4888" result="shape"/>
</filter>
<clipPath id="bgblur_1_906_4888_clip_path" transform="translate(164.36 146.76)"><rect x="35.6398" y="29.2402" width="4.20264" height="1.4" rx="0.7"/>
</clipPath><filter id="filter2_d_906_4888" x="-156.005" y="-140.716" width="406" height="406" filterUnits="userSpaceOnUse" color-interpolation-filters="sRGB">
<feFlood flood-opacity="0" result="BackgroundImageFix"/>
<feColorMatrix in="SourceAlpha" type="matrix" values="0 0 0 0 0 0 0 0 0 0 0 0 0 0 0 0 0 0 127 0" result="hardAlpha"/>
<feOffset dy="24"/>
<feGaussianBlur stdDeviation="100"/>
<feColorMatrix type="matrix" values="0 0 0 0 1 0 0 0 0 1 0 0 0 0 1 0 0 0 0.8 0"/>
<feBlend mode="normal" in2="BackgroundImageFix" result="effect1_dropShadow_906_4888"/>
<feBlend mode="normal" in="SourceGraphic" in2="effect1_dropShadow_906_4888" result="shape"/>
</filter>
<clipPath id="bgblur_2_906_4888_clip_path" transform="translate(156.005 140.716)"><circle cx="46.9954" cy="38.2842" r="3"/>
</clipPath><filter id="filter3_d_906_4888" x="-172.894" y="-140.716" width="406" height="406" filterUnits="userSpaceOnUse" color-interpolation-filters="sRGB">
<feFlood flood-opacity="0" result="BackgroundImageFix"/>
<feColorMatrix in="SourceAlpha" type="matrix" values="0 0 0 0 0 0 0 0 0 0 0 0 0 0 0 0 0 0 127 0" result="hardAlpha"/>
<feOffset dy="24"/>
<feGaussianBlur stdDeviation="100"/>
<feColorMatrix type="matrix" values="0 0 0 0 1 0 0 0 0 1 0 0 0 0 1 0 0 0 0.8 0"/>
<feBlend mode="normal" in2="BackgroundImageFix" result="effect1_dropShadow_906_4888"/>
<feBlend mode="normal" in="SourceGraphic" in2="effect1_dropShadow_906_4888" result="shape"/>
</filter>
<clipPath id="bgblur_3_906_4888_clip_path" transform="translate(172.894 140.716)"><circle cx="30.1064" cy="38.2842" r="3"/>
</clipPath><filter id="filter4_i_906_4888" x="27.3839" y="16.5486" width="27.5549" height="11.0471" filterUnits="userSpaceOnUse" color-interpolation-filters="sRGB">
<feFlood flood-opacity="0" result="BackgroundImageFix"/>
<feBlend mode="normal" in="SourceGraphic" in2="BackgroundImageFix" result="shape"/>
<feColorMatrix in="SourceAlpha" type="matrix" values="0 0 0 0 0 0 0 0 0 0 0 0 0 0 0 0 0 0 127 0" result="hardAlpha"/>
<feOffset dx="2.55" dy="-2.55"/>
<feGaussianBlur stdDeviation="2.55"/>
<feComposite in2="hardAlpha" operator="arithmetic" k2="-1" k3="1"/>
<feColorMatrix type="matrix" values="0 0 0 0 0.101961 0 0 0 0 0.105882 0 0 0 0 0.117647 0 0 0 0.24 0"/>
<feBlend mode="normal" in2="shape" result="effect1_innerShadow_906_4888"/>
</filter>
<linearGradient id="paint0_linear_906_4888" x1="37.7411" y1="29.2402" x2="37.7411" y2="30.6402" gradientUnits="userSpaceOnUse">
<stop stop-color="white"/>
<stop offset="1" stop-color="white" stop-opacity="0.12"/>
</linearGradient>
<linearGradient id="paint1_linear_906_4888" x1="46.9954" y1="35.2842" x2="46.9954" y2="41.2842" gradientUnits="userSpaceOnUse">
<stop stop-color="white"/>
<stop offset="1" stop-color="white" stop-opacity="0.12"/>
</linearGradient>
<linearGradient id="paint2_linear_906_4888" x1="30.1064" y1="35.2842" x2="30.1064" y2="41.2842" gradientUnits="userSpaceOnUse">
<stop stop-color="white"/>
<stop offset="1" stop-color="white" stop-opacity="0.12"/>
</linearGradient>
<linearGradient id="paint3_linear_906_4888" x1="44.8557" y1="19.3292" x2="40.22" y2="31.1183" gradientUnits="userSpaceOnUse">
<stop stop-color="#003138" stop-opacity="0.2"/>
<stop offset="0.161064" stop-color="#003138" stop-opacity="0"/>
<stop offset="1" stop-color="#003138"/>
</linearGradient>
<linearGradient id="paint4_linear_906_4888" x1="35.64" y1="22.3579" x2="35.64" y2="27.5953" gradientUnits="userSpaceOnUse">
<stop stop-color="white"/>
<stop offset="1" stop-color="white" stop-opacity="0.12"/>
</linearGradient>
<linearGradient id="paint5_linear_906_4888" x1="45.5257" y1="22.3579" x2="45.5257" y2="27.5953" gradientUnits="userSpaceOnUse">
<stop stop-color="white"/>
<stop offset="1" stop-color="white" stop-opacity="0.12"/>
</linearGradient>
<clipPath id="clip0_906_4888">
<rect width="40" height="40" fill="white" transform="translate(18 11)"/>
</clipPath>
</defs>
</svg>
