<svg width="80" height="80" viewBox="0 0 80 80" fill="none" xmlns="http://www.w3.org/2000/svg">
<rect width="80" height="80" rx="20" fill="#00A2B9"/>
<path d="M22.4688 55.9277L20.1484 63H18.2793L21.4492 54.4688H22.6387L22.4688 55.9277ZM24.3965 63L22.0703 55.9277L21.8828 54.4688H23.084L26.2715 63H24.3965ZM24.291 59.8242V61.2012H19.7852V59.8242H24.291ZM26.957 54H28.6445V61.5469L28.4746 63H26.957V54ZM32.6582 59.7656V59.8887C32.6582 60.3613 32.6074 60.7949 32.5059 61.1895C32.4082 61.584 32.2559 61.9258 32.0488 62.2148C31.8418 62.5 31.584 62.7227 31.2754 62.8828C30.9707 63.0391 30.6113 63.1172 30.1973 63.1172C29.8105 63.1172 29.4746 63.0391 29.1895 62.8828C28.9082 62.7266 28.6719 62.5059 28.4805 62.2207C28.2891 61.9355 28.1348 61.6016 28.0176 61.2188C27.9004 60.8359 27.8125 60.418 27.7539 59.9648V59.6953C27.8125 59.2422 27.9004 58.8242 28.0176 58.4414C28.1348 58.0586 28.2891 57.7246 28.4805 57.4395C28.6719 57.1543 28.9082 56.9336 29.1895 56.7773C29.4707 56.6211 29.8027 56.543 30.1855 56.543C30.6035 56.543 30.9668 56.623 31.2754 56.7832C31.5879 56.9395 31.8457 57.1621 32.0488 57.4512C32.2559 57.7363 32.4082 58.0762 32.5059 58.4707C32.6074 58.8613 32.6582 59.293 32.6582 59.7656ZM30.9707 59.8887V59.7656C30.9707 59.5078 30.9512 59.2656 30.9121 59.0391C30.877 58.8086 30.8145 58.6074 30.7246 58.4355C30.6348 58.2598 30.5117 58.1211 30.3555 58.0195C30.2031 57.918 30.0059 57.8672 29.7637 57.8672C29.5332 57.8672 29.3379 57.9062 29.1777 57.9844C29.0176 58.0625 28.8848 58.1719 28.7793 58.3125C28.6777 58.4531 28.6016 58.6211 28.5508 58.8164C28.5 59.0078 28.4688 59.2188 28.457 59.4492V60.2168C28.4688 60.5254 28.5195 60.7988 28.6094 61.0371C28.7031 61.2715 28.8438 61.457 29.0312 61.5938C29.2227 61.7266 29.4707 61.793 29.7754 61.793C30.0137 61.793 30.2109 61.7461 30.3672 61.6523C30.5234 61.5586 30.6445 61.4258 30.7305 61.2539C30.8203 61.082 30.8828 60.8809 30.918 60.6504C30.9531 60.416 30.9707 60.1621 30.9707 59.8887ZM37.1348 61.248C37.1348 61.127 37.0996 61.0176 37.0293 60.9199C36.959 60.8223 36.8281 60.7324 36.6367 60.6504C36.4492 60.5645 36.1777 60.4863 35.8223 60.416C35.502 60.3457 35.2031 60.2578 34.9258 60.1523C34.6523 60.043 34.4141 59.9121 34.2109 59.7598C34.0117 59.6074 33.8555 59.4277 33.7422 59.2207C33.6289 59.0098 33.5723 58.7695 33.5723 58.5C33.5723 58.2344 33.6289 57.9844 33.7422 57.75C33.8594 57.5156 34.0254 57.3086 34.2402 57.1289C34.459 56.9453 34.7246 56.8027 35.0371 56.7012C35.3535 56.5957 35.709 56.543 36.1035 56.543C36.6543 56.543 37.127 56.6309 37.5215 56.8066C37.9199 56.9824 38.2246 57.2246 38.4355 57.5332C38.6504 57.8379 38.7578 58.1855 38.7578 58.5762H37.0703C37.0703 58.4121 37.0352 58.2656 36.9648 58.1367C36.8984 58.0039 36.793 57.9004 36.6484 57.8262C36.5078 57.748 36.3242 57.709 36.0977 57.709C35.9102 57.709 35.748 57.7422 35.6113 57.8086C35.4746 57.8711 35.3691 57.957 35.2949 58.0664C35.2246 58.1719 35.1895 58.2891 35.1895 58.418C35.1895 58.5156 35.209 58.6035 35.248 58.6816C35.291 58.7559 35.3594 58.8242 35.4531 58.8867C35.5469 58.9492 35.668 59.0078 35.8164 59.0625C35.9688 59.1133 36.1562 59.1602 36.3789 59.2031C36.8359 59.2969 37.2441 59.4199 37.6035 59.5723C37.9629 59.7207 38.248 59.9238 38.459 60.1816C38.6699 60.4355 38.7754 60.7695 38.7754 61.1836C38.7754 61.4648 38.7129 61.7227 38.5879 61.957C38.4629 62.1914 38.2832 62.3965 38.0488 62.5723C37.8145 62.7441 37.5332 62.8789 37.2051 62.9766C36.8809 63.0703 36.5156 63.1172 36.1094 63.1172C35.5195 63.1172 35.0195 63.0117 34.6094 62.8008C34.2031 62.5898 33.8945 62.3223 33.6836 61.998C33.4766 61.6699 33.373 61.334 33.373 60.9902H34.9727C34.9805 61.2207 35.0391 61.4062 35.1484 61.5469C35.2617 61.6875 35.4043 61.7891 35.5762 61.8516C35.752 61.9141 35.9414 61.9453 36.1445 61.9453C36.3633 61.9453 36.5449 61.916 36.6895 61.8574C36.834 61.7949 36.9434 61.7129 37.0176 61.6113C37.0957 61.5059 37.1348 61.3848 37.1348 61.248ZM42.7891 63.1172C42.2969 63.1172 41.8555 63.0391 41.4648 62.8828C41.0742 62.7227 40.7422 62.502 40.4688 62.2207C40.1992 61.9395 39.9922 61.6133 39.8477 61.2422C39.7031 60.8672 39.6309 60.4688 39.6309 60.0469V59.8125C39.6309 59.332 39.6992 58.8926 39.8359 58.4941C39.9727 58.0957 40.168 57.75 40.4219 57.457C40.6797 57.1641 40.9922 56.9395 41.3594 56.7832C41.7266 56.623 42.1406 56.543 42.6016 56.543C43.0508 56.543 43.4492 56.6172 43.7969 56.7656C44.1445 56.9141 44.4355 57.125 44.6699 57.3984C44.9082 57.6719 45.0879 58 45.209 58.3828C45.3301 58.7617 45.3906 59.1836 45.3906 59.6484V60.3516H40.3516V59.2266H43.7324V59.0977C43.7324 58.8633 43.6895 58.6543 43.6035 58.4707C43.5215 58.2832 43.3965 58.1348 43.2285 58.0254C43.0605 57.916 42.8457 57.8613 42.584 57.8613C42.3613 57.8613 42.1699 57.9102 42.0098 58.0078C41.8496 58.1055 41.7188 58.2422 41.6172 58.418C41.5195 58.5938 41.4453 58.8008 41.3945 59.0391C41.3477 59.2734 41.3242 59.5312 41.3242 59.8125V60.0469C41.3242 60.3008 41.3594 60.5352 41.4297 60.75C41.5039 60.9648 41.6074 61.1504 41.7402 61.3066C41.877 61.4629 42.041 61.584 42.2324 61.6699C42.4277 61.7559 42.6484 61.7988 42.8945 61.7988C43.1992 61.7988 43.4824 61.7402 43.7441 61.623C44.0098 61.502 44.2383 61.3203 44.4297 61.0781L45.25 61.9688C45.1172 62.1602 44.9355 62.3438 44.7051 62.5195C44.4785 62.6953 44.2051 62.8398 43.8848 62.9531C43.5645 63.0625 43.1992 63.1172 42.7891 63.1172ZM48.0039 58.0137V63H46.3164V56.6602H47.8984L48.0039 58.0137ZM47.7578 59.6074H47.3008C47.3008 59.1387 47.3613 58.7168 47.4824 58.3418C47.6035 57.9629 47.7734 57.6406 47.9922 57.375C48.2109 57.1055 48.4707 56.9004 48.7715 56.7598C49.0762 56.6152 49.416 56.543 49.791 56.543C50.0879 56.543 50.3594 56.5859 50.6055 56.6719C50.8516 56.7578 51.0625 56.8945 51.2383 57.082C51.418 57.2695 51.5547 57.5176 51.6484 57.8262C51.7461 58.1348 51.7949 58.5117 51.7949 58.957V63H50.0957V58.9512C50.0957 58.6699 50.0566 58.4512 49.9785 58.2949C49.9004 58.1387 49.7852 58.0293 49.6328 57.9668C49.4844 57.9004 49.3008 57.8672 49.082 57.8672C48.8555 57.8672 48.6582 57.9121 48.4902 58.002C48.3262 58.0918 48.1895 58.2168 48.0801 58.377C47.9746 58.5332 47.8945 58.7168 47.8398 58.9277C47.7852 59.1387 47.7578 59.3652 47.7578 59.6074ZM56.5059 61.248C56.5059 61.127 56.4707 61.0176 56.4004 60.9199C56.3301 60.8223 56.1992 60.7324 56.0078 60.6504C55.8203 60.5645 55.5488 60.4863 55.1934 60.416C54.873 60.3457 54.5742 60.2578 54.2969 60.1523C54.0234 60.043 53.7852 59.9121 53.582 59.7598C53.3828 59.6074 53.2266 59.4277 53.1133 59.2207C53 59.0098 52.9434 58.7695 52.9434 58.5C52.9434 58.2344 53 57.9844 53.1133 57.75C53.2305 57.5156 53.3965 57.3086 53.6113 57.1289C53.8301 56.9453 54.0957 56.8027 54.4082 56.7012C54.7246 56.5957 55.0801 56.543 55.4746 56.543C56.0254 56.543 56.498 56.6309 56.8926 56.8066C57.291 56.9824 57.5957 57.2246 57.8066 57.5332C58.0215 57.8379 58.1289 58.1855 58.1289 58.5762H56.4414C56.4414 58.4121 56.4062 58.2656 56.3359 58.1367C56.2695 58.0039 56.1641 57.9004 56.0195 57.8262C55.8789 57.748 55.6953 57.709 55.4688 57.709C55.2812 57.709 55.1191 57.7422 54.9824 57.8086C54.8457 57.8711 54.7402 57.957 54.666 58.0664C54.5957 58.1719 54.5605 58.2891 54.5605 58.418C54.5605 58.5156 54.5801 58.6035 54.6191 58.6816C54.6621 58.7559 54.7305 58.8242 54.8242 58.8867C54.918 58.9492 55.0391 59.0078 55.1875 59.0625C55.3398 59.1133 55.5273 59.1602 55.75 59.2031C56.207 59.2969 56.6152 59.4199 56.9746 59.5723C57.334 59.7207 57.6191 59.9238 57.8301 60.1816C58.041 60.4355 58.1465 60.7695 58.1465 61.1836C58.1465 61.4648 58.084 61.7227 57.959 61.957C57.834 62.1914 57.6543 62.3965 57.4199 62.5723C57.1855 62.7441 56.9043 62.8789 56.5762 62.9766C56.252 63.0703 55.8867 63.1172 55.4805 63.1172C54.8906 63.1172 54.3906 63.0117 53.9805 62.8008C53.5742 62.5898 53.2656 62.3223 53.0547 61.998C52.8477 61.6699 52.7441 61.334 52.7441 60.9902H54.3438C54.3516 61.2207 54.4102 61.4062 54.5195 61.5469C54.6328 61.6875 54.7754 61.7891 54.9473 61.8516C55.123 61.9141 55.3125 61.9453 55.5156 61.9453C55.7344 61.9453 55.916 61.916 56.0605 61.8574C56.2051 61.7949 56.3145 61.7129 56.3887 61.6113C56.4668 61.5059 56.5059 61.3848 56.5059 61.248ZM61.0234 56.6602V63H59.3301V56.6602H61.0234ZM59.2246 55.0078C59.2246 54.7617 59.3105 54.5586 59.4824 54.3984C59.6543 54.2383 59.8848 54.1582 60.1738 54.1582C60.459 54.1582 60.6875 54.2383 60.8594 54.3984C61.0352 54.5586 61.123 54.7617 61.123 55.0078C61.123 55.2539 61.0352 55.457 60.8594 55.6172C60.6875 55.7773 60.459 55.8574 60.1738 55.8574C59.8848 55.8574 59.6543 55.7773 59.4824 55.6172C59.3105 55.457 59.2246 55.2539 59.2246 55.0078Z" fill="white"/>
<path d="M38.6667 38.6667C38.6667 39.4 39.2667 40 40 40C40.7333 40 41.3333 39.4 41.3333 38.6667C41.3333 37.9333 40.7333 37.3333 40 37.3333C39.2667 37.3333 38.6667 37.9333 38.6667 38.6667ZM38.6667 20V25.3333H41.3333V22.7733C45.8533 23.4267 49.3333 27.2933 49.3333 32C49.3333 37.16 45.16 41.3333 40 41.3333C34.84 41.3333 30.6667 37.16 30.6667 32C30.6667 29.76 31.4533 27.7067 32.7733 26.1067L40 33.3333L41.88 31.4533L32.8133 22.3867V22.4133C29.8933 24.6 28 28.0667 28 32C28 38.6267 33.36 44 40 44C43.1826 44 46.2348 42.7357 48.4853 40.4853C50.7357 38.2348 52 35.1826 52 32C52 28.8174 50.7357 25.7652 48.4853 23.5147C46.2348 21.2643 43.1826 20 40 20H38.6667ZM48 32C48 31.2667 47.4 30.6667 46.6667 30.6667C45.9333 30.6667 45.3333 31.2667 45.3333 32C45.3333 32.7333 45.9333 33.3333 46.6667 33.3333C47.4 33.3333 48 32.7333 48 32ZM32 32C32 32.7333 32.6 33.3333 33.3333 33.3333C34.0667 33.3333 34.6667 32.7333 34.6667 32C34.6667 31.2667 34.0667 30.6667 33.3333 30.6667C32.6 30.6667 32 31.2667 32 32Z" fill="white"/>
</svg>
