<svg width="60" height="60" viewBox="0 0 60 60" fill="none" xmlns="http://www.w3.org/2000/svg">
<defs>
	<filter id="filter0_bdi_7711_104911" x="16" y="17" width="29" height="27" filterUnits="userSpaceOnUse" color-interpolation-filters="sRGB">
	<feFlood flood-opacity="0" result="BackgroundImageFix"/>
	<feGaussianBlur in="BackgroundImage" stdDeviation="2.5"/>
	<feComposite in2="SourceAlpha" operator="in" result="effect1_backgroundBlur_7711_104911"/>
	<feColorMatrix in="SourceAlpha" type="matrix" values="0 0 0 0 0 0 0 0 0 0 0 0 0 0 0 0 0 0 127 0" result="hardAlpha"/>
	<feOffset dy="2"/>
	<feGaussianBlur stdDeviation="2"/>
	<feComposite in2="hardAlpha" operator="out"/>
	<feColorMatrix type="matrix" values="0 0 0 0 0 0 0 0 0 0.380392 0 0 0 0 0.435294 0 0 0 0.1 0"/>
	<feBlend mode="normal" in2="effect1_backgroundBlur_7711_104911" result="effect2_dropShadow_7711_104911"/>
	<feBlend mode="normal" in="SourceGraphic" in2="effect2_dropShadow_7711_104911" result="shape"/>
	<feColorMatrix in="SourceAlpha" type="matrix" values="0 0 0 0 0 0 0 0 0 0 0 0 0 0 0 0 0 0 127 0" result="hardAlpha"/>
	<feOffset dy="2"/>
	<feGaussianBlur stdDeviation="2"/>
	<feComposite in2="hardAlpha" operator="arithmetic" k2="-1" k3="1"/>
	<feColorMatrix type="matrix" values="0 0 0 0 0 0 0 0 0 0.380392 0 0 0 0 0.435294 0 0 0 0.1 0"/>
	<feBlend mode="normal" in2="shape" result="effect3_innerShadow_7711_104911"/>
	</filter>
	<linearGradient id="paint0_linear_7711_104911" x1="30" y1="14" x2="30" y2="46" gradientUnits="userSpaceOnUse">
	<stop stop-color="#F3AF00" stop-opacity="0.5"/>
	<stop offset="0.5" stop-color="#26B5CA"/>
	<stop offset="1" stop-color="#00A2B9"/>
	</linearGradient>
</defs>
<rect width="60" height="60" rx="16" fill="#00A2B9" fill-opacity="0.1"/>
<rect x="14" y="14" width="32" height="32" rx="8" fill="url(#paint0_linear_7711_104911)" fill-opacity="0.95"/>
<g filter="url(#filter0_bdi_7711_104911)">
<path fill-rule="evenodd" clip-rule="evenodd" d="M28.9825 22.3204C29.0929 22.4217 29.1805 22.542 29.2403 22.6745C29.3 22.807 29.3308 22.949 29.3308 23.0924C29.3308 23.2358 29.3 23.3779 29.2403 23.5103C29.1805 23.6428 29.0929 23.7632 28.9825 23.8645L24.8325 27.6811C24.6165 27.8795 24.3256 27.9936 24.0203 27.9997C23.7151 28.0058 23.419 27.9034 23.1939 27.7138L21.4153 26.2199C21.2945 26.1248 21.1956 26.0085 21.1246 25.8776C21.0537 25.7468 21.0121 25.6041 21.0023 25.4582C20.9925 25.3123 21.0147 25.166 21.0676 25.0281C21.1205 24.8902 21.203 24.7635 21.3102 24.6556C21.4174 24.5476 21.5471 24.4606 21.6917 24.3996C21.8362 24.3387 21.9926 24.3051 22.1515 24.3009C22.3104 24.2967 22.4686 24.3219 22.6167 24.3751C22.7649 24.4282 22.8998 24.5082 23.0136 24.6103L23.9551 25.3998L27.3035 22.3204C27.4136 22.2188 27.5445 22.1382 27.6885 22.0833C27.8326 22.0283 27.987 22 28.143 22C28.2989 22 28.4534 22.0283 28.5974 22.0833C28.7415 22.1382 28.8723 22.2188 28.9825 22.3204ZM32.8858 23.6376C32.5713 23.6376 32.2697 23.7525 32.0474 23.957C31.825 24.1615 31.7001 24.4389 31.7001 24.7281C31.7001 25.0173 31.825 25.2947 32.0474 25.4992C32.2697 25.7037 32.5713 25.8186 32.8858 25.8186H38.8143C39.1288 25.8186 39.4304 25.7037 39.6527 25.4992C39.8751 25.2947 40 25.0173 40 24.7281C40 24.4389 39.8751 24.1615 39.6527 23.957C39.4304 23.7525 39.1288 23.6376 38.8143 23.6376H32.8858ZM28.9825 32.3204C29.0929 32.4217 29.1805 32.542 29.2403 32.6745C29.3 32.807 29.3308 32.949 29.3308 33.0924C29.3308 33.2358 29.3 33.3779 29.2403 33.5103C29.1805 33.6428 29.0929 33.7632 28.9825 33.8645L24.8325 37.6811C24.6165 37.8795 24.3256 37.9936 24.0203 37.9997C23.7151 38.0058 23.419 37.9034 23.1939 37.7138L21.4153 36.2199C21.2945 36.1248 21.1956 36.0085 21.1246 35.8776C21.0537 35.7468 21.0121 35.6041 21.0023 35.4582C20.9925 35.3123 21.0147 35.166 21.0676 35.0281C21.1205 34.8902 21.203 34.7635 21.3102 34.6556C21.4174 34.5476 21.5471 34.4606 21.6917 34.3996C21.8362 34.3387 21.9926 34.3051 22.1515 34.3009C22.3104 34.2967 22.4686 34.3219 22.6167 34.3751C22.7649 34.4282 22.8998 34.5082 23.0136 34.6103L23.9551 35.3998L27.3035 32.3204C27.4136 32.2188 27.5445 32.1382 27.6885 32.0833C27.8326 32.0283 27.987 32 28.143 32C28.2989 32 28.4534 32.0283 28.5974 32.0833C28.7415 32.1382 28.8723 32.2188 28.9825 32.3204ZM32.8858 33.6376C32.5713 33.6376 32.2697 33.7525 32.0474 33.957C31.825 34.1615 31.7001 34.4389 31.7001 34.7281C31.7001 35.0173 31.825 35.2947 32.0474 35.4992C32.2697 35.7037 32.5713 35.8186 32.8858 35.8186H38.8143C39.1288 35.8186 39.4304 35.7037 39.6527 35.4992C39.8751 35.2947 40 35.0173 40 34.7281C40 34.4389 39.8751 34.1615 39.6527 33.957C39.4304 33.7525 39.1288 33.6376 38.8143 33.6376H32.8858Z" fill="#E6F6F8"/>
</g>
</svg>
