<svg width="80" height="80" viewBox="0 0 80 80" fill="none" xmlns="http://www.w3.org/2000/svg">
<rect width="80" height="80" rx="20" fill="#00A2B9" fill-opacity="0.1"/>
<path d="M25.4336 54.4688H28.2578C28.8984 54.4688 29.4395 54.5664 29.8809 54.7617C30.3262 54.957 30.6641 55.2461 30.8945 55.6289C31.1289 56.0078 31.2461 56.4746 31.2461 57.0293C31.2461 57.4199 31.166 57.7773 31.0059 58.1016C30.8496 58.4219 30.623 58.6953 30.3262 58.9219C30.0332 59.1445 29.6816 59.3105 29.2715 59.4199L28.9551 59.543H26.3008L26.2891 58.623H28.293C28.6992 58.623 29.0371 58.5527 29.3066 58.4121C29.5762 58.2676 29.7793 58.0742 29.916 57.832C30.0527 57.5898 30.1211 57.3223 30.1211 57.0293C30.1211 56.7012 30.0566 56.4141 29.9277 56.168C29.7988 55.9219 29.5957 55.7324 29.3184 55.5996C29.0449 55.4629 28.6914 55.3945 28.2578 55.3945H26.5645V63H25.4336V54.4688ZM30.4199 63L28.3457 59.1328L29.5234 59.127L31.627 62.9297V63H30.4199ZM36.4023 61.916V58.6523C36.4023 58.4023 36.3516 58.1855 36.25 58.002C36.1523 57.8145 36.0039 57.6699 35.8047 57.5684C35.6055 57.4668 35.3594 57.416 35.0664 57.416C34.793 57.416 34.5527 57.4629 34.3457 57.5566C34.1426 57.6504 33.9824 57.7734 33.8652 57.9258C33.752 58.0781 33.6953 58.2422 33.6953 58.418H32.6113C32.6113 58.1914 32.6699 57.9668 32.7871 57.7441C32.9043 57.5215 33.0723 57.3203 33.291 57.1406C33.5137 56.957 33.7793 56.8125 34.0879 56.707C34.4004 56.5977 34.748 56.543 35.1309 56.543C35.5918 56.543 35.998 56.6211 36.3496 56.7773C36.7051 56.9336 36.9824 57.1699 37.1816 57.4863C37.3848 57.7988 37.4863 58.1914 37.4863 58.6641V61.6172C37.4863 61.8281 37.5039 62.0527 37.5391 62.291C37.5781 62.5293 37.6348 62.7344 37.709 62.9062V63H36.5781C36.5234 62.875 36.4805 62.709 36.4492 62.502C36.418 62.291 36.4023 62.0957 36.4023 61.916ZM36.5898 59.1562L36.6016 59.918H35.5059C35.1973 59.918 34.9219 59.9434 34.6797 59.9941C34.4375 60.041 34.2344 60.1133 34.0703 60.2109C33.9062 60.3086 33.7812 60.4316 33.6953 60.5801C33.6094 60.7246 33.5664 60.8945 33.5664 61.0898C33.5664 61.2891 33.6113 61.4707 33.7012 61.6348C33.791 61.7988 33.9258 61.9297 34.1055 62.0273C34.2891 62.1211 34.5137 62.168 34.7793 62.168C35.1113 62.168 35.4043 62.0977 35.6582 61.957C35.9121 61.8164 36.1133 61.6445 36.2617 61.4414C36.4141 61.2383 36.4961 61.041 36.5078 60.8496L36.9707 61.3711C36.9434 61.5352 36.8691 61.7168 36.748 61.916C36.627 62.1152 36.4648 62.3066 36.2617 62.4902C36.0625 62.6699 35.8242 62.8203 35.5469 62.9414C35.2734 63.0586 34.9648 63.1172 34.6211 63.1172C34.1914 63.1172 33.8145 63.0332 33.4902 62.8652C33.1699 62.6973 32.9199 62.4727 32.7402 62.1914C32.5645 61.9062 32.4766 61.5879 32.4766 61.2363C32.4766 60.8965 32.543 60.5977 32.6758 60.3398C32.8086 60.0781 33 59.8613 33.25 59.6895C33.5 59.5137 33.8008 59.3809 34.1523 59.291C34.5039 59.2012 34.8965 59.1562 35.3301 59.1562H36.5898ZM40.2754 57.8789V65.4375H39.1855V56.6602H40.1816L40.2754 57.8789ZM44.5469 59.7773V59.9004C44.5469 60.3613 44.4922 60.7891 44.3828 61.1836C44.2734 61.5742 44.1133 61.9141 43.9023 62.2031C43.6953 62.4922 43.4395 62.7168 43.1348 62.877C42.8301 63.0371 42.4805 63.1172 42.0859 63.1172C41.6836 63.1172 41.3281 63.0508 41.0195 62.918C40.7109 62.7852 40.4492 62.5918 40.2344 62.3379C40.0195 62.084 39.8477 61.7793 39.7188 61.4238C39.5938 61.0684 39.5078 60.668 39.4609 60.2227V59.5664C39.5078 59.0977 39.5957 58.6777 39.7246 58.3066C39.8535 57.9355 40.0234 57.6191 40.2344 57.3574C40.4492 57.0918 40.709 56.8906 41.0137 56.7539C41.3184 56.6133 41.6699 56.543 42.0684 56.543C42.4668 56.543 42.8203 56.6211 43.1289 56.7773C43.4375 56.9297 43.6973 57.1484 43.9082 57.4336C44.1191 57.7188 44.2773 58.0605 44.3828 58.459C44.4922 58.8535 44.5469 59.293 44.5469 59.7773ZM43.457 59.9004V59.7773C43.457 59.4609 43.4238 59.1641 43.3574 58.8867C43.291 58.6055 43.1875 58.3594 43.0469 58.1484C42.9102 57.9336 42.7344 57.7656 42.5195 57.6445C42.3047 57.5195 42.0488 57.457 41.752 57.457C41.4785 57.457 41.2402 57.5039 41.0371 57.5977C40.8379 57.6914 40.668 57.8184 40.5273 57.9785C40.3867 58.1348 40.2715 58.3145 40.1816 58.5176C40.0957 58.7168 40.0312 58.9238 39.9883 59.1387V60.6562C40.0664 60.9297 40.1758 61.1875 40.3164 61.4297C40.457 61.668 40.6445 61.8613 40.8789 62.0098C41.1133 62.1543 41.4082 62.2266 41.7637 62.2266C42.0566 62.2266 42.3086 62.166 42.5195 62.0449C42.7344 61.9199 42.9102 61.75 43.0469 61.5352C43.1875 61.3203 43.291 61.0742 43.3574 60.7969C43.4238 60.5156 43.457 60.2168 43.457 59.9004ZM49.668 61.916V58.6523C49.668 58.4023 49.6172 58.1855 49.5156 58.002C49.418 57.8145 49.2695 57.6699 49.0703 57.5684C48.8711 57.4668 48.625 57.416 48.332 57.416C48.0586 57.416 47.8184 57.4629 47.6113 57.5566C47.4082 57.6504 47.248 57.7734 47.1309 57.9258C47.0176 58.0781 46.9609 58.2422 46.9609 58.418H45.877C45.877 58.1914 45.9355 57.9668 46.0527 57.7441C46.1699 57.5215 46.3379 57.3203 46.5566 57.1406C46.7793 56.957 47.0449 56.8125 47.3535 56.707C47.666 56.5977 48.0137 56.543 48.3965 56.543C48.8574 56.543 49.2637 56.6211 49.6152 56.7773C49.9707 56.9336 50.248 57.1699 50.4473 57.4863C50.6504 57.7988 50.752 58.1914 50.752 58.6641V61.6172C50.752 61.8281 50.7695 62.0527 50.8047 62.291C50.8438 62.5293 50.9004 62.7344 50.9746 62.9062V63H49.8438C49.7891 62.875 49.7461 62.709 49.7148 62.502C49.6836 62.291 49.668 62.0957 49.668 61.916ZM49.8555 59.1562L49.8672 59.918H48.7715C48.4629 59.918 48.1875 59.9434 47.9453 59.9941C47.7031 60.041 47.5 60.1133 47.3359 60.2109C47.1719 60.3086 47.0469 60.4316 46.9609 60.5801C46.875 60.7246 46.832 60.8945 46.832 61.0898C46.832 61.2891 46.877 61.4707 46.9668 61.6348C47.0566 61.7988 47.1914 61.9297 47.3711 62.0273C47.5547 62.1211 47.7793 62.168 48.0449 62.168C48.377 62.168 48.6699 62.0977 48.9238 61.957C49.1777 61.8164 49.3789 61.6445 49.5273 61.4414C49.6797 61.2383 49.7617 61.041 49.7734 60.8496L50.2363 61.3711C50.209 61.5352 50.1348 61.7168 50.0137 61.916C49.8926 62.1152 49.7305 62.3066 49.5273 62.4902C49.3281 62.6699 49.0898 62.8203 48.8125 62.9414C48.5391 63.0586 48.2305 63.1172 47.8867 63.1172C47.457 63.1172 47.0801 63.0332 46.7559 62.8652C46.4355 62.6973 46.1855 62.4727 46.0059 62.1914C45.8301 61.9062 45.7422 61.5879 45.7422 61.2363C45.7422 60.8965 45.8086 60.5977 45.9414 60.3398C46.0742 60.0781 46.2656 59.8613 46.5156 59.6895C46.7656 59.5137 47.0664 59.3809 47.418 59.291C47.7695 59.2012 48.1621 59.1562 48.5957 59.1562H49.8555ZM55.1113 56.6602V57.4922H51.6836V56.6602H55.1113ZM52.8438 55.1191H53.9277V61.4297C53.9277 61.6445 53.9609 61.8066 54.0273 61.916C54.0938 62.0254 54.1797 62.0977 54.2852 62.1328C54.3906 62.168 54.5039 62.1855 54.625 62.1855C54.7148 62.1855 54.8086 62.1777 54.9062 62.1621C55.0078 62.1426 55.084 62.127 55.1348 62.1152L55.1406 63C55.0547 63.0273 54.9414 63.0527 54.8008 63.0762C54.6641 63.1035 54.498 63.1172 54.3027 63.1172C54.0371 63.1172 53.793 63.0645 53.5703 62.959C53.3477 62.8535 53.1699 62.6777 53.0371 62.4316C52.9082 62.1816 52.8438 61.8457 52.8438 61.4238V55.1191Z" fill="#666666"/>
<path d="M40 27C41.2377 27 42.4247 27.4917 43.2998 28.3668C44.175 29.242 44.6667 30.429 44.6667 31.6667C44.6667 32.9043 44.175 34.0913 43.2998 34.9665C42.4247 35.8417 41.2377 36.3333 40 36.3333C38.7623 36.3333 37.5753 35.8417 36.7002 34.9665C35.825 34.0913 35.3333 32.9043 35.3333 31.6667C35.3333 30.429 35.825 29.242 36.7002 28.3668C37.5753 27.4917 38.7623 27 40 27ZM30.6667 30.3333C31.4133 30.3333 32.1067 30.5333 32.7067 30.8933C32.5067 32.8 33.0667 34.6933 34.2133 36.1733C33.5467 37.4533 32.2133 38.3333 30.6667 38.3333C29.6058 38.3333 28.5884 37.9119 27.8382 37.1618C27.0881 36.4116 26.6667 35.3942 26.6667 34.3333C26.6667 33.2725 27.0881 32.2551 27.8382 31.5049C28.5884 30.7548 29.6058 30.3333 30.6667 30.3333ZM49.3333 30.3333C50.3942 30.3333 51.4116 30.7548 52.1618 31.5049C52.9119 32.2551 53.3333 33.2725 53.3333 34.3333C53.3333 35.3942 52.9119 36.4116 52.1618 37.1618C51.4116 37.9119 50.3942 38.3333 49.3333 38.3333C47.7867 38.3333 46.4533 37.4533 45.7867 36.1733C46.9492 34.6726 47.4888 32.7816 47.2933 30.8933C47.8933 30.5333 48.5867 30.3333 49.3333 30.3333ZM31.3333 44C31.3333 41.24 35.2133 39 40 39C44.7867 39 48.6667 41.24 48.6667 44V46.3333H31.3333V44ZM24 46.3333V44.3333C24 42.48 26.52 40.92 29.9333 40.4667C29.1467 41.3733 28.6667 42.6267 28.6667 44V46.3333H24ZM56 46.3333H51.3333V44C51.3333 42.6267 50.8533 41.3733 50.0667 40.4667C53.48 40.92 56 42.48 56 44.3333V46.3333Z" fill="#00A2B9"/>
<path d="M36.7283 20.277C37.3326 20.8813 37.672 21.7008 37.672 22.5553C37.672 26.5553 32.3387 27.3333 32.3387 27.3333V26L32.2167 25.9953C31.343 25.9651 30.5163 25.5927 29.9146 24.9585C29.313 24.3243 28.9847 23.479 29.0005 22.605C29.0164 21.731 29.3751 20.8981 29.9993 20.2861C30.6235 19.6741 31.4632 19.3319 32.3374 19.3333H34.45C35.3046 19.3333 36.1241 19.6728 36.7283 20.277Z" fill="#F3AF00"/>
<path d="M40.6944 19.0224C40.0398 19.677 39.672 20.5649 39.672 21.4907C39.672 25.824 45.672 26.6667 45.672 26.6667V24.6667H47.0054C47.8894 24.6667 48.7373 24.3155 49.3624 23.6904C49.9875 23.0652 50.3387 22.2174 50.3387 21.3333C50.3387 20.4493 49.9875 19.6014 49.3624 18.9763C48.7373 18.3512 47.8894 18 47.0054 18H43.1627C42.2369 18 41.349 18.3678 40.6944 19.0224Z" fill="#F3AF00"/>
</svg>
