<svg width="80" height="80" viewBox="0 0 80 80" fill="none" xmlns="http://www.w3.org/2000/svg">
<rect width="80" height="80" rx="20" fill="#00A2B9"/>
<path d="M17.5293 62.0801V63H13.0117V62.0801H17.5293ZM13.2402 54.4688V63H12.1094V54.4688H13.2402ZM16.9316 58.1367V59.0566H13.0117V58.1367H16.9316ZM17.4707 54.4688V55.3945H13.0117V54.4688H17.4707ZM21.0215 58.9277V59.8184H18.1621V58.9277H21.0215ZM27.3965 60.2871H28.5215C28.4629 60.8262 28.3086 61.3086 28.0586 61.7344C27.8086 62.1602 27.4551 62.498 26.998 62.748C26.541 62.9941 25.9707 63.1172 25.2871 63.1172C24.7871 63.1172 24.332 63.0234 23.9219 62.8359C23.5156 62.6484 23.166 62.3828 22.873 62.0391C22.5801 61.6914 22.3535 61.2754 22.1934 60.791C22.0371 60.3027 21.959 59.7598 21.959 59.1621V58.3125C21.959 57.7148 22.0371 57.1738 22.1934 56.6895C22.3535 56.2012 22.582 55.7832 22.8789 55.4355C23.1797 55.0879 23.541 54.8203 23.9629 54.6328C24.3848 54.4453 24.8594 54.3516 25.3867 54.3516C26.0312 54.3516 26.5762 54.4727 27.0215 54.7148C27.4668 54.957 27.8125 55.293 28.0586 55.7227C28.3086 56.1484 28.4629 56.6426 28.5215 57.2051H27.3965C27.3418 56.8066 27.2402 56.4648 27.0918 56.1797C26.9434 55.8906 26.7324 55.668 26.459 55.5117C26.1855 55.3555 25.8281 55.2773 25.3867 55.2773C25.0078 55.2773 24.6738 55.3496 24.3848 55.4941C24.0996 55.6387 23.8594 55.8438 23.6641 56.1094C23.4727 56.375 23.3281 56.6934 23.2305 57.0645C23.1328 57.4355 23.084 57.8477 23.084 58.3008V59.1621C23.084 59.5801 23.127 59.9727 23.2129 60.3398C23.3027 60.707 23.4375 61.0293 23.6172 61.3066C23.7969 61.584 24.0254 61.8027 24.3027 61.9629C24.5801 62.1191 24.9082 62.1973 25.2871 62.1973C25.7676 62.1973 26.1504 62.1211 26.4355 61.9688C26.7207 61.8164 26.9355 61.5977 27.0801 61.3125C27.2285 61.0273 27.334 60.6855 27.3965 60.2871ZM33.6367 61.916V58.6523C33.6367 58.4023 33.5859 58.1855 33.4844 58.002C33.3867 57.8145 33.2383 57.6699 33.0391 57.5684C32.8398 57.4668 32.5938 57.416 32.3008 57.416C32.0273 57.416 31.7871 57.4629 31.5801 57.5566C31.377 57.6504 31.2168 57.7734 31.0996 57.9258C30.9863 58.0781 30.9297 58.2422 30.9297 58.418H29.8457C29.8457 58.1914 29.9043 57.9668 30.0215 57.7441C30.1387 57.5215 30.3066 57.3203 30.5254 57.1406C30.748 56.957 31.0137 56.8125 31.3223 56.707C31.6348 56.5977 31.9824 56.543 32.3652 56.543C32.8262 56.543 33.2324 56.6211 33.584 56.7773C33.9395 56.9336 34.2168 57.1699 34.416 57.4863C34.6191 57.7988 34.7207 58.1914 34.7207 58.6641V61.6172C34.7207 61.8281 34.7383 62.0527 34.7734 62.291C34.8125 62.5293 34.8691 62.7344 34.9434 62.9062V63H33.8125C33.7578 62.875 33.7148 62.709 33.6836 62.502C33.6523 62.291 33.6367 62.0957 33.6367 61.916ZM33.8242 59.1562L33.8359 59.918H32.7402C32.4316 59.918 32.1562 59.9434 31.9141 59.9941C31.6719 60.041 31.4688 60.1133 31.3047 60.2109C31.1406 60.3086 31.0156 60.4316 30.9297 60.5801C30.8438 60.7246 30.8008 60.8945 30.8008 61.0898C30.8008 61.2891 30.8457 61.4707 30.9355 61.6348C31.0254 61.7988 31.1602 61.9297 31.3398 62.0273C31.5234 62.1211 31.748 62.168 32.0137 62.168C32.3457 62.168 32.6387 62.0977 32.8926 61.957C33.1465 61.8164 33.3477 61.6445 33.4961 61.4414C33.6484 61.2383 33.7305 61.041 33.7422 60.8496L34.2051 61.3711C34.1777 61.5352 34.1035 61.7168 33.9824 61.916C33.8613 62.1152 33.6992 62.3066 33.4961 62.4902C33.2969 62.6699 33.0586 62.8203 32.7812 62.9414C32.5078 63.0586 32.1992 63.1172 31.8555 63.1172C31.4258 63.1172 31.0488 63.0332 30.7246 62.8652C30.4043 62.6973 30.1543 62.4727 29.9746 62.1914C29.7988 61.9062 29.7109 61.5879 29.7109 61.2363C29.7109 60.8965 29.7773 60.5977 29.9102 60.3398C30.043 60.0781 30.2344 59.8613 30.4844 59.6895C30.7344 59.5137 31.0352 59.3809 31.3867 59.291C31.7383 59.2012 32.1309 59.1562 32.5645 59.1562H33.8242ZM37.6035 54V63H36.5137V54H37.6035ZM41.9746 63.1172C41.5332 63.1172 41.1328 63.043 40.7734 62.8945C40.418 62.7422 40.1113 62.5293 39.8535 62.2559C39.5996 61.9824 39.4043 61.6582 39.2676 61.2832C39.1309 60.9082 39.0625 60.498 39.0625 60.0527V59.8066C39.0625 59.291 39.1387 58.832 39.291 58.4297C39.4434 58.0234 39.6504 57.6797 39.9121 57.3984C40.1738 57.1172 40.4707 56.9043 40.8027 56.7598C41.1348 56.6152 41.4785 56.543 41.834 56.543C42.2871 56.543 42.6777 56.6211 43.0059 56.7773C43.3379 56.9336 43.6094 57.1523 43.8203 57.4336C44.0312 57.7109 44.1875 58.0391 44.2891 58.418C44.3906 58.793 44.4414 59.2031 44.4414 59.6484V60.1348H39.707V59.25H43.3574V59.168C43.3418 58.8867 43.2832 58.6133 43.1816 58.3477C43.084 58.082 42.9277 57.8633 42.7129 57.6914C42.498 57.5195 42.2051 57.4336 41.834 57.4336C41.5879 57.4336 41.3613 57.4863 41.1543 57.5918C40.9473 57.6934 40.7695 57.8457 40.6211 58.0488C40.4727 58.252 40.3574 58.5 40.2754 58.793C40.1934 59.0859 40.1523 59.4238 40.1523 59.8066V60.0527C40.1523 60.3535 40.1934 60.6367 40.2754 60.9023C40.3613 61.1641 40.4844 61.3945 40.6445 61.5938C40.8086 61.793 41.0059 61.9492 41.2363 62.0625C41.4707 62.1758 41.7363 62.2324 42.0332 62.2324C42.416 62.2324 42.7402 62.1543 43.0059 61.998C43.2715 61.8418 43.5039 61.6328 43.7031 61.3711L44.3594 61.8926C44.2227 62.0996 44.0488 62.2969 43.8379 62.4844C43.627 62.6719 43.3672 62.8242 43.0586 62.9414C42.7539 63.0586 42.3926 63.1172 41.9746 63.1172ZM46.791 58.0137V63H45.707V56.6602H46.7324L46.791 58.0137ZM46.5332 59.5898L46.082 59.5723C46.0859 59.1387 46.1504 58.7383 46.2754 58.3711C46.4004 58 46.5762 57.6777 46.8027 57.4043C47.0293 57.1309 47.2988 56.9199 47.6113 56.7715C47.9277 56.6191 48.2773 56.543 48.6602 56.543C48.9727 56.543 49.2539 56.5859 49.5039 56.6719C49.7539 56.7539 49.9668 56.8867 50.1426 57.0703C50.3223 57.2539 50.459 57.4922 50.5527 57.7852C50.6465 58.0742 50.6934 58.4277 50.6934 58.8457V63H49.6035V58.834C49.6035 58.502 49.5547 58.2363 49.457 58.0371C49.3594 57.834 49.2168 57.6875 49.0293 57.5977C48.8418 57.5039 48.6113 57.457 48.3379 57.457C48.0684 57.457 47.8223 57.5137 47.5996 57.627C47.3809 57.7402 47.1914 57.8965 47.0312 58.0957C46.875 58.2949 46.752 58.5234 46.6621 58.7812C46.5762 59.0352 46.5332 59.3047 46.5332 59.5898ZM56.3359 61.7695V54H57.4258V63H56.4297L56.3359 61.7695ZM52.0703 59.9004V59.7773C52.0703 59.293 52.1289 58.8535 52.2461 58.459C52.3672 58.0605 52.5371 57.7188 52.7559 57.4336C52.9785 57.1484 53.2422 56.9297 53.5469 56.7773C53.8555 56.6211 54.1992 56.543 54.5781 56.543C54.9766 56.543 55.3242 56.6133 55.6211 56.7539C55.9219 56.8906 56.1758 57.0918 56.3828 57.3574C56.5938 57.6191 56.7598 57.9355 56.8809 58.3066C57.002 58.6777 57.0859 59.0977 57.1328 59.5664V60.1055C57.0898 60.5703 57.0059 60.9883 56.8809 61.3594C56.7598 61.7305 56.5938 62.0469 56.3828 62.3086C56.1758 62.5703 55.9219 62.7715 55.6211 62.9121C55.3203 63.0488 54.9688 63.1172 54.5664 63.1172C54.1953 63.1172 53.8555 63.0371 53.5469 62.877C53.2422 62.7168 52.9785 62.4922 52.7559 62.2031C52.5371 61.9141 52.3672 61.5742 52.2461 61.1836C52.1289 60.7891 52.0703 60.3613 52.0703 59.9004ZM53.1602 59.7773V59.9004C53.1602 60.2168 53.1914 60.5137 53.2539 60.791C53.3203 61.0684 53.4219 61.3125 53.5586 61.5234C53.6953 61.7344 53.8691 61.9004 54.0801 62.0215C54.291 62.1387 54.543 62.1973 54.8359 62.1973C55.1953 62.1973 55.4902 62.1211 55.7207 61.9688C55.9551 61.8164 56.1426 61.6152 56.2832 61.3652C56.4238 61.1152 56.5332 60.8438 56.6113 60.5508V59.1387C56.5645 58.9238 56.4961 58.7168 56.4062 58.5176C56.3203 58.3145 56.207 58.1348 56.0664 57.9785C55.9297 57.8184 55.7598 57.6914 55.5566 57.5977C55.3574 57.5039 55.1211 57.457 54.8477 57.457C54.5508 57.457 54.2949 57.5195 54.0801 57.6445C53.8691 57.7656 53.6953 57.9336 53.5586 58.1484C53.4219 58.3594 53.3203 58.6055 53.2539 58.8867C53.1914 59.1641 53.1602 59.4609 53.1602 59.7773ZM62.8516 61.916V58.6523C62.8516 58.4023 62.8008 58.1855 62.6992 58.002C62.6016 57.8145 62.4531 57.6699 62.2539 57.5684C62.0547 57.4668 61.8086 57.416 61.5156 57.416C61.2422 57.416 61.002 57.4629 60.7949 57.5566C60.5918 57.6504 60.4316 57.7734 60.3145 57.9258C60.2012 58.0781 60.1445 58.2422 60.1445 58.418H59.0605C59.0605 58.1914 59.1191 57.9668 59.2363 57.7441C59.3535 57.5215 59.5215 57.3203 59.7402 57.1406C59.9629 56.957 60.2285 56.8125 60.5371 56.707C60.8496 56.5977 61.1973 56.543 61.5801 56.543C62.041 56.543 62.4473 56.6211 62.7988 56.7773C63.1543 56.9336 63.4316 57.1699 63.6309 57.4863C63.834 57.7988 63.9355 58.1914 63.9355 58.6641V61.6172C63.9355 61.8281 63.9531 62.0527 63.9883 62.291C64.0273 62.5293 64.084 62.7344 64.1582 62.9062V63H63.0273C62.9727 62.875 62.9297 62.709 62.8984 62.502C62.8672 62.291 62.8516 62.0957 62.8516 61.916ZM63.0391 59.1562L63.0508 59.918H61.9551C61.6465 59.918 61.3711 59.9434 61.1289 59.9941C60.8867 60.041 60.6836 60.1133 60.5195 60.2109C60.3555 60.3086 60.2305 60.4316 60.1445 60.5801C60.0586 60.7246 60.0156 60.8945 60.0156 61.0898C60.0156 61.2891 60.0605 61.4707 60.1504 61.6348C60.2402 61.7988 60.375 61.9297 60.5547 62.0273C60.7383 62.1211 60.9629 62.168 61.2285 62.168C61.5605 62.168 61.8535 62.0977 62.1074 61.957C62.3613 61.8164 62.5625 61.6445 62.7109 61.4414C62.8633 61.2383 62.9453 61.041 62.957 60.8496L63.4199 61.3711C63.3926 61.5352 63.3184 61.7168 63.1973 61.916C63.0762 62.1152 62.9141 62.3066 62.7109 62.4902C62.5117 62.6699 62.2734 62.8203 61.9961 62.9414C61.7227 63.0586 61.4141 63.1172 61.0703 63.1172C60.6406 63.1172 60.2637 63.0332 59.9395 62.8652C59.6191 62.6973 59.3691 62.4727 59.1895 62.1914C59.0137 61.9062 58.9258 61.5879 58.9258 61.2363C58.9258 60.8965 58.9922 60.5977 59.125 60.3398C59.2578 60.0781 59.4492 59.8613 59.6992 59.6895C59.9492 59.5137 60.25 59.3809 60.6016 59.291C60.9531 59.2012 61.3457 59.1562 61.7793 59.1562H63.0391ZM66.7246 57.6562V63H65.6406V56.6602H66.6953L66.7246 57.6562ZM68.7051 56.625L68.6992 57.6328C68.6094 57.6133 68.5234 57.6016 68.4414 57.5977C68.3633 57.5898 68.2734 57.5859 68.1719 57.5859C67.9219 57.5859 67.7012 57.625 67.5098 57.7031C67.3184 57.7812 67.1562 57.8906 67.0234 58.0312C66.8906 58.1719 66.7852 58.3398 66.707 58.5352C66.6328 58.7266 66.584 58.9375 66.5605 59.168L66.2559 59.3438C66.2559 58.9609 66.293 58.6016 66.3672 58.2656C66.4453 57.9297 66.5645 57.6328 66.7246 57.375C66.8848 57.1133 67.0879 56.9102 67.334 56.7656C67.584 56.6172 67.8809 56.543 68.2246 56.543C68.3027 56.543 68.3926 56.5527 68.4941 56.5723C68.5957 56.5879 68.666 56.6055 68.7051 56.625Z" fill="#666666"/>
<path d="M49.3333 21.3335H30.6667C29.1939 21.3335 28 22.5274 28 24.0002V42.6668C28 44.1396 29.1939 45.3335 30.6667 45.3335H49.3333C50.8061 45.3335 52 44.1396 52 42.6668V24.0002C52 22.5274 50.8061 21.3335 49.3333 21.3335Z" stroke="#00A2B9" stroke-width="2" stroke-linecap="round" stroke-linejoin="round"/>
<path d="M45.3333 18.6667V24.0001" stroke="#F3AF00" stroke-width="2" stroke-linecap="round" stroke-linejoin="round"/>
<path d="M34.6667 18.6667V24.0001" stroke="#F3AF00" stroke-width="2" stroke-linecap="round" stroke-linejoin="round"/>
<path d="M28 29.3335H52" stroke="#00A2B9" stroke-width="2" stroke-linecap="round" stroke-linejoin="round"/>
<path d="M17.5293 62.0801V63H13.0117V62.0801H17.5293ZM13.2402 54.4688V63H12.1094V54.4688H13.2402ZM16.9316 58.1367V59.0566H13.0117V58.1367H16.9316ZM17.4707 54.4688V55.3945H13.0117V54.4688H17.4707ZM21.0215 58.9277V59.8184H18.1621V58.9277H21.0215ZM27.3965 60.2871H28.5215C28.4629 60.8262 28.3086 61.3086 28.0586 61.7344C27.8086 62.1602 27.4551 62.498 26.998 62.748C26.541 62.9941 25.9707 63.1172 25.2871 63.1172C24.7871 63.1172 24.332 63.0234 23.9219 62.8359C23.5156 62.6484 23.166 62.3828 22.873 62.0391C22.5801 61.6914 22.3535 61.2754 22.1934 60.791C22.0371 60.3027 21.959 59.7598 21.959 59.1621V58.3125C21.959 57.7148 22.0371 57.1738 22.1934 56.6895C22.3535 56.2012 22.582 55.7832 22.8789 55.4355C23.1797 55.0879 23.541 54.8203 23.9629 54.6328C24.3848 54.4453 24.8594 54.3516 25.3867 54.3516C26.0312 54.3516 26.5762 54.4727 27.0215 54.7148C27.4668 54.957 27.8125 55.293 28.0586 55.7227C28.3086 56.1484 28.4629 56.6426 28.5215 57.2051H27.3965C27.3418 56.8066 27.2402 56.4648 27.0918 56.1797C26.9434 55.8906 26.7324 55.668 26.459 55.5117C26.1855 55.3555 25.8281 55.2773 25.3867 55.2773C25.0078 55.2773 24.6738 55.3496 24.3848 55.4941C24.0996 55.6387 23.8594 55.8438 23.6641 56.1094C23.4727 56.375 23.3281 56.6934 23.2305 57.0645C23.1328 57.4355 23.084 57.8477 23.084 58.3008V59.1621C23.084 59.5801 23.127 59.9727 23.2129 60.3398C23.3027 60.707 23.4375 61.0293 23.6172 61.3066C23.7969 61.584 24.0254 61.8027 24.3027 61.9629C24.5801 62.1191 24.9082 62.1973 25.2871 62.1973C25.7676 62.1973 26.1504 62.1211 26.4355 61.9688C26.7207 61.8164 26.9355 61.5977 27.0801 61.3125C27.2285 61.0273 27.334 60.6855 27.3965 60.2871ZM33.6367 61.916V58.6523C33.6367 58.4023 33.5859 58.1855 33.4844 58.002C33.3867 57.8145 33.2383 57.6699 33.0391 57.5684C32.8398 57.4668 32.5938 57.416 32.3008 57.416C32.0273 57.416 31.7871 57.4629 31.5801 57.5566C31.377 57.6504 31.2168 57.7734 31.0996 57.9258C30.9863 58.0781 30.9297 58.2422 30.9297 58.418H29.8457C29.8457 58.1914 29.9043 57.9668 30.0215 57.7441C30.1387 57.5215 30.3066 57.3203 30.5254 57.1406C30.748 56.957 31.0137 56.8125 31.3223 56.707C31.6348 56.5977 31.9824 56.543 32.3652 56.543C32.8262 56.543 33.2324 56.6211 33.584 56.7773C33.9395 56.9336 34.2168 57.1699 34.416 57.4863C34.6191 57.7988 34.7207 58.1914 34.7207 58.6641V61.6172C34.7207 61.8281 34.7383 62.0527 34.7734 62.291C34.8125 62.5293 34.8691 62.7344 34.9434 62.9062V63H33.8125C33.7578 62.875 33.7148 62.709 33.6836 62.502C33.6523 62.291 33.6367 62.0957 33.6367 61.916ZM33.8242 59.1562L33.8359 59.918H32.7402C32.4316 59.918 32.1562 59.9434 31.9141 59.9941C31.6719 60.041 31.4688 60.1133 31.3047 60.2109C31.1406 60.3086 31.0156 60.4316 30.9297 60.5801C30.8438 60.7246 30.8008 60.8945 30.8008 61.0898C30.8008 61.2891 30.8457 61.4707 30.9355 61.6348C31.0254 61.7988 31.1602 61.9297 31.3398 62.0273C31.5234 62.1211 31.748 62.168 32.0137 62.168C32.3457 62.168 32.6387 62.0977 32.8926 61.957C33.1465 61.8164 33.3477 61.6445 33.4961 61.4414C33.6484 61.2383 33.7305 61.041 33.7422 60.8496L34.2051 61.3711C34.1777 61.5352 34.1035 61.7168 33.9824 61.916C33.8613 62.1152 33.6992 62.3066 33.4961 62.4902C33.2969 62.6699 33.0586 62.8203 32.7812 62.9414C32.5078 63.0586 32.1992 63.1172 31.8555 63.1172C31.4258 63.1172 31.0488 63.0332 30.7246 62.8652C30.4043 62.6973 30.1543 62.4727 29.9746 62.1914C29.7988 61.9062 29.7109 61.5879 29.7109 61.2363C29.7109 60.8965 29.7773 60.5977 29.9102 60.3398C30.043 60.0781 30.2344 59.8613 30.4844 59.6895C30.7344 59.5137 31.0352 59.3809 31.3867 59.291C31.7383 59.2012 32.1309 59.1562 32.5645 59.1562H33.8242ZM37.6035 54V63H36.5137V54H37.6035ZM41.9746 63.1172C41.5332 63.1172 41.1328 63.043 40.7734 62.8945C40.418 62.7422 40.1113 62.5293 39.8535 62.2559C39.5996 61.9824 39.4043 61.6582 39.2676 61.2832C39.1309 60.9082 39.0625 60.498 39.0625 60.0527V59.8066C39.0625 59.291 39.1387 58.832 39.291 58.4297C39.4434 58.0234 39.6504 57.6797 39.9121 57.3984C40.1738 57.1172 40.4707 56.9043 40.8027 56.7598C41.1348 56.6152 41.4785 56.543 41.834 56.543C42.2871 56.543 42.6777 56.6211 43.0059 56.7773C43.3379 56.9336 43.6094 57.1523 43.8203 57.4336C44.0312 57.7109 44.1875 58.0391 44.2891 58.418C44.3906 58.793 44.4414 59.2031 44.4414 59.6484V60.1348H39.707V59.25H43.3574V59.168C43.3418 58.8867 43.2832 58.6133 43.1816 58.3477C43.084 58.082 42.9277 57.8633 42.7129 57.6914C42.498 57.5195 42.2051 57.4336 41.834 57.4336C41.5879 57.4336 41.3613 57.4863 41.1543 57.5918C40.9473 57.6934 40.7695 57.8457 40.6211 58.0488C40.4727 58.252 40.3574 58.5 40.2754 58.793C40.1934 59.0859 40.1523 59.4238 40.1523 59.8066V60.0527C40.1523 60.3535 40.1934 60.6367 40.2754 60.9023C40.3613 61.1641 40.4844 61.3945 40.6445 61.5938C40.8086 61.793 41.0059 61.9492 41.2363 62.0625C41.4707 62.1758 41.7363 62.2324 42.0332 62.2324C42.416 62.2324 42.7402 62.1543 43.0059 61.998C43.2715 61.8418 43.5039 61.6328 43.7031 61.3711L44.3594 61.8926C44.2227 62.0996 44.0488 62.2969 43.8379 62.4844C43.627 62.6719 43.3672 62.8242 43.0586 62.9414C42.7539 63.0586 42.3926 63.1172 41.9746 63.1172ZM46.791 58.0137V63H45.707V56.6602H46.7324L46.791 58.0137ZM46.5332 59.5898L46.082 59.5723C46.0859 59.1387 46.1504 58.7383 46.2754 58.3711C46.4004 58 46.5762 57.6777 46.8027 57.4043C47.0293 57.1309 47.2988 56.9199 47.6113 56.7715C47.9277 56.6191 48.2773 56.543 48.6602 56.543C48.9727 56.543 49.2539 56.5859 49.5039 56.6719C49.7539 56.7539 49.9668 56.8867 50.1426 57.0703C50.3223 57.2539 50.459 57.4922 50.5527 57.7852C50.6465 58.0742 50.6934 58.4277 50.6934 58.8457V63H49.6035V58.834C49.6035 58.502 49.5547 58.2363 49.457 58.0371C49.3594 57.834 49.2168 57.6875 49.0293 57.5977C48.8418 57.5039 48.6113 57.457 48.3379 57.457C48.0684 57.457 47.8223 57.5137 47.5996 57.627C47.3809 57.7402 47.1914 57.8965 47.0312 58.0957C46.875 58.2949 46.752 58.5234 46.6621 58.7812C46.5762 59.0352 46.5332 59.3047 46.5332 59.5898ZM56.3359 61.7695V54H57.4258V63H56.4297L56.3359 61.7695ZM52.0703 59.9004V59.7773C52.0703 59.293 52.1289 58.8535 52.2461 58.459C52.3672 58.0605 52.5371 57.7188 52.7559 57.4336C52.9785 57.1484 53.2422 56.9297 53.5469 56.7773C53.8555 56.6211 54.1992 56.543 54.5781 56.543C54.9766 56.543 55.3242 56.6133 55.6211 56.7539C55.9219 56.8906 56.1758 57.0918 56.3828 57.3574C56.5938 57.6191 56.7598 57.9355 56.8809 58.3066C57.002 58.6777 57.0859 59.0977 57.1328 59.5664V60.1055C57.0898 60.5703 57.0059 60.9883 56.8809 61.3594C56.7598 61.7305 56.5938 62.0469 56.3828 62.3086C56.1758 62.5703 55.9219 62.7715 55.6211 62.9121C55.3203 63.0488 54.9688 63.1172 54.5664 63.1172C54.1953 63.1172 53.8555 63.0371 53.5469 62.877C53.2422 62.7168 52.9785 62.4922 52.7559 62.2031C52.5371 61.9141 52.3672 61.5742 52.2461 61.1836C52.1289 60.7891 52.0703 60.3613 52.0703 59.9004ZM53.1602 59.7773V59.9004C53.1602 60.2168 53.1914 60.5137 53.2539 60.791C53.3203 61.0684 53.4219 61.3125 53.5586 61.5234C53.6953 61.7344 53.8691 61.9004 54.0801 62.0215C54.291 62.1387 54.543 62.1973 54.8359 62.1973C55.1953 62.1973 55.4902 62.1211 55.7207 61.9688C55.9551 61.8164 56.1426 61.6152 56.2832 61.3652C56.4238 61.1152 56.5332 60.8438 56.6113 60.5508V59.1387C56.5645 58.9238 56.4961 58.7168 56.4062 58.5176C56.3203 58.3145 56.207 58.1348 56.0664 57.9785C55.9297 57.8184 55.7598 57.6914 55.5566 57.5977C55.3574 57.5039 55.1211 57.457 54.8477 57.457C54.5508 57.457 54.2949 57.5195 54.0801 57.6445C53.8691 57.7656 53.6953 57.9336 53.5586 58.1484C53.4219 58.3594 53.3203 58.6055 53.2539 58.8867C53.1914 59.1641 53.1602 59.4609 53.1602 59.7773ZM62.8516 61.916V58.6523C62.8516 58.4023 62.8008 58.1855 62.6992 58.002C62.6016 57.8145 62.4531 57.6699 62.2539 57.5684C62.0547 57.4668 61.8086 57.416 61.5156 57.416C61.2422 57.416 61.002 57.4629 60.7949 57.5566C60.5918 57.6504 60.4316 57.7734 60.3145 57.9258C60.2012 58.0781 60.1445 58.2422 60.1445 58.418H59.0605C59.0605 58.1914 59.1191 57.9668 59.2363 57.7441C59.3535 57.5215 59.5215 57.3203 59.7402 57.1406C59.9629 56.957 60.2285 56.8125 60.5371 56.707C60.8496 56.5977 61.1973 56.543 61.5801 56.543C62.041 56.543 62.4473 56.6211 62.7988 56.7773C63.1543 56.9336 63.4316 57.1699 63.6309 57.4863C63.834 57.7988 63.9355 58.1914 63.9355 58.6641V61.6172C63.9355 61.8281 63.9531 62.0527 63.9883 62.291C64.0273 62.5293 64.084 62.7344 64.1582 62.9062V63H63.0273C62.9727 62.875 62.9297 62.709 62.8984 62.502C62.8672 62.291 62.8516 62.0957 62.8516 61.916ZM63.0391 59.1562L63.0508 59.918H61.9551C61.6465 59.918 61.3711 59.9434 61.1289 59.9941C60.8867 60.041 60.6836 60.1133 60.5195 60.2109C60.3555 60.3086 60.2305 60.4316 60.1445 60.5801C60.0586 60.7246 60.0156 60.8945 60.0156 61.0898C60.0156 61.2891 60.0605 61.4707 60.1504 61.6348C60.2402 61.7988 60.375 61.9297 60.5547 62.0273C60.7383 62.1211 60.9629 62.168 61.2285 62.168C61.5605 62.168 61.8535 62.0977 62.1074 61.957C62.3613 61.8164 62.5625 61.6445 62.7109 61.4414C62.8633 61.2383 62.9453 61.041 62.957 60.8496L63.4199 61.3711C63.3926 61.5352 63.3184 61.7168 63.1973 61.916C63.0762 62.1152 62.9141 62.3066 62.7109 62.4902C62.5117 62.6699 62.2734 62.8203 61.9961 62.9414C61.7227 63.0586 61.4141 63.1172 61.0703 63.1172C60.6406 63.1172 60.2637 63.0332 59.9395 62.8652C59.6191 62.6973 59.3691 62.4727 59.1895 62.1914C59.0137 61.9062 58.9258 61.5879 58.9258 61.2363C58.9258 60.8965 58.9922 60.5977 59.125 60.3398C59.2578 60.0781 59.4492 59.8613 59.6992 59.6895C59.9492 59.5137 60.25 59.3809 60.6016 59.291C60.9531 59.2012 61.3457 59.1562 61.7793 59.1562H63.0391ZM66.7246 57.6562V63H65.6406V56.6602H66.6953L66.7246 57.6562ZM68.7051 56.625L68.6992 57.6328C68.6094 57.6133 68.5234 57.6016 68.4414 57.5977C68.3633 57.5898 68.2734 57.5859 68.1719 57.5859C67.9219 57.5859 67.7012 57.625 67.5098 57.7031C67.3184 57.7812 67.1562 57.8906 67.0234 58.0312C66.8906 58.1719 66.7852 58.3398 66.707 58.5352C66.6328 58.7266 66.584 58.9375 66.5605 59.168L66.2559 59.3438C66.2559 58.9609 66.293 58.6016 66.3672 58.2656C66.4453 57.9297 66.5645 57.6328 66.7246 57.375C66.8848 57.1133 67.0879 56.9102 67.334 56.7656C67.584 56.6172 67.8809 56.543 68.2246 56.543C68.3027 56.543 68.3926 56.5527 68.4941 56.5723C68.5957 56.5879 68.666 56.6055 68.7051 56.625Z" fill="white"/>
<rect width="22.4" height="8" transform="matrix(1 0 0 -1 28.8 29.5999)" fill="white"/>
<path d="M49.3333 21.3335H30.6667C29.1939 21.3335 28 22.5274 28 24.0002V42.6668C28 44.1396 29.1939 45.3335 30.6667 45.3335H49.3333C50.8061 45.3335 52 44.1396 52 42.6668V24.0002C52 22.5274 50.8061 21.3335 49.3333 21.3335Z" stroke="white" stroke-width="2" stroke-linecap="round" stroke-linejoin="round"/>
<path d="M45.3333 18.6667V24.0001" stroke="white" stroke-width="2" stroke-linecap="round" stroke-linejoin="round"/>
<path d="M34.6667 18.6667V24.0001" stroke="white" stroke-width="2" stroke-linecap="round" stroke-linejoin="round"/>
<path d="M28 29.3335H52" stroke="white" stroke-width="2" stroke-linecap="round" stroke-linejoin="round"/>
</svg>
