<svg width="80" height="80" viewBox="0 0 80 80" fill="none" xmlns="http://www.w3.org/2000/svg">
<rect width="80" height="80" rx="20" fill="#00A2B9"/>
<path d="M8.77148 54.4688H9.86719L12.6621 61.4238L15.4512 54.4688H16.5527L13.084 63H12.2285L8.77148 54.4688ZM8.41406 54.4688H9.38086L9.53906 59.6719V63H8.41406V54.4688ZM15.9375 54.4688H16.9043V63H15.7793V59.6719L15.9375 54.4688ZM22.4648 61.916V58.6523C22.4648 58.4023 22.4141 58.1855 22.3125 58.002C22.2148 57.8145 22.0664 57.6699 21.8672 57.5684C21.668 57.4668 21.4219 57.416 21.1289 57.416C20.8555 57.416 20.6152 57.4629 20.4082 57.5566C20.2051 57.6504 20.0449 57.7734 19.9277 57.9258C19.8145 58.0781 19.7578 58.2422 19.7578 58.418H18.6738C18.6738 58.1914 18.7324 57.9668 18.8496 57.7441C18.9668 57.5215 19.1348 57.3203 19.3535 57.1406C19.5762 56.957 19.8418 56.8125 20.1504 56.707C20.4629 56.5977 20.8105 56.543 21.1934 56.543C21.6543 56.543 22.0605 56.6211 22.4121 56.7773C22.7676 56.9336 23.0449 57.1699 23.2441 57.4863C23.4473 57.7988 23.5488 58.1914 23.5488 58.6641V61.6172C23.5488 61.8281 23.5664 62.0527 23.6016 62.291C23.6406 62.5293 23.6973 62.7344 23.7715 62.9062V63H22.6406C22.5859 62.875 22.543 62.709 22.5117 62.502C22.4805 62.291 22.4648 62.0957 22.4648 61.916ZM22.6523 59.1562L22.6641 59.918H21.5684C21.2598 59.918 20.9844 59.9434 20.7422 59.9941C20.5 60.041 20.2969 60.1133 20.1328 60.2109C19.9688 60.3086 19.8438 60.4316 19.7578 60.5801C19.6719 60.7246 19.6289 60.8945 19.6289 61.0898C19.6289 61.2891 19.6738 61.4707 19.7637 61.6348C19.8535 61.7988 19.9883 61.9297 20.168 62.0273C20.3516 62.1211 20.5762 62.168 20.8418 62.168C21.1738 62.168 21.4668 62.0977 21.7207 61.957C21.9746 61.8164 22.1758 61.6445 22.3242 61.4414C22.4766 61.2383 22.5586 61.041 22.5703 60.8496L23.0332 61.3711C23.0059 61.5352 22.9316 61.7168 22.8105 61.916C22.6895 62.1152 22.5273 62.3066 22.3242 62.4902C22.125 62.6699 21.8867 62.8203 21.6094 62.9414C21.3359 63.0586 21.0273 63.1172 20.6836 63.1172C20.2539 63.1172 19.877 63.0332 19.5527 62.8652C19.2324 62.6973 18.9824 62.4727 18.8027 62.1914C18.627 61.9062 18.5391 61.5879 18.5391 61.2363C18.5391 60.8965 18.6055 60.5977 18.7383 60.3398C18.8711 60.0781 19.0625 59.8613 19.3125 59.6895C19.5625 59.5137 19.8633 59.3809 20.2148 59.291C20.5664 59.2012 20.959 59.1562 21.3926 59.1562H22.6523ZM26.3379 57.6562V63H25.2539V56.6602H26.3086L26.3379 57.6562ZM28.3184 56.625L28.3125 57.6328C28.2227 57.6133 28.1367 57.6016 28.0547 57.5977C27.9766 57.5898 27.8867 57.5859 27.7852 57.5859C27.5352 57.5859 27.3145 57.625 27.123 57.7031C26.9316 57.7812 26.7695 57.8906 26.6367 58.0312C26.5039 58.1719 26.3984 58.3398 26.3203 58.5352C26.2461 58.7266 26.1973 58.9375 26.1738 59.168L25.8691 59.3438C25.8691 58.9609 25.9062 58.6016 25.9805 58.2656C26.0586 57.9297 26.1777 57.6328 26.3379 57.375C26.498 57.1133 26.7012 56.9102 26.9473 56.7656C27.1973 56.6172 27.4941 56.543 27.8379 56.543C27.916 56.543 28.0059 56.5527 28.1074 56.5723C28.209 56.5879 28.2793 56.6055 28.3184 56.625ZM30.4102 54V63H29.3203V54H30.4102ZM34.2832 56.6602L31.5176 59.6191L29.9707 61.2246L29.8828 60.0703L30.9902 58.7461L32.959 56.6602H34.2832ZM33.293 63L31.0312 59.9766L31.5938 59.0098L34.5703 63H33.293ZM37.916 63.1172C37.4746 63.1172 37.0742 63.043 36.7148 62.8945C36.3594 62.7422 36.0527 62.5293 35.7949 62.2559C35.541 61.9824 35.3457 61.6582 35.209 61.2832C35.0723 60.9082 35.0039 60.498 35.0039 60.0527V59.8066C35.0039 59.291 35.0801 58.832 35.2324 58.4297C35.3848 58.0234 35.5918 57.6797 35.8535 57.3984C36.1152 57.1172 36.4121 56.9043 36.7441 56.7598C37.0762 56.6152 37.4199 56.543 37.7754 56.543C38.2285 56.543 38.6191 56.6211 38.9473 56.7773C39.2793 56.9336 39.5508 57.1523 39.7617 57.4336C39.9727 57.7109 40.1289 58.0391 40.2305 58.418C40.332 58.793 40.3828 59.2031 40.3828 59.6484V60.1348H35.6484V59.25H39.2988V59.168C39.2832 58.8867 39.2246 58.6133 39.123 58.3477C39.0254 58.082 38.8691 57.8633 38.6543 57.6914C38.4395 57.5195 38.1465 57.4336 37.7754 57.4336C37.5293 57.4336 37.3027 57.4863 37.0957 57.5918C36.8887 57.6934 36.7109 57.8457 36.5625 58.0488C36.4141 58.252 36.2988 58.5 36.2168 58.793C36.1348 59.0859 36.0938 59.4238 36.0938 59.8066V60.0527C36.0938 60.3535 36.1348 60.6367 36.2168 60.9023C36.3027 61.1641 36.4258 61.3945 36.5859 61.5938C36.75 61.793 36.9473 61.9492 37.1777 62.0625C37.4121 62.1758 37.6777 62.2324 37.9746 62.2324C38.3574 62.2324 38.6816 62.1543 38.9473 61.998C39.2129 61.8418 39.4453 61.6328 39.6445 61.3711L40.3008 61.8926C40.1641 62.0996 39.9902 62.2969 39.7793 62.4844C39.5684 62.6719 39.3086 62.8242 39 62.9414C38.6953 63.0586 38.334 63.1172 37.916 63.1172ZM44.3027 56.6602V57.4922H40.875V56.6602H44.3027ZM42.0352 55.1191H43.1191V61.4297C43.1191 61.6445 43.1523 61.8066 43.2188 61.916C43.2852 62.0254 43.3711 62.0977 43.4766 62.1328C43.582 62.168 43.6953 62.1855 43.8164 62.1855C43.9062 62.1855 44 62.1777 44.0977 62.1621C44.1992 62.1426 44.2754 62.127 44.3262 62.1152L44.332 63C44.2461 63.0273 44.1328 63.0527 43.9922 63.0762C43.8555 63.1035 43.6895 63.1172 43.4941 63.1172C43.2285 63.1172 42.9844 63.0645 42.7617 62.959C42.5391 62.8535 42.3613 62.6777 42.2285 62.4316C42.0996 62.1816 42.0352 61.8457 42.0352 61.4238V55.1191ZM46.6582 57.8789V65.4375H45.5684V56.6602H46.5645L46.6582 57.8789ZM50.9297 59.7773V59.9004C50.9297 60.3613 50.875 60.7891 50.7656 61.1836C50.6562 61.5742 50.4961 61.9141 50.2852 62.2031C50.0781 62.4922 49.8223 62.7168 49.5176 62.877C49.2129 63.0371 48.8633 63.1172 48.4688 63.1172C48.0664 63.1172 47.7109 63.0508 47.4023 62.918C47.0938 62.7852 46.832 62.5918 46.6172 62.3379C46.4023 62.084 46.2305 61.7793 46.1016 61.4238C45.9766 61.0684 45.8906 60.668 45.8438 60.2227V59.5664C45.8906 59.0977 45.9785 58.6777 46.1074 58.3066C46.2363 57.9355 46.4062 57.6191 46.6172 57.3574C46.832 57.0918 47.0918 56.8906 47.3965 56.7539C47.7012 56.6133 48.0527 56.543 48.4512 56.543C48.8496 56.543 49.2031 56.6211 49.5117 56.7773C49.8203 56.9297 50.0801 57.1484 50.291 57.4336C50.502 57.7188 50.6602 58.0605 50.7656 58.459C50.875 58.8535 50.9297 59.293 50.9297 59.7773ZM49.8398 59.9004V59.7773C49.8398 59.4609 49.8066 59.1641 49.7402 58.8867C49.6738 58.6055 49.5703 58.3594 49.4297 58.1484C49.293 57.9336 49.1172 57.7656 48.9023 57.6445C48.6875 57.5195 48.4316 57.457 48.1348 57.457C47.8613 57.457 47.623 57.5039 47.4199 57.5977C47.2207 57.6914 47.0508 57.8184 46.9102 57.9785C46.7695 58.1348 46.6543 58.3145 46.5645 58.5176C46.4785 58.7168 46.4141 58.9238 46.3711 59.1387V60.6562C46.4492 60.9297 46.5586 61.1875 46.6992 61.4297C46.8398 61.668 47.0273 61.8613 47.2617 62.0098C47.4961 62.1543 47.791 62.2266 48.1465 62.2266C48.4395 62.2266 48.6914 62.166 48.9023 62.0449C49.1172 61.9199 49.293 61.75 49.4297 61.5352C49.5703 61.3203 49.6738 61.0742 49.7402 60.7969C49.8066 60.5156 49.8398 60.2168 49.8398 59.9004ZM53.4902 54V63H52.4004V54H53.4902ZM58.9688 61.916V58.6523C58.9688 58.4023 58.918 58.1855 58.8164 58.002C58.7188 57.8145 58.5703 57.6699 58.3711 57.5684C58.1719 57.4668 57.9258 57.416 57.6328 57.416C57.3594 57.416 57.1191 57.4629 56.9121 57.5566C56.709 57.6504 56.5488 57.7734 56.4316 57.9258C56.3184 58.0781 56.2617 58.2422 56.2617 58.418H55.1777C55.1777 58.1914 55.2363 57.9668 55.3535 57.7441C55.4707 57.5215 55.6387 57.3203 55.8574 57.1406C56.0801 56.957 56.3457 56.8125 56.6543 56.707C56.9668 56.5977 57.3145 56.543 57.6973 56.543C58.1582 56.543 58.5645 56.6211 58.916 56.7773C59.2715 56.9336 59.5488 57.1699 59.748 57.4863C59.9512 57.7988 60.0527 58.1914 60.0527 58.6641V61.6172C60.0527 61.8281 60.0703 62.0527 60.1055 62.291C60.1445 62.5293 60.2012 62.7344 60.2754 62.9062V63H59.1445C59.0898 62.875 59.0469 62.709 59.0156 62.502C58.9844 62.291 58.9688 62.0957 58.9688 61.916ZM59.1562 59.1562L59.168 59.918H58.0723C57.7637 59.918 57.4883 59.9434 57.2461 59.9941C57.0039 60.041 56.8008 60.1133 56.6367 60.2109C56.4727 60.3086 56.3477 60.4316 56.2617 60.5801C56.1758 60.7246 56.1328 60.8945 56.1328 61.0898C56.1328 61.2891 56.1777 61.4707 56.2676 61.6348C56.3574 61.7988 56.4922 61.9297 56.6719 62.0273C56.8555 62.1211 57.0801 62.168 57.3457 62.168C57.6777 62.168 57.9707 62.0977 58.2246 61.957C58.4785 61.8164 58.6797 61.6445 58.8281 61.4414C58.9805 61.2383 59.0625 61.041 59.0742 60.8496L59.5371 61.3711C59.5098 61.5352 59.4355 61.7168 59.3145 61.916C59.1934 62.1152 59.0312 62.3066 58.8281 62.4902C58.6289 62.6699 58.3906 62.8203 58.1133 62.9414C57.8398 63.0586 57.5312 63.1172 57.1875 63.1172C56.7578 63.1172 56.3809 63.0332 56.0566 62.8652C55.7363 62.6973 55.4863 62.4727 55.3066 62.1914C55.1309 61.9062 55.043 61.5879 55.043 61.2363C55.043 60.8965 55.1094 60.5977 55.2422 60.3398C55.375 60.0781 55.5664 59.8613 55.8164 59.6895C56.0664 59.5137 56.3672 59.3809 56.7188 59.291C57.0703 59.2012 57.4629 59.1562 57.8965 59.1562H59.1562ZM64.2949 62.2266C64.5527 62.2266 64.791 62.1738 65.0098 62.0684C65.2285 61.9629 65.4082 61.8184 65.5488 61.6348C65.6895 61.4473 65.7695 61.2344 65.7891 60.9961H66.8203C66.8008 61.3711 66.6738 61.7207 66.4395 62.0449C66.209 62.3652 65.9062 62.625 65.5312 62.8242C65.1562 63.0195 64.7441 63.1172 64.2949 63.1172C63.8184 63.1172 63.4023 63.0332 63.0469 62.8652C62.6953 62.6973 62.4023 62.4668 62.168 62.1738C61.9375 61.8809 61.7637 61.5449 61.6465 61.166C61.5332 60.7832 61.4766 60.3789 61.4766 59.9531V59.707C61.4766 59.2812 61.5332 58.8789 61.6465 58.5C61.7637 58.1172 61.9375 57.7793 62.168 57.4863C62.4023 57.1934 62.6953 56.9629 63.0469 56.7949C63.4023 56.627 63.8184 56.543 64.2949 56.543C64.791 56.543 65.2246 56.6445 65.5957 56.8477C65.9668 57.0469 66.2578 57.3203 66.4688 57.668C66.6836 58.0117 66.8008 58.4023 66.8203 58.8398H65.7891C65.7695 58.5781 65.6953 58.3418 65.5664 58.1309C65.4414 57.9199 65.2695 57.752 65.0508 57.627C64.8359 57.498 64.584 57.4336 64.2949 57.4336C63.9629 57.4336 63.6836 57.5 63.457 57.6328C63.2344 57.7617 63.0566 57.9375 62.9238 58.1602C62.7949 58.3789 62.7012 58.623 62.6426 58.8926C62.5879 59.1582 62.5605 59.4297 62.5605 59.707V59.9531C62.5605 60.2305 62.5879 60.5039 62.6426 60.7734C62.6973 61.043 62.7891 61.2871 62.918 61.5059C63.0508 61.7246 63.2285 61.9004 63.4512 62.0332C63.6777 62.1621 63.959 62.2266 64.2949 62.2266ZM70.6699 63.1172C70.2285 63.1172 69.8281 63.043 69.4688 62.8945C69.1133 62.7422 68.8066 62.5293 68.5488 62.2559C68.2949 61.9824 68.0996 61.6582 67.9629 61.2832C67.8262 60.9082 67.7578 60.498 67.7578 60.0527V59.8066C67.7578 59.291 67.834 58.832 67.9863 58.4297C68.1387 58.0234 68.3457 57.6797 68.6074 57.3984C68.8691 57.1172 69.166 56.9043 69.498 56.7598C69.8301 56.6152 70.1738 56.543 70.5293 56.543C70.9824 56.543 71.373 56.6211 71.7012 56.7773C72.0332 56.9336 72.3047 57.1523 72.5156 57.4336C72.7266 57.7109 72.8828 58.0391 72.9844 58.418C73.0859 58.793 73.1367 59.2031 73.1367 59.6484V60.1348H68.4023V59.25H72.0527V59.168C72.0371 58.8867 71.9785 58.6133 71.877 58.3477C71.7793 58.082 71.623 57.8633 71.4082 57.6914C71.1934 57.5195 70.9004 57.4336 70.5293 57.4336C70.2832 57.4336 70.0566 57.4863 69.8496 57.5918C69.6426 57.6934 69.4648 57.8457 69.3164 58.0488C69.168 58.252 69.0527 58.5 68.9707 58.793C68.8887 59.0859 68.8477 59.4238 68.8477 59.8066V60.0527C68.8477 60.3535 68.8887 60.6367 68.9707 60.9023C69.0566 61.1641 69.1797 61.3945 69.3398 61.5938C69.5039 61.793 69.7012 61.9492 69.9316 62.0625C70.166 62.1758 70.4316 62.2324 70.7285 62.2324C71.1113 62.2324 71.4355 62.1543 71.7012 61.998C71.9668 61.8418 72.1992 61.6328 72.3984 61.3711L73.0547 61.8926C72.918 62.0996 72.7441 62.2969 72.5332 62.4844C72.3223 62.6719 72.0625 62.8242 71.7539 62.9414C71.4492 63.0586 71.0879 63.1172 70.6699 63.1172Z" fill="white"/>
<path d="M35.1871 29.2694C35.6767 29.8776 36.3517 30.2028 37.1336 30.2028C37.8619 30.2028 38.5244 29.9457 39.032 29.4046L39.0338 29.4026C39.5053 28.8973 39.7538 28.275 39.7538 27.5826V22.9712V21.9712H38.7538H36.3235H35.4683L35.3356 22.8159L34.6508 27.1739C34.5251 27.9355 34.6972 28.6619 35.1871 29.2694ZM35.1871 29.2694C35.1869 29.2692 35.1868 29.269 35.1866 29.2687L35.9658 28.6419M35.1871 29.2694C35.1872 29.2695 35.1873 29.2697 35.1874 29.2698L35.9658 28.6419M35.9658 28.6419C36.2665 29.0158 36.6558 29.2028 37.1336 29.2028C37.6113 29.2028 38.001 29.042 38.3026 28.7205C38.6034 28.3981 38.7538 28.0188 38.7538 27.5826L35.9658 28.6419ZM46.7378 29.5175C47.1958 29.9593 47.7686 30.2028 48.4128 30.2028C49.3328 30.2028 50.1244 29.8055 50.592 28.9782C50.9631 28.3217 51.1132 27.5799 50.8583 26.8336L49.554 22.6721L49.3343 21.9712H48.5997H46.2317H45.0787L45.2418 23.1126L45.9273 27.9109L45.9272 27.9109L45.9283 27.9178C46.0205 28.5329 46.2857 29.0824 46.7378 29.5175ZM46.7378 29.5175L47.4319 28.7977L46.7388 29.5186C46.7385 29.5182 46.7381 29.5179 46.7378 29.5175ZM50.5099 29.8043L50.217 30.0972V30.5114V40.4197C50.217 40.8379 50.08 41.1712 49.7783 41.4736C49.4759 41.7753 49.1425 41.9123 48.7244 41.9123H31.2758C30.8574 41.9123 30.5246 41.7752 30.2231 41.4736C29.9204 41.1709 29.7832 40.8376 29.7832 40.4197V30.5114V30.0703L29.4575 29.7729C29.1103 29.456 28.8241 29.0333 28.613 28.4752L28.6127 28.4742C28.4435 28.0283 28.4228 27.512 28.6172 26.88C28.6172 26.8799 28.6172 26.8797 28.6173 26.8796L29.9256 22.6431L29.9259 22.6421C30.0361 22.2841 30.2238 22.0044 30.4967 21.7783L30.4975 21.7777C30.7406 21.5759 31.0069 21.4785 31.3382 21.4785H48.6621C49.0012 21.4785 49.2619 21.5755 49.4903 21.7635C49.7449 21.9741 49.9446 22.259 50.0781 22.6545L51.3829 26.8796C51.3829 26.8796 51.3829 26.8796 51.383 26.8797C51.5787 27.516 51.5547 28.0171 51.3923 28.4339C51.1796 28.9772 50.8845 29.4297 50.5099 29.8043ZM45.3538 27.204L45.3521 27.191L45.3501 27.1781L44.6646 22.8159L44.5319 21.9712H43.6768H41.2464H40.2464V22.9712V27.5826C40.2464 28.2649 40.4827 28.8832 40.9401 29.3903L40.941 29.3912C41.412 29.912 42.0303 30.2028 42.742 30.2028C43.558 30.2028 44.3044 29.9066 44.8166 29.2296C45.2661 28.6362 45.4501 27.942 45.3538 27.204ZM34.0719 27.9179L34.072 27.9179L34.073 27.9109L34.7584 23.1126L34.9215 21.9712H33.7685H31.3382H30.5931L30.3799 22.6851L29.134 26.859C29.1339 26.8593 29.1338 26.8596 29.1338 26.8598C28.9147 27.5911 29.0626 28.3141 29.4148 28.9631L29.4154 28.9642C29.6266 29.3522 29.9288 29.6774 30.3276 29.8984C30.7211 30.1163 31.154 30.2028 31.5874 30.2028C32.2314 30.2028 32.804 29.9595 33.2619 29.518C33.7143 29.0829 33.9797 28.5331 34.0719 27.9179Z" stroke="white" stroke-width="2"/>
<path d="M36.4297 35.5713C36.4297 35.019 36.8774 34.5713 37.4297 34.5713H42.5725C43.1248 34.5713 43.5725 35.019 43.5725 35.5713V41.7141H36.4297V35.5713Z" stroke="white" stroke-width="2"/>
</svg>
