<svg width="60" height="60" viewBox="0 0 60 60" fill="none" xmlns="http://www.w3.org/2000/svg">
<rect opacity="0.1" width="60" height="60" rx="16" fill="#00A2B9"/>
<path d="M16 22.2222V19.1111C16 18.286 16.3278 17.4947 16.9112 16.9112C17.4947 16.3278 18.286 16 19.1111 16H22.2222M37.7778 16H40.8889C41.714 16 42.5053 16.3278 43.0888 16.9112C43.6722 17.4947 44 18.286 44 19.1111V22.2222M44 37.7778V40.8889C44 41.714 43.6722 42.5053 43.0888 43.0888C42.5053 43.6722 41.714 44 40.8889 44H37.7778M22.2222 44H19.1111C18.286 44 17.4947 43.6722 16.9112 43.0888C16.3278 42.5053 16 41.714 16 40.8889V37.7778" stroke="#F3AF00" stroke-width="2.5" stroke-linecap="round" stroke-linejoin="round"/>
<path d="M24 28V26C24 24.4087 24.6321 22.8826 25.7574 21.7574C26.8826 20.6321 28.4087 20 30 20C31.5913 20 33.1174 20.6321 34.2426 21.7574C35.3679 22.8826 36 24.4087 36 26V28H37C37.5304 28 38.0391 28.2107 38.4142 28.5858C38.7893 28.9609 39 29.4696 39 30V38C39 38.5304 38.7893 39.0391 38.4142 39.4142C38.0391 39.7893 37.5304 40 37 40H23C22.4696 40 21.9609 39.7893 21.5858 39.4142C21.2107 39.0391 21 38.5304 21 38V30C21 28.9 21.9 28 23 28H24ZM29 34.73V37H31V34.73C31.3813 34.5099 31.6793 34.1701 31.8478 33.7633C32.0162 33.3566 32.0458 32.9056 31.9319 32.4803C31.8179 32.055 31.5668 31.6793 31.2175 31.4112C30.8682 31.1432 30.4403 30.9979 30 30.9979C29.5597 30.9979 29.1318 31.1432 28.7825 31.4112C28.4332 31.6793 28.1821 32.055 28.0681 32.4803C27.9542 32.9056 27.9838 33.3566 28.1522 33.7633C28.3207 34.1701 28.6187 34.5099 29 34.73ZM27 26V28H33V26C33 25.2044 32.6839 24.4413 32.1213 23.8787C31.5587 23.3161 30.7956 23 30 23C29.2044 23 28.4413 23.3161 27.8787 23.8787C27.3161 24.4413 27 25.2044 27 26Z" fill="url(#paint0_linear_9696_1841)" fill-opacity="0.95"/>
<defs>
<linearGradient id="paint0_linear_9696_1841" x1="30" y1="20" x2="30" y2="40" gradientUnits="userSpaceOnUse">
<stop stop-color="#00A2B9" stop-opacity="0.3"/>
<stop offset="0.333333" stop-color="#00A2B9" stop-opacity="0.81"/>
<stop offset="1" stop-color="#00A2B9"/>
</linearGradient>
</defs>
</svg>
