<svg width="80" height="80" viewBox="0 0 80 80" fill="none" xmlns="http://www.w3.org/2000/svg">
<rect width="80" height="80" rx="20" fill="#00A2B9"/>
<path d="M26.4941 60.7676C26.4941 60.6152 26.4707 60.4785 26.4238 60.3574C26.3809 60.2324 26.2988 60.1191 26.1777 60.0176C26.0566 59.9121 25.8867 59.8086 25.668 59.707C25.4492 59.6055 25.166 59.5 24.8184 59.3906C24.4316 59.2656 24.0645 59.125 23.7168 58.9688C23.373 58.8125 23.0684 58.6309 22.8027 58.4238C22.541 58.2129 22.334 57.9688 22.1816 57.6914C22.0332 57.4141 21.959 57.0918 21.959 56.7246C21.959 56.3691 22.0371 56.0469 22.1934 55.7578C22.3496 55.4648 22.5684 55.2148 22.8496 55.0078C23.1309 54.7969 23.4629 54.6348 23.8457 54.5215C24.2324 54.4082 24.6562 54.3516 25.1172 54.3516C25.7461 54.3516 26.2949 54.4648 26.7637 54.6914C27.2324 54.918 27.5957 55.2285 27.8535 55.623C28.1152 56.0176 28.2461 56.4688 28.2461 56.9766H26.5C26.5 56.7266 26.4473 56.5078 26.3418 56.3203C26.2402 56.1289 26.084 55.9785 25.873 55.8691C25.666 55.7598 25.4043 55.7051 25.0879 55.7051C24.7832 55.7051 24.5293 55.752 24.3262 55.8457C24.123 55.9355 23.9707 56.0586 23.8691 56.2148C23.7676 56.3672 23.7168 56.5391 23.7168 56.7305C23.7168 56.875 23.752 57.0059 23.8223 57.123C23.8965 57.2402 24.0059 57.3496 24.1504 57.4512C24.2949 57.5527 24.4727 57.6484 24.6836 57.7383C24.8945 57.8281 25.1387 57.916 25.416 58.002C25.8809 58.1426 26.2891 58.3008 26.6406 58.4766C26.9961 58.6523 27.293 58.8496 27.5312 59.0684C27.7695 59.2871 27.9492 59.5352 28.0703 59.8125C28.1914 60.0898 28.252 60.4043 28.252 60.7559C28.252 61.127 28.1797 61.459 28.0352 61.752C27.8906 62.0449 27.6816 62.293 27.4082 62.4961C27.1348 62.6992 26.8086 62.8535 26.4297 62.959C26.0508 63.0645 25.627 63.1172 25.1582 63.1172C24.7363 63.1172 24.3203 63.0625 23.9102 62.9531C23.5 62.8398 23.127 62.6699 22.791 62.4434C22.459 62.2168 22.1934 61.9277 21.9941 61.5762C21.7949 61.2246 21.6953 60.8086 21.6953 60.3281H23.459C23.459 60.5938 23.5 60.8184 23.582 61.002C23.6641 61.1855 23.7793 61.334 23.9277 61.4473C24.0801 61.5605 24.2598 61.6426 24.4668 61.6934C24.6777 61.7441 24.9082 61.7695 25.1582 61.7695C25.4629 61.7695 25.7129 61.7266 25.9082 61.6406C26.1074 61.5547 26.2539 61.4355 26.3477 61.2832C26.4453 61.1309 26.4941 60.959 26.4941 60.7676ZM32.2598 63.1172C31.7676 63.1172 31.3262 63.0391 30.9355 62.8828C30.5449 62.7227 30.2129 62.502 29.9395 62.2207C29.6699 61.9395 29.4629 61.6133 29.3184 61.2422C29.1738 60.8672 29.1016 60.4688 29.1016 60.0469V59.8125C29.1016 59.332 29.1699 58.8926 29.3066 58.4941C29.4434 58.0957 29.6387 57.75 29.8926 57.457C30.1504 57.1641 30.4629 56.9395 30.8301 56.7832C31.1973 56.623 31.6113 56.543 32.0723 56.543C32.5215 56.543 32.9199 56.6172 33.2676 56.7656C33.6152 56.9141 33.9062 57.125 34.1406 57.3984C34.3789 57.6719 34.5586 58 34.6797 58.3828C34.8008 58.7617 34.8613 59.1836 34.8613 59.6484V60.3516H29.8223V59.2266H33.2031V59.0977C33.2031 58.8633 33.1602 58.6543 33.0742 58.4707C32.9922 58.2832 32.8672 58.1348 32.6992 58.0254C32.5312 57.916 32.3164 57.8613 32.0547 57.8613C31.832 57.8613 31.6406 57.9102 31.4805 58.0078C31.3203 58.1055 31.1895 58.2422 31.0879 58.418C30.9902 58.5938 30.916 58.8008 30.8652 59.0391C30.8184 59.2734 30.7949 59.5312 30.7949 59.8125V60.0469C30.7949 60.3008 30.8301 60.5352 30.9004 60.75C30.9746 60.9648 31.0781 61.1504 31.2109 61.3066C31.3477 61.4629 31.5117 61.584 31.7031 61.6699C31.8984 61.7559 32.1191 61.7988 32.3652 61.7988C32.6699 61.7988 32.9531 61.7402 33.2148 61.623C33.4805 61.502 33.709 61.3203 33.9004 61.0781L34.7207 61.9688C34.5879 62.1602 34.4062 62.3438 34.1758 62.5195C33.9492 62.6953 33.6758 62.8398 33.3555 62.9531C33.0352 63.0625 32.6699 63.1172 32.2598 63.1172ZM37.5098 57.9727V63H35.8164V56.6602H37.4043L37.5098 57.9727ZM37.2754 59.6074H36.8066C36.8066 59.166 36.8594 58.7598 36.9648 58.3887C37.0742 58.0137 37.2324 57.6895 37.4395 57.416C37.6504 57.1387 37.9102 56.9238 38.2188 56.7715C38.5273 56.6191 38.8848 56.543 39.291 56.543C39.5723 56.543 39.8301 56.5859 40.0645 56.6719C40.2988 56.7539 40.5 56.8848 40.668 57.0645C40.8398 57.2402 40.9727 57.4707 41.0664 57.7559C41.1602 58.0371 41.207 58.375 41.207 58.7695V63H39.5195V58.957C39.5195 58.668 39.4805 58.4453 39.4023 58.2891C39.3242 58.1328 39.2129 58.0234 39.0684 57.9609C38.9277 57.8984 38.7578 57.8672 38.5586 57.8672C38.3398 57.8672 38.1484 57.9121 37.9844 58.002C37.8242 58.0918 37.6914 58.2168 37.5859 58.377C37.4805 58.5332 37.4023 58.7168 37.3516 58.9277C37.3008 59.1387 37.2754 59.3652 37.2754 59.6074ZM41.0488 59.4141L40.4453 59.4902C40.4453 59.0762 40.4961 58.6914 40.5977 58.3359C40.7031 57.9805 40.8574 57.668 41.0605 57.3984C41.2676 57.1289 41.5234 56.9199 41.8281 56.7715C42.1328 56.6191 42.4844 56.543 42.8828 56.543C43.1875 56.543 43.4648 56.5879 43.7148 56.6777C43.9648 56.7637 44.1777 56.9023 44.3535 57.0938C44.5332 57.2812 44.6699 57.5273 44.7637 57.832C44.8613 58.1367 44.9102 58.5098 44.9102 58.9512V63H43.2168V58.9512C43.2168 58.6582 43.1777 58.4355 43.0996 58.2832C43.0254 58.127 42.916 58.0195 42.7715 57.9609C42.6309 57.8984 42.4629 57.8672 42.2676 57.8672C42.0645 57.8672 41.8867 57.9082 41.7344 57.9902C41.582 58.0684 41.4551 58.1777 41.3535 58.3184C41.252 58.459 41.1758 58.623 41.125 58.8105C41.0742 58.9941 41.0488 59.1953 41.0488 59.4141ZM49.9668 61.4824V56.6602H51.6543V63H50.0664L49.9668 61.4824ZM50.1543 60.1816L50.6523 60.1699C50.6523 60.5918 50.6035 60.9844 50.5059 61.3477C50.4082 61.707 50.2617 62.0195 50.0664 62.2852C49.8711 62.5469 49.625 62.752 49.3281 62.9004C49.0312 63.0449 48.6816 63.1172 48.2793 63.1172C47.9707 63.1172 47.6855 63.0742 47.4238 62.9883C47.166 62.8984 46.9434 62.7598 46.7559 62.5723C46.5723 62.3809 46.4277 62.1367 46.3223 61.8398C46.2207 61.5391 46.1699 61.1777 46.1699 60.7559V56.6602H47.8574V60.7676C47.8574 60.9551 47.8789 61.1133 47.9219 61.2422C47.9688 61.3711 48.0332 61.4766 48.1152 61.5586C48.1973 61.6406 48.293 61.6992 48.4023 61.7344C48.5156 61.7695 48.6406 61.7871 48.7773 61.7871C49.125 61.7871 49.3984 61.7168 49.5977 61.5762C49.8008 61.4355 49.9434 61.2441 50.0254 61.002C50.1113 60.7559 50.1543 60.4824 50.1543 60.1816ZM56.3652 61.5703V58.7461C56.3652 58.543 56.332 58.3691 56.2656 58.2246C56.1992 58.0762 56.0957 57.9609 55.9551 57.8789C55.8184 57.7969 55.6406 57.7559 55.4219 57.7559C55.2344 57.7559 55.0723 57.7891 54.9355 57.8555C54.7988 57.918 54.6934 58.0098 54.6191 58.1309C54.5449 58.248 54.5078 58.3867 54.5078 58.5469H52.8203C52.8203 58.2773 52.8828 58.0215 53.0078 57.7793C53.1328 57.5371 53.3145 57.3242 53.5527 57.1406C53.791 56.9531 54.0742 56.8066 54.4023 56.7012C54.7344 56.5957 55.1055 56.543 55.5156 56.543C56.0078 56.543 56.4453 56.625 56.8281 56.7891C57.2109 56.9531 57.5117 57.1992 57.7305 57.5273C57.9531 57.8555 58.0645 58.2656 58.0645 58.7578V61.4707C58.0645 61.8184 58.0859 62.1035 58.1289 62.3262C58.1719 62.5449 58.2344 62.7363 58.3164 62.9004V63H56.6113C56.5293 62.8281 56.4668 62.6133 56.4238 62.3555C56.3848 62.0938 56.3652 61.832 56.3652 61.5703ZM56.5879 59.1387L56.5996 60.0938H55.6562C55.4336 60.0938 55.2402 60.1191 55.0762 60.1699C54.9121 60.2207 54.7773 60.293 54.6719 60.3867C54.5664 60.4766 54.4883 60.582 54.4375 60.7031C54.3906 60.8242 54.3672 60.957 54.3672 61.1016C54.3672 61.2461 54.4004 61.377 54.4668 61.4941C54.5332 61.6074 54.6289 61.6973 54.7539 61.7637C54.8789 61.8262 55.0254 61.8574 55.1934 61.8574C55.4473 61.8574 55.668 61.8066 55.8555 61.7051C56.043 61.6035 56.1875 61.4785 56.2891 61.3301C56.3945 61.1816 56.4492 61.041 56.4531 60.9082L56.8984 61.623C56.8359 61.7832 56.75 61.9492 56.6406 62.1211C56.5352 62.293 56.4004 62.4551 56.2363 62.6074C56.0723 62.7559 55.875 62.8789 55.6445 62.9766C55.4141 63.0703 55.1406 63.1172 54.8242 63.1172C54.4219 63.1172 54.0566 63.0371 53.7285 62.877C53.4043 62.7129 53.1465 62.4883 52.9551 62.2031C52.7676 61.9141 52.6738 61.5859 52.6738 61.2188C52.6738 60.8867 52.7363 60.5918 52.8613 60.334C52.9863 60.0762 53.1699 59.8594 53.4121 59.6836C53.6582 59.5039 53.9648 59.3691 54.332 59.2793C54.6992 59.1855 55.125 59.1387 55.6094 59.1387H56.5879Z" fill="white"/>
<path d="M28 20H37.3333V29.3333H28V20Z" stroke="white" stroke-width="2" stroke-linecap="round" stroke-linejoin="round"/>
<path d="M42.6667 20H52.0001V29.3333H42.6667V20Z" stroke="white" stroke-width="2" stroke-linecap="round" stroke-linejoin="round"/>
<path d="M42.6667 34.6666H52.0001V44H42.6667V34.6666Z" stroke="white" stroke-width="2" stroke-linecap="round" stroke-linejoin="round"/>
<path d="M28 34.6666H37.3333V44H28V34.6666Z" stroke="white" stroke-width="2" stroke-linecap="round" stroke-linejoin="round"/>
</svg>
