<svg width="77" height="100" viewBox="0 0 77 100" fill="none" xmlns="http://www.w3.org/2000/svg">
<path d="M0 8C0 3.58172 3.58172 0 8 0H68.75C73.1683 0 76.75 3.58172 76.75 8V92C76.75 96.4183 73.1683 100 68.75 100H8C3.58172 100 0 96.4183 0 92V8Z" fill="#F7F7F8"/>
<rect x="18.375" y="11" width="40" height="40" rx="4" fill="#DFE1E4"/>
<path d="M22.6207 68V59.6H25.3207C25.8967 59.6 26.3887 59.688 26.7967 59.864C27.2127 60.04 27.5327 60.3 27.7567 60.644C27.9887 60.988 28.1047 61.412 28.1047 61.916C28.1047 62.3 28.0127 62.644 27.8287 62.948C27.6527 63.244 27.4047 63.488 27.0847 63.68C27.5007 63.88 27.8167 64.148 28.0327 64.484C28.2567 64.82 28.3687 65.22 28.3687 65.684C28.3687 66.172 28.2567 66.592 28.0327 66.944C27.8167 67.288 27.5087 67.552 27.1087 67.736C26.7087 67.912 26.2287 68 25.6687 68H22.6207ZM23.7847 66.932H25.5967C26.0927 66.932 26.4767 66.816 26.7487 66.584C27.0287 66.344 27.1687 66.024 27.1687 65.624C27.1687 65.176 27.0087 64.832 26.6887 64.592C26.3767 64.344 25.9367 64.22 25.3687 64.22H23.7847V66.932ZM23.7847 63.212H25.5127C25.9447 63.212 26.2847 63.096 26.5327 62.864C26.7887 62.632 26.9167 62.312 26.9167 61.904C26.9167 61.48 26.7727 61.156 26.4847 60.932C26.1967 60.7 25.7927 60.584 25.2727 60.584H23.7847V63.212ZM32.3327 68.144C31.7487 68.144 31.2327 68.012 30.7847 67.748C30.3367 67.476 29.9847 67.104 29.7287 66.632C29.4727 66.16 29.3447 65.616 29.3447 65C29.3447 64.384 29.4727 63.84 29.7287 63.368C29.9847 62.896 30.3367 62.528 30.7847 62.264C31.2407 61.992 31.7607 61.856 32.3447 61.856C32.8967 61.856 33.3807 61.996 33.7967 62.276C34.2127 62.548 34.5367 62.94 34.7687 63.452C35.0087 63.956 35.1287 64.552 35.1287 65.24H30.2807L30.4967 65.06C30.4967 65.484 30.5807 65.852 30.7487 66.164C30.9167 66.476 31.1447 66.716 31.4327 66.884C31.7207 67.044 32.0487 67.124 32.4167 67.124C32.8167 67.124 33.1487 67.032 33.4127 66.848C33.6847 66.656 33.8967 66.416 34.0487 66.128L35.0327 66.584C34.8727 66.896 34.6647 67.172 34.4087 67.412C34.1527 67.644 33.8487 67.824 33.4967 67.952C33.1527 68.08 32.7647 68.144 32.3327 68.144ZM30.5687 64.52L30.3407 64.34H34.1327L33.9167 64.52C33.9167 64.168 33.8447 63.868 33.7007 63.62C33.5567 63.364 33.3647 63.172 33.1247 63.044C32.8847 62.908 32.6167 62.84 32.3207 62.84C32.0327 62.84 31.7527 62.908 31.4807 63.044C31.2167 63.172 30.9967 63.36 30.8207 63.608C30.6527 63.856 30.5687 64.16 30.5687 64.52ZM36.2549 68V59.6H37.3949V68H36.2549ZM43.0536 68L42.9816 66.896V62H44.1096V68H43.0536ZM38.8296 65.072V62H39.9696V65.072H38.8296ZM39.9696 65.072C39.9696 65.608 40.0296 66.02 40.1496 66.308C40.2776 66.596 40.4536 66.796 40.6776 66.908C40.9016 67.02 41.1536 67.08 41.4336 67.088C41.9216 67.088 42.3016 66.916 42.5736 66.572C42.8456 66.228 42.9816 65.744 42.9816 65.12H43.4736C43.4736 65.752 43.3776 66.296 43.1856 66.752C43.0016 67.2 42.7376 67.544 42.3936 67.784C42.0496 68.024 41.6296 68.144 41.1336 68.144C40.6696 68.144 40.2616 68.048 39.9096 67.856C39.5656 67.664 39.2976 67.364 39.1056 66.956C38.9216 66.548 38.8296 66.02 38.8296 65.372V65.072H39.9696ZM45.7002 68V62H46.7682L46.8162 62.828C47.0082 62.508 47.2482 62.268 47.5362 62.108C47.8242 61.94 48.1562 61.856 48.5322 61.856C49.0122 61.856 49.4202 61.968 49.7562 62.192C50.0922 62.408 50.3362 62.74 50.4882 63.188C50.6642 62.756 50.9122 62.428 51.2322 62.204C51.5522 61.972 51.9322 61.856 52.3722 61.856C53.0522 61.856 53.5842 62.08 53.9682 62.528C54.3522 62.968 54.5402 63.648 54.5322 64.568V68H53.4042V64.928C53.4042 64.384 53.3442 63.972 53.2242 63.692C53.1122 63.404 52.9602 63.204 52.7682 63.092C52.5762 62.98 52.3522 62.92 52.0962 62.912C51.6482 62.912 51.3002 63.084 51.0522 63.428C50.8122 63.772 50.6922 64.256 50.6922 64.88V68H49.5522V64.928C49.5522 64.384 49.4962 63.972 49.3842 63.692C49.2722 63.404 49.1162 63.204 48.9162 63.092C48.7242 62.98 48.5002 62.92 48.2442 62.912C47.7962 62.912 47.4482 63.084 47.2002 63.428C46.9602 63.772 46.8402 64.256 46.8402 64.88V68H45.7002ZM23.0016 85V76.6H25.5936C26.3936 76.6 27.1016 76.78 27.7176 77.14C28.3416 77.492 28.8296 77.984 29.1816 78.616C29.5336 79.248 29.7096 79.976 29.7096 80.8C29.7096 81.616 29.5336 82.34 29.1816 82.972C28.8296 83.604 28.3416 84.1 27.7176 84.46C27.1016 84.82 26.3936 85 25.5936 85H23.0016ZM24.1776 83.896H25.5936C26.0016 83.896 26.3816 83.82 26.7336 83.668C27.0856 83.508 27.3936 83.288 27.6576 83.008C27.9296 82.72 28.1376 82.388 28.2816 82.012C28.4336 81.636 28.5096 81.232 28.5096 80.8C28.5096 80.368 28.4336 79.964 28.2816 79.588C28.1376 79.212 27.9296 78.884 27.6576 78.604C27.3936 78.316 27.0856 78.096 26.7336 77.944C26.3816 77.784 26.0016 77.704 25.5936 77.704H24.1776V83.896ZM31.0945 85V79H32.2345V85H31.0945ZM31.6705 77.728C31.4865 77.728 31.3265 77.66 31.1905 77.524C31.0545 77.38 30.9865 77.216 30.9865 77.032C30.9865 76.84 31.0545 76.68 31.1905 76.552C31.3265 76.416 31.4865 76.348 31.6705 76.348C31.8625 76.348 32.0225 76.416 32.1505 76.552C32.2865 76.68 32.3545 76.84 32.3545 77.032C32.3545 77.216 32.2865 77.38 32.1505 77.524C32.0225 77.66 31.8625 77.728 31.6705 77.728ZM37.5893 85L37.5413 83.956V81.868C37.5413 81.428 37.4893 81.06 37.3853 80.764C37.2893 80.468 37.1373 80.244 36.9293 80.092C36.7293 79.94 36.4613 79.864 36.1253 79.864C35.8133 79.864 35.5413 79.928 35.3093 80.056C35.0853 80.184 34.8973 80.384 34.7453 80.656L33.7373 80.272C33.8813 80 34.0613 79.76 34.2773 79.552C34.4933 79.336 34.7533 79.168 35.0573 79.048C35.3613 78.92 35.7173 78.856 36.1253 78.856C36.6933 78.856 37.1653 78.968 37.5413 79.192C37.9173 79.416 38.1973 79.74 38.3813 80.164C38.5733 80.588 38.6653 81.112 38.6573 81.736L38.6453 85H37.5893ZM35.8253 85.144C35.1133 85.144 34.5573 84.984 34.1573 84.664C33.7653 84.336 33.5693 83.884 33.5693 83.308C33.5693 82.692 33.7733 82.224 34.1813 81.904C34.5973 81.576 35.1733 81.412 35.9093 81.412H37.5773V82.312H36.2213C35.6693 82.312 35.2813 82.4 35.0573 82.576C34.8333 82.744 34.7213 82.98 34.7213 83.284C34.7213 83.564 34.8253 83.784 35.0333 83.944C35.2493 84.096 35.5453 84.172 35.9213 84.172C36.2493 84.172 36.5333 84.104 36.7733 83.968C37.0133 83.824 37.2013 83.624 37.3373 83.368C37.4733 83.112 37.5413 82.82 37.5413 82.492H37.9373C37.9373 83.308 37.7613 83.956 37.4093 84.436C37.0653 84.908 36.5373 85.144 35.8253 85.144ZM42.4088 85.144C41.8088 85.144 41.3448 84.992 41.0168 84.688C40.6888 84.376 40.5248 83.932 40.5248 83.356V77.128H41.6648V83.188C41.6648 83.484 41.7368 83.712 41.8808 83.872C42.0328 84.024 42.2488 84.1 42.5288 84.1C42.6088 84.1 42.6968 84.084 42.7928 84.052C42.8888 84.02 43.0048 83.956 43.1408 83.86L43.5728 84.748C43.3648 84.884 43.1648 84.984 42.9728 85.048C42.7888 85.112 42.6008 85.144 42.4088 85.144ZM39.5048 79.984V79H43.3688V79.984H39.5048ZM48.7783 85L48.7063 83.896V79H49.8343V85H48.7783ZM44.5543 82.072V79H45.6943V82.072H44.5543ZM45.6943 82.072C45.6943 82.608 45.7543 83.02 45.8743 83.308C46.0023 83.596 46.1783 83.796 46.4023 83.908C46.6263 84.02 46.8783 84.08 47.1583 84.088C47.6463 84.088 48.0263 83.916 48.2983 83.572C48.5703 83.228 48.7063 82.744 48.7063 82.12H49.1983C49.1983 82.752 49.1023 83.296 48.9103 83.752C48.7263 84.2 48.4623 84.544 48.1183 84.784C47.7743 85.024 47.3543 85.144 46.8583 85.144C46.3943 85.144 45.9863 85.048 45.6343 84.856C45.2903 84.664 45.0223 84.364 44.8303 83.956C44.6463 83.548 44.5543 83.02 44.5543 82.372V82.072H45.6943ZM52.1208 81.772C52.1208 81.124 52.2448 80.596 52.4928 80.188C52.7408 79.78 53.0608 79.476 53.4528 79.276C53.8448 79.076 54.2568 78.976 54.6888 78.976V80.056C54.3288 80.056 53.9848 80.112 53.6568 80.224C53.3368 80.328 53.0728 80.504 52.8648 80.752C52.6648 80.992 52.5648 81.32 52.5648 81.736L52.1208 81.772ZM51.4248 85V79H52.5648V85H51.4248Z" fill="#AFB3BB"/>
</svg>
