<svg width="76" height="100" viewBox="0 0 76 100" fill="none" xmlns="http://www.w3.org/2000/svg">
<rect x="0.5" y="0.5" width="75" height="99" rx="7.5" fill="white"/>
<rect x="0.5" y="0.5" width="75" height="99" rx="7.5" stroke="#DFE1E4"/>
<g clip-path="url(#clip0_934_3206)">
<path d="M27.0966 25.3873C24.9031 27.7744 27.0321 30.5486 27.5482 31.0002C28.4072 31.7518 36.0644 39.1292 36.0644 39.1292C37.1611 40.1615 39.4192 40.097 40.3869 39.1292C40.3869 39.1292 49.2902 30.355 49.7418 29.9034C49.8708 29.7744 51.2257 27.0002 49.2902 25.0647C47.2257 23.0002 44.516 24.355 44.1934 24.6776C43.6822 25.1888 38.7095 30.8188 37.0966 31.3228C35.0321 31.9679 33.7418 29.6453 33.7418 29.6453C33.7418 29.6453 34.1224 27.2229 33.3547 26.0324C32.2053 24.2502 29.0746 23.2347 27.0966 25.3873Z" fill="#11A9BE" stroke="#11A9BE" stroke-width="0.129032"/>
<path d="M51.2208 21.1865C53.1616 23.7503 54.2988 26.832 54.4882 30.0419C54.6776 33.2518 53.911 36.4459 52.2852 39.2201C50.6594 41.9944 48.2474 44.2242 45.3543 45.6276C42.4612 47.0311 39.2168 47.5451 36.0317 47.1047" stroke="#364041" stroke-width="0.387097" stroke-linecap="round"/>
<path d="M25.4695 41.0386C23.2405 38.1989 22.02 34.698 22.0004 31.0881C21.9808 27.478 23.1633 23.9642 25.3615 21.1006" stroke="#364041" stroke-width="0.387097" stroke-linecap="round"/>
<path d="M31.9807 16.0021C34.7186 14.856 37.7179 14.4813 40.6537 14.9186" stroke="#364041" stroke-width="0.387097" stroke-linecap="round"/>
<path d="M47.1039 15.9937C50.9964 18.2882 53.845 22.0056 55.0484 26.361" stroke="#11A9BE" stroke-width="0.645161" stroke-linecap="round"/>
<path d="M42.5223 47.8895C38.043 49.0203 33.2979 48.3256 29.3308 45.9578C25.3638 43.5901 22.4998 39.7435 21.3688 35.2642" stroke="#11A9BE" stroke-width="0.645161" stroke-linecap="round"/>
<path d="M23.2832 22.1014C24.8144 19.5246 26.9845 17.3866 29.5838 15.8939C32.1831 14.4013 35.1236 13.6047 38.1209 13.5811" stroke="#11A9BE" stroke-width="0.645161" stroke-linecap="round"/>
<path d="M55.484 31.3873C55.6621 31.3873 55.8065 31.2429 55.8065 31.0648C55.8065 30.8866 55.6621 30.7422 55.484 30.7422C55.3058 30.7422 55.1614 30.8866 55.1614 31.0648C55.1614 31.2429 55.3058 31.3873 55.484 31.3873Z" fill="#11A9BE"/>
<path d="M54.9678 35.903C55.1459 35.903 55.2904 35.7585 55.2904 35.5804C55.2904 35.4022 55.1459 35.2578 54.9678 35.2578C54.7896 35.2578 54.6452 35.4022 54.6452 35.5804C54.6452 35.7585 54.7896 35.903 54.9678 35.903Z" fill="#11A9BE"/>
<path d="M53.1614 40.0329C53.3396 40.0329 53.484 39.8884 53.484 39.7103C53.484 39.5321 53.3396 39.3877 53.1614 39.3877C52.9833 39.3877 52.8389 39.5321 52.8389 39.7103C52.8389 39.8884 52.9833 40.0329 53.1614 40.0329Z" fill="#11A9BE"/>
<path d="M50.3225 43.5163C50.5007 43.5163 50.6451 43.3718 50.6451 43.1937C50.6451 43.0155 50.5007 42.8711 50.3225 42.8711C50.1444 42.8711 49.9999 43.0155 49.9999 43.1937C49.9999 43.3718 50.1444 43.5163 50.3225 43.5163Z" fill="#11A9BE"/>
<path d="M46.7095 46.2257C46.8877 46.2257 47.0321 46.0813 47.0321 45.9031C47.0321 45.725 46.8877 45.5806 46.7095 45.5806C46.5314 45.5806 46.387 45.725 46.387 45.9031C46.387 46.0813 46.5314 46.2257 46.7095 46.2257Z" fill="#11A9BE"/>
<path d="M20.903 31.1286C21.0812 31.1286 21.2256 30.9841 21.2256 30.806C21.2256 30.6278 21.0812 30.4834 20.903 30.4834C20.7249 30.4834 20.5804 30.6278 20.5804 30.806C20.5804 30.9841 20.7249 31.1286 20.903 31.1286Z" fill="#11A9BE"/>
<path d="M21.5484 26.6129C21.7266 26.6129 21.871 26.4685 21.871 26.2904C21.871 26.1122 21.7266 25.9678 21.5484 25.9678C21.3703 25.9678 21.2258 26.1122 21.2258 26.2904C21.2258 26.4685 21.3703 26.6129 21.5484 26.6129Z" fill="#11A9BE"/>
<path d="M42.8389 14.6134C43.017 14.6134 43.1615 14.469 43.1615 14.2908C43.1615 14.1127 43.017 13.9683 42.8389 13.9683C42.6607 13.9683 42.5163 14.1127 42.5163 14.2908C42.5163 14.469 42.6607 14.6134 42.8389 14.6134Z" fill="#11A9BE"/>
<path d="M28.3872 18.3554C28.494 18.3554 28.5807 18.2687 28.5807 18.1618C28.5807 18.0549 28.494 17.9683 28.3872 17.9683C28.2803 17.9683 28.1936 18.0549 28.1936 18.1618C28.1936 18.2687 28.2803 18.3554 28.3872 18.3554Z" fill="#364041"/>
<path d="M28.3872 43.9032C28.494 43.9032 28.5807 43.8166 28.5807 43.7097C28.5807 43.6028 28.494 43.5161 28.3872 43.5161C28.2803 43.5161 28.1936 43.6028 28.1936 43.7097C28.1936 43.8166 28.2803 43.9032 28.3872 43.9032Z" fill="#364041"/>
<path d="M32.0001 45.9677C32.107 45.9677 32.1937 45.881 32.1937 45.7741C32.1937 45.6672 32.107 45.5806 32.0001 45.5806C31.8932 45.5806 31.8066 45.6672 31.8066 45.7741C31.8066 45.881 31.8932 45.9677 32.0001 45.9677Z" fill="#364041"/>
<path d="M44.387 16.2899C44.4939 16.2899 44.5805 16.2033 44.5805 16.0964C44.5805 15.9895 44.4939 15.9028 44.387 15.9028C44.2801 15.9028 44.1934 15.9895 44.1934 16.0964C44.1934 16.2033 44.2801 16.2899 44.387 16.2899Z" fill="#364041"/>
<path d="M48.1289 18.3554C48.2358 18.3554 48.3225 18.2687 48.3225 18.1618C48.3225 18.0549 48.2358 17.9683 48.1289 17.9683C48.022 17.9683 47.9354 18.0549 47.9354 18.1618C47.9354 18.2687 48.022 18.3554 48.1289 18.3554Z" fill="#364041"/>
</g>
<path d="M9.94105 68V59.6H12.533C13.333 59.6 14.041 59.78 14.657 60.14C15.281 60.492 15.769 60.984 16.121 61.616C16.473 62.248 16.649 62.976 16.649 63.8C16.649 64.616 16.473 65.34 16.121 65.972C15.769 66.604 15.281 67.1 14.657 67.46C14.041 67.82 13.333 68 12.533 68H9.94105ZM11.117 66.896H12.533C12.941 66.896 13.321 66.82 13.673 66.668C14.025 66.508 14.333 66.288 14.597 66.008C14.869 65.72 15.077 65.388 15.221 65.012C15.373 64.636 15.449 64.232 15.449 63.8C15.449 63.368 15.373 62.964 15.221 62.588C15.077 62.212 14.869 61.884 14.597 61.604C14.333 61.316 14.025 61.096 13.673 60.944C13.321 60.784 12.941 60.704 12.533 60.704H11.117V66.896ZM19.8819 68.144C19.1699 68.144 18.6139 67.984 18.2139 67.664C17.8219 67.336 17.6259 66.884 17.6259 66.308C17.6259 65.692 17.8299 65.224 18.2379 64.904C18.6539 64.576 19.2299 64.412 19.9659 64.412H21.5739C21.5259 63.9 21.3899 63.516 21.1659 63.26C20.9499 62.996 20.6219 62.864 20.1819 62.864C19.8699 62.864 19.5979 62.928 19.3659 63.056C19.1419 63.184 18.9539 63.384 18.8019 63.656L17.7939 63.272C17.9379 63 18.1179 62.76 18.3339 62.552C18.5499 62.336 18.8099 62.168 19.1139 62.048C19.4179 61.92 19.7739 61.856 20.1819 61.856C20.7499 61.856 21.2219 61.968 21.5979 62.192C21.9739 62.416 22.2539 62.74 22.4379 63.164C22.6299 63.588 22.7219 64.112 22.7139 64.736L22.7019 68H21.6459L21.6099 67.232C21.4339 67.52 21.2019 67.744 20.9139 67.904C20.6259 68.064 20.2819 68.144 19.8819 68.144ZM19.9779 67.172C20.3059 67.172 20.5899 67.104 20.8299 66.968C21.0699 66.824 21.2579 66.628 21.3939 66.38C21.5299 66.124 21.5979 65.832 21.5979 65.504V65.312H20.2779C19.7259 65.312 19.3379 65.4 19.1139 65.576C18.8899 65.744 18.7779 65.98 18.7779 66.284C18.7779 66.564 18.8819 66.784 19.0899 66.944C19.3059 67.096 19.6019 67.172 19.9779 67.172ZM26.2974 68.144C25.8734 68.144 25.4934 68.08 25.1574 67.952C24.8294 67.824 24.5494 67.652 24.3174 67.436C24.0934 67.22 23.9254 66.976 23.8134 66.704L24.7974 66.272C24.9254 66.52 25.1174 66.724 25.3734 66.884C25.6294 67.044 25.9134 67.124 26.2254 67.124C26.5694 67.124 26.8534 67.06 27.0774 66.932C27.3014 66.804 27.4134 66.624 27.4134 66.392C27.4134 66.168 27.3294 65.992 27.1614 65.864C26.9934 65.736 26.7494 65.632 26.4294 65.552L25.8654 65.408C25.3054 65.256 24.8694 65.028 24.5574 64.724C24.2534 64.42 24.1014 64.076 24.1014 63.692C24.1014 63.108 24.2894 62.656 24.6654 62.336C25.0414 62.016 25.5974 61.856 26.3334 61.856C26.6934 61.856 27.0214 61.908 27.3174 62.012C27.6214 62.116 27.8774 62.264 28.0854 62.456C28.3014 62.648 28.4534 62.876 28.5414 63.14L27.5814 63.572C27.4854 63.332 27.3214 63.156 27.0894 63.044C26.8574 62.924 26.5854 62.864 26.2734 62.864C25.9534 62.864 25.7014 62.936 25.5174 63.08C25.3334 63.216 25.2414 63.408 25.2414 63.656C25.2414 63.792 25.3174 63.924 25.4694 64.052C25.6294 64.172 25.8614 64.272 26.1654 64.352L26.8134 64.508C27.2054 64.604 27.5294 64.752 27.7854 64.952C28.0414 65.144 28.2334 65.364 28.3614 65.612C28.4894 65.852 28.5534 66.104 28.5534 66.368C28.5534 66.728 28.4534 67.044 28.2534 67.316C28.0614 67.58 27.7934 67.784 27.4494 67.928C27.1134 68.072 26.7294 68.144 26.2974 68.144ZM29.7513 68V59.6H30.8793V62.852C31.0793 62.532 31.3353 62.288 31.6473 62.12C31.9593 61.944 32.3193 61.856 32.7273 61.856C33.1993 61.856 33.6073 61.952 33.9513 62.144C34.2953 62.336 34.5633 62.636 34.7553 63.044C34.9473 63.444 35.0393 63.972 35.0313 64.628V68H33.9033V64.928C33.9033 64.384 33.8393 63.972 33.7113 63.692C33.5833 63.404 33.4073 63.204 33.1833 63.092C32.9673 62.98 32.7193 62.92 32.4393 62.912C31.9433 62.912 31.5593 63.084 31.2873 63.428C31.0153 63.772 30.8793 64.256 30.8793 64.88V68H29.7513ZM39.5738 68.144C39.1418 68.144 38.7578 68.048 38.4218 67.856C38.0858 67.656 37.8098 67.38 37.5938 67.028L37.5458 68H36.4658V59.6H37.6058V62.96C37.8218 62.608 38.0938 62.336 38.4218 62.144C38.7578 61.952 39.1418 61.856 39.5738 61.856C40.1098 61.856 40.5818 61.988 40.9898 62.252C41.3978 62.516 41.7138 62.884 41.9378 63.356C42.1698 63.82 42.2858 64.368 42.2858 65C42.2858 65.624 42.1698 66.172 41.9378 66.644C41.7138 67.116 41.3978 67.484 40.9898 67.748C40.5818 68.012 40.1098 68.144 39.5738 68.144ZM39.2978 67.112C39.6578 67.112 39.9738 67.024 40.2458 66.848C40.5178 66.664 40.7298 66.416 40.8818 66.104C41.0418 65.784 41.1218 65.416 41.1218 65C41.1218 64.584 41.0458 64.22 40.8938 63.908C40.7418 63.588 40.5298 63.34 40.2578 63.164C39.9858 62.98 39.6698 62.888 39.3098 62.888C38.9818 62.888 38.6858 62.98 38.4218 63.164C38.1658 63.34 37.9658 63.588 37.8218 63.908C37.6778 64.228 37.6058 64.592 37.6058 65C37.6058 65.416 37.6778 65.784 37.8218 66.104C37.9658 66.416 38.1658 66.664 38.4218 66.848C38.6778 67.024 38.9698 67.112 39.2978 67.112ZM46.2442 68.144C45.6442 68.144 45.1162 68.012 44.6602 67.748C44.2042 67.476 43.8442 67.104 43.5802 66.632C43.3242 66.16 43.1962 65.616 43.1962 65C43.1962 64.384 43.3242 63.84 43.5802 63.368C43.8362 62.896 44.1922 62.528 44.6482 62.264C45.1042 61.992 45.6282 61.856 46.2202 61.856C46.8122 61.856 47.3362 61.992 47.7922 62.264C48.2482 62.528 48.6042 62.896 48.8602 63.368C49.1162 63.84 49.2442 64.384 49.2442 65C49.2442 65.616 49.1162 66.16 48.8602 66.632C48.6042 67.104 48.2482 67.476 47.7922 67.748C47.3442 68.012 46.8282 68.144 46.2442 68.144ZM46.2442 67.1C46.6042 67.1 46.9242 67.012 47.2042 66.836C47.4842 66.652 47.7002 66.404 47.8522 66.092C48.0122 65.78 48.0922 65.416 48.0922 65C48.0922 64.584 48.0122 64.22 47.8522 63.908C47.7002 63.596 47.4802 63.352 47.1922 63.176C46.9042 62.992 46.5802 62.9 46.2202 62.9C45.8522 62.9 45.5282 62.992 45.2482 63.176C44.9682 63.352 44.7482 63.596 44.5882 63.908C44.4282 64.22 44.3482 64.584 44.3482 65C44.3482 65.416 44.4282 65.78 44.5882 66.092C44.7482 66.404 44.9722 66.652 45.2602 66.836C45.5482 67.012 45.8762 67.1 46.2442 67.1ZM52.4132 68.144C51.7012 68.144 51.1452 67.984 50.7452 67.664C50.3532 67.336 50.1572 66.884 50.1572 66.308C50.1572 65.692 50.3612 65.224 50.7692 64.904C51.1852 64.576 51.7612 64.412 52.4972 64.412H54.1052C54.0572 63.9 53.9212 63.516 53.6972 63.26C53.4812 62.996 53.1532 62.864 52.7132 62.864C52.4012 62.864 52.1292 62.928 51.8972 63.056C51.6732 63.184 51.4852 63.384 51.3332 63.656L50.3252 63.272C50.4692 63 50.6492 62.76 50.8652 62.552C51.0812 62.336 51.3412 62.168 51.6452 62.048C51.9492 61.92 52.3052 61.856 52.7132 61.856C53.2812 61.856 53.7532 61.968 54.1292 62.192C54.5052 62.416 54.7852 62.74 54.9692 63.164C55.1612 63.588 55.2532 64.112 55.2452 64.736L55.2332 68H54.1772L54.1412 67.232C53.9652 67.52 53.7332 67.744 53.4452 67.904C53.1572 68.064 52.8132 68.144 52.4132 68.144ZM52.5092 67.172C52.8372 67.172 53.1212 67.104 53.3612 66.968C53.6012 66.824 53.7892 66.628 53.9252 66.38C54.0612 66.124 54.1292 65.832 54.1292 65.504V65.312H52.8092C52.2572 65.312 51.8692 65.4 51.6452 65.576C51.4212 65.744 51.3092 65.98 51.3092 66.284C51.3092 66.564 51.4132 66.784 51.6212 66.944C51.8372 67.096 52.1332 67.172 52.5092 67.172ZM56.6807 68V62H57.8207V63.08C58.0607 62.704 58.3687 62.428 58.7447 62.252C59.1287 62.068 59.5287 61.976 59.9447 61.976V63.056C59.5847 63.056 59.2407 63.112 58.9127 63.224C58.5927 63.328 58.3287 63.504 58.1207 63.752C57.9207 63.992 57.8207 64.32 57.8207 64.736V68H56.6807ZM63.2403 68.144C62.6963 68.144 62.2203 68.012 61.8123 67.748C61.4123 67.484 61.0963 67.116 60.8643 66.644C60.6403 66.172 60.5283 65.624 60.5283 65C60.5283 64.368 60.6403 63.82 60.8643 63.356C61.0963 62.884 61.4123 62.516 61.8123 62.252C62.2203 61.988 62.6963 61.856 63.2403 61.856C63.6643 61.856 64.0443 61.952 64.3803 62.144C64.7163 62.336 64.9923 62.608 65.2083 62.96V59.6H66.3363V68H65.2563L65.2203 67.028C65.0043 67.38 64.7283 67.656 64.3923 67.856C64.0563 68.048 63.6723 68.144 63.2403 68.144ZM63.5043 67.112C63.8323 67.112 64.1203 67.024 64.3683 66.848C64.6243 66.672 64.8243 66.432 64.9683 66.128C65.1203 65.816 65.2003 65.46 65.2083 65.06V64.94C65.2003 64.54 65.1203 64.188 64.9683 63.884C64.8243 63.572 64.6243 63.328 64.3683 63.152C64.1203 62.976 63.8283 62.888 63.4923 62.888C63.1403 62.888 62.8283 62.98 62.5563 63.164C62.2843 63.34 62.0723 63.588 61.9203 63.908C61.7683 64.22 61.6923 64.584 61.6923 65C61.6923 65.416 61.7683 65.784 61.9203 66.104C62.0803 66.416 62.2963 66.664 62.5683 66.848C62.8403 67.024 63.1523 67.112 63.5043 67.112ZM13.0114 85V76.6H15.8434C16.4034 76.6 16.8954 76.716 17.3194 76.948C17.7514 77.172 18.0874 77.488 18.3274 77.896C18.5754 78.296 18.6994 78.764 18.6994 79.3C18.6994 79.82 18.5874 80.284 18.3634 80.692C18.1394 81.1 17.8274 81.42 17.4274 81.652C17.0354 81.884 16.5834 82 16.0714 82H14.1874V85H13.0114ZM14.1874 80.908H16.0594C16.4834 80.908 16.8314 80.76 17.1034 80.464C17.3754 80.16 17.5114 79.772 17.5114 79.3C17.5114 78.812 17.3514 78.42 17.0314 78.124C16.7194 77.828 16.3194 77.68 15.8314 77.68H14.1874V80.908ZM20.0426 85V76.6H21.2186V83.92H25.1186V85H20.0426ZM26.3356 85V76.6H27.5476L32.2996 83.032V76.6H33.4876V85H32.2996L27.5116 78.508V85H26.3356ZM38.5582 85V76.6H41.1502C41.9502 76.6 42.6582 76.78 43.2742 77.14C43.8982 77.492 44.3862 77.984 44.7382 78.616C45.0902 79.248 45.2662 79.976 45.2662 80.8C45.2662 81.616 45.0902 82.34 44.7382 82.972C44.3862 83.604 43.8982 84.1 43.2742 84.46C42.6582 84.82 41.9502 85 41.1502 85H38.5582ZM39.7342 83.896H41.1502C41.5582 83.896 41.9382 83.82 42.2902 83.668C42.6422 83.508 42.9502 83.288 43.2142 83.008C43.4862 82.72 43.6942 82.388 43.8382 82.012C43.9902 81.636 44.0662 81.232 44.0662 80.8C44.0662 80.368 43.9902 79.964 43.8382 79.588C43.6942 79.212 43.4862 78.884 43.2142 78.604C42.9502 78.316 42.6422 78.096 42.2902 77.944C41.9382 77.784 41.5582 77.704 41.1502 77.704H39.7342V83.896ZM48.4991 85.144C47.7871 85.144 47.2311 84.984 46.8311 84.664C46.4391 84.336 46.2431 83.884 46.2431 83.308C46.2431 82.692 46.4471 82.224 46.8551 81.904C47.2711 81.576 47.8471 81.412 48.5831 81.412H50.1911C50.1431 80.9 50.0071 80.516 49.7831 80.26C49.5671 79.996 49.2391 79.864 48.7991 79.864C48.4871 79.864 48.2151 79.928 47.9831 80.056C47.7591 80.184 47.5711 80.384 47.4191 80.656L46.4111 80.272C46.5551 80 46.7351 79.76 46.9511 79.552C47.1671 79.336 47.4271 79.168 47.7311 79.048C48.0351 78.92 48.3911 78.856 48.7991 78.856C49.3671 78.856 49.8391 78.968 50.2151 79.192C50.5911 79.416 50.8711 79.74 51.0551 80.164C51.2471 80.588 51.3391 81.112 51.3311 81.736L51.3191 85H50.2631L50.2271 84.232C50.0511 84.52 49.8191 84.744 49.5311 84.904C49.2431 85.064 48.8991 85.144 48.4991 85.144ZM48.5951 84.172C48.9231 84.172 49.2071 84.104 49.4471 83.968C49.6871 83.824 49.8751 83.628 50.0111 83.38C50.1471 83.124 50.2151 82.832 50.2151 82.504V82.312H48.8951C48.3431 82.312 47.9551 82.4 47.7311 82.576C47.5071 82.744 47.3951 82.98 47.3951 83.284C47.3951 83.564 47.4991 83.784 47.7071 83.944C47.9231 84.096 48.2191 84.172 48.5951 84.172ZM52.8386 85V79H53.9786V85H52.8386ZM53.4146 77.728C53.2306 77.728 53.0706 77.66 52.9346 77.524C52.7986 77.38 52.7306 77.216 52.7306 77.032C52.7306 76.84 52.7986 76.68 52.9346 76.552C53.0706 76.416 53.2306 76.348 53.4146 76.348C53.6066 76.348 53.7666 76.416 53.8946 76.552C54.0306 76.68 54.0986 76.84 54.0986 77.032C54.0986 77.216 54.0306 77.38 53.8946 77.524C53.7666 77.66 53.6066 77.728 53.4146 77.728ZM55.6494 85V76.6H56.7894V85H55.6494ZM59.1002 87.544C58.9242 87.544 58.7282 87.512 58.5122 87.448C58.3042 87.384 58.0882 87.3 57.8642 87.196L58.2842 86.26C58.4602 86.34 58.6122 86.4 58.7402 86.44C58.8762 86.48 58.9842 86.5 59.0642 86.5C59.2642 86.5 59.4322 86.444 59.5682 86.332C59.7122 86.22 59.8282 86.064 59.9162 85.864L60.2882 84.964L57.6722 79H58.8842L60.8282 83.656L62.7482 79H63.9722L61.1282 85.744C60.9762 86.112 60.8162 86.432 60.6482 86.704C60.4802 86.976 60.2722 87.184 60.0242 87.328C59.7842 87.472 59.4762 87.544 59.1002 87.544Z" fill="#25262B"/>
<defs>
<clipPath id="clip0_934_3206">
<rect width="40" height="40" fill="white" transform="translate(18 11)"/>
</clipPath>
</defs>
</svg>
