<svg width="80" height="80" viewBox="0 0 80 80" fill="none" xmlns="http://www.w3.org/2000/svg">
<rect width="80" height="80" rx="20" fill="#00A2B9" fill-opacity="0.1"/>
<path d="M31.9336 48.2246L29.1094 56H27.9551L31.207 47.4688H31.9512L31.9336 48.2246ZM34.3008 56L31.4707 48.2246L31.4531 47.4688H32.1973L35.4609 56H34.3008ZM34.1543 52.8418V53.7676H29.3613V52.8418H34.1543ZM36.9609 47.4688H38.0566L40.8516 54.4238L43.6406 47.4688H44.7422L41.2734 56H40.418L36.9609 47.4688ZM36.6035 47.4688H37.5703L37.7285 52.6719V56H36.6035V47.4688ZM44.127 47.4688H45.0938V56H43.9688V52.6719L44.127 47.4688ZM51.627 53.8438C51.627 53.6445 51.5957 53.4688 51.5332 53.3164C51.4746 53.1602 51.3691 53.0195 51.2168 52.8945C51.0684 52.7695 50.8613 52.6504 50.5957 52.5371C50.334 52.4238 50.002 52.3086 49.5996 52.1914C49.1777 52.0664 48.7969 51.9277 48.457 51.7754C48.1172 51.6191 47.8262 51.4414 47.584 51.2422C47.3418 51.043 47.1562 50.8145 47.0273 50.5566C46.8984 50.2988 46.834 50.0039 46.834 49.6719C46.834 49.3398 46.9023 49.0332 47.0391 48.752C47.1758 48.4707 47.3711 48.2266 47.625 48.0195C47.8828 47.8086 48.1895 47.6445 48.5449 47.5273C48.9004 47.4102 49.2969 47.3516 49.7344 47.3516C50.375 47.3516 50.918 47.4746 51.3633 47.7207C51.8125 47.9629 52.1543 48.2812 52.3887 48.6758C52.623 49.0664 52.7402 49.4844 52.7402 49.9297H51.6152C51.6152 49.6094 51.5469 49.3262 51.4102 49.0801C51.2734 48.8301 51.0664 48.6348 50.7891 48.4941C50.5117 48.3496 50.1602 48.2773 49.7344 48.2773C49.332 48.2773 49 48.3379 48.7383 48.459C48.4766 48.5801 48.2812 48.7441 48.1523 48.9512C48.0273 49.1582 47.9648 49.3945 47.9648 49.6602C47.9648 49.8398 48.002 50.0039 48.0762 50.1523C48.1543 50.2969 48.2734 50.4316 48.4336 50.5566C48.5977 50.6816 48.8047 50.7969 49.0547 50.9023C49.3086 51.0078 49.6113 51.1094 49.9629 51.207C50.4473 51.3438 50.8652 51.4961 51.2168 51.6641C51.5684 51.832 51.8574 52.0215 52.084 52.2324C52.3145 52.4395 52.4844 52.6758 52.5938 52.9414C52.707 53.2031 52.7637 53.5 52.7637 53.832C52.7637 54.1797 52.6934 54.4941 52.5527 54.7754C52.4121 55.0566 52.2109 55.2969 51.9492 55.4961C51.6875 55.6953 51.373 55.8496 51.0059 55.959C50.6426 56.0645 50.2363 56.1172 49.7871 56.1172C49.3926 56.1172 49.0039 56.0625 48.6211 55.9531C48.2422 55.8438 47.8965 55.6797 47.584 55.4609C47.2754 55.2422 47.0273 54.9727 46.8398 54.6523C46.6562 54.3281 46.5645 53.9531 46.5645 53.5273H47.6895C47.6895 53.8203 47.7461 54.0723 47.8594 54.2832C47.9727 54.4902 48.127 54.6621 48.3223 54.7988C48.5215 54.9355 48.7461 55.0371 48.9961 55.1035C49.25 55.166 49.5137 55.1973 49.7871 55.1973C50.1816 55.1973 50.5156 55.1426 50.7891 55.0332C51.0625 54.9238 51.2695 54.7676 51.4102 54.5645C51.5547 54.3613 51.627 54.1211 51.627 53.8438ZM19.5469 61.4688V70H18.416V61.4688H19.5469ZM24.6973 61.4688L21.1523 65.4473L19.1602 67.5156L18.9727 66.3086L20.4727 64.6562L23.3379 61.4688H24.6973ZM23.6074 70L20.4492 65.8398L21.123 64.9434L24.9551 70H23.6074ZM25.3359 66.9004V66.7656C25.3359 66.3086 25.4023 65.8848 25.5352 65.4941C25.668 65.0996 25.8594 64.7578 26.1094 64.4688C26.3594 64.1758 26.6621 63.9492 27.0176 63.7891C27.373 63.625 27.7715 63.543 28.2129 63.543C28.6582 63.543 29.0586 63.625 29.4141 63.7891C29.7734 63.9492 30.0781 64.1758 30.3281 64.4688C30.582 64.7578 30.7754 65.0996 30.9082 65.4941C31.041 65.8848 31.1074 66.3086 31.1074 66.7656V66.9004C31.1074 67.3574 31.041 67.7812 30.9082 68.1719C30.7754 68.5625 30.582 68.9043 30.3281 69.1973C30.0781 69.4863 29.7754 69.7129 29.4199 69.877C29.0684 70.0371 28.6699 70.1172 28.2246 70.1172C27.7793 70.1172 27.3789 70.0371 27.0234 69.877C26.668 69.7129 26.3633 69.4863 26.1094 69.1973C25.8594 68.9043 25.668 68.5625 25.5352 68.1719C25.4023 67.7812 25.3359 67.3574 25.3359 66.9004ZM26.4199 66.7656V66.9004C26.4199 67.2168 26.457 67.5156 26.5312 67.7969C26.6055 68.0742 26.7168 68.3203 26.8652 68.5352C27.0176 68.75 27.207 68.9199 27.4336 69.0449C27.6602 69.166 27.9238 69.2266 28.2246 69.2266C28.5215 69.2266 28.7812 69.166 29.0039 69.0449C29.2305 68.9199 29.418 68.75 29.5664 68.5352C29.7148 68.3203 29.8262 68.0742 29.9004 67.7969C29.9785 67.5156 30.0176 67.2168 30.0176 66.9004V66.7656C30.0176 66.4531 29.9785 66.1582 29.9004 65.8809C29.8262 65.5996 29.7129 65.3516 29.5605 65.1367C29.4121 64.918 29.2246 64.7461 28.998 64.6211C28.7754 64.4961 28.5137 64.4336 28.2129 64.4336C27.916 64.4336 27.6543 64.4961 27.4277 64.6211C27.2051 64.7461 27.0176 64.918 26.8652 65.1367C26.7168 65.3516 26.6055 65.5996 26.5312 65.8809C26.457 66.1582 26.4199 66.4531 26.4199 66.7656ZM33.5508 64.6562V70H32.4668V63.6602H33.5215L33.5508 64.6562ZM35.5312 63.625L35.5254 64.6328C35.4355 64.6133 35.3496 64.6016 35.2676 64.5977C35.1895 64.5898 35.0996 64.5859 34.998 64.5859C34.748 64.5859 34.5273 64.625 34.3359 64.7031C34.1445 64.7812 33.9824 64.8906 33.8496 65.0312C33.7168 65.1719 33.6113 65.3398 33.5332 65.5352C33.459 65.7266 33.4102 65.9375 33.3867 66.168L33.082 66.3438C33.082 65.9609 33.1191 65.6016 33.1934 65.2656C33.2715 64.9297 33.3906 64.6328 33.5508 64.375C33.7109 64.1133 33.9141 63.9102 34.1602 63.7656C34.4102 63.6172 34.707 63.543 35.0508 63.543C35.1289 63.543 35.2188 63.5527 35.3203 63.5723C35.4219 63.5879 35.4922 63.6055 35.5312 63.625ZM37.6172 64.8789V72.4375H36.5273V63.6602H37.5234L37.6172 64.8789ZM41.8887 66.7773V66.9004C41.8887 67.3613 41.834 67.7891 41.7246 68.1836C41.6152 68.5742 41.4551 68.9141 41.2441 69.2031C41.0371 69.4922 40.7812 69.7168 40.4766 69.877C40.1719 70.0371 39.8223 70.1172 39.4277 70.1172C39.0254 70.1172 38.6699 70.0508 38.3613 69.918C38.0527 69.7852 37.791 69.5918 37.5762 69.3379C37.3613 69.084 37.1895 68.7793 37.0605 68.4238C36.9355 68.0684 36.8496 67.668 36.8027 67.2227V66.5664C36.8496 66.0977 36.9375 65.6777 37.0664 65.3066C37.1953 64.9355 37.3652 64.6191 37.5762 64.3574C37.791 64.0918 38.0508 63.8906 38.3555 63.7539C38.6602 63.6133 39.0117 63.543 39.4102 63.543C39.8086 63.543 40.1621 63.6211 40.4707 63.7773C40.7793 63.9297 41.0391 64.1484 41.25 64.4336C41.4609 64.7188 41.6191 65.0605 41.7246 65.459C41.834 65.8535 41.8887 66.293 41.8887 66.7773ZM40.7988 66.9004V66.7773C40.7988 66.4609 40.7656 66.1641 40.6992 65.8867C40.6328 65.6055 40.5293 65.3594 40.3887 65.1484C40.252 64.9336 40.0762 64.7656 39.8613 64.6445C39.6465 64.5195 39.3906 64.457 39.0938 64.457C38.8203 64.457 38.582 64.5039 38.3789 64.5977C38.1797 64.6914 38.0098 64.8184 37.8691 64.9785C37.7285 65.1348 37.6133 65.3145 37.5234 65.5176C37.4375 65.7168 37.373 65.9238 37.3301 66.1387V67.6562C37.4082 67.9297 37.5176 68.1875 37.6582 68.4297C37.7988 68.668 37.9863 68.8613 38.2207 69.0098C38.4551 69.1543 38.75 69.2266 39.1055 69.2266C39.3984 69.2266 39.6504 69.166 39.8613 69.0449C40.0762 68.9199 40.252 68.75 40.3887 68.5352C40.5293 68.3203 40.6328 68.0742 40.6992 67.7969C40.7656 67.5156 40.7988 67.2168 40.7988 66.9004ZM42.9844 66.9004V66.7656C42.9844 66.3086 43.0508 65.8848 43.1836 65.4941C43.3164 65.0996 43.5078 64.7578 43.7578 64.4688C44.0078 64.1758 44.3105 63.9492 44.666 63.7891C45.0215 63.625 45.4199 63.543 45.8613 63.543C46.3066 63.543 46.707 63.625 47.0625 63.7891C47.4219 63.9492 47.7266 64.1758 47.9766 64.4688C48.2305 64.7578 48.4238 65.0996 48.5566 65.4941C48.6895 65.8848 48.7559 66.3086 48.7559 66.7656V66.9004C48.7559 67.3574 48.6895 67.7812 48.5566 68.1719C48.4238 68.5625 48.2305 68.9043 47.9766 69.1973C47.7266 69.4863 47.4238 69.7129 47.0684 69.877C46.7168 70.0371 46.3184 70.1172 45.873 70.1172C45.4277 70.1172 45.0273 70.0371 44.6719 69.877C44.3164 69.7129 44.0117 69.4863 43.7578 69.1973C43.5078 68.9043 43.3164 68.5625 43.1836 68.1719C43.0508 67.7812 42.9844 67.3574 42.9844 66.9004ZM44.0684 66.7656V66.9004C44.0684 67.2168 44.1055 67.5156 44.1797 67.7969C44.2539 68.0742 44.3652 68.3203 44.5137 68.5352C44.666 68.75 44.8555 68.9199 45.082 69.0449C45.3086 69.166 45.5723 69.2266 45.873 69.2266C46.1699 69.2266 46.4297 69.166 46.6523 69.0449C46.8789 68.9199 47.0664 68.75 47.2148 68.5352C47.3633 68.3203 47.4746 68.0742 47.5488 67.7969C47.627 67.5156 47.666 67.2168 47.666 66.9004V66.7656C47.666 66.4531 47.627 66.1582 47.5488 65.8809C47.4746 65.5996 47.3613 65.3516 47.209 65.1367C47.0605 64.918 46.873 64.7461 46.6465 64.6211C46.4238 64.4961 46.1621 64.4336 45.8613 64.4336C45.5645 64.4336 45.3027 64.4961 45.0762 64.6211C44.8535 64.7461 44.666 64.918 44.5137 65.1367C44.3652 65.3516 44.2539 65.5996 44.1797 65.8809C44.1055 66.1582 44.0684 66.4531 44.0684 66.7656ZM51.1992 64.6562V70H50.1152V63.6602H51.1699L51.1992 64.6562ZM53.1797 63.625L53.1738 64.6328C53.084 64.6133 52.998 64.6016 52.916 64.5977C52.8379 64.5898 52.748 64.5859 52.6465 64.5859C52.3965 64.5859 52.1758 64.625 51.9844 64.7031C51.793 64.7812 51.6309 64.8906 51.498 65.0312C51.3652 65.1719 51.2598 65.3398 51.1816 65.5352C51.1074 65.7266 51.0586 65.9375 51.0352 66.168L50.7305 66.3438C50.7305 65.9609 50.7676 65.6016 50.8418 65.2656C50.9199 64.9297 51.0391 64.6328 51.1992 64.375C51.3594 64.1133 51.5625 63.9102 51.8086 63.7656C52.0586 63.6172 52.3555 63.543 52.6992 63.543C52.7773 63.543 52.8672 63.5527 52.9688 63.5723C53.0703 63.5879 53.1406 63.6055 53.1797 63.625ZM57.6855 68.916V65.6523C57.6855 65.4023 57.6348 65.1855 57.5332 65.002C57.4355 64.8145 57.2871 64.6699 57.0879 64.5684C56.8887 64.4668 56.6426 64.416 56.3496 64.416C56.0762 64.416 55.8359 64.4629 55.6289 64.5566C55.4258 64.6504 55.2656 64.7734 55.1484 64.9258C55.0352 65.0781 54.9785 65.2422 54.9785 65.418H53.8945C53.8945 65.1914 53.9531 64.9668 54.0703 64.7441C54.1875 64.5215 54.3555 64.3203 54.5742 64.1406C54.7969 63.957 55.0625 63.8125 55.3711 63.707C55.6836 63.5977 56.0312 63.543 56.4141 63.543C56.875 63.543 57.2812 63.6211 57.6328 63.7773C57.9883 63.9336 58.2656 64.1699 58.4648 64.4863C58.668 64.7988 58.7695 65.1914 58.7695 65.6641V68.6172C58.7695 68.8281 58.7871 69.0527 58.8223 69.291C58.8613 69.5293 58.918 69.7344 58.9922 69.9062V70H57.8613C57.8066 69.875 57.7637 69.709 57.7324 69.502C57.7012 69.291 57.6855 69.0957 57.6855 68.916ZM57.873 66.1562L57.8848 66.918H56.7891C56.4805 66.918 56.2051 66.9434 55.9629 66.9941C55.7207 67.041 55.5176 67.1133 55.3535 67.2109C55.1895 67.3086 55.0645 67.4316 54.9785 67.5801C54.8926 67.7246 54.8496 67.8945 54.8496 68.0898C54.8496 68.2891 54.8945 68.4707 54.9844 68.6348C55.0742 68.7988 55.209 68.9297 55.3887 69.0273C55.5723 69.1211 55.7969 69.168 56.0625 69.168C56.3945 69.168 56.6875 69.0977 56.9414 68.957C57.1953 68.8164 57.3965 68.6445 57.5449 68.4414C57.6973 68.2383 57.7793 68.041 57.791 67.8496L58.2539 68.3711C58.2266 68.5352 58.1523 68.7168 58.0312 68.916C57.9102 69.1152 57.748 69.3066 57.5449 69.4902C57.3457 69.6699 57.1074 69.8203 56.8301 69.9414C56.5566 70.0586 56.248 70.1172 55.9043 70.1172C55.4746 70.1172 55.0977 70.0332 54.7734 69.8652C54.4531 69.6973 54.2031 69.4727 54.0234 69.1914C53.8477 68.9062 53.7598 68.5879 53.7598 68.2363C53.7598 67.8965 53.8262 67.5977 53.959 67.3398C54.0918 67.0781 54.2832 66.8613 54.5332 66.6895C54.7832 66.5137 55.084 66.3809 55.4355 66.291C55.7871 66.2012 56.1797 66.1562 56.6133 66.1562H57.873ZM63.1289 63.6602V64.4922H59.7012V63.6602H63.1289ZM60.8613 62.1191H61.9453V68.4297C61.9453 68.6445 61.9785 68.8066 62.0449 68.916C62.1113 69.0254 62.1973 69.0977 62.3027 69.1328C62.4082 69.168 62.5215 69.1855 62.6426 69.1855C62.7324 69.1855 62.8262 69.1777 62.9238 69.1621C63.0254 69.1426 63.1016 69.127 63.1523 69.1152L63.1582 70C63.0723 70.0273 62.959 70.0527 62.8184 70.0762C62.6816 70.1035 62.5156 70.1172 62.3203 70.1172C62.0547 70.1172 61.8105 70.0645 61.5879 69.959C61.3652 69.8535 61.1875 69.6777 61.0547 69.4316C60.9258 69.1816 60.8613 68.8457 60.8613 68.4238V62.1191Z" fill="#666666"/>
<rect x="28" y="24" width="24" height="10" fill="#F3AF00"/>
<path d="M50.6667 21.3333H29.3333C27.8667 21.3333 26.68 22.5333 26.68 23.9999L26.6667 39.9999C26.6667 41.4666 27.8667 42.6666 29.3333 42.6666H50.6667C52.1333 42.6666 53.3333 41.4666 53.3333 39.9999V23.9999C53.3333 22.5333 52.1333 21.3333 50.6667 21.3333ZM50.1333 26.9999L40.7067 32.8933C40.28 33.1599 39.72 33.1599 39.2933 32.8933L29.8667 26.9999C29.733 26.9249 29.6159 26.8235 29.5225 26.7019C29.4291 26.5802 29.3614 26.441 29.3234 26.2924C29.2854 26.1439 29.278 25.9892 29.3015 25.8377C29.3251 25.6862 29.3791 25.541 29.4604 25.411C29.5416 25.281 29.6484 25.1688 29.7743 25.0812C29.9002 24.9937 30.0425 24.9326 30.1927 24.9016C30.3428 24.8707 30.4977 24.8705 30.6479 24.9012C30.7982 24.9318 30.9406 24.9926 31.0667 25.0799L40 30.6666L48.9333 25.0799C49.0594 24.9926 49.2018 24.9318 49.352 24.9012C49.5023 24.8705 49.6572 24.8707 49.8073 24.9016C49.9575 24.9326 50.0998 24.9937 50.2257 25.0812C50.3516 25.1688 50.4584 25.281 50.5396 25.411C50.6209 25.541 50.6749 25.6862 50.6984 25.8377C50.722 25.9892 50.7145 26.1439 50.6766 26.2924C50.6386 26.441 50.5708 26.5802 50.4775 26.7019C50.3841 26.8235 50.267 26.9249 50.1333 26.9999Z" fill="#00A2B9"/>
</svg>
