<svg width="80" height="80" viewBox="0 0 80 80" fill="none" xmlns="http://www.w3.org/2000/svg">
<rect opacity="0.1" width="80" height="80" rx="20" fill="#00A2B9"/>
<path d="M30.6666 31.3858C30.6666 26.5511 34.8654 22.6667 40 22.6667C45.1345 22.6667 49.3333 26.5511 49.3333 31.3858C49.3333 34.2106 48.1224 36.7593 45.8551 38.3661C45.7164 38.4577 45.6158 38.5937 45.5713 38.7501C45.4979 39.0501 45.417 39.3957 45.3349 39.7677C45.3231 39.8219 45.2923 39.8705 45.2476 39.9052C45.2029 39.94 45.1472 39.9588 45.0897 39.9585H41.1822C41.1162 39.9585 41.0529 39.9332 41.0062 39.8882C40.9595 39.8432 40.9333 39.7821 40.9333 39.7185V38.9217L42.24 36.9441C42.3644 36.7556 42.4117 36.5292 42.3726 36.309C42.3335 36.0887 42.2108 35.8904 42.0284 35.7525L39.7884 34.057L40.7877 32.545C40.9205 32.3435 40.9649 32.0994 40.9112 31.8664C40.8574 31.6334 40.7098 31.4305 40.5008 31.3024C40.2919 31.1743 40.0388 31.1315 39.7971 31.1834C39.5555 31.2352 39.3451 31.3775 39.2122 31.579L37.7612 33.7774C37.6368 33.9659 37.5895 34.1923 37.6286 34.4125C37.6677 34.6327 37.7904 34.8311 37.9728 34.9689L40.2103 36.6645L39.2122 38.1765C39.1172 38.3207 39.0667 38.488 39.0666 38.6589V39.7173C39.0666 39.7809 39.0404 39.842 38.9937 39.887C38.9471 39.932 38.8837 39.9573 38.8177 39.9573H34.9102C34.8532 39.9574 34.7978 39.9386 34.7534 39.9041C34.709 39.8696 34.6782 39.8214 34.6663 39.7677C34.5829 39.3957 34.502 39.0489 34.4298 38.7501C34.3848 38.5933 34.2833 38.4572 34.1436 38.3661C31.88 36.7581 30.6666 34.2106 30.6666 31.3858ZM35.3719 41.7584C35.3355 41.7584 35.2995 41.7661 35.2665 41.781C35.2334 41.7958 35.2042 41.8174 35.1807 41.8442C35.1572 41.8711 35.1401 41.9025 35.1306 41.9364C35.1211 41.9703 35.1193 42.0058 35.1255 42.0404C35.2561 42.7652 35.352 43.4168 35.3793 43.8584C35.4577 45.1076 36.4122 46.1372 37.6878 46.4024L37.9317 46.454C39.2948 46.7377 40.7051 46.7377 42.0682 46.454L42.3121 46.4024C43.5877 46.1372 44.5422 45.1076 44.6206 43.8584C44.648 43.4168 44.745 42.7664 44.8744 42.0404C44.8806 42.0058 44.8789 41.9703 44.8693 41.9364C44.8598 41.9025 44.8427 41.8711 44.8192 41.8442C44.7957 41.8174 44.7665 41.7958 44.7335 41.781C44.7004 41.7661 44.6645 41.7584 44.628 41.7584H35.3719Z" fill="#00A2B9"/>
<path d="M40.943 20.9427C40.6929 21.1927 40.3538 21.3332 40.0002 21.3332C39.6465 21.3332 39.3074 21.1927 39.0574 20.9427C38.8073 20.6926 38.6668 20.3535 38.6668 19.9999V18.6665C38.6668 18.3129 38.8073 17.9738 39.0574 17.7237C39.3074 17.4737 39.6465 17.3332 40.0002 17.3332C40.3538 17.3332 40.6929 17.4737 40.943 17.7237C41.193 17.9738 41.3335 18.3129 41.3335 18.6665V19.9999C41.3335 20.3535 41.193 20.6926 40.943 20.9427Z" fill="#F3AF00"/>
<path d="M47.4592 24.4544C47.1352 24.434 46.8298 24.2961 46.6002 24.0665C46.3502 23.8165 46.2098 23.4774 46.2098 23.1239C46.2098 22.7703 46.3502 22.4313 46.6002 22.1812L47.5428 21.2386L47.6682 21.1279C47.9361 20.9207 48.273 20.8232 48.6102 20.8554C48.9474 20.8875 49.2598 21.0468 49.4838 21.3008C49.7079 21.5549 49.8268 21.8848 49.8165 22.2234C49.8061 22.562 49.6673 22.8839 49.4282 23.1239L48.4855 24.0665L48.3602 24.1772C48.1036 24.3762 47.7833 24.4748 47.4592 24.4544Z" fill="#F3AF00"/>
<path d="M33.7905 23.1239C33.7905 23.4774 33.6501 23.8165 33.4002 24.0665C33.1501 24.3165 32.811 24.4569 32.4575 24.4569C32.1039 24.4569 31.7649 24.3165 31.5148 24.0665L30.5722 23.1239C30.3293 22.8724 30.1949 22.5356 30.1979 22.186C30.201 21.8364 30.3412 21.502 30.5884 21.2548C30.8356 21.0076 31.17 20.8674 31.5196 20.8643C31.8692 20.8613 32.206 20.9957 32.4575 21.2386L33.4002 22.1812C33.6501 22.4313 33.7905 22.7703 33.7905 23.1239Z" fill="#F3AF00"/>
<path d="M32.1797 62.0801V63H27.9141V62.0801H32.1797ZM28.1367 54.4688V63H27.0059V54.4688H28.1367ZM38.0391 54.4688H39.1641V60.2402C39.1641 60.8809 39.0215 61.4141 38.7363 61.8398C38.4512 62.2656 38.0723 62.5859 37.5996 62.8008C37.1309 63.0117 36.6211 63.1172 36.0703 63.1172C35.4922 63.1172 34.9688 63.0117 34.5 62.8008C34.0352 62.5859 33.666 62.2656 33.3926 61.8398C33.123 61.4141 32.9883 60.8809 32.9883 60.2402V54.4688H34.1074V60.2402C34.1074 60.6855 34.1895 61.0527 34.3535 61.3418C34.5176 61.6309 34.7461 61.8457 35.0391 61.9863C35.3359 62.127 35.6797 62.1973 36.0703 62.1973C36.4648 62.1973 36.8086 62.127 37.1016 61.9863C37.3984 61.8457 37.6289 61.6309 37.793 61.3418C37.957 61.0527 38.0391 60.6855 38.0391 60.2402V54.4688ZM44.0918 54.4688V63H42.9785V54.4688H44.0918ZM46.834 54.4688V55.3945H40.2422V54.4688H46.834ZM50.4082 63H48.627L48.6387 62.0801H50.4082C51.0176 62.0801 51.5254 61.9531 51.9316 61.6992C52.3379 61.4414 52.6426 61.082 52.8457 60.6211C53.0527 60.1562 53.1562 59.6133 53.1562 58.9922V58.4707C53.1562 57.9824 53.0977 57.5488 52.9805 57.1699C52.8633 56.7871 52.6914 56.4648 52.4648 56.2031C52.2383 55.9375 51.9609 55.7363 51.6328 55.5996C51.3086 55.4629 50.9355 55.3945 50.5137 55.3945H48.5918V54.4688H50.5137C51.0723 54.4688 51.582 54.5625 52.043 54.75C52.5039 54.9336 52.9004 55.2012 53.2324 55.5527C53.5684 55.9004 53.8262 56.3223 54.0059 56.8184C54.1855 57.3105 54.2754 57.8652 54.2754 58.4824V58.9922C54.2754 59.6094 54.1855 60.166 54.0059 60.6621C53.8262 61.1543 53.5664 61.5742 53.2266 61.9219C52.8906 62.2695 52.4844 62.5371 52.0078 62.7246C51.5352 62.9082 51.002 63 50.4082 63ZM49.2305 54.4688V63H48.0996V54.4688H49.2305Z" fill="#666666"/>
</svg>
