<svg width="60" height="60" viewBox="0 0 60 60" fill="none" xmlns="http://www.w3.org/2000/svg">
<defs>
<filter id="filter0_bdi_7961_80625" x="11.5" y="11.5" width="37" height="38" filterUnits="userSpaceOnUse" color-interpolation-filters="sRGB">
<feFlood flood-opacity="0" result="BackgroundImageFix"/>
<feGaussianBlur in="BackgroundImage" stdDeviation="2.5"/>
<feComposite in2="SourceAlpha" operator="in" result="effect1_backgroundBlur_7961_80625"/>
<feColorMatrix in="SourceAlpha" type="matrix" values="0 0 0 0 0 0 0 0 0 0 0 0 0 0 0 0 0 0 127 0" result="hardAlpha"/>
<feOffset dy="2"/>
<feGaussianBlur stdDeviation="2"/>
<feComposite in2="hardAlpha" operator="out"/>
<feColorMatrix type="matrix" values="0 0 0 0 0 0 0 0 0 0.380392 0 0 0 0 0.435294 0 0 0 0.1 0"/>
<feBlend mode="normal" in2="effect1_backgroundBlur_7961_80625" result="effect2_dropShadow_7961_80625"/>
<feBlend mode="normal" in="SourceGraphic" in2="effect2_dropShadow_7961_80625" result="shape"/>
<feColorMatrix in="SourceAlpha" type="matrix" values="0 0 0 0 0 0 0 0 0 0 0 0 0 0 0 0 0 0 127 0" result="hardAlpha"/>
<feOffset dy="2"/>
<feGaussianBlur stdDeviation="2"/>
<feComposite in2="hardAlpha" operator="arithmetic" k2="-1" k3="1"/>
<feColorMatrix type="matrix" values="0 0 0 0 0 0 0 0 0 0.380392 0 0 0 0 0.435294 0 0 0 0.1 0"/>
<feBlend mode="normal" in2="shape" result="effect3_innerShadow_7961_80625"/>
</filter>
<linearGradient id="paint0_linear_7961_80625" x1="30" y1="16.5" x2="30" y2="43.5" gradientUnits="userSpaceOnUse">
<stop stop-color="#00A2B9" stop-opacity="0.3"/>
<stop offset="0.333333" stop-color="#00A2B9" stop-opacity="0.81"/>
<stop offset="1" stop-color="#00A2B9"/>
</linearGradient>
<clipPath id="clip0_7961_80625">
<rect width="36" height="36" fill="white" transform="translate(12 12)"/>
</clipPath>
</defs>
<rect opacity="0.1" width="60" height="60" rx="20" fill="#00A2B9"/>
<g clip-path="url(#clip0_7961_80625)">
<g filter="url(#filter0_bdi_7961_80625)">
<path d="M28.5 37.5C28.5 38.325 29.175 39 30 39C30.825 39 31.5 38.325 31.5 37.5C31.5 36.675 30.825 36 30 36C29.175 36 28.5 36.675 28.5 37.5ZM28.5 16.5V22.5H31.5V19.62C36.585 20.355 40.5 24.705 40.5 30C40.5 35.805 35.805 40.5 30 40.5C24.195 40.5 19.5 35.805 19.5 30C19.5 27.48 20.385 25.17 21.87 23.37L30 31.5L32.115 29.385L21.915 19.185V19.215C18.63 21.675 16.5 25.575 16.5 30C16.5 37.455 22.53 43.5 30 43.5C33.5804 43.5 37.0142 42.0777 39.5459 39.5459C42.0777 37.0142 43.5 33.5804 43.5 30C43.5 26.4196 42.0777 22.9858 39.5459 20.4541C37.0142 17.9223 33.5804 16.5 30 16.5H28.5ZM39 30C39 29.175 38.325 28.5 37.5 28.5C36.675 28.5 36 29.175 36 30C36 30.825 36.675 31.5 37.5 31.5C38.325 31.5 39 30.825 39 30ZM21 30C21 30.825 21.675 31.5 22.5 31.5C23.325 31.5 24 30.825 24 30C24 29.175 23.325 28.5 22.5 28.5C21.675 28.5 21 29.175 21 30Z" fill="url(#paint0_linear_7961_80625)" fill-opacity="0.95" shape-rendering="crispEdges"/>
</g>
<path d="M28.5 37.5C28.5 38.325 29.175 39 30 39C30.825 39 31.5 38.325 31.5 37.5C31.5 36.675 30.825 36 30 36C29.175 36 28.5 36.675 28.5 37.5ZM39 30C39 29.175 38.325 28.5 37.5 28.5C36.675 28.5 36 29.175 36 30C36 30.825 36.675 31.5 37.5 31.5C38.325 31.5 39 30.825 39 30ZM21 30C21 30.825 21.675 31.5 22.5 31.5C23.325 31.5 24 30.825 24 30C24 29.175 23.325 28.5 22.5 28.5C21.675 28.5 21 29.175 21 30Z" fill="#F2AF1D"/>
</g>

</svg>
