<svg width="69" height="100" viewBox="0 0 69 100" fill="none" xmlns="http://www.w3.org/2000/svg">
<rect width="68.75" height="100" rx="8" fill="white"/>
<rect width="68.75" height="100" rx="8" fill="#E6F6F8" fill-opacity="0.5"/>
<g clip-path="url(#clip0_615_8904)">
<path d="M23.4716 25.3873C21.2781 27.7744 23.4071 30.5486 23.9233 31.0002C24.7822 31.7518 32.4394 39.1292 32.4394 39.1292C33.5362 40.1615 35.7942 40.097 36.762 39.1292C36.762 39.1292 45.6652 30.355 46.1168 29.9034C46.2458 29.7744 47.6007 27.0002 45.6652 25.0647C43.6007 23.0002 40.891 24.355 40.5684 24.6776C40.0572 25.1888 35.0845 30.8188 33.4716 31.3228C31.4071 31.9679 30.1168 29.6453 30.1168 29.6453C30.1168 29.6453 30.4974 27.2229 29.7297 26.0324C28.5803 24.2502 25.4496 23.2347 23.4716 25.3873Z" fill="#11A9BE" stroke="#11A9BE" stroke-width="0.129032"/>
<path d="M47.5958 21.1868C49.5366 23.7505 50.6737 26.8322 50.8632 30.0421C51.0526 33.2521 50.286 36.4461 48.6602 39.2203C47.0344 41.9947 44.6224 44.2245 41.7292 45.6278C38.8362 47.0313 35.5918 47.5454 32.4066 47.105" stroke="#364041" stroke-width="0.387097" stroke-linecap="round"/>
<path d="M21.8445 41.0386C19.6155 38.1989 18.395 34.698 18.3754 31.0881C18.3558 27.478 19.5383 23.9642 21.7365 21.1006" stroke="#364041" stroke-width="0.387097" stroke-linecap="round"/>
<path d="M28.3556 16.0023C31.0936 14.8563 34.0929 14.4816 37.0287 14.9189" stroke="#364041" stroke-width="0.387097" stroke-linecap="round"/>
<path d="M43.4789 15.9937C47.3714 18.2882 50.22 22.0056 51.4234 26.361" stroke="#11A9BE" stroke-width="0.645161" stroke-linecap="round"/>
<path d="M38.8973 47.8895C34.418 49.0203 29.673 48.3256 25.7059 45.9578C21.7388 43.5901 18.8748 39.7435 17.7439 35.2642" stroke="#11A9BE" stroke-width="0.645161" stroke-linecap="round"/>
<path d="M19.6582 22.1014C21.1894 19.5246 23.3595 17.3866 25.9588 15.8939C28.5581 14.4013 31.4986 13.6047 34.4959 13.5811" stroke="#11A9BE" stroke-width="0.645161" stroke-linecap="round"/>
<path d="M51.8589 31.3873C52.0371 31.3873 52.1815 31.2429 52.1815 31.0648C52.1815 30.8866 52.0371 30.7422 51.8589 30.7422C51.6808 30.7422 51.5364 30.8866 51.5364 31.0648C51.5364 31.2429 51.6808 31.3873 51.8589 31.3873Z" fill="#11A9BE"/>
<path d="M51.3428 35.903C51.521 35.903 51.6654 35.7585 51.6654 35.5804C51.6654 35.4022 51.521 35.2578 51.3428 35.2578C51.1646 35.2578 51.0202 35.4022 51.0202 35.5804C51.0202 35.7585 51.1646 35.903 51.3428 35.903Z" fill="#11A9BE"/>
<path d="M49.5364 40.0327C49.7146 40.0327 49.859 39.8883 49.859 39.7102C49.859 39.532 49.7146 39.3876 49.5364 39.3876C49.3583 39.3876 49.2139 39.532 49.2139 39.7102C49.2139 39.8883 49.3583 40.0327 49.5364 40.0327Z" fill="#11A9BE"/>
<path d="M46.6975 43.5161C46.8757 43.5161 47.0201 43.3717 47.0201 43.1936C47.0201 43.0154 46.8757 42.871 46.6975 42.871C46.5194 42.871 46.3749 43.0154 46.3749 43.1936C46.3749 43.3717 46.5194 43.5161 46.6975 43.5161Z" fill="#11A9BE"/>
<path d="M43.0845 46.2258C43.2627 46.2258 43.4071 46.0814 43.4071 45.9033C43.4071 45.7251 43.2627 45.5807 43.0845 45.5807C42.9064 45.5807 42.7619 45.7251 42.7619 45.9033C42.7619 46.0814 42.9064 46.2258 43.0845 46.2258Z" fill="#11A9BE"/>
<path d="M17.278 31.1288C17.4562 31.1288 17.6006 30.9844 17.6006 30.8062C17.6006 30.6281 17.4562 30.4836 17.278 30.4836C17.0999 30.4836 16.9554 30.6281 16.9554 30.8062C16.9554 30.9844 17.0999 31.1288 17.278 31.1288Z" fill="#11A9BE"/>
<path d="M17.9234 26.6129C18.1016 26.6129 18.246 26.4685 18.246 26.2904C18.246 26.1122 18.1016 25.9678 17.9234 25.9678C17.7452 25.9678 17.6008 26.1122 17.6008 26.2904C17.6008 26.4685 17.7452 26.6129 17.9234 26.6129Z" fill="#11A9BE"/>
<path d="M39.2139 14.6134C39.392 14.6134 39.5365 14.469 39.5365 14.2908C39.5365 14.1127 39.392 13.9683 39.2139 13.9683C39.0357 13.9683 38.8913 14.1127 38.8913 14.2908C38.8913 14.469 39.0357 14.6134 39.2139 14.6134Z" fill="#11A9BE"/>
<path d="M24.7621 18.3551C24.869 18.3551 24.9557 18.2685 24.9557 18.1616C24.9557 18.0547 24.869 17.968 24.7621 17.968C24.6552 17.968 24.5686 18.0547 24.5686 18.1616C24.5686 18.2685 24.6552 18.3551 24.7621 18.3551Z" fill="#364041"/>
<path d="M24.7621 43.9032C24.869 43.9032 24.9557 43.8166 24.9557 43.7097C24.9557 43.6028 24.869 43.5161 24.7621 43.5161C24.6552 43.5161 24.5686 43.6028 24.5686 43.7097C24.5686 43.8166 24.6552 43.9032 24.7621 43.9032Z" fill="#364041"/>
<path d="M28.3751 45.9678C28.482 45.9678 28.5687 45.8811 28.5687 45.7742C28.5687 45.6673 28.482 45.5807 28.3751 45.5807C28.2682 45.5807 28.1816 45.6673 28.1816 45.7742C28.1816 45.8811 28.2682 45.9678 28.3751 45.9678Z" fill="#364041"/>
<path d="M40.762 16.2899C40.8689 16.2899 40.9555 16.2033 40.9555 16.0964C40.9555 15.9895 40.8689 15.9028 40.762 15.9028C40.6551 15.9028 40.5684 15.9895 40.5684 16.0964C40.5684 16.2033 40.6551 16.2899 40.762 16.2899Z" fill="#364041"/>
<path d="M44.5039 18.3551C44.6108 18.3551 44.6975 18.2685 44.6975 18.1616C44.6975 18.0547 44.6108 17.968 44.5039 17.968C44.397 17.968 44.3104 18.0547 44.3104 18.1616C44.3104 18.2685 44.397 18.3551 44.5039 18.3551Z" fill="#364041"/>
</g>
<path d="M6.31605 68V59.6H8.90805C9.70805 59.6 10.416 59.78 11.032 60.14C11.656 60.492 12.144 60.984 12.496 61.616C12.848 62.248 13.024 62.976 13.024 63.8C13.024 64.616 12.848 65.34 12.496 65.972C12.144 66.604 11.656 67.1 11.032 67.46C10.416 67.82 9.70805 68 8.90805 68H6.31605ZM7.49205 66.896H8.90805C9.31605 66.896 9.69605 66.82 10.048 66.668C10.4 66.508 10.708 66.288 10.972 66.008C11.244 65.72 11.452 65.388 11.596 65.012C11.748 64.636 11.824 64.232 11.824 63.8C11.824 63.368 11.748 62.964 11.596 62.588C11.452 62.212 11.244 61.884 10.972 61.604C10.708 61.316 10.4 61.096 10.048 60.944C9.69605 60.784 9.31605 60.704 8.90805 60.704H7.49205V66.896ZM18.0209 68L17.9729 66.956V64.868C17.9729 64.428 17.9209 64.06 17.8169 63.764C17.7209 63.468 17.5689 63.244 17.3609 63.092C17.1609 62.94 16.8929 62.864 16.5569 62.864C16.2449 62.864 15.9729 62.928 15.7409 63.056C15.5169 63.184 15.3289 63.384 15.1769 63.656L14.1689 63.272C14.3129 63 14.4929 62.76 14.7089 62.552C14.9249 62.336 15.1849 62.168 15.4889 62.048C15.7929 61.92 16.1489 61.856 16.5569 61.856C17.1249 61.856 17.5969 61.968 17.9729 62.192C18.3489 62.416 18.6289 62.74 18.8129 63.164C19.0049 63.588 19.0969 64.112 19.0889 64.736L19.0769 68H18.0209ZM16.2569 68.144C15.5449 68.144 14.9889 67.984 14.5889 67.664C14.1969 67.336 14.0009 66.884 14.0009 66.308C14.0009 65.692 14.2049 65.224 14.6129 64.904C15.0289 64.576 15.6049 64.412 16.3409 64.412H18.0089V65.312H16.6529C16.1009 65.312 15.7129 65.4 15.4889 65.576C15.2649 65.744 15.1529 65.98 15.1529 66.284C15.1529 66.564 15.2569 66.784 15.4649 66.944C15.6809 67.096 15.9769 67.172 16.3529 67.172C16.6809 67.172 16.9649 67.104 17.2049 66.968C17.4449 66.824 17.6329 66.624 17.7689 66.368C17.9049 66.112 17.9729 65.82 17.9729 65.492H18.3689C18.3689 66.308 18.1929 66.956 17.8409 67.436C17.4969 67.908 16.9689 68.144 16.2569 68.144ZM22.6724 68.144C22.2484 68.144 21.8684 68.08 21.5324 67.952C21.2044 67.824 20.9244 67.652 20.6924 67.436C20.4684 67.22 20.3004 66.976 20.1884 66.704L21.1724 66.272C21.3004 66.52 21.4924 66.724 21.7484 66.884C22.0044 67.044 22.2884 67.124 22.6004 67.124C22.9444 67.124 23.2284 67.06 23.4524 66.932C23.6764 66.804 23.7884 66.624 23.7884 66.392C23.7884 66.168 23.7044 65.992 23.5364 65.864C23.3684 65.736 23.1244 65.632 22.8044 65.552L22.2404 65.408C21.6804 65.256 21.2444 65.028 20.9324 64.724C20.6284 64.42 20.4764 64.076 20.4764 63.692C20.4764 63.108 20.6644 62.656 21.0404 62.336C21.4164 62.016 21.9724 61.856 22.7084 61.856C23.0684 61.856 23.3964 61.908 23.6924 62.012C23.9964 62.116 24.2524 62.264 24.4604 62.456C24.6764 62.648 24.8284 62.876 24.9164 63.14L23.9564 63.572C23.8604 63.332 23.6964 63.156 23.4644 63.044C23.2324 62.924 22.9604 62.864 22.6484 62.864C22.3284 62.864 22.0764 62.936 21.8924 63.08C21.7084 63.216 21.6164 63.408 21.6164 63.656C21.6164 63.792 21.6924 63.924 21.8444 64.052C22.0044 64.172 22.2364 64.272 22.5404 64.352L23.1884 64.508C23.5804 64.604 23.9044 64.752 24.1604 64.952C24.4164 65.144 24.6084 65.364 24.7364 65.612C24.8644 65.852 24.9284 66.104 24.9284 66.368C24.9284 66.728 24.8284 67.044 24.6284 67.316C24.4364 67.58 24.1684 67.784 23.8244 67.928C23.4884 68.072 23.1044 68.144 22.6724 68.144ZM26.1263 68V59.6H27.2543V68H26.1263ZM30.2783 68V64.928H31.4063V68H30.2783ZM30.2783 64.928C30.2783 64.384 30.2143 63.972 30.0863 63.692C29.9583 63.404 29.7823 63.204 29.5583 63.092C29.3423 62.98 29.0943 62.92 28.8143 62.912C28.3183 62.912 27.9343 63.084 27.6623 63.428C27.3903 63.772 27.2543 64.256 27.2543 64.88H26.7743C26.7743 64.248 26.8663 63.708 27.0503 63.26C27.2423 62.804 27.5103 62.456 27.8543 62.216C28.2063 61.976 28.6223 61.856 29.1023 61.856C29.5743 61.856 29.9823 61.952 30.3263 62.144C30.6703 62.336 30.9383 62.636 31.1303 63.044C31.3223 63.444 31.4143 63.972 31.4063 64.628V64.928H30.2783ZM32.8408 68V59.6H33.9808V66.884L33.9208 68H32.8408ZM35.9488 68.144C35.4448 68.144 35.0048 68.012 34.6288 67.748C34.2608 67.484 33.9768 67.116 33.7768 66.644C33.5768 66.172 33.4768 65.624 33.4768 65C33.4768 64.368 33.5768 63.82 33.7768 63.356C33.9768 62.884 34.2608 62.516 34.6288 62.252C35.0048 61.988 35.4448 61.856 35.9488 61.856C36.4848 61.856 36.9568 61.988 37.3648 62.252C37.7728 62.516 38.0888 62.884 38.3128 63.356C38.5448 63.82 38.6608 64.368 38.6608 65C38.6608 65.624 38.5448 66.172 38.3128 66.644C38.0888 67.116 37.7728 67.484 37.3648 67.748C36.9568 68.012 36.4848 68.144 35.9488 68.144ZM35.6728 67.112C36.0328 67.112 36.3488 67.024 36.6208 66.848C36.8928 66.664 37.1048 66.416 37.2568 66.104C37.4168 65.784 37.4968 65.416 37.4968 65C37.4968 64.584 37.4208 64.22 37.2688 63.908C37.1168 63.588 36.9048 63.34 36.6328 63.164C36.3608 62.98 36.0448 62.888 35.6848 62.888C35.3568 62.888 35.0608 62.98 34.7968 63.164C34.5408 63.34 34.3408 63.588 34.1968 63.908C34.0528 64.228 33.9808 64.592 33.9808 65C33.9808 65.416 34.0528 65.784 34.1968 66.104C34.3408 66.416 34.5408 66.664 34.7968 66.848C35.0528 67.024 35.3448 67.112 35.6728 67.112ZM42.6192 68.144C42.0192 68.144 41.4912 68.012 41.0352 67.748C40.5792 67.476 40.2192 67.104 39.9552 66.632C39.6992 66.16 39.5712 65.616 39.5712 65C39.5712 64.384 39.6992 63.84 39.9552 63.368C40.2112 62.896 40.5672 62.528 41.0232 62.264C41.4792 61.992 42.0032 61.856 42.5952 61.856C43.1872 61.856 43.7112 61.992 44.1672 62.264C44.6232 62.528 44.9792 62.896 45.2352 63.368C45.4912 63.84 45.6192 64.384 45.6192 65C45.6192 65.616 45.4912 66.16 45.2352 66.632C44.9792 67.104 44.6232 67.476 44.1672 67.748C43.7192 68.012 43.2032 68.144 42.6192 68.144ZM42.6192 67.1C42.9792 67.1 43.2992 67.012 43.5792 66.836C43.8592 66.652 44.0752 66.404 44.2272 66.092C44.3872 65.78 44.4672 65.416 44.4672 65C44.4672 64.584 44.3872 64.22 44.2272 63.908C44.0752 63.596 43.8552 63.352 43.5672 63.176C43.2792 62.992 42.9552 62.9 42.5952 62.9C42.2272 62.9 41.9032 62.992 41.6232 63.176C41.3432 63.352 41.1232 63.596 40.9632 63.908C40.8032 64.22 40.7232 64.584 40.7232 65C40.7232 65.416 40.8032 65.78 40.9632 66.092C41.1232 66.404 41.3472 66.652 41.6352 66.836C41.9232 67.012 42.2512 67.1 42.6192 67.1ZM50.5522 68L50.5042 66.956V64.868C50.5042 64.428 50.4522 64.06 50.3482 63.764C50.2522 63.468 50.1002 63.244 49.8922 63.092C49.6922 62.94 49.4242 62.864 49.0882 62.864C48.7762 62.864 48.5042 62.928 48.2722 63.056C48.0482 63.184 47.8602 63.384 47.7082 63.656L46.7002 63.272C46.8442 63 47.0242 62.76 47.2402 62.552C47.4562 62.336 47.7162 62.168 48.0202 62.048C48.3242 61.92 48.6802 61.856 49.0882 61.856C49.6562 61.856 50.1282 61.968 50.5042 62.192C50.8802 62.416 51.1602 62.74 51.3442 63.164C51.5362 63.588 51.6282 64.112 51.6202 64.736L51.6082 68H50.5522ZM48.7882 68.144C48.0762 68.144 47.5202 67.984 47.1202 67.664C46.7282 67.336 46.5322 66.884 46.5322 66.308C46.5322 65.692 46.7362 65.224 47.1442 64.904C47.5602 64.576 48.1362 64.412 48.8722 64.412H50.5402V65.312H49.1842C48.6322 65.312 48.2442 65.4 48.0202 65.576C47.7962 65.744 47.6842 65.98 47.6842 66.284C47.6842 66.564 47.7882 66.784 47.9962 66.944C48.2122 67.096 48.5082 67.172 48.8842 67.172C49.2122 67.172 49.4962 67.104 49.7362 66.968C49.9762 66.824 50.1642 66.624 50.3002 66.368C50.4362 66.112 50.5042 65.82 50.5042 65.492H50.9002C50.9002 66.308 50.7242 66.956 50.3722 67.436C50.0282 67.908 49.5002 68.144 48.7882 68.144ZM53.7517 64.772C53.7517 64.124 53.8757 63.596 54.1237 63.188C54.3717 62.78 54.6917 62.476 55.0837 62.276C55.4757 62.076 55.8877 61.976 56.3197 61.976V63.056C55.9597 63.056 55.6157 63.112 55.2877 63.224C54.9677 63.328 54.7037 63.504 54.4957 63.752C54.2957 63.992 54.1957 64.32 54.1957 64.736L53.7517 64.772ZM53.0557 68V62H54.1957V68H53.0557ZM61.6313 68L61.5833 66.884V59.6H62.7113V68H61.6313ZM59.6153 68.144C59.0713 68.144 58.5953 68.012 58.1873 67.748C57.7873 67.484 57.4713 67.116 57.2393 66.644C57.0153 66.172 56.9033 65.624 56.9033 65C56.9033 64.368 57.0153 63.82 57.2393 63.356C57.4713 62.884 57.7873 62.516 58.1873 62.252C58.5953 61.988 59.0713 61.856 59.6153 61.856C60.1193 61.856 60.5553 61.988 60.9233 62.252C61.2993 62.516 61.5873 62.884 61.7873 63.356C61.9873 63.82 62.0873 64.368 62.0873 65C62.0873 65.624 61.9873 66.172 61.7873 66.644C61.5873 67.116 61.2993 67.484 60.9233 67.748C60.5553 68.012 60.1193 68.144 59.6153 68.144ZM59.8793 67.112C60.2153 67.112 60.5113 67.024 60.7673 66.848C61.0233 66.664 61.2233 66.416 61.3673 66.104C61.5113 65.784 61.5833 65.416 61.5833 65C61.5833 64.584 61.5113 64.22 61.3673 63.908C61.2233 63.588 61.0233 63.34 60.7673 63.164C60.5113 62.98 60.2113 62.888 59.8673 62.888C59.5153 62.888 59.2033 62.98 58.9313 63.164C58.6593 63.34 58.4473 63.588 58.2953 63.908C58.1433 64.22 58.0673 64.584 58.0673 65C58.0673 65.416 58.1433 65.784 58.2953 66.104C58.4553 66.416 58.6713 66.664 58.9433 66.848C59.2153 67.024 59.5273 67.112 59.8793 67.112ZM9.38636 85V76.6H12.2184C12.7784 76.6 13.2704 76.716 13.6944 76.948C14.1264 77.172 14.4624 77.488 14.7024 77.896C14.9504 78.296 15.0744 78.764 15.0744 79.3C15.0744 79.82 14.9624 80.284 14.7384 80.692C14.5144 81.1 14.2024 81.42 13.8024 81.652C13.4104 81.884 12.9584 82 12.4464 82H10.5624V85H9.38636ZM10.5624 80.908H12.4344C12.8584 80.908 13.2064 80.76 13.4784 80.464C13.7504 80.16 13.8864 79.772 13.8864 79.3C13.8864 78.812 13.7264 78.42 13.4064 78.124C13.0944 77.828 12.6944 77.68 12.2064 77.68H10.5624V80.908ZM16.4176 85V76.6H17.5936V83.92H21.4936V85H16.4176ZM22.7106 85V76.6H23.9226L28.6746 83.032V76.6H29.8626V85H28.6746L23.8866 78.508V85H22.7106ZM34.9332 85V76.6H37.5252C38.3252 76.6 39.0332 76.78 39.6492 77.14C40.2732 77.492 40.7612 77.984 41.1132 78.616C41.4652 79.248 41.6412 79.976 41.6412 80.8C41.6412 81.616 41.4652 82.34 41.1132 82.972C40.7612 83.604 40.2732 84.1 39.6492 84.46C39.0332 84.82 38.3252 85 37.5252 85H34.9332ZM36.1092 83.896H37.5252C37.9332 83.896 38.3132 83.82 38.6652 83.668C39.0172 83.508 39.3252 83.288 39.5892 83.008C39.8612 82.72 40.0692 82.388 40.2132 82.012C40.3652 81.636 40.4412 81.232 40.4412 80.8C40.4412 80.368 40.3652 79.964 40.2132 79.588C40.0692 79.212 39.8612 78.884 39.5892 78.604C39.3252 78.316 39.0172 78.096 38.6652 77.944C38.3132 77.784 37.9332 77.704 37.5252 77.704H36.1092V83.896ZM46.6381 85L46.5901 83.956V81.868C46.5901 81.428 46.5381 81.06 46.4341 80.764C46.3381 80.468 46.1861 80.244 45.9781 80.092C45.7781 79.94 45.5101 79.864 45.1741 79.864C44.8621 79.864 44.5901 79.928 44.3581 80.056C44.1341 80.184 43.9461 80.384 43.7941 80.656L42.7861 80.272C42.9301 80 43.1101 79.76 43.3261 79.552C43.5421 79.336 43.8021 79.168 44.1061 79.048C44.4101 78.92 44.7661 78.856 45.1741 78.856C45.7421 78.856 46.2141 78.968 46.5901 79.192C46.9661 79.416 47.2461 79.74 47.4301 80.164C47.6221 80.588 47.7141 81.112 47.7061 81.736L47.6941 85H46.6381ZM44.8741 85.144C44.1621 85.144 43.6061 84.984 43.2061 84.664C42.8141 84.336 42.6181 83.884 42.6181 83.308C42.6181 82.692 42.8221 82.224 43.2301 81.904C43.6461 81.576 44.2221 81.412 44.9581 81.412H46.6261V82.312H45.2701C44.7181 82.312 44.3301 82.4 44.1061 82.576C43.8821 82.744 43.7701 82.98 43.7701 83.284C43.7701 83.564 43.8741 83.784 44.0821 83.944C44.2981 84.096 44.5941 84.172 44.9701 84.172C45.2981 84.172 45.5821 84.104 45.8221 83.968C46.0621 83.824 46.2501 83.624 46.3861 83.368C46.5221 83.112 46.5901 82.82 46.5901 82.492H46.9861C46.9861 83.308 46.8101 83.956 46.4581 84.436C46.1141 84.908 45.5861 85.144 44.8741 85.144ZM49.2136 85V79H50.3536V85H49.2136ZM49.7896 77.728C49.6056 77.728 49.4456 77.66 49.3096 77.524C49.1736 77.38 49.1056 77.216 49.1056 77.032C49.1056 76.84 49.1736 76.68 49.3096 76.552C49.4456 76.416 49.6056 76.348 49.7896 76.348C49.9816 76.348 50.1416 76.416 50.2696 76.552C50.4056 76.68 50.4736 76.84 50.4736 77.032C50.4736 77.216 50.4056 77.38 50.2696 77.524C50.1416 77.66 49.9816 77.728 49.7896 77.728ZM52.0244 85V76.6H53.1644V85H52.0244ZM55.4752 87.544C55.2992 87.544 55.1032 87.512 54.8872 87.448C54.6792 87.384 54.4632 87.3 54.2392 87.196L54.6592 86.26C54.8352 86.34 54.9872 86.4 55.1152 86.44C55.2512 86.48 55.3592 86.5 55.4392 86.5C55.6392 86.5 55.8072 86.444 55.9432 86.332C56.0872 86.22 56.2032 86.064 56.2912 85.864L56.9872 84.22L59.1232 79H60.3472L57.5032 85.744C57.3512 86.112 57.1912 86.432 57.0232 86.704C56.8552 86.976 56.6472 87.184 56.3992 87.328C56.1592 87.472 55.8512 87.544 55.4752 87.544ZM56.6752 85L54.0472 79H55.2592L57.4312 84.208L57.7792 85H56.6752Z" fill="#25262B"/>
<defs>
<clipPath id="clip0_615_8904">
<rect width="40" height="40" fill="white" transform="translate(14.375 11)"/>
</clipPath>
</defs>
</svg>
